%TF.GenerationSoftware,KiCad,Pcbnew,9.0.7*%
%TF.CreationDate,2026-04-07T15:58:20-04:00*%
%TF.ProjectId,steval-nandflashv1,73746576-616c-42d6-9e61-6e64666c6173,rev?*%
%TF.SameCoordinates,Original*%
%TF.FileFunction,Copper,L1,Top*%
%TF.FilePolarity,Positive*%
%FSLAX46Y46*%
G04 Gerber Fmt 4.6, Leading zero omitted, Abs format (unit mm)*
G04 Created by KiCad (PCBNEW 9.0.7) date 2026-04-07 15:58:20*
%MOMM*%
%LPD*%
G01*
G04 APERTURE LIST*
G04 Aperture macros list*
%AMRoundRect*
0 Rectangle with rounded corners*
0 $1 Rounding radius*
0 $2 $3 $4 $5 $6 $7 $8 $9 X,Y pos of 4 corners*
0 Add a 4 corners polygon primitive as box body*
4,1,4,$2,$3,$4,$5,$6,$7,$8,$9,$2,$3,0*
0 Add four circle primitives for the rounded corners*
1,1,$1+$1,$2,$3*
1,1,$1+$1,$4,$5*
1,1,$1+$1,$6,$7*
1,1,$1+$1,$8,$9*
0 Add four rect primitives between the rounded corners*
20,1,$1+$1,$2,$3,$4,$5,0*
20,1,$1+$1,$4,$5,$6,$7,0*
20,1,$1+$1,$6,$7,$8,$9,0*
20,1,$1+$1,$8,$9,$2,$3,0*%
G04 Aperture macros list end*
%TA.AperFunction,ComponentPad*%
%ADD10R,1.700000X1.700000*%
%TD*%
%TA.AperFunction,ComponentPad*%
%ADD11C,1.700000*%
%TD*%
%TA.AperFunction,ComponentPad*%
%ADD12RoundRect,0.250000X-0.550000X-0.550000X0.550000X-0.550000X0.550000X0.550000X-0.550000X0.550000X0*%
%TD*%
%TA.AperFunction,ComponentPad*%
%ADD13C,1.600000*%
%TD*%
%TA.AperFunction,SMDPad,CuDef*%
%ADD14RoundRect,0.250000X-0.250000X-0.475000X0.250000X-0.475000X0.250000X0.475000X-0.250000X0.475000X0*%
%TD*%
%TA.AperFunction,ComponentPad*%
%ADD15O,1.700000X1.700000*%
%TD*%
%TA.AperFunction,SMDPad,CuDef*%
%ADD16RoundRect,0.150000X-0.875000X-0.150000X0.875000X-0.150000X0.875000X0.150000X-0.875000X0.150000X0*%
%TD*%
%TA.AperFunction,ViaPad*%
%ADD17C,0.660400*%
%TD*%
%TA.AperFunction,Conductor*%
%ADD18C,0.152400*%
%TD*%
G04 APERTURE END LIST*
D10*
%TO.P,J101,1,Pin_1*%
%TO.N,/TAG_3V3*%
X119380000Y-81280000D03*
D11*
%TO.P,J101,2,Pin_2*%
%TO.N,Net-(J101-Pin_2)*%
X119380000Y-78740000D03*
%TO.P,J101,3,Pin_3*%
%TO.N,/PB8*%
X119380000Y-76200000D03*
%TD*%
D12*
%TO.P,U1,1,VDD*%
%TO.N,Net-(J101-Pin_2)*%
X124460000Y-76200000D03*
D13*
%TO.P,U1,2,VDDIO*%
X124460000Y-78740000D03*
%TO.P,U1,3,P3*%
%TO.N,/PA15*%
X124460000Y-81280000D03*
%TO.P,U1,4,P4*%
%TO.N,/PB9*%
X124460000Y-83820000D03*
%TO.P,U1,5,P5*%
%TO.N,/PB13*%
X124460000Y-86360000D03*
%TO.P,U1,6,P6*%
%TO.N,/PB12*%
X124460000Y-88900000D03*
%TO.P,U1,7,ADC_IN*%
%TO.N,/PB11*%
X124460000Y-91440000D03*
%TO.P,U1,8*%
%TO.N,/PA0*%
X124460000Y-93980000D03*
%TO.P,U1,9*%
%TO.N,/PA1*%
X124460000Y-96520000D03*
%TO.P,U1,10*%
%TO.N,/PA2*%
X124460000Y-99060000D03*
%TO.P,U1,11*%
%TO.N,/PA3*%
X124460000Y-101600000D03*
%TO.P,U1,12*%
%TO.N,/PB0*%
X124460000Y-104140000D03*
%TO.P,U1,13,GND*%
%TO.N,GND*%
X139700000Y-104140000D03*
%TO.P,U1,14,INT1*%
%TO.N,/PB1*%
X139700000Y-101600000D03*
%TO.P,U1,15,INT2*%
%TO.N,/PB2*%
X139700000Y-99060000D03*
%TO.P,U1,16,INT3*%
%TO.N,/PB10*%
X139700000Y-96520000D03*
%TO.P,U1,17*%
%TO.N,/PB14*%
X139700000Y-93980000D03*
%TO.P,U1,18*%
%TO.N,/PB15*%
X139700000Y-91440000D03*
%TO.P,U1,19,CS*%
%TO.N,/PA8*%
X139700000Y-88900000D03*
%TO.P,U1,20,SCL*%
%TO.N,/PA9*%
X139700000Y-86360000D03*
%TO.P,U1,21,SDA*%
%TO.N,/PA10*%
X139700000Y-83820000D03*
%TO.P,U1,22,SDO*%
%TO.N,/PA11*%
X139700000Y-81280000D03*
%TO.P,U1,23*%
%TO.N,/PB5*%
X139700000Y-78740000D03*
%TO.P,U1,24*%
%TO.N,/PB4*%
X139700000Y-76200000D03*
%TD*%
D14*
%TO.P,C1,1*%
%TO.N,/TAG_3V3*%
X137435000Y-115809400D03*
%TO.P,C1,2*%
%TO.N,GND*%
X139335000Y-115809400D03*
%TD*%
%TO.P,C2,1*%
%TO.N,/TAG_3V3*%
X137465000Y-113309400D03*
%TO.P,C2,2*%
%TO.N,GND*%
X139365000Y-113309400D03*
%TD*%
D10*
%TO.P,J3,1,Pin_1*%
%TO.N,/PB4*%
X106553000Y-76200000D03*
D15*
%TO.P,J3,2,Pin_2*%
%TO.N,/PB5*%
X106807000Y-78740000D03*
%TO.P,J3,3,Pin_3*%
%TO.N,/rtc_scl*%
X106553000Y-81280000D03*
%TO.P,J3,4,Pin_4*%
%TO.N,/rtc_sda*%
X106807000Y-83820000D03*
%TO.P,J3,5,Pin_5*%
%TO.N,/PB8*%
X106553000Y-86360000D03*
%TO.P,J3,6,Pin_6*%
%TO.N,/PB9*%
X106807000Y-88900000D03*
%TO.P,J3,7,Pin_7*%
%TO.N,/TAG_3V3*%
X106553000Y-91440000D03*
%TO.P,J3,8,Pin_8*%
%TO.N,/PA0*%
X106807000Y-93980000D03*
%TO.P,J3,9,Pin_9*%
%TO.N,/PA1*%
X106553000Y-96520000D03*
%TO.P,J3,10,Pin_10*%
%TO.N,/PA2*%
X106807000Y-99060000D03*
%TO.P,J3,11,Pin_11*%
%TO.N,/PA3*%
X106553000Y-101600000D03*
%TO.P,J3,12,Pin_12*%
%TO.N,/PA4*%
X106807000Y-104140000D03*
%TO.P,J3,13,Pin_13*%
%TO.N,/PA5*%
X106553000Y-106680000D03*
%TO.P,J3,14,Pin_14*%
%TO.N,/PA6*%
X106807000Y-109220000D03*
%TO.P,J3,15,Pin_15*%
%TO.N,/PA7*%
X106553000Y-111760000D03*
%TO.P,J3,16,Pin_16*%
%TO.N,/PB0*%
X106807000Y-114300000D03*
%TO.P,J3,17,Pin_17*%
%TO.N,GND*%
X106553000Y-116840000D03*
%TD*%
D10*
%TO.P,J4,1,Pin_1*%
%TO.N,/TAG_3V3*%
X149733000Y-76200000D03*
D15*
%TO.P,J4,2,Pin_2*%
%TO.N,/PA9*%
X149987000Y-78740000D03*
%TO.P,J4,3,Pin_3*%
%TO.N,/PA15*%
X149733000Y-81280000D03*
%TO.P,J4,4,Pin_4*%
%TO.N,/PA10*%
X149987000Y-83820000D03*
%TO.P,J4,5,Pin_5*%
%TO.N,/PA11*%
X149733000Y-86360000D03*
%TO.P,J4,6,Pin_6*%
%TO.N,/PA10*%
X149987000Y-88900000D03*
%TO.P,J4,7,Pin_7*%
%TO.N,/PA9*%
X149733000Y-91440000D03*
%TO.P,J4,8,Pin_8*%
%TO.N,/PA8*%
X149987000Y-93980000D03*
%TO.P,J4,9,Pin_9*%
%TO.N,/PB15*%
X149733000Y-96520000D03*
%TO.P,J4,10,Pin_10*%
%TO.N,/PB14*%
X149987000Y-99060000D03*
%TO.P,J4,11,Pin_11*%
%TO.N,/PB13*%
X149733000Y-101600000D03*
%TO.P,J4,12,Pin_12*%
%TO.N,/PB12*%
X149987000Y-104140000D03*
%TO.P,J4,13,Pin_13*%
%TO.N,/PB11*%
X149733000Y-106680000D03*
%TO.P,J4,14,Pin_14*%
%TO.N,/PB10*%
X149987000Y-109220000D03*
%TO.P,J4,15,Pin_15*%
%TO.N,/PB2*%
X149733000Y-111760000D03*
%TO.P,J4,16,Pin_16*%
%TO.N,/PB1*%
X149987000Y-114300000D03*
%TO.P,J4,17,Pin_17*%
%TO.N,GND*%
X149733000Y-116840000D03*
%TD*%
D16*
%TO.P,U3,1,~{HOLD}/IO3*%
%TO.N,/TAG_3V3*%
X123288000Y-108940600D03*
%TO.P,U3,2,VCC*%
X123288000Y-110210600D03*
%TO.P,U3,3,~{RESET}/NC*%
%TO.N,unconnected-(U3-~{RESET}{slash}NC-Pad3)*%
X123288000Y-111480600D03*
%TO.P,U3,4,NC*%
%TO.N,unconnected-(U3-NC-Pad4)*%
X123288000Y-112750600D03*
%TO.P,U3,5,NC*%
%TO.N,unconnected-(U3-NC-Pad5)*%
X123288000Y-114020600D03*
%TO.P,U3,6,NC*%
%TO.N,unconnected-(U3-NC-Pad6)*%
X123288000Y-115290600D03*
%TO.P,U3,7,~{CE}*%
%TO.N,/PA4*%
X123288000Y-116560600D03*
%TO.P,U3,8,SO/IO1*%
%TO.N,/PA6*%
X123288000Y-117830600D03*
%TO.P,U3,9,~{WP}/IO2*%
%TO.N,/TAG_3V3*%
X132588000Y-117830600D03*
%TO.P,U3,10,GND*%
%TO.N,GND*%
X132588000Y-116560600D03*
%TO.P,U3,11,NC*%
%TO.N,unconnected-(U3-NC-Pad11)*%
X132588000Y-115290600D03*
%TO.P,U3,12,NC*%
%TO.N,unconnected-(U3-NC-Pad12)*%
X132588000Y-114020600D03*
%TO.P,U3,13,NC*%
%TO.N,unconnected-(U3-NC-Pad13)*%
X132588000Y-112750600D03*
%TO.P,U3,14,NC*%
%TO.N,unconnected-(U3-NC-Pad14)*%
X132588000Y-111480600D03*
%TO.P,U3,15,SI/IO0*%
%TO.N,/PA7*%
X132588000Y-110210600D03*
%TO.P,U3,16,SCK*%
%TO.N,/PA5*%
X132588000Y-108940600D03*
%TD*%
D17*
%TO.N,GND*%
X134721600Y-116154200D03*
%TO.N,/PA5*%
X115773200Y-107823000D03*
X120827800Y-107746800D03*
%TO.N,/PA7*%
X118872000Y-116636800D03*
X128981200Y-113309400D03*
%TO.N,GND*%
X140655000Y-115889400D03*
X140555000Y-113389400D03*
%TO.N,/PA11*%
X147500000Y-82700000D03*
%TO.N,/PB0*%
X121900000Y-106800000D03*
%TO.N,/PB9*%
X114400000Y-88700000D03*
%TO.N,/PB13*%
X136700000Y-94000000D03*
%TO.N,/PA15*%
X137700000Y-81100000D03*
%TD*%
D18*
%TO.N,GND*%
X132588000Y-116560600D02*
X134315200Y-116560600D01*
X134315200Y-116560600D02*
X134721600Y-116154200D01*
%TO.N,/PA6*%
X115570000Y-112345000D02*
X116777402Y-112345000D01*
X109932000Y-112345000D02*
X115570000Y-112345000D01*
X122263001Y-117830600D02*
X120999301Y-116566899D01*
X116777402Y-112345000D02*
X120999301Y-116566899D01*
%TO.N,/TAG_3V3*%
X124953729Y-92951399D02*
X129704265Y-97701935D01*
X129704265Y-97701935D02*
X129704265Y-98182865D01*
X129704265Y-98182865D02*
X131444165Y-99922765D01*
%TO.N,/PA5*%
X120827800Y-107746800D02*
X126212600Y-107746800D01*
X126212600Y-107746800D02*
X127406400Y-108940600D01*
X127406400Y-108940600D02*
X132588000Y-108940600D01*
X106553000Y-106680000D02*
X107696000Y-107823000D01*
X107696000Y-107823000D02*
X115773200Y-107823000D01*
%TO.N,/PA7*%
X106553000Y-111760000D02*
X111429800Y-116636800D01*
X111429800Y-116636800D02*
X118872000Y-116636800D01*
X132588000Y-110210600D02*
X131563001Y-110210600D01*
X131563001Y-110210600D02*
X128981200Y-112792401D01*
X128981200Y-112792401D02*
X128981200Y-113309400D01*
%TO.N,/PA6*%
X106807000Y-109220000D02*
X109932000Y-112345000D01*
%TO.N,/PA4*%
X123288000Y-116560600D02*
X122263001Y-116560600D01*
%TO.N,/PA6*%
X123288000Y-117830600D02*
X122263001Y-117830600D01*
%TO.N,/PA4*%
X122263001Y-116560600D02*
X120192800Y-114490399D01*
X120192800Y-114490399D02*
X120192800Y-105410000D01*
X120192800Y-105410000D02*
X118922800Y-104140000D01*
X118922800Y-104140000D02*
X106807000Y-104140000D01*
%TO.N,/PA7*%
X106553000Y-111760000D02*
X111518539Y-116725539D01*
%TO.N,/TAG_3V3*%
X137465000Y-105943600D02*
X137465000Y-113309400D01*
X131444165Y-99922765D02*
X137465000Y-105943600D01*
X132588000Y-117830600D02*
X135413800Y-117830600D01*
X135413800Y-117830600D02*
X137435000Y-115809400D01*
X137465000Y-113309400D02*
X137465000Y-115779400D01*
X137465000Y-115779400D02*
X137435000Y-115809400D01*
X123288000Y-110210600D02*
X124312999Y-110210600D01*
X124312999Y-110210600D02*
X130225800Y-116123401D01*
X130225800Y-116123401D02*
X130225800Y-117576600D01*
X130225800Y-117576600D02*
X130479800Y-117830600D01*
X130479800Y-117830600D02*
X132588000Y-117830600D01*
X123288000Y-108940600D02*
X123288000Y-110210600D01*
%TO.N,GND*%
X139365000Y-113309400D02*
X139365000Y-115779400D01*
X139365000Y-115779400D02*
X139335000Y-115809400D01*
X140335000Y-113309400D02*
X140415000Y-113389400D01*
X139335000Y-115809400D02*
X140575000Y-115809400D01*
X139365000Y-113309400D02*
X140335000Y-113309400D01*
X140415000Y-113389400D02*
X140555000Y-113389400D01*
X140575000Y-115809400D02*
X140655000Y-115889400D01*
%TO.N,/TAG_3V3*%
X119380000Y-81280000D02*
X120408601Y-80251399D01*
X120408601Y-80251399D02*
X145808601Y-80251399D01*
X106553000Y-91440000D02*
X108064399Y-92951399D01*
X106680000Y-91440000D02*
X109220000Y-91440000D01*
X145808601Y-80251399D02*
X149860000Y-76200000D01*
X137780000Y-112994400D02*
X137465000Y-113309400D01*
X108064399Y-92951399D02*
X124953729Y-92951399D01*
X109220000Y-91440000D02*
X119380000Y-81280000D01*
%TO.N,/PA2*%
X106807000Y-99060000D02*
X124460000Y-99060000D01*
%TO.N,/PA0*%
X106807000Y-93980000D02*
X124460000Y-93980000D01*
%TO.N,/PB8*%
X108017919Y-86360000D02*
X118177919Y-76200000D01*
X118177919Y-76200000D02*
X119380000Y-76200000D01*
X106680000Y-86360000D02*
X108017919Y-86360000D01*
%TO.N,/PB5*%
X113260000Y-78740000D02*
X116878601Y-75121399D01*
X106680000Y-78740000D02*
X113260000Y-78740000D01*
X116878601Y-75121399D02*
X136081399Y-75121399D01*
X136081399Y-75121399D02*
X139700000Y-78740000D01*
%TO.N,/PA10*%
X149860000Y-88900000D02*
X150938601Y-87821399D01*
X150938601Y-87821399D02*
X150938601Y-84898601D01*
X150938601Y-84898601D02*
X149860000Y-83820000D01*
%TO.N,/PA11*%
X149860000Y-86360000D02*
X147500000Y-84000000D01*
X147500000Y-84000000D02*
X147500000Y-82700000D01*
%TO.N,/PB0*%
X124460000Y-104140000D02*
X121900000Y-106700000D01*
X121900000Y-106700000D02*
X121900000Y-106800000D01*
%TO.N,/PA3*%
X106553000Y-101600000D02*
X124460000Y-101600000D01*
%TO.N,/PA1*%
X106553000Y-96520000D02*
X124460000Y-96520000D01*
%TO.N,/PB9*%
X124460000Y-83820000D02*
X119280000Y-83820000D01*
X119280000Y-83820000D02*
X114400000Y-88700000D01*
%TO.N,/PB4*%
X106680000Y-75197600D02*
X107282411Y-74595189D01*
X138095189Y-74595189D02*
X138900001Y-75400001D01*
X138900001Y-75400001D02*
X139700000Y-76200000D01*
X106680000Y-76200000D02*
X106680000Y-75197600D01*
X107282411Y-74595189D02*
X138095189Y-74595189D01*
%TO.N,/PB1*%
X139700000Y-101600000D02*
X140728601Y-102628601D01*
X140728601Y-102628601D02*
X140728601Y-105168601D01*
X140728601Y-105168601D02*
X149860000Y-114300000D01*
%TO.N,/PB2*%
X139700000Y-100077670D02*
X148781399Y-109159069D01*
X148781399Y-109159069D02*
X148781399Y-110681399D01*
X148781399Y-110681399D02*
X149860000Y-111760000D01*
X139700000Y-99060000D02*
X139700000Y-100077670D01*
%TO.N,/PB10*%
X147981165Y-107214165D02*
X147981165Y-105818835D01*
X149987000Y-109220000D02*
X147981165Y-107214165D01*
X139700000Y-97537670D02*
X147981165Y-105818835D01*
X139700000Y-96520000D02*
X139700000Y-97537670D01*
%TO.N,/PB11*%
X128511399Y-95491399D02*
X124460000Y-91440000D01*
X149860000Y-106680000D02*
X140728601Y-97548601D01*
X140193729Y-95491399D02*
X128511399Y-95491399D01*
X140728601Y-96026271D02*
X140193729Y-95491399D01*
X140728601Y-97548601D02*
X140728601Y-96026271D01*
%TO.N,/PB12*%
X130746588Y-95186588D02*
X124460000Y-88900000D01*
X149860000Y-104140000D02*
X140906588Y-95186588D01*
X140906588Y-95186588D02*
X130746588Y-95186588D01*
%TO.N,/PB13*%
X136700000Y-94000000D02*
X135500000Y-92800000D01*
X135500000Y-92800000D02*
X130900000Y-92800000D01*
X130900000Y-92800000D02*
X125259999Y-87159999D01*
X125259999Y-87159999D02*
X124460000Y-86360000D01*
%TO.N,/PB14*%
X139700000Y-93980000D02*
X144780000Y-93980000D01*
X144780000Y-93980000D02*
X149860000Y-99060000D01*
%TO.N,/PB15*%
X139700000Y-91440000D02*
X144780000Y-91440000D01*
X144780000Y-91440000D02*
X149860000Y-96520000D01*
%TO.N,/PA8*%
X139700000Y-88900000D02*
X144780000Y-88900000D01*
X144780000Y-88900000D02*
X149860000Y-93980000D01*
%TO.N,/PA9*%
X144780000Y-86360000D02*
X149860000Y-91440000D01*
X149860000Y-78740000D02*
X143100000Y-85500000D01*
X140560000Y-85500000D02*
X139700000Y-86360000D01*
X143100000Y-85500000D02*
X140560000Y-85500000D01*
X139700000Y-86360000D02*
X144780000Y-86360000D01*
%TO.N,/PA15*%
X137520000Y-81280000D02*
X137700000Y-81100000D01*
X124460000Y-81280000D02*
X137520000Y-81280000D01*
%TO.N,Net-(J101-Pin_2)*%
X119380000Y-78740000D02*
X124460000Y-78740000D01*
X124460000Y-76200000D02*
X124460000Y-78740000D01*
%TD*%
%TA.AperFunction,Conductor*%
%TO.N,GND*%
G36*
X125773734Y-94600903D02*
G01*
X125790232Y-94614792D01*
X129082660Y-97907220D01*
X129116686Y-97969532D01*
X129119565Y-97996315D01*
X129119565Y-98259840D01*
X129119564Y-98259840D01*
X129159411Y-98408549D01*
X129159413Y-98408553D01*
X129164358Y-98417119D01*
X129164360Y-98417121D01*
X129236386Y-98541875D01*
X129236394Y-98541885D01*
X131092325Y-100397817D01*
X131092339Y-100397829D01*
X136843395Y-106148885D01*
X136877421Y-106211197D01*
X136880300Y-106237980D01*
X136880300Y-112079340D01*
X136860298Y-112147461D01*
X136820447Y-112186580D01*
X136741353Y-112235366D01*
X136741341Y-112235375D01*
X136615975Y-112360741D01*
X136615970Y-112360747D01*
X136522885Y-112511662D01*
X136467113Y-112679972D01*
X136467112Y-112679979D01*
X136456500Y-112783846D01*
X136456500Y-113834944D01*
X136467112Y-113938825D01*
X136522885Y-114107138D01*
X136615970Y-114258052D01*
X136615975Y-114258058D01*
X136741341Y-114383424D01*
X136741347Y-114383429D01*
X136741348Y-114383430D01*
X136820447Y-114432219D01*
X136827381Y-114439928D01*
X136836812Y-114444235D01*
X136850718Y-114465874D01*
X136867925Y-114485004D01*
X136870612Y-114496828D01*
X136875196Y-114503961D01*
X136880300Y-114539459D01*
X136880300Y-114560835D01*
X136860298Y-114628956D01*
X136820448Y-114668075D01*
X136711350Y-114735368D01*
X136711341Y-114735375D01*
X136585975Y-114860741D01*
X136585970Y-114860747D01*
X136492885Y-115011662D01*
X136437113Y-115179972D01*
X136437112Y-115179979D01*
X136426500Y-115283846D01*
X136426500Y-115938817D01*
X136406498Y-116006938D01*
X136389596Y-116027912D01*
X136088823Y-116328686D01*
X135491597Y-116925913D01*
X135208515Y-117208995D01*
X135146202Y-117243020D01*
X135119419Y-117245900D01*
X134131783Y-117245900D01*
X134063662Y-117225898D01*
X134017169Y-117172242D01*
X134007065Y-117101968D01*
X134023329Y-117055761D01*
X134071681Y-116974001D01*
X134117993Y-116814600D01*
X132714000Y-116814600D01*
X132645879Y-116794598D01*
X132599386Y-116740942D01*
X132588000Y-116688600D01*
X132588000Y-116432600D01*
X132608002Y-116364479D01*
X132661658Y-116317986D01*
X132714000Y-116306600D01*
X134117992Y-116306600D01*
X134071681Y-116147198D01*
X133987053Y-116004100D01*
X133986385Y-116003239D01*
X133986071Y-116002440D01*
X133983019Y-115997279D01*
X133983851Y-115996786D01*
X133960437Y-115937154D01*
X133974336Y-115867531D01*
X133986390Y-115848776D01*
X133987444Y-115847415D01*
X133987453Y-115847407D01*
X134072145Y-115704201D01*
X134118562Y-115544431D01*
X134121499Y-115507111D01*
X134121500Y-115507111D01*
X134121500Y-115074089D01*
X134121499Y-115074088D01*
X134118562Y-115036771D01*
X134118562Y-115036770D01*
X134118562Y-115036769D01*
X134072145Y-114876999D01*
X134072143Y-114876997D01*
X134072143Y-114876994D01*
X133987456Y-114733798D01*
X133987455Y-114733797D01*
X133987453Y-114733793D01*
X133987449Y-114733789D01*
X133986708Y-114732833D01*
X133986356Y-114731937D01*
X133983418Y-114726969D01*
X133984219Y-114726495D01*
X133960756Y-114666750D01*
X133974652Y-114597126D01*
X133986708Y-114578367D01*
X133987445Y-114577414D01*
X133987453Y-114577407D01*
X134050182Y-114471338D01*
X134072143Y-114434205D01*
X134072143Y-114434203D01*
X134072145Y-114434201D01*
X134118562Y-114274431D01*
X134121499Y-114237111D01*
X134121500Y-114237111D01*
X134121500Y-113804089D01*
X134121499Y-113804088D01*
X134119486Y-113778517D01*
X134118562Y-113766769D01*
X134072145Y-113606999D01*
X134072143Y-113606997D01*
X134072143Y-113606994D01*
X133987456Y-113463798D01*
X133987455Y-113463797D01*
X133987453Y-113463793D01*
X133987449Y-113463789D01*
X133986708Y-113462833D01*
X133986356Y-113461937D01*
X133983418Y-113456969D01*
X133984219Y-113456495D01*
X133960756Y-113396750D01*
X133974652Y-113327126D01*
X133986708Y-113308367D01*
X133987445Y-113307414D01*
X133987453Y-113307407D01*
X134046274Y-113207946D01*
X134072143Y-113164205D01*
X134072143Y-113164203D01*
X134072145Y-113164201D01*
X134118562Y-113004431D01*
X134121499Y-112967111D01*
X134121500Y-112967111D01*
X134121500Y-112534089D01*
X134121499Y-112534088D01*
X134118562Y-112496771D01*
X134118562Y-112496770D01*
X134118562Y-112496769D01*
X134072145Y-112336999D01*
X134072143Y-112336997D01*
X134072143Y-112336994D01*
X133987456Y-112193798D01*
X133987455Y-112193797D01*
X133987453Y-112193793D01*
X133987449Y-112193789D01*
X133986708Y-112192833D01*
X133986356Y-112191937D01*
X133983418Y-112186969D01*
X133984219Y-112186495D01*
X133960756Y-112126750D01*
X133974652Y-112057126D01*
X133986708Y-112038367D01*
X133987445Y-112037414D01*
X133987453Y-112037407D01*
X134072145Y-111894201D01*
X134118562Y-111734431D01*
X134121499Y-111697111D01*
X134121500Y-111697111D01*
X134121500Y-111264089D01*
X134121499Y-111264088D01*
X134119486Y-111238517D01*
X134118562Y-111226769D01*
X134072145Y-111066999D01*
X134072143Y-111066997D01*
X134072143Y-111066994D01*
X133987456Y-110923798D01*
X133987455Y-110923797D01*
X133987453Y-110923793D01*
X133987449Y-110923789D01*
X133986708Y-110922833D01*
X133986356Y-110921937D01*
X133983418Y-110916969D01*
X133984219Y-110916495D01*
X133960756Y-110856750D01*
X133974652Y-110787126D01*
X133986708Y-110768367D01*
X133987445Y-110767414D01*
X133987453Y-110767407D01*
X134072145Y-110624201D01*
X134118562Y-110464431D01*
X134121499Y-110427111D01*
X134121500Y-110427111D01*
X134121500Y-109994089D01*
X134121499Y-109994088D01*
X134118562Y-109956771D01*
X134118562Y-109956770D01*
X134118562Y-109956769D01*
X134072145Y-109796999D01*
X134072143Y-109796997D01*
X134072143Y-109796994D01*
X133987456Y-109653798D01*
X133987455Y-109653797D01*
X133987453Y-109653793D01*
X133987449Y-109653789D01*
X133986708Y-109652833D01*
X133986356Y-109651937D01*
X133983418Y-109646969D01*
X133984219Y-109646495D01*
X133960756Y-109586750D01*
X133974652Y-109517126D01*
X133986708Y-109498367D01*
X133987445Y-109497414D01*
X133987453Y-109497407D01*
X134072145Y-109354201D01*
X134118562Y-109194431D01*
X134121499Y-109157111D01*
X134121500Y-109157111D01*
X134121500Y-108724089D01*
X134121499Y-108724088D01*
X134119486Y-108698517D01*
X134118562Y-108686769D01*
X134072145Y-108526999D01*
X134072143Y-108526997D01*
X134072143Y-108526994D01*
X133987455Y-108383796D01*
X133987450Y-108383789D01*
X133869810Y-108266149D01*
X133869803Y-108266144D01*
X133726605Y-108181456D01*
X133566829Y-108135037D01*
X133529511Y-108132100D01*
X133529502Y-108132100D01*
X131646498Y-108132100D01*
X131646489Y-108132100D01*
X131609171Y-108135037D01*
X131609170Y-108135037D01*
X131449394Y-108181456D01*
X131306196Y-108266144D01*
X131306193Y-108266146D01*
X131279769Y-108292570D01*
X131253343Y-108318996D01*
X131191034Y-108353020D01*
X131164250Y-108355900D01*
X127700780Y-108355900D01*
X127632659Y-108335898D01*
X127611685Y-108318995D01*
X126571620Y-107278929D01*
X126571610Y-107278921D01*
X126552477Y-107267875D01*
X126552476Y-107267875D01*
X126438286Y-107201947D01*
X126388486Y-107188603D01*
X126289577Y-107162100D01*
X126289575Y-107162100D01*
X122836636Y-107162100D01*
X122768515Y-107142098D01*
X122722022Y-107088442D01*
X122711918Y-107018168D01*
X122713057Y-107011518D01*
X122725842Y-106947244D01*
X122738700Y-106882605D01*
X122738700Y-106740379D01*
X122758702Y-106672258D01*
X122775605Y-106651284D01*
X123370135Y-106056754D01*
X123991077Y-105435811D01*
X124053387Y-105401788D01*
X124119106Y-105405075D01*
X124133021Y-105409596D01*
X124153592Y-105416280D01*
X124357019Y-105448500D01*
X124357022Y-105448500D01*
X124562978Y-105448500D01*
X124562981Y-105448500D01*
X124766408Y-105416280D01*
X124962290Y-105352634D01*
X125145803Y-105259129D01*
X125312430Y-105138068D01*
X125458068Y-104992430D01*
X125579129Y-104825803D01*
X125672634Y-104642290D01*
X125736280Y-104446408D01*
X125768500Y-104242981D01*
X125768500Y-104037019D01*
X125736280Y-103833592D01*
X125672634Y-103637710D01*
X125579129Y-103454197D01*
X125458068Y-103287570D01*
X125458065Y-103287567D01*
X125458063Y-103287564D01*
X125312435Y-103141936D01*
X125312432Y-103141934D01*
X125312430Y-103141932D01*
X125145803Y-103020871D01*
X125070034Y-102982265D01*
X125018422Y-102933519D01*
X125001356Y-102864604D01*
X125024257Y-102797402D01*
X125070034Y-102757735D01*
X125145803Y-102719129D01*
X125312430Y-102598068D01*
X125458068Y-102452430D01*
X125579129Y-102285803D01*
X125672634Y-102102290D01*
X125736280Y-101906408D01*
X125768500Y-101702981D01*
X125768500Y-101497019D01*
X125736280Y-101293592D01*
X125672634Y-101097710D01*
X125579129Y-100914197D01*
X125458068Y-100747570D01*
X125458065Y-100747567D01*
X125458063Y-100747564D01*
X125312435Y-100601936D01*
X125312432Y-100601934D01*
X125312430Y-100601932D01*
X125145803Y-100480871D01*
X125070034Y-100442265D01*
X125018422Y-100393519D01*
X125001356Y-100324604D01*
X125024257Y-100257402D01*
X125070034Y-100217735D01*
X125145803Y-100179129D01*
X125312430Y-100058068D01*
X125458068Y-99912430D01*
X125579129Y-99745803D01*
X125672634Y-99562290D01*
X125736280Y-99366408D01*
X125768500Y-99162981D01*
X125768500Y-98957019D01*
X125736280Y-98753592D01*
X125672634Y-98557710D01*
X125579129Y-98374197D01*
X125458068Y-98207570D01*
X125458065Y-98207567D01*
X125458063Y-98207564D01*
X125312435Y-98061936D01*
X125312432Y-98061934D01*
X125312430Y-98061932D01*
X125145803Y-97940871D01*
X125070034Y-97902265D01*
X125018422Y-97853519D01*
X125001356Y-97784604D01*
X125024257Y-97717402D01*
X125070034Y-97677735D01*
X125145803Y-97639129D01*
X125312430Y-97518068D01*
X125458068Y-97372430D01*
X125579129Y-97205803D01*
X125672634Y-97022290D01*
X125736280Y-96826408D01*
X125768500Y-96622981D01*
X125768500Y-96417019D01*
X125736280Y-96213592D01*
X125672634Y-96017710D01*
X125579129Y-95834197D01*
X125458068Y-95667570D01*
X125458065Y-95667567D01*
X125458063Y-95667564D01*
X125312435Y-95521936D01*
X125312432Y-95521934D01*
X125312430Y-95521932D01*
X125145803Y-95400871D01*
X125070034Y-95362265D01*
X125018422Y-95313519D01*
X125001356Y-95244604D01*
X125024257Y-95177402D01*
X125070034Y-95137735D01*
X125145803Y-95099129D01*
X125312430Y-94978068D01*
X125458068Y-94832430D01*
X125579129Y-94665803D01*
X125588870Y-94646684D01*
X125637618Y-94595069D01*
X125706533Y-94578003D01*
X125773734Y-94600903D01*
G37*
%TD.AperFunction*%
%TA.AperFunction,Conductor*%
G36*
X151134930Y-72465888D02*
G01*
X151306975Y-72479428D01*
X151326503Y-72482521D01*
X151407991Y-72502084D01*
X151489480Y-72521648D01*
X151508283Y-72527758D01*
X151663128Y-72591897D01*
X151680745Y-72600873D01*
X151823658Y-72688450D01*
X151839653Y-72700072D01*
X151967098Y-72808920D01*
X151981079Y-72822901D01*
X152089927Y-72950346D01*
X152101549Y-72966341D01*
X152189126Y-73109254D01*
X152198102Y-73126871D01*
X152262241Y-73281716D01*
X152268351Y-73300520D01*
X152307478Y-73463496D01*
X152310571Y-73483024D01*
X152324112Y-73655069D01*
X152324500Y-73664955D01*
X152324500Y-119375044D01*
X152324112Y-119384930D01*
X152310571Y-119556975D01*
X152307478Y-119576503D01*
X152268351Y-119739479D01*
X152262241Y-119758283D01*
X152198102Y-119913128D01*
X152189126Y-119930745D01*
X152101549Y-120073658D01*
X152089927Y-120089653D01*
X151981079Y-120217098D01*
X151967098Y-120231079D01*
X151839653Y-120339927D01*
X151823658Y-120351549D01*
X151680745Y-120439126D01*
X151663128Y-120448102D01*
X151508283Y-120512241D01*
X151489479Y-120518351D01*
X151326503Y-120557478D01*
X151306975Y-120560571D01*
X151134930Y-120574112D01*
X151125044Y-120574500D01*
X105414956Y-120574500D01*
X105405070Y-120574112D01*
X105233024Y-120560571D01*
X105213496Y-120557478D01*
X105050520Y-120518351D01*
X105031716Y-120512241D01*
X104876871Y-120448102D01*
X104859254Y-120439126D01*
X104716341Y-120351549D01*
X104700346Y-120339927D01*
X104572901Y-120231079D01*
X104558920Y-120217098D01*
X104450072Y-120089653D01*
X104438450Y-120073658D01*
X104350873Y-119930745D01*
X104341897Y-119913128D01*
X104277758Y-119758283D01*
X104271648Y-119739479D01*
X104232521Y-119576503D01*
X104229428Y-119556975D01*
X104215888Y-119384930D01*
X104215500Y-119375044D01*
X104215500Y-75301350D01*
X105194500Y-75301350D01*
X105194500Y-77098649D01*
X105201009Y-77159196D01*
X105201011Y-77159204D01*
X105252110Y-77296202D01*
X105252112Y-77296207D01*
X105339738Y-77413261D01*
X105456792Y-77500887D01*
X105456794Y-77500888D01*
X105456796Y-77500889D01*
X105477202Y-77508500D01*
X105593795Y-77551988D01*
X105593803Y-77551990D01*
X105654350Y-77558499D01*
X105654355Y-77558499D01*
X105654362Y-77558500D01*
X105763099Y-77558500D01*
X105831220Y-77578502D01*
X105877713Y-77632158D01*
X105887817Y-77702432D01*
X105858323Y-77767012D01*
X105852194Y-77773595D01*
X105770798Y-77854990D01*
X105770796Y-77854993D01*
X105645108Y-78027987D01*
X105548029Y-78218515D01*
X105548026Y-78218521D01*
X105481952Y-78421878D01*
X105481951Y-78421883D01*
X105481951Y-78421884D01*
X105448500Y-78633084D01*
X105448500Y-78846916D01*
X105479004Y-79039510D01*
X105481952Y-79058121D01*
X105541790Y-79242285D01*
X105548028Y-79261483D01*
X105631755Y-79425806D01*
X105645108Y-79452012D01*
X105655735Y-79466639D01*
X105770794Y-79625004D01*
X105770796Y-79625006D01*
X105770798Y-79625009D01*
X105921990Y-79776201D01*
X105921993Y-79776203D01*
X105921996Y-79776206D01*
X105998863Y-79832053D01*
X106042217Y-79888275D01*
X106048292Y-79959011D01*
X106015161Y-80021803D01*
X105982006Y-80046254D01*
X105855355Y-80110786D01*
X105840987Y-80118108D01*
X105667993Y-80243796D01*
X105667990Y-80243798D01*
X105516798Y-80394990D01*
X105516796Y-80394993D01*
X105391108Y-80567987D01*
X105294029Y-80758515D01*
X105294026Y-80758521D01*
X105227952Y-80961878D01*
X105227951Y-80961883D01*
X105227951Y-80961884D01*
X105194500Y-81173084D01*
X105194500Y-81386916D01*
X105218426Y-81537976D01*
X105227952Y-81598121D01*
X105294026Y-81801478D01*
X105294028Y-81801483D01*
X105391106Y-81992009D01*
X105516794Y-82165004D01*
X105516796Y-82165006D01*
X105516798Y-82165009D01*
X105667990Y-82316201D01*
X105667993Y-82316203D01*
X105667996Y-82316206D01*
X105840991Y-82441894D01*
X105982005Y-82513744D01*
X106033620Y-82562491D01*
X106050686Y-82631406D01*
X106027786Y-82698607D01*
X105998864Y-82727946D01*
X105921989Y-82783799D01*
X105770798Y-82934990D01*
X105770796Y-82934993D01*
X105645108Y-83107987D01*
X105645106Y-83107991D01*
X105548028Y-83298517D01*
X105531181Y-83350365D01*
X105481952Y-83501878D01*
X105481951Y-83501883D01*
X105481951Y-83501884D01*
X105448500Y-83713084D01*
X105448500Y-83926916D01*
X105475584Y-84097917D01*
X105481952Y-84138121D01*
X105533389Y-84296428D01*
X105548028Y-84341483D01*
X105645106Y-84532009D01*
X105770794Y-84705004D01*
X105770796Y-84705006D01*
X105770798Y-84705009D01*
X105921990Y-84856201D01*
X105921993Y-84856203D01*
X105921996Y-84856206D01*
X105952537Y-84878395D01*
X105998863Y-84912053D01*
X106042217Y-84968275D01*
X106048292Y-85039011D01*
X106015161Y-85101803D01*
X105982006Y-85126254D01*
X105855355Y-85190786D01*
X105840987Y-85198108D01*
X105667993Y-85323796D01*
X105667990Y-85323798D01*
X105516798Y-85474990D01*
X105516796Y-85474993D01*
X105391108Y-85647987D01*
X105294029Y-85838515D01*
X105294026Y-85838521D01*
X105227952Y-86041878D01*
X105227951Y-86041883D01*
X105227951Y-86041884D01*
X105194500Y-86253084D01*
X105194500Y-86466916D01*
X105227951Y-86678116D01*
X105227952Y-86678121D01*
X105276950Y-86828923D01*
X105294028Y-86881483D01*
X105391106Y-87072009D01*
X105516794Y-87245004D01*
X105516796Y-87245006D01*
X105516798Y-87245009D01*
X105667990Y-87396201D01*
X105667993Y-87396203D01*
X105667996Y-87396206D01*
X105840991Y-87521894D01*
X105982005Y-87593744D01*
X106033620Y-87642491D01*
X106050686Y-87711406D01*
X106027786Y-87778607D01*
X105998864Y-87807946D01*
X105921989Y-87863799D01*
X105770798Y-88014990D01*
X105770796Y-88014993D01*
X105645108Y-88187987D01*
X105548029Y-88378515D01*
X105548026Y-88378521D01*
X105481952Y-88581878D01*
X105481951Y-88581883D01*
X105481951Y-88581884D01*
X105448500Y-88793084D01*
X105448500Y-89006916D01*
X105469503Y-89139523D01*
X105481952Y-89218121D01*
X105530950Y-89368923D01*
X105548028Y-89421483D01*
X105645106Y-89612009D01*
X105770794Y-89785004D01*
X105770796Y-89785006D01*
X105770798Y-89785009D01*
X105921990Y-89936201D01*
X105921993Y-89936203D01*
X105921996Y-89936206D01*
X105998863Y-89992053D01*
X106042217Y-90048275D01*
X106048292Y-90119011D01*
X106015161Y-90181803D01*
X105982006Y-90206254D01*
X105855355Y-90270786D01*
X105840987Y-90278108D01*
X105667993Y-90403796D01*
X105667990Y-90403798D01*
X105516798Y-90554990D01*
X105516796Y-90554993D01*
X105391108Y-90727987D01*
X105294029Y-90918515D01*
X105294026Y-90918521D01*
X105227952Y-91121878D01*
X105227951Y-91121883D01*
X105227951Y-91121884D01*
X105194500Y-91333084D01*
X105194500Y-91546916D01*
X105217214Y-91690323D01*
X105227952Y-91758121D01*
X105276950Y-91908923D01*
X105294028Y-91961483D01*
X105377755Y-92125806D01*
X105391108Y-92152012D01*
X105422182Y-92194781D01*
X105516794Y-92325004D01*
X105516796Y-92325006D01*
X105516798Y-92325009D01*
X105667990Y-92476201D01*
X105667993Y-92476203D01*
X105667996Y-92476206D01*
X105840991Y-92601894D01*
X105982005Y-92673744D01*
X106033620Y-92722491D01*
X106050686Y-92791406D01*
X106027786Y-92858607D01*
X105998864Y-92887946D01*
X105921989Y-92943799D01*
X105770798Y-93094990D01*
X105770796Y-93094993D01*
X105645108Y-93267987D01*
X105548029Y-93458515D01*
X105548026Y-93458521D01*
X105481952Y-93661878D01*
X105481951Y-93661883D01*
X105481951Y-93661884D01*
X105448500Y-93873084D01*
X105448500Y-94086916D01*
X105475584Y-94257917D01*
X105481952Y-94298121D01*
X105548026Y-94501478D01*
X105548028Y-94501483D01*
X105645106Y-94692009D01*
X105770794Y-94865004D01*
X105770796Y-94865006D01*
X105770798Y-94865009D01*
X105921990Y-95016201D01*
X105921993Y-95016203D01*
X105921996Y-95016206D01*
X105998863Y-95072053D01*
X106042217Y-95128275D01*
X106048292Y-95199011D01*
X106015161Y-95261803D01*
X105982006Y-95286254D01*
X105855355Y-95350786D01*
X105840987Y-95358108D01*
X105667993Y-95483796D01*
X105667990Y-95483798D01*
X105516798Y-95634990D01*
X105516796Y-95634993D01*
X105391108Y-95807987D01*
X105294029Y-95998515D01*
X105294026Y-95998521D01*
X105227952Y-96201878D01*
X105227951Y-96201883D01*
X105227951Y-96201884D01*
X105194500Y-96413084D01*
X105194500Y-96626916D01*
X105195826Y-96635286D01*
X105227952Y-96838121D01*
X105287790Y-97022285D01*
X105294028Y-97041483D01*
X105391106Y-97232009D01*
X105516794Y-97405004D01*
X105516796Y-97405006D01*
X105516798Y-97405009D01*
X105667990Y-97556201D01*
X105667993Y-97556203D01*
X105667996Y-97556206D01*
X105840991Y-97681894D01*
X105982005Y-97753744D01*
X106033620Y-97802491D01*
X106050686Y-97871406D01*
X106027786Y-97938607D01*
X105998864Y-97967946D01*
X105921989Y-98023799D01*
X105770798Y-98174990D01*
X105770796Y-98174993D01*
X105645108Y-98347987D01*
X105548029Y-98538515D01*
X105548026Y-98538521D01*
X105481952Y-98741878D01*
X105481951Y-98741883D01*
X105481951Y-98741884D01*
X105448500Y-98953084D01*
X105448500Y-99166916D01*
X105480097Y-99366408D01*
X105481952Y-99378121D01*
X105548026Y-99581478D01*
X105548028Y-99581483D01*
X105645106Y-99772009D01*
X105770794Y-99945004D01*
X105770796Y-99945006D01*
X105770798Y-99945009D01*
X105921990Y-100096201D01*
X105921993Y-100096203D01*
X105921996Y-100096206D01*
X105937434Y-100107422D01*
X105998863Y-100152053D01*
X106042217Y-100208275D01*
X106048292Y-100279011D01*
X106015161Y-100341803D01*
X105982006Y-100366254D01*
X105861610Y-100427600D01*
X105840987Y-100438108D01*
X105667993Y-100563796D01*
X105667990Y-100563798D01*
X105516798Y-100714990D01*
X105516796Y-100714993D01*
X105391108Y-100887987D01*
X105294029Y-101078515D01*
X105294026Y-101078521D01*
X105227952Y-101281878D01*
X105227951Y-101281883D01*
X105227951Y-101281884D01*
X105194500Y-101493084D01*
X105194500Y-101706916D01*
X105226097Y-101906408D01*
X105227952Y-101918121D01*
X105287790Y-102102285D01*
X105294028Y-102121483D01*
X105391106Y-102312009D01*
X105516794Y-102485004D01*
X105516796Y-102485006D01*
X105516798Y-102485009D01*
X105667990Y-102636201D01*
X105667993Y-102636203D01*
X105667996Y-102636206D01*
X105840991Y-102761894D01*
X105982005Y-102833744D01*
X106033620Y-102882491D01*
X106050686Y-102951406D01*
X106027786Y-103018607D01*
X105998864Y-103047946D01*
X105921989Y-103103799D01*
X105770798Y-103254990D01*
X105770796Y-103254993D01*
X105645108Y-103427987D01*
X105548029Y-103618515D01*
X105548026Y-103618521D01*
X105481952Y-103821878D01*
X105481951Y-103821883D01*
X105481951Y-103821884D01*
X105448500Y-104033084D01*
X105448500Y-104246916D01*
X105481427Y-104454808D01*
X105481952Y-104458121D01*
X105541790Y-104642285D01*
X105548028Y-104661483D01*
X105645106Y-104852009D01*
X105770794Y-105025004D01*
X105770796Y-105025006D01*
X105770798Y-105025009D01*
X105921990Y-105176201D01*
X105921993Y-105176203D01*
X105921996Y-105176206D01*
X105992708Y-105227581D01*
X105998863Y-105232053D01*
X106042217Y-105288275D01*
X106048292Y-105359011D01*
X106015161Y-105421803D01*
X105982006Y-105446254D01*
X105855355Y-105510786D01*
X105840987Y-105518108D01*
X105667993Y-105643796D01*
X105667990Y-105643798D01*
X105516798Y-105794990D01*
X105516796Y-105794993D01*
X105391108Y-105967987D01*
X105294029Y-106158515D01*
X105294026Y-106158521D01*
X105227952Y-106361878D01*
X105227951Y-106361883D01*
X105227951Y-106361884D01*
X105194500Y-106573084D01*
X105194500Y-106786916D01*
X105213694Y-106908100D01*
X105227952Y-106998121D01*
X105289843Y-107188603D01*
X105294028Y-107201483D01*
X105391106Y-107392009D01*
X105391108Y-107392012D01*
X105422182Y-107434781D01*
X105516794Y-107565004D01*
X105516796Y-107565006D01*
X105516798Y-107565009D01*
X105667990Y-107716201D01*
X105667993Y-107716203D01*
X105667996Y-107716206D01*
X105840991Y-107841894D01*
X105982005Y-107913744D01*
X106033620Y-107962491D01*
X106050686Y-108031406D01*
X106027786Y-108098607D01*
X105998864Y-108127946D01*
X105921989Y-108183799D01*
X105770798Y-108334990D01*
X105770796Y-108334993D01*
X105645108Y-108507987D01*
X105548029Y-108698515D01*
X105548026Y-108698521D01*
X105481952Y-108901878D01*
X105481951Y-108901883D01*
X105481951Y-108901884D01*
X105448500Y-109113084D01*
X105448500Y-109326916D01*
X105479921Y-109525300D01*
X105481952Y-109538121D01*
X105543843Y-109728603D01*
X105548028Y-109741483D01*
X105645106Y-109932009D01*
X105770794Y-110105004D01*
X105770796Y-110105006D01*
X105770798Y-110105009D01*
X105921990Y-110256201D01*
X105921993Y-110256203D01*
X105921996Y-110256206D01*
X105998863Y-110312053D01*
X106042217Y-110368275D01*
X106048292Y-110439011D01*
X106015161Y-110501803D01*
X105982006Y-110526254D01*
X105855355Y-110590786D01*
X105840987Y-110598108D01*
X105667993Y-110723796D01*
X105667990Y-110723798D01*
X105516798Y-110874990D01*
X105516796Y-110874993D01*
X105391108Y-111047987D01*
X105294029Y-111238515D01*
X105294026Y-111238521D01*
X105227952Y-111441878D01*
X105227951Y-111441883D01*
X105227951Y-111441884D01*
X105194500Y-111653084D01*
X105194500Y-111866916D01*
X105227679Y-112076400D01*
X105227952Y-112078121D01*
X105279175Y-112235770D01*
X105294028Y-112281483D01*
X105391106Y-112472009D01*
X105516794Y-112645004D01*
X105516796Y-112645006D01*
X105516798Y-112645009D01*
X105667990Y-112796201D01*
X105667993Y-112796203D01*
X105667996Y-112796206D01*
X105840991Y-112921894D01*
X105982005Y-112993744D01*
X106033620Y-113042491D01*
X106050686Y-113111406D01*
X106027786Y-113178607D01*
X105998864Y-113207946D01*
X105921989Y-113263799D01*
X105770798Y-113414990D01*
X105770796Y-113414993D01*
X105645108Y-113587987D01*
X105548029Y-113778515D01*
X105548026Y-113778521D01*
X105481952Y-113981878D01*
X105481951Y-113981883D01*
X105481951Y-113981884D01*
X105448500Y-114193084D01*
X105448500Y-114406916D01*
X105478740Y-114597844D01*
X105481952Y-114618121D01*
X105548026Y-114821478D01*
X105548028Y-114821483D01*
X105645106Y-115012009D01*
X105770794Y-115185004D01*
X105770796Y-115185006D01*
X105770798Y-115185009D01*
X105921990Y-115336201D01*
X105921993Y-115336203D01*
X105921996Y-115336206D01*
X105990499Y-115385976D01*
X105999317Y-115392383D01*
X106042671Y-115448605D01*
X106048746Y-115519342D01*
X106015614Y-115582133D01*
X105982459Y-115606586D01*
X105841250Y-115678535D01*
X105668320Y-115804177D01*
X105517177Y-115955320D01*
X105391536Y-116128249D01*
X105294493Y-116318707D01*
X105294490Y-116318713D01*
X105228440Y-116521995D01*
X105218302Y-116586000D01*
X106122297Y-116586000D01*
X106087075Y-116647007D01*
X106053000Y-116774174D01*
X106053000Y-116905826D01*
X106087075Y-117032993D01*
X106122297Y-117094000D01*
X105218302Y-117094000D01*
X105228440Y-117158004D01*
X105294490Y-117361286D01*
X105294493Y-117361292D01*
X105391536Y-117551750D01*
X105517177Y-117724679D01*
X105668320Y-117875822D01*
X105841249Y-118001463D01*
X106031707Y-118098506D01*
X106031713Y-118098509D01*
X106234998Y-118164560D01*
X106299000Y-118174696D01*
X106299000Y-117270702D01*
X106360007Y-117305925D01*
X106487174Y-117340000D01*
X106618826Y-117340000D01*
X106745993Y-117305925D01*
X106807000Y-117270702D01*
X106807000Y-118174696D01*
X106871001Y-118164560D01*
X107074286Y-118098509D01*
X107074292Y-118098506D01*
X107264750Y-118001463D01*
X107437679Y-117875822D01*
X107588822Y-117724679D01*
X107714463Y-117551750D01*
X107811506Y-117361292D01*
X107811509Y-117361286D01*
X107877559Y-117158004D01*
X107887698Y-117094000D01*
X106983703Y-117094000D01*
X107018925Y-117032993D01*
X107053000Y-116905826D01*
X107053000Y-116774174D01*
X107018925Y-116647007D01*
X106983703Y-116586000D01*
X107887697Y-116586000D01*
X107877559Y-116521995D01*
X107811509Y-116318713D01*
X107811506Y-116318707D01*
X107714463Y-116128249D01*
X107588822Y-115955320D01*
X107437679Y-115804177D01*
X107360636Y-115748202D01*
X107317282Y-115691979D01*
X107311207Y-115621243D01*
X107344339Y-115558451D01*
X107377491Y-115534000D01*
X107519009Y-115461894D01*
X107692004Y-115336206D01*
X107843206Y-115185004D01*
X107968894Y-115012009D01*
X108065972Y-114821483D01*
X108132049Y-114618116D01*
X108155190Y-114472006D01*
X108185601Y-114407856D01*
X108245869Y-114370329D01*
X108316859Y-114371343D01*
X108368733Y-114402625D01*
X111159518Y-117193410D01*
X111159523Y-117193414D01*
X111159525Y-117193416D01*
X111159526Y-117193417D01*
X111159528Y-117193418D01*
X111292849Y-117270391D01*
X111292851Y-117270391D01*
X111292854Y-117270393D01*
X111441562Y-117310239D01*
X111441564Y-117310239D01*
X111595514Y-117310239D01*
X111595516Y-117310239D01*
X111744224Y-117270393D01*
X111799671Y-117238380D01*
X111862671Y-117221500D01*
X118218408Y-117221500D01*
X118286529Y-117241502D01*
X118307503Y-117258405D01*
X118337352Y-117288254D01*
X118337358Y-117288259D01*
X118337360Y-117288261D01*
X118474727Y-117380046D01*
X118627360Y-117443269D01*
X118789395Y-117475500D01*
X118789396Y-117475500D01*
X118954604Y-117475500D01*
X118954605Y-117475500D01*
X119116640Y-117443269D01*
X119269273Y-117380046D01*
X119406640Y-117288261D01*
X119523461Y-117171440D01*
X119615246Y-117034073D01*
X119678469Y-116881440D01*
X119710700Y-116719405D01*
X119710700Y-116554195D01*
X119680243Y-116401079D01*
X119686571Y-116330368D01*
X119730125Y-116274301D01*
X119797077Y-116250681D01*
X119866171Y-116267007D01*
X119892917Y-116287405D01*
X120531425Y-116925913D01*
X121762201Y-118156691D01*
X121794101Y-118210631D01*
X121803854Y-118244200D01*
X121803856Y-118244204D01*
X121888544Y-118387403D01*
X121888549Y-118387410D01*
X122006189Y-118505050D01*
X122006196Y-118505055D01*
X122149394Y-118589743D01*
X122149397Y-118589743D01*
X122149399Y-118589745D01*
X122309169Y-118636162D01*
X122346488Y-118639099D01*
X122346489Y-118639100D01*
X122346498Y-118639100D01*
X124229511Y-118639100D01*
X124229511Y-118639099D01*
X124266831Y-118636162D01*
X124426601Y-118589745D01*
X124426603Y-118589743D01*
X124426605Y-118589743D01*
X124498204Y-118547399D01*
X124569807Y-118505053D01*
X124687453Y-118387407D01*
X124772145Y-118244201D01*
X124818562Y-118084431D01*
X124821499Y-118047111D01*
X124821500Y-118047111D01*
X124821500Y-117614089D01*
X124821499Y-117614088D01*
X124818562Y-117576771D01*
X124818562Y-117576770D01*
X124811293Y-117551750D01*
X124772145Y-117416999D01*
X124772143Y-117416997D01*
X124772143Y-117416994D01*
X124687456Y-117273798D01*
X124687455Y-117273797D01*
X124687453Y-117273793D01*
X124687449Y-117273789D01*
X124686708Y-117272833D01*
X124686356Y-117271937D01*
X124683418Y-117266969D01*
X124684219Y-117266495D01*
X124660756Y-117206750D01*
X124674652Y-117137126D01*
X124686708Y-117118367D01*
X124687445Y-117117414D01*
X124687453Y-117117407D01*
X124770777Y-116976514D01*
X124772143Y-116974205D01*
X124772143Y-116974203D01*
X124772145Y-116974201D01*
X124818562Y-116814431D01*
X124821499Y-116777111D01*
X124821500Y-116777111D01*
X124821500Y-116344089D01*
X124821499Y-116344088D01*
X124820779Y-116334945D01*
X124818562Y-116306769D01*
X124772145Y-116146999D01*
X124772143Y-116146997D01*
X124772143Y-116146994D01*
X124687456Y-116003798D01*
X124687455Y-116003797D01*
X124687453Y-116003793D01*
X124687449Y-116003789D01*
X124686708Y-116002833D01*
X124686356Y-116001937D01*
X124683418Y-115996969D01*
X124684219Y-115996495D01*
X124660756Y-115936750D01*
X124674652Y-115867126D01*
X124686708Y-115848367D01*
X124687445Y-115847414D01*
X124687453Y-115847407D01*
X124772145Y-115704201D01*
X124818562Y-115544431D01*
X124821499Y-115507111D01*
X124821500Y-115507111D01*
X124821500Y-115074089D01*
X124821499Y-115074088D01*
X124818562Y-115036771D01*
X124818562Y-115036770D01*
X124818562Y-115036769D01*
X124772145Y-114876999D01*
X124772143Y-114876997D01*
X124772143Y-114876994D01*
X124687456Y-114733798D01*
X124687455Y-114733797D01*
X124687453Y-114733793D01*
X124687449Y-114733789D01*
X124686708Y-114732833D01*
X124686356Y-114731937D01*
X124683418Y-114726969D01*
X124684219Y-114726495D01*
X124660756Y-114666750D01*
X124674652Y-114597126D01*
X124686708Y-114578367D01*
X124687445Y-114577414D01*
X124687453Y-114577407D01*
X124750182Y-114471338D01*
X124772143Y-114434205D01*
X124772143Y-114434203D01*
X124772145Y-114434201D01*
X124818562Y-114274431D01*
X124821499Y-114237111D01*
X124821500Y-114237111D01*
X124821500Y-113804089D01*
X124821499Y-113804088D01*
X124819486Y-113778517D01*
X124818562Y-113766769D01*
X124772145Y-113606999D01*
X124772143Y-113606997D01*
X124772143Y-113606994D01*
X124687456Y-113463798D01*
X124687455Y-113463797D01*
X124687453Y-113463793D01*
X124687449Y-113463789D01*
X124686708Y-113462833D01*
X124686356Y-113461937D01*
X124683418Y-113456969D01*
X124684219Y-113456495D01*
X124660756Y-113396750D01*
X124674652Y-113327126D01*
X124686708Y-113308367D01*
X124687445Y-113307414D01*
X124687453Y-113307407D01*
X124746274Y-113207946D01*
X124772143Y-113164205D01*
X124772143Y-113164203D01*
X124772145Y-113164201D01*
X124818562Y-113004431D01*
X124821499Y-112967111D01*
X124821500Y-112967111D01*
X124821500Y-112534089D01*
X124821499Y-112534088D01*
X124818562Y-112496771D01*
X124818562Y-112496770D01*
X124818562Y-112496769D01*
X124772145Y-112336999D01*
X124772143Y-112336997D01*
X124772143Y-112336994D01*
X124687456Y-112193798D01*
X124687455Y-112193797D01*
X124687453Y-112193793D01*
X124687449Y-112193789D01*
X124686708Y-112192833D01*
X124686356Y-112191937D01*
X124683418Y-112186969D01*
X124684219Y-112186495D01*
X124660756Y-112126750D01*
X124674652Y-112057126D01*
X124686708Y-112038367D01*
X124687445Y-112037414D01*
X124687453Y-112037407D01*
X124772145Y-111894201D01*
X124802205Y-111790729D01*
X124840417Y-111730895D01*
X124904914Y-111701217D01*
X124975216Y-111711120D01*
X125012297Y-111736788D01*
X129604195Y-116328686D01*
X129638221Y-116390998D01*
X129641100Y-116417781D01*
X129641100Y-117653575D01*
X129641099Y-117653575D01*
X129641100Y-117653577D01*
X129680947Y-117802286D01*
X129741737Y-117907577D01*
X129757924Y-117935614D01*
X130120785Y-118298476D01*
X130187448Y-118336963D01*
X130187450Y-118336965D01*
X130254108Y-118375450D01*
X130254111Y-118375451D01*
X130254114Y-118375453D01*
X130402823Y-118415300D01*
X131164250Y-118415300D01*
X131232371Y-118435302D01*
X131253340Y-118452200D01*
X131306190Y-118505050D01*
X131306193Y-118505053D01*
X131306196Y-118505055D01*
X131449394Y-118589743D01*
X131449397Y-118589743D01*
X131449399Y-118589745D01*
X131609169Y-118636162D01*
X131646488Y-118639099D01*
X131646489Y-118639100D01*
X131646498Y-118639100D01*
X133529511Y-118639100D01*
X133529511Y-118639099D01*
X133566831Y-118636162D01*
X133726601Y-118589745D01*
X133726603Y-118589743D01*
X133726605Y-118589743D01*
X133798204Y-118547399D01*
X133869807Y-118505053D01*
X133922656Y-118452203D01*
X133984966Y-118418180D01*
X134011750Y-118415300D01*
X135490775Y-118415300D01*
X135490777Y-118415300D01*
X135639486Y-118375453D01*
X135772814Y-118298476D01*
X135881676Y-118189614D01*
X135941180Y-118130110D01*
X135941192Y-118130096D01*
X136995885Y-117075404D01*
X137058195Y-117041380D01*
X137097786Y-117039154D01*
X137123406Y-117041771D01*
X137134455Y-117042900D01*
X137735544Y-117042899D01*
X137839426Y-117032287D01*
X138007738Y-116976515D01*
X138158652Y-116883430D01*
X138284030Y-116758052D01*
X138284037Y-116758039D01*
X138286478Y-116754954D01*
X138288709Y-116753373D01*
X138289220Y-116752863D01*
X138289307Y-116752950D01*
X138344416Y-116713921D01*
X138415340Y-116710724D01*
X138476734Y-116746380D01*
X138484161Y-116754951D01*
X138486369Y-116757744D01*
X138611654Y-116883029D01*
X138611660Y-116883034D01*
X138762474Y-116976057D01*
X138930678Y-117031793D01*
X138930681Y-117031794D01*
X139034483Y-117042399D01*
X139034483Y-117042400D01*
X139081000Y-117042400D01*
X139589000Y-117042400D01*
X139635517Y-117042400D01*
X139635516Y-117042399D01*
X139739318Y-117031794D01*
X139739321Y-117031793D01*
X139907527Y-116976056D01*
X139951229Y-116949101D01*
X139951232Y-116949099D01*
X140058339Y-116883034D01*
X140058345Y-116883029D01*
X140183629Y-116757745D01*
X140183634Y-116757739D01*
X140276657Y-116606925D01*
X140332393Y-116438721D01*
X140332394Y-116438718D01*
X140342999Y-116334916D01*
X140343000Y-116334916D01*
X140343000Y-116063400D01*
X139589000Y-116063400D01*
X139589000Y-117042400D01*
X139081000Y-117042400D01*
X139081000Y-114672735D01*
X139589000Y-114672735D01*
X139589000Y-115555400D01*
X140343000Y-115555400D01*
X140343000Y-115283883D01*
X140332394Y-115180081D01*
X140332393Y-115180078D01*
X140276657Y-115011874D01*
X140183634Y-114861060D01*
X140183629Y-114861054D01*
X140058345Y-114735770D01*
X140058339Y-114735765D01*
X139961270Y-114675893D01*
X139913792Y-114623107D01*
X139902389Y-114553032D01*
X139930681Y-114487917D01*
X139961270Y-114461411D01*
X140088339Y-114383034D01*
X140088345Y-114383029D01*
X140213629Y-114257745D01*
X140213634Y-114257739D01*
X140306657Y-114106925D01*
X140362393Y-113938721D01*
X140362394Y-113938718D01*
X140372999Y-113834916D01*
X140373000Y-113834916D01*
X140373000Y-113563400D01*
X139619000Y-113563400D01*
X139619000Y-114592209D01*
X139598998Y-114660330D01*
X139589000Y-114672735D01*
X139081000Y-114672735D01*
X139081000Y-114526591D01*
X139101002Y-114458470D01*
X139111000Y-114446064D01*
X139111000Y-113055400D01*
X139619000Y-113055400D01*
X140373000Y-113055400D01*
X140373000Y-112783883D01*
X140362394Y-112680081D01*
X140362393Y-112680078D01*
X140306657Y-112511874D01*
X140213634Y-112361060D01*
X140213629Y-112361054D01*
X140088345Y-112235770D01*
X140088339Y-112235765D01*
X139937525Y-112142742D01*
X139769321Y-112087006D01*
X139769318Y-112087005D01*
X139665516Y-112076400D01*
X139619000Y-112076400D01*
X139619000Y-113055400D01*
X139111000Y-113055400D01*
X139111000Y-112076400D01*
X139064483Y-112076400D01*
X138960681Y-112087005D01*
X138960678Y-112087006D01*
X138792474Y-112142742D01*
X138641660Y-112235765D01*
X138641654Y-112235770D01*
X138516370Y-112361054D01*
X138514157Y-112363854D01*
X138512149Y-112365275D01*
X138511175Y-112366250D01*
X138511008Y-112366083D01*
X138456216Y-112404882D01*
X138385291Y-112408072D01*
X138323900Y-112372411D01*
X138316483Y-112363850D01*
X138314028Y-112360745D01*
X138188658Y-112235375D01*
X138188654Y-112235372D01*
X138188652Y-112235370D01*
X138188646Y-112235366D01*
X138109553Y-112186580D01*
X138062075Y-112133794D01*
X138049700Y-112079340D01*
X138049700Y-105866624D01*
X138049700Y-105866623D01*
X138009854Y-105717915D01*
X138009852Y-105717912D01*
X138009852Y-105717910D01*
X137932879Y-105584589D01*
X137932871Y-105584579D01*
X136469494Y-104121202D01*
X131919229Y-99570939D01*
X131919217Y-99570925D01*
X130325870Y-97977578D01*
X130291844Y-97915266D01*
X130288965Y-97888483D01*
X130288965Y-97624959D01*
X130288965Y-97624958D01*
X130249118Y-97476249D01*
X130189178Y-97372430D01*
X130172141Y-97342920D01*
X129120415Y-96291194D01*
X129086389Y-96228882D01*
X129091454Y-96158067D01*
X129134001Y-96101231D01*
X129200521Y-96076420D01*
X129209510Y-96076099D01*
X138297970Y-96076099D01*
X138366091Y-96096101D01*
X138412584Y-96149757D01*
X138422688Y-96220031D01*
X138422431Y-96221724D01*
X138391500Y-96417019D01*
X138391500Y-96622981D01*
X138414837Y-96770323D01*
X138423721Y-96826412D01*
X138427525Y-96838121D01*
X138487366Y-97022290D01*
X138580871Y-97205803D01*
X138580873Y-97205806D01*
X138701932Y-97372430D01*
X138701936Y-97372435D01*
X138847564Y-97518063D01*
X138847567Y-97518065D01*
X138847570Y-97518068D01*
X139014197Y-97639129D01*
X139088900Y-97677192D01*
X139113909Y-97700812D01*
X139139308Y-97723917D01*
X139139941Y-97725398D01*
X139140514Y-97725939D01*
X139153414Y-97756889D01*
X139153669Y-97757842D01*
X139151955Y-97828818D01*
X139112140Y-97887600D01*
X139089155Y-97902677D01*
X139014196Y-97940871D01*
X138847567Y-98061934D01*
X138847564Y-98061936D01*
X138701936Y-98207564D01*
X138701934Y-98207567D01*
X138580873Y-98374193D01*
X138487367Y-98557708D01*
X138487364Y-98557714D01*
X138423721Y-98753587D01*
X138423720Y-98753590D01*
X138423720Y-98753592D01*
X138391500Y-98957019D01*
X138391500Y-99162981D01*
X138423720Y-99366408D01*
X138423721Y-99366412D01*
X138427525Y-99378121D01*
X138487366Y-99562290D01*
X138580871Y-99745803D01*
X138701932Y-99912430D01*
X138701934Y-99912432D01*
X138701936Y-99912435D01*
X138847564Y-100058063D01*
X138847567Y-100058065D01*
X138847570Y-100058068D01*
X139014197Y-100179129D01*
X139088900Y-100217192D01*
X139113909Y-100240812D01*
X139139308Y-100263917D01*
X139139941Y-100265398D01*
X139140514Y-100265939D01*
X139153414Y-100296889D01*
X139153669Y-100297842D01*
X139151955Y-100368818D01*
X139112140Y-100427600D01*
X139089155Y-100442677D01*
X139014196Y-100480871D01*
X138847567Y-100601934D01*
X138847564Y-100601936D01*
X138701936Y-100747564D01*
X138701934Y-100747567D01*
X138580873Y-100914193D01*
X138487367Y-101097708D01*
X138487364Y-101097714D01*
X138423721Y-101293587D01*
X138423720Y-101293590D01*
X138423720Y-101293592D01*
X138391500Y-101497019D01*
X138391500Y-101702981D01*
X138414837Y-101850322D01*
X138423721Y-101906412D01*
X138427525Y-101918121D01*
X138487366Y-102102290D01*
X138580871Y-102285803D01*
X138701932Y-102452430D01*
X138701934Y-102452432D01*
X138701936Y-102452435D01*
X138847564Y-102598063D01*
X138847567Y-102598065D01*
X138847570Y-102598068D01*
X138900056Y-102636201D01*
X139014193Y-102719127D01*
X139014197Y-102719129D01*
X139082497Y-102753930D01*
X139090511Y-102758013D01*
X139142126Y-102806762D01*
X139159192Y-102875677D01*
X139136291Y-102942878D01*
X139090512Y-102982546D01*
X139014456Y-103021299D01*
X139014453Y-103021301D01*
X138971626Y-103052415D01*
X139659211Y-103740000D01*
X139647339Y-103740000D01*
X139545606Y-103767259D01*
X139454394Y-103819920D01*
X139379920Y-103894394D01*
X139327259Y-103985606D01*
X139300000Y-104087339D01*
X139300000Y-104099209D01*
X138612416Y-103411625D01*
X138581301Y-103454452D01*
X138487829Y-103637900D01*
X138487826Y-103637906D01*
X138424208Y-103833703D01*
X138392000Y-104037061D01*
X138392000Y-104242938D01*
X138424208Y-104446296D01*
X138487826Y-104642093D01*
X138487829Y-104642099D01*
X138581297Y-104825540D01*
X138581298Y-104825541D01*
X138612416Y-104868372D01*
X139300000Y-104180788D01*
X139300000Y-104192661D01*
X139327259Y-104294394D01*
X139379920Y-104385606D01*
X139454394Y-104460080D01*
X139545606Y-104512741D01*
X139647339Y-104540000D01*
X139659208Y-104540000D01*
X138971626Y-105227581D01*
X138971626Y-105227583D01*
X139014454Y-105258699D01*
X139197900Y-105352170D01*
X139197906Y-105352173D01*
X139393705Y-105415791D01*
X139393701Y-105415791D01*
X139597061Y-105448000D01*
X139802939Y-105448000D01*
X140006294Y-105415791D01*
X140069132Y-105395374D01*
X140100593Y-105394474D01*
X140131914Y-105391484D01*
X140135766Y-105393469D01*
X140140099Y-105393346D01*
X140167048Y-105409596D01*
X140195019Y-105424016D01*
X140198678Y-105428669D01*
X140200898Y-105430008D01*
X140217188Y-105452207D01*
X140222257Y-105460987D01*
X140255235Y-105518106D01*
X140257980Y-105522860D01*
X140260724Y-105527614D01*
X140260730Y-105527621D01*
X148623806Y-113890697D01*
X148657832Y-113953009D01*
X148659160Y-113999502D01*
X148642146Y-114106925D01*
X148628500Y-114193084D01*
X148628500Y-114406916D01*
X148658740Y-114597844D01*
X148661952Y-114618121D01*
X148728026Y-114821478D01*
X148728028Y-114821483D01*
X148825106Y-115012009D01*
X148950794Y-115185004D01*
X148950796Y-115185006D01*
X148950798Y-115185009D01*
X149101990Y-115336201D01*
X149101993Y-115336203D01*
X149101996Y-115336206D01*
X149170499Y-115385976D01*
X149179317Y-115392383D01*
X149222671Y-115448605D01*
X149228746Y-115519342D01*
X149195614Y-115582133D01*
X149162459Y-115606586D01*
X149021250Y-115678535D01*
X148848320Y-115804177D01*
X148697177Y-115955320D01*
X148571536Y-116128249D01*
X148474493Y-116318707D01*
X148474490Y-116318713D01*
X148408440Y-116521995D01*
X148398302Y-116586000D01*
X149302297Y-116586000D01*
X149267075Y-116647007D01*
X149233000Y-116774174D01*
X149233000Y-116905826D01*
X149267075Y-117032993D01*
X149302297Y-117094000D01*
X148398302Y-117094000D01*
X148408440Y-117158004D01*
X148474490Y-117361286D01*
X148474493Y-117361292D01*
X148571536Y-117551750D01*
X148697177Y-117724679D01*
X148848320Y-117875822D01*
X149021249Y-118001463D01*
X149211707Y-118098506D01*
X149211713Y-118098509D01*
X149414998Y-118164560D01*
X149479000Y-118174696D01*
X149479000Y-117270702D01*
X149540007Y-117305925D01*
X149667174Y-117340000D01*
X149798826Y-117340000D01*
X149925993Y-117305925D01*
X149987000Y-117270702D01*
X149987000Y-118174696D01*
X150051001Y-118164560D01*
X150254286Y-118098509D01*
X150254292Y-118098506D01*
X150444750Y-118001463D01*
X150617679Y-117875822D01*
X150768822Y-117724679D01*
X150894463Y-117551750D01*
X150991506Y-117361292D01*
X150991509Y-117361286D01*
X151057559Y-117158004D01*
X151067698Y-117094000D01*
X150163703Y-117094000D01*
X150198925Y-117032993D01*
X150233000Y-116905826D01*
X150233000Y-116774174D01*
X150198925Y-116647007D01*
X150163703Y-116586000D01*
X151067697Y-116586000D01*
X151057559Y-116521995D01*
X150991509Y-116318713D01*
X150991506Y-116318707D01*
X150894463Y-116128249D01*
X150768822Y-115955320D01*
X150617679Y-115804177D01*
X150540636Y-115748202D01*
X150497282Y-115691979D01*
X150491207Y-115621243D01*
X150524339Y-115558451D01*
X150557491Y-115534000D01*
X150699009Y-115461894D01*
X150872004Y-115336206D01*
X151023206Y-115185004D01*
X151148894Y-115012009D01*
X151245972Y-114821483D01*
X151312049Y-114618116D01*
X151345500Y-114406916D01*
X151345500Y-114193084D01*
X151312049Y-113981884D01*
X151245972Y-113778517D01*
X151148894Y-113587991D01*
X151023206Y-113414996D01*
X151023203Y-113414993D01*
X151023201Y-113414990D01*
X150872009Y-113263798D01*
X150872006Y-113263796D01*
X150872004Y-113263794D01*
X150699009Y-113138106D01*
X150557992Y-113066254D01*
X150506379Y-113017508D01*
X150489313Y-112948593D01*
X150512214Y-112881391D01*
X150541133Y-112852055D01*
X150618004Y-112796206D01*
X150769206Y-112645004D01*
X150894894Y-112472009D01*
X150991972Y-112281483D01*
X151058049Y-112078116D01*
X151091500Y-111866916D01*
X151091500Y-111653084D01*
X151058049Y-111441884D01*
X150991972Y-111238517D01*
X150894894Y-111047991D01*
X150769206Y-110874996D01*
X150769203Y-110874993D01*
X150769201Y-110874990D01*
X150618006Y-110723795D01*
X150541136Y-110667946D01*
X150497782Y-110611723D01*
X150491707Y-110540987D01*
X150524839Y-110478196D01*
X150557989Y-110453747D01*
X150699009Y-110381894D01*
X150872004Y-110256206D01*
X151023206Y-110105004D01*
X151148894Y-109932009D01*
X151245972Y-109741483D01*
X151312049Y-109538116D01*
X151345500Y-109326916D01*
X151345500Y-109113084D01*
X151312049Y-108901884D01*
X151245972Y-108698517D01*
X151148894Y-108507991D01*
X151023206Y-108334996D01*
X151023203Y-108334993D01*
X151023201Y-108334990D01*
X150872009Y-108183798D01*
X150872006Y-108183796D01*
X150872004Y-108183794D01*
X150712133Y-108067641D01*
X150699012Y-108058108D01*
X150699011Y-108058107D01*
X150699009Y-108058106D01*
X150557992Y-107986254D01*
X150506379Y-107937508D01*
X150489313Y-107868593D01*
X150512214Y-107801391D01*
X150541133Y-107772055D01*
X150618004Y-107716206D01*
X150769206Y-107565004D01*
X150894894Y-107392009D01*
X150991972Y-107201483D01*
X151058049Y-106998116D01*
X151091500Y-106786916D01*
X151091500Y-106573084D01*
X151058049Y-106361884D01*
X150991972Y-106158517D01*
X150894894Y-105967991D01*
X150769206Y-105794996D01*
X150769203Y-105794993D01*
X150769201Y-105794990D01*
X150618006Y-105643795D01*
X150541136Y-105587946D01*
X150497782Y-105531723D01*
X150491707Y-105460987D01*
X150524839Y-105398196D01*
X150557989Y-105373747D01*
X150699009Y-105301894D01*
X150872004Y-105176206D01*
X151023206Y-105025004D01*
X151148894Y-104852009D01*
X151245972Y-104661483D01*
X151312049Y-104458116D01*
X151345500Y-104246916D01*
X151345500Y-104033084D01*
X151312049Y-103821884D01*
X151245972Y-103618517D01*
X151148894Y-103427991D01*
X151023206Y-103254996D01*
X151023203Y-103254993D01*
X151023201Y-103254990D01*
X150872009Y-103103798D01*
X150872006Y-103103796D01*
X150872004Y-103103794D01*
X150699009Y-102978106D01*
X150557992Y-102906254D01*
X150506379Y-102857508D01*
X150489313Y-102788593D01*
X150512214Y-102721391D01*
X150541133Y-102692055D01*
X150618004Y-102636206D01*
X150769206Y-102485004D01*
X150894894Y-102312009D01*
X150991972Y-102121483D01*
X151058049Y-101918116D01*
X151091500Y-101706916D01*
X151091500Y-101493084D01*
X151058049Y-101281884D01*
X150991972Y-101078517D01*
X150894894Y-100887991D01*
X150769206Y-100714996D01*
X150769203Y-100714993D01*
X150769201Y-100714990D01*
X150618006Y-100563795D01*
X150541136Y-100507946D01*
X150497782Y-100451723D01*
X150491707Y-100380987D01*
X150524839Y-100318196D01*
X150557989Y-100293747D01*
X150699009Y-100221894D01*
X150872004Y-100096206D01*
X151023206Y-99945004D01*
X151148894Y-99772009D01*
X151245972Y-99581483D01*
X151312049Y-99378116D01*
X151345500Y-99166916D01*
X151345500Y-98953084D01*
X151312049Y-98741884D01*
X151245972Y-98538517D01*
X151148894Y-98347991D01*
X151023206Y-98174996D01*
X151023203Y-98174993D01*
X151023201Y-98174990D01*
X150872009Y-98023798D01*
X150872006Y-98023796D01*
X150872004Y-98023794D01*
X150722628Y-97915266D01*
X150699012Y-97898108D01*
X150699011Y-97898107D01*
X150699009Y-97898106D01*
X150557992Y-97826254D01*
X150506379Y-97777508D01*
X150489313Y-97708593D01*
X150512214Y-97641391D01*
X150541133Y-97612055D01*
X150618004Y-97556206D01*
X150769206Y-97405004D01*
X150894894Y-97232009D01*
X150991972Y-97041483D01*
X151058049Y-96838116D01*
X151091500Y-96626916D01*
X151091500Y-96413084D01*
X151058049Y-96201884D01*
X150991972Y-95998517D01*
X150894894Y-95807991D01*
X150769206Y-95634996D01*
X150769203Y-95634993D01*
X150769201Y-95634990D01*
X150618006Y-95483795D01*
X150541136Y-95427946D01*
X150497782Y-95371723D01*
X150491707Y-95300987D01*
X150524839Y-95238196D01*
X150557989Y-95213747D01*
X150699009Y-95141894D01*
X150872004Y-95016206D01*
X151023206Y-94865004D01*
X151148894Y-94692009D01*
X151245972Y-94501483D01*
X151312049Y-94298116D01*
X151345500Y-94086916D01*
X151345500Y-93873084D01*
X151312049Y-93661884D01*
X151245972Y-93458517D01*
X151148894Y-93267991D01*
X151023206Y-93094996D01*
X151023203Y-93094993D01*
X151023201Y-93094990D01*
X150872009Y-92943798D01*
X150872006Y-92943796D01*
X150872004Y-92943794D01*
X150699009Y-92818106D01*
X150557992Y-92746254D01*
X150506379Y-92697508D01*
X150489313Y-92628593D01*
X150512214Y-92561391D01*
X150541133Y-92532055D01*
X150618004Y-92476206D01*
X150769206Y-92325004D01*
X150894894Y-92152009D01*
X150991972Y-91961483D01*
X151058049Y-91758116D01*
X151091500Y-91546916D01*
X151091500Y-91333084D01*
X151058049Y-91121884D01*
X150991972Y-90918517D01*
X150894894Y-90727991D01*
X150769206Y-90554996D01*
X150769203Y-90554993D01*
X150769201Y-90554990D01*
X150618006Y-90403795D01*
X150541136Y-90347946D01*
X150497782Y-90291723D01*
X150491707Y-90220987D01*
X150524839Y-90158196D01*
X150557989Y-90133747D01*
X150699009Y-90061894D01*
X150872004Y-89936206D01*
X151023206Y-89785004D01*
X151148894Y-89612009D01*
X151245972Y-89421483D01*
X151312049Y-89218116D01*
X151345500Y-89006916D01*
X151345500Y-88793084D01*
X151312049Y-88581884D01*
X151260610Y-88423571D01*
X151258584Y-88352604D01*
X151291349Y-88295540D01*
X151291591Y-88295298D01*
X151406477Y-88180413D01*
X151455849Y-88094898D01*
X151483454Y-88047085D01*
X151523301Y-87898376D01*
X151523301Y-84821624D01*
X151483454Y-84672915D01*
X151406477Y-84539587D01*
X151297615Y-84430725D01*
X151291349Y-84424459D01*
X151257323Y-84362147D01*
X151260611Y-84296428D01*
X151312047Y-84138121D01*
X151312049Y-84138116D01*
X151345500Y-83926916D01*
X151345500Y-83713084D01*
X151312049Y-83501884D01*
X151245972Y-83298517D01*
X151148894Y-83107991D01*
X151023206Y-82934996D01*
X151023203Y-82934993D01*
X151023201Y-82934990D01*
X150872009Y-82783798D01*
X150872006Y-82783796D01*
X150872004Y-82783794D01*
X150699009Y-82658106D01*
X150557992Y-82586254D01*
X150506379Y-82537508D01*
X150489313Y-82468593D01*
X150512214Y-82401391D01*
X150541133Y-82372055D01*
X150618004Y-82316206D01*
X150769206Y-82165004D01*
X150894894Y-81992009D01*
X150991972Y-81801483D01*
X151058049Y-81598116D01*
X151091500Y-81386916D01*
X151091500Y-81173084D01*
X151058049Y-80961884D01*
X150991972Y-80758517D01*
X150894894Y-80567991D01*
X150769206Y-80394996D01*
X150769203Y-80394993D01*
X150769201Y-80394990D01*
X150618006Y-80243795D01*
X150541136Y-80187946D01*
X150497782Y-80131723D01*
X150491707Y-80060987D01*
X150524839Y-79998196D01*
X150557989Y-79973747D01*
X150699009Y-79901894D01*
X150872004Y-79776206D01*
X151023206Y-79625004D01*
X151148894Y-79452009D01*
X151245972Y-79261483D01*
X151312049Y-79058116D01*
X151345500Y-78846916D01*
X151345500Y-78633084D01*
X151312049Y-78421884D01*
X151245972Y-78218517D01*
X151148894Y-78027991D01*
X151023206Y-77854996D01*
X151023203Y-77854993D01*
X151023201Y-77854990D01*
X150872009Y-77703798D01*
X150872005Y-77703795D01*
X150872004Y-77703794D01*
X150850949Y-77688497D01*
X150807597Y-77632277D01*
X150801520Y-77561541D01*
X150834651Y-77498749D01*
X150849502Y-77485694D01*
X150850089Y-77485255D01*
X150946261Y-77413261D01*
X151033889Y-77296204D01*
X151084989Y-77159201D01*
X151091500Y-77098638D01*
X151091500Y-75301362D01*
X151086360Y-75253547D01*
X151084990Y-75240803D01*
X151084988Y-75240795D01*
X151033889Y-75103797D01*
X151033887Y-75103792D01*
X150946261Y-74986738D01*
X150829207Y-74899112D01*
X150829202Y-74899110D01*
X150692204Y-74848011D01*
X150692196Y-74848009D01*
X150631649Y-74841500D01*
X150631638Y-74841500D01*
X148834362Y-74841500D01*
X148834350Y-74841500D01*
X148773803Y-74848009D01*
X148773795Y-74848011D01*
X148636797Y-74899110D01*
X148636792Y-74899112D01*
X148519738Y-74986738D01*
X148432112Y-75103792D01*
X148432110Y-75103797D01*
X148381011Y-75240795D01*
X148381009Y-75240803D01*
X148374500Y-75301350D01*
X148374500Y-76806419D01*
X148354498Y-76874540D01*
X148337595Y-76895514D01*
X145603316Y-79629794D01*
X145541004Y-79663820D01*
X145514221Y-79666699D01*
X140891397Y-79666699D01*
X140823276Y-79646697D01*
X140776783Y-79593041D01*
X140766679Y-79522767D01*
X140789461Y-79466638D01*
X140800089Y-79452009D01*
X140819129Y-79425803D01*
X140912634Y-79242290D01*
X140976280Y-79046408D01*
X141008500Y-78842981D01*
X141008500Y-78637019D01*
X140976280Y-78433592D01*
X140912634Y-78237710D01*
X140819129Y-78054197D01*
X140698068Y-77887570D01*
X140698065Y-77887567D01*
X140698063Y-77887564D01*
X140552435Y-77741936D01*
X140552432Y-77741934D01*
X140552431Y-77741933D01*
X140552430Y-77741932D01*
X140385803Y-77620871D01*
X140310034Y-77582265D01*
X140258422Y-77533519D01*
X140241356Y-77464604D01*
X140264257Y-77397402D01*
X140310034Y-77357735D01*
X140385803Y-77319129D01*
X140552430Y-77198068D01*
X140698068Y-77052430D01*
X140819129Y-76885803D01*
X140912634Y-76702290D01*
X140976280Y-76506408D01*
X141008500Y-76302981D01*
X141008500Y-76097019D01*
X140976280Y-75893592D01*
X140912634Y-75697710D01*
X140819129Y-75514197D01*
X140698068Y-75347570D01*
X140698065Y-75347567D01*
X140698063Y-75347564D01*
X140552435Y-75201936D01*
X140552432Y-75201934D01*
X140552430Y-75201932D01*
X140385803Y-75080871D01*
X140202290Y-74987366D01*
X140202287Y-74987365D01*
X140202285Y-74987364D01*
X140006412Y-74923721D01*
X140006410Y-74923720D01*
X140006408Y-74923720D01*
X139802981Y-74891500D01*
X139597019Y-74891500D01*
X139516924Y-74904186D01*
X139393589Y-74923720D01*
X139359105Y-74934925D01*
X139288137Y-74936951D01*
X139231077Y-74904187D01*
X138454203Y-74127313D01*
X138454201Y-74127312D01*
X138454199Y-74127310D01*
X138320875Y-74050336D01*
X138172166Y-74010489D01*
X107205434Y-74010489D01*
X107106294Y-74037053D01*
X107056724Y-74050336D01*
X106923400Y-74127310D01*
X106923394Y-74127315D01*
X106622190Y-74428519D01*
X106320986Y-74729724D01*
X106246114Y-74804596D01*
X106183801Y-74838621D01*
X106157019Y-74841500D01*
X105654350Y-74841500D01*
X105593803Y-74848009D01*
X105593795Y-74848011D01*
X105456797Y-74899110D01*
X105456792Y-74899112D01*
X105339738Y-74986738D01*
X105252112Y-75103792D01*
X105252110Y-75103797D01*
X105201011Y-75240795D01*
X105201009Y-75240803D01*
X105194500Y-75301350D01*
X104215500Y-75301350D01*
X104215500Y-73664955D01*
X104215888Y-73655069D01*
X104229428Y-73483024D01*
X104232521Y-73463496D01*
X104271648Y-73300520D01*
X104277758Y-73281716D01*
X104341899Y-73126865D01*
X104350869Y-73109259D01*
X104438455Y-72966333D01*
X104450066Y-72950354D01*
X104558928Y-72822892D01*
X104572892Y-72808928D01*
X104700354Y-72700066D01*
X104716333Y-72688455D01*
X104859259Y-72600869D01*
X104876865Y-72591899D01*
X105031721Y-72527756D01*
X105050515Y-72521649D01*
X105213497Y-72482520D01*
X105233023Y-72479428D01*
X105405070Y-72465888D01*
X105414956Y-72465500D01*
X105434531Y-72465500D01*
X151105469Y-72465500D01*
X151125044Y-72465500D01*
X151134930Y-72465888D01*
G37*
%TD.AperFunction*%
%TD*%
M02*
