%TF.GenerationSoftware,KiCad,Pcbnew,9.0.7*%
%TF.CreationDate,2026-04-07T15:58:20-04:00*%
%TF.ProjectId,steval-nandflashv1,73746576-616c-42d6-9e61-6e64666c6173,rev?*%
%TF.SameCoordinates,Original*%
%TF.FileFunction,Legend,Bot*%
%TF.FilePolarity,Positive*%
%FSLAX46Y46*%
G04 Gerber Fmt 4.6, Leading zero omitted, Abs format (unit mm)*
G04 Created by KiCad (PCBNEW 9.0.7) date 2026-04-07 15:58:20*
%MOMM*%
%LPD*%
G01*
G04 APERTURE LIST*
G04 Aperture macros list*
%AMRoundRect*
0 Rectangle with rounded corners*
0 $1 Rounding radius*
0 $2 $3 $4 $5 $6 $7 $8 $9 X,Y pos of 4 corners*
0 Add a 4 corners polygon primitive as box body*
4,1,4,$2,$3,$4,$5,$6,$7,$8,$9,$2,$3,0*
0 Add four circle primitives for the rounded corners*
1,1,$1+$1,$2,$3*
1,1,$1+$1,$4,$5*
1,1,$1+$1,$6,$7*
1,1,$1+$1,$8,$9*
0 Add four rect primitives between the rounded corners*
20,1,$1+$1,$2,$3,$4,$5,0*
20,1,$1+$1,$4,$5,$6,$7,0*
20,1,$1+$1,$6,$7,$8,$9,0*
20,1,$1+$1,$8,$9,$2,$3,0*%
G04 Aperture macros list end*
%ADD10C,0.300000*%
%ADD11C,0.150000*%
%ADD12C,0.120000*%
%ADD13R,1.700000X1.700000*%
%ADD14C,1.700000*%
%ADD15RoundRect,0.250000X-0.550000X-0.550000X0.550000X-0.550000X0.550000X0.550000X-0.550000X0.550000X0*%
%ADD16C,1.600000*%
%ADD17O,1.700000X1.700000*%
G04 APERTURE END LIST*
D10*
X137982856Y-111022299D02*
X138125714Y-110950870D01*
X138125714Y-110950870D02*
X138339999Y-110950870D01*
X138339999Y-110950870D02*
X138554285Y-111022299D01*
X138554285Y-111022299D02*
X138697142Y-111165156D01*
X138697142Y-111165156D02*
X138768571Y-111308013D01*
X138768571Y-111308013D02*
X138839999Y-111593727D01*
X138839999Y-111593727D02*
X138839999Y-111808013D01*
X138839999Y-111808013D02*
X138768571Y-112093727D01*
X138768571Y-112093727D02*
X138697142Y-112236584D01*
X138697142Y-112236584D02*
X138554285Y-112379442D01*
X138554285Y-112379442D02*
X138339999Y-112450870D01*
X138339999Y-112450870D02*
X138197142Y-112450870D01*
X138197142Y-112450870D02*
X137982856Y-112379442D01*
X137982856Y-112379442D02*
X137911428Y-112308013D01*
X137911428Y-112308013D02*
X137911428Y-111808013D01*
X137911428Y-111808013D02*
X138197142Y-111808013D01*
X136697142Y-112379442D02*
X136839999Y-112450870D01*
X136839999Y-112450870D02*
X137125714Y-112450870D01*
X137125714Y-112450870D02*
X137268571Y-112379442D01*
X137268571Y-112379442D02*
X137339999Y-112236584D01*
X137339999Y-112236584D02*
X137339999Y-111665156D01*
X137339999Y-111665156D02*
X137268571Y-111522299D01*
X137268571Y-111522299D02*
X137125714Y-111450870D01*
X137125714Y-111450870D02*
X136839999Y-111450870D01*
X136839999Y-111450870D02*
X136697142Y-111522299D01*
X136697142Y-111522299D02*
X136625714Y-111665156D01*
X136625714Y-111665156D02*
X136625714Y-111808013D01*
X136625714Y-111808013D02*
X137339999Y-111950870D01*
X135768571Y-112450870D02*
X135911428Y-112379442D01*
X135911428Y-112379442D02*
X135982857Y-112308013D01*
X135982857Y-112308013D02*
X136054285Y-112165156D01*
X136054285Y-112165156D02*
X136054285Y-111736584D01*
X136054285Y-111736584D02*
X135982857Y-111593727D01*
X135982857Y-111593727D02*
X135911428Y-111522299D01*
X135911428Y-111522299D02*
X135768571Y-111450870D01*
X135768571Y-111450870D02*
X135554285Y-111450870D01*
X135554285Y-111450870D02*
X135411428Y-111522299D01*
X135411428Y-111522299D02*
X135340000Y-111593727D01*
X135340000Y-111593727D02*
X135268571Y-111736584D01*
X135268571Y-111736584D02*
X135268571Y-112165156D01*
X135268571Y-112165156D02*
X135340000Y-112308013D01*
X135340000Y-112308013D02*
X135411428Y-112379442D01*
X135411428Y-112379442D02*
X135554285Y-112450870D01*
X135554285Y-112450870D02*
X135768571Y-112450870D01*
X134839999Y-111450870D02*
X134268571Y-111450870D01*
X134625714Y-112450870D02*
X134625714Y-111165156D01*
X134625714Y-111165156D02*
X134554285Y-111022299D01*
X134554285Y-111022299D02*
X134411428Y-110950870D01*
X134411428Y-110950870D02*
X134268571Y-110950870D01*
X133982856Y-111450870D02*
X133411428Y-111450870D01*
X133768571Y-112450870D02*
X133768571Y-111165156D01*
X133768571Y-111165156D02*
X133697142Y-111022299D01*
X133697142Y-111022299D02*
X133554285Y-110950870D01*
X133554285Y-110950870D02*
X133411428Y-110950870D01*
X132911428Y-112450870D02*
X132911428Y-111450870D01*
X132911428Y-111736584D02*
X132839999Y-111593727D01*
X132839999Y-111593727D02*
X132768571Y-111522299D01*
X132768571Y-111522299D02*
X132625713Y-111450870D01*
X132625713Y-111450870D02*
X132482856Y-111450870D01*
X131411428Y-112379442D02*
X131554285Y-112450870D01*
X131554285Y-112450870D02*
X131840000Y-112450870D01*
X131840000Y-112450870D02*
X131982857Y-112379442D01*
X131982857Y-112379442D02*
X132054285Y-112236584D01*
X132054285Y-112236584D02*
X132054285Y-111665156D01*
X132054285Y-111665156D02*
X131982857Y-111522299D01*
X131982857Y-111522299D02*
X131840000Y-111450870D01*
X131840000Y-111450870D02*
X131554285Y-111450870D01*
X131554285Y-111450870D02*
X131411428Y-111522299D01*
X131411428Y-111522299D02*
X131340000Y-111665156D01*
X131340000Y-111665156D02*
X131340000Y-111808013D01*
X131340000Y-111808013D02*
X132054285Y-111950870D01*
X130840000Y-111450870D02*
X130482857Y-112450870D01*
X130125714Y-111450870D02*
X130482857Y-112450870D01*
X130482857Y-112450870D02*
X130625714Y-112808013D01*
X130625714Y-112808013D02*
X130697143Y-112879442D01*
X130697143Y-112879442D02*
X130840000Y-112950870D01*
X127911429Y-111665156D02*
X127697143Y-111736584D01*
X127697143Y-111736584D02*
X127625714Y-111808013D01*
X127625714Y-111808013D02*
X127554286Y-111950870D01*
X127554286Y-111950870D02*
X127554286Y-112165156D01*
X127554286Y-112165156D02*
X127625714Y-112308013D01*
X127625714Y-112308013D02*
X127697143Y-112379442D01*
X127697143Y-112379442D02*
X127840000Y-112450870D01*
X127840000Y-112450870D02*
X128411429Y-112450870D01*
X128411429Y-112450870D02*
X128411429Y-110950870D01*
X128411429Y-110950870D02*
X127911429Y-110950870D01*
X127911429Y-110950870D02*
X127768572Y-111022299D01*
X127768572Y-111022299D02*
X127697143Y-111093727D01*
X127697143Y-111093727D02*
X127625714Y-111236584D01*
X127625714Y-111236584D02*
X127625714Y-111379442D01*
X127625714Y-111379442D02*
X127697143Y-111522299D01*
X127697143Y-111522299D02*
X127768572Y-111593727D01*
X127768572Y-111593727D02*
X127911429Y-111665156D01*
X127911429Y-111665156D02*
X128411429Y-111665156D01*
X126911429Y-112450870D02*
X126911429Y-111450870D01*
X126911429Y-111736584D02*
X126840000Y-111593727D01*
X126840000Y-111593727D02*
X126768572Y-111522299D01*
X126768572Y-111522299D02*
X126625714Y-111450870D01*
X126625714Y-111450870D02*
X126482857Y-111450870D01*
X125768572Y-112450870D02*
X125911429Y-112379442D01*
X125911429Y-112379442D02*
X125982858Y-112308013D01*
X125982858Y-112308013D02*
X126054286Y-112165156D01*
X126054286Y-112165156D02*
X126054286Y-111736584D01*
X126054286Y-111736584D02*
X125982858Y-111593727D01*
X125982858Y-111593727D02*
X125911429Y-111522299D01*
X125911429Y-111522299D02*
X125768572Y-111450870D01*
X125768572Y-111450870D02*
X125554286Y-111450870D01*
X125554286Y-111450870D02*
X125411429Y-111522299D01*
X125411429Y-111522299D02*
X125340001Y-111593727D01*
X125340001Y-111593727D02*
X125268572Y-111736584D01*
X125268572Y-111736584D02*
X125268572Y-112165156D01*
X125268572Y-112165156D02*
X125340001Y-112308013D01*
X125340001Y-112308013D02*
X125411429Y-112379442D01*
X125411429Y-112379442D02*
X125554286Y-112450870D01*
X125554286Y-112450870D02*
X125768572Y-112450870D01*
X124768572Y-111450870D02*
X124482858Y-112450870D01*
X124482858Y-112450870D02*
X124197143Y-111736584D01*
X124197143Y-111736584D02*
X123911429Y-112450870D01*
X123911429Y-112450870D02*
X123625715Y-111450870D01*
X123054286Y-111450870D02*
X123054286Y-112450870D01*
X123054286Y-111593727D02*
X122982857Y-111522299D01*
X122982857Y-111522299D02*
X122840000Y-111450870D01*
X122840000Y-111450870D02*
X122625714Y-111450870D01*
X122625714Y-111450870D02*
X122482857Y-111522299D01*
X122482857Y-111522299D02*
X122411429Y-111665156D01*
X122411429Y-111665156D02*
X122411429Y-112450870D01*
X135447142Y-113865786D02*
X135447142Y-114865786D01*
X135804284Y-113294358D02*
X136161427Y-114365786D01*
X136161427Y-114365786D02*
X135232856Y-114365786D01*
X133589999Y-113294358D02*
X134875713Y-115222929D01*
X133232856Y-113365786D02*
X132232856Y-113365786D01*
X132232856Y-113365786D02*
X132875713Y-114865786D01*
X130589999Y-113294358D02*
X131875713Y-115222929D01*
X130161427Y-113508643D02*
X130089999Y-113437215D01*
X130089999Y-113437215D02*
X129947142Y-113365786D01*
X129947142Y-113365786D02*
X129589999Y-113365786D01*
X129589999Y-113365786D02*
X129447142Y-113437215D01*
X129447142Y-113437215D02*
X129375713Y-113508643D01*
X129375713Y-113508643D02*
X129304284Y-113651500D01*
X129304284Y-113651500D02*
X129304284Y-113794358D01*
X129304284Y-113794358D02*
X129375713Y-114008643D01*
X129375713Y-114008643D02*
X130232856Y-114865786D01*
X130232856Y-114865786D02*
X129304284Y-114865786D01*
X128375713Y-113365786D02*
X128232856Y-113365786D01*
X128232856Y-113365786D02*
X128089999Y-113437215D01*
X128089999Y-113437215D02*
X128018571Y-113508643D01*
X128018571Y-113508643D02*
X127947142Y-113651500D01*
X127947142Y-113651500D02*
X127875713Y-113937215D01*
X127875713Y-113937215D02*
X127875713Y-114294358D01*
X127875713Y-114294358D02*
X127947142Y-114580072D01*
X127947142Y-114580072D02*
X128018571Y-114722929D01*
X128018571Y-114722929D02*
X128089999Y-114794358D01*
X128089999Y-114794358D02*
X128232856Y-114865786D01*
X128232856Y-114865786D02*
X128375713Y-114865786D01*
X128375713Y-114865786D02*
X128518571Y-114794358D01*
X128518571Y-114794358D02*
X128589999Y-114722929D01*
X128589999Y-114722929D02*
X128661428Y-114580072D01*
X128661428Y-114580072D02*
X128732856Y-114294358D01*
X128732856Y-114294358D02*
X128732856Y-113937215D01*
X128732856Y-113937215D02*
X128661428Y-113651500D01*
X128661428Y-113651500D02*
X128589999Y-113508643D01*
X128589999Y-113508643D02*
X128518571Y-113437215D01*
X128518571Y-113437215D02*
X128375713Y-113365786D01*
X127304285Y-113508643D02*
X127232857Y-113437215D01*
X127232857Y-113437215D02*
X127090000Y-113365786D01*
X127090000Y-113365786D02*
X126732857Y-113365786D01*
X126732857Y-113365786D02*
X126590000Y-113437215D01*
X126590000Y-113437215D02*
X126518571Y-113508643D01*
X126518571Y-113508643D02*
X126447142Y-113651500D01*
X126447142Y-113651500D02*
X126447142Y-113794358D01*
X126447142Y-113794358D02*
X126518571Y-114008643D01*
X126518571Y-114008643D02*
X127375714Y-114865786D01*
X127375714Y-114865786D02*
X126447142Y-114865786D01*
X125161429Y-113365786D02*
X125447143Y-113365786D01*
X125447143Y-113365786D02*
X125590000Y-113437215D01*
X125590000Y-113437215D02*
X125661429Y-113508643D01*
X125661429Y-113508643D02*
X125804286Y-113722929D01*
X125804286Y-113722929D02*
X125875714Y-114008643D01*
X125875714Y-114008643D02*
X125875714Y-114580072D01*
X125875714Y-114580072D02*
X125804286Y-114722929D01*
X125804286Y-114722929D02*
X125732857Y-114794358D01*
X125732857Y-114794358D02*
X125590000Y-114865786D01*
X125590000Y-114865786D02*
X125304286Y-114865786D01*
X125304286Y-114865786D02*
X125161429Y-114794358D01*
X125161429Y-114794358D02*
X125090000Y-114722929D01*
X125090000Y-114722929D02*
X125018571Y-114580072D01*
X125018571Y-114580072D02*
X125018571Y-114222929D01*
X125018571Y-114222929D02*
X125090000Y-114080072D01*
X125090000Y-114080072D02*
X125161429Y-114008643D01*
X125161429Y-114008643D02*
X125304286Y-113937215D01*
X125304286Y-113937215D02*
X125590000Y-113937215D01*
X125590000Y-113937215D02*
X125732857Y-114008643D01*
X125732857Y-114008643D02*
X125804286Y-114080072D01*
X125804286Y-114080072D02*
X125875714Y-114222929D01*
D11*
X111890112Y-112214819D02*
X111890112Y-111214819D01*
X111890112Y-111214819D02*
X111509160Y-111214819D01*
X111509160Y-111214819D02*
X111413922Y-111262438D01*
X111413922Y-111262438D02*
X111366303Y-111310057D01*
X111366303Y-111310057D02*
X111318684Y-111405295D01*
X111318684Y-111405295D02*
X111318684Y-111548152D01*
X111318684Y-111548152D02*
X111366303Y-111643390D01*
X111366303Y-111643390D02*
X111413922Y-111691009D01*
X111413922Y-111691009D02*
X111509160Y-111738628D01*
X111509160Y-111738628D02*
X111890112Y-111738628D01*
X110937731Y-111929104D02*
X110461541Y-111929104D01*
X111032969Y-112214819D02*
X110699636Y-111214819D01*
X110699636Y-111214819D02*
X110366303Y-112214819D01*
X110128207Y-111214819D02*
X109461541Y-111214819D01*
X109461541Y-111214819D02*
X109890112Y-112214819D01*
X111890112Y-94434819D02*
X111890112Y-93434819D01*
X111890112Y-93434819D02*
X111509160Y-93434819D01*
X111509160Y-93434819D02*
X111413922Y-93482438D01*
X111413922Y-93482438D02*
X111366303Y-93530057D01*
X111366303Y-93530057D02*
X111318684Y-93625295D01*
X111318684Y-93625295D02*
X111318684Y-93768152D01*
X111318684Y-93768152D02*
X111366303Y-93863390D01*
X111366303Y-93863390D02*
X111413922Y-93911009D01*
X111413922Y-93911009D02*
X111509160Y-93958628D01*
X111509160Y-93958628D02*
X111890112Y-93958628D01*
X110937731Y-94149104D02*
X110461541Y-94149104D01*
X111032969Y-94434819D02*
X110699636Y-93434819D01*
X110699636Y-93434819D02*
X110366303Y-94434819D01*
X109842493Y-93434819D02*
X109747255Y-93434819D01*
X109747255Y-93434819D02*
X109652017Y-93482438D01*
X109652017Y-93482438D02*
X109604398Y-93530057D01*
X109604398Y-93530057D02*
X109556779Y-93625295D01*
X109556779Y-93625295D02*
X109509160Y-93815771D01*
X109509160Y-93815771D02*
X109509160Y-94053866D01*
X109509160Y-94053866D02*
X109556779Y-94244342D01*
X109556779Y-94244342D02*
X109604398Y-94339580D01*
X109604398Y-94339580D02*
X109652017Y-94387200D01*
X109652017Y-94387200D02*
X109747255Y-94434819D01*
X109747255Y-94434819D02*
X109842493Y-94434819D01*
X109842493Y-94434819D02*
X109937731Y-94387200D01*
X109937731Y-94387200D02*
X109985350Y-94339580D01*
X109985350Y-94339580D02*
X110032969Y-94244342D01*
X110032969Y-94244342D02*
X110080588Y-94053866D01*
X110080588Y-94053866D02*
X110080588Y-93815771D01*
X110080588Y-93815771D02*
X110032969Y-93625295D01*
X110032969Y-93625295D02*
X109985350Y-93530057D01*
X109985350Y-93530057D02*
X109937731Y-93482438D01*
X109937731Y-93482438D02*
X109842493Y-93434819D01*
X112032969Y-86814819D02*
X112032969Y-85814819D01*
X112032969Y-85814819D02*
X111652017Y-85814819D01*
X111652017Y-85814819D02*
X111556779Y-85862438D01*
X111556779Y-85862438D02*
X111509160Y-85910057D01*
X111509160Y-85910057D02*
X111461541Y-86005295D01*
X111461541Y-86005295D02*
X111461541Y-86148152D01*
X111461541Y-86148152D02*
X111509160Y-86243390D01*
X111509160Y-86243390D02*
X111556779Y-86291009D01*
X111556779Y-86291009D02*
X111652017Y-86338628D01*
X111652017Y-86338628D02*
X112032969Y-86338628D01*
X110699636Y-86291009D02*
X110556779Y-86338628D01*
X110556779Y-86338628D02*
X110509160Y-86386247D01*
X110509160Y-86386247D02*
X110461541Y-86481485D01*
X110461541Y-86481485D02*
X110461541Y-86624342D01*
X110461541Y-86624342D02*
X110509160Y-86719580D01*
X110509160Y-86719580D02*
X110556779Y-86767200D01*
X110556779Y-86767200D02*
X110652017Y-86814819D01*
X110652017Y-86814819D02*
X111032969Y-86814819D01*
X111032969Y-86814819D02*
X111032969Y-85814819D01*
X111032969Y-85814819D02*
X110699636Y-85814819D01*
X110699636Y-85814819D02*
X110604398Y-85862438D01*
X110604398Y-85862438D02*
X110556779Y-85910057D01*
X110556779Y-85910057D02*
X110509160Y-86005295D01*
X110509160Y-86005295D02*
X110509160Y-86100533D01*
X110509160Y-86100533D02*
X110556779Y-86195771D01*
X110556779Y-86195771D02*
X110604398Y-86243390D01*
X110604398Y-86243390D02*
X110699636Y-86291009D01*
X110699636Y-86291009D02*
X111032969Y-86291009D01*
X109890112Y-86243390D02*
X109985350Y-86195771D01*
X109985350Y-86195771D02*
X110032969Y-86148152D01*
X110032969Y-86148152D02*
X110080588Y-86052914D01*
X110080588Y-86052914D02*
X110080588Y-86005295D01*
X110080588Y-86005295D02*
X110032969Y-85910057D01*
X110032969Y-85910057D02*
X109985350Y-85862438D01*
X109985350Y-85862438D02*
X109890112Y-85814819D01*
X109890112Y-85814819D02*
X109699636Y-85814819D01*
X109699636Y-85814819D02*
X109604398Y-85862438D01*
X109604398Y-85862438D02*
X109556779Y-85910057D01*
X109556779Y-85910057D02*
X109509160Y-86005295D01*
X109509160Y-86005295D02*
X109509160Y-86052914D01*
X109509160Y-86052914D02*
X109556779Y-86148152D01*
X109556779Y-86148152D02*
X109604398Y-86195771D01*
X109604398Y-86195771D02*
X109699636Y-86243390D01*
X109699636Y-86243390D02*
X109890112Y-86243390D01*
X109890112Y-86243390D02*
X109985350Y-86291009D01*
X109985350Y-86291009D02*
X110032969Y-86338628D01*
X110032969Y-86338628D02*
X110080588Y-86433866D01*
X110080588Y-86433866D02*
X110080588Y-86624342D01*
X110080588Y-86624342D02*
X110032969Y-86719580D01*
X110032969Y-86719580D02*
X109985350Y-86767200D01*
X109985350Y-86767200D02*
X109890112Y-86814819D01*
X109890112Y-86814819D02*
X109699636Y-86814819D01*
X109699636Y-86814819D02*
X109604398Y-86767200D01*
X109604398Y-86767200D02*
X109556779Y-86719580D01*
X109556779Y-86719580D02*
X109509160Y-86624342D01*
X109509160Y-86624342D02*
X109509160Y-86433866D01*
X109509160Y-86433866D02*
X109556779Y-86338628D01*
X109556779Y-86338628D02*
X109604398Y-86291009D01*
X109604398Y-86291009D02*
X109699636Y-86243390D01*
X111890112Y-96974819D02*
X111890112Y-95974819D01*
X111890112Y-95974819D02*
X111509160Y-95974819D01*
X111509160Y-95974819D02*
X111413922Y-96022438D01*
X111413922Y-96022438D02*
X111366303Y-96070057D01*
X111366303Y-96070057D02*
X111318684Y-96165295D01*
X111318684Y-96165295D02*
X111318684Y-96308152D01*
X111318684Y-96308152D02*
X111366303Y-96403390D01*
X111366303Y-96403390D02*
X111413922Y-96451009D01*
X111413922Y-96451009D02*
X111509160Y-96498628D01*
X111509160Y-96498628D02*
X111890112Y-96498628D01*
X110937731Y-96689104D02*
X110461541Y-96689104D01*
X111032969Y-96974819D02*
X110699636Y-95974819D01*
X110699636Y-95974819D02*
X110366303Y-96974819D01*
X109509160Y-96974819D02*
X110080588Y-96974819D01*
X109794874Y-96974819D02*
X109794874Y-95974819D01*
X109794874Y-95974819D02*
X109890112Y-96117676D01*
X109890112Y-96117676D02*
X109985350Y-96212914D01*
X109985350Y-96212914D02*
X110080588Y-96260533D01*
X111890112Y-104594819D02*
X111890112Y-103594819D01*
X111890112Y-103594819D02*
X111509160Y-103594819D01*
X111509160Y-103594819D02*
X111413922Y-103642438D01*
X111413922Y-103642438D02*
X111366303Y-103690057D01*
X111366303Y-103690057D02*
X111318684Y-103785295D01*
X111318684Y-103785295D02*
X111318684Y-103928152D01*
X111318684Y-103928152D02*
X111366303Y-104023390D01*
X111366303Y-104023390D02*
X111413922Y-104071009D01*
X111413922Y-104071009D02*
X111509160Y-104118628D01*
X111509160Y-104118628D02*
X111890112Y-104118628D01*
X110937731Y-104309104D02*
X110461541Y-104309104D01*
X111032969Y-104594819D02*
X110699636Y-103594819D01*
X110699636Y-103594819D02*
X110366303Y-104594819D01*
X109604398Y-103928152D02*
X109604398Y-104594819D01*
X109842493Y-103547200D02*
X110080588Y-104261485D01*
X110080588Y-104261485D02*
X109461541Y-104261485D01*
X111890112Y-102054819D02*
X111890112Y-101054819D01*
X111890112Y-101054819D02*
X111509160Y-101054819D01*
X111509160Y-101054819D02*
X111413922Y-101102438D01*
X111413922Y-101102438D02*
X111366303Y-101150057D01*
X111366303Y-101150057D02*
X111318684Y-101245295D01*
X111318684Y-101245295D02*
X111318684Y-101388152D01*
X111318684Y-101388152D02*
X111366303Y-101483390D01*
X111366303Y-101483390D02*
X111413922Y-101531009D01*
X111413922Y-101531009D02*
X111509160Y-101578628D01*
X111509160Y-101578628D02*
X111890112Y-101578628D01*
X110937731Y-101769104D02*
X110461541Y-101769104D01*
X111032969Y-102054819D02*
X110699636Y-101054819D01*
X110699636Y-101054819D02*
X110366303Y-102054819D01*
X110128207Y-101054819D02*
X109509160Y-101054819D01*
X109509160Y-101054819D02*
X109842493Y-101435771D01*
X109842493Y-101435771D02*
X109699636Y-101435771D01*
X109699636Y-101435771D02*
X109604398Y-101483390D01*
X109604398Y-101483390D02*
X109556779Y-101531009D01*
X109556779Y-101531009D02*
X109509160Y-101626247D01*
X109509160Y-101626247D02*
X109509160Y-101864342D01*
X109509160Y-101864342D02*
X109556779Y-101959580D01*
X109556779Y-101959580D02*
X109604398Y-102007200D01*
X109604398Y-102007200D02*
X109699636Y-102054819D01*
X109699636Y-102054819D02*
X109985350Y-102054819D01*
X109985350Y-102054819D02*
X110080588Y-102007200D01*
X110080588Y-102007200D02*
X110128207Y-101959580D01*
X112032969Y-89354819D02*
X112032969Y-88354819D01*
X112032969Y-88354819D02*
X111652017Y-88354819D01*
X111652017Y-88354819D02*
X111556779Y-88402438D01*
X111556779Y-88402438D02*
X111509160Y-88450057D01*
X111509160Y-88450057D02*
X111461541Y-88545295D01*
X111461541Y-88545295D02*
X111461541Y-88688152D01*
X111461541Y-88688152D02*
X111509160Y-88783390D01*
X111509160Y-88783390D02*
X111556779Y-88831009D01*
X111556779Y-88831009D02*
X111652017Y-88878628D01*
X111652017Y-88878628D02*
X112032969Y-88878628D01*
X110699636Y-88831009D02*
X110556779Y-88878628D01*
X110556779Y-88878628D02*
X110509160Y-88926247D01*
X110509160Y-88926247D02*
X110461541Y-89021485D01*
X110461541Y-89021485D02*
X110461541Y-89164342D01*
X110461541Y-89164342D02*
X110509160Y-89259580D01*
X110509160Y-89259580D02*
X110556779Y-89307200D01*
X110556779Y-89307200D02*
X110652017Y-89354819D01*
X110652017Y-89354819D02*
X111032969Y-89354819D01*
X111032969Y-89354819D02*
X111032969Y-88354819D01*
X111032969Y-88354819D02*
X110699636Y-88354819D01*
X110699636Y-88354819D02*
X110604398Y-88402438D01*
X110604398Y-88402438D02*
X110556779Y-88450057D01*
X110556779Y-88450057D02*
X110509160Y-88545295D01*
X110509160Y-88545295D02*
X110509160Y-88640533D01*
X110509160Y-88640533D02*
X110556779Y-88735771D01*
X110556779Y-88735771D02*
X110604398Y-88783390D01*
X110604398Y-88783390D02*
X110699636Y-88831009D01*
X110699636Y-88831009D02*
X111032969Y-88831009D01*
X109985350Y-89354819D02*
X109794874Y-89354819D01*
X109794874Y-89354819D02*
X109699636Y-89307200D01*
X109699636Y-89307200D02*
X109652017Y-89259580D01*
X109652017Y-89259580D02*
X109556779Y-89116723D01*
X109556779Y-89116723D02*
X109509160Y-88926247D01*
X109509160Y-88926247D02*
X109509160Y-88545295D01*
X109509160Y-88545295D02*
X109556779Y-88450057D01*
X109556779Y-88450057D02*
X109604398Y-88402438D01*
X109604398Y-88402438D02*
X109699636Y-88354819D01*
X109699636Y-88354819D02*
X109890112Y-88354819D01*
X109890112Y-88354819D02*
X109985350Y-88402438D01*
X109985350Y-88402438D02*
X110032969Y-88450057D01*
X110032969Y-88450057D02*
X110080588Y-88545295D01*
X110080588Y-88545295D02*
X110080588Y-88783390D01*
X110080588Y-88783390D02*
X110032969Y-88878628D01*
X110032969Y-88878628D02*
X109985350Y-88926247D01*
X109985350Y-88926247D02*
X109890112Y-88973866D01*
X109890112Y-88973866D02*
X109699636Y-88973866D01*
X109699636Y-88973866D02*
X109604398Y-88926247D01*
X109604398Y-88926247D02*
X109556779Y-88878628D01*
X109556779Y-88878628D02*
X109509160Y-88783390D01*
X112032969Y-79194819D02*
X112032969Y-78194819D01*
X112032969Y-78194819D02*
X111652017Y-78194819D01*
X111652017Y-78194819D02*
X111556779Y-78242438D01*
X111556779Y-78242438D02*
X111509160Y-78290057D01*
X111509160Y-78290057D02*
X111461541Y-78385295D01*
X111461541Y-78385295D02*
X111461541Y-78528152D01*
X111461541Y-78528152D02*
X111509160Y-78623390D01*
X111509160Y-78623390D02*
X111556779Y-78671009D01*
X111556779Y-78671009D02*
X111652017Y-78718628D01*
X111652017Y-78718628D02*
X112032969Y-78718628D01*
X110699636Y-78671009D02*
X110556779Y-78718628D01*
X110556779Y-78718628D02*
X110509160Y-78766247D01*
X110509160Y-78766247D02*
X110461541Y-78861485D01*
X110461541Y-78861485D02*
X110461541Y-79004342D01*
X110461541Y-79004342D02*
X110509160Y-79099580D01*
X110509160Y-79099580D02*
X110556779Y-79147200D01*
X110556779Y-79147200D02*
X110652017Y-79194819D01*
X110652017Y-79194819D02*
X111032969Y-79194819D01*
X111032969Y-79194819D02*
X111032969Y-78194819D01*
X111032969Y-78194819D02*
X110699636Y-78194819D01*
X110699636Y-78194819D02*
X110604398Y-78242438D01*
X110604398Y-78242438D02*
X110556779Y-78290057D01*
X110556779Y-78290057D02*
X110509160Y-78385295D01*
X110509160Y-78385295D02*
X110509160Y-78480533D01*
X110509160Y-78480533D02*
X110556779Y-78575771D01*
X110556779Y-78575771D02*
X110604398Y-78623390D01*
X110604398Y-78623390D02*
X110699636Y-78671009D01*
X110699636Y-78671009D02*
X111032969Y-78671009D01*
X109556779Y-78194819D02*
X110032969Y-78194819D01*
X110032969Y-78194819D02*
X110080588Y-78671009D01*
X110080588Y-78671009D02*
X110032969Y-78623390D01*
X110032969Y-78623390D02*
X109937731Y-78575771D01*
X109937731Y-78575771D02*
X109699636Y-78575771D01*
X109699636Y-78575771D02*
X109604398Y-78623390D01*
X109604398Y-78623390D02*
X109556779Y-78671009D01*
X109556779Y-78671009D02*
X109509160Y-78766247D01*
X109509160Y-78766247D02*
X109509160Y-79004342D01*
X109509160Y-79004342D02*
X109556779Y-79099580D01*
X109556779Y-79099580D02*
X109604398Y-79147200D01*
X109604398Y-79147200D02*
X109699636Y-79194819D01*
X109699636Y-79194819D02*
X109937731Y-79194819D01*
X109937731Y-79194819D02*
X110032969Y-79147200D01*
X110032969Y-79147200D02*
X110080588Y-79099580D01*
X112032969Y-76654819D02*
X112032969Y-75654819D01*
X112032969Y-75654819D02*
X111652017Y-75654819D01*
X111652017Y-75654819D02*
X111556779Y-75702438D01*
X111556779Y-75702438D02*
X111509160Y-75750057D01*
X111509160Y-75750057D02*
X111461541Y-75845295D01*
X111461541Y-75845295D02*
X111461541Y-75988152D01*
X111461541Y-75988152D02*
X111509160Y-76083390D01*
X111509160Y-76083390D02*
X111556779Y-76131009D01*
X111556779Y-76131009D02*
X111652017Y-76178628D01*
X111652017Y-76178628D02*
X112032969Y-76178628D01*
X110699636Y-76131009D02*
X110556779Y-76178628D01*
X110556779Y-76178628D02*
X110509160Y-76226247D01*
X110509160Y-76226247D02*
X110461541Y-76321485D01*
X110461541Y-76321485D02*
X110461541Y-76464342D01*
X110461541Y-76464342D02*
X110509160Y-76559580D01*
X110509160Y-76559580D02*
X110556779Y-76607200D01*
X110556779Y-76607200D02*
X110652017Y-76654819D01*
X110652017Y-76654819D02*
X111032969Y-76654819D01*
X111032969Y-76654819D02*
X111032969Y-75654819D01*
X111032969Y-75654819D02*
X110699636Y-75654819D01*
X110699636Y-75654819D02*
X110604398Y-75702438D01*
X110604398Y-75702438D02*
X110556779Y-75750057D01*
X110556779Y-75750057D02*
X110509160Y-75845295D01*
X110509160Y-75845295D02*
X110509160Y-75940533D01*
X110509160Y-75940533D02*
X110556779Y-76035771D01*
X110556779Y-76035771D02*
X110604398Y-76083390D01*
X110604398Y-76083390D02*
X110699636Y-76131009D01*
X110699636Y-76131009D02*
X111032969Y-76131009D01*
X109604398Y-75988152D02*
X109604398Y-76654819D01*
X109842493Y-75607200D02*
X110080588Y-76321485D01*
X110080588Y-76321485D02*
X109461541Y-76321485D01*
X147049409Y-79352299D02*
X147049409Y-78352299D01*
X147049409Y-78352299D02*
X146668457Y-78352299D01*
X146668457Y-78352299D02*
X146573219Y-78399918D01*
X146573219Y-78399918D02*
X146525600Y-78447537D01*
X146525600Y-78447537D02*
X146477981Y-78542775D01*
X146477981Y-78542775D02*
X146477981Y-78685632D01*
X146477981Y-78685632D02*
X146525600Y-78780870D01*
X146525600Y-78780870D02*
X146573219Y-78828489D01*
X146573219Y-78828489D02*
X146668457Y-78876108D01*
X146668457Y-78876108D02*
X147049409Y-78876108D01*
X145716076Y-78828489D02*
X145573219Y-78876108D01*
X145573219Y-78876108D02*
X145525600Y-78923727D01*
X145525600Y-78923727D02*
X145477981Y-79018965D01*
X145477981Y-79018965D02*
X145477981Y-79161822D01*
X145477981Y-79161822D02*
X145525600Y-79257060D01*
X145525600Y-79257060D02*
X145573219Y-79304680D01*
X145573219Y-79304680D02*
X145668457Y-79352299D01*
X145668457Y-79352299D02*
X146049409Y-79352299D01*
X146049409Y-79352299D02*
X146049409Y-78352299D01*
X146049409Y-78352299D02*
X145716076Y-78352299D01*
X145716076Y-78352299D02*
X145620838Y-78399918D01*
X145620838Y-78399918D02*
X145573219Y-78447537D01*
X145573219Y-78447537D02*
X145525600Y-78542775D01*
X145525600Y-78542775D02*
X145525600Y-78638013D01*
X145525600Y-78638013D02*
X145573219Y-78733251D01*
X145573219Y-78733251D02*
X145620838Y-78780870D01*
X145620838Y-78780870D02*
X145716076Y-78828489D01*
X145716076Y-78828489D02*
X146049409Y-78828489D01*
X145144647Y-78352299D02*
X144525600Y-78352299D01*
X144525600Y-78352299D02*
X144858933Y-78733251D01*
X144858933Y-78733251D02*
X144716076Y-78733251D01*
X144716076Y-78733251D02*
X144620838Y-78780870D01*
X144620838Y-78780870D02*
X144573219Y-78828489D01*
X144573219Y-78828489D02*
X144525600Y-78923727D01*
X144525600Y-78923727D02*
X144525600Y-79161822D01*
X144525600Y-79161822D02*
X144573219Y-79257060D01*
X144573219Y-79257060D02*
X144620838Y-79304680D01*
X144620838Y-79304680D02*
X144716076Y-79352299D01*
X144716076Y-79352299D02*
X145001790Y-79352299D01*
X145001790Y-79352299D02*
X145097028Y-79304680D01*
X145097028Y-79304680D02*
X145144647Y-79257060D01*
X112032969Y-114754819D02*
X112032969Y-113754819D01*
X112032969Y-113754819D02*
X111652017Y-113754819D01*
X111652017Y-113754819D02*
X111556779Y-113802438D01*
X111556779Y-113802438D02*
X111509160Y-113850057D01*
X111509160Y-113850057D02*
X111461541Y-113945295D01*
X111461541Y-113945295D02*
X111461541Y-114088152D01*
X111461541Y-114088152D02*
X111509160Y-114183390D01*
X111509160Y-114183390D02*
X111556779Y-114231009D01*
X111556779Y-114231009D02*
X111652017Y-114278628D01*
X111652017Y-114278628D02*
X112032969Y-114278628D01*
X110699636Y-114231009D02*
X110556779Y-114278628D01*
X110556779Y-114278628D02*
X110509160Y-114326247D01*
X110509160Y-114326247D02*
X110461541Y-114421485D01*
X110461541Y-114421485D02*
X110461541Y-114564342D01*
X110461541Y-114564342D02*
X110509160Y-114659580D01*
X110509160Y-114659580D02*
X110556779Y-114707200D01*
X110556779Y-114707200D02*
X110652017Y-114754819D01*
X110652017Y-114754819D02*
X111032969Y-114754819D01*
X111032969Y-114754819D02*
X111032969Y-113754819D01*
X111032969Y-113754819D02*
X110699636Y-113754819D01*
X110699636Y-113754819D02*
X110604398Y-113802438D01*
X110604398Y-113802438D02*
X110556779Y-113850057D01*
X110556779Y-113850057D02*
X110509160Y-113945295D01*
X110509160Y-113945295D02*
X110509160Y-114040533D01*
X110509160Y-114040533D02*
X110556779Y-114135771D01*
X110556779Y-114135771D02*
X110604398Y-114183390D01*
X110604398Y-114183390D02*
X110699636Y-114231009D01*
X110699636Y-114231009D02*
X111032969Y-114231009D01*
X109842493Y-113754819D02*
X109747255Y-113754819D01*
X109747255Y-113754819D02*
X109652017Y-113802438D01*
X109652017Y-113802438D02*
X109604398Y-113850057D01*
X109604398Y-113850057D02*
X109556779Y-113945295D01*
X109556779Y-113945295D02*
X109509160Y-114135771D01*
X109509160Y-114135771D02*
X109509160Y-114373866D01*
X109509160Y-114373866D02*
X109556779Y-114564342D01*
X109556779Y-114564342D02*
X109604398Y-114659580D01*
X109604398Y-114659580D02*
X109652017Y-114707200D01*
X109652017Y-114707200D02*
X109747255Y-114754819D01*
X109747255Y-114754819D02*
X109842493Y-114754819D01*
X109842493Y-114754819D02*
X109937731Y-114707200D01*
X109937731Y-114707200D02*
X109985350Y-114659580D01*
X109985350Y-114659580D02*
X110032969Y-114564342D01*
X110032969Y-114564342D02*
X110080588Y-114373866D01*
X110080588Y-114373866D02*
X110080588Y-114135771D01*
X110080588Y-114135771D02*
X110032969Y-113945295D01*
X110032969Y-113945295D02*
X109985350Y-113850057D01*
X109985350Y-113850057D02*
X109937731Y-113802438D01*
X109937731Y-113802438D02*
X109842493Y-113754819D01*
X111890112Y-99514819D02*
X111890112Y-98514819D01*
X111890112Y-98514819D02*
X111509160Y-98514819D01*
X111509160Y-98514819D02*
X111413922Y-98562438D01*
X111413922Y-98562438D02*
X111366303Y-98610057D01*
X111366303Y-98610057D02*
X111318684Y-98705295D01*
X111318684Y-98705295D02*
X111318684Y-98848152D01*
X111318684Y-98848152D02*
X111366303Y-98943390D01*
X111366303Y-98943390D02*
X111413922Y-98991009D01*
X111413922Y-98991009D02*
X111509160Y-99038628D01*
X111509160Y-99038628D02*
X111890112Y-99038628D01*
X110937731Y-99229104D02*
X110461541Y-99229104D01*
X111032969Y-99514819D02*
X110699636Y-98514819D01*
X110699636Y-98514819D02*
X110366303Y-99514819D01*
X110080588Y-98610057D02*
X110032969Y-98562438D01*
X110032969Y-98562438D02*
X109937731Y-98514819D01*
X109937731Y-98514819D02*
X109699636Y-98514819D01*
X109699636Y-98514819D02*
X109604398Y-98562438D01*
X109604398Y-98562438D02*
X109556779Y-98610057D01*
X109556779Y-98610057D02*
X109509160Y-98705295D01*
X109509160Y-98705295D02*
X109509160Y-98800533D01*
X109509160Y-98800533D02*
X109556779Y-98943390D01*
X109556779Y-98943390D02*
X110128207Y-99514819D01*
X110128207Y-99514819D02*
X109509160Y-99514819D01*
X111890112Y-107134819D02*
X111890112Y-106134819D01*
X111890112Y-106134819D02*
X111509160Y-106134819D01*
X111509160Y-106134819D02*
X111413922Y-106182438D01*
X111413922Y-106182438D02*
X111366303Y-106230057D01*
X111366303Y-106230057D02*
X111318684Y-106325295D01*
X111318684Y-106325295D02*
X111318684Y-106468152D01*
X111318684Y-106468152D02*
X111366303Y-106563390D01*
X111366303Y-106563390D02*
X111413922Y-106611009D01*
X111413922Y-106611009D02*
X111509160Y-106658628D01*
X111509160Y-106658628D02*
X111890112Y-106658628D01*
X110937731Y-106849104D02*
X110461541Y-106849104D01*
X111032969Y-107134819D02*
X110699636Y-106134819D01*
X110699636Y-106134819D02*
X110366303Y-107134819D01*
X109556779Y-106134819D02*
X110032969Y-106134819D01*
X110032969Y-106134819D02*
X110080588Y-106611009D01*
X110080588Y-106611009D02*
X110032969Y-106563390D01*
X110032969Y-106563390D02*
X109937731Y-106515771D01*
X109937731Y-106515771D02*
X109699636Y-106515771D01*
X109699636Y-106515771D02*
X109604398Y-106563390D01*
X109604398Y-106563390D02*
X109556779Y-106611009D01*
X109556779Y-106611009D02*
X109509160Y-106706247D01*
X109509160Y-106706247D02*
X109509160Y-106944342D01*
X109509160Y-106944342D02*
X109556779Y-107039580D01*
X109556779Y-107039580D02*
X109604398Y-107087200D01*
X109604398Y-107087200D02*
X109699636Y-107134819D01*
X109699636Y-107134819D02*
X109937731Y-107134819D01*
X109937731Y-107134819D02*
X110032969Y-107087200D01*
X110032969Y-107087200D02*
X110080588Y-107039580D01*
X146983220Y-114754819D02*
X146983220Y-113754819D01*
X146983220Y-113754819D02*
X146602268Y-113754819D01*
X146602268Y-113754819D02*
X146507030Y-113802438D01*
X146507030Y-113802438D02*
X146459411Y-113850057D01*
X146459411Y-113850057D02*
X146411792Y-113945295D01*
X146411792Y-113945295D02*
X146411792Y-114088152D01*
X146411792Y-114088152D02*
X146459411Y-114183390D01*
X146459411Y-114183390D02*
X146507030Y-114231009D01*
X146507030Y-114231009D02*
X146602268Y-114278628D01*
X146602268Y-114278628D02*
X146983220Y-114278628D01*
X145649887Y-114231009D02*
X145507030Y-114278628D01*
X145507030Y-114278628D02*
X145459411Y-114326247D01*
X145459411Y-114326247D02*
X145411792Y-114421485D01*
X145411792Y-114421485D02*
X145411792Y-114564342D01*
X145411792Y-114564342D02*
X145459411Y-114659580D01*
X145459411Y-114659580D02*
X145507030Y-114707200D01*
X145507030Y-114707200D02*
X145602268Y-114754819D01*
X145602268Y-114754819D02*
X145983220Y-114754819D01*
X145983220Y-114754819D02*
X145983220Y-113754819D01*
X145983220Y-113754819D02*
X145649887Y-113754819D01*
X145649887Y-113754819D02*
X145554649Y-113802438D01*
X145554649Y-113802438D02*
X145507030Y-113850057D01*
X145507030Y-113850057D02*
X145459411Y-113945295D01*
X145459411Y-113945295D02*
X145459411Y-114040533D01*
X145459411Y-114040533D02*
X145507030Y-114135771D01*
X145507030Y-114135771D02*
X145554649Y-114183390D01*
X145554649Y-114183390D02*
X145649887Y-114231009D01*
X145649887Y-114231009D02*
X145983220Y-114231009D01*
X144459411Y-114754819D02*
X145030839Y-114754819D01*
X144745125Y-114754819D02*
X144745125Y-113754819D01*
X144745125Y-113754819D02*
X144840363Y-113897676D01*
X144840363Y-113897676D02*
X144935601Y-113992914D01*
X144935601Y-113992914D02*
X145030839Y-114040533D01*
X111604398Y-116342438D02*
X111699636Y-116294819D01*
X111699636Y-116294819D02*
X111842493Y-116294819D01*
X111842493Y-116294819D02*
X111985350Y-116342438D01*
X111985350Y-116342438D02*
X112080588Y-116437676D01*
X112080588Y-116437676D02*
X112128207Y-116532914D01*
X112128207Y-116532914D02*
X112175826Y-116723390D01*
X112175826Y-116723390D02*
X112175826Y-116866247D01*
X112175826Y-116866247D02*
X112128207Y-117056723D01*
X112128207Y-117056723D02*
X112080588Y-117151961D01*
X112080588Y-117151961D02*
X111985350Y-117247200D01*
X111985350Y-117247200D02*
X111842493Y-117294819D01*
X111842493Y-117294819D02*
X111747255Y-117294819D01*
X111747255Y-117294819D02*
X111604398Y-117247200D01*
X111604398Y-117247200D02*
X111556779Y-117199580D01*
X111556779Y-117199580D02*
X111556779Y-116866247D01*
X111556779Y-116866247D02*
X111747255Y-116866247D01*
X111128207Y-117294819D02*
X111128207Y-116294819D01*
X111128207Y-116294819D02*
X110556779Y-117294819D01*
X110556779Y-117294819D02*
X110556779Y-116294819D01*
X110080588Y-117294819D02*
X110080588Y-116294819D01*
X110080588Y-116294819D02*
X109842493Y-116294819D01*
X109842493Y-116294819D02*
X109699636Y-116342438D01*
X109699636Y-116342438D02*
X109604398Y-116437676D01*
X109604398Y-116437676D02*
X109556779Y-116532914D01*
X109556779Y-116532914D02*
X109509160Y-116723390D01*
X109509160Y-116723390D02*
X109509160Y-116866247D01*
X109509160Y-116866247D02*
X109556779Y-117056723D01*
X109556779Y-117056723D02*
X109604398Y-117151961D01*
X109604398Y-117151961D02*
X109699636Y-117247200D01*
X109699636Y-117247200D02*
X109842493Y-117294819D01*
X109842493Y-117294819D02*
X110080588Y-117294819D01*
X111890112Y-109674819D02*
X111890112Y-108674819D01*
X111890112Y-108674819D02*
X111509160Y-108674819D01*
X111509160Y-108674819D02*
X111413922Y-108722438D01*
X111413922Y-108722438D02*
X111366303Y-108770057D01*
X111366303Y-108770057D02*
X111318684Y-108865295D01*
X111318684Y-108865295D02*
X111318684Y-109008152D01*
X111318684Y-109008152D02*
X111366303Y-109103390D01*
X111366303Y-109103390D02*
X111413922Y-109151009D01*
X111413922Y-109151009D02*
X111509160Y-109198628D01*
X111509160Y-109198628D02*
X111890112Y-109198628D01*
X110937731Y-109389104D02*
X110461541Y-109389104D01*
X111032969Y-109674819D02*
X110699636Y-108674819D01*
X110699636Y-108674819D02*
X110366303Y-109674819D01*
X109604398Y-108674819D02*
X109794874Y-108674819D01*
X109794874Y-108674819D02*
X109890112Y-108722438D01*
X109890112Y-108722438D02*
X109937731Y-108770057D01*
X109937731Y-108770057D02*
X110032969Y-108912914D01*
X110032969Y-108912914D02*
X110080588Y-109103390D01*
X110080588Y-109103390D02*
X110080588Y-109484342D01*
X110080588Y-109484342D02*
X110032969Y-109579580D01*
X110032969Y-109579580D02*
X109985350Y-109627200D01*
X109985350Y-109627200D02*
X109890112Y-109674819D01*
X109890112Y-109674819D02*
X109699636Y-109674819D01*
X109699636Y-109674819D02*
X109604398Y-109627200D01*
X109604398Y-109627200D02*
X109556779Y-109579580D01*
X109556779Y-109579580D02*
X109509160Y-109484342D01*
X109509160Y-109484342D02*
X109509160Y-109246247D01*
X109509160Y-109246247D02*
X109556779Y-109151009D01*
X109556779Y-109151009D02*
X109604398Y-109103390D01*
X109604398Y-109103390D02*
X109699636Y-109055771D01*
X109699636Y-109055771D02*
X109890112Y-109055771D01*
X109890112Y-109055771D02*
X109985350Y-109103390D01*
X109985350Y-109103390D02*
X110032969Y-109151009D01*
X110032969Y-109151009D02*
X110080588Y-109246247D01*
X146983220Y-96974819D02*
X146983220Y-95974819D01*
X146983220Y-95974819D02*
X146602268Y-95974819D01*
X146602268Y-95974819D02*
X146507030Y-96022438D01*
X146507030Y-96022438D02*
X146459411Y-96070057D01*
X146459411Y-96070057D02*
X146411792Y-96165295D01*
X146411792Y-96165295D02*
X146411792Y-96308152D01*
X146411792Y-96308152D02*
X146459411Y-96403390D01*
X146459411Y-96403390D02*
X146507030Y-96451009D01*
X146507030Y-96451009D02*
X146602268Y-96498628D01*
X146602268Y-96498628D02*
X146983220Y-96498628D01*
X145649887Y-96451009D02*
X145507030Y-96498628D01*
X145507030Y-96498628D02*
X145459411Y-96546247D01*
X145459411Y-96546247D02*
X145411792Y-96641485D01*
X145411792Y-96641485D02*
X145411792Y-96784342D01*
X145411792Y-96784342D02*
X145459411Y-96879580D01*
X145459411Y-96879580D02*
X145507030Y-96927200D01*
X145507030Y-96927200D02*
X145602268Y-96974819D01*
X145602268Y-96974819D02*
X145983220Y-96974819D01*
X145983220Y-96974819D02*
X145983220Y-95974819D01*
X145983220Y-95974819D02*
X145649887Y-95974819D01*
X145649887Y-95974819D02*
X145554649Y-96022438D01*
X145554649Y-96022438D02*
X145507030Y-96070057D01*
X145507030Y-96070057D02*
X145459411Y-96165295D01*
X145459411Y-96165295D02*
X145459411Y-96260533D01*
X145459411Y-96260533D02*
X145507030Y-96355771D01*
X145507030Y-96355771D02*
X145554649Y-96403390D01*
X145554649Y-96403390D02*
X145649887Y-96451009D01*
X145649887Y-96451009D02*
X145983220Y-96451009D01*
X144459411Y-96974819D02*
X145030839Y-96974819D01*
X144745125Y-96974819D02*
X144745125Y-95974819D01*
X144745125Y-95974819D02*
X144840363Y-96117676D01*
X144840363Y-96117676D02*
X144935601Y-96212914D01*
X144935601Y-96212914D02*
X145030839Y-96260533D01*
X143554649Y-95974819D02*
X144030839Y-95974819D01*
X144030839Y-95974819D02*
X144078458Y-96451009D01*
X144078458Y-96451009D02*
X144030839Y-96403390D01*
X144030839Y-96403390D02*
X143935601Y-96355771D01*
X143935601Y-96355771D02*
X143697506Y-96355771D01*
X143697506Y-96355771D02*
X143602268Y-96403390D01*
X143602268Y-96403390D02*
X143554649Y-96451009D01*
X143554649Y-96451009D02*
X143507030Y-96546247D01*
X143507030Y-96546247D02*
X143507030Y-96784342D01*
X143507030Y-96784342D02*
X143554649Y-96879580D01*
X143554649Y-96879580D02*
X143602268Y-96927200D01*
X143602268Y-96927200D02*
X143697506Y-96974819D01*
X143697506Y-96974819D02*
X143935601Y-96974819D01*
X143935601Y-96974819D02*
X144030839Y-96927200D01*
X144030839Y-96927200D02*
X144078458Y-96879580D01*
X146983220Y-94434819D02*
X146983220Y-93434819D01*
X146983220Y-93434819D02*
X146602268Y-93434819D01*
X146602268Y-93434819D02*
X146507030Y-93482438D01*
X146507030Y-93482438D02*
X146459411Y-93530057D01*
X146459411Y-93530057D02*
X146411792Y-93625295D01*
X146411792Y-93625295D02*
X146411792Y-93768152D01*
X146411792Y-93768152D02*
X146459411Y-93863390D01*
X146459411Y-93863390D02*
X146507030Y-93911009D01*
X146507030Y-93911009D02*
X146602268Y-93958628D01*
X146602268Y-93958628D02*
X146983220Y-93958628D01*
X146030839Y-94149104D02*
X145554649Y-94149104D01*
X146126077Y-94434819D02*
X145792744Y-93434819D01*
X145792744Y-93434819D02*
X145459411Y-94434819D01*
X144983220Y-93863390D02*
X145078458Y-93815771D01*
X145078458Y-93815771D02*
X145126077Y-93768152D01*
X145126077Y-93768152D02*
X145173696Y-93672914D01*
X145173696Y-93672914D02*
X145173696Y-93625295D01*
X145173696Y-93625295D02*
X145126077Y-93530057D01*
X145126077Y-93530057D02*
X145078458Y-93482438D01*
X145078458Y-93482438D02*
X144983220Y-93434819D01*
X144983220Y-93434819D02*
X144792744Y-93434819D01*
X144792744Y-93434819D02*
X144697506Y-93482438D01*
X144697506Y-93482438D02*
X144649887Y-93530057D01*
X144649887Y-93530057D02*
X144602268Y-93625295D01*
X144602268Y-93625295D02*
X144602268Y-93672914D01*
X144602268Y-93672914D02*
X144649887Y-93768152D01*
X144649887Y-93768152D02*
X144697506Y-93815771D01*
X144697506Y-93815771D02*
X144792744Y-93863390D01*
X144792744Y-93863390D02*
X144983220Y-93863390D01*
X144983220Y-93863390D02*
X145078458Y-93911009D01*
X145078458Y-93911009D02*
X145126077Y-93958628D01*
X145126077Y-93958628D02*
X145173696Y-94053866D01*
X145173696Y-94053866D02*
X145173696Y-94244342D01*
X145173696Y-94244342D02*
X145126077Y-94339580D01*
X145126077Y-94339580D02*
X145078458Y-94387200D01*
X145078458Y-94387200D02*
X144983220Y-94434819D01*
X144983220Y-94434819D02*
X144792744Y-94434819D01*
X144792744Y-94434819D02*
X144697506Y-94387200D01*
X144697506Y-94387200D02*
X144649887Y-94339580D01*
X144649887Y-94339580D02*
X144602268Y-94244342D01*
X144602268Y-94244342D02*
X144602268Y-94053866D01*
X144602268Y-94053866D02*
X144649887Y-93958628D01*
X144649887Y-93958628D02*
X144697506Y-93911009D01*
X144697506Y-93911009D02*
X144792744Y-93863390D01*
X146983220Y-91894819D02*
X146983220Y-90894819D01*
X146983220Y-90894819D02*
X146602268Y-90894819D01*
X146602268Y-90894819D02*
X146507030Y-90942438D01*
X146507030Y-90942438D02*
X146459411Y-90990057D01*
X146459411Y-90990057D02*
X146411792Y-91085295D01*
X146411792Y-91085295D02*
X146411792Y-91228152D01*
X146411792Y-91228152D02*
X146459411Y-91323390D01*
X146459411Y-91323390D02*
X146507030Y-91371009D01*
X146507030Y-91371009D02*
X146602268Y-91418628D01*
X146602268Y-91418628D02*
X146983220Y-91418628D01*
X146030839Y-91609104D02*
X145554649Y-91609104D01*
X146126077Y-91894819D02*
X145792744Y-90894819D01*
X145792744Y-90894819D02*
X145459411Y-91894819D01*
X145078458Y-91894819D02*
X144887982Y-91894819D01*
X144887982Y-91894819D02*
X144792744Y-91847200D01*
X144792744Y-91847200D02*
X144745125Y-91799580D01*
X144745125Y-91799580D02*
X144649887Y-91656723D01*
X144649887Y-91656723D02*
X144602268Y-91466247D01*
X144602268Y-91466247D02*
X144602268Y-91085295D01*
X144602268Y-91085295D02*
X144649887Y-90990057D01*
X144649887Y-90990057D02*
X144697506Y-90942438D01*
X144697506Y-90942438D02*
X144792744Y-90894819D01*
X144792744Y-90894819D02*
X144983220Y-90894819D01*
X144983220Y-90894819D02*
X145078458Y-90942438D01*
X145078458Y-90942438D02*
X145126077Y-90990057D01*
X145126077Y-90990057D02*
X145173696Y-91085295D01*
X145173696Y-91085295D02*
X145173696Y-91323390D01*
X145173696Y-91323390D02*
X145126077Y-91418628D01*
X145126077Y-91418628D02*
X145078458Y-91466247D01*
X145078458Y-91466247D02*
X144983220Y-91513866D01*
X144983220Y-91513866D02*
X144792744Y-91513866D01*
X144792744Y-91513866D02*
X144697506Y-91466247D01*
X144697506Y-91466247D02*
X144649887Y-91418628D01*
X144649887Y-91418628D02*
X144602268Y-91323390D01*
X146983220Y-86814819D02*
X146983220Y-85814819D01*
X146983220Y-85814819D02*
X146602268Y-85814819D01*
X146602268Y-85814819D02*
X146507030Y-85862438D01*
X146507030Y-85862438D02*
X146459411Y-85910057D01*
X146459411Y-85910057D02*
X146411792Y-86005295D01*
X146411792Y-86005295D02*
X146411792Y-86148152D01*
X146411792Y-86148152D02*
X146459411Y-86243390D01*
X146459411Y-86243390D02*
X146507030Y-86291009D01*
X146507030Y-86291009D02*
X146602268Y-86338628D01*
X146602268Y-86338628D02*
X146983220Y-86338628D01*
X146030839Y-86529104D02*
X145554649Y-86529104D01*
X146126077Y-86814819D02*
X145792744Y-85814819D01*
X145792744Y-85814819D02*
X145459411Y-86814819D01*
X144602268Y-86814819D02*
X145173696Y-86814819D01*
X144887982Y-86814819D02*
X144887982Y-85814819D01*
X144887982Y-85814819D02*
X144983220Y-85957676D01*
X144983220Y-85957676D02*
X145078458Y-86052914D01*
X145078458Y-86052914D02*
X145173696Y-86100533D01*
X143649887Y-86814819D02*
X144221315Y-86814819D01*
X143935601Y-86814819D02*
X143935601Y-85814819D01*
X143935601Y-85814819D02*
X144030839Y-85957676D01*
X144030839Y-85957676D02*
X144126077Y-86052914D01*
X144126077Y-86052914D02*
X144221315Y-86100533D01*
X146983220Y-89354819D02*
X146983220Y-88354819D01*
X146983220Y-88354819D02*
X146602268Y-88354819D01*
X146602268Y-88354819D02*
X146507030Y-88402438D01*
X146507030Y-88402438D02*
X146459411Y-88450057D01*
X146459411Y-88450057D02*
X146411792Y-88545295D01*
X146411792Y-88545295D02*
X146411792Y-88688152D01*
X146411792Y-88688152D02*
X146459411Y-88783390D01*
X146459411Y-88783390D02*
X146507030Y-88831009D01*
X146507030Y-88831009D02*
X146602268Y-88878628D01*
X146602268Y-88878628D02*
X146983220Y-88878628D01*
X146030839Y-89069104D02*
X145554649Y-89069104D01*
X146126077Y-89354819D02*
X145792744Y-88354819D01*
X145792744Y-88354819D02*
X145459411Y-89354819D01*
X144602268Y-89354819D02*
X145173696Y-89354819D01*
X144887982Y-89354819D02*
X144887982Y-88354819D01*
X144887982Y-88354819D02*
X144983220Y-88497676D01*
X144983220Y-88497676D02*
X145078458Y-88592914D01*
X145078458Y-88592914D02*
X145173696Y-88640533D01*
X143983220Y-88354819D02*
X143887982Y-88354819D01*
X143887982Y-88354819D02*
X143792744Y-88402438D01*
X143792744Y-88402438D02*
X143745125Y-88450057D01*
X143745125Y-88450057D02*
X143697506Y-88545295D01*
X143697506Y-88545295D02*
X143649887Y-88735771D01*
X143649887Y-88735771D02*
X143649887Y-88973866D01*
X143649887Y-88973866D02*
X143697506Y-89164342D01*
X143697506Y-89164342D02*
X143745125Y-89259580D01*
X143745125Y-89259580D02*
X143792744Y-89307200D01*
X143792744Y-89307200D02*
X143887982Y-89354819D01*
X143887982Y-89354819D02*
X143983220Y-89354819D01*
X143983220Y-89354819D02*
X144078458Y-89307200D01*
X144078458Y-89307200D02*
X144126077Y-89259580D01*
X144126077Y-89259580D02*
X144173696Y-89164342D01*
X144173696Y-89164342D02*
X144221315Y-88973866D01*
X144221315Y-88973866D02*
X144221315Y-88735771D01*
X144221315Y-88735771D02*
X144173696Y-88545295D01*
X144173696Y-88545295D02*
X144126077Y-88450057D01*
X144126077Y-88450057D02*
X144078458Y-88402438D01*
X144078458Y-88402438D02*
X143983220Y-88354819D01*
X146983220Y-81734819D02*
X146983220Y-80734819D01*
X146983220Y-80734819D02*
X146602268Y-80734819D01*
X146602268Y-80734819D02*
X146507030Y-80782438D01*
X146507030Y-80782438D02*
X146459411Y-80830057D01*
X146459411Y-80830057D02*
X146411792Y-80925295D01*
X146411792Y-80925295D02*
X146411792Y-81068152D01*
X146411792Y-81068152D02*
X146459411Y-81163390D01*
X146459411Y-81163390D02*
X146507030Y-81211009D01*
X146507030Y-81211009D02*
X146602268Y-81258628D01*
X146602268Y-81258628D02*
X146983220Y-81258628D01*
X146030839Y-81449104D02*
X145554649Y-81449104D01*
X146126077Y-81734819D02*
X145792744Y-80734819D01*
X145792744Y-80734819D02*
X145459411Y-81734819D01*
X144602268Y-81734819D02*
X145173696Y-81734819D01*
X144887982Y-81734819D02*
X144887982Y-80734819D01*
X144887982Y-80734819D02*
X144983220Y-80877676D01*
X144983220Y-80877676D02*
X145078458Y-80972914D01*
X145078458Y-80972914D02*
X145173696Y-81020533D01*
X143697506Y-80734819D02*
X144173696Y-80734819D01*
X144173696Y-80734819D02*
X144221315Y-81211009D01*
X144221315Y-81211009D02*
X144173696Y-81163390D01*
X144173696Y-81163390D02*
X144078458Y-81115771D01*
X144078458Y-81115771D02*
X143840363Y-81115771D01*
X143840363Y-81115771D02*
X143745125Y-81163390D01*
X143745125Y-81163390D02*
X143697506Y-81211009D01*
X143697506Y-81211009D02*
X143649887Y-81306247D01*
X143649887Y-81306247D02*
X143649887Y-81544342D01*
X143649887Y-81544342D02*
X143697506Y-81639580D01*
X143697506Y-81639580D02*
X143745125Y-81687200D01*
X143745125Y-81687200D02*
X143840363Y-81734819D01*
X143840363Y-81734819D02*
X144078458Y-81734819D01*
X144078458Y-81734819D02*
X144173696Y-81687200D01*
X144173696Y-81687200D02*
X144221315Y-81639580D01*
X146983220Y-107134819D02*
X146983220Y-106134819D01*
X146983220Y-106134819D02*
X146602268Y-106134819D01*
X146602268Y-106134819D02*
X146507030Y-106182438D01*
X146507030Y-106182438D02*
X146459411Y-106230057D01*
X146459411Y-106230057D02*
X146411792Y-106325295D01*
X146411792Y-106325295D02*
X146411792Y-106468152D01*
X146411792Y-106468152D02*
X146459411Y-106563390D01*
X146459411Y-106563390D02*
X146507030Y-106611009D01*
X146507030Y-106611009D02*
X146602268Y-106658628D01*
X146602268Y-106658628D02*
X146983220Y-106658628D01*
X145649887Y-106611009D02*
X145507030Y-106658628D01*
X145507030Y-106658628D02*
X145459411Y-106706247D01*
X145459411Y-106706247D02*
X145411792Y-106801485D01*
X145411792Y-106801485D02*
X145411792Y-106944342D01*
X145411792Y-106944342D02*
X145459411Y-107039580D01*
X145459411Y-107039580D02*
X145507030Y-107087200D01*
X145507030Y-107087200D02*
X145602268Y-107134819D01*
X145602268Y-107134819D02*
X145983220Y-107134819D01*
X145983220Y-107134819D02*
X145983220Y-106134819D01*
X145983220Y-106134819D02*
X145649887Y-106134819D01*
X145649887Y-106134819D02*
X145554649Y-106182438D01*
X145554649Y-106182438D02*
X145507030Y-106230057D01*
X145507030Y-106230057D02*
X145459411Y-106325295D01*
X145459411Y-106325295D02*
X145459411Y-106420533D01*
X145459411Y-106420533D02*
X145507030Y-106515771D01*
X145507030Y-106515771D02*
X145554649Y-106563390D01*
X145554649Y-106563390D02*
X145649887Y-106611009D01*
X145649887Y-106611009D02*
X145983220Y-106611009D01*
X144459411Y-107134819D02*
X145030839Y-107134819D01*
X144745125Y-107134819D02*
X144745125Y-106134819D01*
X144745125Y-106134819D02*
X144840363Y-106277676D01*
X144840363Y-106277676D02*
X144935601Y-106372914D01*
X144935601Y-106372914D02*
X145030839Y-106420533D01*
X143507030Y-107134819D02*
X144078458Y-107134819D01*
X143792744Y-107134819D02*
X143792744Y-106134819D01*
X143792744Y-106134819D02*
X143887982Y-106277676D01*
X143887982Y-106277676D02*
X143983220Y-106372914D01*
X143983220Y-106372914D02*
X144078458Y-106420533D01*
X146459411Y-116342438D02*
X146554649Y-116294819D01*
X146554649Y-116294819D02*
X146697506Y-116294819D01*
X146697506Y-116294819D02*
X146840363Y-116342438D01*
X146840363Y-116342438D02*
X146935601Y-116437676D01*
X146935601Y-116437676D02*
X146983220Y-116532914D01*
X146983220Y-116532914D02*
X147030839Y-116723390D01*
X147030839Y-116723390D02*
X147030839Y-116866247D01*
X147030839Y-116866247D02*
X146983220Y-117056723D01*
X146983220Y-117056723D02*
X146935601Y-117151961D01*
X146935601Y-117151961D02*
X146840363Y-117247200D01*
X146840363Y-117247200D02*
X146697506Y-117294819D01*
X146697506Y-117294819D02*
X146602268Y-117294819D01*
X146602268Y-117294819D02*
X146459411Y-117247200D01*
X146459411Y-117247200D02*
X146411792Y-117199580D01*
X146411792Y-117199580D02*
X146411792Y-116866247D01*
X146411792Y-116866247D02*
X146602268Y-116866247D01*
X145983220Y-117294819D02*
X145983220Y-116294819D01*
X145983220Y-116294819D02*
X145411792Y-117294819D01*
X145411792Y-117294819D02*
X145411792Y-116294819D01*
X144935601Y-117294819D02*
X144935601Y-116294819D01*
X144935601Y-116294819D02*
X144697506Y-116294819D01*
X144697506Y-116294819D02*
X144554649Y-116342438D01*
X144554649Y-116342438D02*
X144459411Y-116437676D01*
X144459411Y-116437676D02*
X144411792Y-116532914D01*
X144411792Y-116532914D02*
X144364173Y-116723390D01*
X144364173Y-116723390D02*
X144364173Y-116866247D01*
X144364173Y-116866247D02*
X144411792Y-117056723D01*
X144411792Y-117056723D02*
X144459411Y-117151961D01*
X144459411Y-117151961D02*
X144554649Y-117247200D01*
X144554649Y-117247200D02*
X144697506Y-117294819D01*
X144697506Y-117294819D02*
X144935601Y-117294819D01*
X115376077Y-90894819D02*
X114804649Y-90894819D01*
X115090363Y-91894819D02*
X115090363Y-90894819D01*
X114518934Y-91609104D02*
X114042744Y-91609104D01*
X114614172Y-91894819D02*
X114280839Y-90894819D01*
X114280839Y-90894819D02*
X113947506Y-91894819D01*
X113090363Y-90942438D02*
X113185601Y-90894819D01*
X113185601Y-90894819D02*
X113328458Y-90894819D01*
X113328458Y-90894819D02*
X113471315Y-90942438D01*
X113471315Y-90942438D02*
X113566553Y-91037676D01*
X113566553Y-91037676D02*
X113614172Y-91132914D01*
X113614172Y-91132914D02*
X113661791Y-91323390D01*
X113661791Y-91323390D02*
X113661791Y-91466247D01*
X113661791Y-91466247D02*
X113614172Y-91656723D01*
X113614172Y-91656723D02*
X113566553Y-91751961D01*
X113566553Y-91751961D02*
X113471315Y-91847200D01*
X113471315Y-91847200D02*
X113328458Y-91894819D01*
X113328458Y-91894819D02*
X113233220Y-91894819D01*
X113233220Y-91894819D02*
X113090363Y-91847200D01*
X113090363Y-91847200D02*
X113042744Y-91799580D01*
X113042744Y-91799580D02*
X113042744Y-91466247D01*
X113042744Y-91466247D02*
X113233220Y-91466247D01*
X112852268Y-91990057D02*
X112090363Y-91990057D01*
X111947505Y-90894819D02*
X111328458Y-90894819D01*
X111328458Y-90894819D02*
X111661791Y-91275771D01*
X111661791Y-91275771D02*
X111518934Y-91275771D01*
X111518934Y-91275771D02*
X111423696Y-91323390D01*
X111423696Y-91323390D02*
X111376077Y-91371009D01*
X111376077Y-91371009D02*
X111328458Y-91466247D01*
X111328458Y-91466247D02*
X111328458Y-91704342D01*
X111328458Y-91704342D02*
X111376077Y-91799580D01*
X111376077Y-91799580D02*
X111423696Y-91847200D01*
X111423696Y-91847200D02*
X111518934Y-91894819D01*
X111518934Y-91894819D02*
X111804648Y-91894819D01*
X111804648Y-91894819D02*
X111899886Y-91847200D01*
X111899886Y-91847200D02*
X111947505Y-91799580D01*
X111042743Y-90894819D02*
X110709410Y-91894819D01*
X110709410Y-91894819D02*
X110376077Y-90894819D01*
X110137981Y-90894819D02*
X109518934Y-90894819D01*
X109518934Y-90894819D02*
X109852267Y-91275771D01*
X109852267Y-91275771D02*
X109709410Y-91275771D01*
X109709410Y-91275771D02*
X109614172Y-91323390D01*
X109614172Y-91323390D02*
X109566553Y-91371009D01*
X109566553Y-91371009D02*
X109518934Y-91466247D01*
X109518934Y-91466247D02*
X109518934Y-91704342D01*
X109518934Y-91704342D02*
X109566553Y-91799580D01*
X109566553Y-91799580D02*
X109614172Y-91847200D01*
X109614172Y-91847200D02*
X109709410Y-91894819D01*
X109709410Y-91894819D02*
X109995124Y-91894819D01*
X109995124Y-91894819D02*
X110090362Y-91847200D01*
X110090362Y-91847200D02*
X110137981Y-91799580D01*
X146983220Y-104594819D02*
X146983220Y-103594819D01*
X146983220Y-103594819D02*
X146602268Y-103594819D01*
X146602268Y-103594819D02*
X146507030Y-103642438D01*
X146507030Y-103642438D02*
X146459411Y-103690057D01*
X146459411Y-103690057D02*
X146411792Y-103785295D01*
X146411792Y-103785295D02*
X146411792Y-103928152D01*
X146411792Y-103928152D02*
X146459411Y-104023390D01*
X146459411Y-104023390D02*
X146507030Y-104071009D01*
X146507030Y-104071009D02*
X146602268Y-104118628D01*
X146602268Y-104118628D02*
X146983220Y-104118628D01*
X145649887Y-104071009D02*
X145507030Y-104118628D01*
X145507030Y-104118628D02*
X145459411Y-104166247D01*
X145459411Y-104166247D02*
X145411792Y-104261485D01*
X145411792Y-104261485D02*
X145411792Y-104404342D01*
X145411792Y-104404342D02*
X145459411Y-104499580D01*
X145459411Y-104499580D02*
X145507030Y-104547200D01*
X145507030Y-104547200D02*
X145602268Y-104594819D01*
X145602268Y-104594819D02*
X145983220Y-104594819D01*
X145983220Y-104594819D02*
X145983220Y-103594819D01*
X145983220Y-103594819D02*
X145649887Y-103594819D01*
X145649887Y-103594819D02*
X145554649Y-103642438D01*
X145554649Y-103642438D02*
X145507030Y-103690057D01*
X145507030Y-103690057D02*
X145459411Y-103785295D01*
X145459411Y-103785295D02*
X145459411Y-103880533D01*
X145459411Y-103880533D02*
X145507030Y-103975771D01*
X145507030Y-103975771D02*
X145554649Y-104023390D01*
X145554649Y-104023390D02*
X145649887Y-104071009D01*
X145649887Y-104071009D02*
X145983220Y-104071009D01*
X144459411Y-104594819D02*
X145030839Y-104594819D01*
X144745125Y-104594819D02*
X144745125Y-103594819D01*
X144745125Y-103594819D02*
X144840363Y-103737676D01*
X144840363Y-103737676D02*
X144935601Y-103832914D01*
X144935601Y-103832914D02*
X145030839Y-103880533D01*
X144078458Y-103690057D02*
X144030839Y-103642438D01*
X144030839Y-103642438D02*
X143935601Y-103594819D01*
X143935601Y-103594819D02*
X143697506Y-103594819D01*
X143697506Y-103594819D02*
X143602268Y-103642438D01*
X143602268Y-103642438D02*
X143554649Y-103690057D01*
X143554649Y-103690057D02*
X143507030Y-103785295D01*
X143507030Y-103785295D02*
X143507030Y-103880533D01*
X143507030Y-103880533D02*
X143554649Y-104023390D01*
X143554649Y-104023390D02*
X144126077Y-104594819D01*
X144126077Y-104594819D02*
X143507030Y-104594819D01*
X147126077Y-75654819D02*
X146554649Y-75654819D01*
X146840363Y-76654819D02*
X146840363Y-75654819D01*
X146268934Y-76369104D02*
X145792744Y-76369104D01*
X146364172Y-76654819D02*
X146030839Y-75654819D01*
X146030839Y-75654819D02*
X145697506Y-76654819D01*
X144840363Y-75702438D02*
X144935601Y-75654819D01*
X144935601Y-75654819D02*
X145078458Y-75654819D01*
X145078458Y-75654819D02*
X145221315Y-75702438D01*
X145221315Y-75702438D02*
X145316553Y-75797676D01*
X145316553Y-75797676D02*
X145364172Y-75892914D01*
X145364172Y-75892914D02*
X145411791Y-76083390D01*
X145411791Y-76083390D02*
X145411791Y-76226247D01*
X145411791Y-76226247D02*
X145364172Y-76416723D01*
X145364172Y-76416723D02*
X145316553Y-76511961D01*
X145316553Y-76511961D02*
X145221315Y-76607200D01*
X145221315Y-76607200D02*
X145078458Y-76654819D01*
X145078458Y-76654819D02*
X144983220Y-76654819D01*
X144983220Y-76654819D02*
X144840363Y-76607200D01*
X144840363Y-76607200D02*
X144792744Y-76559580D01*
X144792744Y-76559580D02*
X144792744Y-76226247D01*
X144792744Y-76226247D02*
X144983220Y-76226247D01*
X144602268Y-76750057D02*
X143840363Y-76750057D01*
X143697505Y-75654819D02*
X143078458Y-75654819D01*
X143078458Y-75654819D02*
X143411791Y-76035771D01*
X143411791Y-76035771D02*
X143268934Y-76035771D01*
X143268934Y-76035771D02*
X143173696Y-76083390D01*
X143173696Y-76083390D02*
X143126077Y-76131009D01*
X143126077Y-76131009D02*
X143078458Y-76226247D01*
X143078458Y-76226247D02*
X143078458Y-76464342D01*
X143078458Y-76464342D02*
X143126077Y-76559580D01*
X143126077Y-76559580D02*
X143173696Y-76607200D01*
X143173696Y-76607200D02*
X143268934Y-76654819D01*
X143268934Y-76654819D02*
X143554648Y-76654819D01*
X143554648Y-76654819D02*
X143649886Y-76607200D01*
X143649886Y-76607200D02*
X143697505Y-76559580D01*
X142792743Y-75654819D02*
X142459410Y-76654819D01*
X142459410Y-76654819D02*
X142126077Y-75654819D01*
X141887981Y-75654819D02*
X141268934Y-75654819D01*
X141268934Y-75654819D02*
X141602267Y-76035771D01*
X141602267Y-76035771D02*
X141459410Y-76035771D01*
X141459410Y-76035771D02*
X141364172Y-76083390D01*
X141364172Y-76083390D02*
X141316553Y-76131009D01*
X141316553Y-76131009D02*
X141268934Y-76226247D01*
X141268934Y-76226247D02*
X141268934Y-76464342D01*
X141268934Y-76464342D02*
X141316553Y-76559580D01*
X141316553Y-76559580D02*
X141364172Y-76607200D01*
X141364172Y-76607200D02*
X141459410Y-76654819D01*
X141459410Y-76654819D02*
X141745124Y-76654819D01*
X141745124Y-76654819D02*
X141840362Y-76607200D01*
X141840362Y-76607200D02*
X141887981Y-76559580D01*
X146983220Y-109674819D02*
X146983220Y-108674819D01*
X146983220Y-108674819D02*
X146602268Y-108674819D01*
X146602268Y-108674819D02*
X146507030Y-108722438D01*
X146507030Y-108722438D02*
X146459411Y-108770057D01*
X146459411Y-108770057D02*
X146411792Y-108865295D01*
X146411792Y-108865295D02*
X146411792Y-109008152D01*
X146411792Y-109008152D02*
X146459411Y-109103390D01*
X146459411Y-109103390D02*
X146507030Y-109151009D01*
X146507030Y-109151009D02*
X146602268Y-109198628D01*
X146602268Y-109198628D02*
X146983220Y-109198628D01*
X145649887Y-109151009D02*
X145507030Y-109198628D01*
X145507030Y-109198628D02*
X145459411Y-109246247D01*
X145459411Y-109246247D02*
X145411792Y-109341485D01*
X145411792Y-109341485D02*
X145411792Y-109484342D01*
X145411792Y-109484342D02*
X145459411Y-109579580D01*
X145459411Y-109579580D02*
X145507030Y-109627200D01*
X145507030Y-109627200D02*
X145602268Y-109674819D01*
X145602268Y-109674819D02*
X145983220Y-109674819D01*
X145983220Y-109674819D02*
X145983220Y-108674819D01*
X145983220Y-108674819D02*
X145649887Y-108674819D01*
X145649887Y-108674819D02*
X145554649Y-108722438D01*
X145554649Y-108722438D02*
X145507030Y-108770057D01*
X145507030Y-108770057D02*
X145459411Y-108865295D01*
X145459411Y-108865295D02*
X145459411Y-108960533D01*
X145459411Y-108960533D02*
X145507030Y-109055771D01*
X145507030Y-109055771D02*
X145554649Y-109103390D01*
X145554649Y-109103390D02*
X145649887Y-109151009D01*
X145649887Y-109151009D02*
X145983220Y-109151009D01*
X144459411Y-109674819D02*
X145030839Y-109674819D01*
X144745125Y-109674819D02*
X144745125Y-108674819D01*
X144745125Y-108674819D02*
X144840363Y-108817676D01*
X144840363Y-108817676D02*
X144935601Y-108912914D01*
X144935601Y-108912914D02*
X145030839Y-108960533D01*
X143840363Y-108674819D02*
X143745125Y-108674819D01*
X143745125Y-108674819D02*
X143649887Y-108722438D01*
X143649887Y-108722438D02*
X143602268Y-108770057D01*
X143602268Y-108770057D02*
X143554649Y-108865295D01*
X143554649Y-108865295D02*
X143507030Y-109055771D01*
X143507030Y-109055771D02*
X143507030Y-109293866D01*
X143507030Y-109293866D02*
X143554649Y-109484342D01*
X143554649Y-109484342D02*
X143602268Y-109579580D01*
X143602268Y-109579580D02*
X143649887Y-109627200D01*
X143649887Y-109627200D02*
X143745125Y-109674819D01*
X143745125Y-109674819D02*
X143840363Y-109674819D01*
X143840363Y-109674819D02*
X143935601Y-109627200D01*
X143935601Y-109627200D02*
X143983220Y-109579580D01*
X143983220Y-109579580D02*
X144030839Y-109484342D01*
X144030839Y-109484342D02*
X144078458Y-109293866D01*
X144078458Y-109293866D02*
X144078458Y-109055771D01*
X144078458Y-109055771D02*
X144030839Y-108865295D01*
X144030839Y-108865295D02*
X143983220Y-108770057D01*
X143983220Y-108770057D02*
X143935601Y-108722438D01*
X143935601Y-108722438D02*
X143840363Y-108674819D01*
X146983220Y-112214819D02*
X146983220Y-111214819D01*
X146983220Y-111214819D02*
X146602268Y-111214819D01*
X146602268Y-111214819D02*
X146507030Y-111262438D01*
X146507030Y-111262438D02*
X146459411Y-111310057D01*
X146459411Y-111310057D02*
X146411792Y-111405295D01*
X146411792Y-111405295D02*
X146411792Y-111548152D01*
X146411792Y-111548152D02*
X146459411Y-111643390D01*
X146459411Y-111643390D02*
X146507030Y-111691009D01*
X146507030Y-111691009D02*
X146602268Y-111738628D01*
X146602268Y-111738628D02*
X146983220Y-111738628D01*
X145649887Y-111691009D02*
X145507030Y-111738628D01*
X145507030Y-111738628D02*
X145459411Y-111786247D01*
X145459411Y-111786247D02*
X145411792Y-111881485D01*
X145411792Y-111881485D02*
X145411792Y-112024342D01*
X145411792Y-112024342D02*
X145459411Y-112119580D01*
X145459411Y-112119580D02*
X145507030Y-112167200D01*
X145507030Y-112167200D02*
X145602268Y-112214819D01*
X145602268Y-112214819D02*
X145983220Y-112214819D01*
X145983220Y-112214819D02*
X145983220Y-111214819D01*
X145983220Y-111214819D02*
X145649887Y-111214819D01*
X145649887Y-111214819D02*
X145554649Y-111262438D01*
X145554649Y-111262438D02*
X145507030Y-111310057D01*
X145507030Y-111310057D02*
X145459411Y-111405295D01*
X145459411Y-111405295D02*
X145459411Y-111500533D01*
X145459411Y-111500533D02*
X145507030Y-111595771D01*
X145507030Y-111595771D02*
X145554649Y-111643390D01*
X145554649Y-111643390D02*
X145649887Y-111691009D01*
X145649887Y-111691009D02*
X145983220Y-111691009D01*
X145030839Y-111310057D02*
X144983220Y-111262438D01*
X144983220Y-111262438D02*
X144887982Y-111214819D01*
X144887982Y-111214819D02*
X144649887Y-111214819D01*
X144649887Y-111214819D02*
X144554649Y-111262438D01*
X144554649Y-111262438D02*
X144507030Y-111310057D01*
X144507030Y-111310057D02*
X144459411Y-111405295D01*
X144459411Y-111405295D02*
X144459411Y-111500533D01*
X144459411Y-111500533D02*
X144507030Y-111643390D01*
X144507030Y-111643390D02*
X145078458Y-112214819D01*
X145078458Y-112214819D02*
X144459411Y-112214819D01*
X146983220Y-102054819D02*
X146983220Y-101054819D01*
X146983220Y-101054819D02*
X146602268Y-101054819D01*
X146602268Y-101054819D02*
X146507030Y-101102438D01*
X146507030Y-101102438D02*
X146459411Y-101150057D01*
X146459411Y-101150057D02*
X146411792Y-101245295D01*
X146411792Y-101245295D02*
X146411792Y-101388152D01*
X146411792Y-101388152D02*
X146459411Y-101483390D01*
X146459411Y-101483390D02*
X146507030Y-101531009D01*
X146507030Y-101531009D02*
X146602268Y-101578628D01*
X146602268Y-101578628D02*
X146983220Y-101578628D01*
X145649887Y-101531009D02*
X145507030Y-101578628D01*
X145507030Y-101578628D02*
X145459411Y-101626247D01*
X145459411Y-101626247D02*
X145411792Y-101721485D01*
X145411792Y-101721485D02*
X145411792Y-101864342D01*
X145411792Y-101864342D02*
X145459411Y-101959580D01*
X145459411Y-101959580D02*
X145507030Y-102007200D01*
X145507030Y-102007200D02*
X145602268Y-102054819D01*
X145602268Y-102054819D02*
X145983220Y-102054819D01*
X145983220Y-102054819D02*
X145983220Y-101054819D01*
X145983220Y-101054819D02*
X145649887Y-101054819D01*
X145649887Y-101054819D02*
X145554649Y-101102438D01*
X145554649Y-101102438D02*
X145507030Y-101150057D01*
X145507030Y-101150057D02*
X145459411Y-101245295D01*
X145459411Y-101245295D02*
X145459411Y-101340533D01*
X145459411Y-101340533D02*
X145507030Y-101435771D01*
X145507030Y-101435771D02*
X145554649Y-101483390D01*
X145554649Y-101483390D02*
X145649887Y-101531009D01*
X145649887Y-101531009D02*
X145983220Y-101531009D01*
X144459411Y-102054819D02*
X145030839Y-102054819D01*
X144745125Y-102054819D02*
X144745125Y-101054819D01*
X144745125Y-101054819D02*
X144840363Y-101197676D01*
X144840363Y-101197676D02*
X144935601Y-101292914D01*
X144935601Y-101292914D02*
X145030839Y-101340533D01*
X144126077Y-101054819D02*
X143507030Y-101054819D01*
X143507030Y-101054819D02*
X143840363Y-101435771D01*
X143840363Y-101435771D02*
X143697506Y-101435771D01*
X143697506Y-101435771D02*
X143602268Y-101483390D01*
X143602268Y-101483390D02*
X143554649Y-101531009D01*
X143554649Y-101531009D02*
X143507030Y-101626247D01*
X143507030Y-101626247D02*
X143507030Y-101864342D01*
X143507030Y-101864342D02*
X143554649Y-101959580D01*
X143554649Y-101959580D02*
X143602268Y-102007200D01*
X143602268Y-102007200D02*
X143697506Y-102054819D01*
X143697506Y-102054819D02*
X143983220Y-102054819D01*
X143983220Y-102054819D02*
X144078458Y-102007200D01*
X144078458Y-102007200D02*
X144126077Y-101959580D01*
X146983220Y-99514819D02*
X146983220Y-98514819D01*
X146983220Y-98514819D02*
X146602268Y-98514819D01*
X146602268Y-98514819D02*
X146507030Y-98562438D01*
X146507030Y-98562438D02*
X146459411Y-98610057D01*
X146459411Y-98610057D02*
X146411792Y-98705295D01*
X146411792Y-98705295D02*
X146411792Y-98848152D01*
X146411792Y-98848152D02*
X146459411Y-98943390D01*
X146459411Y-98943390D02*
X146507030Y-98991009D01*
X146507030Y-98991009D02*
X146602268Y-99038628D01*
X146602268Y-99038628D02*
X146983220Y-99038628D01*
X145649887Y-98991009D02*
X145507030Y-99038628D01*
X145507030Y-99038628D02*
X145459411Y-99086247D01*
X145459411Y-99086247D02*
X145411792Y-99181485D01*
X145411792Y-99181485D02*
X145411792Y-99324342D01*
X145411792Y-99324342D02*
X145459411Y-99419580D01*
X145459411Y-99419580D02*
X145507030Y-99467200D01*
X145507030Y-99467200D02*
X145602268Y-99514819D01*
X145602268Y-99514819D02*
X145983220Y-99514819D01*
X145983220Y-99514819D02*
X145983220Y-98514819D01*
X145983220Y-98514819D02*
X145649887Y-98514819D01*
X145649887Y-98514819D02*
X145554649Y-98562438D01*
X145554649Y-98562438D02*
X145507030Y-98610057D01*
X145507030Y-98610057D02*
X145459411Y-98705295D01*
X145459411Y-98705295D02*
X145459411Y-98800533D01*
X145459411Y-98800533D02*
X145507030Y-98895771D01*
X145507030Y-98895771D02*
X145554649Y-98943390D01*
X145554649Y-98943390D02*
X145649887Y-98991009D01*
X145649887Y-98991009D02*
X145983220Y-98991009D01*
X144459411Y-99514819D02*
X145030839Y-99514819D01*
X144745125Y-99514819D02*
X144745125Y-98514819D01*
X144745125Y-98514819D02*
X144840363Y-98657676D01*
X144840363Y-98657676D02*
X144935601Y-98752914D01*
X144935601Y-98752914D02*
X145030839Y-98800533D01*
X143602268Y-98848152D02*
X143602268Y-99514819D01*
X143840363Y-98467200D02*
X144078458Y-99181485D01*
X144078458Y-99181485D02*
X143459411Y-99181485D01*
X146983220Y-84274819D02*
X146983220Y-83274819D01*
X146983220Y-83274819D02*
X146602268Y-83274819D01*
X146602268Y-83274819D02*
X146507030Y-83322438D01*
X146507030Y-83322438D02*
X146459411Y-83370057D01*
X146459411Y-83370057D02*
X146411792Y-83465295D01*
X146411792Y-83465295D02*
X146411792Y-83608152D01*
X146411792Y-83608152D02*
X146459411Y-83703390D01*
X146459411Y-83703390D02*
X146507030Y-83751009D01*
X146507030Y-83751009D02*
X146602268Y-83798628D01*
X146602268Y-83798628D02*
X146983220Y-83798628D01*
X146030839Y-83989104D02*
X145554649Y-83989104D01*
X146126077Y-84274819D02*
X145792744Y-83274819D01*
X145792744Y-83274819D02*
X145459411Y-84274819D01*
X144602268Y-84274819D02*
X145173696Y-84274819D01*
X144887982Y-84274819D02*
X144887982Y-83274819D01*
X144887982Y-83274819D02*
X144983220Y-83417676D01*
X144983220Y-83417676D02*
X145078458Y-83512914D01*
X145078458Y-83512914D02*
X145173696Y-83560533D01*
X144221315Y-83370057D02*
X144173696Y-83322438D01*
X144173696Y-83322438D02*
X144078458Y-83274819D01*
X144078458Y-83274819D02*
X143840363Y-83274819D01*
X143840363Y-83274819D02*
X143745125Y-83322438D01*
X143745125Y-83322438D02*
X143697506Y-83370057D01*
X143697506Y-83370057D02*
X143649887Y-83465295D01*
X143649887Y-83465295D02*
X143649887Y-83560533D01*
X143649887Y-83560533D02*
X143697506Y-83703390D01*
X143697506Y-83703390D02*
X144268934Y-84274819D01*
X144268934Y-84274819D02*
X143649887Y-84274819D01*
X114080590Y-81734819D02*
X114080590Y-81068152D01*
X114080590Y-81258628D02*
X114032971Y-81163390D01*
X114032971Y-81163390D02*
X113985352Y-81115771D01*
X113985352Y-81115771D02*
X113890114Y-81068152D01*
X113890114Y-81068152D02*
X113794876Y-81068152D01*
X113604399Y-81068152D02*
X113223447Y-81068152D01*
X113461542Y-80734819D02*
X113461542Y-81591961D01*
X113461542Y-81591961D02*
X113413923Y-81687200D01*
X113413923Y-81687200D02*
X113318685Y-81734819D01*
X113318685Y-81734819D02*
X113223447Y-81734819D01*
X112461542Y-81687200D02*
X112556780Y-81734819D01*
X112556780Y-81734819D02*
X112747256Y-81734819D01*
X112747256Y-81734819D02*
X112842494Y-81687200D01*
X112842494Y-81687200D02*
X112890113Y-81639580D01*
X112890113Y-81639580D02*
X112937732Y-81544342D01*
X112937732Y-81544342D02*
X112937732Y-81258628D01*
X112937732Y-81258628D02*
X112890113Y-81163390D01*
X112890113Y-81163390D02*
X112842494Y-81115771D01*
X112842494Y-81115771D02*
X112747256Y-81068152D01*
X112747256Y-81068152D02*
X112556780Y-81068152D01*
X112556780Y-81068152D02*
X112461542Y-81115771D01*
X112271066Y-81830057D02*
X111509161Y-81830057D01*
X111318684Y-81687200D02*
X111223446Y-81734819D01*
X111223446Y-81734819D02*
X111032970Y-81734819D01*
X111032970Y-81734819D02*
X110937732Y-81687200D01*
X110937732Y-81687200D02*
X110890113Y-81591961D01*
X110890113Y-81591961D02*
X110890113Y-81544342D01*
X110890113Y-81544342D02*
X110937732Y-81449104D01*
X110937732Y-81449104D02*
X111032970Y-81401485D01*
X111032970Y-81401485D02*
X111175827Y-81401485D01*
X111175827Y-81401485D02*
X111271065Y-81353866D01*
X111271065Y-81353866D02*
X111318684Y-81258628D01*
X111318684Y-81258628D02*
X111318684Y-81211009D01*
X111318684Y-81211009D02*
X111271065Y-81115771D01*
X111271065Y-81115771D02*
X111175827Y-81068152D01*
X111175827Y-81068152D02*
X111032970Y-81068152D01*
X111032970Y-81068152D02*
X110937732Y-81115771D01*
X110032970Y-81687200D02*
X110128208Y-81734819D01*
X110128208Y-81734819D02*
X110318684Y-81734819D01*
X110318684Y-81734819D02*
X110413922Y-81687200D01*
X110413922Y-81687200D02*
X110461541Y-81639580D01*
X110461541Y-81639580D02*
X110509160Y-81544342D01*
X110509160Y-81544342D02*
X110509160Y-81258628D01*
X110509160Y-81258628D02*
X110461541Y-81163390D01*
X110461541Y-81163390D02*
X110413922Y-81115771D01*
X110413922Y-81115771D02*
X110318684Y-81068152D01*
X110318684Y-81068152D02*
X110128208Y-81068152D01*
X110128208Y-81068152D02*
X110032970Y-81115771D01*
X109461541Y-81734819D02*
X109556779Y-81687200D01*
X109556779Y-81687200D02*
X109604398Y-81591961D01*
X109604398Y-81591961D02*
X109604398Y-80734819D01*
X114509161Y-84274819D02*
X114509161Y-83608152D01*
X114509161Y-83798628D02*
X114461542Y-83703390D01*
X114461542Y-83703390D02*
X114413923Y-83655771D01*
X114413923Y-83655771D02*
X114318685Y-83608152D01*
X114318685Y-83608152D02*
X114223447Y-83608152D01*
X114032970Y-83608152D02*
X113652018Y-83608152D01*
X113890113Y-83274819D02*
X113890113Y-84131961D01*
X113890113Y-84131961D02*
X113842494Y-84227200D01*
X113842494Y-84227200D02*
X113747256Y-84274819D01*
X113747256Y-84274819D02*
X113652018Y-84274819D01*
X112890113Y-84227200D02*
X112985351Y-84274819D01*
X112985351Y-84274819D02*
X113175827Y-84274819D01*
X113175827Y-84274819D02*
X113271065Y-84227200D01*
X113271065Y-84227200D02*
X113318684Y-84179580D01*
X113318684Y-84179580D02*
X113366303Y-84084342D01*
X113366303Y-84084342D02*
X113366303Y-83798628D01*
X113366303Y-83798628D02*
X113318684Y-83703390D01*
X113318684Y-83703390D02*
X113271065Y-83655771D01*
X113271065Y-83655771D02*
X113175827Y-83608152D01*
X113175827Y-83608152D02*
X112985351Y-83608152D01*
X112985351Y-83608152D02*
X112890113Y-83655771D01*
X112699637Y-84370057D02*
X111937732Y-84370057D01*
X111747255Y-84227200D02*
X111652017Y-84274819D01*
X111652017Y-84274819D02*
X111461541Y-84274819D01*
X111461541Y-84274819D02*
X111366303Y-84227200D01*
X111366303Y-84227200D02*
X111318684Y-84131961D01*
X111318684Y-84131961D02*
X111318684Y-84084342D01*
X111318684Y-84084342D02*
X111366303Y-83989104D01*
X111366303Y-83989104D02*
X111461541Y-83941485D01*
X111461541Y-83941485D02*
X111604398Y-83941485D01*
X111604398Y-83941485D02*
X111699636Y-83893866D01*
X111699636Y-83893866D02*
X111747255Y-83798628D01*
X111747255Y-83798628D02*
X111747255Y-83751009D01*
X111747255Y-83751009D02*
X111699636Y-83655771D01*
X111699636Y-83655771D02*
X111604398Y-83608152D01*
X111604398Y-83608152D02*
X111461541Y-83608152D01*
X111461541Y-83608152D02*
X111366303Y-83655771D01*
X110461541Y-84274819D02*
X110461541Y-83274819D01*
X110461541Y-84227200D02*
X110556779Y-84274819D01*
X110556779Y-84274819D02*
X110747255Y-84274819D01*
X110747255Y-84274819D02*
X110842493Y-84227200D01*
X110842493Y-84227200D02*
X110890112Y-84179580D01*
X110890112Y-84179580D02*
X110937731Y-84084342D01*
X110937731Y-84084342D02*
X110937731Y-83798628D01*
X110937731Y-83798628D02*
X110890112Y-83703390D01*
X110890112Y-83703390D02*
X110842493Y-83655771D01*
X110842493Y-83655771D02*
X110747255Y-83608152D01*
X110747255Y-83608152D02*
X110556779Y-83608152D01*
X110556779Y-83608152D02*
X110461541Y-83655771D01*
X109556779Y-84274819D02*
X109556779Y-83751009D01*
X109556779Y-83751009D02*
X109604398Y-83655771D01*
X109604398Y-83655771D02*
X109699636Y-83608152D01*
X109699636Y-83608152D02*
X109890112Y-83608152D01*
X109890112Y-83608152D02*
X109985350Y-83655771D01*
X109556779Y-84227200D02*
X109652017Y-84274819D01*
X109652017Y-84274819D02*
X109890112Y-84274819D01*
X109890112Y-84274819D02*
X109985350Y-84227200D01*
X109985350Y-84227200D02*
X110032969Y-84131961D01*
X110032969Y-84131961D02*
X110032969Y-84036723D01*
X110032969Y-84036723D02*
X109985350Y-83941485D01*
X109985350Y-83941485D02*
X109890112Y-83893866D01*
X109890112Y-83893866D02*
X109652017Y-83893866D01*
X109652017Y-83893866D02*
X109556779Y-83846247D01*
D12*
%TO.C,J3*%
X108010000Y-118170000D02*
X105350000Y-118170000D01*
X105350000Y-77470000D02*
X105350000Y-118170000D01*
X108010000Y-76200000D02*
X108010000Y-74870000D01*
X108010000Y-74870000D02*
X106680000Y-74870000D01*
X108010000Y-77470000D02*
X105350000Y-77470000D01*
X108010000Y-77470000D02*
X108010000Y-118170000D01*
%TO.C,J4*%
X151190000Y-74870000D02*
X149860000Y-74870000D01*
X151190000Y-77470000D02*
X151190000Y-118170000D01*
X151190000Y-77470000D02*
X148530000Y-77470000D01*
X148530000Y-77470000D02*
X148530000Y-118170000D01*
X151190000Y-76200000D02*
X151190000Y-74870000D01*
X151190000Y-118170000D02*
X148530000Y-118170000D01*
%TD*%
%LPC*%
D13*
%TO.C,J101*%
X119380000Y-81280000D03*
D14*
X119380000Y-78740000D03*
X119380000Y-76200000D03*
%TD*%
D15*
%TO.C,U1*%
X124460000Y-76200000D03*
D16*
X124460000Y-78740000D03*
X124460000Y-81280000D03*
X124460000Y-83820000D03*
X124460000Y-86360000D03*
X124460000Y-88900000D03*
X124460000Y-91440000D03*
X124460000Y-93980000D03*
X124460000Y-96520000D03*
X124460000Y-99060000D03*
X124460000Y-101600000D03*
X124460000Y-104140000D03*
X139700000Y-104140000D03*
X139700000Y-101600000D03*
X139700000Y-99060000D03*
X139700000Y-96520000D03*
X139700000Y-93980000D03*
X139700000Y-91440000D03*
X139700000Y-88900000D03*
X139700000Y-86360000D03*
X139700000Y-83820000D03*
X139700000Y-81280000D03*
X139700000Y-78740000D03*
X139700000Y-76200000D03*
%TD*%
D13*
%TO.C,J3*%
X106553000Y-76200000D03*
D17*
X106807000Y-78740000D03*
X106553000Y-81280000D03*
X106807000Y-83820000D03*
X106553000Y-86360000D03*
X106807000Y-88900000D03*
X106553000Y-91440000D03*
X106807000Y-93980000D03*
X106553000Y-96520000D03*
X106807000Y-99060000D03*
X106553000Y-101600000D03*
X106807000Y-104140000D03*
X106553000Y-106680000D03*
X106807000Y-109220000D03*
X106553000Y-111760000D03*
X106807000Y-114300000D03*
X106553000Y-116840000D03*
%TD*%
D13*
%TO.C,J4*%
X149733000Y-76200000D03*
D17*
X149987000Y-78740000D03*
X149733000Y-81280000D03*
X149987000Y-83820000D03*
X149733000Y-86360000D03*
X149987000Y-88900000D03*
X149733000Y-91440000D03*
X149987000Y-93980000D03*
X149733000Y-96520000D03*
X149987000Y-99060000D03*
X149733000Y-101600000D03*
X149987000Y-104140000D03*
X149733000Y-106680000D03*
X149987000Y-109220000D03*
X149733000Y-111760000D03*
X149987000Y-114300000D03*
X149733000Y-116840000D03*
%TD*%
%LPD*%
M02*
