%TF.GenerationSoftware,KiCad,Pcbnew,9.0.7*%
%TF.CreationDate,2026-04-07T15:58:20-04:00*%
%TF.ProjectId,steval-nandflashv1,73746576-616c-42d6-9e61-6e64666c6173,rev?*%
%TF.SameCoordinates,Original*%
%TF.FileFunction,Copper,L2,Bot*%
%TF.FilePolarity,Positive*%
%FSLAX46Y46*%
G04 Gerber Fmt 4.6, Leading zero omitted, Abs format (unit mm)*
G04 Created by KiCad (PCBNEW 9.0.7) date 2026-04-07 15:58:20*
%MOMM*%
%LPD*%
G01*
G04 APERTURE LIST*
G04 Aperture macros list*
%AMRoundRect*
0 Rectangle with rounded corners*
0 $1 Rounding radius*
0 $2 $3 $4 $5 $6 $7 $8 $9 X,Y pos of 4 corners*
0 Add a 4 corners polygon primitive as box body*
4,1,4,$2,$3,$4,$5,$6,$7,$8,$9,$2,$3,0*
0 Add four circle primitives for the rounded corners*
1,1,$1+$1,$2,$3*
1,1,$1+$1,$4,$5*
1,1,$1+$1,$6,$7*
1,1,$1+$1,$8,$9*
0 Add four rect primitives between the rounded corners*
20,1,$1+$1,$2,$3,$4,$5,0*
20,1,$1+$1,$4,$5,$6,$7,0*
20,1,$1+$1,$6,$7,$8,$9,0*
20,1,$1+$1,$8,$9,$2,$3,0*%
G04 Aperture macros list end*
%TA.AperFunction,ComponentPad*%
%ADD10R,1.700000X1.700000*%
%TD*%
%TA.AperFunction,ComponentPad*%
%ADD11C,1.700000*%
%TD*%
%TA.AperFunction,ComponentPad*%
%ADD12RoundRect,0.250000X-0.550000X-0.550000X0.550000X-0.550000X0.550000X0.550000X-0.550000X0.550000X0*%
%TD*%
%TA.AperFunction,ComponentPad*%
%ADD13C,1.600000*%
%TD*%
%TA.AperFunction,ComponentPad*%
%ADD14O,1.700000X1.700000*%
%TD*%
%TA.AperFunction,ViaPad*%
%ADD15C,0.660400*%
%TD*%
%TA.AperFunction,Conductor*%
%ADD16C,0.152400*%
%TD*%
G04 APERTURE END LIST*
D10*
%TO.P,J101,1,Pin_1*%
%TO.N,/TAG_3V3*%
X119380000Y-81280000D03*
D11*
%TO.P,J101,2,Pin_2*%
%TO.N,Net-(J101-Pin_2)*%
X119380000Y-78740000D03*
%TO.P,J101,3,Pin_3*%
%TO.N,/PB8*%
X119380000Y-76200000D03*
%TD*%
D12*
%TO.P,U1,1,VDD*%
%TO.N,Net-(J101-Pin_2)*%
X124460000Y-76200000D03*
D13*
%TO.P,U1,2,VDDIO*%
X124460000Y-78740000D03*
%TO.P,U1,3,P3*%
%TO.N,/PA15*%
X124460000Y-81280000D03*
%TO.P,U1,4,P4*%
%TO.N,/PB9*%
X124460000Y-83820000D03*
%TO.P,U1,5,P5*%
%TO.N,/PB13*%
X124460000Y-86360000D03*
%TO.P,U1,6,P6*%
%TO.N,/PB12*%
X124460000Y-88900000D03*
%TO.P,U1,7,ADC_IN*%
%TO.N,/PB11*%
X124460000Y-91440000D03*
%TO.P,U1,8*%
%TO.N,/PA0*%
X124460000Y-93980000D03*
%TO.P,U1,9*%
%TO.N,/PA1*%
X124460000Y-96520000D03*
%TO.P,U1,10*%
%TO.N,/PA2*%
X124460000Y-99060000D03*
%TO.P,U1,11*%
%TO.N,/PA3*%
X124460000Y-101600000D03*
%TO.P,U1,12*%
%TO.N,/PB0*%
X124460000Y-104140000D03*
%TO.P,U1,13,GND*%
%TO.N,GND*%
X139700000Y-104140000D03*
%TO.P,U1,14,INT1*%
%TO.N,/PB1*%
X139700000Y-101600000D03*
%TO.P,U1,15,INT2*%
%TO.N,/PB2*%
X139700000Y-99060000D03*
%TO.P,U1,16,INT3*%
%TO.N,/PB10*%
X139700000Y-96520000D03*
%TO.P,U1,17*%
%TO.N,/PB14*%
X139700000Y-93980000D03*
%TO.P,U1,18*%
%TO.N,/PB15*%
X139700000Y-91440000D03*
%TO.P,U1,19,CS*%
%TO.N,/PA8*%
X139700000Y-88900000D03*
%TO.P,U1,20,SCL*%
%TO.N,/PA9*%
X139700000Y-86360000D03*
%TO.P,U1,21,SDA*%
%TO.N,/PA10*%
X139700000Y-83820000D03*
%TO.P,U1,22,SDO*%
%TO.N,/PA11*%
X139700000Y-81280000D03*
%TO.P,U1,23*%
%TO.N,/PB5*%
X139700000Y-78740000D03*
%TO.P,U1,24*%
%TO.N,/PB4*%
X139700000Y-76200000D03*
%TD*%
D10*
%TO.P,J3,1,Pin_1*%
%TO.N,/PB4*%
X106553000Y-76200000D03*
D14*
%TO.P,J3,2,Pin_2*%
%TO.N,/PB5*%
X106807000Y-78740000D03*
%TO.P,J3,3,Pin_3*%
%TO.N,/rtc_scl*%
X106553000Y-81280000D03*
%TO.P,J3,4,Pin_4*%
%TO.N,/rtc_sda*%
X106807000Y-83820000D03*
%TO.P,J3,5,Pin_5*%
%TO.N,/PB8*%
X106553000Y-86360000D03*
%TO.P,J3,6,Pin_6*%
%TO.N,/PB9*%
X106807000Y-88900000D03*
%TO.P,J3,7,Pin_7*%
%TO.N,/TAG_3V3*%
X106553000Y-91440000D03*
%TO.P,J3,8,Pin_8*%
%TO.N,/PA0*%
X106807000Y-93980000D03*
%TO.P,J3,9,Pin_9*%
%TO.N,/PA1*%
X106553000Y-96520000D03*
%TO.P,J3,10,Pin_10*%
%TO.N,/PA2*%
X106807000Y-99060000D03*
%TO.P,J3,11,Pin_11*%
%TO.N,/PA3*%
X106553000Y-101600000D03*
%TO.P,J3,12,Pin_12*%
%TO.N,/PA4*%
X106807000Y-104140000D03*
%TO.P,J3,13,Pin_13*%
%TO.N,/PA5*%
X106553000Y-106680000D03*
%TO.P,J3,14,Pin_14*%
%TO.N,/PA6*%
X106807000Y-109220000D03*
%TO.P,J3,15,Pin_15*%
%TO.N,/PA7*%
X106553000Y-111760000D03*
%TO.P,J3,16,Pin_16*%
%TO.N,/PB0*%
X106807000Y-114300000D03*
%TO.P,J3,17,Pin_17*%
%TO.N,GND*%
X106553000Y-116840000D03*
%TD*%
D10*
%TO.P,J4,1,Pin_1*%
%TO.N,/TAG_3V3*%
X149733000Y-76200000D03*
D14*
%TO.P,J4,2,Pin_2*%
%TO.N,/PA9*%
X149987000Y-78740000D03*
%TO.P,J4,3,Pin_3*%
%TO.N,/PA15*%
X149733000Y-81280000D03*
%TO.P,J4,4,Pin_4*%
%TO.N,/PA10*%
X149987000Y-83820000D03*
%TO.P,J4,5,Pin_5*%
%TO.N,/PA11*%
X149733000Y-86360000D03*
%TO.P,J4,6,Pin_6*%
%TO.N,/PA10*%
X149987000Y-88900000D03*
%TO.P,J4,7,Pin_7*%
%TO.N,/PA9*%
X149733000Y-91440000D03*
%TO.P,J4,8,Pin_8*%
%TO.N,/PA8*%
X149987000Y-93980000D03*
%TO.P,J4,9,Pin_9*%
%TO.N,/PB15*%
X149733000Y-96520000D03*
%TO.P,J4,10,Pin_10*%
%TO.N,/PB14*%
X149987000Y-99060000D03*
%TO.P,J4,11,Pin_11*%
%TO.N,/PB13*%
X149733000Y-101600000D03*
%TO.P,J4,12,Pin_12*%
%TO.N,/PB12*%
X149987000Y-104140000D03*
%TO.P,J4,13,Pin_13*%
%TO.N,/PB11*%
X149733000Y-106680000D03*
%TO.P,J4,14,Pin_14*%
%TO.N,/PB10*%
X149987000Y-109220000D03*
%TO.P,J4,15,Pin_15*%
%TO.N,/PB2*%
X149733000Y-111760000D03*
%TO.P,J4,16,Pin_16*%
%TO.N,/PB1*%
X149987000Y-114300000D03*
%TO.P,J4,17,Pin_17*%
%TO.N,GND*%
X149733000Y-116840000D03*
%TD*%
D15*
%TO.N,GND*%
X134721600Y-116154200D03*
%TO.N,/PA5*%
X115773200Y-107823000D03*
X120827800Y-107746800D03*
%TO.N,/PA7*%
X118872000Y-116636800D03*
X128981200Y-113309400D03*
%TO.N,GND*%
X140655000Y-115889400D03*
X140555000Y-113389400D03*
%TO.N,/PA11*%
X147500000Y-82700000D03*
%TO.N,/PB0*%
X121900000Y-106800000D03*
%TO.N,/PB9*%
X114400000Y-88700000D03*
%TO.N,/PB13*%
X136700000Y-94000000D03*
%TO.N,/PA15*%
X137700000Y-81100000D03*
%TD*%
D16*
%TO.N,/PA5*%
X120827800Y-107746800D02*
X115849400Y-107746800D01*
X115849400Y-107746800D02*
X115773200Y-107823000D01*
%TO.N,/PA7*%
X118872000Y-116636800D02*
X119049800Y-116459000D01*
X119049800Y-116459000D02*
X125831600Y-116459000D01*
X125831600Y-116459000D02*
X128981200Y-113309400D01*
%TO.N,/PA10*%
X149860000Y-83820000D02*
X139700000Y-83820000D01*
%TO.N,/PA11*%
X141120000Y-82700000D02*
X139700000Y-81280000D01*
X147500000Y-82700000D02*
X141120000Y-82700000D01*
%TO.N,/PB0*%
X114307000Y-106800000D02*
X106807000Y-114300000D01*
X121900000Y-106800000D02*
X114307000Y-106800000D01*
%TO.N,/PB9*%
X114400000Y-88700000D02*
X107007000Y-88700000D01*
X107007000Y-88700000D02*
X106807000Y-88900000D01*
%TO.N,/PB13*%
X149733000Y-101600000D02*
X143624399Y-95491399D01*
X143624399Y-95491399D02*
X138191399Y-95491399D01*
X138191399Y-95491399D02*
X136700000Y-94000000D01*
%TO.N,/PA15*%
X137700000Y-81100000D02*
X138548601Y-80251399D01*
X148704399Y-80251399D02*
X149733000Y-81280000D01*
X138548601Y-80251399D02*
X148704399Y-80251399D01*
%TD*%
%TA.AperFunction,Conductor*%
%TO.N,GND*%
G36*
X151134930Y-72465888D02*
G01*
X151306975Y-72479428D01*
X151326503Y-72482521D01*
X151407991Y-72502084D01*
X151489480Y-72521648D01*
X151508283Y-72527758D01*
X151663128Y-72591897D01*
X151680745Y-72600873D01*
X151823658Y-72688450D01*
X151839653Y-72700072D01*
X151967098Y-72808920D01*
X151981079Y-72822901D01*
X152089927Y-72950346D01*
X152101549Y-72966341D01*
X152189126Y-73109254D01*
X152198102Y-73126871D01*
X152262241Y-73281716D01*
X152268351Y-73300520D01*
X152307478Y-73463496D01*
X152310571Y-73483024D01*
X152324112Y-73655069D01*
X152324500Y-73664955D01*
X152324500Y-119375044D01*
X152324112Y-119384930D01*
X152310571Y-119556975D01*
X152307478Y-119576503D01*
X152268351Y-119739479D01*
X152262241Y-119758283D01*
X152198102Y-119913128D01*
X152189126Y-119930745D01*
X152101549Y-120073658D01*
X152089927Y-120089653D01*
X151981079Y-120217098D01*
X151967098Y-120231079D01*
X151839653Y-120339927D01*
X151823658Y-120351549D01*
X151680745Y-120439126D01*
X151663128Y-120448102D01*
X151508283Y-120512241D01*
X151489479Y-120518351D01*
X151326503Y-120557478D01*
X151306975Y-120560571D01*
X151134930Y-120574112D01*
X151125044Y-120574500D01*
X105414956Y-120574500D01*
X105405070Y-120574112D01*
X105233024Y-120560571D01*
X105213496Y-120557478D01*
X105050520Y-120518351D01*
X105031716Y-120512241D01*
X104876871Y-120448102D01*
X104859254Y-120439126D01*
X104716341Y-120351549D01*
X104700346Y-120339927D01*
X104572901Y-120231079D01*
X104558920Y-120217098D01*
X104450072Y-120089653D01*
X104438450Y-120073658D01*
X104350873Y-119930745D01*
X104341897Y-119913128D01*
X104277758Y-119758283D01*
X104271648Y-119739479D01*
X104232521Y-119576503D01*
X104229428Y-119556975D01*
X104215888Y-119384930D01*
X104215500Y-119375044D01*
X104215500Y-75301350D01*
X105194500Y-75301350D01*
X105194500Y-77098649D01*
X105201009Y-77159196D01*
X105201011Y-77159204D01*
X105252110Y-77296202D01*
X105252112Y-77296207D01*
X105339738Y-77413261D01*
X105456792Y-77500887D01*
X105456794Y-77500888D01*
X105456796Y-77500889D01*
X105477202Y-77508500D01*
X105593795Y-77551988D01*
X105593803Y-77551990D01*
X105654350Y-77558499D01*
X105654355Y-77558499D01*
X105654362Y-77558500D01*
X105763099Y-77558500D01*
X105831220Y-77578502D01*
X105877713Y-77632158D01*
X105887817Y-77702432D01*
X105858323Y-77767012D01*
X105852194Y-77773595D01*
X105770798Y-77854990D01*
X105770796Y-77854993D01*
X105645108Y-78027987D01*
X105548029Y-78218515D01*
X105548026Y-78218521D01*
X105481952Y-78421878D01*
X105481951Y-78421883D01*
X105481951Y-78421884D01*
X105448500Y-78633084D01*
X105448500Y-78846916D01*
X105480097Y-79046408D01*
X105481952Y-79058121D01*
X105541790Y-79242285D01*
X105548028Y-79261483D01*
X105631755Y-79425806D01*
X105645108Y-79452012D01*
X105655735Y-79466639D01*
X105770794Y-79625004D01*
X105770796Y-79625006D01*
X105770798Y-79625009D01*
X105921990Y-79776201D01*
X105921993Y-79776203D01*
X105921996Y-79776206D01*
X105990620Y-79826064D01*
X105998863Y-79832053D01*
X106042217Y-79888275D01*
X106048292Y-79959011D01*
X106015161Y-80021803D01*
X105982006Y-80046254D01*
X105855355Y-80110786D01*
X105840987Y-80118108D01*
X105667993Y-80243796D01*
X105667990Y-80243798D01*
X105516798Y-80394990D01*
X105516796Y-80394993D01*
X105391108Y-80567987D01*
X105294029Y-80758515D01*
X105294026Y-80758521D01*
X105227952Y-80961878D01*
X105227951Y-80961883D01*
X105227951Y-80961884D01*
X105194500Y-81173084D01*
X105194500Y-81386916D01*
X105218426Y-81537976D01*
X105227952Y-81598121D01*
X105277774Y-81751459D01*
X105294028Y-81801483D01*
X105391106Y-81992009D01*
X105516794Y-82165004D01*
X105516796Y-82165006D01*
X105516798Y-82165009D01*
X105667990Y-82316201D01*
X105667993Y-82316203D01*
X105667996Y-82316206D01*
X105840991Y-82441894D01*
X105982005Y-82513744D01*
X106033620Y-82562491D01*
X106050686Y-82631406D01*
X106027786Y-82698607D01*
X105998864Y-82727946D01*
X105921989Y-82783799D01*
X105770798Y-82934990D01*
X105770796Y-82934993D01*
X105645108Y-83107987D01*
X105548029Y-83298515D01*
X105548026Y-83298521D01*
X105481952Y-83501878D01*
X105481951Y-83501883D01*
X105481951Y-83501884D01*
X105448500Y-83713084D01*
X105448500Y-83926916D01*
X105480097Y-84126408D01*
X105481952Y-84138121D01*
X105541790Y-84322285D01*
X105548028Y-84341483D01*
X105645106Y-84532009D01*
X105770794Y-84705004D01*
X105770796Y-84705006D01*
X105770798Y-84705009D01*
X105921990Y-84856201D01*
X105921993Y-84856203D01*
X105921996Y-84856206D01*
X105998863Y-84912053D01*
X106042217Y-84968275D01*
X106048292Y-85039011D01*
X106015161Y-85101803D01*
X105982006Y-85126254D01*
X105855355Y-85190786D01*
X105840987Y-85198108D01*
X105667993Y-85323796D01*
X105667990Y-85323798D01*
X105516798Y-85474990D01*
X105516796Y-85474993D01*
X105391108Y-85647987D01*
X105294029Y-85838515D01*
X105294026Y-85838521D01*
X105227952Y-86041878D01*
X105227951Y-86041883D01*
X105227951Y-86041884D01*
X105194500Y-86253084D01*
X105194500Y-86466916D01*
X105226097Y-86666408D01*
X105227952Y-86678121D01*
X105287790Y-86862285D01*
X105294028Y-86881483D01*
X105391106Y-87072009D01*
X105516794Y-87245004D01*
X105516796Y-87245006D01*
X105516798Y-87245009D01*
X105667990Y-87396201D01*
X105667993Y-87396203D01*
X105667996Y-87396206D01*
X105840991Y-87521894D01*
X105982005Y-87593744D01*
X106033620Y-87642491D01*
X106050686Y-87711406D01*
X106027786Y-87778607D01*
X105998864Y-87807946D01*
X105921989Y-87863799D01*
X105770798Y-88014990D01*
X105770796Y-88014993D01*
X105645108Y-88187987D01*
X105548029Y-88378515D01*
X105548026Y-88378521D01*
X105481952Y-88581878D01*
X105481951Y-88581883D01*
X105481951Y-88581884D01*
X105448500Y-88793084D01*
X105448500Y-89006916D01*
X105480097Y-89206408D01*
X105481952Y-89218121D01*
X105541790Y-89402285D01*
X105548028Y-89421483D01*
X105645106Y-89612009D01*
X105770794Y-89785004D01*
X105770796Y-89785006D01*
X105770798Y-89785009D01*
X105921990Y-89936201D01*
X105921993Y-89936203D01*
X105921996Y-89936206D01*
X105998863Y-89992053D01*
X106042217Y-90048275D01*
X106048292Y-90119011D01*
X106015161Y-90181803D01*
X105982006Y-90206254D01*
X105855355Y-90270786D01*
X105840987Y-90278108D01*
X105667993Y-90403796D01*
X105667990Y-90403798D01*
X105516798Y-90554990D01*
X105516796Y-90554993D01*
X105391108Y-90727987D01*
X105294029Y-90918515D01*
X105294026Y-90918521D01*
X105227952Y-91121878D01*
X105227951Y-91121883D01*
X105227951Y-91121884D01*
X105194500Y-91333084D01*
X105194500Y-91546916D01*
X105226097Y-91746408D01*
X105227952Y-91758121D01*
X105287790Y-91942285D01*
X105294028Y-91961483D01*
X105391106Y-92152009D01*
X105516794Y-92325004D01*
X105516796Y-92325006D01*
X105516798Y-92325009D01*
X105667990Y-92476201D01*
X105667993Y-92476203D01*
X105667996Y-92476206D01*
X105840991Y-92601894D01*
X105982005Y-92673744D01*
X106033620Y-92722491D01*
X106050686Y-92791406D01*
X106027786Y-92858607D01*
X105998864Y-92887946D01*
X105921989Y-92943799D01*
X105770798Y-93094990D01*
X105770796Y-93094993D01*
X105645108Y-93267987D01*
X105548029Y-93458515D01*
X105548026Y-93458521D01*
X105481952Y-93661878D01*
X105481951Y-93661883D01*
X105481951Y-93661884D01*
X105448500Y-93873084D01*
X105448500Y-94086916D01*
X105480097Y-94286408D01*
X105481952Y-94298121D01*
X105541790Y-94482285D01*
X105548028Y-94501483D01*
X105631755Y-94665806D01*
X105645108Y-94692012D01*
X105664489Y-94718687D01*
X105770794Y-94865004D01*
X105770796Y-94865006D01*
X105770798Y-94865009D01*
X105921990Y-95016201D01*
X105921993Y-95016203D01*
X105921996Y-95016206D01*
X105998863Y-95072053D01*
X106042217Y-95128275D01*
X106048292Y-95199011D01*
X106015161Y-95261803D01*
X105982006Y-95286254D01*
X105855355Y-95350786D01*
X105840987Y-95358108D01*
X105667993Y-95483796D01*
X105667990Y-95483798D01*
X105516798Y-95634990D01*
X105516796Y-95634993D01*
X105391108Y-95807987D01*
X105294029Y-95998515D01*
X105294026Y-95998521D01*
X105227952Y-96201878D01*
X105227951Y-96201883D01*
X105227951Y-96201884D01*
X105194500Y-96413084D01*
X105194500Y-96626916D01*
X105226097Y-96826408D01*
X105227952Y-96838121D01*
X105287790Y-97022285D01*
X105294028Y-97041483D01*
X105391106Y-97232009D01*
X105516794Y-97405004D01*
X105516796Y-97405006D01*
X105516798Y-97405009D01*
X105667990Y-97556201D01*
X105667993Y-97556203D01*
X105667996Y-97556206D01*
X105840991Y-97681894D01*
X105982005Y-97753744D01*
X106033620Y-97802491D01*
X106050686Y-97871406D01*
X106027786Y-97938607D01*
X105998864Y-97967946D01*
X105921989Y-98023799D01*
X105770798Y-98174990D01*
X105770796Y-98174993D01*
X105645108Y-98347987D01*
X105548029Y-98538515D01*
X105548026Y-98538521D01*
X105481952Y-98741878D01*
X105481951Y-98741883D01*
X105481951Y-98741884D01*
X105448500Y-98953084D01*
X105448500Y-99166916D01*
X105480097Y-99366408D01*
X105481952Y-99378121D01*
X105541790Y-99562285D01*
X105548028Y-99581483D01*
X105645106Y-99772009D01*
X105770794Y-99945004D01*
X105770796Y-99945006D01*
X105770798Y-99945009D01*
X105921990Y-100096201D01*
X105921993Y-100096203D01*
X105921996Y-100096206D01*
X105998863Y-100152053D01*
X106042217Y-100208275D01*
X106048292Y-100279011D01*
X106015161Y-100341803D01*
X105982006Y-100366254D01*
X105855355Y-100430786D01*
X105840987Y-100438108D01*
X105667993Y-100563796D01*
X105667990Y-100563798D01*
X105516798Y-100714990D01*
X105516796Y-100714993D01*
X105391108Y-100887987D01*
X105294029Y-101078515D01*
X105294026Y-101078521D01*
X105227952Y-101281878D01*
X105227952Y-101281881D01*
X105227951Y-101281884D01*
X105194500Y-101493084D01*
X105194500Y-101706916D01*
X105226097Y-101906408D01*
X105227952Y-101918121D01*
X105287790Y-102102285D01*
X105294028Y-102121483D01*
X105391106Y-102312009D01*
X105516794Y-102485004D01*
X105516796Y-102485006D01*
X105516798Y-102485009D01*
X105667990Y-102636201D01*
X105667993Y-102636203D01*
X105667996Y-102636206D01*
X105840991Y-102761894D01*
X105982005Y-102833744D01*
X106033620Y-102882491D01*
X106050686Y-102951406D01*
X106027786Y-103018607D01*
X105998864Y-103047946D01*
X105921989Y-103103799D01*
X105770798Y-103254990D01*
X105770796Y-103254993D01*
X105645108Y-103427987D01*
X105548029Y-103618515D01*
X105548026Y-103618521D01*
X105481952Y-103821878D01*
X105481951Y-103821883D01*
X105481951Y-103821884D01*
X105448500Y-104033084D01*
X105448500Y-104246916D01*
X105480079Y-104446296D01*
X105481952Y-104458121D01*
X105541790Y-104642285D01*
X105548028Y-104661483D01*
X105645106Y-104852009D01*
X105770794Y-105025004D01*
X105770796Y-105025006D01*
X105770798Y-105025009D01*
X105921990Y-105176201D01*
X105921993Y-105176203D01*
X105921996Y-105176206D01*
X105992708Y-105227581D01*
X105998863Y-105232053D01*
X106042217Y-105288275D01*
X106048292Y-105359011D01*
X106015161Y-105421803D01*
X105982006Y-105446254D01*
X105855355Y-105510786D01*
X105840987Y-105518108D01*
X105667993Y-105643796D01*
X105667990Y-105643798D01*
X105516798Y-105794990D01*
X105516796Y-105794993D01*
X105391108Y-105967987D01*
X105294029Y-106158515D01*
X105294026Y-106158521D01*
X105227952Y-106361878D01*
X105227951Y-106361883D01*
X105227951Y-106361884D01*
X105194500Y-106573084D01*
X105194500Y-106786916D01*
X105209656Y-106882605D01*
X105227952Y-106998121D01*
X105292660Y-107197273D01*
X105294028Y-107201483D01*
X105361879Y-107334647D01*
X105391108Y-107392012D01*
X105422182Y-107434781D01*
X105516794Y-107565004D01*
X105516796Y-107565006D01*
X105516798Y-107565009D01*
X105667990Y-107716201D01*
X105667993Y-107716203D01*
X105667996Y-107716206D01*
X105840991Y-107841894D01*
X105982005Y-107913744D01*
X106033620Y-107962491D01*
X106050686Y-108031406D01*
X106027786Y-108098607D01*
X105998864Y-108127946D01*
X105921989Y-108183799D01*
X105770798Y-108334990D01*
X105770796Y-108334993D01*
X105645108Y-108507987D01*
X105548029Y-108698515D01*
X105548026Y-108698521D01*
X105481952Y-108901878D01*
X105481951Y-108901883D01*
X105481951Y-108901884D01*
X105448500Y-109113084D01*
X105448500Y-109326916D01*
X105481951Y-109538116D01*
X105481952Y-109538121D01*
X105548026Y-109741478D01*
X105548028Y-109741483D01*
X105645106Y-109932009D01*
X105770794Y-110105004D01*
X105770796Y-110105006D01*
X105770798Y-110105009D01*
X105921990Y-110256201D01*
X105921993Y-110256203D01*
X105921996Y-110256206D01*
X105998863Y-110312053D01*
X106042217Y-110368275D01*
X106048292Y-110439011D01*
X106015161Y-110501803D01*
X105982006Y-110526254D01*
X105855355Y-110590786D01*
X105840987Y-110598108D01*
X105667993Y-110723796D01*
X105667990Y-110723798D01*
X105516798Y-110874990D01*
X105516796Y-110874993D01*
X105391108Y-111047987D01*
X105294029Y-111238515D01*
X105294026Y-111238521D01*
X105227952Y-111441878D01*
X105227951Y-111441883D01*
X105227951Y-111441884D01*
X105194500Y-111653084D01*
X105194500Y-111866916D01*
X105227951Y-112078116D01*
X105227952Y-112078121D01*
X105294026Y-112281478D01*
X105294028Y-112281483D01*
X105391106Y-112472009D01*
X105516794Y-112645004D01*
X105516796Y-112645006D01*
X105516798Y-112645009D01*
X105667990Y-112796201D01*
X105667993Y-112796203D01*
X105667996Y-112796206D01*
X105840991Y-112921894D01*
X105982005Y-112993744D01*
X106033620Y-113042491D01*
X106050686Y-113111406D01*
X106027786Y-113178607D01*
X105998864Y-113207946D01*
X105921989Y-113263799D01*
X105770798Y-113414990D01*
X105770796Y-113414993D01*
X105645108Y-113587987D01*
X105548029Y-113778515D01*
X105548026Y-113778521D01*
X105481952Y-113981878D01*
X105481952Y-113981880D01*
X105481951Y-113981884D01*
X105448500Y-114193084D01*
X105448500Y-114406916D01*
X105481951Y-114618116D01*
X105481952Y-114618121D01*
X105548026Y-114821478D01*
X105548028Y-114821483D01*
X105645106Y-115012009D01*
X105770794Y-115185004D01*
X105770796Y-115185006D01*
X105770798Y-115185009D01*
X105921990Y-115336201D01*
X105921993Y-115336203D01*
X105921996Y-115336206D01*
X105990499Y-115385976D01*
X105999317Y-115392383D01*
X106042671Y-115448605D01*
X106048746Y-115519342D01*
X106015614Y-115582133D01*
X105982459Y-115606586D01*
X105841250Y-115678535D01*
X105668320Y-115804177D01*
X105517177Y-115955320D01*
X105391536Y-116128249D01*
X105294493Y-116318707D01*
X105294490Y-116318713D01*
X105228440Y-116521995D01*
X105218302Y-116586000D01*
X106122297Y-116586000D01*
X106087075Y-116647007D01*
X106053000Y-116774174D01*
X106053000Y-116905826D01*
X106087075Y-117032993D01*
X106122297Y-117094000D01*
X105218302Y-117094000D01*
X105228440Y-117158004D01*
X105294490Y-117361286D01*
X105294493Y-117361292D01*
X105391536Y-117551750D01*
X105517177Y-117724679D01*
X105668320Y-117875822D01*
X105841249Y-118001463D01*
X106031707Y-118098506D01*
X106031713Y-118098509D01*
X106234998Y-118164560D01*
X106299000Y-118174696D01*
X106299000Y-117270702D01*
X106360007Y-117305925D01*
X106487174Y-117340000D01*
X106618826Y-117340000D01*
X106745993Y-117305925D01*
X106807000Y-117270702D01*
X106807000Y-118174696D01*
X106871001Y-118164560D01*
X107074286Y-118098509D01*
X107074292Y-118098506D01*
X107264750Y-118001463D01*
X107437679Y-117875822D01*
X107588822Y-117724679D01*
X107714463Y-117551750D01*
X107811506Y-117361292D01*
X107811509Y-117361286D01*
X107877559Y-117158004D01*
X107887698Y-117094000D01*
X106983703Y-117094000D01*
X107018925Y-117032993D01*
X107053000Y-116905826D01*
X107053000Y-116774174D01*
X107018925Y-116647007D01*
X106983703Y-116586000D01*
X107887698Y-116586000D01*
X107884802Y-116567716D01*
X107884802Y-116567713D01*
X107882660Y-116554192D01*
X118033300Y-116554192D01*
X118033300Y-116719407D01*
X118065531Y-116881440D01*
X118128754Y-117034073D01*
X118211562Y-117158004D01*
X118220540Y-117171441D01*
X118220545Y-117171447D01*
X118337352Y-117288254D01*
X118337358Y-117288259D01*
X118337360Y-117288261D01*
X118474727Y-117380046D01*
X118627360Y-117443269D01*
X118789395Y-117475500D01*
X118789396Y-117475500D01*
X118954604Y-117475500D01*
X118954605Y-117475500D01*
X119116640Y-117443269D01*
X119269273Y-117380046D01*
X119406640Y-117288261D01*
X119523461Y-117171440D01*
X119571396Y-117099698D01*
X119625873Y-117054171D01*
X119676162Y-117043700D01*
X125908575Y-117043700D01*
X125908577Y-117043700D01*
X126057286Y-117003853D01*
X126190614Y-116926876D01*
X126299476Y-116818014D01*
X128932485Y-114185005D01*
X128994797Y-114150979D01*
X129021580Y-114148100D01*
X129063804Y-114148100D01*
X129063805Y-114148100D01*
X129225840Y-114115869D01*
X129378473Y-114052646D01*
X129515840Y-113960861D01*
X129632661Y-113844040D01*
X129724446Y-113706673D01*
X129787669Y-113554040D01*
X129819900Y-113392005D01*
X129819900Y-113226795D01*
X129787669Y-113064760D01*
X129724446Y-112912127D01*
X129632661Y-112774760D01*
X129632659Y-112774758D01*
X129632654Y-112774752D01*
X129515847Y-112657945D01*
X129515841Y-112657940D01*
X129496489Y-112645009D01*
X129378473Y-112566154D01*
X129225841Y-112502931D01*
X129063807Y-112470700D01*
X129063805Y-112470700D01*
X128898595Y-112470700D01*
X128898592Y-112470700D01*
X128736558Y-112502931D01*
X128736557Y-112502932D01*
X128583925Y-112566155D01*
X128446558Y-112657940D01*
X128446552Y-112657945D01*
X128329745Y-112774752D01*
X128329740Y-112774758D01*
X128237955Y-112912125D01*
X128174732Y-113064757D01*
X128174731Y-113064758D01*
X128142500Y-113226792D01*
X128142500Y-113269020D01*
X128122498Y-113337141D01*
X128105595Y-113358115D01*
X125626315Y-115837395D01*
X125564003Y-115871421D01*
X125537220Y-115874300D01*
X119247854Y-115874300D01*
X119199635Y-115864709D01*
X119116642Y-115830332D01*
X119116641Y-115830331D01*
X118954607Y-115798100D01*
X118954605Y-115798100D01*
X118789395Y-115798100D01*
X118789392Y-115798100D01*
X118627358Y-115830331D01*
X118627357Y-115830332D01*
X118474725Y-115893555D01*
X118337358Y-115985340D01*
X118337352Y-115985345D01*
X118220545Y-116102152D01*
X118220540Y-116102158D01*
X118128755Y-116239525D01*
X118065532Y-116392157D01*
X118065531Y-116392158D01*
X118033300Y-116554192D01*
X107882660Y-116554192D01*
X107877561Y-116522000D01*
X107811509Y-116318713D01*
X107811506Y-116318707D01*
X107714463Y-116128249D01*
X107588822Y-115955320D01*
X107437679Y-115804177D01*
X107360636Y-115748202D01*
X107317282Y-115691979D01*
X107311207Y-115621243D01*
X107344339Y-115558451D01*
X107377491Y-115534000D01*
X107519009Y-115461894D01*
X107692004Y-115336206D01*
X107843206Y-115185004D01*
X107968894Y-115012009D01*
X108065972Y-114821483D01*
X108132049Y-114618116D01*
X108165500Y-114406916D01*
X108165500Y-114193084D01*
X108132049Y-113981884D01*
X108111754Y-113919424D01*
X108109727Y-113848459D01*
X108142491Y-113791397D01*
X114512285Y-107421605D01*
X114574597Y-107387579D01*
X114601380Y-107384700D01*
X114858375Y-107384700D01*
X114926496Y-107404702D01*
X114972989Y-107458358D01*
X114983093Y-107528632D01*
X114974783Y-107558920D01*
X114966733Y-107578352D01*
X114966731Y-107578358D01*
X114934500Y-107740392D01*
X114934500Y-107905607D01*
X114964835Y-108058108D01*
X114966731Y-108067640D01*
X115029954Y-108220273D01*
X115070825Y-108281440D01*
X115121740Y-108357641D01*
X115121745Y-108357647D01*
X115238552Y-108474454D01*
X115238558Y-108474459D01*
X115238560Y-108474461D01*
X115375927Y-108566246D01*
X115528560Y-108629469D01*
X115690595Y-108661700D01*
X115690596Y-108661700D01*
X115855804Y-108661700D01*
X115855805Y-108661700D01*
X116017840Y-108629469D01*
X116170473Y-108566246D01*
X116307840Y-108474461D01*
X116307847Y-108474454D01*
X116413897Y-108368405D01*
X116476209Y-108334379D01*
X116502992Y-108331500D01*
X120174208Y-108331500D01*
X120242329Y-108351502D01*
X120263303Y-108368405D01*
X120293152Y-108398254D01*
X120293158Y-108398259D01*
X120293160Y-108398261D01*
X120430527Y-108490046D01*
X120583160Y-108553269D01*
X120745195Y-108585500D01*
X120745196Y-108585500D01*
X120910404Y-108585500D01*
X120910405Y-108585500D01*
X121072440Y-108553269D01*
X121225073Y-108490046D01*
X121362440Y-108398261D01*
X121479261Y-108281440D01*
X121571046Y-108144073D01*
X121634269Y-107991440D01*
X121666500Y-107829405D01*
X121666500Y-107762216D01*
X121686502Y-107694095D01*
X121740158Y-107647602D01*
X121810432Y-107637498D01*
X121817094Y-107638640D01*
X121817395Y-107638700D01*
X121817396Y-107638700D01*
X121982604Y-107638700D01*
X121982605Y-107638700D01*
X122144640Y-107606469D01*
X122297273Y-107543246D01*
X122434640Y-107451461D01*
X122551461Y-107334640D01*
X122643246Y-107197273D01*
X122706469Y-107044640D01*
X122738700Y-106882605D01*
X122738700Y-106717395D01*
X122706469Y-106555360D01*
X122643246Y-106402727D01*
X122551461Y-106265360D01*
X122551459Y-106265358D01*
X122551454Y-106265352D01*
X122434647Y-106148545D01*
X122434641Y-106148540D01*
X122297274Y-106056755D01*
X122297275Y-106056755D01*
X122297273Y-106056754D01*
X122144641Y-105993531D01*
X121982607Y-105961300D01*
X121982605Y-105961300D01*
X121817395Y-105961300D01*
X121817392Y-105961300D01*
X121655358Y-105993531D01*
X121655357Y-105993532D01*
X121502725Y-106056755D01*
X121365358Y-106148540D01*
X121365352Y-106148545D01*
X121335503Y-106178395D01*
X121273191Y-106212421D01*
X121246408Y-106215300D01*
X114383977Y-106215300D01*
X114230023Y-106215300D01*
X114150333Y-106236652D01*
X114081317Y-106255145D01*
X114081310Y-106255148D01*
X113947989Y-106332121D01*
X113947979Y-106332129D01*
X108091292Y-112188816D01*
X108028980Y-112222842D01*
X107958165Y-112217777D01*
X107901329Y-112175230D01*
X107876518Y-112108710D01*
X107877748Y-112080010D01*
X107878047Y-112078121D01*
X107878049Y-112078116D01*
X107911500Y-111866916D01*
X107911500Y-111653084D01*
X107878049Y-111441884D01*
X107811972Y-111238517D01*
X107714894Y-111047991D01*
X107589206Y-110874996D01*
X107589203Y-110874993D01*
X107589201Y-110874990D01*
X107438006Y-110723795D01*
X107361136Y-110667946D01*
X107317782Y-110611723D01*
X107311707Y-110540987D01*
X107344839Y-110478196D01*
X107377989Y-110453747D01*
X107519009Y-110381894D01*
X107692004Y-110256206D01*
X107843206Y-110105004D01*
X107968894Y-109932009D01*
X108065972Y-109741483D01*
X108132049Y-109538116D01*
X108165500Y-109326916D01*
X108165500Y-109113084D01*
X108132049Y-108901884D01*
X108065972Y-108698517D01*
X107968894Y-108507991D01*
X107843206Y-108334996D01*
X107843203Y-108334993D01*
X107843201Y-108334990D01*
X107692009Y-108183798D01*
X107692006Y-108183796D01*
X107692004Y-108183794D01*
X107532133Y-108067641D01*
X107519012Y-108058108D01*
X107519011Y-108058107D01*
X107519009Y-108058106D01*
X107377992Y-107986254D01*
X107326379Y-107937508D01*
X107309313Y-107868593D01*
X107332214Y-107801391D01*
X107361133Y-107772055D01*
X107438004Y-107716206D01*
X107589206Y-107565004D01*
X107714894Y-107392009D01*
X107811972Y-107201483D01*
X107878049Y-106998116D01*
X107911500Y-106786916D01*
X107911500Y-106573084D01*
X107878049Y-106361884D01*
X107811972Y-106158517D01*
X107714894Y-105967991D01*
X107589206Y-105794996D01*
X107589203Y-105794993D01*
X107589201Y-105794990D01*
X107438006Y-105643795D01*
X107361136Y-105587946D01*
X107317782Y-105531723D01*
X107311707Y-105460987D01*
X107344839Y-105398196D01*
X107377989Y-105373747D01*
X107519009Y-105301894D01*
X107692004Y-105176206D01*
X107843206Y-105025004D01*
X107968894Y-104852009D01*
X108065972Y-104661483D01*
X108132049Y-104458116D01*
X108165500Y-104246916D01*
X108165500Y-104033084D01*
X108132049Y-103821884D01*
X108065972Y-103618517D01*
X107968894Y-103427991D01*
X107843206Y-103254996D01*
X107843203Y-103254993D01*
X107843201Y-103254990D01*
X107692009Y-103103798D01*
X107692006Y-103103796D01*
X107692004Y-103103794D01*
X107519009Y-102978106D01*
X107377992Y-102906254D01*
X107326379Y-102857508D01*
X107309313Y-102788593D01*
X107332214Y-102721391D01*
X107361133Y-102692055D01*
X107438004Y-102636206D01*
X107589206Y-102485004D01*
X107714894Y-102312009D01*
X107811972Y-102121483D01*
X107878049Y-101918116D01*
X107911500Y-101706916D01*
X107911500Y-101493084D01*
X107878049Y-101281884D01*
X107811972Y-101078517D01*
X107714894Y-100887991D01*
X107589206Y-100714996D01*
X107589203Y-100714993D01*
X107589201Y-100714990D01*
X107438006Y-100563795D01*
X107361136Y-100507946D01*
X107317782Y-100451723D01*
X107311707Y-100380987D01*
X107344839Y-100318196D01*
X107377989Y-100293747D01*
X107519009Y-100221894D01*
X107692004Y-100096206D01*
X107843206Y-99945004D01*
X107968894Y-99772009D01*
X108065972Y-99581483D01*
X108132049Y-99378116D01*
X108165500Y-99166916D01*
X108165500Y-98953084D01*
X108132049Y-98741884D01*
X108065972Y-98538517D01*
X107968894Y-98347991D01*
X107843206Y-98174996D01*
X107843203Y-98174993D01*
X107843201Y-98174990D01*
X107692009Y-98023798D01*
X107692006Y-98023796D01*
X107692004Y-98023794D01*
X107519009Y-97898106D01*
X107377992Y-97826254D01*
X107326379Y-97777508D01*
X107309313Y-97708593D01*
X107332214Y-97641391D01*
X107361133Y-97612055D01*
X107438004Y-97556206D01*
X107589206Y-97405004D01*
X107714894Y-97232009D01*
X107811972Y-97041483D01*
X107878049Y-96838116D01*
X107911500Y-96626916D01*
X107911500Y-96413084D01*
X107878049Y-96201884D01*
X107811972Y-95998517D01*
X107714894Y-95807991D01*
X107589206Y-95634996D01*
X107589203Y-95634993D01*
X107589201Y-95634990D01*
X107438006Y-95483795D01*
X107361136Y-95427946D01*
X107317782Y-95371723D01*
X107311707Y-95300987D01*
X107344839Y-95238196D01*
X107377989Y-95213747D01*
X107519009Y-95141894D01*
X107692004Y-95016206D01*
X107843206Y-94865004D01*
X107968894Y-94692009D01*
X108065972Y-94501483D01*
X108132049Y-94298116D01*
X108165500Y-94086916D01*
X108165500Y-93873084D01*
X108132049Y-93661884D01*
X108065972Y-93458517D01*
X107968894Y-93267991D01*
X107843206Y-93094996D01*
X107843203Y-93094993D01*
X107843201Y-93094990D01*
X107692009Y-92943798D01*
X107692006Y-92943796D01*
X107692004Y-92943794D01*
X107519009Y-92818106D01*
X107377992Y-92746254D01*
X107326379Y-92697508D01*
X107309313Y-92628593D01*
X107332214Y-92561391D01*
X107361133Y-92532055D01*
X107438004Y-92476206D01*
X107589206Y-92325004D01*
X107714894Y-92152009D01*
X107811972Y-91961483D01*
X107878049Y-91758116D01*
X107911500Y-91546916D01*
X107911500Y-91333084D01*
X107878049Y-91121884D01*
X107811972Y-90918517D01*
X107714894Y-90727991D01*
X107589206Y-90554996D01*
X107589203Y-90554993D01*
X107589201Y-90554990D01*
X107438006Y-90403795D01*
X107361136Y-90347946D01*
X107317782Y-90291723D01*
X107311707Y-90220987D01*
X107344839Y-90158196D01*
X107377989Y-90133747D01*
X107519009Y-90061894D01*
X107692004Y-89936206D01*
X107843206Y-89785004D01*
X107968894Y-89612009D01*
X108065972Y-89421483D01*
X108082126Y-89371764D01*
X108122199Y-89313159D01*
X108187595Y-89285521D01*
X108201959Y-89284700D01*
X113746408Y-89284700D01*
X113814529Y-89304702D01*
X113835503Y-89321605D01*
X113865352Y-89351454D01*
X113865358Y-89351459D01*
X113865360Y-89351461D01*
X114002727Y-89443246D01*
X114155360Y-89506469D01*
X114317395Y-89538700D01*
X114317396Y-89538700D01*
X114482604Y-89538700D01*
X114482605Y-89538700D01*
X114644640Y-89506469D01*
X114797273Y-89443246D01*
X114934640Y-89351461D01*
X115051461Y-89234640D01*
X115143246Y-89097273D01*
X115206469Y-88944640D01*
X115238700Y-88782605D01*
X115238700Y-88617395D01*
X115206469Y-88455360D01*
X115143246Y-88302727D01*
X115051461Y-88165360D01*
X115051459Y-88165358D01*
X115051454Y-88165352D01*
X114934647Y-88048545D01*
X114934641Y-88048540D01*
X114933190Y-88047570D01*
X114797273Y-87956754D01*
X114644641Y-87893531D01*
X114482607Y-87861300D01*
X114482605Y-87861300D01*
X114317395Y-87861300D01*
X114317392Y-87861300D01*
X114155358Y-87893531D01*
X114155357Y-87893532D01*
X114002725Y-87956755D01*
X113865358Y-88048540D01*
X113865352Y-88048545D01*
X113835503Y-88078395D01*
X113773191Y-88112421D01*
X113746408Y-88115300D01*
X107980281Y-88115300D01*
X107912160Y-88095298D01*
X107878345Y-88063361D01*
X107843206Y-88014996D01*
X107843203Y-88014993D01*
X107843201Y-88014990D01*
X107692009Y-87863798D01*
X107692006Y-87863796D01*
X107692004Y-87863794D01*
X107519009Y-87738106D01*
X107377992Y-87666254D01*
X107326379Y-87617508D01*
X107309313Y-87548593D01*
X107332214Y-87481391D01*
X107361133Y-87452055D01*
X107438004Y-87396206D01*
X107589206Y-87245004D01*
X107714894Y-87072009D01*
X107811972Y-86881483D01*
X107878049Y-86678116D01*
X107911500Y-86466916D01*
X107911500Y-86253084D01*
X107878049Y-86041884D01*
X107811972Y-85838517D01*
X107714894Y-85647991D01*
X107589206Y-85474996D01*
X107589203Y-85474993D01*
X107589201Y-85474990D01*
X107438006Y-85323795D01*
X107361136Y-85267946D01*
X107317782Y-85211723D01*
X107311707Y-85140987D01*
X107344839Y-85078196D01*
X107377989Y-85053747D01*
X107519009Y-84981894D01*
X107692004Y-84856206D01*
X107843206Y-84705004D01*
X107968894Y-84532009D01*
X108065972Y-84341483D01*
X108132049Y-84138116D01*
X108165500Y-83926916D01*
X108165500Y-83713084D01*
X108132049Y-83501884D01*
X108065972Y-83298517D01*
X107968894Y-83107991D01*
X107843206Y-82934996D01*
X107843203Y-82934993D01*
X107843201Y-82934990D01*
X107692009Y-82783798D01*
X107692006Y-82783796D01*
X107692004Y-82783794D01*
X107519009Y-82658106D01*
X107377992Y-82586254D01*
X107326379Y-82537508D01*
X107309313Y-82468593D01*
X107332214Y-82401391D01*
X107361133Y-82372055D01*
X107438004Y-82316206D01*
X107589206Y-82165004D01*
X107714894Y-81992009D01*
X107811972Y-81801483D01*
X107878049Y-81598116D01*
X107911500Y-81386916D01*
X107911500Y-81173084D01*
X107878049Y-80961884D01*
X107811972Y-80758517D01*
X107714894Y-80567991D01*
X107589206Y-80394996D01*
X107589203Y-80394993D01*
X107589201Y-80394990D01*
X107438006Y-80243795D01*
X107361136Y-80187946D01*
X107317782Y-80131723D01*
X107311707Y-80060987D01*
X107344839Y-79998196D01*
X107377989Y-79973747D01*
X107519009Y-79901894D01*
X107692004Y-79776206D01*
X107843206Y-79625004D01*
X107968894Y-79452009D01*
X108065972Y-79261483D01*
X108132049Y-79058116D01*
X108165500Y-78846916D01*
X108165500Y-78633084D01*
X108132049Y-78421884D01*
X108065972Y-78218517D01*
X107968894Y-78027991D01*
X107843206Y-77854996D01*
X107843203Y-77854993D01*
X107843201Y-77854990D01*
X107692009Y-77703798D01*
X107692005Y-77703795D01*
X107692004Y-77703794D01*
X107670949Y-77688497D01*
X107627597Y-77632277D01*
X107621520Y-77561541D01*
X107654651Y-77498749D01*
X107669502Y-77485694D01*
X107670089Y-77485255D01*
X107766261Y-77413261D01*
X107853889Y-77296204D01*
X107904989Y-77159201D01*
X107911500Y-77098638D01*
X107911500Y-76093084D01*
X118021500Y-76093084D01*
X118021500Y-76306916D01*
X118053097Y-76506408D01*
X118054952Y-76518121D01*
X118114790Y-76702285D01*
X118121028Y-76721483D01*
X118218106Y-76912009D01*
X118343794Y-77085004D01*
X118343796Y-77085006D01*
X118343798Y-77085009D01*
X118494990Y-77236201D01*
X118494993Y-77236203D01*
X118494996Y-77236206D01*
X118667991Y-77361894D01*
X118667996Y-77361896D01*
X118669088Y-77362566D01*
X118669418Y-77362931D01*
X118671996Y-77364804D01*
X118671602Y-77365345D01*
X118716721Y-77415213D01*
X118728328Y-77485255D01*
X118700226Y-77550453D01*
X118671870Y-77575023D01*
X118671996Y-77575196D01*
X118669982Y-77576658D01*
X118669088Y-77577434D01*
X118667987Y-77578108D01*
X118494993Y-77703796D01*
X118494990Y-77703798D01*
X118343798Y-77854990D01*
X118343796Y-77854993D01*
X118218108Y-78027987D01*
X118121029Y-78218515D01*
X118121026Y-78218521D01*
X118054952Y-78421878D01*
X118054951Y-78421883D01*
X118054951Y-78421884D01*
X118021500Y-78633084D01*
X118021500Y-78846916D01*
X118053097Y-79046408D01*
X118054952Y-79058121D01*
X118114790Y-79242285D01*
X118121028Y-79261483D01*
X118204755Y-79425806D01*
X118218108Y-79452012D01*
X118228735Y-79466639D01*
X118343794Y-79625004D01*
X118343796Y-79625006D01*
X118343798Y-79625009D01*
X118446770Y-79727981D01*
X118480796Y-79790293D01*
X118475731Y-79861108D01*
X118433184Y-79917944D01*
X118401708Y-79935131D01*
X118283797Y-79979110D01*
X118283792Y-79979112D01*
X118166738Y-80066738D01*
X118079112Y-80183792D01*
X118079110Y-80183797D01*
X118028011Y-80320795D01*
X118028009Y-80320803D01*
X118021500Y-80381350D01*
X118021500Y-82178649D01*
X118028009Y-82239196D01*
X118028011Y-82239204D01*
X118079110Y-82376202D01*
X118079112Y-82376207D01*
X118166738Y-82493261D01*
X118283792Y-82580887D01*
X118283794Y-82580888D01*
X118283796Y-82580889D01*
X118329546Y-82597953D01*
X118420795Y-82631988D01*
X118420803Y-82631990D01*
X118481350Y-82638499D01*
X118481355Y-82638499D01*
X118481362Y-82638500D01*
X118481368Y-82638500D01*
X120278632Y-82638500D01*
X120278638Y-82638500D01*
X120278645Y-82638499D01*
X120278649Y-82638499D01*
X120339196Y-82631990D01*
X120339199Y-82631989D01*
X120339201Y-82631989D01*
X120476204Y-82580889D01*
X120532199Y-82538972D01*
X120593261Y-82493261D01*
X120680887Y-82376207D01*
X120680887Y-82376206D01*
X120680889Y-82376204D01*
X120731989Y-82239201D01*
X120738500Y-82178638D01*
X120738500Y-80381362D01*
X120735855Y-80356755D01*
X120731990Y-80320803D01*
X120731988Y-80320795D01*
X120680889Y-80183797D01*
X120680887Y-80183792D01*
X120593261Y-80066738D01*
X120476207Y-79979112D01*
X120476203Y-79979110D01*
X120358291Y-79935131D01*
X120301455Y-79892585D01*
X120276645Y-79826064D01*
X120291737Y-79756690D01*
X120313226Y-79727983D01*
X120416206Y-79625004D01*
X120541894Y-79452009D01*
X120638972Y-79261483D01*
X120705049Y-79058116D01*
X120738500Y-78846916D01*
X120738500Y-78633084D01*
X120705049Y-78421884D01*
X120638972Y-78218517D01*
X120541894Y-78027991D01*
X120416206Y-77854996D01*
X120416203Y-77854993D01*
X120416201Y-77854990D01*
X120265009Y-77703798D01*
X120265006Y-77703796D01*
X120265004Y-77703794D01*
X120092009Y-77578106D01*
X120092007Y-77578105D01*
X120090920Y-77577439D01*
X120090591Y-77577075D01*
X120088004Y-77575196D01*
X120088398Y-77574652D01*
X120043283Y-77524796D01*
X120031670Y-77454756D01*
X120059766Y-77389555D01*
X120088130Y-77364978D01*
X120088004Y-77364804D01*
X120090030Y-77363331D01*
X120090920Y-77362561D01*
X120091997Y-77361899D01*
X120092009Y-77361894D01*
X120265004Y-77236206D01*
X120416206Y-77085004D01*
X120541894Y-76912009D01*
X120638972Y-76721483D01*
X120705049Y-76518116D01*
X120738500Y-76306916D01*
X120738500Y-76093084D01*
X120705049Y-75881884D01*
X120638972Y-75678517D01*
X120598683Y-75599446D01*
X123151500Y-75599446D01*
X123151500Y-76800544D01*
X123162112Y-76904425D01*
X123217885Y-77072738D01*
X123310970Y-77223652D01*
X123310975Y-77223658D01*
X123436341Y-77349024D01*
X123436347Y-77349029D01*
X123436348Y-77349030D01*
X123587262Y-77442115D01*
X123651557Y-77463419D01*
X123709928Y-77503833D01*
X123737184Y-77569389D01*
X123724671Y-77639274D01*
X123685985Y-77684960D01*
X123607567Y-77741933D01*
X123461936Y-77887564D01*
X123461934Y-77887567D01*
X123340873Y-78054193D01*
X123247367Y-78237708D01*
X123247364Y-78237714D01*
X123183721Y-78433587D01*
X123183720Y-78433590D01*
X123183720Y-78433592D01*
X123151500Y-78637019D01*
X123151500Y-78842981D01*
X123183720Y-79046408D01*
X123183721Y-79046412D01*
X123187525Y-79058121D01*
X123247366Y-79242290D01*
X123340871Y-79425803D01*
X123461932Y-79592430D01*
X123461934Y-79592432D01*
X123461936Y-79592435D01*
X123607564Y-79738063D01*
X123607567Y-79738065D01*
X123607570Y-79738068D01*
X123774197Y-79859129D01*
X123849962Y-79897733D01*
X123901577Y-79946482D01*
X123918643Y-80015397D01*
X123895742Y-80082598D01*
X123849963Y-80122266D01*
X123831403Y-80131723D01*
X123774193Y-80160873D01*
X123607567Y-80281934D01*
X123607564Y-80281936D01*
X123461936Y-80427564D01*
X123461934Y-80427567D01*
X123340873Y-80594193D01*
X123247367Y-80777708D01*
X123247364Y-80777714D01*
X123183721Y-80973587D01*
X123183720Y-80973590D01*
X123183720Y-80973592D01*
X123151500Y-81177019D01*
X123151500Y-81382981D01*
X123176049Y-81537976D01*
X123183721Y-81586412D01*
X123237346Y-81751454D01*
X123247366Y-81782290D01*
X123340871Y-81965803D01*
X123461932Y-82132430D01*
X123461934Y-82132432D01*
X123461936Y-82132435D01*
X123607564Y-82278063D01*
X123607567Y-82278065D01*
X123607570Y-82278068D01*
X123774197Y-82399129D01*
X123849962Y-82437733D01*
X123901577Y-82486482D01*
X123918643Y-82555397D01*
X123895742Y-82622598D01*
X123849963Y-82662266D01*
X123781033Y-82697387D01*
X123774193Y-82700873D01*
X123607567Y-82821934D01*
X123607564Y-82821936D01*
X123461936Y-82967564D01*
X123461934Y-82967567D01*
X123340873Y-83134193D01*
X123247367Y-83317708D01*
X123247364Y-83317714D01*
X123183721Y-83513587D01*
X123183720Y-83513590D01*
X123183720Y-83513592D01*
X123151500Y-83717019D01*
X123151500Y-83922981D01*
X123183720Y-84126408D01*
X123183721Y-84126412D01*
X123187525Y-84138121D01*
X123247366Y-84322290D01*
X123340871Y-84505803D01*
X123461932Y-84672430D01*
X123461934Y-84672432D01*
X123461936Y-84672435D01*
X123607564Y-84818063D01*
X123607567Y-84818065D01*
X123607570Y-84818068D01*
X123774197Y-84939129D01*
X123849962Y-84977733D01*
X123901577Y-85026482D01*
X123918643Y-85095397D01*
X123895742Y-85162598D01*
X123849963Y-85202266D01*
X123831403Y-85211723D01*
X123774193Y-85240873D01*
X123607567Y-85361934D01*
X123607564Y-85361936D01*
X123461936Y-85507564D01*
X123461934Y-85507567D01*
X123340873Y-85674193D01*
X123247367Y-85857708D01*
X123247364Y-85857714D01*
X123183721Y-86053587D01*
X123183720Y-86053590D01*
X123183720Y-86053592D01*
X123151500Y-86257019D01*
X123151500Y-86462981D01*
X123183720Y-86666408D01*
X123183721Y-86666412D01*
X123187525Y-86678121D01*
X123247366Y-86862290D01*
X123340871Y-87045803D01*
X123461932Y-87212430D01*
X123461934Y-87212432D01*
X123461936Y-87212435D01*
X123607564Y-87358063D01*
X123607567Y-87358065D01*
X123607570Y-87358068D01*
X123774197Y-87479129D01*
X123849962Y-87517733D01*
X123901577Y-87566482D01*
X123918643Y-87635397D01*
X123895742Y-87702598D01*
X123849963Y-87742266D01*
X123781033Y-87777387D01*
X123774193Y-87780873D01*
X123607567Y-87901934D01*
X123607564Y-87901936D01*
X123461936Y-88047564D01*
X123461934Y-88047567D01*
X123340873Y-88214193D01*
X123247367Y-88397708D01*
X123247364Y-88397714D01*
X123183721Y-88593587D01*
X123183720Y-88593590D01*
X123183720Y-88593592D01*
X123151500Y-88797019D01*
X123151500Y-89002981D01*
X123166435Y-89097273D01*
X123183721Y-89206412D01*
X123237447Y-89371765D01*
X123247366Y-89402290D01*
X123340871Y-89585803D01*
X123461932Y-89752430D01*
X123461934Y-89752432D01*
X123461936Y-89752435D01*
X123607564Y-89898063D01*
X123607567Y-89898065D01*
X123607570Y-89898068D01*
X123774197Y-90019129D01*
X123849962Y-90057733D01*
X123901577Y-90106482D01*
X123918643Y-90175397D01*
X123895742Y-90242598D01*
X123849963Y-90282266D01*
X123831403Y-90291723D01*
X123774193Y-90320873D01*
X123607567Y-90441934D01*
X123607564Y-90441936D01*
X123461936Y-90587564D01*
X123461934Y-90587567D01*
X123340873Y-90754193D01*
X123247367Y-90937708D01*
X123247364Y-90937714D01*
X123183721Y-91133587D01*
X123183720Y-91133590D01*
X123183720Y-91133592D01*
X123151500Y-91337019D01*
X123151500Y-91542981D01*
X123183720Y-91746408D01*
X123183721Y-91746412D01*
X123187525Y-91758121D01*
X123247366Y-91942290D01*
X123340871Y-92125803D01*
X123461932Y-92292430D01*
X123461934Y-92292432D01*
X123461936Y-92292435D01*
X123607564Y-92438063D01*
X123607567Y-92438065D01*
X123607570Y-92438068D01*
X123774197Y-92559129D01*
X123849962Y-92597733D01*
X123901577Y-92646482D01*
X123918643Y-92715397D01*
X123895742Y-92782598D01*
X123849963Y-92822266D01*
X123781033Y-92857387D01*
X123774193Y-92860873D01*
X123607567Y-92981934D01*
X123607564Y-92981936D01*
X123461936Y-93127564D01*
X123461934Y-93127567D01*
X123340873Y-93294193D01*
X123247367Y-93477708D01*
X123247364Y-93477714D01*
X123183721Y-93673587D01*
X123183720Y-93673590D01*
X123183720Y-93673592D01*
X123151500Y-93877019D01*
X123151500Y-94082981D01*
X123177105Y-94244640D01*
X123183721Y-94286412D01*
X123219742Y-94397274D01*
X123247366Y-94482290D01*
X123340871Y-94665803D01*
X123461932Y-94832430D01*
X123461934Y-94832432D01*
X123461936Y-94832435D01*
X123607564Y-94978063D01*
X123607567Y-94978065D01*
X123607570Y-94978068D01*
X123774197Y-95099129D01*
X123849962Y-95137733D01*
X123901577Y-95186482D01*
X123918643Y-95255397D01*
X123895742Y-95322598D01*
X123849963Y-95362266D01*
X123831403Y-95371723D01*
X123774193Y-95400873D01*
X123607567Y-95521934D01*
X123607564Y-95521936D01*
X123461936Y-95667564D01*
X123461934Y-95667567D01*
X123340873Y-95834193D01*
X123247367Y-96017708D01*
X123247364Y-96017714D01*
X123183721Y-96213587D01*
X123183720Y-96213590D01*
X123183720Y-96213592D01*
X123151500Y-96417019D01*
X123151500Y-96622981D01*
X123183720Y-96826408D01*
X123183721Y-96826412D01*
X123187525Y-96838121D01*
X123247366Y-97022290D01*
X123340871Y-97205803D01*
X123461932Y-97372430D01*
X123461934Y-97372432D01*
X123461936Y-97372435D01*
X123607564Y-97518063D01*
X123607567Y-97518065D01*
X123607570Y-97518068D01*
X123774197Y-97639129D01*
X123849962Y-97677733D01*
X123901577Y-97726482D01*
X123918643Y-97795397D01*
X123895742Y-97862598D01*
X123849963Y-97902266D01*
X123781033Y-97937387D01*
X123774193Y-97940873D01*
X123607567Y-98061934D01*
X123607564Y-98061936D01*
X123461936Y-98207564D01*
X123461934Y-98207567D01*
X123340873Y-98374193D01*
X123247367Y-98557708D01*
X123247364Y-98557714D01*
X123183721Y-98753587D01*
X123183720Y-98753590D01*
X123183720Y-98753592D01*
X123151500Y-98957019D01*
X123151500Y-99162981D01*
X123183720Y-99366408D01*
X123183721Y-99366412D01*
X123235479Y-99525708D01*
X123247366Y-99562290D01*
X123340871Y-99745803D01*
X123461932Y-99912430D01*
X123461934Y-99912432D01*
X123461936Y-99912435D01*
X123607564Y-100058063D01*
X123607567Y-100058065D01*
X123607570Y-100058068D01*
X123774197Y-100179129D01*
X123849962Y-100217733D01*
X123901577Y-100266482D01*
X123918643Y-100335397D01*
X123895742Y-100402598D01*
X123849963Y-100442266D01*
X123831403Y-100451723D01*
X123774193Y-100480873D01*
X123607567Y-100601934D01*
X123607564Y-100601936D01*
X123461936Y-100747564D01*
X123461934Y-100747567D01*
X123340873Y-100914193D01*
X123247367Y-101097708D01*
X123247364Y-101097714D01*
X123183721Y-101293587D01*
X123183720Y-101293590D01*
X123183720Y-101293592D01*
X123151500Y-101497019D01*
X123151500Y-101702981D01*
X123183720Y-101906408D01*
X123183721Y-101906412D01*
X123187525Y-101918121D01*
X123247366Y-102102290D01*
X123340871Y-102285803D01*
X123461932Y-102452430D01*
X123461934Y-102452432D01*
X123461936Y-102452435D01*
X123607564Y-102598063D01*
X123607567Y-102598065D01*
X123607570Y-102598068D01*
X123774197Y-102719129D01*
X123849962Y-102757733D01*
X123901577Y-102806482D01*
X123918643Y-102875397D01*
X123895742Y-102942598D01*
X123849963Y-102982266D01*
X123849416Y-102982545D01*
X123774193Y-103020873D01*
X123607567Y-103141934D01*
X123607564Y-103141936D01*
X123461936Y-103287564D01*
X123461934Y-103287567D01*
X123340873Y-103454193D01*
X123247367Y-103637708D01*
X123247364Y-103637714D01*
X123183721Y-103833587D01*
X123183720Y-103833590D01*
X123183720Y-103833592D01*
X123151500Y-104037019D01*
X123151500Y-104242981D01*
X123183720Y-104446408D01*
X123183721Y-104446412D01*
X123187525Y-104458121D01*
X123247366Y-104642290D01*
X123340871Y-104825803D01*
X123461932Y-104992430D01*
X123461934Y-104992432D01*
X123461936Y-104992435D01*
X123607564Y-105138063D01*
X123607567Y-105138065D01*
X123607570Y-105138068D01*
X123774197Y-105259129D01*
X123957710Y-105352634D01*
X124153592Y-105416280D01*
X124357019Y-105448500D01*
X124357022Y-105448500D01*
X124562978Y-105448500D01*
X124562981Y-105448500D01*
X124766408Y-105416280D01*
X124962290Y-105352634D01*
X125145803Y-105259129D01*
X125312430Y-105138068D01*
X125312435Y-105138063D01*
X125360033Y-105090466D01*
X125458063Y-104992435D01*
X125458068Y-104992430D01*
X125579129Y-104825803D01*
X125672634Y-104642290D01*
X125736280Y-104446408D01*
X125768500Y-104242981D01*
X125768500Y-104037019D01*
X125736280Y-103833592D01*
X125672634Y-103637710D01*
X125579129Y-103454197D01*
X125458068Y-103287570D01*
X125458065Y-103287567D01*
X125458063Y-103287564D01*
X125312435Y-103141936D01*
X125312432Y-103141934D01*
X125312430Y-103141932D01*
X125145803Y-103020871D01*
X125070034Y-102982265D01*
X125018422Y-102933519D01*
X125001356Y-102864604D01*
X125024257Y-102797402D01*
X125070034Y-102757735D01*
X125145803Y-102719129D01*
X125312430Y-102598068D01*
X125458068Y-102452430D01*
X125579129Y-102285803D01*
X125672634Y-102102290D01*
X125736280Y-101906408D01*
X125768500Y-101702981D01*
X125768500Y-101497019D01*
X125736280Y-101293592D01*
X125672634Y-101097710D01*
X125579129Y-100914197D01*
X125458068Y-100747570D01*
X125458065Y-100747567D01*
X125458063Y-100747564D01*
X125312435Y-100601936D01*
X125312432Y-100601934D01*
X125312430Y-100601932D01*
X125145803Y-100480871D01*
X125070034Y-100442265D01*
X125018422Y-100393519D01*
X125001356Y-100324604D01*
X125024257Y-100257402D01*
X125070034Y-100217735D01*
X125145803Y-100179129D01*
X125312430Y-100058068D01*
X125458068Y-99912430D01*
X125579129Y-99745803D01*
X125672634Y-99562290D01*
X125736280Y-99366408D01*
X125768500Y-99162981D01*
X125768500Y-98957019D01*
X125736280Y-98753592D01*
X125672634Y-98557710D01*
X125579129Y-98374197D01*
X125458068Y-98207570D01*
X125458065Y-98207567D01*
X125458063Y-98207564D01*
X125312435Y-98061936D01*
X125312432Y-98061934D01*
X125312430Y-98061932D01*
X125145803Y-97940871D01*
X125070034Y-97902265D01*
X125018422Y-97853519D01*
X125001356Y-97784604D01*
X125024257Y-97717402D01*
X125070034Y-97677735D01*
X125145803Y-97639129D01*
X125312430Y-97518068D01*
X125458068Y-97372430D01*
X125579129Y-97205803D01*
X125672634Y-97022290D01*
X125736280Y-96826408D01*
X125768500Y-96622981D01*
X125768500Y-96417019D01*
X125736280Y-96213592D01*
X125672634Y-96017710D01*
X125579129Y-95834197D01*
X125458068Y-95667570D01*
X125458065Y-95667567D01*
X125458063Y-95667564D01*
X125312435Y-95521936D01*
X125312432Y-95521934D01*
X125312430Y-95521932D01*
X125145803Y-95400871D01*
X125070034Y-95362265D01*
X125018422Y-95313519D01*
X125001356Y-95244604D01*
X125024257Y-95177402D01*
X125070034Y-95137735D01*
X125145803Y-95099129D01*
X125312430Y-94978068D01*
X125458068Y-94832430D01*
X125579129Y-94665803D01*
X125672634Y-94482290D01*
X125736280Y-94286408D01*
X125768500Y-94082981D01*
X125768500Y-93917392D01*
X135861300Y-93917392D01*
X135861300Y-94082607D01*
X135893531Y-94244640D01*
X135956754Y-94397273D01*
X136026385Y-94501483D01*
X136048540Y-94534641D01*
X136048545Y-94534647D01*
X136165352Y-94651454D01*
X136165358Y-94651459D01*
X136165360Y-94651461D01*
X136302727Y-94743246D01*
X136455360Y-94806469D01*
X136617395Y-94838700D01*
X136659620Y-94838700D01*
X136727741Y-94858702D01*
X136748710Y-94875600D01*
X137832385Y-95959276D01*
X137832386Y-95959277D01*
X137832388Y-95959278D01*
X137965709Y-96036251D01*
X137965711Y-96036251D01*
X137965714Y-96036253D01*
X138114422Y-96076099D01*
X138268376Y-96076099D01*
X138297970Y-96076099D01*
X138366091Y-96096101D01*
X138412584Y-96149757D01*
X138422688Y-96220031D01*
X138422431Y-96221724D01*
X138391500Y-96417019D01*
X138391500Y-96622981D01*
X138423720Y-96826408D01*
X138423721Y-96826412D01*
X138427525Y-96838121D01*
X138487366Y-97022290D01*
X138580871Y-97205803D01*
X138701932Y-97372430D01*
X138701934Y-97372432D01*
X138701936Y-97372435D01*
X138847564Y-97518063D01*
X138847567Y-97518065D01*
X138847570Y-97518068D01*
X139014197Y-97639129D01*
X139089962Y-97677733D01*
X139141577Y-97726482D01*
X139158643Y-97795397D01*
X139135742Y-97862598D01*
X139089963Y-97902266D01*
X139021033Y-97937387D01*
X139014193Y-97940873D01*
X138847567Y-98061934D01*
X138847564Y-98061936D01*
X138701936Y-98207564D01*
X138701934Y-98207567D01*
X138580873Y-98374193D01*
X138487367Y-98557708D01*
X138487364Y-98557714D01*
X138423721Y-98753587D01*
X138423720Y-98753590D01*
X138423720Y-98753592D01*
X138391500Y-98957019D01*
X138391500Y-99162981D01*
X138423720Y-99366408D01*
X138423721Y-99366412D01*
X138475479Y-99525708D01*
X138487366Y-99562290D01*
X138580871Y-99745803D01*
X138701932Y-99912430D01*
X138701934Y-99912432D01*
X138701936Y-99912435D01*
X138847564Y-100058063D01*
X138847567Y-100058065D01*
X138847570Y-100058068D01*
X139014197Y-100179129D01*
X139089962Y-100217733D01*
X139141577Y-100266482D01*
X139158643Y-100335397D01*
X139135742Y-100402598D01*
X139089963Y-100442266D01*
X139071403Y-100451723D01*
X139014193Y-100480873D01*
X138847567Y-100601934D01*
X138847564Y-100601936D01*
X138701936Y-100747564D01*
X138701934Y-100747567D01*
X138580873Y-100914193D01*
X138487367Y-101097708D01*
X138487364Y-101097714D01*
X138423721Y-101293587D01*
X138423720Y-101293590D01*
X138423720Y-101293592D01*
X138391500Y-101497019D01*
X138391500Y-101702981D01*
X138423720Y-101906408D01*
X138423721Y-101906412D01*
X138427525Y-101918121D01*
X138487366Y-102102290D01*
X138580871Y-102285803D01*
X138701932Y-102452430D01*
X138701934Y-102452432D01*
X138701936Y-102452435D01*
X138847564Y-102598063D01*
X138847567Y-102598065D01*
X138847570Y-102598068D01*
X138900056Y-102636201D01*
X139014193Y-102719127D01*
X139090511Y-102758013D01*
X139142126Y-102806762D01*
X139159192Y-102875677D01*
X139136291Y-102942878D01*
X139090512Y-102982546D01*
X139014456Y-103021299D01*
X139014453Y-103021301D01*
X138971625Y-103052416D01*
X139659209Y-103740000D01*
X139647339Y-103740000D01*
X139545606Y-103767259D01*
X139454394Y-103819920D01*
X139379920Y-103894394D01*
X139327259Y-103985606D01*
X139300000Y-104087339D01*
X139300000Y-104099209D01*
X138612416Y-103411625D01*
X138581301Y-103454452D01*
X138487829Y-103637900D01*
X138487826Y-103637906D01*
X138424208Y-103833703D01*
X138392000Y-104037061D01*
X138392000Y-104242938D01*
X138424208Y-104446296D01*
X138487826Y-104642093D01*
X138487829Y-104642099D01*
X138581297Y-104825540D01*
X138581298Y-104825541D01*
X138612416Y-104868372D01*
X139300000Y-104180788D01*
X139300000Y-104192661D01*
X139327259Y-104294394D01*
X139379920Y-104385606D01*
X139454394Y-104460080D01*
X139545606Y-104512741D01*
X139647339Y-104540000D01*
X139659210Y-104540000D01*
X138971626Y-105227582D01*
X138971626Y-105227583D01*
X139014454Y-105258699D01*
X139197900Y-105352170D01*
X139197906Y-105352173D01*
X139393705Y-105415791D01*
X139393701Y-105415791D01*
X139597061Y-105448000D01*
X139802939Y-105448000D01*
X140006296Y-105415791D01*
X140202093Y-105352173D01*
X140202099Y-105352170D01*
X140385541Y-105258701D01*
X140428372Y-105227582D01*
X140428372Y-105227581D01*
X139740791Y-104540000D01*
X139752661Y-104540000D01*
X139854394Y-104512741D01*
X139945606Y-104460080D01*
X140020080Y-104385606D01*
X140072741Y-104294394D01*
X140100000Y-104192661D01*
X140100000Y-104180791D01*
X140787581Y-104868372D01*
X140787582Y-104868372D01*
X140818701Y-104825541D01*
X140912170Y-104642099D01*
X140912173Y-104642093D01*
X140975791Y-104446296D01*
X141008000Y-104242938D01*
X141008000Y-104037061D01*
X140975791Y-103833703D01*
X140912173Y-103637906D01*
X140912170Y-103637900D01*
X140818699Y-103454454D01*
X140787583Y-103411626D01*
X140787582Y-103411626D01*
X140100000Y-104099208D01*
X140100000Y-104087339D01*
X140072741Y-103985606D01*
X140020080Y-103894394D01*
X139945606Y-103819920D01*
X139854394Y-103767259D01*
X139752661Y-103740000D01*
X139740790Y-103740000D01*
X140428372Y-103052416D01*
X140385541Y-103021298D01*
X140385535Y-103021294D01*
X140309487Y-102982545D01*
X140257872Y-102933797D01*
X140240807Y-102864882D01*
X140263708Y-102797680D01*
X140309485Y-102758014D01*
X140385803Y-102719129D01*
X140552430Y-102598068D01*
X140698068Y-102452430D01*
X140819129Y-102285803D01*
X140912634Y-102102290D01*
X140976280Y-101906408D01*
X141008500Y-101702981D01*
X141008500Y-101497019D01*
X140976280Y-101293592D01*
X140912634Y-101097710D01*
X140819129Y-100914197D01*
X140698068Y-100747570D01*
X140698065Y-100747567D01*
X140698063Y-100747564D01*
X140552435Y-100601936D01*
X140552432Y-100601934D01*
X140552430Y-100601932D01*
X140385803Y-100480871D01*
X140310034Y-100442265D01*
X140258422Y-100393519D01*
X140241356Y-100324604D01*
X140264257Y-100257402D01*
X140310034Y-100217735D01*
X140385803Y-100179129D01*
X140552430Y-100058068D01*
X140698068Y-99912430D01*
X140819129Y-99745803D01*
X140912634Y-99562290D01*
X140976280Y-99366408D01*
X141008500Y-99162981D01*
X141008500Y-98957019D01*
X140976280Y-98753592D01*
X140912634Y-98557710D01*
X140819129Y-98374197D01*
X140698068Y-98207570D01*
X140698065Y-98207567D01*
X140698063Y-98207564D01*
X140552435Y-98061936D01*
X140552432Y-98061934D01*
X140552430Y-98061932D01*
X140385803Y-97940871D01*
X140310034Y-97902265D01*
X140258422Y-97853519D01*
X140241356Y-97784604D01*
X140264257Y-97717402D01*
X140310034Y-97677735D01*
X140385803Y-97639129D01*
X140552430Y-97518068D01*
X140698068Y-97372430D01*
X140819129Y-97205803D01*
X140912634Y-97022290D01*
X140976280Y-96826408D01*
X141008500Y-96622981D01*
X141008500Y-96417019D01*
X140977581Y-96221807D01*
X140986681Y-96151399D01*
X141032402Y-96097085D01*
X141100231Y-96076112D01*
X141102030Y-96076099D01*
X143330019Y-96076099D01*
X143398140Y-96096101D01*
X143419114Y-96113004D01*
X148397505Y-101091396D01*
X148431531Y-101153708D01*
X148428244Y-101219425D01*
X148407951Y-101281881D01*
X148391225Y-101387484D01*
X148374500Y-101493084D01*
X148374500Y-101706916D01*
X148406097Y-101906408D01*
X148407952Y-101918121D01*
X148467790Y-102102285D01*
X148474028Y-102121483D01*
X148571106Y-102312009D01*
X148696794Y-102485004D01*
X148696796Y-102485006D01*
X148696798Y-102485009D01*
X148847990Y-102636201D01*
X148847993Y-102636203D01*
X148847996Y-102636206D01*
X149020991Y-102761894D01*
X149162005Y-102833744D01*
X149213620Y-102882491D01*
X149230686Y-102951406D01*
X149207786Y-103018607D01*
X149178864Y-103047946D01*
X149101989Y-103103799D01*
X148950798Y-103254990D01*
X148950796Y-103254993D01*
X148825108Y-103427987D01*
X148728029Y-103618515D01*
X148728026Y-103618521D01*
X148661952Y-103821878D01*
X148661951Y-103821883D01*
X148661951Y-103821884D01*
X148628500Y-104033084D01*
X148628500Y-104246916D01*
X148660079Y-104446296D01*
X148661952Y-104458121D01*
X148721790Y-104642285D01*
X148728028Y-104661483D01*
X148825106Y-104852009D01*
X148950794Y-105025004D01*
X148950796Y-105025006D01*
X148950798Y-105025009D01*
X149101990Y-105176201D01*
X149101993Y-105176203D01*
X149101996Y-105176206D01*
X149172708Y-105227581D01*
X149178863Y-105232053D01*
X149222217Y-105288275D01*
X149228292Y-105359011D01*
X149195161Y-105421803D01*
X149162006Y-105446254D01*
X149035355Y-105510786D01*
X149020987Y-105518108D01*
X148847993Y-105643796D01*
X148847990Y-105643798D01*
X148696798Y-105794990D01*
X148696796Y-105794993D01*
X148571108Y-105967987D01*
X148474029Y-106158515D01*
X148474026Y-106158521D01*
X148407952Y-106361878D01*
X148407951Y-106361883D01*
X148407951Y-106361884D01*
X148374500Y-106573084D01*
X148374500Y-106786916D01*
X148389656Y-106882605D01*
X148407952Y-106998121D01*
X148472660Y-107197273D01*
X148474028Y-107201483D01*
X148541879Y-107334647D01*
X148571108Y-107392012D01*
X148602182Y-107434781D01*
X148696794Y-107565004D01*
X148696796Y-107565006D01*
X148696798Y-107565009D01*
X148847990Y-107716201D01*
X148847993Y-107716203D01*
X148847996Y-107716206D01*
X149020991Y-107841894D01*
X149162005Y-107913744D01*
X149213620Y-107962491D01*
X149230686Y-108031406D01*
X149207786Y-108098607D01*
X149178864Y-108127946D01*
X149101989Y-108183799D01*
X148950798Y-108334990D01*
X148950796Y-108334993D01*
X148825108Y-108507987D01*
X148728029Y-108698515D01*
X148728026Y-108698521D01*
X148661952Y-108901878D01*
X148661951Y-108901883D01*
X148661951Y-108901884D01*
X148628500Y-109113084D01*
X148628500Y-109326916D01*
X148661951Y-109538116D01*
X148661952Y-109538121D01*
X148728026Y-109741478D01*
X148728028Y-109741483D01*
X148825106Y-109932009D01*
X148950794Y-110105004D01*
X148950796Y-110105006D01*
X148950798Y-110105009D01*
X149101990Y-110256201D01*
X149101993Y-110256203D01*
X149101996Y-110256206D01*
X149178863Y-110312053D01*
X149222217Y-110368275D01*
X149228292Y-110439011D01*
X149195161Y-110501803D01*
X149162006Y-110526254D01*
X149035355Y-110590786D01*
X149020987Y-110598108D01*
X148847993Y-110723796D01*
X148847990Y-110723798D01*
X148696798Y-110874990D01*
X148696796Y-110874993D01*
X148571108Y-111047987D01*
X148474029Y-111238515D01*
X148474026Y-111238521D01*
X148407952Y-111441878D01*
X148407951Y-111441883D01*
X148407951Y-111441884D01*
X148374500Y-111653084D01*
X148374500Y-111866916D01*
X148407951Y-112078116D01*
X148407952Y-112078121D01*
X148474026Y-112281478D01*
X148474028Y-112281483D01*
X148571106Y-112472009D01*
X148696794Y-112645004D01*
X148696796Y-112645006D01*
X148696798Y-112645009D01*
X148847990Y-112796201D01*
X148847993Y-112796203D01*
X148847996Y-112796206D01*
X149020991Y-112921894D01*
X149162005Y-112993744D01*
X149213620Y-113042491D01*
X149230686Y-113111406D01*
X149207786Y-113178607D01*
X149178864Y-113207946D01*
X149101989Y-113263799D01*
X148950798Y-113414990D01*
X148950796Y-113414993D01*
X148825108Y-113587987D01*
X148728029Y-113778515D01*
X148728026Y-113778521D01*
X148661952Y-113981878D01*
X148661952Y-113981880D01*
X148661951Y-113981884D01*
X148628500Y-114193084D01*
X148628500Y-114406916D01*
X148661951Y-114618116D01*
X148661952Y-114618121D01*
X148728026Y-114821478D01*
X148728028Y-114821483D01*
X148825106Y-115012009D01*
X148950794Y-115185004D01*
X148950796Y-115185006D01*
X148950798Y-115185009D01*
X149101990Y-115336201D01*
X149101993Y-115336203D01*
X149101996Y-115336206D01*
X149170499Y-115385976D01*
X149179317Y-115392383D01*
X149222671Y-115448605D01*
X149228746Y-115519342D01*
X149195614Y-115582133D01*
X149162459Y-115606586D01*
X149021250Y-115678535D01*
X148848320Y-115804177D01*
X148697177Y-115955320D01*
X148571536Y-116128249D01*
X148474493Y-116318707D01*
X148474490Y-116318713D01*
X148408440Y-116521995D01*
X148398302Y-116586000D01*
X149302297Y-116586000D01*
X149267075Y-116647007D01*
X149233000Y-116774174D01*
X149233000Y-116905826D01*
X149267075Y-117032993D01*
X149302297Y-117094000D01*
X148398302Y-117094000D01*
X148408440Y-117158004D01*
X148474490Y-117361286D01*
X148474493Y-117361292D01*
X148571536Y-117551750D01*
X148697177Y-117724679D01*
X148848320Y-117875822D01*
X149021249Y-118001463D01*
X149211707Y-118098506D01*
X149211713Y-118098509D01*
X149414998Y-118164560D01*
X149479000Y-118174696D01*
X149479000Y-117270702D01*
X149540007Y-117305925D01*
X149667174Y-117340000D01*
X149798826Y-117340000D01*
X149925993Y-117305925D01*
X149987000Y-117270702D01*
X149987000Y-118174696D01*
X150051001Y-118164560D01*
X150254286Y-118098509D01*
X150254292Y-118098506D01*
X150444750Y-118001463D01*
X150617679Y-117875822D01*
X150768822Y-117724679D01*
X150894463Y-117551750D01*
X150991506Y-117361292D01*
X150991509Y-117361286D01*
X151057559Y-117158004D01*
X151067698Y-117094000D01*
X150163703Y-117094000D01*
X150198925Y-117032993D01*
X150233000Y-116905826D01*
X150233000Y-116774174D01*
X150198925Y-116647007D01*
X150163703Y-116586000D01*
X151067697Y-116586000D01*
X151057559Y-116521995D01*
X150991509Y-116318713D01*
X150991506Y-116318707D01*
X150894463Y-116128249D01*
X150768822Y-115955320D01*
X150617679Y-115804177D01*
X150540636Y-115748202D01*
X150497282Y-115691979D01*
X150491207Y-115621243D01*
X150524339Y-115558451D01*
X150557491Y-115534000D01*
X150699009Y-115461894D01*
X150872004Y-115336206D01*
X151023206Y-115185004D01*
X151148894Y-115012009D01*
X151245972Y-114821483D01*
X151312049Y-114618116D01*
X151345500Y-114406916D01*
X151345500Y-114193084D01*
X151312049Y-113981884D01*
X151245972Y-113778517D01*
X151148894Y-113587991D01*
X151023206Y-113414996D01*
X151023203Y-113414993D01*
X151023201Y-113414990D01*
X150872009Y-113263798D01*
X150872006Y-113263796D01*
X150872004Y-113263794D01*
X150699009Y-113138106D01*
X150557992Y-113066254D01*
X150506379Y-113017508D01*
X150489313Y-112948593D01*
X150512214Y-112881391D01*
X150541133Y-112852055D01*
X150618004Y-112796206D01*
X150769206Y-112645004D01*
X150894894Y-112472009D01*
X150991972Y-112281483D01*
X151058049Y-112078116D01*
X151091500Y-111866916D01*
X151091500Y-111653084D01*
X151058049Y-111441884D01*
X150991972Y-111238517D01*
X150894894Y-111047991D01*
X150769206Y-110874996D01*
X150769203Y-110874993D01*
X150769201Y-110874990D01*
X150618006Y-110723795D01*
X150541136Y-110667946D01*
X150497782Y-110611723D01*
X150491707Y-110540987D01*
X150524839Y-110478196D01*
X150557989Y-110453747D01*
X150699009Y-110381894D01*
X150872004Y-110256206D01*
X151023206Y-110105004D01*
X151148894Y-109932009D01*
X151245972Y-109741483D01*
X151312049Y-109538116D01*
X151345500Y-109326916D01*
X151345500Y-109113084D01*
X151312049Y-108901884D01*
X151245972Y-108698517D01*
X151148894Y-108507991D01*
X151023206Y-108334996D01*
X151023203Y-108334993D01*
X151023201Y-108334990D01*
X150872009Y-108183798D01*
X150872006Y-108183796D01*
X150872004Y-108183794D01*
X150712133Y-108067641D01*
X150699012Y-108058108D01*
X150699011Y-108058107D01*
X150699009Y-108058106D01*
X150557992Y-107986254D01*
X150506379Y-107937508D01*
X150489313Y-107868593D01*
X150512214Y-107801391D01*
X150541133Y-107772055D01*
X150618004Y-107716206D01*
X150769206Y-107565004D01*
X150894894Y-107392009D01*
X150991972Y-107201483D01*
X151058049Y-106998116D01*
X151091500Y-106786916D01*
X151091500Y-106573084D01*
X151058049Y-106361884D01*
X150991972Y-106158517D01*
X150894894Y-105967991D01*
X150769206Y-105794996D01*
X150769203Y-105794993D01*
X150769201Y-105794990D01*
X150618006Y-105643795D01*
X150541136Y-105587946D01*
X150497782Y-105531723D01*
X150491707Y-105460987D01*
X150524839Y-105398196D01*
X150557989Y-105373747D01*
X150699009Y-105301894D01*
X150872004Y-105176206D01*
X151023206Y-105025004D01*
X151148894Y-104852009D01*
X151245972Y-104661483D01*
X151312049Y-104458116D01*
X151345500Y-104246916D01*
X151345500Y-104033084D01*
X151312049Y-103821884D01*
X151245972Y-103618517D01*
X151148894Y-103427991D01*
X151023206Y-103254996D01*
X151023203Y-103254993D01*
X151023201Y-103254990D01*
X150872009Y-103103798D01*
X150872006Y-103103796D01*
X150872004Y-103103794D01*
X150699009Y-102978106D01*
X150557992Y-102906254D01*
X150506379Y-102857508D01*
X150489313Y-102788593D01*
X150512214Y-102721391D01*
X150541133Y-102692055D01*
X150618004Y-102636206D01*
X150769206Y-102485004D01*
X150894894Y-102312009D01*
X150991972Y-102121483D01*
X151058049Y-101918116D01*
X151091500Y-101706916D01*
X151091500Y-101493084D01*
X151058049Y-101281884D01*
X150991972Y-101078517D01*
X150894894Y-100887991D01*
X150769206Y-100714996D01*
X150769203Y-100714993D01*
X150769201Y-100714990D01*
X150618006Y-100563795D01*
X150541136Y-100507946D01*
X150497782Y-100451723D01*
X150491707Y-100380987D01*
X150524839Y-100318196D01*
X150557989Y-100293747D01*
X150699009Y-100221894D01*
X150872004Y-100096206D01*
X151023206Y-99945004D01*
X151148894Y-99772009D01*
X151245972Y-99581483D01*
X151312049Y-99378116D01*
X151345500Y-99166916D01*
X151345500Y-98953084D01*
X151312049Y-98741884D01*
X151245972Y-98538517D01*
X151148894Y-98347991D01*
X151023206Y-98174996D01*
X151023203Y-98174993D01*
X151023201Y-98174990D01*
X150872009Y-98023798D01*
X150872006Y-98023796D01*
X150872004Y-98023794D01*
X150699009Y-97898106D01*
X150557992Y-97826254D01*
X150506379Y-97777508D01*
X150489313Y-97708593D01*
X150512214Y-97641391D01*
X150541133Y-97612055D01*
X150618004Y-97556206D01*
X150769206Y-97405004D01*
X150894894Y-97232009D01*
X150991972Y-97041483D01*
X151058049Y-96838116D01*
X151091500Y-96626916D01*
X151091500Y-96413084D01*
X151058049Y-96201884D01*
X150991972Y-95998517D01*
X150894894Y-95807991D01*
X150769206Y-95634996D01*
X150769203Y-95634993D01*
X150769201Y-95634990D01*
X150618006Y-95483795D01*
X150541136Y-95427946D01*
X150497782Y-95371723D01*
X150491707Y-95300987D01*
X150524839Y-95238196D01*
X150557989Y-95213747D01*
X150699009Y-95141894D01*
X150872004Y-95016206D01*
X151023206Y-94865004D01*
X151148894Y-94692009D01*
X151245972Y-94501483D01*
X151312049Y-94298116D01*
X151345500Y-94086916D01*
X151345500Y-93873084D01*
X151312049Y-93661884D01*
X151245972Y-93458517D01*
X151148894Y-93267991D01*
X151023206Y-93094996D01*
X151023203Y-93094993D01*
X151023201Y-93094990D01*
X150872009Y-92943798D01*
X150872006Y-92943796D01*
X150872004Y-92943794D01*
X150699009Y-92818106D01*
X150557992Y-92746254D01*
X150506379Y-92697508D01*
X150489313Y-92628593D01*
X150512214Y-92561391D01*
X150541133Y-92532055D01*
X150618004Y-92476206D01*
X150769206Y-92325004D01*
X150894894Y-92152009D01*
X150991972Y-91961483D01*
X151058049Y-91758116D01*
X151091500Y-91546916D01*
X151091500Y-91333084D01*
X151058049Y-91121884D01*
X150991972Y-90918517D01*
X150894894Y-90727991D01*
X150769206Y-90554996D01*
X150769203Y-90554993D01*
X150769201Y-90554990D01*
X150618006Y-90403795D01*
X150541136Y-90347946D01*
X150497782Y-90291723D01*
X150491707Y-90220987D01*
X150524839Y-90158196D01*
X150557989Y-90133747D01*
X150699009Y-90061894D01*
X150872004Y-89936206D01*
X151023206Y-89785004D01*
X151148894Y-89612009D01*
X151245972Y-89421483D01*
X151312049Y-89218116D01*
X151345500Y-89006916D01*
X151345500Y-88793084D01*
X151312049Y-88581884D01*
X151245972Y-88378517D01*
X151148894Y-88187991D01*
X151023206Y-88014996D01*
X151023203Y-88014993D01*
X151023201Y-88014990D01*
X150872009Y-87863798D01*
X150872006Y-87863796D01*
X150872004Y-87863794D01*
X150699009Y-87738106D01*
X150557992Y-87666254D01*
X150506379Y-87617508D01*
X150489313Y-87548593D01*
X150512214Y-87481391D01*
X150541133Y-87452055D01*
X150618004Y-87396206D01*
X150769206Y-87245004D01*
X150894894Y-87072009D01*
X150991972Y-86881483D01*
X151058049Y-86678116D01*
X151091500Y-86466916D01*
X151091500Y-86253084D01*
X151058049Y-86041884D01*
X150991972Y-85838517D01*
X150894894Y-85647991D01*
X150769206Y-85474996D01*
X150769203Y-85474993D01*
X150769201Y-85474990D01*
X150618006Y-85323795D01*
X150541136Y-85267946D01*
X150497782Y-85211723D01*
X150491707Y-85140987D01*
X150524839Y-85078196D01*
X150557989Y-85053747D01*
X150699009Y-84981894D01*
X150872004Y-84856206D01*
X151023206Y-84705004D01*
X151148894Y-84532009D01*
X151245972Y-84341483D01*
X151312049Y-84138116D01*
X151345500Y-83926916D01*
X151345500Y-83713084D01*
X151312049Y-83501884D01*
X151245972Y-83298517D01*
X151148894Y-83107991D01*
X151023206Y-82934996D01*
X151023203Y-82934993D01*
X151023201Y-82934990D01*
X150872009Y-82783798D01*
X150872006Y-82783796D01*
X150872004Y-82783794D01*
X150699009Y-82658106D01*
X150557992Y-82586254D01*
X150506379Y-82537508D01*
X150489313Y-82468593D01*
X150512214Y-82401391D01*
X150541133Y-82372055D01*
X150618004Y-82316206D01*
X150769206Y-82165004D01*
X150894894Y-81992009D01*
X150991972Y-81801483D01*
X151058049Y-81598116D01*
X151091500Y-81386916D01*
X151091500Y-81173084D01*
X151058049Y-80961884D01*
X150991972Y-80758517D01*
X150894894Y-80567991D01*
X150769206Y-80394996D01*
X150769203Y-80394993D01*
X150769201Y-80394990D01*
X150618006Y-80243795D01*
X150541136Y-80187946D01*
X150497782Y-80131723D01*
X150491707Y-80060987D01*
X150524839Y-79998196D01*
X150557989Y-79973747D01*
X150699009Y-79901894D01*
X150872004Y-79776206D01*
X151023206Y-79625004D01*
X151148894Y-79452009D01*
X151245972Y-79261483D01*
X151312049Y-79058116D01*
X151345500Y-78846916D01*
X151345500Y-78633084D01*
X151312049Y-78421884D01*
X151245972Y-78218517D01*
X151148894Y-78027991D01*
X151023206Y-77854996D01*
X151023203Y-77854993D01*
X151023201Y-77854990D01*
X150872009Y-77703798D01*
X150872005Y-77703795D01*
X150872004Y-77703794D01*
X150850949Y-77688497D01*
X150807597Y-77632277D01*
X150801520Y-77561541D01*
X150834651Y-77498749D01*
X150849502Y-77485694D01*
X150850089Y-77485255D01*
X150946261Y-77413261D01*
X151033889Y-77296204D01*
X151084989Y-77159201D01*
X151091500Y-77098638D01*
X151091500Y-75301362D01*
X151091499Y-75301350D01*
X151084990Y-75240803D01*
X151084988Y-75240795D01*
X151033889Y-75103797D01*
X151033887Y-75103792D01*
X150946261Y-74986738D01*
X150829207Y-74899112D01*
X150829202Y-74899110D01*
X150692204Y-74848011D01*
X150692196Y-74848009D01*
X150631649Y-74841500D01*
X150631638Y-74841500D01*
X148834362Y-74841500D01*
X148834350Y-74841500D01*
X148773803Y-74848009D01*
X148773795Y-74848011D01*
X148636797Y-74899110D01*
X148636792Y-74899112D01*
X148519738Y-74986738D01*
X148432112Y-75103792D01*
X148432110Y-75103797D01*
X148381011Y-75240795D01*
X148381009Y-75240803D01*
X148374500Y-75301350D01*
X148374500Y-77098649D01*
X148381009Y-77159196D01*
X148381011Y-77159204D01*
X148432110Y-77296202D01*
X148432112Y-77296207D01*
X148519738Y-77413261D01*
X148636792Y-77500887D01*
X148636794Y-77500888D01*
X148636796Y-77500889D01*
X148657202Y-77508500D01*
X148773795Y-77551988D01*
X148773803Y-77551990D01*
X148834350Y-77558499D01*
X148834355Y-77558499D01*
X148834362Y-77558500D01*
X148943099Y-77558500D01*
X149011220Y-77578502D01*
X149057713Y-77632158D01*
X149067817Y-77702432D01*
X149038323Y-77767012D01*
X149032194Y-77773595D01*
X148950798Y-77854990D01*
X148950796Y-77854993D01*
X148825108Y-78027987D01*
X148728029Y-78218515D01*
X148728026Y-78218521D01*
X148661952Y-78421878D01*
X148661951Y-78421883D01*
X148661951Y-78421884D01*
X148628500Y-78633084D01*
X148628500Y-78846916D01*
X148660097Y-79046408D01*
X148661952Y-79058121D01*
X148721790Y-79242285D01*
X148728028Y-79261483D01*
X148728029Y-79261484D01*
X148825107Y-79452011D01*
X148835735Y-79466639D01*
X148859593Y-79533508D01*
X148843511Y-79602659D01*
X148792597Y-79652138D01*
X148733798Y-79666699D01*
X140891397Y-79666699D01*
X140823276Y-79646697D01*
X140776783Y-79593041D01*
X140766679Y-79522767D01*
X140789461Y-79466638D01*
X140800089Y-79452009D01*
X140819129Y-79425803D01*
X140912634Y-79242290D01*
X140976280Y-79046408D01*
X141008500Y-78842981D01*
X141008500Y-78637019D01*
X140976280Y-78433592D01*
X140912634Y-78237710D01*
X140819129Y-78054197D01*
X140698068Y-77887570D01*
X140698065Y-77887567D01*
X140698063Y-77887564D01*
X140552435Y-77741936D01*
X140552432Y-77741934D01*
X140552431Y-77741933D01*
X140552430Y-77741932D01*
X140385803Y-77620871D01*
X140310034Y-77582265D01*
X140258422Y-77533519D01*
X140241356Y-77464604D01*
X140264257Y-77397402D01*
X140310034Y-77357735D01*
X140385803Y-77319129D01*
X140552430Y-77198068D01*
X140698068Y-77052430D01*
X140819129Y-76885803D01*
X140912634Y-76702290D01*
X140976280Y-76506408D01*
X141008500Y-76302981D01*
X141008500Y-76097019D01*
X140976280Y-75893592D01*
X140912634Y-75697710D01*
X140819129Y-75514197D01*
X140698068Y-75347570D01*
X140698065Y-75347567D01*
X140698063Y-75347564D01*
X140552435Y-75201936D01*
X140552432Y-75201934D01*
X140552430Y-75201932D01*
X140385803Y-75080871D01*
X140202290Y-74987366D01*
X140202287Y-74987365D01*
X140202285Y-74987364D01*
X140006412Y-74923721D01*
X140006410Y-74923720D01*
X140006408Y-74923720D01*
X139802981Y-74891500D01*
X139597019Y-74891500D01*
X139393592Y-74923720D01*
X139393590Y-74923720D01*
X139393587Y-74923721D01*
X139197714Y-74987364D01*
X139197708Y-74987367D01*
X139014193Y-75080873D01*
X138847567Y-75201934D01*
X138847564Y-75201936D01*
X138701936Y-75347564D01*
X138701934Y-75347567D01*
X138580873Y-75514193D01*
X138487367Y-75697708D01*
X138487364Y-75697714D01*
X138423721Y-75893587D01*
X138423720Y-75893590D01*
X138423720Y-75893592D01*
X138391500Y-76097019D01*
X138391500Y-76302981D01*
X138423720Y-76506408D01*
X138423721Y-76506412D01*
X138427525Y-76518121D01*
X138487366Y-76702290D01*
X138580871Y-76885803D01*
X138701932Y-77052430D01*
X138701934Y-77052432D01*
X138701936Y-77052435D01*
X138847564Y-77198063D01*
X138847567Y-77198065D01*
X138847570Y-77198068D01*
X139014197Y-77319129D01*
X139089962Y-77357733D01*
X139141577Y-77406482D01*
X139158643Y-77475397D01*
X139135742Y-77542598D01*
X139089963Y-77582266D01*
X139021033Y-77617387D01*
X139014193Y-77620873D01*
X138847567Y-77741934D01*
X138847564Y-77741936D01*
X138701936Y-77887564D01*
X138701934Y-77887567D01*
X138580873Y-78054193D01*
X138487367Y-78237708D01*
X138487364Y-78237714D01*
X138423721Y-78433587D01*
X138423720Y-78433590D01*
X138423720Y-78433592D01*
X138391500Y-78637019D01*
X138391500Y-78842981D01*
X138423720Y-79046408D01*
X138423721Y-79046412D01*
X138427525Y-79058121D01*
X138487366Y-79242290D01*
X138497146Y-79261484D01*
X138580873Y-79425806D01*
X138610539Y-79466638D01*
X138634398Y-79533506D01*
X138618317Y-79602658D01*
X138567403Y-79652138D01*
X138508603Y-79666699D01*
X138471624Y-79666699D01*
X138372484Y-79693263D01*
X138322914Y-79706546D01*
X138189590Y-79783520D01*
X138189584Y-79783525D01*
X138075377Y-79897733D01*
X137748713Y-80224396D01*
X137686403Y-80258420D01*
X137659620Y-80261300D01*
X137617392Y-80261300D01*
X137455358Y-80293531D01*
X137455357Y-80293532D01*
X137302725Y-80356755D01*
X137165358Y-80448540D01*
X137165352Y-80448545D01*
X137048545Y-80565352D01*
X137048540Y-80565358D01*
X136956755Y-80702725D01*
X136893532Y-80855357D01*
X136893531Y-80855358D01*
X136861300Y-81017392D01*
X136861300Y-81017395D01*
X136861300Y-81182605D01*
X136893531Y-81344640D01*
X136956754Y-81497273D01*
X137039351Y-81620888D01*
X137048540Y-81634641D01*
X137048545Y-81634647D01*
X137165352Y-81751454D01*
X137165358Y-81751459D01*
X137165360Y-81751461D01*
X137302727Y-81843246D01*
X137455360Y-81906469D01*
X137617395Y-81938700D01*
X137617396Y-81938700D01*
X137782604Y-81938700D01*
X137782605Y-81938700D01*
X137944640Y-81906469D01*
X138097273Y-81843246D01*
X138234640Y-81751461D01*
X138272437Y-81713663D01*
X138334747Y-81679639D01*
X138405563Y-81684703D01*
X138462399Y-81727249D01*
X138481364Y-81763818D01*
X138487366Y-81782290D01*
X138580871Y-81965803D01*
X138701932Y-82132430D01*
X138701934Y-82132432D01*
X138701936Y-82132435D01*
X138847564Y-82278063D01*
X138847567Y-82278065D01*
X138847570Y-82278068D01*
X139014197Y-82399129D01*
X139089962Y-82437733D01*
X139141577Y-82486482D01*
X139158643Y-82555397D01*
X139135742Y-82622598D01*
X139089963Y-82662266D01*
X139021033Y-82697387D01*
X139014193Y-82700873D01*
X138847567Y-82821934D01*
X138847564Y-82821936D01*
X138701936Y-82967564D01*
X138701934Y-82967567D01*
X138580873Y-83134193D01*
X138487367Y-83317708D01*
X138487364Y-83317714D01*
X138423721Y-83513587D01*
X138423720Y-83513590D01*
X138423720Y-83513592D01*
X138391500Y-83717019D01*
X138391500Y-83922981D01*
X138423720Y-84126408D01*
X138423721Y-84126412D01*
X138427525Y-84138121D01*
X138487366Y-84322290D01*
X138580871Y-84505803D01*
X138701932Y-84672430D01*
X138701934Y-84672432D01*
X138701936Y-84672435D01*
X138847564Y-84818063D01*
X138847567Y-84818065D01*
X138847570Y-84818068D01*
X139014197Y-84939129D01*
X139089962Y-84977733D01*
X139141577Y-85026482D01*
X139158643Y-85095397D01*
X139135742Y-85162598D01*
X139089963Y-85202266D01*
X139071403Y-85211723D01*
X139014193Y-85240873D01*
X138847567Y-85361934D01*
X138847564Y-85361936D01*
X138701936Y-85507564D01*
X138701934Y-85507567D01*
X138580873Y-85674193D01*
X138487367Y-85857708D01*
X138487364Y-85857714D01*
X138423721Y-86053587D01*
X138423720Y-86053590D01*
X138423720Y-86053592D01*
X138391500Y-86257019D01*
X138391500Y-86462981D01*
X138423720Y-86666408D01*
X138423721Y-86666412D01*
X138427525Y-86678121D01*
X138487366Y-86862290D01*
X138580871Y-87045803D01*
X138701932Y-87212430D01*
X138701934Y-87212432D01*
X138701936Y-87212435D01*
X138847564Y-87358063D01*
X138847567Y-87358065D01*
X138847570Y-87358068D01*
X139014197Y-87479129D01*
X139089962Y-87517733D01*
X139141577Y-87566482D01*
X139158643Y-87635397D01*
X139135742Y-87702598D01*
X139089963Y-87742266D01*
X139021033Y-87777387D01*
X139014193Y-87780873D01*
X138847567Y-87901934D01*
X138847564Y-87901936D01*
X138701936Y-88047564D01*
X138701934Y-88047567D01*
X138580873Y-88214193D01*
X138487367Y-88397708D01*
X138487364Y-88397714D01*
X138423721Y-88593587D01*
X138423720Y-88593590D01*
X138423720Y-88593592D01*
X138391500Y-88797019D01*
X138391500Y-89002981D01*
X138406435Y-89097273D01*
X138423721Y-89206412D01*
X138477447Y-89371765D01*
X138487366Y-89402290D01*
X138580871Y-89585803D01*
X138701932Y-89752430D01*
X138701934Y-89752432D01*
X138701936Y-89752435D01*
X138847564Y-89898063D01*
X138847567Y-89898065D01*
X138847570Y-89898068D01*
X139014197Y-90019129D01*
X139089962Y-90057733D01*
X139141577Y-90106482D01*
X139158643Y-90175397D01*
X139135742Y-90242598D01*
X139089963Y-90282266D01*
X139071403Y-90291723D01*
X139014193Y-90320873D01*
X138847567Y-90441934D01*
X138847564Y-90441936D01*
X138701936Y-90587564D01*
X138701934Y-90587567D01*
X138580873Y-90754193D01*
X138487367Y-90937708D01*
X138487364Y-90937714D01*
X138423721Y-91133587D01*
X138423720Y-91133590D01*
X138423720Y-91133592D01*
X138391500Y-91337019D01*
X138391500Y-91542981D01*
X138423720Y-91746408D01*
X138423721Y-91746412D01*
X138427525Y-91758121D01*
X138487366Y-91942290D01*
X138580871Y-92125803D01*
X138701932Y-92292430D01*
X138701934Y-92292432D01*
X138701936Y-92292435D01*
X138847564Y-92438063D01*
X138847567Y-92438065D01*
X138847570Y-92438068D01*
X139014197Y-92559129D01*
X139089962Y-92597733D01*
X139141577Y-92646482D01*
X139158643Y-92715397D01*
X139135742Y-92782598D01*
X139089963Y-92822266D01*
X139021033Y-92857387D01*
X139014193Y-92860873D01*
X138847567Y-92981934D01*
X138847564Y-92981936D01*
X138701936Y-93127564D01*
X138701934Y-93127567D01*
X138580873Y-93294193D01*
X138487367Y-93477708D01*
X138487364Y-93477714D01*
X138423721Y-93673587D01*
X138423720Y-93673590D01*
X138423720Y-93673592D01*
X138391500Y-93877019D01*
X138391500Y-94082981D01*
X138417105Y-94244640D01*
X138423721Y-94286412D01*
X138459742Y-94397274D01*
X138487366Y-94482290D01*
X138580871Y-94665803D01*
X138580873Y-94665806D01*
X138610539Y-94706638D01*
X138614838Y-94718687D01*
X138623217Y-94728357D01*
X138626543Y-94751492D01*
X138634398Y-94773506D01*
X138631500Y-94785967D01*
X138633321Y-94798631D01*
X138623611Y-94819891D01*
X138618317Y-94842658D01*
X138609140Y-94851575D01*
X138603827Y-94863211D01*
X138584167Y-94875845D01*
X138567403Y-94892138D01*
X138553433Y-94895597D01*
X138544101Y-94901595D01*
X138508603Y-94906699D01*
X138485780Y-94906699D01*
X138417659Y-94886697D01*
X138396685Y-94869794D01*
X137575605Y-94048714D01*
X137541579Y-93986402D01*
X137538700Y-93959619D01*
X137538700Y-93917396D01*
X137538699Y-93917392D01*
X137530669Y-93877022D01*
X137506469Y-93755360D01*
X137443246Y-93602727D01*
X137351461Y-93465360D01*
X137351459Y-93465358D01*
X137351454Y-93465352D01*
X137234647Y-93348545D01*
X137234641Y-93348540D01*
X137153311Y-93294197D01*
X137097273Y-93256754D01*
X136944641Y-93193531D01*
X136782607Y-93161300D01*
X136782605Y-93161300D01*
X136617395Y-93161300D01*
X136617392Y-93161300D01*
X136455358Y-93193531D01*
X136455357Y-93193532D01*
X136302725Y-93256755D01*
X136165358Y-93348540D01*
X136165352Y-93348545D01*
X136048545Y-93465352D01*
X136048540Y-93465358D01*
X135956755Y-93602725D01*
X135893532Y-93755357D01*
X135893531Y-93755358D01*
X135861300Y-93917392D01*
X125768500Y-93917392D01*
X125768500Y-93877019D01*
X125736280Y-93673592D01*
X125672634Y-93477710D01*
X125579129Y-93294197D01*
X125458068Y-93127570D01*
X125458065Y-93127567D01*
X125458063Y-93127564D01*
X125312435Y-92981936D01*
X125312432Y-92981934D01*
X125312430Y-92981932D01*
X125145803Y-92860871D01*
X125070034Y-92822265D01*
X125018422Y-92773519D01*
X125001356Y-92704604D01*
X125024257Y-92637402D01*
X125070034Y-92597735D01*
X125145803Y-92559129D01*
X125312430Y-92438068D01*
X125458068Y-92292430D01*
X125579129Y-92125803D01*
X125672634Y-91942290D01*
X125736280Y-91746408D01*
X125768500Y-91542981D01*
X125768500Y-91337019D01*
X125736280Y-91133592D01*
X125672634Y-90937710D01*
X125579129Y-90754197D01*
X125458068Y-90587570D01*
X125458065Y-90587567D01*
X125458063Y-90587564D01*
X125312435Y-90441936D01*
X125312432Y-90441934D01*
X125312430Y-90441932D01*
X125145803Y-90320871D01*
X125070034Y-90282265D01*
X125018422Y-90233519D01*
X125001356Y-90164604D01*
X125024257Y-90097402D01*
X125070034Y-90057735D01*
X125145803Y-90019129D01*
X125312430Y-89898068D01*
X125458068Y-89752430D01*
X125579129Y-89585803D01*
X125672634Y-89402290D01*
X125736280Y-89206408D01*
X125768500Y-89002981D01*
X125768500Y-88797019D01*
X125736280Y-88593592D01*
X125672634Y-88397710D01*
X125579129Y-88214197D01*
X125458068Y-88047570D01*
X125458065Y-88047567D01*
X125458063Y-88047564D01*
X125312435Y-87901936D01*
X125312432Y-87901934D01*
X125312430Y-87901932D01*
X125145803Y-87780871D01*
X125070034Y-87742265D01*
X125018422Y-87693519D01*
X125001356Y-87624604D01*
X125024257Y-87557402D01*
X125070034Y-87517735D01*
X125145803Y-87479129D01*
X125312430Y-87358068D01*
X125458068Y-87212430D01*
X125579129Y-87045803D01*
X125672634Y-86862290D01*
X125736280Y-86666408D01*
X125768500Y-86462981D01*
X125768500Y-86257019D01*
X125736280Y-86053592D01*
X125672634Y-85857710D01*
X125579129Y-85674197D01*
X125458068Y-85507570D01*
X125458065Y-85507567D01*
X125458063Y-85507564D01*
X125312435Y-85361936D01*
X125312432Y-85361934D01*
X125312430Y-85361932D01*
X125145803Y-85240871D01*
X125070034Y-85202265D01*
X125018422Y-85153519D01*
X125001356Y-85084604D01*
X125024257Y-85017402D01*
X125070034Y-84977735D01*
X125145803Y-84939129D01*
X125312430Y-84818068D01*
X125458068Y-84672430D01*
X125579129Y-84505803D01*
X125672634Y-84322290D01*
X125736280Y-84126408D01*
X125768500Y-83922981D01*
X125768500Y-83717019D01*
X125736280Y-83513592D01*
X125672634Y-83317710D01*
X125579129Y-83134197D01*
X125458068Y-82967570D01*
X125458065Y-82967567D01*
X125458063Y-82967564D01*
X125312435Y-82821936D01*
X125312432Y-82821934D01*
X125312430Y-82821932D01*
X125145803Y-82700871D01*
X125070034Y-82662265D01*
X125018422Y-82613519D01*
X125001356Y-82544604D01*
X125024257Y-82477402D01*
X125070034Y-82437735D01*
X125145803Y-82399129D01*
X125312430Y-82278068D01*
X125458068Y-82132430D01*
X125579129Y-81965803D01*
X125672634Y-81782290D01*
X125736280Y-81586408D01*
X125768500Y-81382981D01*
X125768500Y-81177019D01*
X125736280Y-80973592D01*
X125672634Y-80777710D01*
X125579129Y-80594197D01*
X125458068Y-80427570D01*
X125458065Y-80427567D01*
X125458063Y-80427564D01*
X125312435Y-80281936D01*
X125312432Y-80281934D01*
X125312430Y-80281932D01*
X125145803Y-80160871D01*
X125070034Y-80122265D01*
X125018422Y-80073519D01*
X125001356Y-80004604D01*
X125024257Y-79937402D01*
X125070034Y-79897735D01*
X125145803Y-79859129D01*
X125312430Y-79738068D01*
X125458068Y-79592430D01*
X125579129Y-79425803D01*
X125672634Y-79242290D01*
X125736280Y-79046408D01*
X125768500Y-78842981D01*
X125768500Y-78637019D01*
X125736280Y-78433592D01*
X125672634Y-78237710D01*
X125579129Y-78054197D01*
X125458068Y-77887570D01*
X125458065Y-77887567D01*
X125458063Y-77887564D01*
X125312435Y-77741936D01*
X125312432Y-77741934D01*
X125312431Y-77741933D01*
X125312430Y-77741932D01*
X125234013Y-77684959D01*
X125190660Y-77628738D01*
X125184585Y-77558002D01*
X125217716Y-77495210D01*
X125268440Y-77463420D01*
X125332738Y-77442115D01*
X125483652Y-77349030D01*
X125609030Y-77223652D01*
X125702115Y-77072738D01*
X125757887Y-76904426D01*
X125768500Y-76800545D01*
X125768499Y-75599456D01*
X125757887Y-75495574D01*
X125702115Y-75327262D01*
X125609030Y-75176348D01*
X125609029Y-75176347D01*
X125609024Y-75176341D01*
X125483658Y-75050975D01*
X125483652Y-75050970D01*
X125462796Y-75038106D01*
X125332738Y-74957885D01*
X125229633Y-74923720D01*
X125164427Y-74902113D01*
X125164420Y-74902112D01*
X125060553Y-74891500D01*
X123859455Y-74891500D01*
X123755574Y-74902112D01*
X123587261Y-74957885D01*
X123436347Y-75050970D01*
X123436341Y-75050975D01*
X123310975Y-75176341D01*
X123310970Y-75176347D01*
X123217885Y-75327262D01*
X123162113Y-75495572D01*
X123162112Y-75495579D01*
X123151500Y-75599446D01*
X120598683Y-75599446D01*
X120541894Y-75487991D01*
X120416206Y-75314996D01*
X120416203Y-75314993D01*
X120416201Y-75314990D01*
X120265009Y-75163798D01*
X120265006Y-75163796D01*
X120265004Y-75163794D01*
X120092009Y-75038106D01*
X119901483Y-74941028D01*
X119901480Y-74941027D01*
X119901478Y-74941026D01*
X119698120Y-74874952D01*
X119698123Y-74874952D01*
X119658801Y-74868724D01*
X119486916Y-74841500D01*
X119273084Y-74841500D01*
X119061884Y-74874951D01*
X119061878Y-74874952D01*
X118858521Y-74941026D01*
X118858515Y-74941029D01*
X118667987Y-75038108D01*
X118494993Y-75163796D01*
X118494990Y-75163798D01*
X118343798Y-75314990D01*
X118343796Y-75314993D01*
X118218108Y-75487987D01*
X118121029Y-75678515D01*
X118121026Y-75678521D01*
X118054952Y-75881878D01*
X118054951Y-75881883D01*
X118054951Y-75881884D01*
X118021500Y-76093084D01*
X107911500Y-76093084D01*
X107911500Y-75301362D01*
X107911499Y-75301350D01*
X107904990Y-75240803D01*
X107904988Y-75240795D01*
X107853889Y-75103797D01*
X107853887Y-75103792D01*
X107766261Y-74986738D01*
X107649207Y-74899112D01*
X107649202Y-74899110D01*
X107512204Y-74848011D01*
X107512196Y-74848009D01*
X107451649Y-74841500D01*
X107451638Y-74841500D01*
X105654362Y-74841500D01*
X105654350Y-74841500D01*
X105593803Y-74848009D01*
X105593795Y-74848011D01*
X105456797Y-74899110D01*
X105456792Y-74899112D01*
X105339738Y-74986738D01*
X105252112Y-75103792D01*
X105252110Y-75103797D01*
X105201011Y-75240795D01*
X105201009Y-75240803D01*
X105194500Y-75301350D01*
X104215500Y-75301350D01*
X104215500Y-73664955D01*
X104215888Y-73655069D01*
X104229428Y-73483024D01*
X104232521Y-73463496D01*
X104271648Y-73300520D01*
X104277758Y-73281716D01*
X104341899Y-73126865D01*
X104350869Y-73109259D01*
X104438455Y-72966333D01*
X104450066Y-72950354D01*
X104558928Y-72822892D01*
X104572892Y-72808928D01*
X104700354Y-72700066D01*
X104716333Y-72688455D01*
X104859259Y-72600869D01*
X104876865Y-72591899D01*
X105031721Y-72527756D01*
X105050515Y-72521649D01*
X105213497Y-72482520D01*
X105233023Y-72479428D01*
X105405070Y-72465888D01*
X105414956Y-72465500D01*
X105434531Y-72465500D01*
X151105469Y-72465500D01*
X151125044Y-72465500D01*
X151134930Y-72465888D01*
G37*
%TD.AperFunction*%
%TD*%
M02*
