M48
; DRILL file {KiCad (6.0.11-0)} date Saturday, April 29, 2023 at 02:31:10 PM
; FORMAT={-:-/ absolute / inch / decimal}
; #@! TF.CreationDate,2023-04-29T14:31:10-04:00
; #@! TF.GenerationSoftware,Kicad,Pcbnew,(6.0.11-0)
; #@! TF.FileFunction,NonPlated,1,2,NPTH
FMAT,2
INCH
; #@! TA.AperFunction,NonPlated,NPTH,ComponentDrill
T1C0.0560
%
G90
G05
T1
X3.3563Y-1.2094
X3.3563Y-1.4654
X3.3563Y-1.9575
X3.3563Y-2.2134
X3.3563Y-2.7055
X3.3563Y-2.9614
X3.3563Y-3.4535
X3.3563Y-3.7094
X3.3563Y-4.2016
X3.3563Y-4.4575
X3.7894Y-1.2094
X3.7894Y-1.4654
X3.7894Y-1.9575
X3.7894Y-2.2134
X3.7894Y-2.7055
X3.7894Y-2.9614
X3.7894Y-3.4535
X3.7894Y-3.7094
X3.7894Y-4.2016
X3.7894Y-4.4575
X4.7146Y-1.2094
X4.7146Y-1.4654
X4.7146Y-1.9575
X4.7146Y-2.2134
X4.7146Y-2.7055
X4.7146Y-2.9614
X4.7146Y-3.4535
X4.7146Y-3.7094
X4.7146Y-4.2016
X4.7146Y-4.4575
X5.1476Y-1.2094
X5.1476Y-1.4654
X5.1476Y-1.9575
X5.1476Y-2.2134
X5.1476Y-2.7055
X5.1476Y-2.9614
X5.1476Y-3.4535
X5.1476Y-3.7094
X5.1476Y-4.2016
X5.1476Y-4.4575
X6.0728Y-1.2094
X6.0728Y-1.4654
X6.0728Y-1.9575
X6.0728Y-2.2134
X6.0728Y-2.7055
X6.0728Y-2.9614
X6.0728Y-3.4535
X6.0728Y-3.7094
X6.0728Y-4.2016
X6.0728Y-4.4575
X6.5059Y-1.2094
X6.5059Y-1.4654
X6.5059Y-1.9575
X6.5059Y-2.2134
X6.5059Y-2.7055
X6.5059Y-2.9614
X6.5059Y-3.4535
X6.5059Y-3.7094
X6.5059Y-4.2016
X6.5059Y-4.4575
X7.4311Y-1.2094
X7.4311Y-1.4654
X7.4311Y-1.9575
X7.4311Y-2.2134
X7.4311Y-2.7055
X7.4311Y-2.9614
X7.4311Y-3.4535
X7.4311Y-3.7094
X7.4311Y-4.2016
X7.4311Y-4.4575
X7.8642Y-1.2094
X7.8642Y-1.4654
X7.8642Y-1.9575
X7.8642Y-2.2134
X7.8642Y-2.7055
X7.8642Y-2.9614
X7.8642Y-3.4535
X7.8642Y-3.7094
X7.8642Y-4.2016
X7.8642Y-4.4575
T0
M30
