%TF.GenerationSoftware,KiCad,Pcbnew,(6.0.11-0)*%
%TF.CreationDate,2023-04-29T14:31:07-04:00*%
%TF.ProjectId,pcb_coating_tool_array,7063625f-636f-4617-9469-6e675f746f6f,rev?*%
%TF.SameCoordinates,Original*%
%TF.FileFunction,Legend,Top*%
%TF.FilePolarity,Positive*%
%FSLAX46Y46*%
G04 Gerber Fmt 4.6, Leading zero omitted, Abs format (unit mm)*
G04 Created by KiCad (PCBNEW (6.0.11-0)) date 2023-04-29 14:31:07*
%MOMM*%
%LPD*%
G01*
G04 APERTURE LIST*
%ADD10C,0.150000*%
%ADD11C,0.300000*%
G04 APERTURE END LIST*
D10*
X97495000Y-49500000D02*
G75*
G03*
X96495000Y-48500000I-1000000J0D01*
G01*
X200995000Y-30500000D02*
G75*
G03*
X199995000Y-29500000I-1000000J0D01*
G01*
X166495000Y-30500000D02*
G75*
G03*
X165495000Y-29500000I-1000000J0D01*
G01*
X131995000Y-30500000D02*
G75*
G03*
X130995000Y-29500000I-1000000J0D01*
G01*
X131995000Y-49500000D02*
G75*
G03*
X130995000Y-48500000I-1000000J0D01*
G01*
X200995000Y-68500000D02*
G75*
G03*
X199995000Y-67500000I-1000000J0D01*
G01*
X166495000Y-49500000D02*
G75*
G03*
X165495000Y-48500000I-1000000J0D01*
G01*
X200995000Y-49500000D02*
G75*
G03*
X199995000Y-48500000I-1000000J0D01*
G01*
X97495000Y-68500000D02*
G75*
G03*
X96495000Y-67500000I-1000000J0D01*
G01*
X131995000Y-68500000D02*
G75*
G03*
X130995000Y-67500000I-1000000J0D01*
G01*
X166495000Y-68500000D02*
G75*
G03*
X165495000Y-67500000I-1000000J0D01*
G01*
X97495000Y-87500000D02*
G75*
G03*
X96495000Y-86500000I-1000000J0D01*
G01*
X97495000Y-30500000D02*
G75*
G03*
X96495000Y-29500000I-1000000J0D01*
G01*
X131995000Y-87500000D02*
G75*
G03*
X130995000Y-86500000I-1000000J0D01*
G01*
X166495000Y-87500000D02*
G75*
G03*
X165495000Y-86500000I-1000000J0D01*
G01*
X200995000Y-87500000D02*
G75*
G03*
X199995000Y-86500000I-1000000J0D01*
G01*
X97495000Y-106500000D02*
G75*
G03*
X96495000Y-105500000I-1000000J0D01*
G01*
X131995000Y-106500000D02*
G75*
G03*
X130995000Y-105500000I-1000000J0D01*
G01*
X166495000Y-106500000D02*
G75*
G03*
X165495000Y-105500000I-1000000J0D01*
G01*
X200995000Y-106500000D02*
G75*
G03*
X199995000Y-105500000I-1000000J0D01*
G01*
X84000000Y-37500000D02*
X84000000Y-30500000D01*
X118500000Y-37500000D02*
X118500000Y-30500000D01*
X153000000Y-37500000D02*
X153000000Y-30500000D01*
X187500000Y-37500000D02*
X187500000Y-30500000D01*
X84000000Y-56500000D02*
X84000000Y-49500000D01*
X118500000Y-56500000D02*
X118500000Y-49500000D01*
X153000000Y-56500000D02*
X153000000Y-49500000D01*
X187500000Y-56500000D02*
X187500000Y-49500000D01*
X84000000Y-75500000D02*
X84000000Y-68500000D01*
X118500000Y-75500000D02*
X118500000Y-68500000D01*
X153000000Y-75500000D02*
X153000000Y-68500000D01*
X187500000Y-75500000D02*
X187500000Y-68500000D01*
X84000000Y-94500000D02*
X84000000Y-87500000D01*
X118500000Y-94500000D02*
X118500000Y-87500000D01*
X153000000Y-94500000D02*
X153000000Y-87500000D01*
X187500000Y-94500000D02*
X187500000Y-87500000D01*
X84000000Y-113500000D02*
X84000000Y-106500000D01*
X118500000Y-113500000D02*
X118500000Y-106500000D01*
X153000000Y-113500000D02*
X153000000Y-106500000D01*
X187500000Y-113500000D02*
X187500000Y-106500000D01*
X96500000Y-38500000D02*
X85000000Y-38500000D01*
X131000000Y-38500000D02*
X119500000Y-38500000D01*
X165500000Y-38500000D02*
X154000000Y-38500000D01*
X200000000Y-38500000D02*
X188500000Y-38500000D01*
X96500000Y-57500000D02*
X85000000Y-57500000D01*
X131000000Y-57500000D02*
X119500000Y-57500000D01*
X165500000Y-57500000D02*
X154000000Y-57500000D01*
X200000000Y-57500000D02*
X188500000Y-57500000D01*
X96500000Y-76500000D02*
X85000000Y-76500000D01*
X131000000Y-76500000D02*
X119500000Y-76500000D01*
X165500000Y-76500000D02*
X154000000Y-76500000D01*
X200000000Y-76500000D02*
X188500000Y-76500000D01*
X96500000Y-95500000D02*
X85000000Y-95500000D01*
X131000000Y-95500000D02*
X119500000Y-95500000D01*
X165500000Y-95500000D02*
X154000000Y-95500000D01*
X200000000Y-95500000D02*
X188500000Y-95500000D01*
X96500000Y-114500000D02*
X85000000Y-114500000D01*
X131000000Y-114500000D02*
X119500000Y-114500000D01*
X165500000Y-114500000D02*
X154000000Y-114500000D01*
X200000000Y-114500000D02*
X188500000Y-114500000D01*
X85000000Y-29500000D02*
X96495000Y-29500000D01*
X119500000Y-29500000D02*
X130995000Y-29500000D01*
X154000000Y-29500000D02*
X165495000Y-29500000D01*
X188500000Y-29500000D02*
X199995000Y-29500000D01*
X85000000Y-48500000D02*
X96495000Y-48500000D01*
X119500000Y-48500000D02*
X130995000Y-48500000D01*
X154000000Y-48500000D02*
X165495000Y-48500000D01*
X188500000Y-48500000D02*
X199995000Y-48500000D01*
X85000000Y-67500000D02*
X96495000Y-67500000D01*
X119500000Y-67500000D02*
X130995000Y-67500000D01*
X154000000Y-67500000D02*
X165495000Y-67500000D01*
X188500000Y-67500000D02*
X199995000Y-67500000D01*
X85000000Y-86500000D02*
X96495000Y-86500000D01*
X119500000Y-86500000D02*
X130995000Y-86500000D01*
X154000000Y-86500000D02*
X165495000Y-86500000D01*
X188500000Y-86500000D02*
X199995000Y-86500000D01*
X85000000Y-105500000D02*
X96495000Y-105500000D01*
X119500000Y-105500000D02*
X130995000Y-105500000D01*
X154000000Y-105500000D02*
X165495000Y-105500000D01*
X188500000Y-105500000D02*
X199995000Y-105500000D01*
X85000000Y-29500000D02*
G75*
G03*
X84000000Y-30500000I0J-1000000D01*
G01*
X119500000Y-29500000D02*
G75*
G03*
X118500000Y-30500000I0J-1000000D01*
G01*
X154000000Y-29500000D02*
G75*
G03*
X153000000Y-30500000I0J-1000000D01*
G01*
X188500000Y-29500000D02*
G75*
G03*
X187500000Y-30500000I0J-1000000D01*
G01*
X85000000Y-48500000D02*
G75*
G03*
X84000000Y-49500000I0J-1000000D01*
G01*
X119500000Y-48500000D02*
G75*
G03*
X118500000Y-49500000I0J-1000000D01*
G01*
X154000000Y-48500000D02*
G75*
G03*
X153000000Y-49500000I0J-1000000D01*
G01*
X188500000Y-48500000D02*
G75*
G03*
X187500000Y-49500000I0J-1000000D01*
G01*
X85000000Y-105500000D02*
G75*
G03*
X84000000Y-106500000I0J-1000000D01*
G01*
X85000000Y-67500000D02*
G75*
G03*
X84000000Y-68500000I0J-1000000D01*
G01*
X119500000Y-67500000D02*
G75*
G03*
X118500000Y-68500000I0J-1000000D01*
G01*
X154000000Y-67500000D02*
G75*
G03*
X153000000Y-68500000I0J-1000000D01*
G01*
X188500000Y-67500000D02*
G75*
G03*
X187500000Y-68500000I0J-1000000D01*
G01*
X85000000Y-86500000D02*
G75*
G03*
X84000000Y-87500000I0J-1000000D01*
G01*
X119500000Y-86500000D02*
G75*
G03*
X118500000Y-87500000I0J-1000000D01*
G01*
X154000000Y-86500000D02*
G75*
G03*
X153000000Y-87500000I0J-1000000D01*
G01*
X188500000Y-86500000D02*
G75*
G03*
X187500000Y-87500000I0J-1000000D01*
G01*
X119500000Y-105500000D02*
G75*
G03*
X118500000Y-106500000I0J-1000000D01*
G01*
X154000000Y-105500000D02*
G75*
G03*
X153000000Y-106500000I0J-1000000D01*
G01*
X188500000Y-105500000D02*
G75*
G03*
X187500000Y-106500000I0J-1000000D01*
G01*
X96500000Y-38500000D02*
G75*
G03*
X97500000Y-37500000I0J1000000D01*
G01*
X131000000Y-38500000D02*
G75*
G03*
X132000000Y-37500000I0J1000000D01*
G01*
X165500000Y-38500000D02*
G75*
G03*
X166500000Y-37500000I0J1000000D01*
G01*
X200000000Y-38500000D02*
G75*
G03*
X201000000Y-37500000I0J1000000D01*
G01*
X96500000Y-57500000D02*
G75*
G03*
X97500000Y-56500000I0J1000000D01*
G01*
X131000000Y-57500000D02*
G75*
G03*
X132000000Y-56500000I0J1000000D01*
G01*
X165500000Y-57500000D02*
G75*
G03*
X166500000Y-56500000I0J1000000D01*
G01*
X200000000Y-57500000D02*
G75*
G03*
X201000000Y-56500000I0J1000000D01*
G01*
X96500000Y-76500000D02*
G75*
G03*
X97500000Y-75500000I0J1000000D01*
G01*
X131000000Y-76500000D02*
G75*
G03*
X132000000Y-75500000I0J1000000D01*
G01*
X165500000Y-76500000D02*
G75*
G03*
X166500000Y-75500000I0J1000000D01*
G01*
X200000000Y-76500000D02*
G75*
G03*
X201000000Y-75500000I0J1000000D01*
G01*
X96500000Y-95500000D02*
G75*
G03*
X97500000Y-94500000I0J1000000D01*
G01*
X131000000Y-95500000D02*
G75*
G03*
X132000000Y-94500000I0J1000000D01*
G01*
X165500000Y-95500000D02*
G75*
G03*
X166500000Y-94500000I0J1000000D01*
G01*
X200000000Y-95500000D02*
G75*
G03*
X201000000Y-94500000I0J1000000D01*
G01*
X96500000Y-114500000D02*
G75*
G03*
X97500000Y-113500000I0J1000000D01*
G01*
X131000000Y-114500000D02*
G75*
G03*
X132000000Y-113500000I0J1000000D01*
G01*
X165500000Y-114500000D02*
G75*
G03*
X166500000Y-113500000I0J1000000D01*
G01*
X200000000Y-114500000D02*
G75*
G03*
X201000000Y-113500000I0J1000000D01*
G01*
X97495000Y-30500000D02*
X97495000Y-31470000D01*
X131995000Y-30500000D02*
X131995000Y-31470000D01*
X166495000Y-30500000D02*
X166495000Y-31470000D01*
X200995000Y-30500000D02*
X200995000Y-31470000D01*
X97495000Y-49500000D02*
X97495000Y-50470000D01*
X131995000Y-49500000D02*
X131995000Y-50470000D01*
X166495000Y-49500000D02*
X166495000Y-50470000D01*
X200995000Y-49500000D02*
X200995000Y-50470000D01*
X97495000Y-68500000D02*
X97495000Y-69470000D01*
X131995000Y-68500000D02*
X131995000Y-69470000D01*
X166495000Y-68500000D02*
X166495000Y-69470000D01*
X200995000Y-68500000D02*
X200995000Y-69470000D01*
X97495000Y-87500000D02*
X97495000Y-88470000D01*
X131995000Y-87500000D02*
X131995000Y-88470000D01*
X166495000Y-87500000D02*
X166495000Y-88470000D01*
X200995000Y-87500000D02*
X200995000Y-88470000D01*
X97495000Y-106500000D02*
X97495000Y-107470000D01*
X131995000Y-106500000D02*
X131995000Y-107470000D01*
X166495000Y-106500000D02*
X166495000Y-107470000D01*
X200995000Y-106500000D02*
X200995000Y-107470000D01*
X97500000Y-37500000D02*
X97500000Y-36470000D01*
X132000000Y-37500000D02*
X132000000Y-36470000D01*
X166500000Y-37500000D02*
X166500000Y-36470000D01*
X201000000Y-37500000D02*
X201000000Y-36470000D01*
X97500000Y-56500000D02*
X97500000Y-55470000D01*
X132000000Y-56500000D02*
X132000000Y-55470000D01*
X166500000Y-56500000D02*
X166500000Y-55470000D01*
X201000000Y-56500000D02*
X201000000Y-55470000D01*
X97500000Y-75500000D02*
X97500000Y-74470000D01*
X132000000Y-75500000D02*
X132000000Y-74470000D01*
X166500000Y-75500000D02*
X166500000Y-74470000D01*
X201000000Y-75500000D02*
X201000000Y-74470000D01*
X97500000Y-94500000D02*
X97500000Y-93470000D01*
X132000000Y-94500000D02*
X132000000Y-93470000D01*
X166500000Y-94500000D02*
X166500000Y-93470000D01*
X201000000Y-94500000D02*
X201000000Y-93470000D01*
X97500000Y-113500000D02*
X97500000Y-112470000D01*
X132000000Y-113500000D02*
X132000000Y-112470000D01*
X166500000Y-113500000D02*
X166500000Y-112470000D01*
X201000000Y-113500000D02*
X201000000Y-112470000D01*
X84000000Y-37500000D02*
G75*
G03*
X85000000Y-38500000I1000000J0D01*
G01*
X118500000Y-37500000D02*
G75*
G03*
X119500000Y-38500000I1000000J0D01*
G01*
X153000000Y-37500000D02*
G75*
G03*
X154000000Y-38500000I1000000J0D01*
G01*
X187500000Y-37500000D02*
G75*
G03*
X188500000Y-38500000I1000000J0D01*
G01*
X84000000Y-56500000D02*
G75*
G03*
X85000000Y-57500000I1000000J0D01*
G01*
X118500000Y-56500000D02*
G75*
G03*
X119500000Y-57500000I1000000J0D01*
G01*
X153000000Y-56500000D02*
G75*
G03*
X154000000Y-57500000I1000000J0D01*
G01*
X187500000Y-56500000D02*
G75*
G03*
X188500000Y-57500000I1000000J0D01*
G01*
X84000000Y-75500000D02*
G75*
G03*
X85000000Y-76500000I1000000J0D01*
G01*
X118500000Y-75500000D02*
G75*
G03*
X119500000Y-76500000I1000000J0D01*
G01*
X153000000Y-75500000D02*
G75*
G03*
X154000000Y-76500000I1000000J0D01*
G01*
X187500000Y-75500000D02*
G75*
G03*
X188500000Y-76500000I1000000J0D01*
G01*
X84000000Y-94500000D02*
G75*
G03*
X85000000Y-95500000I1000000J0D01*
G01*
X118500000Y-94500000D02*
G75*
G03*
X119500000Y-95500000I1000000J0D01*
G01*
X153000000Y-94500000D02*
G75*
G03*
X154000000Y-95500000I1000000J0D01*
G01*
X187500000Y-94500000D02*
G75*
G03*
X188500000Y-95500000I1000000J0D01*
G01*
X84000000Y-113500000D02*
G75*
G03*
X85000000Y-114500000I1000000J0D01*
G01*
X118500000Y-113500000D02*
G75*
G03*
X119500000Y-114500000I1000000J0D01*
G01*
X153000000Y-113500000D02*
G75*
G03*
X154000000Y-114500000I1000000J0D01*
G01*
X187500000Y-113500000D02*
G75*
G03*
X188500000Y-114500000I1000000J0D01*
G01*
D11*
X136750000Y-22678571D02*
X136750000Y-21178571D01*
X137321428Y-21178571D01*
X137464285Y-21250000D01*
X137535714Y-21321428D01*
X137607142Y-21464285D01*
X137607142Y-21678571D01*
X137535714Y-21821428D01*
X137464285Y-21892857D01*
X137321428Y-21964285D01*
X136750000Y-21964285D01*
X138250000Y-22678571D02*
X138250000Y-21678571D01*
X138250000Y-21964285D02*
X138321428Y-21821428D01*
X138392857Y-21750000D01*
X138535714Y-21678571D01*
X138678571Y-21678571D01*
X139750000Y-22607142D02*
X139607142Y-22678571D01*
X139321428Y-22678571D01*
X139178571Y-22607142D01*
X139107142Y-22464285D01*
X139107142Y-21892857D01*
X139178571Y-21750000D01*
X139321428Y-21678571D01*
X139607142Y-21678571D01*
X139750000Y-21750000D01*
X139821428Y-21892857D01*
X139821428Y-22035714D01*
X139107142Y-22178571D01*
X140392857Y-22607142D02*
X140535714Y-22678571D01*
X140821428Y-22678571D01*
X140964285Y-22607142D01*
X141035714Y-22464285D01*
X141035714Y-22392857D01*
X140964285Y-22250000D01*
X140821428Y-22178571D01*
X140607142Y-22178571D01*
X140464285Y-22107142D01*
X140392857Y-21964285D01*
X140392857Y-21892857D01*
X140464285Y-21750000D01*
X140607142Y-21678571D01*
X140821428Y-21678571D01*
X140964285Y-21750000D01*
X141464285Y-21178571D02*
X142321428Y-21178571D01*
X141892857Y-22678571D02*
X141892857Y-21178571D01*
X143464285Y-22678571D02*
X143464285Y-21892857D01*
X143392857Y-21750000D01*
X143250000Y-21678571D01*
X142964285Y-21678571D01*
X142821428Y-21750000D01*
X143464285Y-22607142D02*
X143321428Y-22678571D01*
X142964285Y-22678571D01*
X142821428Y-22607142D01*
X142750000Y-22464285D01*
X142750000Y-22321428D01*
X142821428Y-22178571D01*
X142964285Y-22107142D01*
X143321428Y-22107142D01*
X143464285Y-22035714D01*
X144821428Y-21678571D02*
X144821428Y-22892857D01*
X144750000Y-23035714D01*
X144678571Y-23107142D01*
X144535714Y-23178571D01*
X144321428Y-23178571D01*
X144178571Y-23107142D01*
X144821428Y-22607142D02*
X144678571Y-22678571D01*
X144392857Y-22678571D01*
X144250000Y-22607142D01*
X144178571Y-22535714D01*
X144107142Y-22392857D01*
X144107142Y-21964285D01*
X144178571Y-21821428D01*
X144250000Y-21750000D01*
X144392857Y-21678571D01*
X144678571Y-21678571D01*
X144821428Y-21750000D01*
X147535714Y-22535714D02*
X147464285Y-22607142D01*
X147250000Y-22678571D01*
X147107142Y-22678571D01*
X146892857Y-22607142D01*
X146750000Y-22464285D01*
X146678571Y-22321428D01*
X146607142Y-22035714D01*
X146607142Y-21821428D01*
X146678571Y-21535714D01*
X146750000Y-21392857D01*
X146892857Y-21250000D01*
X147107142Y-21178571D01*
X147250000Y-21178571D01*
X147464285Y-21250000D01*
X147535714Y-21321428D01*
X148392857Y-22678571D02*
X148250000Y-22607142D01*
X148178571Y-22535714D01*
X148107142Y-22392857D01*
X148107142Y-21964285D01*
X148178571Y-21821428D01*
X148250000Y-21750000D01*
X148392857Y-21678571D01*
X148607142Y-21678571D01*
X148750000Y-21750000D01*
X148821428Y-21821428D01*
X148892857Y-21964285D01*
X148892857Y-22392857D01*
X148821428Y-22535714D01*
X148750000Y-22607142D01*
X148607142Y-22678571D01*
X148392857Y-22678571D01*
X150178571Y-22678571D02*
X150178571Y-21892857D01*
X150107142Y-21750000D01*
X149964285Y-21678571D01*
X149678571Y-21678571D01*
X149535714Y-21750000D01*
X150178571Y-22607142D02*
X150035714Y-22678571D01*
X149678571Y-22678571D01*
X149535714Y-22607142D01*
X149464285Y-22464285D01*
X149464285Y-22321428D01*
X149535714Y-22178571D01*
X149678571Y-22107142D01*
X150035714Y-22107142D01*
X150178571Y-22035714D01*
X150678571Y-21678571D02*
X151250000Y-21678571D01*
X150892857Y-21178571D02*
X150892857Y-22464285D01*
X150964285Y-22607142D01*
X151107142Y-22678571D01*
X151250000Y-22678571D01*
X151750000Y-22678571D02*
X151750000Y-21678571D01*
X151750000Y-21178571D02*
X151678571Y-21250000D01*
X151750000Y-21321428D01*
X151821428Y-21250000D01*
X151750000Y-21178571D01*
X151750000Y-21321428D01*
X152464285Y-21678571D02*
X152464285Y-22678571D01*
X152464285Y-21821428D02*
X152535714Y-21750000D01*
X152678571Y-21678571D01*
X152892857Y-21678571D01*
X153035714Y-21750000D01*
X153107142Y-21892857D01*
X153107142Y-22678571D01*
X154464285Y-21678571D02*
X154464285Y-22892857D01*
X154392857Y-23035714D01*
X154321428Y-23107142D01*
X154178571Y-23178571D01*
X153964285Y-23178571D01*
X153821428Y-23107142D01*
X154464285Y-22607142D02*
X154321428Y-22678571D01*
X154035714Y-22678571D01*
X153892857Y-22607142D01*
X153821428Y-22535714D01*
X153750000Y-22392857D01*
X153750000Y-21964285D01*
X153821428Y-21821428D01*
X153892857Y-21750000D01*
X154035714Y-21678571D01*
X154321428Y-21678571D01*
X154464285Y-21750000D01*
X156107142Y-21178571D02*
X156964285Y-21178571D01*
X156535714Y-22678571D02*
X156535714Y-21178571D01*
X157678571Y-22678571D02*
X157535714Y-22607142D01*
X157464285Y-22535714D01*
X157392857Y-22392857D01*
X157392857Y-21964285D01*
X157464285Y-21821428D01*
X157535714Y-21750000D01*
X157678571Y-21678571D01*
X157892857Y-21678571D01*
X158035714Y-21750000D01*
X158107142Y-21821428D01*
X158178571Y-21964285D01*
X158178571Y-22392857D01*
X158107142Y-22535714D01*
X158035714Y-22607142D01*
X157892857Y-22678571D01*
X157678571Y-22678571D01*
X159035714Y-22678571D02*
X158892857Y-22607142D01*
X158821428Y-22535714D01*
X158750000Y-22392857D01*
X158750000Y-21964285D01*
X158821428Y-21821428D01*
X158892857Y-21750000D01*
X159035714Y-21678571D01*
X159250000Y-21678571D01*
X159392857Y-21750000D01*
X159464285Y-21821428D01*
X159535714Y-21964285D01*
X159535714Y-22392857D01*
X159464285Y-22535714D01*
X159392857Y-22607142D01*
X159250000Y-22678571D01*
X159035714Y-22678571D01*
X160392857Y-22678571D02*
X160250000Y-22607142D01*
X160178571Y-22464285D01*
X160178571Y-21178571D01*
D10*
X161126428Y-69761904D02*
X161078809Y-69904761D01*
X161031190Y-69952380D01*
X160935952Y-70000000D01*
X160793095Y-70000000D01*
X160697857Y-69952380D01*
X160650238Y-69904761D01*
X160602619Y-69809523D01*
X160602619Y-69428571D01*
X161602619Y-69428571D01*
X161602619Y-69761904D01*
X161555000Y-69857142D01*
X161507380Y-69904761D01*
X161412142Y-69952380D01*
X161316904Y-69952380D01*
X161221666Y-69904761D01*
X161174047Y-69857142D01*
X161126428Y-69761904D01*
X161126428Y-69428571D01*
X160602619Y-70428571D02*
X161269285Y-70428571D01*
X161602619Y-70428571D02*
X161555000Y-70380952D01*
X161507380Y-70428571D01*
X161555000Y-70476190D01*
X161602619Y-70428571D01*
X161507380Y-70428571D01*
X161269285Y-70761904D02*
X161269285Y-71142857D01*
X161602619Y-70904761D02*
X160745476Y-70904761D01*
X160650238Y-70952380D01*
X160602619Y-71047619D01*
X160602619Y-71142857D01*
X161602619Y-71333333D02*
X161602619Y-71904761D01*
X160602619Y-71619047D02*
X161602619Y-71619047D01*
X160602619Y-72666666D02*
X161126428Y-72666666D01*
X161221666Y-72619047D01*
X161269285Y-72523809D01*
X161269285Y-72333333D01*
X161221666Y-72238095D01*
X160650238Y-72666666D02*
X160602619Y-72571428D01*
X160602619Y-72333333D01*
X160650238Y-72238095D01*
X160745476Y-72190476D01*
X160840714Y-72190476D01*
X160935952Y-72238095D01*
X160983571Y-72333333D01*
X160983571Y-72571428D01*
X161031190Y-72666666D01*
X161269285Y-73571428D02*
X160459761Y-73571428D01*
X160364523Y-73523809D01*
X160316904Y-73476190D01*
X160269285Y-73380952D01*
X160269285Y-73238095D01*
X160316904Y-73142857D01*
X160650238Y-73571428D02*
X160602619Y-73476190D01*
X160602619Y-73285714D01*
X160650238Y-73190476D01*
X160697857Y-73142857D01*
X160793095Y-73095238D01*
X161078809Y-73095238D01*
X161174047Y-73142857D01*
X161221666Y-73190476D01*
X161269285Y-73285714D01*
X161269285Y-73476190D01*
X161221666Y-73571428D01*
X158992619Y-68809523D02*
X159992619Y-68809523D01*
X159992619Y-69190476D01*
X159945000Y-69285714D01*
X159897380Y-69333333D01*
X159802142Y-69380952D01*
X159659285Y-69380952D01*
X159564047Y-69333333D01*
X159516428Y-69285714D01*
X159468809Y-69190476D01*
X159468809Y-68809523D01*
X158992619Y-69809523D02*
X159659285Y-69809523D01*
X159468809Y-69809523D02*
X159564047Y-69857142D01*
X159611666Y-69904761D01*
X159659285Y-70000000D01*
X159659285Y-70095238D01*
X159040238Y-70809523D02*
X158992619Y-70714285D01*
X158992619Y-70523809D01*
X159040238Y-70428571D01*
X159135476Y-70380952D01*
X159516428Y-70380952D01*
X159611666Y-70428571D01*
X159659285Y-70523809D01*
X159659285Y-70714285D01*
X159611666Y-70809523D01*
X159516428Y-70857142D01*
X159421190Y-70857142D01*
X159325952Y-70380952D01*
X159040238Y-71238095D02*
X158992619Y-71333333D01*
X158992619Y-71523809D01*
X159040238Y-71619047D01*
X159135476Y-71666666D01*
X159183095Y-71666666D01*
X159278333Y-71619047D01*
X159325952Y-71523809D01*
X159325952Y-71380952D01*
X159373571Y-71285714D01*
X159468809Y-71238095D01*
X159516428Y-71238095D01*
X159611666Y-71285714D01*
X159659285Y-71380952D01*
X159659285Y-71523809D01*
X159611666Y-71619047D01*
X159992619Y-71952380D02*
X159992619Y-72523809D01*
X158992619Y-72238095D02*
X159992619Y-72238095D01*
X158992619Y-73285714D02*
X159516428Y-73285714D01*
X159611666Y-73238095D01*
X159659285Y-73142857D01*
X159659285Y-72952380D01*
X159611666Y-72857142D01*
X159040238Y-73285714D02*
X158992619Y-73190476D01*
X158992619Y-72952380D01*
X159040238Y-72857142D01*
X159135476Y-72809523D01*
X159230714Y-72809523D01*
X159325952Y-72857142D01*
X159373571Y-72952380D01*
X159373571Y-73190476D01*
X159421190Y-73285714D01*
X159659285Y-74190476D02*
X158849761Y-74190476D01*
X158754523Y-74142857D01*
X158706904Y-74095238D01*
X158659285Y-74000000D01*
X158659285Y-73857142D01*
X158706904Y-73761904D01*
X159040238Y-74190476D02*
X158992619Y-74095238D01*
X158992619Y-73904761D01*
X159040238Y-73809523D01*
X159087857Y-73761904D01*
X159183095Y-73714285D01*
X159468809Y-73714285D01*
X159564047Y-73761904D01*
X159611666Y-73809523D01*
X159659285Y-73904761D01*
X159659285Y-74095238D01*
X159611666Y-74190476D01*
X92126428Y-88761904D02*
X92078809Y-88904761D01*
X92031190Y-88952380D01*
X91935952Y-89000000D01*
X91793095Y-89000000D01*
X91697857Y-88952380D01*
X91650238Y-88904761D01*
X91602619Y-88809523D01*
X91602619Y-88428571D01*
X92602619Y-88428571D01*
X92602619Y-88761904D01*
X92555000Y-88857142D01*
X92507380Y-88904761D01*
X92412142Y-88952380D01*
X92316904Y-88952380D01*
X92221666Y-88904761D01*
X92174047Y-88857142D01*
X92126428Y-88761904D01*
X92126428Y-88428571D01*
X91602619Y-89428571D02*
X92269285Y-89428571D01*
X92602619Y-89428571D02*
X92555000Y-89380952D01*
X92507380Y-89428571D01*
X92555000Y-89476190D01*
X92602619Y-89428571D01*
X92507380Y-89428571D01*
X92269285Y-89761904D02*
X92269285Y-90142857D01*
X92602619Y-89904761D02*
X91745476Y-89904761D01*
X91650238Y-89952380D01*
X91602619Y-90047619D01*
X91602619Y-90142857D01*
X92602619Y-90333333D02*
X92602619Y-90904761D01*
X91602619Y-90619047D02*
X92602619Y-90619047D01*
X91602619Y-91666666D02*
X92126428Y-91666666D01*
X92221666Y-91619047D01*
X92269285Y-91523809D01*
X92269285Y-91333333D01*
X92221666Y-91238095D01*
X91650238Y-91666666D02*
X91602619Y-91571428D01*
X91602619Y-91333333D01*
X91650238Y-91238095D01*
X91745476Y-91190476D01*
X91840714Y-91190476D01*
X91935952Y-91238095D01*
X91983571Y-91333333D01*
X91983571Y-91571428D01*
X92031190Y-91666666D01*
X92269285Y-92571428D02*
X91459761Y-92571428D01*
X91364523Y-92523809D01*
X91316904Y-92476190D01*
X91269285Y-92380952D01*
X91269285Y-92238095D01*
X91316904Y-92142857D01*
X91650238Y-92571428D02*
X91602619Y-92476190D01*
X91602619Y-92285714D01*
X91650238Y-92190476D01*
X91697857Y-92142857D01*
X91793095Y-92095238D01*
X92078809Y-92095238D01*
X92174047Y-92142857D01*
X92221666Y-92190476D01*
X92269285Y-92285714D01*
X92269285Y-92476190D01*
X92221666Y-92571428D01*
X89992619Y-87809523D02*
X90992619Y-87809523D01*
X90992619Y-88190476D01*
X90945000Y-88285714D01*
X90897380Y-88333333D01*
X90802142Y-88380952D01*
X90659285Y-88380952D01*
X90564047Y-88333333D01*
X90516428Y-88285714D01*
X90468809Y-88190476D01*
X90468809Y-87809523D01*
X89992619Y-88809523D02*
X90659285Y-88809523D01*
X90468809Y-88809523D02*
X90564047Y-88857142D01*
X90611666Y-88904761D01*
X90659285Y-89000000D01*
X90659285Y-89095238D01*
X90040238Y-89809523D02*
X89992619Y-89714285D01*
X89992619Y-89523809D01*
X90040238Y-89428571D01*
X90135476Y-89380952D01*
X90516428Y-89380952D01*
X90611666Y-89428571D01*
X90659285Y-89523809D01*
X90659285Y-89714285D01*
X90611666Y-89809523D01*
X90516428Y-89857142D01*
X90421190Y-89857142D01*
X90325952Y-89380952D01*
X90040238Y-90238095D02*
X89992619Y-90333333D01*
X89992619Y-90523809D01*
X90040238Y-90619047D01*
X90135476Y-90666666D01*
X90183095Y-90666666D01*
X90278333Y-90619047D01*
X90325952Y-90523809D01*
X90325952Y-90380952D01*
X90373571Y-90285714D01*
X90468809Y-90238095D01*
X90516428Y-90238095D01*
X90611666Y-90285714D01*
X90659285Y-90380952D01*
X90659285Y-90523809D01*
X90611666Y-90619047D01*
X90992619Y-90952380D02*
X90992619Y-91523809D01*
X89992619Y-91238095D02*
X90992619Y-91238095D01*
X89992619Y-92285714D02*
X90516428Y-92285714D01*
X90611666Y-92238095D01*
X90659285Y-92142857D01*
X90659285Y-91952380D01*
X90611666Y-91857142D01*
X90040238Y-92285714D02*
X89992619Y-92190476D01*
X89992619Y-91952380D01*
X90040238Y-91857142D01*
X90135476Y-91809523D01*
X90230714Y-91809523D01*
X90325952Y-91857142D01*
X90373571Y-91952380D01*
X90373571Y-92190476D01*
X90421190Y-92285714D01*
X90659285Y-93190476D02*
X89849761Y-93190476D01*
X89754523Y-93142857D01*
X89706904Y-93095238D01*
X89659285Y-93000000D01*
X89659285Y-92857142D01*
X89706904Y-92761904D01*
X90040238Y-93190476D02*
X89992619Y-93095238D01*
X89992619Y-92904761D01*
X90040238Y-92809523D01*
X90087857Y-92761904D01*
X90183095Y-92714285D01*
X90468809Y-92714285D01*
X90564047Y-92761904D01*
X90611666Y-92809523D01*
X90659285Y-92904761D01*
X90659285Y-93095238D01*
X90611666Y-93190476D01*
X126626428Y-88761904D02*
X126578809Y-88904761D01*
X126531190Y-88952380D01*
X126435952Y-89000000D01*
X126293095Y-89000000D01*
X126197857Y-88952380D01*
X126150238Y-88904761D01*
X126102619Y-88809523D01*
X126102619Y-88428571D01*
X127102619Y-88428571D01*
X127102619Y-88761904D01*
X127055000Y-88857142D01*
X127007380Y-88904761D01*
X126912142Y-88952380D01*
X126816904Y-88952380D01*
X126721666Y-88904761D01*
X126674047Y-88857142D01*
X126626428Y-88761904D01*
X126626428Y-88428571D01*
X126102619Y-89428571D02*
X126769285Y-89428571D01*
X127102619Y-89428571D02*
X127055000Y-89380952D01*
X127007380Y-89428571D01*
X127055000Y-89476190D01*
X127102619Y-89428571D01*
X127007380Y-89428571D01*
X126769285Y-89761904D02*
X126769285Y-90142857D01*
X127102619Y-89904761D02*
X126245476Y-89904761D01*
X126150238Y-89952380D01*
X126102619Y-90047619D01*
X126102619Y-90142857D01*
X127102619Y-90333333D02*
X127102619Y-90904761D01*
X126102619Y-90619047D02*
X127102619Y-90619047D01*
X126102619Y-91666666D02*
X126626428Y-91666666D01*
X126721666Y-91619047D01*
X126769285Y-91523809D01*
X126769285Y-91333333D01*
X126721666Y-91238095D01*
X126150238Y-91666666D02*
X126102619Y-91571428D01*
X126102619Y-91333333D01*
X126150238Y-91238095D01*
X126245476Y-91190476D01*
X126340714Y-91190476D01*
X126435952Y-91238095D01*
X126483571Y-91333333D01*
X126483571Y-91571428D01*
X126531190Y-91666666D01*
X126769285Y-92571428D02*
X125959761Y-92571428D01*
X125864523Y-92523809D01*
X125816904Y-92476190D01*
X125769285Y-92380952D01*
X125769285Y-92238095D01*
X125816904Y-92142857D01*
X126150238Y-92571428D02*
X126102619Y-92476190D01*
X126102619Y-92285714D01*
X126150238Y-92190476D01*
X126197857Y-92142857D01*
X126293095Y-92095238D01*
X126578809Y-92095238D01*
X126674047Y-92142857D01*
X126721666Y-92190476D01*
X126769285Y-92285714D01*
X126769285Y-92476190D01*
X126721666Y-92571428D01*
X124492619Y-87809523D02*
X125492619Y-87809523D01*
X125492619Y-88190476D01*
X125445000Y-88285714D01*
X125397380Y-88333333D01*
X125302142Y-88380952D01*
X125159285Y-88380952D01*
X125064047Y-88333333D01*
X125016428Y-88285714D01*
X124968809Y-88190476D01*
X124968809Y-87809523D01*
X124492619Y-88809523D02*
X125159285Y-88809523D01*
X124968809Y-88809523D02*
X125064047Y-88857142D01*
X125111666Y-88904761D01*
X125159285Y-89000000D01*
X125159285Y-89095238D01*
X124540238Y-89809523D02*
X124492619Y-89714285D01*
X124492619Y-89523809D01*
X124540238Y-89428571D01*
X124635476Y-89380952D01*
X125016428Y-89380952D01*
X125111666Y-89428571D01*
X125159285Y-89523809D01*
X125159285Y-89714285D01*
X125111666Y-89809523D01*
X125016428Y-89857142D01*
X124921190Y-89857142D01*
X124825952Y-89380952D01*
X124540238Y-90238095D02*
X124492619Y-90333333D01*
X124492619Y-90523809D01*
X124540238Y-90619047D01*
X124635476Y-90666666D01*
X124683095Y-90666666D01*
X124778333Y-90619047D01*
X124825952Y-90523809D01*
X124825952Y-90380952D01*
X124873571Y-90285714D01*
X124968809Y-90238095D01*
X125016428Y-90238095D01*
X125111666Y-90285714D01*
X125159285Y-90380952D01*
X125159285Y-90523809D01*
X125111666Y-90619047D01*
X125492619Y-90952380D02*
X125492619Y-91523809D01*
X124492619Y-91238095D02*
X125492619Y-91238095D01*
X124492619Y-92285714D02*
X125016428Y-92285714D01*
X125111666Y-92238095D01*
X125159285Y-92142857D01*
X125159285Y-91952380D01*
X125111666Y-91857142D01*
X124540238Y-92285714D02*
X124492619Y-92190476D01*
X124492619Y-91952380D01*
X124540238Y-91857142D01*
X124635476Y-91809523D01*
X124730714Y-91809523D01*
X124825952Y-91857142D01*
X124873571Y-91952380D01*
X124873571Y-92190476D01*
X124921190Y-92285714D01*
X125159285Y-93190476D02*
X124349761Y-93190476D01*
X124254523Y-93142857D01*
X124206904Y-93095238D01*
X124159285Y-93000000D01*
X124159285Y-92857142D01*
X124206904Y-92761904D01*
X124540238Y-93190476D02*
X124492619Y-93095238D01*
X124492619Y-92904761D01*
X124540238Y-92809523D01*
X124587857Y-92761904D01*
X124683095Y-92714285D01*
X124968809Y-92714285D01*
X125064047Y-92761904D01*
X125111666Y-92809523D01*
X125159285Y-92904761D01*
X125159285Y-93095238D01*
X125111666Y-93190476D01*
X161126428Y-88761904D02*
X161078809Y-88904761D01*
X161031190Y-88952380D01*
X160935952Y-89000000D01*
X160793095Y-89000000D01*
X160697857Y-88952380D01*
X160650238Y-88904761D01*
X160602619Y-88809523D01*
X160602619Y-88428571D01*
X161602619Y-88428571D01*
X161602619Y-88761904D01*
X161555000Y-88857142D01*
X161507380Y-88904761D01*
X161412142Y-88952380D01*
X161316904Y-88952380D01*
X161221666Y-88904761D01*
X161174047Y-88857142D01*
X161126428Y-88761904D01*
X161126428Y-88428571D01*
X160602619Y-89428571D02*
X161269285Y-89428571D01*
X161602619Y-89428571D02*
X161555000Y-89380952D01*
X161507380Y-89428571D01*
X161555000Y-89476190D01*
X161602619Y-89428571D01*
X161507380Y-89428571D01*
X161269285Y-89761904D02*
X161269285Y-90142857D01*
X161602619Y-89904761D02*
X160745476Y-89904761D01*
X160650238Y-89952380D01*
X160602619Y-90047619D01*
X160602619Y-90142857D01*
X161602619Y-90333333D02*
X161602619Y-90904761D01*
X160602619Y-90619047D02*
X161602619Y-90619047D01*
X160602619Y-91666666D02*
X161126428Y-91666666D01*
X161221666Y-91619047D01*
X161269285Y-91523809D01*
X161269285Y-91333333D01*
X161221666Y-91238095D01*
X160650238Y-91666666D02*
X160602619Y-91571428D01*
X160602619Y-91333333D01*
X160650238Y-91238095D01*
X160745476Y-91190476D01*
X160840714Y-91190476D01*
X160935952Y-91238095D01*
X160983571Y-91333333D01*
X160983571Y-91571428D01*
X161031190Y-91666666D01*
X161269285Y-92571428D02*
X160459761Y-92571428D01*
X160364523Y-92523809D01*
X160316904Y-92476190D01*
X160269285Y-92380952D01*
X160269285Y-92238095D01*
X160316904Y-92142857D01*
X160650238Y-92571428D02*
X160602619Y-92476190D01*
X160602619Y-92285714D01*
X160650238Y-92190476D01*
X160697857Y-92142857D01*
X160793095Y-92095238D01*
X161078809Y-92095238D01*
X161174047Y-92142857D01*
X161221666Y-92190476D01*
X161269285Y-92285714D01*
X161269285Y-92476190D01*
X161221666Y-92571428D01*
X158992619Y-87809523D02*
X159992619Y-87809523D01*
X159992619Y-88190476D01*
X159945000Y-88285714D01*
X159897380Y-88333333D01*
X159802142Y-88380952D01*
X159659285Y-88380952D01*
X159564047Y-88333333D01*
X159516428Y-88285714D01*
X159468809Y-88190476D01*
X159468809Y-87809523D01*
X158992619Y-88809523D02*
X159659285Y-88809523D01*
X159468809Y-88809523D02*
X159564047Y-88857142D01*
X159611666Y-88904761D01*
X159659285Y-89000000D01*
X159659285Y-89095238D01*
X159040238Y-89809523D02*
X158992619Y-89714285D01*
X158992619Y-89523809D01*
X159040238Y-89428571D01*
X159135476Y-89380952D01*
X159516428Y-89380952D01*
X159611666Y-89428571D01*
X159659285Y-89523809D01*
X159659285Y-89714285D01*
X159611666Y-89809523D01*
X159516428Y-89857142D01*
X159421190Y-89857142D01*
X159325952Y-89380952D01*
X159040238Y-90238095D02*
X158992619Y-90333333D01*
X158992619Y-90523809D01*
X159040238Y-90619047D01*
X159135476Y-90666666D01*
X159183095Y-90666666D01*
X159278333Y-90619047D01*
X159325952Y-90523809D01*
X159325952Y-90380952D01*
X159373571Y-90285714D01*
X159468809Y-90238095D01*
X159516428Y-90238095D01*
X159611666Y-90285714D01*
X159659285Y-90380952D01*
X159659285Y-90523809D01*
X159611666Y-90619047D01*
X159992619Y-90952380D02*
X159992619Y-91523809D01*
X158992619Y-91238095D02*
X159992619Y-91238095D01*
X158992619Y-92285714D02*
X159516428Y-92285714D01*
X159611666Y-92238095D01*
X159659285Y-92142857D01*
X159659285Y-91952380D01*
X159611666Y-91857142D01*
X159040238Y-92285714D02*
X158992619Y-92190476D01*
X158992619Y-91952380D01*
X159040238Y-91857142D01*
X159135476Y-91809523D01*
X159230714Y-91809523D01*
X159325952Y-91857142D01*
X159373571Y-91952380D01*
X159373571Y-92190476D01*
X159421190Y-92285714D01*
X159659285Y-93190476D02*
X158849761Y-93190476D01*
X158754523Y-93142857D01*
X158706904Y-93095238D01*
X158659285Y-93000000D01*
X158659285Y-92857142D01*
X158706904Y-92761904D01*
X159040238Y-93190476D02*
X158992619Y-93095238D01*
X158992619Y-92904761D01*
X159040238Y-92809523D01*
X159087857Y-92761904D01*
X159183095Y-92714285D01*
X159468809Y-92714285D01*
X159564047Y-92761904D01*
X159611666Y-92809523D01*
X159659285Y-92904761D01*
X159659285Y-93095238D01*
X159611666Y-93190476D01*
X195626428Y-88761904D02*
X195578809Y-88904761D01*
X195531190Y-88952380D01*
X195435952Y-89000000D01*
X195293095Y-89000000D01*
X195197857Y-88952380D01*
X195150238Y-88904761D01*
X195102619Y-88809523D01*
X195102619Y-88428571D01*
X196102619Y-88428571D01*
X196102619Y-88761904D01*
X196055000Y-88857142D01*
X196007380Y-88904761D01*
X195912142Y-88952380D01*
X195816904Y-88952380D01*
X195721666Y-88904761D01*
X195674047Y-88857142D01*
X195626428Y-88761904D01*
X195626428Y-88428571D01*
X195102619Y-89428571D02*
X195769285Y-89428571D01*
X196102619Y-89428571D02*
X196055000Y-89380952D01*
X196007380Y-89428571D01*
X196055000Y-89476190D01*
X196102619Y-89428571D01*
X196007380Y-89428571D01*
X195769285Y-89761904D02*
X195769285Y-90142857D01*
X196102619Y-89904761D02*
X195245476Y-89904761D01*
X195150238Y-89952380D01*
X195102619Y-90047619D01*
X195102619Y-90142857D01*
X196102619Y-90333333D02*
X196102619Y-90904761D01*
X195102619Y-90619047D02*
X196102619Y-90619047D01*
X195102619Y-91666666D02*
X195626428Y-91666666D01*
X195721666Y-91619047D01*
X195769285Y-91523809D01*
X195769285Y-91333333D01*
X195721666Y-91238095D01*
X195150238Y-91666666D02*
X195102619Y-91571428D01*
X195102619Y-91333333D01*
X195150238Y-91238095D01*
X195245476Y-91190476D01*
X195340714Y-91190476D01*
X195435952Y-91238095D01*
X195483571Y-91333333D01*
X195483571Y-91571428D01*
X195531190Y-91666666D01*
X195769285Y-92571428D02*
X194959761Y-92571428D01*
X194864523Y-92523809D01*
X194816904Y-92476190D01*
X194769285Y-92380952D01*
X194769285Y-92238095D01*
X194816904Y-92142857D01*
X195150238Y-92571428D02*
X195102619Y-92476190D01*
X195102619Y-92285714D01*
X195150238Y-92190476D01*
X195197857Y-92142857D01*
X195293095Y-92095238D01*
X195578809Y-92095238D01*
X195674047Y-92142857D01*
X195721666Y-92190476D01*
X195769285Y-92285714D01*
X195769285Y-92476190D01*
X195721666Y-92571428D01*
X193492619Y-87809523D02*
X194492619Y-87809523D01*
X194492619Y-88190476D01*
X194445000Y-88285714D01*
X194397380Y-88333333D01*
X194302142Y-88380952D01*
X194159285Y-88380952D01*
X194064047Y-88333333D01*
X194016428Y-88285714D01*
X193968809Y-88190476D01*
X193968809Y-87809523D01*
X193492619Y-88809523D02*
X194159285Y-88809523D01*
X193968809Y-88809523D02*
X194064047Y-88857142D01*
X194111666Y-88904761D01*
X194159285Y-89000000D01*
X194159285Y-89095238D01*
X193540238Y-89809523D02*
X193492619Y-89714285D01*
X193492619Y-89523809D01*
X193540238Y-89428571D01*
X193635476Y-89380952D01*
X194016428Y-89380952D01*
X194111666Y-89428571D01*
X194159285Y-89523809D01*
X194159285Y-89714285D01*
X194111666Y-89809523D01*
X194016428Y-89857142D01*
X193921190Y-89857142D01*
X193825952Y-89380952D01*
X193540238Y-90238095D02*
X193492619Y-90333333D01*
X193492619Y-90523809D01*
X193540238Y-90619047D01*
X193635476Y-90666666D01*
X193683095Y-90666666D01*
X193778333Y-90619047D01*
X193825952Y-90523809D01*
X193825952Y-90380952D01*
X193873571Y-90285714D01*
X193968809Y-90238095D01*
X194016428Y-90238095D01*
X194111666Y-90285714D01*
X194159285Y-90380952D01*
X194159285Y-90523809D01*
X194111666Y-90619047D01*
X194492619Y-90952380D02*
X194492619Y-91523809D01*
X193492619Y-91238095D02*
X194492619Y-91238095D01*
X193492619Y-92285714D02*
X194016428Y-92285714D01*
X194111666Y-92238095D01*
X194159285Y-92142857D01*
X194159285Y-91952380D01*
X194111666Y-91857142D01*
X193540238Y-92285714D02*
X193492619Y-92190476D01*
X193492619Y-91952380D01*
X193540238Y-91857142D01*
X193635476Y-91809523D01*
X193730714Y-91809523D01*
X193825952Y-91857142D01*
X193873571Y-91952380D01*
X193873571Y-92190476D01*
X193921190Y-92285714D01*
X194159285Y-93190476D02*
X193349761Y-93190476D01*
X193254523Y-93142857D01*
X193206904Y-93095238D01*
X193159285Y-93000000D01*
X193159285Y-92857142D01*
X193206904Y-92761904D01*
X193540238Y-93190476D02*
X193492619Y-93095238D01*
X193492619Y-92904761D01*
X193540238Y-92809523D01*
X193587857Y-92761904D01*
X193683095Y-92714285D01*
X193968809Y-92714285D01*
X194064047Y-92761904D01*
X194111666Y-92809523D01*
X194159285Y-92904761D01*
X194159285Y-93095238D01*
X194111666Y-93190476D01*
X92126428Y-107761904D02*
X92078809Y-107904761D01*
X92031190Y-107952380D01*
X91935952Y-108000000D01*
X91793095Y-108000000D01*
X91697857Y-107952380D01*
X91650238Y-107904761D01*
X91602619Y-107809523D01*
X91602619Y-107428571D01*
X92602619Y-107428571D01*
X92602619Y-107761904D01*
X92555000Y-107857142D01*
X92507380Y-107904761D01*
X92412142Y-107952380D01*
X92316904Y-107952380D01*
X92221666Y-107904761D01*
X92174047Y-107857142D01*
X92126428Y-107761904D01*
X92126428Y-107428571D01*
X91602619Y-108428571D02*
X92269285Y-108428571D01*
X92602619Y-108428571D02*
X92555000Y-108380952D01*
X92507380Y-108428571D01*
X92555000Y-108476190D01*
X92602619Y-108428571D01*
X92507380Y-108428571D01*
X92269285Y-108761904D02*
X92269285Y-109142857D01*
X92602619Y-108904761D02*
X91745476Y-108904761D01*
X91650238Y-108952380D01*
X91602619Y-109047619D01*
X91602619Y-109142857D01*
X92602619Y-109333333D02*
X92602619Y-109904761D01*
X91602619Y-109619047D02*
X92602619Y-109619047D01*
X91602619Y-110666666D02*
X92126428Y-110666666D01*
X92221666Y-110619047D01*
X92269285Y-110523809D01*
X92269285Y-110333333D01*
X92221666Y-110238095D01*
X91650238Y-110666666D02*
X91602619Y-110571428D01*
X91602619Y-110333333D01*
X91650238Y-110238095D01*
X91745476Y-110190476D01*
X91840714Y-110190476D01*
X91935952Y-110238095D01*
X91983571Y-110333333D01*
X91983571Y-110571428D01*
X92031190Y-110666666D01*
X92269285Y-111571428D02*
X91459761Y-111571428D01*
X91364523Y-111523809D01*
X91316904Y-111476190D01*
X91269285Y-111380952D01*
X91269285Y-111238095D01*
X91316904Y-111142857D01*
X91650238Y-111571428D02*
X91602619Y-111476190D01*
X91602619Y-111285714D01*
X91650238Y-111190476D01*
X91697857Y-111142857D01*
X91793095Y-111095238D01*
X92078809Y-111095238D01*
X92174047Y-111142857D01*
X92221666Y-111190476D01*
X92269285Y-111285714D01*
X92269285Y-111476190D01*
X92221666Y-111571428D01*
X89992619Y-106809523D02*
X90992619Y-106809523D01*
X90992619Y-107190476D01*
X90945000Y-107285714D01*
X90897380Y-107333333D01*
X90802142Y-107380952D01*
X90659285Y-107380952D01*
X90564047Y-107333333D01*
X90516428Y-107285714D01*
X90468809Y-107190476D01*
X90468809Y-106809523D01*
X89992619Y-107809523D02*
X90659285Y-107809523D01*
X90468809Y-107809523D02*
X90564047Y-107857142D01*
X90611666Y-107904761D01*
X90659285Y-108000000D01*
X90659285Y-108095238D01*
X90040238Y-108809523D02*
X89992619Y-108714285D01*
X89992619Y-108523809D01*
X90040238Y-108428571D01*
X90135476Y-108380952D01*
X90516428Y-108380952D01*
X90611666Y-108428571D01*
X90659285Y-108523809D01*
X90659285Y-108714285D01*
X90611666Y-108809523D01*
X90516428Y-108857142D01*
X90421190Y-108857142D01*
X90325952Y-108380952D01*
X90040238Y-109238095D02*
X89992619Y-109333333D01*
X89992619Y-109523809D01*
X90040238Y-109619047D01*
X90135476Y-109666666D01*
X90183095Y-109666666D01*
X90278333Y-109619047D01*
X90325952Y-109523809D01*
X90325952Y-109380952D01*
X90373571Y-109285714D01*
X90468809Y-109238095D01*
X90516428Y-109238095D01*
X90611666Y-109285714D01*
X90659285Y-109380952D01*
X90659285Y-109523809D01*
X90611666Y-109619047D01*
X90992619Y-109952380D02*
X90992619Y-110523809D01*
X89992619Y-110238095D02*
X90992619Y-110238095D01*
X89992619Y-111285714D02*
X90516428Y-111285714D01*
X90611666Y-111238095D01*
X90659285Y-111142857D01*
X90659285Y-110952380D01*
X90611666Y-110857142D01*
X90040238Y-111285714D02*
X89992619Y-111190476D01*
X89992619Y-110952380D01*
X90040238Y-110857142D01*
X90135476Y-110809523D01*
X90230714Y-110809523D01*
X90325952Y-110857142D01*
X90373571Y-110952380D01*
X90373571Y-111190476D01*
X90421190Y-111285714D01*
X90659285Y-112190476D02*
X89849761Y-112190476D01*
X89754523Y-112142857D01*
X89706904Y-112095238D01*
X89659285Y-112000000D01*
X89659285Y-111857142D01*
X89706904Y-111761904D01*
X90040238Y-112190476D02*
X89992619Y-112095238D01*
X89992619Y-111904761D01*
X90040238Y-111809523D01*
X90087857Y-111761904D01*
X90183095Y-111714285D01*
X90468809Y-111714285D01*
X90564047Y-111761904D01*
X90611666Y-111809523D01*
X90659285Y-111904761D01*
X90659285Y-112095238D01*
X90611666Y-112190476D01*
X126626428Y-107761904D02*
X126578809Y-107904761D01*
X126531190Y-107952380D01*
X126435952Y-108000000D01*
X126293095Y-108000000D01*
X126197857Y-107952380D01*
X126150238Y-107904761D01*
X126102619Y-107809523D01*
X126102619Y-107428571D01*
X127102619Y-107428571D01*
X127102619Y-107761904D01*
X127055000Y-107857142D01*
X127007380Y-107904761D01*
X126912142Y-107952380D01*
X126816904Y-107952380D01*
X126721666Y-107904761D01*
X126674047Y-107857142D01*
X126626428Y-107761904D01*
X126626428Y-107428571D01*
X126102619Y-108428571D02*
X126769285Y-108428571D01*
X127102619Y-108428571D02*
X127055000Y-108380952D01*
X127007380Y-108428571D01*
X127055000Y-108476190D01*
X127102619Y-108428571D01*
X127007380Y-108428571D01*
X126769285Y-108761904D02*
X126769285Y-109142857D01*
X127102619Y-108904761D02*
X126245476Y-108904761D01*
X126150238Y-108952380D01*
X126102619Y-109047619D01*
X126102619Y-109142857D01*
X127102619Y-109333333D02*
X127102619Y-109904761D01*
X126102619Y-109619047D02*
X127102619Y-109619047D01*
X126102619Y-110666666D02*
X126626428Y-110666666D01*
X126721666Y-110619047D01*
X126769285Y-110523809D01*
X126769285Y-110333333D01*
X126721666Y-110238095D01*
X126150238Y-110666666D02*
X126102619Y-110571428D01*
X126102619Y-110333333D01*
X126150238Y-110238095D01*
X126245476Y-110190476D01*
X126340714Y-110190476D01*
X126435952Y-110238095D01*
X126483571Y-110333333D01*
X126483571Y-110571428D01*
X126531190Y-110666666D01*
X126769285Y-111571428D02*
X125959761Y-111571428D01*
X125864523Y-111523809D01*
X125816904Y-111476190D01*
X125769285Y-111380952D01*
X125769285Y-111238095D01*
X125816904Y-111142857D01*
X126150238Y-111571428D02*
X126102619Y-111476190D01*
X126102619Y-111285714D01*
X126150238Y-111190476D01*
X126197857Y-111142857D01*
X126293095Y-111095238D01*
X126578809Y-111095238D01*
X126674047Y-111142857D01*
X126721666Y-111190476D01*
X126769285Y-111285714D01*
X126769285Y-111476190D01*
X126721666Y-111571428D01*
X124492619Y-106809523D02*
X125492619Y-106809523D01*
X125492619Y-107190476D01*
X125445000Y-107285714D01*
X125397380Y-107333333D01*
X125302142Y-107380952D01*
X125159285Y-107380952D01*
X125064047Y-107333333D01*
X125016428Y-107285714D01*
X124968809Y-107190476D01*
X124968809Y-106809523D01*
X124492619Y-107809523D02*
X125159285Y-107809523D01*
X124968809Y-107809523D02*
X125064047Y-107857142D01*
X125111666Y-107904761D01*
X125159285Y-108000000D01*
X125159285Y-108095238D01*
X124540238Y-108809523D02*
X124492619Y-108714285D01*
X124492619Y-108523809D01*
X124540238Y-108428571D01*
X124635476Y-108380952D01*
X125016428Y-108380952D01*
X125111666Y-108428571D01*
X125159285Y-108523809D01*
X125159285Y-108714285D01*
X125111666Y-108809523D01*
X125016428Y-108857142D01*
X124921190Y-108857142D01*
X124825952Y-108380952D01*
X124540238Y-109238095D02*
X124492619Y-109333333D01*
X124492619Y-109523809D01*
X124540238Y-109619047D01*
X124635476Y-109666666D01*
X124683095Y-109666666D01*
X124778333Y-109619047D01*
X124825952Y-109523809D01*
X124825952Y-109380952D01*
X124873571Y-109285714D01*
X124968809Y-109238095D01*
X125016428Y-109238095D01*
X125111666Y-109285714D01*
X125159285Y-109380952D01*
X125159285Y-109523809D01*
X125111666Y-109619047D01*
X125492619Y-109952380D02*
X125492619Y-110523809D01*
X124492619Y-110238095D02*
X125492619Y-110238095D01*
X124492619Y-111285714D02*
X125016428Y-111285714D01*
X125111666Y-111238095D01*
X125159285Y-111142857D01*
X125159285Y-110952380D01*
X125111666Y-110857142D01*
X124540238Y-111285714D02*
X124492619Y-111190476D01*
X124492619Y-110952380D01*
X124540238Y-110857142D01*
X124635476Y-110809523D01*
X124730714Y-110809523D01*
X124825952Y-110857142D01*
X124873571Y-110952380D01*
X124873571Y-111190476D01*
X124921190Y-111285714D01*
X125159285Y-112190476D02*
X124349761Y-112190476D01*
X124254523Y-112142857D01*
X124206904Y-112095238D01*
X124159285Y-112000000D01*
X124159285Y-111857142D01*
X124206904Y-111761904D01*
X124540238Y-112190476D02*
X124492619Y-112095238D01*
X124492619Y-111904761D01*
X124540238Y-111809523D01*
X124587857Y-111761904D01*
X124683095Y-111714285D01*
X124968809Y-111714285D01*
X125064047Y-111761904D01*
X125111666Y-111809523D01*
X125159285Y-111904761D01*
X125159285Y-112095238D01*
X125111666Y-112190476D01*
X161126428Y-107761904D02*
X161078809Y-107904761D01*
X161031190Y-107952380D01*
X160935952Y-108000000D01*
X160793095Y-108000000D01*
X160697857Y-107952380D01*
X160650238Y-107904761D01*
X160602619Y-107809523D01*
X160602619Y-107428571D01*
X161602619Y-107428571D01*
X161602619Y-107761904D01*
X161555000Y-107857142D01*
X161507380Y-107904761D01*
X161412142Y-107952380D01*
X161316904Y-107952380D01*
X161221666Y-107904761D01*
X161174047Y-107857142D01*
X161126428Y-107761904D01*
X161126428Y-107428571D01*
X160602619Y-108428571D02*
X161269285Y-108428571D01*
X161602619Y-108428571D02*
X161555000Y-108380952D01*
X161507380Y-108428571D01*
X161555000Y-108476190D01*
X161602619Y-108428571D01*
X161507380Y-108428571D01*
X161269285Y-108761904D02*
X161269285Y-109142857D01*
X161602619Y-108904761D02*
X160745476Y-108904761D01*
X160650238Y-108952380D01*
X160602619Y-109047619D01*
X160602619Y-109142857D01*
X161602619Y-109333333D02*
X161602619Y-109904761D01*
X160602619Y-109619047D02*
X161602619Y-109619047D01*
X160602619Y-110666666D02*
X161126428Y-110666666D01*
X161221666Y-110619047D01*
X161269285Y-110523809D01*
X161269285Y-110333333D01*
X161221666Y-110238095D01*
X160650238Y-110666666D02*
X160602619Y-110571428D01*
X160602619Y-110333333D01*
X160650238Y-110238095D01*
X160745476Y-110190476D01*
X160840714Y-110190476D01*
X160935952Y-110238095D01*
X160983571Y-110333333D01*
X160983571Y-110571428D01*
X161031190Y-110666666D01*
X161269285Y-111571428D02*
X160459761Y-111571428D01*
X160364523Y-111523809D01*
X160316904Y-111476190D01*
X160269285Y-111380952D01*
X160269285Y-111238095D01*
X160316904Y-111142857D01*
X160650238Y-111571428D02*
X160602619Y-111476190D01*
X160602619Y-111285714D01*
X160650238Y-111190476D01*
X160697857Y-111142857D01*
X160793095Y-111095238D01*
X161078809Y-111095238D01*
X161174047Y-111142857D01*
X161221666Y-111190476D01*
X161269285Y-111285714D01*
X161269285Y-111476190D01*
X161221666Y-111571428D01*
X158992619Y-106809523D02*
X159992619Y-106809523D01*
X159992619Y-107190476D01*
X159945000Y-107285714D01*
X159897380Y-107333333D01*
X159802142Y-107380952D01*
X159659285Y-107380952D01*
X159564047Y-107333333D01*
X159516428Y-107285714D01*
X159468809Y-107190476D01*
X159468809Y-106809523D01*
X158992619Y-107809523D02*
X159659285Y-107809523D01*
X159468809Y-107809523D02*
X159564047Y-107857142D01*
X159611666Y-107904761D01*
X159659285Y-108000000D01*
X159659285Y-108095238D01*
X159040238Y-108809523D02*
X158992619Y-108714285D01*
X158992619Y-108523809D01*
X159040238Y-108428571D01*
X159135476Y-108380952D01*
X159516428Y-108380952D01*
X159611666Y-108428571D01*
X159659285Y-108523809D01*
X159659285Y-108714285D01*
X159611666Y-108809523D01*
X159516428Y-108857142D01*
X159421190Y-108857142D01*
X159325952Y-108380952D01*
X159040238Y-109238095D02*
X158992619Y-109333333D01*
X158992619Y-109523809D01*
X159040238Y-109619047D01*
X159135476Y-109666666D01*
X159183095Y-109666666D01*
X159278333Y-109619047D01*
X159325952Y-109523809D01*
X159325952Y-109380952D01*
X159373571Y-109285714D01*
X159468809Y-109238095D01*
X159516428Y-109238095D01*
X159611666Y-109285714D01*
X159659285Y-109380952D01*
X159659285Y-109523809D01*
X159611666Y-109619047D01*
X159992619Y-109952380D02*
X159992619Y-110523809D01*
X158992619Y-110238095D02*
X159992619Y-110238095D01*
X158992619Y-111285714D02*
X159516428Y-111285714D01*
X159611666Y-111238095D01*
X159659285Y-111142857D01*
X159659285Y-110952380D01*
X159611666Y-110857142D01*
X159040238Y-111285714D02*
X158992619Y-111190476D01*
X158992619Y-110952380D01*
X159040238Y-110857142D01*
X159135476Y-110809523D01*
X159230714Y-110809523D01*
X159325952Y-110857142D01*
X159373571Y-110952380D01*
X159373571Y-111190476D01*
X159421190Y-111285714D01*
X159659285Y-112190476D02*
X158849761Y-112190476D01*
X158754523Y-112142857D01*
X158706904Y-112095238D01*
X158659285Y-112000000D01*
X158659285Y-111857142D01*
X158706904Y-111761904D01*
X159040238Y-112190476D02*
X158992619Y-112095238D01*
X158992619Y-111904761D01*
X159040238Y-111809523D01*
X159087857Y-111761904D01*
X159183095Y-111714285D01*
X159468809Y-111714285D01*
X159564047Y-111761904D01*
X159611666Y-111809523D01*
X159659285Y-111904761D01*
X159659285Y-112095238D01*
X159611666Y-112190476D01*
X195626428Y-107761904D02*
X195578809Y-107904761D01*
X195531190Y-107952380D01*
X195435952Y-108000000D01*
X195293095Y-108000000D01*
X195197857Y-107952380D01*
X195150238Y-107904761D01*
X195102619Y-107809523D01*
X195102619Y-107428571D01*
X196102619Y-107428571D01*
X196102619Y-107761904D01*
X196055000Y-107857142D01*
X196007380Y-107904761D01*
X195912142Y-107952380D01*
X195816904Y-107952380D01*
X195721666Y-107904761D01*
X195674047Y-107857142D01*
X195626428Y-107761904D01*
X195626428Y-107428571D01*
X195102619Y-108428571D02*
X195769285Y-108428571D01*
X196102619Y-108428571D02*
X196055000Y-108380952D01*
X196007380Y-108428571D01*
X196055000Y-108476190D01*
X196102619Y-108428571D01*
X196007380Y-108428571D01*
X195769285Y-108761904D02*
X195769285Y-109142857D01*
X196102619Y-108904761D02*
X195245476Y-108904761D01*
X195150238Y-108952380D01*
X195102619Y-109047619D01*
X195102619Y-109142857D01*
X196102619Y-109333333D02*
X196102619Y-109904761D01*
X195102619Y-109619047D02*
X196102619Y-109619047D01*
X195102619Y-110666666D02*
X195626428Y-110666666D01*
X195721666Y-110619047D01*
X195769285Y-110523809D01*
X195769285Y-110333333D01*
X195721666Y-110238095D01*
X195150238Y-110666666D02*
X195102619Y-110571428D01*
X195102619Y-110333333D01*
X195150238Y-110238095D01*
X195245476Y-110190476D01*
X195340714Y-110190476D01*
X195435952Y-110238095D01*
X195483571Y-110333333D01*
X195483571Y-110571428D01*
X195531190Y-110666666D01*
X195769285Y-111571428D02*
X194959761Y-111571428D01*
X194864523Y-111523809D01*
X194816904Y-111476190D01*
X194769285Y-111380952D01*
X194769285Y-111238095D01*
X194816904Y-111142857D01*
X195150238Y-111571428D02*
X195102619Y-111476190D01*
X195102619Y-111285714D01*
X195150238Y-111190476D01*
X195197857Y-111142857D01*
X195293095Y-111095238D01*
X195578809Y-111095238D01*
X195674047Y-111142857D01*
X195721666Y-111190476D01*
X195769285Y-111285714D01*
X195769285Y-111476190D01*
X195721666Y-111571428D01*
X193492619Y-106809523D02*
X194492619Y-106809523D01*
X194492619Y-107190476D01*
X194445000Y-107285714D01*
X194397380Y-107333333D01*
X194302142Y-107380952D01*
X194159285Y-107380952D01*
X194064047Y-107333333D01*
X194016428Y-107285714D01*
X193968809Y-107190476D01*
X193968809Y-106809523D01*
X193492619Y-107809523D02*
X194159285Y-107809523D01*
X193968809Y-107809523D02*
X194064047Y-107857142D01*
X194111666Y-107904761D01*
X194159285Y-108000000D01*
X194159285Y-108095238D01*
X193540238Y-108809523D02*
X193492619Y-108714285D01*
X193492619Y-108523809D01*
X193540238Y-108428571D01*
X193635476Y-108380952D01*
X194016428Y-108380952D01*
X194111666Y-108428571D01*
X194159285Y-108523809D01*
X194159285Y-108714285D01*
X194111666Y-108809523D01*
X194016428Y-108857142D01*
X193921190Y-108857142D01*
X193825952Y-108380952D01*
X193540238Y-109238095D02*
X193492619Y-109333333D01*
X193492619Y-109523809D01*
X193540238Y-109619047D01*
X193635476Y-109666666D01*
X193683095Y-109666666D01*
X193778333Y-109619047D01*
X193825952Y-109523809D01*
X193825952Y-109380952D01*
X193873571Y-109285714D01*
X193968809Y-109238095D01*
X194016428Y-109238095D01*
X194111666Y-109285714D01*
X194159285Y-109380952D01*
X194159285Y-109523809D01*
X194111666Y-109619047D01*
X194492619Y-109952380D02*
X194492619Y-110523809D01*
X193492619Y-110238095D02*
X194492619Y-110238095D01*
X193492619Y-111285714D02*
X194016428Y-111285714D01*
X194111666Y-111238095D01*
X194159285Y-111142857D01*
X194159285Y-110952380D01*
X194111666Y-110857142D01*
X193540238Y-111285714D02*
X193492619Y-111190476D01*
X193492619Y-110952380D01*
X193540238Y-110857142D01*
X193635476Y-110809523D01*
X193730714Y-110809523D01*
X193825952Y-110857142D01*
X193873571Y-110952380D01*
X193873571Y-111190476D01*
X193921190Y-111285714D01*
X194159285Y-112190476D02*
X193349761Y-112190476D01*
X193254523Y-112142857D01*
X193206904Y-112095238D01*
X193159285Y-112000000D01*
X193159285Y-111857142D01*
X193206904Y-111761904D01*
X193540238Y-112190476D02*
X193492619Y-112095238D01*
X193492619Y-111904761D01*
X193540238Y-111809523D01*
X193587857Y-111761904D01*
X193683095Y-111714285D01*
X193968809Y-111714285D01*
X194064047Y-111761904D01*
X194111666Y-111809523D01*
X194159285Y-111904761D01*
X194159285Y-112095238D01*
X194111666Y-112190476D01*
X92126428Y-31761904D02*
X92078809Y-31904761D01*
X92031190Y-31952380D01*
X91935952Y-32000000D01*
X91793095Y-32000000D01*
X91697857Y-31952380D01*
X91650238Y-31904761D01*
X91602619Y-31809523D01*
X91602619Y-31428571D01*
X92602619Y-31428571D01*
X92602619Y-31761904D01*
X92555000Y-31857142D01*
X92507380Y-31904761D01*
X92412142Y-31952380D01*
X92316904Y-31952380D01*
X92221666Y-31904761D01*
X92174047Y-31857142D01*
X92126428Y-31761904D01*
X92126428Y-31428571D01*
X91602619Y-32428571D02*
X92269285Y-32428571D01*
X92602619Y-32428571D02*
X92555000Y-32380952D01*
X92507380Y-32428571D01*
X92555000Y-32476190D01*
X92602619Y-32428571D01*
X92507380Y-32428571D01*
X92269285Y-32761904D02*
X92269285Y-33142857D01*
X92602619Y-32904761D02*
X91745476Y-32904761D01*
X91650238Y-32952380D01*
X91602619Y-33047619D01*
X91602619Y-33142857D01*
X92602619Y-33333333D02*
X92602619Y-33904761D01*
X91602619Y-33619047D02*
X92602619Y-33619047D01*
X91602619Y-34666666D02*
X92126428Y-34666666D01*
X92221666Y-34619047D01*
X92269285Y-34523809D01*
X92269285Y-34333333D01*
X92221666Y-34238095D01*
X91650238Y-34666666D02*
X91602619Y-34571428D01*
X91602619Y-34333333D01*
X91650238Y-34238095D01*
X91745476Y-34190476D01*
X91840714Y-34190476D01*
X91935952Y-34238095D01*
X91983571Y-34333333D01*
X91983571Y-34571428D01*
X92031190Y-34666666D01*
X92269285Y-35571428D02*
X91459761Y-35571428D01*
X91364523Y-35523809D01*
X91316904Y-35476190D01*
X91269285Y-35380952D01*
X91269285Y-35238095D01*
X91316904Y-35142857D01*
X91650238Y-35571428D02*
X91602619Y-35476190D01*
X91602619Y-35285714D01*
X91650238Y-35190476D01*
X91697857Y-35142857D01*
X91793095Y-35095238D01*
X92078809Y-35095238D01*
X92174047Y-35142857D01*
X92221666Y-35190476D01*
X92269285Y-35285714D01*
X92269285Y-35476190D01*
X92221666Y-35571428D01*
X89992619Y-30809523D02*
X90992619Y-30809523D01*
X90992619Y-31190476D01*
X90945000Y-31285714D01*
X90897380Y-31333333D01*
X90802142Y-31380952D01*
X90659285Y-31380952D01*
X90564047Y-31333333D01*
X90516428Y-31285714D01*
X90468809Y-31190476D01*
X90468809Y-30809523D01*
X89992619Y-31809523D02*
X90659285Y-31809523D01*
X90468809Y-31809523D02*
X90564047Y-31857142D01*
X90611666Y-31904761D01*
X90659285Y-32000000D01*
X90659285Y-32095238D01*
X90040238Y-32809523D02*
X89992619Y-32714285D01*
X89992619Y-32523809D01*
X90040238Y-32428571D01*
X90135476Y-32380952D01*
X90516428Y-32380952D01*
X90611666Y-32428571D01*
X90659285Y-32523809D01*
X90659285Y-32714285D01*
X90611666Y-32809523D01*
X90516428Y-32857142D01*
X90421190Y-32857142D01*
X90325952Y-32380952D01*
X90040238Y-33238095D02*
X89992619Y-33333333D01*
X89992619Y-33523809D01*
X90040238Y-33619047D01*
X90135476Y-33666666D01*
X90183095Y-33666666D01*
X90278333Y-33619047D01*
X90325952Y-33523809D01*
X90325952Y-33380952D01*
X90373571Y-33285714D01*
X90468809Y-33238095D01*
X90516428Y-33238095D01*
X90611666Y-33285714D01*
X90659285Y-33380952D01*
X90659285Y-33523809D01*
X90611666Y-33619047D01*
X90992619Y-33952380D02*
X90992619Y-34523809D01*
X89992619Y-34238095D02*
X90992619Y-34238095D01*
X89992619Y-35285714D02*
X90516428Y-35285714D01*
X90611666Y-35238095D01*
X90659285Y-35142857D01*
X90659285Y-34952380D01*
X90611666Y-34857142D01*
X90040238Y-35285714D02*
X89992619Y-35190476D01*
X89992619Y-34952380D01*
X90040238Y-34857142D01*
X90135476Y-34809523D01*
X90230714Y-34809523D01*
X90325952Y-34857142D01*
X90373571Y-34952380D01*
X90373571Y-35190476D01*
X90421190Y-35285714D01*
X90659285Y-36190476D02*
X89849761Y-36190476D01*
X89754523Y-36142857D01*
X89706904Y-36095238D01*
X89659285Y-36000000D01*
X89659285Y-35857142D01*
X89706904Y-35761904D01*
X90040238Y-36190476D02*
X89992619Y-36095238D01*
X89992619Y-35904761D01*
X90040238Y-35809523D01*
X90087857Y-35761904D01*
X90183095Y-35714285D01*
X90468809Y-35714285D01*
X90564047Y-35761904D01*
X90611666Y-35809523D01*
X90659285Y-35904761D01*
X90659285Y-36095238D01*
X90611666Y-36190476D01*
X126626428Y-31761904D02*
X126578809Y-31904761D01*
X126531190Y-31952380D01*
X126435952Y-32000000D01*
X126293095Y-32000000D01*
X126197857Y-31952380D01*
X126150238Y-31904761D01*
X126102619Y-31809523D01*
X126102619Y-31428571D01*
X127102619Y-31428571D01*
X127102619Y-31761904D01*
X127055000Y-31857142D01*
X127007380Y-31904761D01*
X126912142Y-31952380D01*
X126816904Y-31952380D01*
X126721666Y-31904761D01*
X126674047Y-31857142D01*
X126626428Y-31761904D01*
X126626428Y-31428571D01*
X126102619Y-32428571D02*
X126769285Y-32428571D01*
X127102619Y-32428571D02*
X127055000Y-32380952D01*
X127007380Y-32428571D01*
X127055000Y-32476190D01*
X127102619Y-32428571D01*
X127007380Y-32428571D01*
X126769285Y-32761904D02*
X126769285Y-33142857D01*
X127102619Y-32904761D02*
X126245476Y-32904761D01*
X126150238Y-32952380D01*
X126102619Y-33047619D01*
X126102619Y-33142857D01*
X127102619Y-33333333D02*
X127102619Y-33904761D01*
X126102619Y-33619047D02*
X127102619Y-33619047D01*
X126102619Y-34666666D02*
X126626428Y-34666666D01*
X126721666Y-34619047D01*
X126769285Y-34523809D01*
X126769285Y-34333333D01*
X126721666Y-34238095D01*
X126150238Y-34666666D02*
X126102619Y-34571428D01*
X126102619Y-34333333D01*
X126150238Y-34238095D01*
X126245476Y-34190476D01*
X126340714Y-34190476D01*
X126435952Y-34238095D01*
X126483571Y-34333333D01*
X126483571Y-34571428D01*
X126531190Y-34666666D01*
X126769285Y-35571428D02*
X125959761Y-35571428D01*
X125864523Y-35523809D01*
X125816904Y-35476190D01*
X125769285Y-35380952D01*
X125769285Y-35238095D01*
X125816904Y-35142857D01*
X126150238Y-35571428D02*
X126102619Y-35476190D01*
X126102619Y-35285714D01*
X126150238Y-35190476D01*
X126197857Y-35142857D01*
X126293095Y-35095238D01*
X126578809Y-35095238D01*
X126674047Y-35142857D01*
X126721666Y-35190476D01*
X126769285Y-35285714D01*
X126769285Y-35476190D01*
X126721666Y-35571428D01*
X124492619Y-30809523D02*
X125492619Y-30809523D01*
X125492619Y-31190476D01*
X125445000Y-31285714D01*
X125397380Y-31333333D01*
X125302142Y-31380952D01*
X125159285Y-31380952D01*
X125064047Y-31333333D01*
X125016428Y-31285714D01*
X124968809Y-31190476D01*
X124968809Y-30809523D01*
X124492619Y-31809523D02*
X125159285Y-31809523D01*
X124968809Y-31809523D02*
X125064047Y-31857142D01*
X125111666Y-31904761D01*
X125159285Y-32000000D01*
X125159285Y-32095238D01*
X124540238Y-32809523D02*
X124492619Y-32714285D01*
X124492619Y-32523809D01*
X124540238Y-32428571D01*
X124635476Y-32380952D01*
X125016428Y-32380952D01*
X125111666Y-32428571D01*
X125159285Y-32523809D01*
X125159285Y-32714285D01*
X125111666Y-32809523D01*
X125016428Y-32857142D01*
X124921190Y-32857142D01*
X124825952Y-32380952D01*
X124540238Y-33238095D02*
X124492619Y-33333333D01*
X124492619Y-33523809D01*
X124540238Y-33619047D01*
X124635476Y-33666666D01*
X124683095Y-33666666D01*
X124778333Y-33619047D01*
X124825952Y-33523809D01*
X124825952Y-33380952D01*
X124873571Y-33285714D01*
X124968809Y-33238095D01*
X125016428Y-33238095D01*
X125111666Y-33285714D01*
X125159285Y-33380952D01*
X125159285Y-33523809D01*
X125111666Y-33619047D01*
X125492619Y-33952380D02*
X125492619Y-34523809D01*
X124492619Y-34238095D02*
X125492619Y-34238095D01*
X124492619Y-35285714D02*
X125016428Y-35285714D01*
X125111666Y-35238095D01*
X125159285Y-35142857D01*
X125159285Y-34952380D01*
X125111666Y-34857142D01*
X124540238Y-35285714D02*
X124492619Y-35190476D01*
X124492619Y-34952380D01*
X124540238Y-34857142D01*
X124635476Y-34809523D01*
X124730714Y-34809523D01*
X124825952Y-34857142D01*
X124873571Y-34952380D01*
X124873571Y-35190476D01*
X124921190Y-35285714D01*
X125159285Y-36190476D02*
X124349761Y-36190476D01*
X124254523Y-36142857D01*
X124206904Y-36095238D01*
X124159285Y-36000000D01*
X124159285Y-35857142D01*
X124206904Y-35761904D01*
X124540238Y-36190476D02*
X124492619Y-36095238D01*
X124492619Y-35904761D01*
X124540238Y-35809523D01*
X124587857Y-35761904D01*
X124683095Y-35714285D01*
X124968809Y-35714285D01*
X125064047Y-35761904D01*
X125111666Y-35809523D01*
X125159285Y-35904761D01*
X125159285Y-36095238D01*
X125111666Y-36190476D01*
X161126428Y-31761904D02*
X161078809Y-31904761D01*
X161031190Y-31952380D01*
X160935952Y-32000000D01*
X160793095Y-32000000D01*
X160697857Y-31952380D01*
X160650238Y-31904761D01*
X160602619Y-31809523D01*
X160602619Y-31428571D01*
X161602619Y-31428571D01*
X161602619Y-31761904D01*
X161555000Y-31857142D01*
X161507380Y-31904761D01*
X161412142Y-31952380D01*
X161316904Y-31952380D01*
X161221666Y-31904761D01*
X161174047Y-31857142D01*
X161126428Y-31761904D01*
X161126428Y-31428571D01*
X160602619Y-32428571D02*
X161269285Y-32428571D01*
X161602619Y-32428571D02*
X161555000Y-32380952D01*
X161507380Y-32428571D01*
X161555000Y-32476190D01*
X161602619Y-32428571D01*
X161507380Y-32428571D01*
X161269285Y-32761904D02*
X161269285Y-33142857D01*
X161602619Y-32904761D02*
X160745476Y-32904761D01*
X160650238Y-32952380D01*
X160602619Y-33047619D01*
X160602619Y-33142857D01*
X161602619Y-33333333D02*
X161602619Y-33904761D01*
X160602619Y-33619047D02*
X161602619Y-33619047D01*
X160602619Y-34666666D02*
X161126428Y-34666666D01*
X161221666Y-34619047D01*
X161269285Y-34523809D01*
X161269285Y-34333333D01*
X161221666Y-34238095D01*
X160650238Y-34666666D02*
X160602619Y-34571428D01*
X160602619Y-34333333D01*
X160650238Y-34238095D01*
X160745476Y-34190476D01*
X160840714Y-34190476D01*
X160935952Y-34238095D01*
X160983571Y-34333333D01*
X160983571Y-34571428D01*
X161031190Y-34666666D01*
X161269285Y-35571428D02*
X160459761Y-35571428D01*
X160364523Y-35523809D01*
X160316904Y-35476190D01*
X160269285Y-35380952D01*
X160269285Y-35238095D01*
X160316904Y-35142857D01*
X160650238Y-35571428D02*
X160602619Y-35476190D01*
X160602619Y-35285714D01*
X160650238Y-35190476D01*
X160697857Y-35142857D01*
X160793095Y-35095238D01*
X161078809Y-35095238D01*
X161174047Y-35142857D01*
X161221666Y-35190476D01*
X161269285Y-35285714D01*
X161269285Y-35476190D01*
X161221666Y-35571428D01*
X158992619Y-30809523D02*
X159992619Y-30809523D01*
X159992619Y-31190476D01*
X159945000Y-31285714D01*
X159897380Y-31333333D01*
X159802142Y-31380952D01*
X159659285Y-31380952D01*
X159564047Y-31333333D01*
X159516428Y-31285714D01*
X159468809Y-31190476D01*
X159468809Y-30809523D01*
X158992619Y-31809523D02*
X159659285Y-31809523D01*
X159468809Y-31809523D02*
X159564047Y-31857142D01*
X159611666Y-31904761D01*
X159659285Y-32000000D01*
X159659285Y-32095238D01*
X159040238Y-32809523D02*
X158992619Y-32714285D01*
X158992619Y-32523809D01*
X159040238Y-32428571D01*
X159135476Y-32380952D01*
X159516428Y-32380952D01*
X159611666Y-32428571D01*
X159659285Y-32523809D01*
X159659285Y-32714285D01*
X159611666Y-32809523D01*
X159516428Y-32857142D01*
X159421190Y-32857142D01*
X159325952Y-32380952D01*
X159040238Y-33238095D02*
X158992619Y-33333333D01*
X158992619Y-33523809D01*
X159040238Y-33619047D01*
X159135476Y-33666666D01*
X159183095Y-33666666D01*
X159278333Y-33619047D01*
X159325952Y-33523809D01*
X159325952Y-33380952D01*
X159373571Y-33285714D01*
X159468809Y-33238095D01*
X159516428Y-33238095D01*
X159611666Y-33285714D01*
X159659285Y-33380952D01*
X159659285Y-33523809D01*
X159611666Y-33619047D01*
X159992619Y-33952380D02*
X159992619Y-34523809D01*
X158992619Y-34238095D02*
X159992619Y-34238095D01*
X158992619Y-35285714D02*
X159516428Y-35285714D01*
X159611666Y-35238095D01*
X159659285Y-35142857D01*
X159659285Y-34952380D01*
X159611666Y-34857142D01*
X159040238Y-35285714D02*
X158992619Y-35190476D01*
X158992619Y-34952380D01*
X159040238Y-34857142D01*
X159135476Y-34809523D01*
X159230714Y-34809523D01*
X159325952Y-34857142D01*
X159373571Y-34952380D01*
X159373571Y-35190476D01*
X159421190Y-35285714D01*
X159659285Y-36190476D02*
X158849761Y-36190476D01*
X158754523Y-36142857D01*
X158706904Y-36095238D01*
X158659285Y-36000000D01*
X158659285Y-35857142D01*
X158706904Y-35761904D01*
X159040238Y-36190476D02*
X158992619Y-36095238D01*
X158992619Y-35904761D01*
X159040238Y-35809523D01*
X159087857Y-35761904D01*
X159183095Y-35714285D01*
X159468809Y-35714285D01*
X159564047Y-35761904D01*
X159611666Y-35809523D01*
X159659285Y-35904761D01*
X159659285Y-36095238D01*
X159611666Y-36190476D01*
X195626428Y-31761904D02*
X195578809Y-31904761D01*
X195531190Y-31952380D01*
X195435952Y-32000000D01*
X195293095Y-32000000D01*
X195197857Y-31952380D01*
X195150238Y-31904761D01*
X195102619Y-31809523D01*
X195102619Y-31428571D01*
X196102619Y-31428571D01*
X196102619Y-31761904D01*
X196055000Y-31857142D01*
X196007380Y-31904761D01*
X195912142Y-31952380D01*
X195816904Y-31952380D01*
X195721666Y-31904761D01*
X195674047Y-31857142D01*
X195626428Y-31761904D01*
X195626428Y-31428571D01*
X195102619Y-32428571D02*
X195769285Y-32428571D01*
X196102619Y-32428571D02*
X196055000Y-32380952D01*
X196007380Y-32428571D01*
X196055000Y-32476190D01*
X196102619Y-32428571D01*
X196007380Y-32428571D01*
X195769285Y-32761904D02*
X195769285Y-33142857D01*
X196102619Y-32904761D02*
X195245476Y-32904761D01*
X195150238Y-32952380D01*
X195102619Y-33047619D01*
X195102619Y-33142857D01*
X196102619Y-33333333D02*
X196102619Y-33904761D01*
X195102619Y-33619047D02*
X196102619Y-33619047D01*
X195102619Y-34666666D02*
X195626428Y-34666666D01*
X195721666Y-34619047D01*
X195769285Y-34523809D01*
X195769285Y-34333333D01*
X195721666Y-34238095D01*
X195150238Y-34666666D02*
X195102619Y-34571428D01*
X195102619Y-34333333D01*
X195150238Y-34238095D01*
X195245476Y-34190476D01*
X195340714Y-34190476D01*
X195435952Y-34238095D01*
X195483571Y-34333333D01*
X195483571Y-34571428D01*
X195531190Y-34666666D01*
X195769285Y-35571428D02*
X194959761Y-35571428D01*
X194864523Y-35523809D01*
X194816904Y-35476190D01*
X194769285Y-35380952D01*
X194769285Y-35238095D01*
X194816904Y-35142857D01*
X195150238Y-35571428D02*
X195102619Y-35476190D01*
X195102619Y-35285714D01*
X195150238Y-35190476D01*
X195197857Y-35142857D01*
X195293095Y-35095238D01*
X195578809Y-35095238D01*
X195674047Y-35142857D01*
X195721666Y-35190476D01*
X195769285Y-35285714D01*
X195769285Y-35476190D01*
X195721666Y-35571428D01*
X193492619Y-30809523D02*
X194492619Y-30809523D01*
X194492619Y-31190476D01*
X194445000Y-31285714D01*
X194397380Y-31333333D01*
X194302142Y-31380952D01*
X194159285Y-31380952D01*
X194064047Y-31333333D01*
X194016428Y-31285714D01*
X193968809Y-31190476D01*
X193968809Y-30809523D01*
X193492619Y-31809523D02*
X194159285Y-31809523D01*
X193968809Y-31809523D02*
X194064047Y-31857142D01*
X194111666Y-31904761D01*
X194159285Y-32000000D01*
X194159285Y-32095238D01*
X193540238Y-32809523D02*
X193492619Y-32714285D01*
X193492619Y-32523809D01*
X193540238Y-32428571D01*
X193635476Y-32380952D01*
X194016428Y-32380952D01*
X194111666Y-32428571D01*
X194159285Y-32523809D01*
X194159285Y-32714285D01*
X194111666Y-32809523D01*
X194016428Y-32857142D01*
X193921190Y-32857142D01*
X193825952Y-32380952D01*
X193540238Y-33238095D02*
X193492619Y-33333333D01*
X193492619Y-33523809D01*
X193540238Y-33619047D01*
X193635476Y-33666666D01*
X193683095Y-33666666D01*
X193778333Y-33619047D01*
X193825952Y-33523809D01*
X193825952Y-33380952D01*
X193873571Y-33285714D01*
X193968809Y-33238095D01*
X194016428Y-33238095D01*
X194111666Y-33285714D01*
X194159285Y-33380952D01*
X194159285Y-33523809D01*
X194111666Y-33619047D01*
X194492619Y-33952380D02*
X194492619Y-34523809D01*
X193492619Y-34238095D02*
X194492619Y-34238095D01*
X193492619Y-35285714D02*
X194016428Y-35285714D01*
X194111666Y-35238095D01*
X194159285Y-35142857D01*
X194159285Y-34952380D01*
X194111666Y-34857142D01*
X193540238Y-35285714D02*
X193492619Y-35190476D01*
X193492619Y-34952380D01*
X193540238Y-34857142D01*
X193635476Y-34809523D01*
X193730714Y-34809523D01*
X193825952Y-34857142D01*
X193873571Y-34952380D01*
X193873571Y-35190476D01*
X193921190Y-35285714D01*
X194159285Y-36190476D02*
X193349761Y-36190476D01*
X193254523Y-36142857D01*
X193206904Y-36095238D01*
X193159285Y-36000000D01*
X193159285Y-35857142D01*
X193206904Y-35761904D01*
X193540238Y-36190476D02*
X193492619Y-36095238D01*
X193492619Y-35904761D01*
X193540238Y-35809523D01*
X193587857Y-35761904D01*
X193683095Y-35714285D01*
X193968809Y-35714285D01*
X194064047Y-35761904D01*
X194111666Y-35809523D01*
X194159285Y-35904761D01*
X194159285Y-36095238D01*
X194111666Y-36190476D01*
X92126428Y-50761904D02*
X92078809Y-50904761D01*
X92031190Y-50952380D01*
X91935952Y-51000000D01*
X91793095Y-51000000D01*
X91697857Y-50952380D01*
X91650238Y-50904761D01*
X91602619Y-50809523D01*
X91602619Y-50428571D01*
X92602619Y-50428571D01*
X92602619Y-50761904D01*
X92555000Y-50857142D01*
X92507380Y-50904761D01*
X92412142Y-50952380D01*
X92316904Y-50952380D01*
X92221666Y-50904761D01*
X92174047Y-50857142D01*
X92126428Y-50761904D01*
X92126428Y-50428571D01*
X91602619Y-51428571D02*
X92269285Y-51428571D01*
X92602619Y-51428571D02*
X92555000Y-51380952D01*
X92507380Y-51428571D01*
X92555000Y-51476190D01*
X92602619Y-51428571D01*
X92507380Y-51428571D01*
X92269285Y-51761904D02*
X92269285Y-52142857D01*
X92602619Y-51904761D02*
X91745476Y-51904761D01*
X91650238Y-51952380D01*
X91602619Y-52047619D01*
X91602619Y-52142857D01*
X92602619Y-52333333D02*
X92602619Y-52904761D01*
X91602619Y-52619047D02*
X92602619Y-52619047D01*
X91602619Y-53666666D02*
X92126428Y-53666666D01*
X92221666Y-53619047D01*
X92269285Y-53523809D01*
X92269285Y-53333333D01*
X92221666Y-53238095D01*
X91650238Y-53666666D02*
X91602619Y-53571428D01*
X91602619Y-53333333D01*
X91650238Y-53238095D01*
X91745476Y-53190476D01*
X91840714Y-53190476D01*
X91935952Y-53238095D01*
X91983571Y-53333333D01*
X91983571Y-53571428D01*
X92031190Y-53666666D01*
X92269285Y-54571428D02*
X91459761Y-54571428D01*
X91364523Y-54523809D01*
X91316904Y-54476190D01*
X91269285Y-54380952D01*
X91269285Y-54238095D01*
X91316904Y-54142857D01*
X91650238Y-54571428D02*
X91602619Y-54476190D01*
X91602619Y-54285714D01*
X91650238Y-54190476D01*
X91697857Y-54142857D01*
X91793095Y-54095238D01*
X92078809Y-54095238D01*
X92174047Y-54142857D01*
X92221666Y-54190476D01*
X92269285Y-54285714D01*
X92269285Y-54476190D01*
X92221666Y-54571428D01*
X89992619Y-49809523D02*
X90992619Y-49809523D01*
X90992619Y-50190476D01*
X90945000Y-50285714D01*
X90897380Y-50333333D01*
X90802142Y-50380952D01*
X90659285Y-50380952D01*
X90564047Y-50333333D01*
X90516428Y-50285714D01*
X90468809Y-50190476D01*
X90468809Y-49809523D01*
X89992619Y-50809523D02*
X90659285Y-50809523D01*
X90468809Y-50809523D02*
X90564047Y-50857142D01*
X90611666Y-50904761D01*
X90659285Y-51000000D01*
X90659285Y-51095238D01*
X90040238Y-51809523D02*
X89992619Y-51714285D01*
X89992619Y-51523809D01*
X90040238Y-51428571D01*
X90135476Y-51380952D01*
X90516428Y-51380952D01*
X90611666Y-51428571D01*
X90659285Y-51523809D01*
X90659285Y-51714285D01*
X90611666Y-51809523D01*
X90516428Y-51857142D01*
X90421190Y-51857142D01*
X90325952Y-51380952D01*
X90040238Y-52238095D02*
X89992619Y-52333333D01*
X89992619Y-52523809D01*
X90040238Y-52619047D01*
X90135476Y-52666666D01*
X90183095Y-52666666D01*
X90278333Y-52619047D01*
X90325952Y-52523809D01*
X90325952Y-52380952D01*
X90373571Y-52285714D01*
X90468809Y-52238095D01*
X90516428Y-52238095D01*
X90611666Y-52285714D01*
X90659285Y-52380952D01*
X90659285Y-52523809D01*
X90611666Y-52619047D01*
X90992619Y-52952380D02*
X90992619Y-53523809D01*
X89992619Y-53238095D02*
X90992619Y-53238095D01*
X89992619Y-54285714D02*
X90516428Y-54285714D01*
X90611666Y-54238095D01*
X90659285Y-54142857D01*
X90659285Y-53952380D01*
X90611666Y-53857142D01*
X90040238Y-54285714D02*
X89992619Y-54190476D01*
X89992619Y-53952380D01*
X90040238Y-53857142D01*
X90135476Y-53809523D01*
X90230714Y-53809523D01*
X90325952Y-53857142D01*
X90373571Y-53952380D01*
X90373571Y-54190476D01*
X90421190Y-54285714D01*
X90659285Y-55190476D02*
X89849761Y-55190476D01*
X89754523Y-55142857D01*
X89706904Y-55095238D01*
X89659285Y-55000000D01*
X89659285Y-54857142D01*
X89706904Y-54761904D01*
X90040238Y-55190476D02*
X89992619Y-55095238D01*
X89992619Y-54904761D01*
X90040238Y-54809523D01*
X90087857Y-54761904D01*
X90183095Y-54714285D01*
X90468809Y-54714285D01*
X90564047Y-54761904D01*
X90611666Y-54809523D01*
X90659285Y-54904761D01*
X90659285Y-55095238D01*
X90611666Y-55190476D01*
X126626428Y-50761904D02*
X126578809Y-50904761D01*
X126531190Y-50952380D01*
X126435952Y-51000000D01*
X126293095Y-51000000D01*
X126197857Y-50952380D01*
X126150238Y-50904761D01*
X126102619Y-50809523D01*
X126102619Y-50428571D01*
X127102619Y-50428571D01*
X127102619Y-50761904D01*
X127055000Y-50857142D01*
X127007380Y-50904761D01*
X126912142Y-50952380D01*
X126816904Y-50952380D01*
X126721666Y-50904761D01*
X126674047Y-50857142D01*
X126626428Y-50761904D01*
X126626428Y-50428571D01*
X126102619Y-51428571D02*
X126769285Y-51428571D01*
X127102619Y-51428571D02*
X127055000Y-51380952D01*
X127007380Y-51428571D01*
X127055000Y-51476190D01*
X127102619Y-51428571D01*
X127007380Y-51428571D01*
X126769285Y-51761904D02*
X126769285Y-52142857D01*
X127102619Y-51904761D02*
X126245476Y-51904761D01*
X126150238Y-51952380D01*
X126102619Y-52047619D01*
X126102619Y-52142857D01*
X127102619Y-52333333D02*
X127102619Y-52904761D01*
X126102619Y-52619047D02*
X127102619Y-52619047D01*
X126102619Y-53666666D02*
X126626428Y-53666666D01*
X126721666Y-53619047D01*
X126769285Y-53523809D01*
X126769285Y-53333333D01*
X126721666Y-53238095D01*
X126150238Y-53666666D02*
X126102619Y-53571428D01*
X126102619Y-53333333D01*
X126150238Y-53238095D01*
X126245476Y-53190476D01*
X126340714Y-53190476D01*
X126435952Y-53238095D01*
X126483571Y-53333333D01*
X126483571Y-53571428D01*
X126531190Y-53666666D01*
X126769285Y-54571428D02*
X125959761Y-54571428D01*
X125864523Y-54523809D01*
X125816904Y-54476190D01*
X125769285Y-54380952D01*
X125769285Y-54238095D01*
X125816904Y-54142857D01*
X126150238Y-54571428D02*
X126102619Y-54476190D01*
X126102619Y-54285714D01*
X126150238Y-54190476D01*
X126197857Y-54142857D01*
X126293095Y-54095238D01*
X126578809Y-54095238D01*
X126674047Y-54142857D01*
X126721666Y-54190476D01*
X126769285Y-54285714D01*
X126769285Y-54476190D01*
X126721666Y-54571428D01*
X124492619Y-49809523D02*
X125492619Y-49809523D01*
X125492619Y-50190476D01*
X125445000Y-50285714D01*
X125397380Y-50333333D01*
X125302142Y-50380952D01*
X125159285Y-50380952D01*
X125064047Y-50333333D01*
X125016428Y-50285714D01*
X124968809Y-50190476D01*
X124968809Y-49809523D01*
X124492619Y-50809523D02*
X125159285Y-50809523D01*
X124968809Y-50809523D02*
X125064047Y-50857142D01*
X125111666Y-50904761D01*
X125159285Y-51000000D01*
X125159285Y-51095238D01*
X124540238Y-51809523D02*
X124492619Y-51714285D01*
X124492619Y-51523809D01*
X124540238Y-51428571D01*
X124635476Y-51380952D01*
X125016428Y-51380952D01*
X125111666Y-51428571D01*
X125159285Y-51523809D01*
X125159285Y-51714285D01*
X125111666Y-51809523D01*
X125016428Y-51857142D01*
X124921190Y-51857142D01*
X124825952Y-51380952D01*
X124540238Y-52238095D02*
X124492619Y-52333333D01*
X124492619Y-52523809D01*
X124540238Y-52619047D01*
X124635476Y-52666666D01*
X124683095Y-52666666D01*
X124778333Y-52619047D01*
X124825952Y-52523809D01*
X124825952Y-52380952D01*
X124873571Y-52285714D01*
X124968809Y-52238095D01*
X125016428Y-52238095D01*
X125111666Y-52285714D01*
X125159285Y-52380952D01*
X125159285Y-52523809D01*
X125111666Y-52619047D01*
X125492619Y-52952380D02*
X125492619Y-53523809D01*
X124492619Y-53238095D02*
X125492619Y-53238095D01*
X124492619Y-54285714D02*
X125016428Y-54285714D01*
X125111666Y-54238095D01*
X125159285Y-54142857D01*
X125159285Y-53952380D01*
X125111666Y-53857142D01*
X124540238Y-54285714D02*
X124492619Y-54190476D01*
X124492619Y-53952380D01*
X124540238Y-53857142D01*
X124635476Y-53809523D01*
X124730714Y-53809523D01*
X124825952Y-53857142D01*
X124873571Y-53952380D01*
X124873571Y-54190476D01*
X124921190Y-54285714D01*
X125159285Y-55190476D02*
X124349761Y-55190476D01*
X124254523Y-55142857D01*
X124206904Y-55095238D01*
X124159285Y-55000000D01*
X124159285Y-54857142D01*
X124206904Y-54761904D01*
X124540238Y-55190476D02*
X124492619Y-55095238D01*
X124492619Y-54904761D01*
X124540238Y-54809523D01*
X124587857Y-54761904D01*
X124683095Y-54714285D01*
X124968809Y-54714285D01*
X125064047Y-54761904D01*
X125111666Y-54809523D01*
X125159285Y-54904761D01*
X125159285Y-55095238D01*
X125111666Y-55190476D01*
X161126428Y-50761904D02*
X161078809Y-50904761D01*
X161031190Y-50952380D01*
X160935952Y-51000000D01*
X160793095Y-51000000D01*
X160697857Y-50952380D01*
X160650238Y-50904761D01*
X160602619Y-50809523D01*
X160602619Y-50428571D01*
X161602619Y-50428571D01*
X161602619Y-50761904D01*
X161555000Y-50857142D01*
X161507380Y-50904761D01*
X161412142Y-50952380D01*
X161316904Y-50952380D01*
X161221666Y-50904761D01*
X161174047Y-50857142D01*
X161126428Y-50761904D01*
X161126428Y-50428571D01*
X160602619Y-51428571D02*
X161269285Y-51428571D01*
X161602619Y-51428571D02*
X161555000Y-51380952D01*
X161507380Y-51428571D01*
X161555000Y-51476190D01*
X161602619Y-51428571D01*
X161507380Y-51428571D01*
X161269285Y-51761904D02*
X161269285Y-52142857D01*
X161602619Y-51904761D02*
X160745476Y-51904761D01*
X160650238Y-51952380D01*
X160602619Y-52047619D01*
X160602619Y-52142857D01*
X161602619Y-52333333D02*
X161602619Y-52904761D01*
X160602619Y-52619047D02*
X161602619Y-52619047D01*
X160602619Y-53666666D02*
X161126428Y-53666666D01*
X161221666Y-53619047D01*
X161269285Y-53523809D01*
X161269285Y-53333333D01*
X161221666Y-53238095D01*
X160650238Y-53666666D02*
X160602619Y-53571428D01*
X160602619Y-53333333D01*
X160650238Y-53238095D01*
X160745476Y-53190476D01*
X160840714Y-53190476D01*
X160935952Y-53238095D01*
X160983571Y-53333333D01*
X160983571Y-53571428D01*
X161031190Y-53666666D01*
X161269285Y-54571428D02*
X160459761Y-54571428D01*
X160364523Y-54523809D01*
X160316904Y-54476190D01*
X160269285Y-54380952D01*
X160269285Y-54238095D01*
X160316904Y-54142857D01*
X160650238Y-54571428D02*
X160602619Y-54476190D01*
X160602619Y-54285714D01*
X160650238Y-54190476D01*
X160697857Y-54142857D01*
X160793095Y-54095238D01*
X161078809Y-54095238D01*
X161174047Y-54142857D01*
X161221666Y-54190476D01*
X161269285Y-54285714D01*
X161269285Y-54476190D01*
X161221666Y-54571428D01*
X158992619Y-49809523D02*
X159992619Y-49809523D01*
X159992619Y-50190476D01*
X159945000Y-50285714D01*
X159897380Y-50333333D01*
X159802142Y-50380952D01*
X159659285Y-50380952D01*
X159564047Y-50333333D01*
X159516428Y-50285714D01*
X159468809Y-50190476D01*
X159468809Y-49809523D01*
X158992619Y-50809523D02*
X159659285Y-50809523D01*
X159468809Y-50809523D02*
X159564047Y-50857142D01*
X159611666Y-50904761D01*
X159659285Y-51000000D01*
X159659285Y-51095238D01*
X159040238Y-51809523D02*
X158992619Y-51714285D01*
X158992619Y-51523809D01*
X159040238Y-51428571D01*
X159135476Y-51380952D01*
X159516428Y-51380952D01*
X159611666Y-51428571D01*
X159659285Y-51523809D01*
X159659285Y-51714285D01*
X159611666Y-51809523D01*
X159516428Y-51857142D01*
X159421190Y-51857142D01*
X159325952Y-51380952D01*
X159040238Y-52238095D02*
X158992619Y-52333333D01*
X158992619Y-52523809D01*
X159040238Y-52619047D01*
X159135476Y-52666666D01*
X159183095Y-52666666D01*
X159278333Y-52619047D01*
X159325952Y-52523809D01*
X159325952Y-52380952D01*
X159373571Y-52285714D01*
X159468809Y-52238095D01*
X159516428Y-52238095D01*
X159611666Y-52285714D01*
X159659285Y-52380952D01*
X159659285Y-52523809D01*
X159611666Y-52619047D01*
X159992619Y-52952380D02*
X159992619Y-53523809D01*
X158992619Y-53238095D02*
X159992619Y-53238095D01*
X158992619Y-54285714D02*
X159516428Y-54285714D01*
X159611666Y-54238095D01*
X159659285Y-54142857D01*
X159659285Y-53952380D01*
X159611666Y-53857142D01*
X159040238Y-54285714D02*
X158992619Y-54190476D01*
X158992619Y-53952380D01*
X159040238Y-53857142D01*
X159135476Y-53809523D01*
X159230714Y-53809523D01*
X159325952Y-53857142D01*
X159373571Y-53952380D01*
X159373571Y-54190476D01*
X159421190Y-54285714D01*
X159659285Y-55190476D02*
X158849761Y-55190476D01*
X158754523Y-55142857D01*
X158706904Y-55095238D01*
X158659285Y-55000000D01*
X158659285Y-54857142D01*
X158706904Y-54761904D01*
X159040238Y-55190476D02*
X158992619Y-55095238D01*
X158992619Y-54904761D01*
X159040238Y-54809523D01*
X159087857Y-54761904D01*
X159183095Y-54714285D01*
X159468809Y-54714285D01*
X159564047Y-54761904D01*
X159611666Y-54809523D01*
X159659285Y-54904761D01*
X159659285Y-55095238D01*
X159611666Y-55190476D01*
X195626428Y-50761904D02*
X195578809Y-50904761D01*
X195531190Y-50952380D01*
X195435952Y-51000000D01*
X195293095Y-51000000D01*
X195197857Y-50952380D01*
X195150238Y-50904761D01*
X195102619Y-50809523D01*
X195102619Y-50428571D01*
X196102619Y-50428571D01*
X196102619Y-50761904D01*
X196055000Y-50857142D01*
X196007380Y-50904761D01*
X195912142Y-50952380D01*
X195816904Y-50952380D01*
X195721666Y-50904761D01*
X195674047Y-50857142D01*
X195626428Y-50761904D01*
X195626428Y-50428571D01*
X195102619Y-51428571D02*
X195769285Y-51428571D01*
X196102619Y-51428571D02*
X196055000Y-51380952D01*
X196007380Y-51428571D01*
X196055000Y-51476190D01*
X196102619Y-51428571D01*
X196007380Y-51428571D01*
X195769285Y-51761904D02*
X195769285Y-52142857D01*
X196102619Y-51904761D02*
X195245476Y-51904761D01*
X195150238Y-51952380D01*
X195102619Y-52047619D01*
X195102619Y-52142857D01*
X196102619Y-52333333D02*
X196102619Y-52904761D01*
X195102619Y-52619047D02*
X196102619Y-52619047D01*
X195102619Y-53666666D02*
X195626428Y-53666666D01*
X195721666Y-53619047D01*
X195769285Y-53523809D01*
X195769285Y-53333333D01*
X195721666Y-53238095D01*
X195150238Y-53666666D02*
X195102619Y-53571428D01*
X195102619Y-53333333D01*
X195150238Y-53238095D01*
X195245476Y-53190476D01*
X195340714Y-53190476D01*
X195435952Y-53238095D01*
X195483571Y-53333333D01*
X195483571Y-53571428D01*
X195531190Y-53666666D01*
X195769285Y-54571428D02*
X194959761Y-54571428D01*
X194864523Y-54523809D01*
X194816904Y-54476190D01*
X194769285Y-54380952D01*
X194769285Y-54238095D01*
X194816904Y-54142857D01*
X195150238Y-54571428D02*
X195102619Y-54476190D01*
X195102619Y-54285714D01*
X195150238Y-54190476D01*
X195197857Y-54142857D01*
X195293095Y-54095238D01*
X195578809Y-54095238D01*
X195674047Y-54142857D01*
X195721666Y-54190476D01*
X195769285Y-54285714D01*
X195769285Y-54476190D01*
X195721666Y-54571428D01*
X193492619Y-49809523D02*
X194492619Y-49809523D01*
X194492619Y-50190476D01*
X194445000Y-50285714D01*
X194397380Y-50333333D01*
X194302142Y-50380952D01*
X194159285Y-50380952D01*
X194064047Y-50333333D01*
X194016428Y-50285714D01*
X193968809Y-50190476D01*
X193968809Y-49809523D01*
X193492619Y-50809523D02*
X194159285Y-50809523D01*
X193968809Y-50809523D02*
X194064047Y-50857142D01*
X194111666Y-50904761D01*
X194159285Y-51000000D01*
X194159285Y-51095238D01*
X193540238Y-51809523D02*
X193492619Y-51714285D01*
X193492619Y-51523809D01*
X193540238Y-51428571D01*
X193635476Y-51380952D01*
X194016428Y-51380952D01*
X194111666Y-51428571D01*
X194159285Y-51523809D01*
X194159285Y-51714285D01*
X194111666Y-51809523D01*
X194016428Y-51857142D01*
X193921190Y-51857142D01*
X193825952Y-51380952D01*
X193540238Y-52238095D02*
X193492619Y-52333333D01*
X193492619Y-52523809D01*
X193540238Y-52619047D01*
X193635476Y-52666666D01*
X193683095Y-52666666D01*
X193778333Y-52619047D01*
X193825952Y-52523809D01*
X193825952Y-52380952D01*
X193873571Y-52285714D01*
X193968809Y-52238095D01*
X194016428Y-52238095D01*
X194111666Y-52285714D01*
X194159285Y-52380952D01*
X194159285Y-52523809D01*
X194111666Y-52619047D01*
X194492619Y-52952380D02*
X194492619Y-53523809D01*
X193492619Y-53238095D02*
X194492619Y-53238095D01*
X193492619Y-54285714D02*
X194016428Y-54285714D01*
X194111666Y-54238095D01*
X194159285Y-54142857D01*
X194159285Y-53952380D01*
X194111666Y-53857142D01*
X193540238Y-54285714D02*
X193492619Y-54190476D01*
X193492619Y-53952380D01*
X193540238Y-53857142D01*
X193635476Y-53809523D01*
X193730714Y-53809523D01*
X193825952Y-53857142D01*
X193873571Y-53952380D01*
X193873571Y-54190476D01*
X193921190Y-54285714D01*
X194159285Y-55190476D02*
X193349761Y-55190476D01*
X193254523Y-55142857D01*
X193206904Y-55095238D01*
X193159285Y-55000000D01*
X193159285Y-54857142D01*
X193206904Y-54761904D01*
X193540238Y-55190476D02*
X193492619Y-55095238D01*
X193492619Y-54904761D01*
X193540238Y-54809523D01*
X193587857Y-54761904D01*
X193683095Y-54714285D01*
X193968809Y-54714285D01*
X194064047Y-54761904D01*
X194111666Y-54809523D01*
X194159285Y-54904761D01*
X194159285Y-55095238D01*
X194111666Y-55190476D01*
X92126428Y-69761904D02*
X92078809Y-69904761D01*
X92031190Y-69952380D01*
X91935952Y-70000000D01*
X91793095Y-70000000D01*
X91697857Y-69952380D01*
X91650238Y-69904761D01*
X91602619Y-69809523D01*
X91602619Y-69428571D01*
X92602619Y-69428571D01*
X92602619Y-69761904D01*
X92555000Y-69857142D01*
X92507380Y-69904761D01*
X92412142Y-69952380D01*
X92316904Y-69952380D01*
X92221666Y-69904761D01*
X92174047Y-69857142D01*
X92126428Y-69761904D01*
X92126428Y-69428571D01*
X91602619Y-70428571D02*
X92269285Y-70428571D01*
X92602619Y-70428571D02*
X92555000Y-70380952D01*
X92507380Y-70428571D01*
X92555000Y-70476190D01*
X92602619Y-70428571D01*
X92507380Y-70428571D01*
X92269285Y-70761904D02*
X92269285Y-71142857D01*
X92602619Y-70904761D02*
X91745476Y-70904761D01*
X91650238Y-70952380D01*
X91602619Y-71047619D01*
X91602619Y-71142857D01*
X92602619Y-71333333D02*
X92602619Y-71904761D01*
X91602619Y-71619047D02*
X92602619Y-71619047D01*
X91602619Y-72666666D02*
X92126428Y-72666666D01*
X92221666Y-72619047D01*
X92269285Y-72523809D01*
X92269285Y-72333333D01*
X92221666Y-72238095D01*
X91650238Y-72666666D02*
X91602619Y-72571428D01*
X91602619Y-72333333D01*
X91650238Y-72238095D01*
X91745476Y-72190476D01*
X91840714Y-72190476D01*
X91935952Y-72238095D01*
X91983571Y-72333333D01*
X91983571Y-72571428D01*
X92031190Y-72666666D01*
X92269285Y-73571428D02*
X91459761Y-73571428D01*
X91364523Y-73523809D01*
X91316904Y-73476190D01*
X91269285Y-73380952D01*
X91269285Y-73238095D01*
X91316904Y-73142857D01*
X91650238Y-73571428D02*
X91602619Y-73476190D01*
X91602619Y-73285714D01*
X91650238Y-73190476D01*
X91697857Y-73142857D01*
X91793095Y-73095238D01*
X92078809Y-73095238D01*
X92174047Y-73142857D01*
X92221666Y-73190476D01*
X92269285Y-73285714D01*
X92269285Y-73476190D01*
X92221666Y-73571428D01*
X89992619Y-68809523D02*
X90992619Y-68809523D01*
X90992619Y-69190476D01*
X90945000Y-69285714D01*
X90897380Y-69333333D01*
X90802142Y-69380952D01*
X90659285Y-69380952D01*
X90564047Y-69333333D01*
X90516428Y-69285714D01*
X90468809Y-69190476D01*
X90468809Y-68809523D01*
X89992619Y-69809523D02*
X90659285Y-69809523D01*
X90468809Y-69809523D02*
X90564047Y-69857142D01*
X90611666Y-69904761D01*
X90659285Y-70000000D01*
X90659285Y-70095238D01*
X90040238Y-70809523D02*
X89992619Y-70714285D01*
X89992619Y-70523809D01*
X90040238Y-70428571D01*
X90135476Y-70380952D01*
X90516428Y-70380952D01*
X90611666Y-70428571D01*
X90659285Y-70523809D01*
X90659285Y-70714285D01*
X90611666Y-70809523D01*
X90516428Y-70857142D01*
X90421190Y-70857142D01*
X90325952Y-70380952D01*
X90040238Y-71238095D02*
X89992619Y-71333333D01*
X89992619Y-71523809D01*
X90040238Y-71619047D01*
X90135476Y-71666666D01*
X90183095Y-71666666D01*
X90278333Y-71619047D01*
X90325952Y-71523809D01*
X90325952Y-71380952D01*
X90373571Y-71285714D01*
X90468809Y-71238095D01*
X90516428Y-71238095D01*
X90611666Y-71285714D01*
X90659285Y-71380952D01*
X90659285Y-71523809D01*
X90611666Y-71619047D01*
X90992619Y-71952380D02*
X90992619Y-72523809D01*
X89992619Y-72238095D02*
X90992619Y-72238095D01*
X89992619Y-73285714D02*
X90516428Y-73285714D01*
X90611666Y-73238095D01*
X90659285Y-73142857D01*
X90659285Y-72952380D01*
X90611666Y-72857142D01*
X90040238Y-73285714D02*
X89992619Y-73190476D01*
X89992619Y-72952380D01*
X90040238Y-72857142D01*
X90135476Y-72809523D01*
X90230714Y-72809523D01*
X90325952Y-72857142D01*
X90373571Y-72952380D01*
X90373571Y-73190476D01*
X90421190Y-73285714D01*
X90659285Y-74190476D02*
X89849761Y-74190476D01*
X89754523Y-74142857D01*
X89706904Y-74095238D01*
X89659285Y-74000000D01*
X89659285Y-73857142D01*
X89706904Y-73761904D01*
X90040238Y-74190476D02*
X89992619Y-74095238D01*
X89992619Y-73904761D01*
X90040238Y-73809523D01*
X90087857Y-73761904D01*
X90183095Y-73714285D01*
X90468809Y-73714285D01*
X90564047Y-73761904D01*
X90611666Y-73809523D01*
X90659285Y-73904761D01*
X90659285Y-74095238D01*
X90611666Y-74190476D01*
X126626428Y-69761904D02*
X126578809Y-69904761D01*
X126531190Y-69952380D01*
X126435952Y-70000000D01*
X126293095Y-70000000D01*
X126197857Y-69952380D01*
X126150238Y-69904761D01*
X126102619Y-69809523D01*
X126102619Y-69428571D01*
X127102619Y-69428571D01*
X127102619Y-69761904D01*
X127055000Y-69857142D01*
X127007380Y-69904761D01*
X126912142Y-69952380D01*
X126816904Y-69952380D01*
X126721666Y-69904761D01*
X126674047Y-69857142D01*
X126626428Y-69761904D01*
X126626428Y-69428571D01*
X126102619Y-70428571D02*
X126769285Y-70428571D01*
X127102619Y-70428571D02*
X127055000Y-70380952D01*
X127007380Y-70428571D01*
X127055000Y-70476190D01*
X127102619Y-70428571D01*
X127007380Y-70428571D01*
X126769285Y-70761904D02*
X126769285Y-71142857D01*
X127102619Y-70904761D02*
X126245476Y-70904761D01*
X126150238Y-70952380D01*
X126102619Y-71047619D01*
X126102619Y-71142857D01*
X127102619Y-71333333D02*
X127102619Y-71904761D01*
X126102619Y-71619047D02*
X127102619Y-71619047D01*
X126102619Y-72666666D02*
X126626428Y-72666666D01*
X126721666Y-72619047D01*
X126769285Y-72523809D01*
X126769285Y-72333333D01*
X126721666Y-72238095D01*
X126150238Y-72666666D02*
X126102619Y-72571428D01*
X126102619Y-72333333D01*
X126150238Y-72238095D01*
X126245476Y-72190476D01*
X126340714Y-72190476D01*
X126435952Y-72238095D01*
X126483571Y-72333333D01*
X126483571Y-72571428D01*
X126531190Y-72666666D01*
X126769285Y-73571428D02*
X125959761Y-73571428D01*
X125864523Y-73523809D01*
X125816904Y-73476190D01*
X125769285Y-73380952D01*
X125769285Y-73238095D01*
X125816904Y-73142857D01*
X126150238Y-73571428D02*
X126102619Y-73476190D01*
X126102619Y-73285714D01*
X126150238Y-73190476D01*
X126197857Y-73142857D01*
X126293095Y-73095238D01*
X126578809Y-73095238D01*
X126674047Y-73142857D01*
X126721666Y-73190476D01*
X126769285Y-73285714D01*
X126769285Y-73476190D01*
X126721666Y-73571428D01*
X124492619Y-68809523D02*
X125492619Y-68809523D01*
X125492619Y-69190476D01*
X125445000Y-69285714D01*
X125397380Y-69333333D01*
X125302142Y-69380952D01*
X125159285Y-69380952D01*
X125064047Y-69333333D01*
X125016428Y-69285714D01*
X124968809Y-69190476D01*
X124968809Y-68809523D01*
X124492619Y-69809523D02*
X125159285Y-69809523D01*
X124968809Y-69809523D02*
X125064047Y-69857142D01*
X125111666Y-69904761D01*
X125159285Y-70000000D01*
X125159285Y-70095238D01*
X124540238Y-70809523D02*
X124492619Y-70714285D01*
X124492619Y-70523809D01*
X124540238Y-70428571D01*
X124635476Y-70380952D01*
X125016428Y-70380952D01*
X125111666Y-70428571D01*
X125159285Y-70523809D01*
X125159285Y-70714285D01*
X125111666Y-70809523D01*
X125016428Y-70857142D01*
X124921190Y-70857142D01*
X124825952Y-70380952D01*
X124540238Y-71238095D02*
X124492619Y-71333333D01*
X124492619Y-71523809D01*
X124540238Y-71619047D01*
X124635476Y-71666666D01*
X124683095Y-71666666D01*
X124778333Y-71619047D01*
X124825952Y-71523809D01*
X124825952Y-71380952D01*
X124873571Y-71285714D01*
X124968809Y-71238095D01*
X125016428Y-71238095D01*
X125111666Y-71285714D01*
X125159285Y-71380952D01*
X125159285Y-71523809D01*
X125111666Y-71619047D01*
X125492619Y-71952380D02*
X125492619Y-72523809D01*
X124492619Y-72238095D02*
X125492619Y-72238095D01*
X124492619Y-73285714D02*
X125016428Y-73285714D01*
X125111666Y-73238095D01*
X125159285Y-73142857D01*
X125159285Y-72952380D01*
X125111666Y-72857142D01*
X124540238Y-73285714D02*
X124492619Y-73190476D01*
X124492619Y-72952380D01*
X124540238Y-72857142D01*
X124635476Y-72809523D01*
X124730714Y-72809523D01*
X124825952Y-72857142D01*
X124873571Y-72952380D01*
X124873571Y-73190476D01*
X124921190Y-73285714D01*
X125159285Y-74190476D02*
X124349761Y-74190476D01*
X124254523Y-74142857D01*
X124206904Y-74095238D01*
X124159285Y-74000000D01*
X124159285Y-73857142D01*
X124206904Y-73761904D01*
X124540238Y-74190476D02*
X124492619Y-74095238D01*
X124492619Y-73904761D01*
X124540238Y-73809523D01*
X124587857Y-73761904D01*
X124683095Y-73714285D01*
X124968809Y-73714285D01*
X125064047Y-73761904D01*
X125111666Y-73809523D01*
X125159285Y-73904761D01*
X125159285Y-74095238D01*
X125111666Y-74190476D01*
X195626428Y-69761904D02*
X195578809Y-69904761D01*
X195531190Y-69952380D01*
X195435952Y-70000000D01*
X195293095Y-70000000D01*
X195197857Y-69952380D01*
X195150238Y-69904761D01*
X195102619Y-69809523D01*
X195102619Y-69428571D01*
X196102619Y-69428571D01*
X196102619Y-69761904D01*
X196055000Y-69857142D01*
X196007380Y-69904761D01*
X195912142Y-69952380D01*
X195816904Y-69952380D01*
X195721666Y-69904761D01*
X195674047Y-69857142D01*
X195626428Y-69761904D01*
X195626428Y-69428571D01*
X195102619Y-70428571D02*
X195769285Y-70428571D01*
X196102619Y-70428571D02*
X196055000Y-70380952D01*
X196007380Y-70428571D01*
X196055000Y-70476190D01*
X196102619Y-70428571D01*
X196007380Y-70428571D01*
X195769285Y-70761904D02*
X195769285Y-71142857D01*
X196102619Y-70904761D02*
X195245476Y-70904761D01*
X195150238Y-70952380D01*
X195102619Y-71047619D01*
X195102619Y-71142857D01*
X196102619Y-71333333D02*
X196102619Y-71904761D01*
X195102619Y-71619047D02*
X196102619Y-71619047D01*
X195102619Y-72666666D02*
X195626428Y-72666666D01*
X195721666Y-72619047D01*
X195769285Y-72523809D01*
X195769285Y-72333333D01*
X195721666Y-72238095D01*
X195150238Y-72666666D02*
X195102619Y-72571428D01*
X195102619Y-72333333D01*
X195150238Y-72238095D01*
X195245476Y-72190476D01*
X195340714Y-72190476D01*
X195435952Y-72238095D01*
X195483571Y-72333333D01*
X195483571Y-72571428D01*
X195531190Y-72666666D01*
X195769285Y-73571428D02*
X194959761Y-73571428D01*
X194864523Y-73523809D01*
X194816904Y-73476190D01*
X194769285Y-73380952D01*
X194769285Y-73238095D01*
X194816904Y-73142857D01*
X195150238Y-73571428D02*
X195102619Y-73476190D01*
X195102619Y-73285714D01*
X195150238Y-73190476D01*
X195197857Y-73142857D01*
X195293095Y-73095238D01*
X195578809Y-73095238D01*
X195674047Y-73142857D01*
X195721666Y-73190476D01*
X195769285Y-73285714D01*
X195769285Y-73476190D01*
X195721666Y-73571428D01*
X193492619Y-68809523D02*
X194492619Y-68809523D01*
X194492619Y-69190476D01*
X194445000Y-69285714D01*
X194397380Y-69333333D01*
X194302142Y-69380952D01*
X194159285Y-69380952D01*
X194064047Y-69333333D01*
X194016428Y-69285714D01*
X193968809Y-69190476D01*
X193968809Y-68809523D01*
X193492619Y-69809523D02*
X194159285Y-69809523D01*
X193968809Y-69809523D02*
X194064047Y-69857142D01*
X194111666Y-69904761D01*
X194159285Y-70000000D01*
X194159285Y-70095238D01*
X193540238Y-70809523D02*
X193492619Y-70714285D01*
X193492619Y-70523809D01*
X193540238Y-70428571D01*
X193635476Y-70380952D01*
X194016428Y-70380952D01*
X194111666Y-70428571D01*
X194159285Y-70523809D01*
X194159285Y-70714285D01*
X194111666Y-70809523D01*
X194016428Y-70857142D01*
X193921190Y-70857142D01*
X193825952Y-70380952D01*
X193540238Y-71238095D02*
X193492619Y-71333333D01*
X193492619Y-71523809D01*
X193540238Y-71619047D01*
X193635476Y-71666666D01*
X193683095Y-71666666D01*
X193778333Y-71619047D01*
X193825952Y-71523809D01*
X193825952Y-71380952D01*
X193873571Y-71285714D01*
X193968809Y-71238095D01*
X194016428Y-71238095D01*
X194111666Y-71285714D01*
X194159285Y-71380952D01*
X194159285Y-71523809D01*
X194111666Y-71619047D01*
X194492619Y-71952380D02*
X194492619Y-72523809D01*
X193492619Y-72238095D02*
X194492619Y-72238095D01*
X193492619Y-73285714D02*
X194016428Y-73285714D01*
X194111666Y-73238095D01*
X194159285Y-73142857D01*
X194159285Y-72952380D01*
X194111666Y-72857142D01*
X193540238Y-73285714D02*
X193492619Y-73190476D01*
X193492619Y-72952380D01*
X193540238Y-72857142D01*
X193635476Y-72809523D01*
X193730714Y-72809523D01*
X193825952Y-72857142D01*
X193873571Y-72952380D01*
X193873571Y-73190476D01*
X193921190Y-73285714D01*
X194159285Y-74190476D02*
X193349761Y-74190476D01*
X193254523Y-74142857D01*
X193206904Y-74095238D01*
X193159285Y-74000000D01*
X193159285Y-73857142D01*
X193206904Y-73761904D01*
X193540238Y-74190476D02*
X193492619Y-74095238D01*
X193492619Y-73904761D01*
X193540238Y-73809523D01*
X193587857Y-73761904D01*
X193683095Y-73714285D01*
X193968809Y-73714285D01*
X194064047Y-73761904D01*
X194111666Y-73809523D01*
X194159285Y-73904761D01*
X194159285Y-74095238D01*
X194111666Y-74190476D01*
M02*
