%TF.GenerationSoftware,KiCad,Pcbnew,(6.0.11-0)*%
%TF.CreationDate,2023-04-29T14:31:07-04:00*%
%TF.ProjectId,pcb_coating_tool_array,7063625f-636f-4617-9469-6e675f746f6f,rev?*%
%TF.SameCoordinates,Original*%
%TF.FileFunction,Soldermask,Bot*%
%TF.FilePolarity,Negative*%
%FSLAX46Y46*%
G04 Gerber Fmt 4.6, Leading zero omitted, Abs format (unit mm)*
G04 Created by KiCad (PCBNEW (6.0.11-0)) date 2023-04-29 14:31:07*
%MOMM*%
%LPD*%
G01*
G04 APERTURE LIST*
%ADD10C,1.422000*%
G04 APERTURE END LIST*
D10*
%TO.C,J302*%
X96250000Y-87720000D03*
%TD*%
%TO.C,J303*%
X119750000Y-75220000D03*
%TD*%
%TO.C,J301*%
X199750000Y-37220000D03*
%TD*%
%TO.C,J304*%
X85250000Y-68720000D03*
%TD*%
%TO.C,J303*%
X85250000Y-75220000D03*
%TD*%
%TO.C,J303*%
X154250000Y-75220000D03*
%TD*%
%TO.C,J302*%
X130750000Y-49720000D03*
%TD*%
%TO.C,J301*%
X130750000Y-113220000D03*
%TD*%
%TO.C,J302*%
X130750000Y-30720000D03*
%TD*%
%TO.C,J302*%
X199750000Y-49720000D03*
%TD*%
%TO.C,J304*%
X119750000Y-106720000D03*
%TD*%
%TO.C,J301*%
X199750000Y-56220000D03*
%TD*%
%TO.C,J303*%
X154250000Y-56220000D03*
%TD*%
%TO.C,J303*%
X85250000Y-113220000D03*
%TD*%
%TO.C,J301*%
X96250000Y-75220000D03*
%TD*%
%TO.C,J304*%
X154250000Y-68720000D03*
%TD*%
%TO.C,J303*%
X188750000Y-94220000D03*
%TD*%
%TO.C,J302*%
X130750000Y-106720000D03*
%TD*%
%TO.C,J301*%
X130750000Y-56220000D03*
%TD*%
%TO.C,J301*%
X130750000Y-37220000D03*
%TD*%
%TO.C,J303*%
X188750000Y-56220000D03*
%TD*%
%TO.C,J304*%
X85250000Y-49720000D03*
%TD*%
%TO.C,J303*%
X119750000Y-113220000D03*
%TD*%
%TO.C,J303*%
X119750000Y-94220000D03*
%TD*%
%TO.C,J301*%
X96250000Y-94220000D03*
%TD*%
%TO.C,J301*%
X165250000Y-113220000D03*
%TD*%
%TO.C,J301*%
X130750000Y-75220000D03*
%TD*%
%TO.C,J301*%
X165250000Y-94220000D03*
%TD*%
%TO.C,J304*%
X188750000Y-87720000D03*
%TD*%
%TO.C,J304*%
X85250000Y-87720000D03*
%TD*%
%TO.C,J304*%
X188750000Y-30720000D03*
%TD*%
%TO.C,J304*%
X119750000Y-30720000D03*
%TD*%
%TO.C,J302*%
X199750000Y-30720000D03*
%TD*%
%TO.C,J301*%
X96250000Y-37220000D03*
%TD*%
%TO.C,J304*%
X119750000Y-49720000D03*
%TD*%
%TO.C,J303*%
X119750000Y-56220000D03*
%TD*%
%TO.C,J304*%
X154250000Y-106720000D03*
%TD*%
%TO.C,J304*%
X154250000Y-87720000D03*
%TD*%
%TO.C,J303*%
X188750000Y-113220000D03*
%TD*%
%TO.C,J301*%
X165250000Y-37220000D03*
%TD*%
%TO.C,J303*%
X154250000Y-113220000D03*
%TD*%
%TO.C,J301*%
X130750000Y-94220000D03*
%TD*%
%TO.C,J301*%
X199750000Y-75220000D03*
%TD*%
%TO.C,J302*%
X96250000Y-49720000D03*
%TD*%
%TO.C,J301*%
X96250000Y-113220000D03*
%TD*%
%TO.C,J304*%
X85250000Y-30720000D03*
%TD*%
%TO.C,J302*%
X199750000Y-106720000D03*
%TD*%
%TO.C,J303*%
X154250000Y-94220000D03*
%TD*%
%TO.C,J304*%
X85250000Y-106720000D03*
%TD*%
%TO.C,J302*%
X165250000Y-68720000D03*
%TD*%
%TO.C,J304*%
X188750000Y-49720000D03*
%TD*%
%TO.C,J301*%
X199750000Y-113220000D03*
%TD*%
%TO.C,J302*%
X130750000Y-87720000D03*
%TD*%
%TO.C,J304*%
X154250000Y-49720000D03*
%TD*%
%TO.C,J302*%
X130750000Y-68720000D03*
%TD*%
%TO.C,J304*%
X154250000Y-30720000D03*
%TD*%
%TO.C,J302*%
X199750000Y-87720000D03*
%TD*%
%TO.C,J303*%
X85250000Y-37220000D03*
%TD*%
%TO.C,J303*%
X85250000Y-56220000D03*
%TD*%
%TO.C,J302*%
X199750000Y-68720000D03*
%TD*%
%TO.C,J301*%
X165250000Y-56220000D03*
%TD*%
%TO.C,J303*%
X188750000Y-37220000D03*
%TD*%
%TO.C,J302*%
X165250000Y-49720000D03*
%TD*%
%TO.C,J301*%
X96250000Y-56220000D03*
%TD*%
%TO.C,J302*%
X96250000Y-68720000D03*
%TD*%
%TO.C,J302*%
X96250000Y-30720000D03*
%TD*%
%TO.C,J302*%
X165250000Y-30720000D03*
%TD*%
%TO.C,J302*%
X96250000Y-106720000D03*
%TD*%
%TO.C,J303*%
X154250000Y-37220000D03*
%TD*%
%TO.C,J303*%
X188750000Y-75220000D03*
%TD*%
%TO.C,J304*%
X188750000Y-68720000D03*
%TD*%
%TO.C,J304*%
X119750000Y-68720000D03*
%TD*%
%TO.C,J304*%
X188750000Y-106720000D03*
%TD*%
%TO.C,J301*%
X199750000Y-94220000D03*
%TD*%
%TO.C,J303*%
X119750000Y-37220000D03*
%TD*%
%TO.C,J303*%
X85250000Y-94220000D03*
%TD*%
%TO.C,J301*%
X165250000Y-75220000D03*
%TD*%
%TO.C,J302*%
X165250000Y-106720000D03*
%TD*%
%TO.C,J304*%
X119750000Y-87720000D03*
%TD*%
%TO.C,J302*%
X165250000Y-87720000D03*
%TD*%
M02*
