%TF.GenerationSoftware,KiCad,Pcbnew,(6.0.11-0)*%
%TF.CreationDate,2023-04-29T14:31:07-04:00*%
%TF.ProjectId,pcb_coating_tool_array,7063625f-636f-4617-9469-6e675f746f6f,rev?*%
%TF.SameCoordinates,Original*%
%TF.FileFunction,Profile,NP*%
%FSLAX46Y46*%
G04 Gerber Fmt 4.6, Leading zero omitted, Abs format (unit mm)*
G04 Created by KiCad (PCBNEW (6.0.11-0)) date 2023-04-29 14:31:07*
%MOMM*%
%LPD*%
G01*
G04 APERTURE LIST*
%TA.AperFunction,Profile*%
%ADD10C,0.100000*%
%TD*%
G04 APERTURE END LIST*
D10*
X206204033Y-47503785D02*
X206475591Y-47520601D01*
X203569954Y-95934053D02*
X203328920Y-95807841D01*
X174051342Y-48127562D02*
X174289181Y-48259697D01*
X141232614Y-75512117D02*
X141053748Y-75717139D01*
X97596379Y-74490884D02*
X97479196Y-74245334D01*
X140666717Y-38099412D02*
X140459499Y-38275729D01*
X211493270Y-109728004D02*
X211500000Y-110000000D01*
X166001682Y-90863960D02*
X166015137Y-90592214D01*
X211259455Y-35608767D02*
X211173460Y-35866898D01*
X132855550Y-37615734D02*
X132681809Y-37406352D01*
X101352050Y-66621132D02*
X101619459Y-66570944D01*
X167539433Y-56816269D02*
X167355550Y-56615734D01*
X166042015Y-109321466D02*
X166082249Y-109052379D01*
X141558861Y-87923185D02*
X141705442Y-88152403D01*
X205931975Y-47500420D02*
X206204033Y-47503785D01*
X211493270Y-71728004D02*
X211500000Y-72000000D01*
X131874299Y-51005710D02*
X131979196Y-50754665D01*
X172245986Y-96449174D02*
X171975591Y-96479398D01*
X200542015Y-109321466D02*
X200582249Y-109052379D01*
X169826306Y-115239155D02*
X169569258Y-115149974D01*
X107832579Y-111346699D02*
X107759455Y-111608767D01*
X166374299Y-51005710D02*
X166479196Y-50754665D01*
X140459499Y-76275729D02*
X140243815Y-76441582D01*
X209020194Y-114596566D02*
X208789181Y-114740302D01*
X131515137Y-34407785D02*
X131501682Y-34136039D01*
X174959499Y-114275729D02*
X174743815Y-114441582D01*
X105289181Y-48259697D02*
X105520194Y-48403433D01*
X131781945Y-51261635D02*
X131781945Y-51261635D01*
X210558861Y-94076814D02*
X210401123Y-94298502D01*
X208551342Y-48127562D02*
X208789181Y-48259697D01*
X206745986Y-77449174D02*
X206475591Y-77479398D01*
X103245986Y-85550825D02*
X103514555Y-85594384D01*
X170352050Y-85621132D02*
X170619459Y-85570944D01*
X107892653Y-70918664D02*
X107939531Y-71186674D01*
X170087449Y-96315515D02*
X169826306Y-96239155D01*
X205660083Y-104510513D02*
X205931975Y-104500420D01*
X211332579Y-51653300D02*
X211392653Y-51918664D01*
X103514555Y-58405615D02*
X103245986Y-58449174D01*
X211074804Y-107879539D02*
X211173460Y-108133101D01*
X97082249Y-72947620D02*
X97042015Y-72678533D01*
X210840509Y-69388589D02*
X210963730Y-69631165D01*
X138802769Y-39196154D02*
X138543594Y-39278950D01*
X204326306Y-39239155D02*
X204069258Y-39149974D01*
X175166717Y-67900587D02*
X175364962Y-68086936D01*
X107463730Y-50631165D02*
X107574804Y-50879539D01*
X102975591Y-96479398D02*
X102704033Y-96496214D01*
X97374299Y-92994289D02*
X97281945Y-92738364D01*
X208307260Y-86007350D02*
X208551342Y-86127562D01*
X75118078Y-123471396D02*
X75168530Y-123555570D01*
X207280641Y-47651172D02*
X207543594Y-47721049D01*
X107973097Y-90456674D02*
X107993270Y-90728004D01*
X142392653Y-32918664D02*
X142439531Y-33186674D01*
X106553748Y-113717139D02*
X106364962Y-113913063D01*
X137475591Y-85520601D02*
X137745986Y-85550825D01*
X175553748Y-106282860D02*
X175732614Y-106487882D01*
X137475591Y-28520601D02*
X137745986Y-28550825D01*
X175901123Y-94298502D02*
X175732614Y-94512117D01*
X170352050Y-39378867D02*
X170087449Y-39315515D01*
X99594423Y-57669863D02*
X99367036Y-57520457D01*
X139789181Y-95740302D02*
X139551342Y-95872437D01*
X132096379Y-50509115D02*
X132225563Y-50269660D01*
X201855550Y-49384265D02*
X202039433Y-49183730D01*
X142259455Y-92608767D02*
X142173460Y-92866898D01*
X175364962Y-113913063D02*
X175166717Y-114099412D01*
X174289181Y-95740302D02*
X174051342Y-95872437D01*
X211439531Y-91813325D02*
X211392653Y-92081335D01*
X169316935Y-47951809D02*
X169569258Y-47850025D01*
X97866430Y-55963111D02*
X97725563Y-55730339D01*
X140666717Y-86900587D02*
X140864962Y-87086936D01*
X167539433Y-94816269D02*
X167355550Y-94615734D01*
X140864962Y-87086936D02*
X141053748Y-87282860D01*
X135852050Y-58378867D02*
X135587449Y-58315515D01*
X209666717Y-95099412D02*
X209459499Y-95275729D01*
X209243815Y-38441582D02*
X209020194Y-38596566D01*
X210558861Y-68923185D02*
X210705442Y-69152403D01*
X210053748Y-30282860D02*
X210232614Y-30487882D01*
X201366430Y-88036888D02*
X201518636Y-87811366D01*
X207280641Y-115348827D02*
X207014555Y-115405615D01*
X210053748Y-106282860D02*
X210232614Y-106487882D01*
X171704033Y-39496214D02*
X171431975Y-39499579D01*
X206745986Y-115449174D02*
X206475591Y-115479398D01*
X97015137Y-72407785D02*
X97001682Y-72136039D01*
X131582249Y-109052379D02*
X131635742Y-108785611D01*
X107205442Y-112847596D02*
X107058861Y-113076814D01*
X97596379Y-69509115D02*
X97725563Y-69269660D01*
X166042015Y-53678533D02*
X166015137Y-53407785D01*
X211439531Y-33186674D02*
X211473097Y-33456674D01*
X139307260Y-76992649D02*
X139057532Y-77100643D01*
X211392653Y-54081335D02*
X211332579Y-54346699D01*
X103514555Y-66594384D02*
X103780641Y-66651172D01*
X176939531Y-33186674D02*
X176973097Y-33456674D01*
X107892653Y-89918664D02*
X107939531Y-90186674D01*
X210705442Y-93847596D02*
X210558861Y-94076814D01*
X204326306Y-104760844D02*
X204587449Y-104684484D01*
X208057532Y-77100643D02*
X207802769Y-77196154D01*
X205660083Y-77489486D02*
X205389024Y-77465959D01*
X101087449Y-85684484D02*
X101352050Y-85621132D01*
X203816935Y-66951809D02*
X204069258Y-66850025D01*
X221881921Y-123471396D02*
X221923879Y-123382683D01*
X201366430Y-112963111D02*
X201225563Y-112730339D01*
X221831469Y-20444429D02*
X221773010Y-20365606D01*
X138014555Y-47594384D02*
X138280641Y-47651172D01*
X132225563Y-55730339D02*
X132096379Y-55490884D01*
X142493270Y-34271995D02*
X142473097Y-34543325D01*
X107993270Y-34271995D02*
X107973097Y-34543325D01*
X107832579Y-35346699D02*
X107759455Y-35608767D01*
X132366430Y-50036888D02*
X132518636Y-49811366D01*
X142332579Y-111346699D02*
X142259455Y-111608767D01*
X176759455Y-70391232D02*
X176832579Y-70653300D01*
X97135742Y-92214388D02*
X97082249Y-91947620D01*
X205931975Y-39499579D02*
X205660083Y-39489486D01*
X167181809Y-75406352D02*
X167018636Y-75188633D01*
X107939531Y-72813325D02*
X107892653Y-73081335D01*
X105051342Y-105127562D02*
X105289181Y-105259697D01*
X104043594Y-47721049D02*
X104302769Y-47803845D01*
X134569954Y-57934053D02*
X134328920Y-57807841D01*
X107973097Y-110543325D02*
X107939531Y-110813325D01*
X168828920Y-29192158D02*
X169069954Y-29065946D01*
X104043594Y-39278950D02*
X103780641Y-39348827D01*
X107205442Y-88152403D02*
X107340509Y-88388589D01*
X102160083Y-85510513D02*
X102431975Y-85500420D01*
X107340509Y-69388589D02*
X107463730Y-69631165D01*
X106901123Y-56298502D02*
X106732614Y-56512117D01*
X172780641Y-77348827D02*
X172514555Y-77405615D01*
X104043594Y-104721049D02*
X104302769Y-104803845D01*
X141401123Y-68701497D02*
X141558861Y-68923185D01*
X140864962Y-113913063D02*
X140666717Y-114099412D01*
X176939531Y-52186674D02*
X176973097Y-52456674D01*
X138802769Y-47803845D02*
X139057532Y-47899356D01*
X141705442Y-112847596D02*
X141558861Y-113076814D01*
X142439531Y-91813325D02*
X142392653Y-92081335D01*
X176939531Y-53813325D02*
X176892653Y-54081335D01*
X102431975Y-77499579D02*
X102160083Y-77489486D01*
X166015137Y-33592214D02*
X166042015Y-33321466D01*
X176993270Y-33728004D02*
X177000000Y-34000000D01*
X166866430Y-55963111D02*
X166725563Y-55730339D01*
X201681809Y-94406352D02*
X201518636Y-94188633D01*
X166725563Y-107269660D02*
X166866430Y-107036888D01*
X104807260Y-105007350D02*
X105051342Y-105127562D01*
X101352050Y-39378867D02*
X101087449Y-39315515D01*
X207280641Y-39348827D02*
X207014555Y-39405615D01*
X97725563Y-107269660D02*
X97866430Y-107036888D01*
X221000000Y-20000000D02*
X76000000Y-20000000D01*
X177000000Y-34000000D02*
X176993270Y-34271995D01*
X201681809Y-68593647D02*
X201855550Y-68384265D01*
X141963730Y-55368834D02*
X141840509Y-55611410D01*
X132518636Y-94188633D02*
X132366430Y-93963111D01*
X176759455Y-73608767D02*
X176673460Y-73866898D01*
X98181809Y-106593647D02*
X98355550Y-106384265D01*
X174051342Y-67127562D02*
X174289181Y-67259697D01*
X140459499Y-67724270D02*
X140666717Y-67900587D01*
X133233007Y-105992535D02*
X133435801Y-105811147D01*
X107574804Y-50879539D02*
X107673460Y-51133101D01*
X166001682Y-71863960D02*
X166015137Y-71592214D01*
X107463730Y-112368834D02*
X107340509Y-112611410D01*
X102975591Y-115479398D02*
X102704033Y-115496214D01*
X142173460Y-51133101D02*
X142259455Y-51391232D01*
X99594423Y-29330136D02*
X99828920Y-29192158D01*
X139551342Y-95872437D02*
X139307260Y-95992649D01*
X107832579Y-92346699D02*
X107759455Y-92608767D01*
X107463730Y-69631165D02*
X107574804Y-69879539D01*
X106732614Y-56512117D02*
X106553748Y-56717139D01*
X210232614Y-30487882D02*
X210401123Y-30701497D01*
X100069954Y-29065946D02*
X100316935Y-28951809D01*
X172514555Y-77405615D02*
X172245986Y-77449174D01*
X176939531Y-110813325D02*
X176892653Y-111081335D01*
X211493270Y-72271995D02*
X211473097Y-72543325D01*
X200542015Y-71321466D02*
X200582249Y-71052379D01*
X135069258Y-28850025D02*
X135326306Y-28760844D01*
X200515137Y-91407785D02*
X200501682Y-91136039D01*
X173043594Y-47721049D02*
X173302769Y-47803845D01*
X101619459Y-104570944D02*
X101889024Y-104534040D01*
X75365606Y-20226989D02*
X75292893Y-20292893D01*
X141232614Y-49487882D02*
X141401123Y-49701497D01*
X201681809Y-75406352D02*
X201518636Y-75188633D01*
X175901123Y-49701497D02*
X176058861Y-49923185D01*
X106553748Y-56717139D02*
X106364962Y-56913063D01*
X106901123Y-94298502D02*
X106732614Y-94512117D01*
X171975591Y-39479398D02*
X171704033Y-39496214D01*
X139307260Y-29007350D02*
X139551342Y-29127562D01*
X132681809Y-49593647D02*
X132855550Y-49384265D01*
X105959499Y-57275729D02*
X105743815Y-57441582D01*
X200781945Y-51261635D02*
X200874299Y-51005710D01*
X207543594Y-58278950D02*
X207280641Y-58348827D01*
X167181809Y-87593647D02*
X167355550Y-87384265D01*
X131515137Y-90592214D02*
X131542015Y-90321466D01*
X141963730Y-36368834D02*
X141840509Y-36611410D01*
X208789181Y-48259697D02*
X209020194Y-48403433D01*
X167539433Y-49183730D02*
X167733007Y-48992535D01*
X168147316Y-38359990D02*
X167935801Y-38188852D01*
X100069954Y-105065946D02*
X100316935Y-104951809D01*
X140020194Y-38596566D02*
X139789181Y-38740302D01*
X139789181Y-114740302D02*
X139551342Y-114872437D01*
X170352050Y-96378867D02*
X170087449Y-96315515D01*
X205389024Y-96465959D02*
X205119459Y-96429055D01*
X136119459Y-47570944D02*
X136389024Y-47534040D01*
X173302769Y-39196154D02*
X173043594Y-39278950D01*
X137745986Y-104550825D02*
X138014555Y-104594384D01*
X221881921Y-20528603D02*
X221831469Y-20444429D01*
X209666717Y-57099412D02*
X209459499Y-57275729D01*
X210232614Y-56512117D02*
X210053748Y-56717139D01*
X176759455Y-54608767D02*
X176673460Y-54866898D01*
X133647316Y-29640009D02*
X133867036Y-29479542D01*
X132681809Y-87593647D02*
X132855550Y-87384265D01*
X132096379Y-112490884D02*
X131979196Y-112245334D01*
X200635742Y-70785611D02*
X200702362Y-70521814D01*
X139789181Y-29259697D02*
X140020194Y-29403433D01*
X135587449Y-58315515D02*
X135326306Y-58239155D01*
X133039433Y-56816269D02*
X132855550Y-56615734D01*
X142392653Y-51918664D02*
X142439531Y-52186674D01*
X132855550Y-106384265D02*
X133039433Y-106183730D01*
X166202362Y-32521814D02*
X166281945Y-32261635D01*
X203569954Y-29065946D02*
X203816935Y-28951809D01*
X172245986Y-104550825D02*
X172514555Y-104594384D01*
X107973097Y-109456674D02*
X107993270Y-109728004D01*
X206475591Y-96479398D02*
X206204033Y-96496214D01*
X98539433Y-30183730D02*
X98733007Y-29992535D01*
X105289181Y-38740302D02*
X105051342Y-38872437D01*
X221555570Y-20168530D02*
X221471396Y-20118078D01*
X136660083Y-77489486D02*
X136389024Y-77465959D01*
X211259455Y-54608767D02*
X211173460Y-54866898D01*
X166479196Y-93245334D02*
X166374299Y-92994289D01*
X168367036Y-86479542D02*
X168594423Y-86330136D01*
X167018636Y-106811366D02*
X167181809Y-106593647D01*
X201855550Y-113615734D02*
X201681809Y-113406352D01*
X200515137Y-109592214D02*
X200542015Y-109321466D01*
X168147316Y-114359990D02*
X167935801Y-114188852D01*
X176939531Y-109186674D02*
X176973097Y-109456674D01*
X211500000Y-53000000D02*
X211493270Y-53271995D01*
X97001682Y-110136039D02*
X97001682Y-109863960D01*
X166479196Y-107754665D02*
X166596379Y-107509115D01*
X99828920Y-105192158D02*
X100069954Y-105065946D01*
X177000000Y-91000000D02*
X176993270Y-91271995D01*
X200702362Y-108521814D02*
X200781945Y-108261635D01*
X108000000Y-72000000D02*
X107993270Y-72271995D01*
X99828920Y-48192158D02*
X100069954Y-48065946D01*
X166015137Y-91407785D02*
X166001682Y-91136039D01*
X176973097Y-109456674D02*
X176993270Y-109728004D01*
X166135742Y-108785611D02*
X166202362Y-108521814D01*
X99594423Y-114669863D02*
X99367036Y-114520457D01*
X200542015Y-52321466D02*
X200582249Y-52052379D01*
X107993270Y-71728004D02*
X108000000Y-72000000D01*
X99367036Y-105479542D02*
X99594423Y-105330136D01*
X141558861Y-75076814D02*
X141401123Y-75298502D01*
X173302769Y-47803845D02*
X173557532Y-47899356D01*
X134816935Y-58048190D02*
X134569954Y-57934053D01*
X204069258Y-85850025D02*
X204326306Y-85760844D01*
X204326306Y-28760844D02*
X204587449Y-28684484D01*
X105743815Y-67558417D02*
X105959499Y-67724270D01*
X138280641Y-58348827D02*
X138014555Y-58405615D01*
X209459499Y-105724270D02*
X209666717Y-105900587D01*
X176939531Y-72813325D02*
X176892653Y-73081335D01*
X200874299Y-111994289D02*
X200781945Y-111738364D01*
X174051342Y-86127562D02*
X174289181Y-86259697D01*
X138543594Y-96278950D02*
X138280641Y-96348827D01*
X172514555Y-47594384D02*
X172780641Y-47651172D01*
X102160083Y-58489486D02*
X101889024Y-58465959D01*
X167935801Y-29811147D02*
X168147316Y-29640009D01*
X97281945Y-111738364D02*
X97202362Y-111478185D01*
X141705442Y-36847596D02*
X141558861Y-37076814D01*
X166202362Y-73478185D02*
X166202362Y-73478185D01*
X200582249Y-90052379D02*
X200635742Y-89785611D01*
X106732614Y-30487882D02*
X106901123Y-30701497D01*
X166596379Y-69509115D02*
X166725563Y-69269660D01*
X97866430Y-112963111D02*
X97725563Y-112730339D01*
X135069258Y-115149974D02*
X134816935Y-115048190D01*
X166202362Y-51521814D02*
X166281945Y-51261635D01*
X141558861Y-49923185D02*
X141705442Y-50152403D01*
X166281945Y-111738364D02*
X166202362Y-111478185D01*
X102704033Y-28503785D02*
X102975591Y-28520601D01*
X204069258Y-58149974D02*
X203816935Y-58048190D01*
X168594423Y-105330136D02*
X168828920Y-105192158D01*
X97042015Y-71321466D02*
X97082249Y-71052379D01*
X205931975Y-85500420D02*
X206204033Y-85503785D01*
X177000000Y-53000000D02*
X176993270Y-53271995D01*
X211473097Y-53543325D02*
X211439531Y-53813325D01*
X97042015Y-91678533D02*
X97015137Y-91407785D01*
X137204033Y-58496214D02*
X136931975Y-58499579D01*
X141401123Y-113298502D02*
X141232614Y-113512117D01*
X167935801Y-105811147D02*
X168147316Y-105640009D01*
X175901123Y-87701497D02*
X176058861Y-87923185D01*
X136389024Y-39465959D02*
X136119459Y-39429055D01*
X167181809Y-94406352D02*
X167018636Y-94188633D01*
X200781945Y-70261635D02*
X200874299Y-70005710D01*
X208551342Y-38872437D02*
X208307260Y-38992649D01*
X172245986Y-115449174D02*
X171975591Y-115479398D01*
X206745986Y-47550825D02*
X207014555Y-47594384D01*
X174959499Y-95275729D02*
X174743815Y-95441582D01*
X209020194Y-76596566D02*
X208789181Y-76740302D01*
X97042015Y-53678533D02*
X97015137Y-53407785D01*
X142074804Y-36120460D02*
X141963730Y-36368834D01*
X203816935Y-47951809D02*
X204069258Y-47850025D01*
X97725563Y-36730339D02*
X97596379Y-36490884D01*
X210840509Y-112611410D02*
X210705442Y-112847596D01*
X168147316Y-86640009D02*
X168367036Y-86479542D01*
X132096379Y-93490884D02*
X131979196Y-93245334D01*
X142500000Y-53000000D02*
X142493270Y-53271995D01*
X135326306Y-28760844D02*
X135587449Y-28684484D01*
X210053748Y-75717139D02*
X209864962Y-75913063D01*
X141840509Y-50388589D02*
X141963730Y-50631165D01*
X176673460Y-54866898D02*
X176574804Y-55120460D01*
X200515137Y-34407785D02*
X200501682Y-34136039D01*
X133867036Y-114520457D02*
X133647316Y-114359990D01*
X170619459Y-115429055D02*
X170352050Y-115378867D01*
X168594423Y-114669863D02*
X168367036Y-114520457D01*
X166135742Y-35214388D02*
X166082249Y-34947620D01*
X98935801Y-48811147D02*
X99147316Y-48640009D01*
X167733007Y-48992535D02*
X167935801Y-48811147D01*
X208551342Y-114872437D02*
X208307260Y-114992649D01*
X208307260Y-95992649D02*
X208057532Y-96100643D01*
X107340509Y-55611410D02*
X107205442Y-55847596D01*
X170889024Y-58465959D02*
X170619459Y-58429055D01*
X173557532Y-47899356D02*
X173807260Y-48007350D01*
X168147316Y-105640009D02*
X168367036Y-105479542D01*
X211173460Y-51133101D02*
X211259455Y-51391232D01*
X211074804Y-88879539D02*
X211173460Y-89133101D01*
X107973097Y-52456674D02*
X107993270Y-52728004D01*
X141963730Y-88631165D02*
X142074804Y-88879539D01*
X166725563Y-55730339D02*
X166596379Y-55490884D01*
X169569258Y-39149974D02*
X169316935Y-39048190D01*
X136119459Y-115429055D02*
X135852050Y-115378867D01*
X210705442Y-107152403D02*
X210840509Y-107388589D01*
X141053748Y-56717139D02*
X140864962Y-56913063D01*
X175553748Y-49282860D02*
X175732614Y-49487882D01*
X103245986Y-96449174D02*
X102975591Y-96479398D01*
X107973097Y-33456674D02*
X107993270Y-33728004D01*
X133039433Y-49183730D02*
X133233007Y-48992535D01*
X174051342Y-57872437D02*
X173807260Y-57992649D01*
X176673460Y-70133101D02*
X176759455Y-70391232D01*
X107759455Y-32391232D02*
X107832579Y-32653300D01*
X206745986Y-58449174D02*
X206475591Y-58479398D01*
X210840509Y-50388589D02*
X210963730Y-50631165D01*
X99828920Y-38807841D02*
X99594423Y-38669863D01*
X131635742Y-51785611D02*
X131702362Y-51521814D01*
X75118078Y-20528603D02*
X75076120Y-20617316D01*
X176892653Y-92081335D02*
X176832579Y-92346699D01*
X141232614Y-30487882D02*
X141401123Y-30701497D01*
X168367036Y-38520457D02*
X168147316Y-38359990D01*
X174289181Y-48259697D02*
X174520194Y-48403433D01*
X132855550Y-56615734D02*
X132681809Y-56406352D01*
X176993270Y-90728004D02*
X177000000Y-91000000D01*
X171160083Y-39489486D02*
X170889024Y-39465959D01*
X176205442Y-36847596D02*
X176058861Y-37076814D01*
X105289181Y-57740302D02*
X105051342Y-57872437D01*
X131635742Y-32785611D02*
X131702362Y-32521814D01*
X132681809Y-68593647D02*
X132855550Y-68384265D01*
X142259455Y-73608767D02*
X142173460Y-73866898D01*
X131635742Y-108785611D02*
X131702362Y-108521814D01*
X210232614Y-87487882D02*
X210401123Y-87701497D01*
X141053748Y-30282860D02*
X141232614Y-30487882D01*
X142473097Y-71456674D02*
X142493270Y-71728004D01*
X166042015Y-91678533D02*
X166015137Y-91407785D01*
X107463730Y-88631165D02*
X107574804Y-88879539D01*
X211173460Y-32133101D02*
X211259455Y-32391232D01*
X174520194Y-114596566D02*
X174289181Y-114740302D01*
X142493270Y-33728004D02*
X142500000Y-34000000D01*
X200979196Y-112245334D02*
X200874299Y-111994289D01*
X142074804Y-93120460D02*
X141963730Y-93368834D01*
X138014555Y-104594384D02*
X138280641Y-104651172D01*
X175166717Y-114099412D02*
X174959499Y-114275729D01*
X100316935Y-85951809D02*
X100569258Y-85850025D01*
X142173460Y-73866898D02*
X142074804Y-74120460D01*
X107058861Y-106923185D02*
X107205442Y-107152403D01*
X107939531Y-71186674D02*
X107973097Y-71456674D01*
X200515137Y-52592214D02*
X200542015Y-52321466D01*
X175364962Y-75913063D02*
X175166717Y-76099412D01*
X105743815Y-114441582D02*
X105520194Y-114596566D01*
X106901123Y-37298502D02*
X106732614Y-37512117D01*
X138014555Y-77405615D02*
X137745986Y-77449174D01*
X134569954Y-95934053D02*
X134328920Y-95807841D01*
X169569258Y-104850025D02*
X169826306Y-104760844D01*
X133435801Y-105811147D02*
X133647316Y-105640009D01*
X136931975Y-47500420D02*
X137204033Y-47503785D01*
X139057532Y-77100643D02*
X138802769Y-77196154D01*
X131781945Y-70261635D02*
X131874299Y-70005710D01*
X200702362Y-73478185D02*
X200635742Y-73214388D01*
X136931975Y-58499579D02*
X136660083Y-58489486D01*
X175901123Y-113298502D02*
X175732614Y-113512117D01*
X131582249Y-71052379D02*
X131635742Y-70785611D01*
X167181809Y-30593647D02*
X167355550Y-30384265D01*
X202867036Y-95520457D02*
X202647316Y-95359990D01*
X200501682Y-91136039D02*
X200501682Y-90863960D01*
X101087449Y-115315515D02*
X100826306Y-115239155D01*
X140020194Y-114596566D02*
X139789181Y-114740302D01*
X170087449Y-115315515D02*
X169826306Y-115239155D01*
X131515137Y-72407785D02*
X131501682Y-72136039D01*
X209020194Y-95596566D02*
X208789181Y-95740302D01*
X131501682Y-52863960D02*
X131515137Y-52592214D01*
X135069258Y-47850025D02*
X135326306Y-47760844D01*
X211332579Y-92346699D02*
X211259455Y-92608767D01*
X135852050Y-77378867D02*
X135587449Y-77315515D01*
X175364962Y-68086936D02*
X175553748Y-68282860D01*
X101352050Y-96378867D02*
X101087449Y-96315515D01*
X209459499Y-29724270D02*
X209666717Y-29900587D01*
X173557532Y-28899356D02*
X173807260Y-29007350D01*
X142439531Y-53813325D02*
X142392653Y-54081335D01*
X202233007Y-57007464D02*
X202039433Y-56816269D01*
X208789181Y-57740302D02*
X208551342Y-57872437D01*
X200515137Y-71592214D02*
X200542015Y-71321466D01*
X132855550Y-75615734D02*
X132681809Y-75406352D01*
X141053748Y-94717139D02*
X140864962Y-94913063D01*
X100569258Y-66850025D02*
X100826306Y-66760844D01*
X208789181Y-76740302D02*
X208551342Y-76872437D01*
X141840509Y-93611410D02*
X141705442Y-93847596D01*
X100826306Y-77239155D02*
X100569258Y-77149974D01*
X139789181Y-38740302D02*
X139551342Y-38872437D01*
X173302769Y-77196154D02*
X173043594Y-77278950D01*
X135326306Y-115239155D02*
X135069258Y-115149974D01*
X169826306Y-85760844D02*
X170087449Y-85684484D01*
X200874299Y-92994289D02*
X200781945Y-92738364D01*
X98733007Y-114007464D02*
X98539433Y-113816269D01*
X176993270Y-53271995D02*
X176973097Y-53543325D01*
X97479196Y-31754665D02*
X97596379Y-31509115D01*
X201096379Y-36490884D02*
X200979196Y-36245334D01*
X138543594Y-115278950D02*
X138280641Y-115348827D01*
X142332579Y-51653300D02*
X142392653Y-51918664D01*
X107993270Y-110271995D02*
X107973097Y-110543325D01*
X132225563Y-36730339D02*
X132096379Y-36490884D01*
X97202362Y-89521814D02*
X97281945Y-89261635D01*
X171160083Y-104510513D02*
X171431975Y-104500420D01*
X104807260Y-76992649D02*
X104557532Y-77100643D01*
X103245986Y-58449174D02*
X102975591Y-58479398D01*
X102431975Y-66500420D02*
X102704033Y-66503785D01*
X137745986Y-39449174D02*
X137475591Y-39479398D01*
X141963730Y-107631165D02*
X142074804Y-107879539D01*
X205119459Y-104570944D02*
X205389024Y-104534040D01*
X176993270Y-91271995D02*
X176973097Y-91543325D01*
X202233007Y-38007464D02*
X202039433Y-37816269D01*
X201225563Y-112730339D02*
X201096379Y-112490884D01*
X97015137Y-33592214D02*
X97042015Y-33321466D01*
X210053748Y-49282860D02*
X210232614Y-49487882D01*
X142173460Y-35866898D02*
X142074804Y-36120460D01*
X200542015Y-53678533D02*
X200515137Y-53407785D01*
X171160083Y-96489486D02*
X170889024Y-96465959D01*
X105743815Y-76441582D02*
X105520194Y-76596566D01*
X100069954Y-95934053D02*
X99828920Y-95807841D01*
X107574804Y-107879539D02*
X107673460Y-108133101D01*
X204587449Y-58315515D02*
X204326306Y-58239155D01*
X169069954Y-114934053D02*
X168828920Y-114807841D01*
X206475591Y-47520601D02*
X206745986Y-47550825D01*
X167355550Y-49384265D02*
X167539433Y-49183730D01*
X176205442Y-88152403D02*
X176340509Y-88388589D01*
X210053748Y-87282860D02*
X210232614Y-87487882D01*
X107463730Y-36368834D02*
X107340509Y-36611410D01*
X132225563Y-112730339D02*
X132096379Y-112490884D01*
X203094423Y-48330136D02*
X203328920Y-48192158D01*
X105051342Y-57872437D02*
X104807260Y-57992649D01*
X97374299Y-51005710D02*
X97479196Y-50754665D01*
X176058861Y-56076814D02*
X175901123Y-56298502D01*
X203328920Y-38807841D02*
X203094423Y-38669863D01*
X211392653Y-32918664D02*
X211439531Y-33186674D01*
X136660083Y-85510513D02*
X136931975Y-85500420D01*
X169569258Y-28850025D02*
X169826306Y-28760844D01*
X205389024Y-85534040D02*
X205660083Y-85510513D01*
X133867036Y-76520457D02*
X133647316Y-76359990D01*
X209020194Y-67403433D02*
X209243815Y-67558417D01*
X136660083Y-104510513D02*
X136931975Y-104500420D01*
X200515137Y-90592214D02*
X200542015Y-90321466D01*
X203569954Y-48065946D02*
X203816935Y-47951809D01*
X175901123Y-37298502D02*
X175732614Y-37512117D01*
X171431975Y-28500420D02*
X171704033Y-28503785D01*
X107574804Y-55120460D02*
X107463730Y-55368834D01*
X99367036Y-29479542D02*
X99594423Y-29330136D01*
X137475591Y-96479398D02*
X137204033Y-96496214D01*
X200542015Y-34678533D02*
X200515137Y-34407785D01*
X97479196Y-50754665D02*
X97596379Y-50509115D01*
X166082249Y-33052379D02*
X166135742Y-32785611D01*
X131582249Y-34947620D02*
X131542015Y-34678533D01*
X201518636Y-68811366D02*
X201681809Y-68593647D01*
X134816935Y-66951809D02*
X135069258Y-66850025D01*
X203328920Y-105192158D02*
X203569954Y-105065946D01*
X171431975Y-77499579D02*
X171160083Y-77489486D01*
X139057532Y-104899356D02*
X139307260Y-105007350D01*
X210558861Y-49923185D02*
X210705442Y-50152403D01*
X137204033Y-96496214D02*
X136931975Y-96499579D01*
X97202362Y-111478185D02*
X97135742Y-111214388D01*
X173043594Y-85721049D02*
X173302769Y-85803845D01*
X202435801Y-86811147D02*
X202647316Y-86640009D01*
X221634393Y-20226989D02*
X221555570Y-20168530D01*
X175732614Y-30487882D02*
X175901123Y-30701497D01*
X166202362Y-89521814D02*
X166281945Y-89261635D01*
X173043594Y-115278950D02*
X172780641Y-115348827D01*
X171431975Y-39499579D02*
X171160083Y-39489486D01*
X174051342Y-114872437D02*
X173807260Y-114992649D01*
X99828920Y-86192158D02*
X100069954Y-86065946D01*
X98935801Y-86811147D02*
X99147316Y-86640009D01*
X142173460Y-32133101D02*
X142259455Y-32391232D01*
X132855550Y-49384265D02*
X133039433Y-49183730D01*
X98539433Y-113816269D02*
X98355550Y-113615734D01*
X209666717Y-86900587D02*
X209864962Y-87086936D01*
X174520194Y-95596566D02*
X174289181Y-95740302D01*
X175364962Y-30086936D02*
X175553748Y-30282860D01*
X107673460Y-35866898D02*
X107574804Y-36120460D01*
X176673460Y-73866898D02*
X176574804Y-74120460D01*
X211074804Y-69879539D02*
X211173460Y-70133101D01*
X201096379Y-93490884D02*
X200979196Y-93245334D01*
X202647316Y-114359990D02*
X202435801Y-114188852D01*
X99828920Y-114807841D02*
X99594423Y-114669863D01*
X101619459Y-85570944D02*
X101889024Y-85534040D01*
X174520194Y-57596566D02*
X174289181Y-57740302D01*
X169826306Y-47760844D02*
X170087449Y-47684484D01*
X167181809Y-113406352D02*
X167018636Y-113188633D01*
X131781945Y-73738364D02*
X131702362Y-73478185D01*
X106553748Y-68282860D02*
X106732614Y-68487882D01*
X135852050Y-39378867D02*
X135587449Y-39315515D01*
X100316935Y-77048190D02*
X100069954Y-76934053D01*
X102704033Y-77496214D02*
X102431975Y-77499579D01*
X97479196Y-88754665D02*
X97596379Y-88509115D01*
X173043594Y-58278950D02*
X172780641Y-58348827D01*
X221773010Y-20365606D02*
X221707106Y-20292893D01*
X107340509Y-36611410D02*
X107205442Y-36847596D01*
X140459499Y-38275729D02*
X140243815Y-38441582D01*
X175166717Y-38099412D02*
X174959499Y-38275729D01*
X171160083Y-115489486D02*
X170889024Y-115465959D01*
X205660083Y-66510513D02*
X205931975Y-66500420D01*
X132096379Y-74490884D02*
X131979196Y-74245334D01*
X176574804Y-69879539D02*
X176673460Y-70133101D01*
X211259455Y-32391232D02*
X211332579Y-32653300D01*
X138802769Y-77196154D02*
X138543594Y-77278950D01*
X201225563Y-31269660D02*
X201366430Y-31036888D01*
X108000000Y-53000000D02*
X107993270Y-53271995D01*
X106364962Y-37913063D02*
X106166717Y-38099412D01*
X203094423Y-29330136D02*
X203328920Y-29192158D01*
X200702362Y-32521814D02*
X200781945Y-32261635D01*
X138543594Y-58278950D02*
X138280641Y-58348827D01*
X100569258Y-47850025D02*
X100826306Y-47760844D01*
X98018636Y-113188633D02*
X97866430Y-112963111D01*
X140864962Y-68086936D02*
X141053748Y-68282860D01*
X209243815Y-48558417D02*
X209459499Y-48724270D01*
X138802769Y-66803845D02*
X139057532Y-66899356D01*
X167355550Y-87384265D02*
X167539433Y-87183730D01*
X171975591Y-96479398D02*
X171704033Y-96496214D01*
X166015137Y-90592214D02*
X166042015Y-90321466D01*
X166479196Y-69754665D02*
X166596379Y-69509115D01*
X171704033Y-77496214D02*
X171431975Y-77499579D01*
X100826306Y-96239155D02*
X100569258Y-96149974D01*
X176340509Y-55611410D02*
X176205442Y-55847596D01*
X201366430Y-69036888D02*
X201518636Y-68811366D01*
X136119459Y-96429055D02*
X135852050Y-96378867D01*
X97001682Y-34136039D02*
X97001682Y-33863960D01*
X98539433Y-75816269D02*
X98355550Y-75615734D01*
X207014555Y-39405615D02*
X206745986Y-39449174D01*
X141053748Y-68282860D02*
X141232614Y-68487882D01*
X141963730Y-69631165D02*
X142074804Y-69879539D01*
X209459499Y-48724270D02*
X209666717Y-48900587D01*
X221956940Y-123290284D02*
X221980785Y-123195090D01*
X131501682Y-34136039D02*
X131501682Y-33863960D01*
X200874299Y-89005710D02*
X200979196Y-88754665D01*
X98181809Y-68593647D02*
X98355550Y-68384265D01*
X205389024Y-47534040D02*
X205660083Y-47510513D01*
X170087449Y-28684484D02*
X170352050Y-28621132D01*
X106364962Y-49086936D02*
X106553748Y-49282860D01*
X174743815Y-48558417D02*
X174959499Y-48724270D01*
X136389024Y-77465959D02*
X136119459Y-77429055D01*
X176939531Y-34813325D02*
X176892653Y-35081335D01*
X106732614Y-94512117D02*
X106553748Y-94717139D01*
X140243815Y-57441582D02*
X140020194Y-57596566D01*
X172245986Y-58449174D02*
X171975591Y-58479398D01*
X208307260Y-76992649D02*
X208057532Y-77100643D01*
X97281945Y-32261635D02*
X97374299Y-32005710D01*
X97135742Y-70785611D02*
X97202362Y-70521814D01*
X99367036Y-57520457D02*
X99147316Y-57359990D01*
X200635742Y-54214388D02*
X200582249Y-53947620D01*
X211259455Y-111608767D02*
X211173460Y-111866898D01*
X203569954Y-105065946D02*
X203816935Y-104951809D01*
X176574804Y-55120460D02*
X176463730Y-55368834D01*
X202647316Y-29640009D02*
X202867036Y-29479542D01*
X168367036Y-29479542D02*
X168594423Y-29330136D01*
X107673460Y-108133101D02*
X107759455Y-108391232D01*
X106901123Y-75298502D02*
X106732614Y-75512117D01*
X176058861Y-75076814D02*
X175901123Y-75298502D01*
X100316935Y-66951809D02*
X100569258Y-66850025D01*
X105743815Y-29558417D02*
X105959499Y-29724270D01*
X201681809Y-49593647D02*
X201855550Y-49384265D01*
X211473097Y-33456674D02*
X211493270Y-33728004D01*
X75043059Y-20709715D02*
X75019214Y-20804909D01*
X99594423Y-38669863D02*
X99367036Y-38520457D01*
X141840509Y-112611410D02*
X141705442Y-112847596D01*
X166001682Y-109863960D02*
X166015137Y-109592214D01*
X211173460Y-111866898D02*
X211074804Y-112120460D01*
X107759455Y-73608767D02*
X107673460Y-73866898D01*
X102975591Y-77479398D02*
X102704033Y-77496214D01*
X170619459Y-28570944D02*
X170889024Y-28534040D01*
X203094423Y-38669863D02*
X202867036Y-38520457D01*
X141232614Y-68487882D02*
X141401123Y-68701497D01*
X200582249Y-71052379D02*
X200635742Y-70785611D01*
X136660083Y-115489486D02*
X136389024Y-115465959D01*
X139057532Y-47899356D02*
X139307260Y-48007350D01*
X138543594Y-77278950D02*
X138280641Y-77348827D01*
X137475591Y-115479398D02*
X137204033Y-115496214D01*
X211074804Y-112120460D02*
X210963730Y-112368834D01*
X107993270Y-109728004D02*
X108000000Y-110000000D01*
X202039433Y-94816269D02*
X201855550Y-94615734D01*
X97725563Y-112730339D02*
X97596379Y-112490884D01*
X97374299Y-54994289D02*
X97281945Y-54738364D01*
X97135742Y-89785611D02*
X97202362Y-89521814D01*
X141232614Y-37512117D02*
X141053748Y-37717139D01*
X166596379Y-93490884D02*
X166479196Y-93245334D01*
X137745986Y-47550825D02*
X138014555Y-47594384D01*
X104557532Y-104899356D02*
X104807260Y-105007350D01*
X168828920Y-76807841D02*
X168594423Y-76669863D01*
X173043594Y-77278950D02*
X172780641Y-77348827D01*
X131874299Y-73994289D02*
X131781945Y-73738364D01*
X107993270Y-91271995D02*
X107973097Y-91543325D01*
X138280641Y-115348827D02*
X138014555Y-115405615D01*
X99828920Y-29192158D02*
X100069954Y-29065946D01*
X75709715Y-123956940D02*
X75804909Y-123980785D01*
X205931975Y-58499579D02*
X205660083Y-58489486D01*
X99147316Y-105640009D02*
X99367036Y-105479542D01*
X207280641Y-104651172D02*
X207543594Y-104721049D01*
X139789181Y-57740302D02*
X139551342Y-57872437D01*
X142500000Y-72000000D02*
X142493270Y-72271995D01*
X174289181Y-38740302D02*
X174051342Y-38872437D01*
X176973097Y-52456674D02*
X176993270Y-52728004D01*
X131501682Y-90863960D02*
X131515137Y-90592214D01*
X97281945Y-54738364D02*
X97202362Y-54478185D01*
X209020194Y-38596566D02*
X208789181Y-38740302D01*
X141840509Y-31388589D02*
X141963730Y-31631165D01*
X206204033Y-66503785D02*
X206475591Y-66520601D01*
X204852050Y-39378867D02*
X204587449Y-39315515D01*
X221098017Y-123995184D02*
X221195090Y-123980785D01*
X168828920Y-57807841D02*
X168594423Y-57669863D01*
X97866430Y-74963111D02*
X97725563Y-74730339D01*
X201518636Y-75188633D02*
X201366430Y-74963111D01*
X139307260Y-67007350D02*
X139551342Y-67127562D01*
X202435801Y-38188852D02*
X202233007Y-38007464D01*
X134816935Y-104951809D02*
X135069258Y-104850025D01*
X166015137Y-71592214D02*
X166042015Y-71321466D01*
X209666717Y-48900587D02*
X209864962Y-49086936D01*
X166866430Y-69036888D02*
X167018636Y-68811366D01*
X140864962Y-49086936D02*
X141053748Y-49282860D01*
X107574804Y-36120460D02*
X107463730Y-36368834D01*
X98733007Y-57007464D02*
X98539433Y-56816269D01*
X106364962Y-56913063D02*
X106166717Y-57099412D01*
X166596379Y-50509115D02*
X166725563Y-50269660D01*
X201855550Y-56615734D02*
X201681809Y-56406352D01*
X106553748Y-87282860D02*
X106732614Y-87487882D01*
X132681809Y-56406352D02*
X132518636Y-56188633D01*
X202233007Y-67992535D02*
X202435801Y-67811147D01*
X107939531Y-34813325D02*
X107892653Y-35081335D01*
X167355550Y-37615734D02*
X167181809Y-37406352D01*
X210053748Y-113717139D02*
X209864962Y-113913063D01*
X141401123Y-75298502D02*
X141232614Y-75512117D01*
X131582249Y-52052379D02*
X131635742Y-51785611D01*
X99147316Y-38359990D02*
X98935801Y-38188852D01*
X99367036Y-48479542D02*
X99594423Y-48330136D01*
X202435801Y-57188852D02*
X202233007Y-57007464D01*
X98539433Y-56816269D02*
X98355550Y-56615734D01*
X208057532Y-28899356D02*
X208307260Y-29007350D01*
X102704033Y-96496214D02*
X102431975Y-96499579D01*
X101619459Y-28570944D02*
X101889024Y-28534040D01*
X210705442Y-69152403D02*
X210840509Y-69388589D01*
X142493270Y-109728004D02*
X142500000Y-110000000D01*
X133647316Y-105640009D02*
X133867036Y-105479542D01*
X106901123Y-106701497D02*
X107058861Y-106923185D01*
X202647316Y-48640009D02*
X202867036Y-48479542D01*
X138014555Y-28594384D02*
X138280641Y-28651172D01*
X171160083Y-77489486D02*
X170889024Y-77465959D01*
X132366430Y-36963111D02*
X132225563Y-36730339D01*
X167181809Y-49593647D02*
X167355550Y-49384265D01*
X205119459Y-115429055D02*
X204852050Y-115378867D01*
X142473097Y-91543325D02*
X142439531Y-91813325D01*
X208789181Y-95740302D02*
X208551342Y-95872437D01*
X106166717Y-48900587D02*
X106364962Y-49086936D01*
X135069258Y-66850025D02*
X135326306Y-66760844D01*
X139551342Y-86127562D02*
X139789181Y-86259697D01*
X176892653Y-51918664D02*
X176939531Y-52186674D01*
X167018636Y-87811366D02*
X167181809Y-87593647D01*
X167539433Y-68183730D02*
X167733007Y-67992535D01*
X142332579Y-92346699D02*
X142259455Y-92608767D01*
X210401123Y-37298502D02*
X210232614Y-37512117D01*
X176892653Y-70918664D02*
X176939531Y-71186674D01*
X202039433Y-75816269D02*
X201855550Y-75615734D01*
X200582249Y-53947620D02*
X200542015Y-53678533D01*
X208551342Y-105127562D02*
X208789181Y-105259697D01*
X202867036Y-76520457D02*
X202647316Y-76359990D01*
X211074804Y-93120460D02*
X210963730Y-93368834D01*
X166281945Y-32261635D02*
X166374299Y-32005710D01*
X210840509Y-88388589D02*
X210963730Y-88631165D01*
X97202362Y-92478185D02*
X97135742Y-92214388D01*
X208789181Y-67259697D02*
X209020194Y-67403433D01*
X142392653Y-111081335D02*
X142332579Y-111346699D01*
X107574804Y-88879539D02*
X107673460Y-89133101D01*
X173807260Y-48007350D02*
X174051342Y-48127562D01*
X207280641Y-58348827D02*
X207014555Y-58405615D01*
X75226989Y-20365606D02*
X75168530Y-20444429D01*
X176993270Y-110271995D02*
X176973097Y-110543325D01*
X166135742Y-51785611D02*
X166202362Y-51521814D01*
X166001682Y-33863960D02*
X166015137Y-33592214D01*
X207543594Y-115278950D02*
X207280641Y-115348827D01*
X97042015Y-33321466D02*
X97082249Y-33052379D01*
X166001682Y-52863960D02*
X166015137Y-52592214D01*
X107463730Y-93368834D02*
X107340509Y-93611410D01*
X200979196Y-31754665D02*
X201096379Y-31509115D01*
X207802769Y-58196154D02*
X207543594Y-58278950D01*
X142259455Y-70391232D02*
X142332579Y-70653300D01*
X133435801Y-114188852D02*
X133233007Y-114007464D01*
X107832579Y-73346699D02*
X107759455Y-73608767D01*
X202647316Y-67640009D02*
X202867036Y-67479542D01*
X168828920Y-86192158D02*
X169069954Y-86065946D01*
X138543594Y-104721049D02*
X138802769Y-104803845D01*
X176340509Y-36611410D02*
X176205442Y-36847596D01*
X105520194Y-76596566D02*
X105289181Y-76740302D01*
X142074804Y-112120460D02*
X141963730Y-112368834D01*
X75000000Y-123000000D02*
X75004815Y-123098017D01*
X135326306Y-39239155D02*
X135069258Y-39149974D01*
X170889024Y-104534040D02*
X171160083Y-104510513D01*
X166135742Y-70785611D02*
X166202362Y-70521814D01*
X166374299Y-35994289D02*
X166281945Y-35738364D01*
X132225563Y-74730339D02*
X132096379Y-74490884D01*
X132855550Y-68384265D02*
X133039433Y-68183730D01*
X176058861Y-68923185D02*
X176205442Y-69152403D01*
X200582249Y-109052379D02*
X200635742Y-108785611D01*
X100316935Y-104951809D02*
X100569258Y-104850025D01*
X176759455Y-92608767D02*
X176673460Y-92866898D01*
X136119459Y-66570944D02*
X136389024Y-66534040D01*
X140243815Y-67558417D02*
X140459499Y-67724270D01*
X141840509Y-55611410D02*
X141705442Y-55847596D01*
X103514555Y-28594384D02*
X103780641Y-28651172D01*
X203569954Y-86065946D02*
X203816935Y-85951809D01*
X167539433Y-113816269D02*
X167355550Y-113615734D01*
X176340509Y-69388589D02*
X176463730Y-69631165D01*
X141232614Y-87487882D02*
X141401123Y-87701497D01*
X97866430Y-31036888D02*
X98018636Y-30811366D01*
X142173460Y-108133101D02*
X142259455Y-108391232D01*
X106364962Y-94913063D02*
X106166717Y-95099412D01*
X174743815Y-57441582D02*
X174520194Y-57596566D01*
X166479196Y-112245334D02*
X166374299Y-111994289D01*
X97042015Y-90321466D02*
X97082249Y-90052379D01*
X176673460Y-111866898D02*
X176574804Y-112120460D01*
X176892653Y-54081335D02*
X176832579Y-54346699D01*
X176993270Y-72271995D02*
X176973097Y-72543325D01*
X107673460Y-73866898D02*
X107574804Y-74120460D01*
X175901123Y-75298502D02*
X175732614Y-75512117D01*
X102431975Y-85500420D02*
X102704033Y-85503785D01*
X142500000Y-110000000D02*
X142493270Y-110271995D01*
X131702362Y-35478185D02*
X131635742Y-35214388D01*
X142392653Y-89918664D02*
X142439531Y-90186674D01*
X166202362Y-108521814D02*
X166281945Y-108261635D01*
X97001682Y-53136039D02*
X97001682Y-52863960D01*
X107574804Y-112120460D02*
X107463730Y-112368834D01*
X137745986Y-58449174D02*
X137475591Y-58479398D01*
X169826306Y-104760844D02*
X170087449Y-104684484D01*
X98355550Y-49384265D02*
X98539433Y-49183730D01*
X176892653Y-32918664D02*
X176939531Y-33186674D01*
X142493270Y-90728004D02*
X142500000Y-91000000D01*
X169316935Y-58048190D02*
X169069954Y-57934053D01*
X105520194Y-114596566D02*
X105289181Y-114740302D01*
X132225563Y-107269660D02*
X132366430Y-107036888D01*
X131501682Y-33863960D02*
X131515137Y-33592214D01*
X105743815Y-57441582D02*
X105520194Y-57596566D01*
X172245986Y-28550825D02*
X172514555Y-28594384D01*
X201681809Y-37406352D02*
X201518636Y-37188633D01*
X139551342Y-76872437D02*
X139307260Y-76992649D01*
X166135742Y-73214388D02*
X166082249Y-72947620D01*
X97001682Y-71863960D02*
X97015137Y-71592214D01*
X106901123Y-113298502D02*
X106732614Y-113512117D01*
X131635742Y-54214388D02*
X131582249Y-53947620D01*
X221555570Y-123831469D02*
X221634393Y-123773010D01*
X131702362Y-92478185D02*
X131635742Y-92214388D01*
X210232614Y-68487882D02*
X210401123Y-68701497D01*
X107939531Y-52186674D02*
X107973097Y-52456674D01*
X105520194Y-105403433D02*
X105743815Y-105558417D01*
X139551342Y-48127562D02*
X139789181Y-48259697D01*
X176574804Y-36120460D02*
X176463730Y-36368834D01*
X171704033Y-47503785D02*
X171975591Y-47520601D01*
X135326306Y-66760844D02*
X135587449Y-66684484D01*
X208057532Y-115100643D02*
X207802769Y-115196154D01*
X136389024Y-66534040D02*
X136660083Y-66510513D01*
X131874299Y-70005710D02*
X131979196Y-69754665D01*
X174743815Y-76441582D02*
X174520194Y-76596566D01*
X170889024Y-77465959D02*
X170619459Y-77429055D01*
X139551342Y-114872437D02*
X139307260Y-114992649D01*
X200635742Y-73214388D02*
X200582249Y-72947620D01*
X169316935Y-77048190D02*
X169069954Y-76934053D01*
X131781945Y-108261635D02*
X131874299Y-108005710D01*
X132681809Y-113406352D02*
X132518636Y-113188633D01*
X140864962Y-75913063D02*
X140666717Y-76099412D01*
X107673460Y-70133101D02*
X107759455Y-70391232D01*
X175553748Y-37717139D02*
X175364962Y-37913063D01*
X138543594Y-66721049D02*
X138802769Y-66803845D01*
X141558861Y-30923185D02*
X141705442Y-31152403D01*
X168828920Y-105192158D02*
X169069954Y-105065946D01*
X167733007Y-57007464D02*
X167539433Y-56816269D01*
X135587449Y-77315515D02*
X135326306Y-77239155D01*
X201681809Y-30593647D02*
X201855550Y-30384265D01*
X202435801Y-67811147D02*
X202647316Y-67640009D01*
X211173460Y-70133101D02*
X211259455Y-70391232D01*
X97281945Y-35738364D02*
X97202362Y-35478185D01*
X135852050Y-85621132D02*
X136119459Y-85570944D01*
X175901123Y-56298502D02*
X175732614Y-56512117D01*
X142473097Y-109456674D02*
X142493270Y-109728004D01*
X208789181Y-29259697D02*
X209020194Y-29403433D01*
X107759455Y-92608767D02*
X107673460Y-92866898D01*
X108000000Y-34000000D02*
X107993270Y-34271995D01*
X100569258Y-85850025D02*
X100826306Y-85760844D01*
X97725563Y-55730339D02*
X97596379Y-55490884D01*
X134816935Y-28951809D02*
X135069258Y-28850025D01*
X142173460Y-111866898D02*
X142074804Y-112120460D01*
X131635742Y-92214388D02*
X131582249Y-91947620D01*
X97281945Y-70261635D02*
X97374299Y-70005710D01*
X102431975Y-47500420D02*
X102704033Y-47503785D01*
X141705442Y-93847596D02*
X141558861Y-94076814D01*
X166479196Y-88754665D02*
X166596379Y-88509115D01*
X75444429Y-123831469D02*
X75528603Y-123881921D01*
X170087449Y-39315515D02*
X169826306Y-39239155D01*
X206475591Y-85520601D02*
X206745986Y-85550825D01*
X171975591Y-28520601D02*
X172245986Y-28550825D01*
X176832579Y-70653300D02*
X176892653Y-70918664D01*
X140243815Y-48558417D02*
X140459499Y-48724270D01*
X97479196Y-55245334D02*
X97374299Y-54994289D01*
X103780641Y-115348827D02*
X103514555Y-115405615D01*
X100569258Y-96149974D02*
X100316935Y-96048190D01*
X207014555Y-47594384D02*
X207280641Y-47651172D01*
X210963730Y-112368834D02*
X210840509Y-112611410D01*
X175553748Y-68282860D02*
X175732614Y-68487882D01*
X75901982Y-123995184D02*
X76000000Y-124000000D01*
X97725563Y-69269660D02*
X97866430Y-69036888D01*
X97725563Y-50269660D02*
X97866430Y-50036888D01*
X132366430Y-93963111D02*
X132225563Y-93730339D01*
X97015137Y-91407785D02*
X97001682Y-91136039D01*
X142439531Y-90186674D02*
X142473097Y-90456674D01*
X75901982Y-20004815D02*
X75804909Y-20019214D01*
X202039433Y-68183730D02*
X202233007Y-67992535D01*
X166374299Y-111994289D02*
X166281945Y-111738364D01*
X106364962Y-75913063D02*
X106166717Y-76099412D01*
X134328920Y-29192158D02*
X134569954Y-29065946D01*
X134569954Y-67065946D02*
X134816935Y-66951809D01*
X98018636Y-106811366D02*
X98181809Y-106593647D01*
X201096379Y-74490884D02*
X200979196Y-74245334D01*
X141840509Y-69388589D02*
X141963730Y-69631165D01*
X168594423Y-29330136D02*
X168828920Y-29192158D01*
X211332579Y-89653300D02*
X211392653Y-89918664D01*
X211173460Y-54866898D02*
X211074804Y-55120460D01*
X204587449Y-39315515D02*
X204326306Y-39239155D01*
X209864962Y-106086936D02*
X210053748Y-106282860D01*
X98733007Y-76007464D02*
X98539433Y-75816269D01*
X170619459Y-96429055D02*
X170352050Y-96378867D01*
X141053748Y-37717139D02*
X140864962Y-37913063D01*
X201518636Y-30811366D02*
X201681809Y-30593647D01*
X99147316Y-95359990D02*
X98935801Y-95188852D01*
X100826306Y-28760844D02*
X101087449Y-28684484D01*
X104302769Y-85803845D02*
X104557532Y-85899356D01*
X97725563Y-88269660D02*
X97866430Y-88036888D01*
X107574804Y-31879539D02*
X107673460Y-32133101D01*
X137204033Y-85503785D02*
X137475591Y-85520601D01*
X108000000Y-91000000D02*
X107993270Y-91271995D01*
X176574804Y-107879539D02*
X176673460Y-108133101D01*
X102160083Y-77489486D02*
X101889024Y-77465959D01*
X201518636Y-37188633D02*
X201366430Y-36963111D01*
X170889024Y-39465959D02*
X170619459Y-39429055D01*
X166015137Y-52592214D02*
X166042015Y-52321466D01*
X104043594Y-77278950D02*
X103780641Y-77348827D01*
X131874299Y-35994289D02*
X131781945Y-35738364D01*
X97082249Y-33052379D02*
X97135742Y-32785611D01*
X171704033Y-104503785D02*
X171975591Y-104520601D01*
X176205442Y-112847596D02*
X176058861Y-113076814D01*
X99147316Y-67640009D02*
X99367036Y-67479542D01*
X171160083Y-47510513D02*
X171431975Y-47500420D01*
X132366430Y-69036888D02*
X132518636Y-68811366D01*
X106166717Y-86900587D02*
X106364962Y-87086936D01*
X142473097Y-110543325D02*
X142439531Y-110813325D01*
X200781945Y-32261635D02*
X200874299Y-32005710D01*
X207280641Y-77348827D02*
X207014555Y-77405615D01*
X101619459Y-66570944D02*
X101889024Y-66534040D01*
X175364962Y-49086936D02*
X175553748Y-49282860D01*
X211259455Y-89391232D02*
X211332579Y-89653300D01*
X135326306Y-47760844D02*
X135587449Y-47684484D01*
X205660083Y-39489486D02*
X205389024Y-39465959D01*
X208057532Y-85899356D02*
X208307260Y-86007350D01*
X205931975Y-28500420D02*
X206204033Y-28503785D01*
X177000000Y-72000000D02*
X176993270Y-72271995D01*
X208551342Y-114872437D02*
X208551342Y-114872437D01*
X175901123Y-106701497D02*
X176058861Y-106923185D01*
X141053748Y-87282860D02*
X141232614Y-87487882D01*
X98539433Y-68183730D02*
X98733007Y-67992535D01*
X104807260Y-29007350D02*
X105051342Y-29127562D01*
X210963730Y-55368834D02*
X210840509Y-55611410D01*
X97374299Y-89005710D02*
X97479196Y-88754665D01*
X139551342Y-57872437D02*
X139307260Y-57992649D01*
X107939531Y-53813325D02*
X107892653Y-54081335D01*
X174289181Y-29259697D02*
X174520194Y-29403433D01*
X133867036Y-67479542D02*
X134094423Y-67330136D01*
X202039433Y-37816269D02*
X201855550Y-37615734D01*
X206475591Y-77479398D02*
X206204033Y-77496214D01*
X135852050Y-104621132D02*
X136119459Y-104570944D01*
X104557532Y-47899356D02*
X104807260Y-48007350D01*
X107205442Y-55847596D02*
X107058861Y-56076814D01*
X176939531Y-91813325D02*
X176892653Y-92081335D01*
X203569954Y-57934053D02*
X203328920Y-57807841D01*
X141558861Y-68923185D02*
X141705442Y-69152403D01*
X206475591Y-58479398D02*
X206204033Y-58496214D01*
X203569954Y-76934053D02*
X203328920Y-76807841D01*
X176205442Y-69152403D02*
X176340509Y-69388589D01*
X211473097Y-71456674D02*
X211493270Y-71728004D01*
X136119459Y-58429055D02*
X135852050Y-58378867D01*
X99594423Y-105330136D02*
X99828920Y-105192158D01*
X176058861Y-37076814D02*
X175901123Y-37298502D01*
X97042015Y-52321466D02*
X97082249Y-52052379D01*
X166596379Y-74490884D02*
X166479196Y-74245334D01*
X167018636Y-113188633D02*
X166866430Y-112963111D01*
X176673460Y-108133101D02*
X176759455Y-108391232D01*
X132096379Y-55490884D02*
X131979196Y-55245334D01*
X138543594Y-85721049D02*
X138802769Y-85803845D01*
X169569258Y-115149974D02*
X169316935Y-115048190D01*
X204852050Y-115378867D02*
X204587449Y-115315515D01*
X204587449Y-115315515D02*
X204326306Y-115239155D01*
X207802769Y-115196154D02*
X207543594Y-115278950D01*
X171975591Y-104520601D02*
X172245986Y-104550825D01*
X221707106Y-20292893D02*
X221634393Y-20226989D01*
X75804909Y-20019214D02*
X75709715Y-20043059D01*
X97725563Y-31269660D02*
X97866430Y-31036888D01*
X207543594Y-77278950D02*
X207280641Y-77348827D01*
X99594423Y-48330136D02*
X99828920Y-48192158D01*
X134094423Y-29330136D02*
X134328920Y-29192158D01*
X107205442Y-31152403D02*
X107340509Y-31388589D01*
X136660083Y-58489486D02*
X136389024Y-58465959D01*
X210705442Y-88152403D02*
X210840509Y-88388589D01*
X142332579Y-70653300D02*
X142392653Y-70918664D01*
X176463730Y-55368834D02*
X176340509Y-55611410D01*
X107058861Y-30923185D02*
X107205442Y-31152403D01*
X208307260Y-114992649D02*
X208057532Y-115100643D01*
X136931975Y-115499579D02*
X136660083Y-115489486D01*
X173807260Y-95992649D02*
X173557532Y-96100643D01*
X97479196Y-69754665D02*
X97596379Y-69509115D01*
X211173460Y-73866898D02*
X211074804Y-74120460D01*
X134816935Y-39048190D02*
X134569954Y-38934053D01*
X167539433Y-37816269D02*
X167355550Y-37615734D01*
X173807260Y-76992649D02*
X173557532Y-77100643D01*
X136660083Y-39489486D02*
X136389024Y-39465959D01*
X140459499Y-114275729D02*
X140243815Y-114441582D01*
X167181809Y-37406352D02*
X167018636Y-37188633D01*
X139307260Y-38992649D02*
X139057532Y-39100643D01*
X137475591Y-47520601D02*
X137745986Y-47550825D01*
X169316935Y-66951809D02*
X169569258Y-66850025D01*
X105520194Y-57596566D02*
X105289181Y-57740302D01*
X107205442Y-93847596D02*
X107058861Y-94076814D01*
X142500000Y-34000000D02*
X142493270Y-34271995D01*
X169069954Y-38934053D02*
X168828920Y-38807841D01*
X169569258Y-77149974D02*
X169316935Y-77048190D01*
X200635742Y-111214388D02*
X200582249Y-110947620D01*
X201518636Y-94188633D02*
X201366430Y-93963111D01*
X106166717Y-38099412D02*
X105959499Y-38275729D01*
X172245986Y-47550825D02*
X172514555Y-47594384D01*
X176673460Y-92866898D02*
X176574804Y-93120460D01*
X102431975Y-115499579D02*
X102160083Y-115489486D01*
X133039433Y-113816269D02*
X132855550Y-113615734D01*
X175732614Y-75512117D02*
X175553748Y-75717139D01*
X166082249Y-91947620D02*
X166042015Y-91678533D01*
X175364962Y-94913063D02*
X175166717Y-95099412D01*
X98935801Y-95188852D02*
X98935801Y-95188852D01*
X174959499Y-76275729D02*
X174743815Y-76441582D01*
X131515137Y-33592214D02*
X131542015Y-33321466D01*
X104557532Y-58100643D02*
X104302769Y-58196154D01*
X221195090Y-20019214D02*
X221098017Y-20004815D01*
X174289181Y-76740302D02*
X174051342Y-76872437D01*
X97135742Y-32785611D02*
X97202362Y-32521814D01*
X137745986Y-28550825D02*
X138014555Y-28594384D01*
X211439531Y-34813325D02*
X211392653Y-35081335D01*
X106732614Y-87487882D02*
X106901123Y-87701497D01*
X142392653Y-70918664D02*
X142439531Y-71186674D01*
X201225563Y-55730339D02*
X201096379Y-55490884D01*
X176973097Y-53543325D02*
X176939531Y-53813325D01*
X172514555Y-96405615D02*
X172245986Y-96449174D01*
X176993270Y-34271995D02*
X176973097Y-34543325D01*
X142332579Y-32653300D02*
X142392653Y-32918664D01*
X176205442Y-74847596D02*
X176058861Y-75076814D01*
X100826306Y-47760844D02*
X101087449Y-47684484D01*
X134328920Y-114807841D02*
X134094423Y-114669863D01*
X100569258Y-39149974D02*
X100316935Y-39048190D01*
X176832579Y-89653300D02*
X176892653Y-89918664D01*
X141401123Y-49701497D02*
X141558861Y-49923185D01*
X167935801Y-86811147D02*
X168147316Y-86640009D01*
X211392653Y-108918664D02*
X211439531Y-109186674D01*
X141840509Y-74611410D02*
X141705442Y-74847596D01*
X106166717Y-67900587D02*
X106364962Y-68086936D01*
X209864962Y-56913063D02*
X209666717Y-57099412D01*
X99828920Y-95807841D02*
X99594423Y-95669863D01*
X202647316Y-76359990D02*
X202435801Y-76188852D01*
X176759455Y-89391232D02*
X176832579Y-89653300D01*
X206204033Y-58496214D02*
X205931975Y-58499579D01*
X170619459Y-85570944D02*
X170889024Y-85534040D01*
X107673460Y-111866898D02*
X107574804Y-112120460D01*
X176759455Y-51391232D02*
X176832579Y-51653300D01*
X168594423Y-48330136D02*
X168828920Y-48192158D01*
X201366430Y-107036888D02*
X201518636Y-106811366D01*
X176574804Y-112120460D02*
X176463730Y-112368834D01*
X140020194Y-57596566D02*
X139789181Y-57740302D01*
X104807260Y-57992649D02*
X104557532Y-58100643D01*
X176892653Y-35081335D02*
X176832579Y-35346699D01*
X169826306Y-39239155D02*
X169569258Y-39149974D01*
X141705442Y-88152403D02*
X141840509Y-88388589D01*
X131515137Y-52592214D02*
X131542015Y-52321466D01*
X201366430Y-50036888D02*
X201518636Y-49811366D01*
X100826306Y-85760844D02*
X101087449Y-85684484D01*
X97596379Y-107509115D02*
X97725563Y-107269660D01*
X201855550Y-30384265D02*
X202039433Y-30183730D01*
X172780641Y-115348827D02*
X172514555Y-115405615D01*
X210053748Y-56717139D02*
X209864962Y-56913063D01*
X172780641Y-104651172D02*
X173043594Y-104721049D01*
X166015137Y-34407785D02*
X166001682Y-34136039D01*
X133867036Y-29479542D02*
X134094423Y-29330136D01*
X202867036Y-57520457D02*
X202647316Y-57359990D01*
X102975591Y-66520601D02*
X103245986Y-66550825D01*
X200542015Y-72678533D02*
X200515137Y-72407785D01*
X208057532Y-47899356D02*
X208307260Y-48007350D01*
X207014555Y-58405615D02*
X206745986Y-58449174D01*
X105051342Y-48127562D02*
X105289181Y-48259697D01*
X75226989Y-123634393D02*
X75292893Y-123707106D01*
X106364962Y-87086936D02*
X106553748Y-87282860D01*
X97596379Y-88509115D02*
X97725563Y-88269660D01*
X205660083Y-96489486D02*
X205389024Y-96465959D01*
X174289181Y-86259697D02*
X174520194Y-86403433D01*
X137204033Y-47503785D02*
X137475591Y-47520601D01*
X133435801Y-29811147D02*
X133647316Y-29640009D01*
X104807260Y-114992649D02*
X104557532Y-115100643D01*
X106732614Y-75512117D02*
X106553748Y-75717139D01*
X131979196Y-31754665D02*
X132096379Y-31509115D01*
X97202362Y-108521814D02*
X97281945Y-108261635D01*
X211259455Y-73608767D02*
X211173460Y-73866898D01*
X173043594Y-104721049D02*
X173302769Y-104803845D01*
X206745986Y-96449174D02*
X206475591Y-96479398D01*
X99147316Y-86640009D02*
X99367036Y-86479542D01*
X142439531Y-109186674D02*
X142473097Y-109456674D01*
X204587449Y-104684484D02*
X204852050Y-104621132D01*
X106901123Y-49701497D02*
X107058861Y-49923185D01*
X206204033Y-115496214D02*
X205931975Y-115499579D01*
X140864962Y-106086936D02*
X141053748Y-106282860D01*
X201518636Y-56188633D02*
X201366430Y-55963111D01*
X101087449Y-66684484D02*
X101352050Y-66621132D01*
X203816935Y-58048190D02*
X203569954Y-57934053D01*
X171975591Y-58479398D02*
X171704033Y-58496214D01*
X166725563Y-112730339D02*
X166596379Y-112490884D01*
X103245986Y-28550825D02*
X103514555Y-28594384D01*
X105743815Y-105558417D02*
X105959499Y-105724270D01*
X97202362Y-32521814D02*
X97281945Y-32261635D01*
X175166717Y-57099412D02*
X174959499Y-57275729D01*
X97596379Y-55490884D02*
X97479196Y-55245334D01*
X132681809Y-106593647D02*
X132855550Y-106384265D01*
X133039433Y-106183730D02*
X133233007Y-105992535D01*
X175732614Y-68487882D02*
X175901123Y-68701497D01*
X141232614Y-113512117D02*
X141053748Y-113717139D01*
X172514555Y-28594384D02*
X172780641Y-28651172D01*
X102160083Y-28510513D02*
X102431975Y-28500420D01*
X133867036Y-95520457D02*
X133647316Y-95359990D01*
X106166717Y-57099412D02*
X105959499Y-57275729D01*
X100316935Y-58048190D02*
X100069954Y-57934053D01*
X135587449Y-104684484D02*
X135852050Y-104621132D01*
X101889024Y-115465959D02*
X101619459Y-115429055D01*
X139057532Y-28899356D02*
X139307260Y-29007350D01*
X105520194Y-38596566D02*
X105289181Y-38740302D01*
X221956940Y-20709715D02*
X221923879Y-20617316D01*
X211439531Y-71186674D02*
X211473097Y-71456674D01*
X166596379Y-88509115D02*
X166725563Y-88269660D01*
X200979196Y-55245334D02*
X200874299Y-54994289D01*
X201518636Y-87811366D02*
X201681809Y-87593647D01*
X200515137Y-110407785D02*
X200501682Y-110136039D01*
X207543594Y-104721049D02*
X207802769Y-104803845D01*
X136660083Y-96489486D02*
X136389024Y-96465959D01*
X205119459Y-66570944D02*
X205389024Y-66534040D01*
X168367036Y-48479542D02*
X168594423Y-48330136D01*
X141558861Y-106923185D02*
X141705442Y-107152403D01*
X132855550Y-87384265D02*
X133039433Y-87183730D01*
X107832579Y-32653300D02*
X107892653Y-32918664D01*
X202867036Y-38520457D02*
X202647316Y-38359990D01*
X97042015Y-110678533D02*
X97015137Y-110407785D01*
X142473097Y-34543325D02*
X142439531Y-34813325D01*
X221980785Y-20804909D02*
X221980785Y-20804909D01*
X166042015Y-52321466D02*
X166082249Y-52052379D01*
X169316935Y-39048190D02*
X169069954Y-38934053D01*
X211074804Y-50879539D02*
X211173460Y-51133101D01*
X103780641Y-39348827D02*
X103514555Y-39405615D01*
X132681809Y-30593647D02*
X132855550Y-30384265D01*
X105743815Y-86558417D02*
X105959499Y-86724270D01*
X202233007Y-95007464D02*
X202039433Y-94816269D01*
X166001682Y-72136039D02*
X166001682Y-71863960D01*
X132096379Y-69509115D02*
X132225563Y-69269660D01*
X204326306Y-58239155D02*
X204069258Y-58149974D01*
X175732614Y-37512117D02*
X175553748Y-37717139D01*
X105743815Y-48558417D02*
X105959499Y-48724270D01*
X169069954Y-76934053D02*
X168828920Y-76807841D01*
X134569954Y-48065946D02*
X134816935Y-47951809D01*
X174743815Y-67558417D02*
X174959499Y-67724270D01*
X210401123Y-75298502D02*
X210232614Y-75512117D01*
X137204033Y-104503785D02*
X137475591Y-104520601D01*
X200702362Y-51521814D02*
X200781945Y-51261635D01*
X103245986Y-115449174D02*
X102975591Y-115479398D01*
X133039433Y-75816269D02*
X132855550Y-75615734D01*
X131874299Y-32005710D02*
X131979196Y-31754665D01*
X166374299Y-108005710D02*
X166479196Y-107754665D01*
X169826306Y-28760844D02*
X170087449Y-28684484D01*
X209020194Y-57596566D02*
X208789181Y-57740302D01*
X138014555Y-96405615D02*
X137745986Y-96449174D01*
X105289181Y-67259697D02*
X105520194Y-67403433D01*
X210401123Y-49701497D02*
X210558861Y-49923185D01*
X136119459Y-39429055D02*
X135852050Y-39378867D01*
X200979196Y-88754665D02*
X201096379Y-88509115D01*
X174959499Y-67724270D02*
X175166717Y-67900587D01*
X98018636Y-37188633D02*
X97866430Y-36963111D01*
X201225563Y-93730339D02*
X201096379Y-93490884D01*
X221831469Y-123555570D02*
X221881921Y-123471396D01*
X97479196Y-36245334D02*
X97374299Y-35994289D01*
X75292893Y-20292893D02*
X75226989Y-20365606D01*
X206745986Y-39449174D02*
X206475591Y-39479398D01*
X133435801Y-48811147D02*
X133647316Y-48640009D01*
X169069954Y-48065946D02*
X169316935Y-47951809D01*
X203094423Y-57669863D02*
X202867036Y-57520457D01*
X222000000Y-123000000D02*
X222000000Y-21000000D01*
X107205442Y-107152403D02*
X107340509Y-107388589D01*
X104557532Y-77100643D02*
X104302769Y-77196154D01*
X97042015Y-109321466D02*
X97082249Y-109052379D01*
X107892653Y-51918664D02*
X107939531Y-52186674D01*
X211173460Y-108133101D02*
X211259455Y-108391232D01*
X97596379Y-36490884D02*
X97479196Y-36245334D01*
X104043594Y-28721049D02*
X104302769Y-28803845D01*
X100316935Y-28951809D02*
X100569258Y-28850025D01*
X104302769Y-104803845D02*
X104557532Y-104899356D01*
X98018636Y-87811366D02*
X98181809Y-87593647D01*
X168828920Y-48192158D02*
X169069954Y-48065946D01*
X139057532Y-96100643D02*
X138802769Y-96196154D01*
X173557532Y-58100643D02*
X173302769Y-58196154D01*
X210401123Y-94298502D02*
X210232614Y-94512117D01*
X166042015Y-71321466D02*
X166082249Y-71052379D01*
X200979196Y-69754665D02*
X201096379Y-69509115D01*
X209666717Y-114099412D02*
X209459499Y-114275729D01*
X176673460Y-51133101D02*
X176759455Y-51391232D01*
X204587449Y-77315515D02*
X204326306Y-77239155D01*
X103245986Y-39449174D02*
X102975591Y-39479398D01*
X169316935Y-115048190D02*
X169069954Y-114934053D01*
X205931975Y-77499579D02*
X205660083Y-77489486D01*
X106166717Y-29900587D02*
X106364962Y-30086936D01*
X131979196Y-55245334D02*
X131874299Y-54994289D01*
X131979196Y-88754665D02*
X132096379Y-88509115D01*
X175553748Y-30282860D02*
X175732614Y-30487882D01*
X176058861Y-94076814D02*
X175901123Y-94298502D01*
X170352050Y-77378867D02*
X170087449Y-77315515D01*
X103514555Y-104594384D02*
X103780641Y-104651172D01*
X140666717Y-29900587D02*
X140864962Y-30086936D01*
X176832579Y-92346699D02*
X176759455Y-92608767D01*
X131635742Y-73214388D02*
X131635742Y-73214388D01*
X107759455Y-89391232D02*
X107832579Y-89653300D01*
X206204033Y-104503785D02*
X206475591Y-104520601D01*
X176205442Y-107152403D02*
X176340509Y-107388589D01*
X202039433Y-87183730D02*
X202233007Y-86992535D01*
X210401123Y-106701497D02*
X210558861Y-106923185D01*
X166479196Y-31754665D02*
X166596379Y-31509115D01*
X202867036Y-86479542D02*
X203094423Y-86330136D01*
X201855550Y-87384265D02*
X202039433Y-87183730D01*
X102431975Y-104500420D02*
X102704033Y-104503785D01*
X97082249Y-52052379D02*
X97135742Y-51785611D01*
X200542015Y-110678533D02*
X200515137Y-110407785D01*
X174743815Y-38441582D02*
X174520194Y-38596566D01*
X98935801Y-95188852D02*
X98733007Y-95007464D01*
X172245986Y-66550825D02*
X172514555Y-66594384D01*
X135326306Y-104760844D02*
X135587449Y-104684484D01*
X203094423Y-67330136D02*
X203328920Y-67192158D01*
X140666717Y-114099412D02*
X140459499Y-114275729D01*
X166281945Y-51261635D02*
X166281945Y-51261635D01*
X131542015Y-110678533D02*
X131515137Y-110407785D01*
X211332579Y-54346699D02*
X211259455Y-54608767D01*
X105743815Y-95441582D02*
X105520194Y-95596566D01*
X97866430Y-50036888D02*
X98018636Y-49811366D01*
X166725563Y-69269660D02*
X166866430Y-69036888D01*
X97725563Y-93730339D02*
X97596379Y-93490884D01*
X99367036Y-67479542D02*
X99594423Y-67330136D01*
X201225563Y-50269660D02*
X201366430Y-50036888D01*
X131702362Y-70521814D02*
X131781945Y-70261635D01*
X134328920Y-67192158D02*
X134569954Y-67065946D01*
X98181809Y-75406352D02*
X98018636Y-75188633D01*
X97281945Y-51261635D02*
X97374299Y-51005710D01*
X133647316Y-67640009D02*
X133867036Y-67479542D01*
X175553748Y-87282860D02*
X175732614Y-87487882D01*
X142439531Y-110813325D02*
X142392653Y-111081335D01*
X200781945Y-92738364D02*
X200702362Y-92478185D01*
X176832579Y-32653300D02*
X176892653Y-32918664D01*
X137745986Y-85550825D02*
X138014555Y-85594384D01*
X176973097Y-110543325D02*
X176939531Y-110813325D01*
X211392653Y-111081335D02*
X211332579Y-111346699D01*
X167733007Y-67992535D02*
X167935801Y-67811147D01*
X133233007Y-57007464D02*
X133039433Y-56816269D01*
X221923879Y-123382683D02*
X221956940Y-123290284D01*
X221290284Y-123956940D02*
X221382683Y-123923879D01*
X140459499Y-86724270D02*
X140666717Y-86900587D01*
X140666717Y-57099412D02*
X140459499Y-57275729D01*
X209020194Y-48403433D02*
X209243815Y-48558417D01*
X131501682Y-72136039D02*
X131501682Y-71863960D01*
X175732614Y-56512117D02*
X175553748Y-56717139D01*
X140459499Y-29724270D02*
X140666717Y-29900587D01*
X132096379Y-36490884D02*
X131979196Y-36245334D01*
X208057532Y-96100643D02*
X207802769Y-96196154D01*
X166725563Y-36730339D02*
X166596379Y-36490884D01*
X106166717Y-95099412D02*
X105959499Y-95275729D01*
X104557532Y-39100643D02*
X104302769Y-39196154D01*
X207280641Y-85651172D02*
X207543594Y-85721049D01*
X208551342Y-29127562D02*
X208789181Y-29259697D01*
X176973097Y-34543325D02*
X176939531Y-34813325D01*
X131635742Y-73214388D02*
X131582249Y-72947620D01*
X207802769Y-85803845D02*
X208057532Y-85899356D01*
X166135742Y-54214388D02*
X166082249Y-53947620D01*
X106732614Y-68487882D02*
X106901123Y-68701497D01*
X101352050Y-28621132D02*
X101619459Y-28570944D01*
X107574804Y-69879539D02*
X107673460Y-70133101D01*
X202233007Y-114007464D02*
X202039433Y-113816269D01*
X134328920Y-95807841D02*
X134094423Y-95669863D01*
X101087449Y-104684484D02*
X101352050Y-104621132D01*
X75168530Y-20444429D02*
X75118078Y-20528603D01*
X176058861Y-106923185D02*
X176205442Y-107152403D01*
X141053748Y-106282860D02*
X141232614Y-106487882D01*
X166281945Y-92738364D02*
X166202362Y-92478185D01*
X100569258Y-104850025D02*
X100826306Y-104760844D01*
X141558861Y-37076814D02*
X141401123Y-37298502D01*
X101889024Y-28534040D02*
X102160083Y-28510513D01*
X131515137Y-53407785D02*
X131501682Y-53136039D01*
X135069258Y-104850025D02*
X135326306Y-104760844D01*
X208551342Y-95872437D02*
X208307260Y-95992649D01*
X211493270Y-110271995D02*
X211473097Y-110543325D01*
X207802769Y-77196154D02*
X207543594Y-77278950D01*
X98733007Y-86992535D02*
X98935801Y-86811147D01*
X138280641Y-28651172D02*
X138543594Y-28721049D01*
X97596379Y-112490884D02*
X97479196Y-112245334D01*
X172245986Y-85550825D02*
X172514555Y-85594384D01*
X136931975Y-66500420D02*
X137204033Y-66503785D01*
X133647316Y-86640009D02*
X133867036Y-86479542D01*
X100069954Y-86065946D02*
X100316935Y-85951809D01*
X166866430Y-31036888D02*
X167018636Y-30811366D01*
X142259455Y-108391232D02*
X142332579Y-108653300D01*
X107574804Y-93120460D02*
X107463730Y-93368834D01*
X205119459Y-77429055D02*
X204852050Y-77378867D01*
X134569954Y-86065946D02*
X134816935Y-85951809D01*
X204587449Y-47684484D02*
X204852050Y-47621132D01*
X205931975Y-104500420D02*
X206204033Y-104503785D01*
X100826306Y-39239155D02*
X100569258Y-39149974D01*
X134569954Y-29065946D02*
X134816935Y-28951809D01*
X166082249Y-90052379D02*
X166135742Y-89785611D01*
X136119459Y-28570944D02*
X136389024Y-28534040D01*
X169069954Y-86065946D02*
X169316935Y-85951809D01*
X98355550Y-37615734D02*
X98181809Y-37406352D01*
X100316935Y-47951809D02*
X100569258Y-47850025D01*
X75076120Y-20617316D02*
X75043059Y-20709715D01*
X105051342Y-114872437D02*
X104807260Y-114992649D01*
X176759455Y-111608767D02*
X176673460Y-111866898D01*
X200501682Y-52863960D02*
X200515137Y-52592214D01*
X176832579Y-35346699D02*
X176759455Y-35608767D01*
X136119459Y-85570944D02*
X136389024Y-85534040D01*
X210558861Y-37076814D02*
X210401123Y-37298502D01*
X205660083Y-85510513D02*
X205931975Y-85500420D01*
X166281945Y-73738364D02*
X166202362Y-73478185D01*
X138802769Y-104803845D02*
X139057532Y-104899356D01*
X101889024Y-66534040D02*
X102160083Y-66510513D01*
X176673460Y-32133101D02*
X176759455Y-32391232D01*
X98733007Y-105992535D02*
X98935801Y-105811147D01*
X102160083Y-66510513D02*
X102431975Y-66500420D01*
X211392653Y-73081335D02*
X211332579Y-73346699D01*
X176463730Y-93368834D02*
X176340509Y-93611410D01*
X207014555Y-115405615D02*
X206745986Y-115449174D01*
X166866430Y-88036888D02*
X167018636Y-87811366D01*
X97135742Y-111214388D02*
X97082249Y-110947620D01*
X103780641Y-47651172D02*
X104043594Y-47721049D01*
X205931975Y-66500420D02*
X206204033Y-66503785D01*
X211439531Y-110813325D02*
X211392653Y-111081335D01*
X132855550Y-113615734D02*
X132681809Y-113406352D01*
X200979196Y-74245334D02*
X200874299Y-73994289D01*
X167935801Y-95188852D02*
X167733007Y-95007464D01*
X201518636Y-113188633D02*
X201366430Y-112963111D01*
X136389024Y-96465959D02*
X136119459Y-96429055D01*
X174959499Y-105724270D02*
X175166717Y-105900587D01*
X176574804Y-88879539D02*
X176673460Y-89133101D01*
X171975591Y-77479398D02*
X171704033Y-77496214D01*
X136119459Y-77429055D02*
X135852050Y-77378867D01*
X97281945Y-89261635D02*
X97374299Y-89005710D01*
X107673460Y-32133101D02*
X107759455Y-32391232D01*
X166374299Y-73994289D02*
X166281945Y-73738364D01*
X202867036Y-29479542D02*
X203094423Y-29330136D01*
X172780641Y-47651172D02*
X173043594Y-47721049D01*
X173807260Y-67007350D02*
X174051342Y-67127562D01*
X75804909Y-123980785D02*
X75901982Y-123995184D01*
X100569258Y-28850025D02*
X100826306Y-28760844D01*
X98018636Y-30811366D02*
X98181809Y-30593647D01*
X99594423Y-86330136D02*
X99828920Y-86192158D01*
X203816935Y-115048190D02*
X203569954Y-114934053D01*
X131874299Y-89005710D02*
X131979196Y-88754665D01*
X101619459Y-96429055D02*
X101352050Y-96378867D01*
X98355550Y-106384265D02*
X98539433Y-106183730D01*
X173302769Y-58196154D02*
X173043594Y-58278950D01*
X142493270Y-71728004D02*
X142500000Y-72000000D01*
X200874299Y-54994289D02*
X200781945Y-54738364D01*
X132366430Y-88036888D02*
X132518636Y-87811366D01*
X107205442Y-36847596D02*
X107058861Y-37076814D01*
X204069258Y-28850025D02*
X204326306Y-28760844D01*
X142439531Y-52186674D02*
X142473097Y-52456674D01*
X221980785Y-123195090D02*
X221995184Y-123098017D01*
X142332579Y-54346699D02*
X142259455Y-54608767D01*
X211074804Y-55120460D02*
X210963730Y-55368834D01*
X106901123Y-87701497D02*
X107058861Y-87923185D01*
X132366430Y-74963111D02*
X132225563Y-74730339D01*
X103780641Y-28651172D02*
X104043594Y-28721049D01*
X210963730Y-74368834D02*
X210840509Y-74611410D01*
X142259455Y-35608767D02*
X142173460Y-35866898D01*
X211173460Y-92866898D02*
X211074804Y-93120460D01*
X210963730Y-88631165D02*
X211074804Y-88879539D01*
X104302769Y-66803845D02*
X104557532Y-66899356D01*
X204587449Y-28684484D02*
X204852050Y-28621132D01*
X171431975Y-96499579D02*
X171160083Y-96489486D01*
X221980785Y-20804909D02*
X221956940Y-20709715D01*
X138014555Y-66594384D02*
X138280641Y-66651172D01*
X104302769Y-58196154D02*
X104043594Y-58278950D01*
X173557532Y-85899356D02*
X173807260Y-86007350D01*
X203328920Y-86192158D02*
X203569954Y-86065946D01*
X101889024Y-39465959D02*
X101619459Y-39429055D01*
X132225563Y-69269660D02*
X132366430Y-69036888D01*
X101889024Y-58465959D02*
X101619459Y-58429055D01*
X107340509Y-107388589D02*
X107463730Y-107631165D01*
X97866430Y-69036888D02*
X98018636Y-68811366D01*
X107205442Y-69152403D02*
X107340509Y-69388589D01*
X139789181Y-67259697D02*
X140020194Y-67403433D01*
X175166717Y-105900587D02*
X175364962Y-106086936D01*
X174743815Y-105558417D02*
X174959499Y-105724270D01*
X98181809Y-94406352D02*
X98018636Y-94188633D01*
X211493270Y-53271995D02*
X211473097Y-53543325D01*
X176673460Y-35866898D02*
X176574804Y-36120460D01*
X97015137Y-34407785D02*
X97001682Y-34136039D01*
X211439531Y-52186674D02*
X211473097Y-52456674D01*
X166135742Y-111214388D02*
X166082249Y-110947620D01*
X105051342Y-76872437D02*
X104807260Y-76992649D01*
X142259455Y-111608767D02*
X142173460Y-111866898D01*
X107993270Y-52728004D02*
X108000000Y-53000000D01*
X167018636Y-94188633D02*
X166866430Y-93963111D01*
X141558861Y-94076814D02*
X141401123Y-94298502D01*
X173302769Y-85803845D02*
X173557532Y-85899356D01*
X167355550Y-68384265D02*
X167539433Y-68183730D01*
X168367036Y-76520457D02*
X168147316Y-76359990D01*
X205660083Y-47510513D02*
X205931975Y-47500420D01*
X169826306Y-96239155D02*
X169569258Y-96149974D01*
X206204033Y-96496214D02*
X205931975Y-96499579D01*
X138802769Y-58196154D02*
X138543594Y-58278950D01*
X169316935Y-28951809D02*
X169569258Y-28850025D01*
X167935801Y-48811147D02*
X168147316Y-48640009D01*
X97479196Y-74245334D02*
X97374299Y-73994289D01*
X177000000Y-110000000D02*
X176993270Y-110271995D01*
X200635742Y-89785611D02*
X200702362Y-89521814D01*
X205389024Y-115465959D02*
X205119459Y-115429055D01*
X211500000Y-34000000D02*
X211493270Y-34271995D01*
X141401123Y-56298502D02*
X141232614Y-56512117D01*
X107340509Y-112611410D02*
X107205442Y-112847596D01*
X101619459Y-47570944D02*
X101889024Y-47534040D01*
X176993270Y-52728004D02*
X177000000Y-53000000D01*
X169316935Y-85951809D02*
X169569258Y-85850025D01*
X203569954Y-38934053D02*
X203328920Y-38807841D01*
X135587449Y-66684484D02*
X135852050Y-66621132D01*
X141963730Y-31631165D02*
X142074804Y-31879539D01*
X170352050Y-28621132D02*
X170619459Y-28570944D01*
X133039433Y-30183730D02*
X133233007Y-29992535D01*
X222000000Y-21000000D02*
X221995184Y-20901982D01*
X136931975Y-77499579D02*
X136660083Y-77489486D01*
X211493270Y-33728004D02*
X211500000Y-34000000D01*
X101352050Y-77378867D02*
X101087449Y-77315515D01*
X137204033Y-115496214D02*
X137204033Y-115496214D01*
X140243815Y-95441582D02*
X140020194Y-95596566D01*
X170352050Y-47621132D02*
X170619459Y-47570944D01*
X141053748Y-49282860D02*
X141232614Y-49487882D01*
X208551342Y-67127562D02*
X208789181Y-67259697D01*
X204587449Y-96315515D02*
X204326306Y-96239155D01*
X98935801Y-67811147D02*
X99147316Y-67640009D01*
X136931975Y-28500420D02*
X137204033Y-28503785D01*
X202867036Y-48479542D02*
X203094423Y-48330136D01*
X139789181Y-105259697D02*
X140020194Y-105403433D01*
X201096379Y-50509115D02*
X201225563Y-50269660D01*
X141232614Y-106487882D02*
X141401123Y-106701497D01*
X142173460Y-70133101D02*
X142259455Y-70391232D01*
X133435801Y-86811147D02*
X133647316Y-86640009D01*
X200501682Y-90863960D02*
X200515137Y-90592214D01*
X204587449Y-85684484D02*
X204852050Y-85621132D01*
X105289181Y-76740302D02*
X105051342Y-76872437D01*
X207543594Y-66721049D02*
X207802769Y-66803845D01*
X204326306Y-77239155D02*
X204069258Y-77149974D01*
X102160083Y-115489486D02*
X101889024Y-115465959D01*
X203816935Y-96048190D02*
X203569954Y-95934053D01*
X208057532Y-39100643D02*
X207802769Y-39196154D01*
X75019214Y-20804909D02*
X75004815Y-20901982D01*
X135326306Y-77239155D02*
X135069258Y-77149974D01*
X138543594Y-28721049D02*
X138802769Y-28803845D01*
X140020194Y-95596566D02*
X139789181Y-95740302D01*
X206204033Y-85503785D02*
X206475591Y-85520601D01*
X107892653Y-35081335D02*
X107832579Y-35346699D01*
X209864962Y-37913063D02*
X209666717Y-38099412D01*
X98355550Y-94615734D02*
X98181809Y-94406352D01*
X203569954Y-114934053D02*
X203328920Y-114807841D01*
X175364962Y-87086936D02*
X175553748Y-87282860D01*
X97135742Y-51785611D02*
X97202362Y-51521814D01*
X211493270Y-34271995D02*
X211473097Y-34543325D01*
X206475591Y-104520601D02*
X206745986Y-104550825D01*
X166866430Y-112963111D02*
X166725563Y-112730339D01*
X133647316Y-114359990D02*
X133435801Y-114188852D01*
X174520194Y-76596566D02*
X174289181Y-76740302D01*
X75444429Y-20168530D02*
X75365606Y-20226989D01*
X176340509Y-88388589D02*
X176463730Y-88631165D01*
X107892653Y-108918664D02*
X107939531Y-109186674D01*
X101087449Y-96315515D02*
X100826306Y-96239155D01*
X99594423Y-67330136D02*
X99828920Y-67192158D01*
X102704033Y-47503785D02*
X102975591Y-47520601D01*
X98355550Y-113615734D02*
X98181809Y-113406352D01*
X142259455Y-51391232D02*
X142332579Y-51653300D01*
X97596379Y-93490884D02*
X97479196Y-93245334D01*
X101619459Y-39429055D02*
X101352050Y-39378867D01*
X176574804Y-74120460D02*
X176463730Y-74368834D01*
X169826306Y-66760844D02*
X170087449Y-66684484D01*
X136931975Y-96499579D02*
X136660083Y-96489486D01*
X168594423Y-95669863D02*
X168367036Y-95520457D01*
X142439531Y-33186674D02*
X142473097Y-33456674D01*
X138280641Y-77348827D02*
X138014555Y-77405615D01*
X210840509Y-74611410D02*
X210705442Y-74847596D01*
X171431975Y-58499579D02*
X171160083Y-58489486D01*
X210963730Y-93368834D02*
X210840509Y-93611410D01*
X175901123Y-30701497D02*
X176058861Y-30923185D01*
X166042015Y-110678533D02*
X166015137Y-110407785D01*
X101352050Y-104621132D02*
X101619459Y-104570944D01*
X135326306Y-85760844D02*
X135587449Y-85684484D01*
X205389024Y-66534040D02*
X205660083Y-66510513D01*
X167733007Y-38007464D02*
X167539433Y-37816269D01*
X211259455Y-108391232D02*
X211332579Y-108653300D01*
X201096379Y-31509115D02*
X201225563Y-31269660D01*
X205119459Y-58429055D02*
X204852050Y-58378867D01*
X210053748Y-68282860D02*
X210232614Y-68487882D01*
X176892653Y-111081335D02*
X176832579Y-111346699D01*
X211392653Y-35081335D02*
X211332579Y-35346699D01*
X98539433Y-106183730D02*
X98733007Y-105992535D01*
X173302769Y-96196154D02*
X173043594Y-96278950D01*
X210401123Y-113298502D02*
X210232614Y-113512117D01*
X134094423Y-57669863D02*
X133867036Y-57520457D01*
X200702362Y-70521814D02*
X200781945Y-70261635D01*
X135587449Y-47684484D02*
X135852050Y-47621132D01*
X97042015Y-71321466D02*
X97042015Y-71321466D01*
X97374299Y-111994289D02*
X97281945Y-111738364D01*
X99367036Y-38520457D02*
X99147316Y-38359990D01*
X140459499Y-95275729D02*
X140243815Y-95441582D01*
X166042015Y-34678533D02*
X166015137Y-34407785D01*
X204326306Y-96239155D02*
X204069258Y-96149974D01*
X107892653Y-73081335D02*
X107832579Y-73346699D01*
X131702362Y-51521814D02*
X131781945Y-51261635D01*
X205389024Y-77465959D02*
X205119459Y-77429055D01*
X171431975Y-66500420D02*
X171704033Y-66503785D01*
X107832579Y-108653300D02*
X107892653Y-108918664D01*
X142259455Y-32391232D02*
X142332579Y-32653300D01*
X98018636Y-56188633D02*
X97866430Y-55963111D01*
X131874299Y-92994289D02*
X131781945Y-92738364D01*
X107939531Y-90186674D02*
X107973097Y-90456674D01*
X210963730Y-31631165D02*
X211074804Y-31879539D01*
X174959499Y-86724270D02*
X175166717Y-86900587D01*
X131582249Y-72947620D02*
X131542015Y-72678533D01*
X102431975Y-96499579D02*
X102160083Y-96489486D01*
X104807260Y-38992649D02*
X104557532Y-39100643D01*
X209243815Y-105558417D02*
X209459499Y-105724270D01*
X168147316Y-48640009D02*
X168367036Y-48479542D01*
X140864962Y-30086936D02*
X141053748Y-30282860D01*
X204326306Y-85760844D02*
X204587449Y-85684484D01*
X167733007Y-105992535D02*
X167935801Y-105811147D01*
X105051342Y-67127562D02*
X105289181Y-67259697D01*
X97015137Y-110407785D02*
X97001682Y-110136039D01*
X176574804Y-50879539D02*
X176673460Y-51133101D01*
X105051342Y-38872437D02*
X104807260Y-38992649D01*
X168594423Y-57669863D02*
X168367036Y-57520457D01*
X98355550Y-30384265D02*
X98539433Y-30183730D01*
X167935801Y-57188852D02*
X167733007Y-57007464D01*
X102160083Y-96489486D02*
X101889024Y-96465959D01*
X131515137Y-110407785D02*
X131501682Y-110136039D01*
X166596379Y-31509115D02*
X166725563Y-31269660D01*
X204069258Y-77149974D02*
X203816935Y-77048190D01*
X131979196Y-107754665D02*
X132096379Y-107509115D01*
X106364962Y-113913063D02*
X106166717Y-114099412D01*
X104807260Y-67007350D02*
X105051342Y-67127562D01*
X203816935Y-39048190D02*
X203569954Y-38934053D01*
X204852050Y-66621132D02*
X205119459Y-66570944D01*
X75004815Y-123098017D02*
X75019214Y-123195090D01*
X205660083Y-58489486D02*
X205389024Y-58465959D01*
X104302769Y-115196154D02*
X104043594Y-115278950D01*
X210840509Y-31388589D02*
X210963730Y-31631165D01*
X140459499Y-105724270D02*
X140666717Y-105900587D01*
X103514555Y-115405615D02*
X103245986Y-115449174D01*
X102431975Y-28500420D02*
X102704033Y-28503785D01*
X208307260Y-105007350D02*
X208551342Y-105127562D01*
X203094423Y-95669863D02*
X202867036Y-95520457D01*
X106901123Y-68701497D02*
X107058861Y-68923185D01*
X167181809Y-56406352D02*
X167018636Y-56188633D01*
X166015137Y-110407785D02*
X166001682Y-110136039D01*
X209020194Y-86403433D02*
X209243815Y-86558417D01*
X209864962Y-49086936D02*
X210053748Y-49282860D01*
X202647316Y-105640009D02*
X202867036Y-105479542D01*
X166082249Y-34947620D02*
X166042015Y-34678533D01*
X134816935Y-85951809D02*
X135069258Y-85850025D01*
X142259455Y-54608767D02*
X142173460Y-54866898D01*
X210705442Y-36847596D02*
X210558861Y-37076814D01*
X207014555Y-85594384D02*
X207280641Y-85651172D01*
X173302769Y-115196154D02*
X173043594Y-115278950D01*
X131582249Y-91947620D02*
X131542015Y-91678533D01*
X205389024Y-58465959D02*
X205119459Y-58429055D01*
X172514555Y-58405615D02*
X172245986Y-58449174D01*
X176973097Y-72543325D02*
X176939531Y-72813325D01*
X200781945Y-108261635D02*
X200874299Y-108005710D01*
X103514555Y-39405615D02*
X103245986Y-39449174D01*
X107058861Y-75076814D02*
X106901123Y-75298502D01*
X107340509Y-93611410D02*
X107205442Y-93847596D01*
X167733007Y-76007464D02*
X167539433Y-75816269D01*
X141401123Y-94298502D02*
X141232614Y-94512117D01*
X142332579Y-73346699D02*
X142259455Y-73608767D01*
X100316935Y-39048190D02*
X100069954Y-38934053D01*
X141401123Y-87701497D02*
X141558861Y-87923185D01*
X133039433Y-94816269D02*
X132855550Y-94615734D01*
X211473097Y-110543325D02*
X211439531Y-110813325D01*
X97001682Y-91136039D02*
X97001682Y-90863960D01*
X200874299Y-73994289D02*
X200781945Y-73738364D01*
X101889024Y-104534040D02*
X102160083Y-104510513D01*
X133435801Y-95188852D02*
X133435801Y-95188852D01*
X171704033Y-115496214D02*
X171431975Y-115499579D01*
X140243815Y-29558417D02*
X140459499Y-29724270D01*
X133867036Y-105479542D02*
X134094423Y-105330136D01*
X208307260Y-67007350D02*
X208551342Y-67127562D01*
X208307260Y-48007350D02*
X208551342Y-48127562D01*
X100569258Y-58149974D02*
X100316935Y-58048190D01*
X173557532Y-66899356D02*
X173807260Y-67007350D01*
X200501682Y-71863960D02*
X200515137Y-71592214D01*
X107939531Y-91813325D02*
X107892653Y-92081335D01*
X131635742Y-70785611D02*
X131702362Y-70521814D01*
X211332579Y-73346699D02*
X211259455Y-73608767D01*
X102160083Y-39489486D02*
X101889024Y-39465959D01*
X133647316Y-76359990D02*
X133435801Y-76188852D01*
X176205442Y-50152403D02*
X176340509Y-50388589D01*
X133233007Y-29992535D02*
X133435801Y-29811147D01*
X202039433Y-113816269D02*
X201855550Y-113615734D01*
X200781945Y-35738364D02*
X200702362Y-35478185D01*
X205389024Y-28534040D02*
X205660083Y-28510513D01*
X166082249Y-110947620D02*
X166042015Y-110678533D01*
X133647316Y-38359990D02*
X133435801Y-38188852D01*
X141963730Y-93368834D02*
X141840509Y-93611410D01*
X211500000Y-72000000D02*
X211493270Y-72271995D01*
X98733007Y-38007464D02*
X98539433Y-37816269D01*
X104557532Y-28899356D02*
X104807260Y-29007350D01*
X98181809Y-49593647D02*
X98355550Y-49384265D01*
X141401123Y-37298502D02*
X141232614Y-37512117D01*
X209243815Y-95441582D02*
X209020194Y-95596566D01*
X104557532Y-115100643D02*
X104302769Y-115196154D01*
X175732614Y-94512117D02*
X175553748Y-94717139D01*
X142074804Y-31879539D02*
X142173460Y-32133101D01*
X172780641Y-115348827D02*
X172780641Y-115348827D01*
X200501682Y-33863960D02*
X200515137Y-33592214D01*
X167935801Y-38188852D02*
X167733007Y-38007464D01*
X140666717Y-105900587D02*
X140864962Y-106086936D01*
X201518636Y-49811366D02*
X201681809Y-49593647D01*
X137204033Y-77496214D02*
X136931975Y-77499579D01*
X202647316Y-57359990D02*
X202435801Y-57188852D01*
X132096379Y-31509115D02*
X132225563Y-31269660D01*
X176463730Y-36368834D02*
X176340509Y-36611410D01*
X135587449Y-28684484D02*
X135852050Y-28621132D01*
X166281945Y-70261635D02*
X166374299Y-70005710D01*
X202647316Y-86640009D02*
X202867036Y-86479542D01*
X131542015Y-90321466D02*
X131582249Y-90052379D01*
X207014555Y-77405615D02*
X206745986Y-77449174D01*
X200781945Y-89261635D02*
X200874299Y-89005710D01*
X105520194Y-95596566D02*
X105289181Y-95740302D01*
X166479196Y-74245334D02*
X166374299Y-73994289D01*
X142173460Y-54866898D02*
X142074804Y-55120460D01*
X104043594Y-85721049D02*
X104302769Y-85803845D01*
X211493270Y-91271995D02*
X211473097Y-91543325D01*
X104557532Y-96100643D02*
X104302769Y-96196154D01*
X99828920Y-67192158D02*
X100069954Y-67065946D01*
X211392653Y-70918664D02*
X211439531Y-71186674D01*
X104807260Y-95992649D02*
X104557532Y-96100643D01*
X97202362Y-32521814D02*
X97202362Y-32521814D01*
X210705442Y-74847596D02*
X210558861Y-75076814D01*
X133233007Y-38007464D02*
X133039433Y-37816269D01*
X210963730Y-69631165D02*
X211074804Y-69879539D01*
X167935801Y-114188852D02*
X167733007Y-114007464D01*
X210232614Y-106487882D02*
X210401123Y-106701497D01*
X135069258Y-77149974D02*
X134816935Y-77048190D01*
X139307260Y-86007350D02*
X139551342Y-86127562D01*
X202647316Y-38359990D02*
X202435801Y-38188852D01*
X107340509Y-88388589D02*
X107463730Y-88631165D01*
X200582249Y-72947620D02*
X200542015Y-72678533D01*
X166281945Y-108261635D02*
X166374299Y-108005710D01*
X135326306Y-96239155D02*
X135069258Y-96149974D01*
X97001682Y-72136039D02*
X97001682Y-71863960D01*
X169069954Y-57934053D02*
X168828920Y-57807841D01*
X201096379Y-107509115D02*
X201225563Y-107269660D01*
X131582249Y-110947620D02*
X131542015Y-110678533D01*
X206204033Y-77496214D02*
X205931975Y-77499579D01*
X97596379Y-31509115D02*
X97725563Y-31269660D01*
X167018636Y-49811366D02*
X167181809Y-49593647D01*
X205119459Y-28570944D02*
X205389024Y-28534040D01*
X106553748Y-49282860D02*
X106732614Y-49487882D01*
X102704033Y-85503785D02*
X102975591Y-85520601D01*
X176832579Y-73346699D02*
X176759455Y-73608767D01*
X169569258Y-58149974D02*
X169316935Y-58048190D01*
X200702362Y-35478185D02*
X200635742Y-35214388D01*
X211173460Y-89133101D02*
X211259455Y-89391232D01*
X98935801Y-38188852D02*
X98733007Y-38007464D01*
X101352050Y-47621132D02*
X101619459Y-47570944D01*
X139551342Y-105127562D02*
X139789181Y-105259697D01*
X221773010Y-123634393D02*
X221831469Y-123555570D01*
X173043594Y-96278950D02*
X172780641Y-96348827D01*
X169569258Y-66850025D02*
X169826306Y-66760844D01*
X202435801Y-48811147D02*
X202647316Y-48640009D01*
X176759455Y-35608767D02*
X176673460Y-35866898D01*
X105289181Y-86259697D02*
X105520194Y-86403433D01*
X204852050Y-47621132D02*
X205119459Y-47570944D01*
X210053748Y-94717139D02*
X209864962Y-94913063D01*
X103514555Y-85594384D02*
X103780641Y-85651172D01*
X75528603Y-123881921D02*
X75617316Y-123923879D01*
X203328920Y-95807841D02*
X203094423Y-95669863D01*
X131542015Y-109321466D02*
X131582249Y-109052379D01*
X142074804Y-69879539D02*
X142173460Y-70133101D01*
X168367036Y-95520457D02*
X168147316Y-95359990D01*
X173807260Y-114992649D02*
X173557532Y-115100643D01*
X105959499Y-29724270D02*
X106166717Y-29900587D01*
X134094423Y-95669863D02*
X133867036Y-95520457D01*
X135326306Y-58239155D02*
X135069258Y-58149974D01*
X134328920Y-76807841D02*
X134094423Y-76669863D01*
X106901123Y-30701497D02*
X107058861Y-30923185D01*
X133867036Y-38520457D02*
X133647316Y-38359990D01*
X142439531Y-72813325D02*
X142392653Y-73081335D01*
X208789181Y-38740302D02*
X208551342Y-38872437D01*
X204852050Y-104621132D02*
X205119459Y-104570944D01*
X176463730Y-74368834D02*
X176340509Y-74611410D01*
X135069258Y-58149974D02*
X134816935Y-58048190D01*
X133233007Y-76007464D02*
X133039433Y-75816269D01*
X138280641Y-66651172D02*
X138543594Y-66721049D01*
X211439531Y-109186674D02*
X211473097Y-109456674D01*
X108000000Y-110000000D02*
X107993270Y-110271995D01*
X131781945Y-51261635D02*
X131874299Y-51005710D01*
X166135742Y-92214388D02*
X166082249Y-91947620D01*
X100069954Y-67065946D02*
X100316935Y-66951809D01*
X166725563Y-31269660D02*
X166866430Y-31036888D01*
X201225563Y-69269660D02*
X201366430Y-69036888D01*
X131702362Y-108521814D02*
X131781945Y-108261635D01*
X174959499Y-29724270D02*
X175166717Y-29900587D01*
X99367036Y-76520457D02*
X99147316Y-76359990D01*
X173807260Y-105007350D02*
X174051342Y-105127562D01*
X201366430Y-31036888D02*
X201366430Y-31036888D01*
X98181809Y-87593647D02*
X98355550Y-87384265D01*
X200979196Y-36245334D02*
X200874299Y-35994289D01*
X131542015Y-71321466D02*
X131582249Y-71052379D01*
X166202362Y-92478185D02*
X166135742Y-92214388D01*
X104302769Y-96196154D02*
X104043594Y-96278950D01*
X106732614Y-49487882D02*
X106901123Y-49701497D01*
X107058861Y-56076814D02*
X106901123Y-56298502D01*
X176205442Y-31152403D02*
X176340509Y-31388589D01*
X100826306Y-104760844D02*
X101087449Y-104684484D01*
X99594423Y-95669863D02*
X99367036Y-95520457D01*
X166082249Y-71052379D02*
X166135742Y-70785611D01*
X202435801Y-114188852D02*
X202233007Y-114007464D01*
X208789181Y-114740302D02*
X208551342Y-114872437D01*
X203094423Y-114669863D02*
X202867036Y-114520457D01*
X174520194Y-86403433D02*
X174743815Y-86558417D01*
X97202362Y-70521814D02*
X97281945Y-70261635D01*
X207280641Y-96348827D02*
X207014555Y-96405615D01*
X207280641Y-28651172D02*
X207543594Y-28721049D01*
X174520194Y-67403433D02*
X174743815Y-67558417D01*
X170619459Y-66570944D02*
X170889024Y-66534040D01*
X97202362Y-73478185D02*
X97135742Y-73214388D01*
X167018636Y-56188633D02*
X166866430Y-55963111D01*
X200501682Y-53136039D02*
X200501682Y-52863960D01*
X167355550Y-113615734D02*
X167181809Y-113406352D01*
X141401123Y-30701497D02*
X141558861Y-30923185D01*
X101619459Y-115429055D02*
X101352050Y-115378867D01*
X101889024Y-96465959D02*
X101619459Y-96429055D01*
X141232614Y-94512117D02*
X141053748Y-94717139D01*
X131781945Y-32261635D02*
X131874299Y-32005710D01*
X211332579Y-32653300D02*
X211392653Y-32918664D01*
X139551342Y-67127562D02*
X139789181Y-67259697D01*
X142074804Y-50879539D02*
X142173460Y-51133101D01*
X103780641Y-66651172D02*
X104043594Y-66721049D01*
X166596379Y-112490884D02*
X166479196Y-112245334D01*
X106553748Y-30282860D02*
X106732614Y-30487882D01*
X97202362Y-54478185D02*
X97135742Y-54214388D01*
X208057532Y-66899356D02*
X208307260Y-67007350D01*
X201096379Y-88509115D02*
X201225563Y-88269660D01*
X139789181Y-86259697D02*
X140020194Y-86403433D01*
X170087449Y-77315515D02*
X169826306Y-77239155D01*
X166866430Y-107036888D02*
X167018636Y-106811366D01*
X142392653Y-73081335D02*
X142332579Y-73346699D01*
X200874299Y-32005710D02*
X200979196Y-31754665D01*
X200501682Y-109863960D02*
X200515137Y-109592214D01*
X101087449Y-58315515D02*
X100826306Y-58239155D01*
X175732614Y-106487882D02*
X175901123Y-106701497D01*
X140864962Y-56913063D02*
X140666717Y-57099412D01*
X211500000Y-91000000D02*
X211493270Y-91271995D01*
X133435801Y-95188852D02*
X133233007Y-95007464D01*
X131874299Y-54994289D02*
X131781945Y-54738364D01*
X221471396Y-20118078D02*
X221382683Y-20076120D01*
X221000000Y-124000000D02*
X221098017Y-123995184D01*
X133435801Y-76188852D02*
X133233007Y-76007464D01*
X106166717Y-105900587D02*
X106364962Y-106086936D01*
X176340509Y-31388589D02*
X176463730Y-31631165D01*
X170087449Y-58315515D02*
X169826306Y-58239155D01*
X172780641Y-39348827D02*
X172514555Y-39405615D01*
X172780641Y-58348827D02*
X172514555Y-58405615D01*
X171704033Y-96496214D02*
X171431975Y-96499579D01*
X210963730Y-107631165D02*
X211074804Y-107879539D01*
X200635742Y-35214388D02*
X200582249Y-34947620D01*
X221471396Y-123881921D02*
X221555570Y-123831469D01*
X200979196Y-107754665D02*
X201096379Y-107509115D01*
X131582249Y-53947620D02*
X131542015Y-53678533D01*
X173557532Y-39100643D02*
X173302769Y-39196154D01*
X132518636Y-75188633D02*
X132366430Y-74963111D01*
X134094423Y-48330136D02*
X134328920Y-48192158D01*
X101352050Y-115378867D02*
X101352050Y-115378867D01*
X173302769Y-28803845D02*
X173557532Y-28899356D01*
X142074804Y-74120460D02*
X141963730Y-74368834D01*
X176832579Y-51653300D02*
X176892653Y-51918664D01*
X134094423Y-86330136D02*
X134328920Y-86192158D01*
X202039433Y-56816269D02*
X201855550Y-56615734D01*
X97015137Y-90592214D02*
X97042015Y-90321466D01*
X201681809Y-56406352D02*
X201518636Y-56188633D01*
X132681809Y-37406352D02*
X132518636Y-37188633D01*
X131542015Y-33321466D02*
X131582249Y-33052379D01*
X142439531Y-34813325D02*
X142392653Y-35081335D01*
X204069258Y-104850025D02*
X204326306Y-104760844D01*
X99147316Y-48640009D02*
X99367036Y-48479542D01*
X136389024Y-28534040D02*
X136660083Y-28510513D01*
X102704033Y-39496214D02*
X102431975Y-39499579D01*
X204852050Y-96378867D02*
X204587449Y-96315515D01*
X140020194Y-29403433D02*
X140243815Y-29558417D01*
X97015137Y-109592214D02*
X97042015Y-109321466D01*
X132096379Y-107509115D02*
X132225563Y-107269660D01*
X136931975Y-104500420D02*
X137204033Y-104503785D01*
X141558861Y-113076814D02*
X141401123Y-113298502D01*
X97725563Y-74730339D02*
X97596379Y-74490884D01*
X133233007Y-114007464D02*
X133039433Y-113816269D01*
X102975591Y-104520601D02*
X103245986Y-104550825D01*
X97281945Y-108261635D02*
X97374299Y-108005710D01*
X98733007Y-29992535D02*
X98935801Y-29811147D01*
X167355550Y-56615734D02*
X167181809Y-56406352D01*
X132366430Y-107036888D02*
X132518636Y-106811366D01*
X175553748Y-113717139D02*
X175364962Y-113913063D01*
X131635742Y-111214388D02*
X131582249Y-110947620D01*
X103245986Y-66550825D02*
X103514555Y-66594384D01*
X200542015Y-91678533D02*
X200515137Y-91407785D01*
X141840509Y-107388589D02*
X141963730Y-107631165D01*
X103245986Y-104550825D02*
X103514555Y-104594384D01*
X131542015Y-34678533D02*
X131515137Y-34407785D01*
X97374299Y-35994289D02*
X97281945Y-35738364D01*
X210705442Y-50152403D02*
X210840509Y-50388589D01*
X131582249Y-90052379D02*
X131635742Y-89785611D01*
X142332579Y-35346699D02*
X142259455Y-35608767D01*
X203569954Y-67065946D02*
X203816935Y-66951809D01*
X169569258Y-47850025D02*
X169826306Y-47760844D01*
X166281945Y-35738364D02*
X166202362Y-35478185D01*
X97479196Y-107754665D02*
X97596379Y-107509115D01*
X207280641Y-66651172D02*
X207543594Y-66721049D01*
X99147316Y-76359990D02*
X98935801Y-76188852D01*
X137745986Y-77449174D02*
X137475591Y-77479398D01*
X166596379Y-107509115D02*
X166725563Y-107269660D01*
X208551342Y-76872437D02*
X208307260Y-76992649D01*
X100569258Y-77149974D02*
X100316935Y-77048190D01*
X140243815Y-86558417D02*
X140459499Y-86724270D01*
X173043594Y-39278950D02*
X172780641Y-39348827D01*
X142473097Y-53543325D02*
X142439531Y-53813325D01*
X102704033Y-66503785D02*
X102975591Y-66520601D01*
X132096379Y-88509115D02*
X132225563Y-88269660D01*
X210232614Y-37512117D02*
X210053748Y-37717139D01*
X139057532Y-58100643D02*
X138802769Y-58196154D01*
X134094423Y-114669863D02*
X133867036Y-114520457D01*
X134094423Y-76669863D02*
X133867036Y-76520457D01*
X107759455Y-35608767D02*
X107673460Y-35866898D01*
X142493270Y-53271995D02*
X142473097Y-53543325D01*
X107759455Y-70391232D02*
X107832579Y-70653300D01*
X211332579Y-70653300D02*
X211392653Y-70918664D01*
X138014555Y-115405615D02*
X137745986Y-115449174D01*
X105959499Y-67724270D02*
X106166717Y-67900587D01*
X176058861Y-113076814D02*
X175901123Y-113298502D01*
X142173460Y-92866898D02*
X142074804Y-93120460D01*
X140666717Y-95099412D02*
X140459499Y-95275729D01*
X105743815Y-38441582D02*
X105520194Y-38596566D01*
X131702362Y-111478185D02*
X131635742Y-111214388D01*
X75076120Y-123382683D02*
X75118078Y-123471396D01*
X97281945Y-73738364D02*
X97202362Y-73478185D01*
X206475591Y-39479398D02*
X206204033Y-39496214D01*
X104043594Y-58278950D02*
X103780641Y-58348827D01*
X100826306Y-66760844D02*
X101087449Y-66684484D01*
X166479196Y-50754665D02*
X166596379Y-50509115D01*
X174051342Y-105127562D02*
X174289181Y-105259697D01*
X137745986Y-96449174D02*
X137475591Y-96479398D01*
X134569954Y-114934053D02*
X134328920Y-114807841D01*
X104807260Y-86007350D02*
X105051342Y-86127562D01*
X97082249Y-109052379D02*
X97135742Y-108785611D01*
X167355550Y-106384265D02*
X167539433Y-106183730D01*
X204326306Y-115239155D02*
X204069258Y-115149974D01*
X101352050Y-115378867D02*
X101087449Y-115315515D01*
X206475591Y-115479398D02*
X206204033Y-115496214D01*
X171160083Y-66510513D02*
X171431975Y-66500420D01*
X208551342Y-86127562D02*
X208789181Y-86259697D01*
X166001682Y-53136039D02*
X166001682Y-52863960D01*
X221382683Y-123923879D02*
X221471396Y-123881921D01*
X168828920Y-114807841D02*
X168594423Y-114669863D01*
X102160083Y-104510513D02*
X102431975Y-104500420D01*
X171975591Y-66520601D02*
X172245986Y-66550825D01*
X200515137Y-52592214D02*
X200515137Y-52592214D01*
X200515137Y-53407785D02*
X200501682Y-53136039D01*
X107463730Y-31631165D02*
X107574804Y-31879539D01*
X200635742Y-32785611D02*
X200702362Y-32521814D01*
X137475591Y-77479398D02*
X137204033Y-77496214D01*
X166374299Y-89005710D02*
X166479196Y-88754665D01*
X166725563Y-93730339D02*
X166596379Y-93490884D01*
X176463730Y-50631165D02*
X176574804Y-50879539D01*
X211332579Y-35346699D02*
X211259455Y-35608767D01*
X208789181Y-86259697D02*
X209020194Y-86403433D01*
X210558861Y-87923185D02*
X210705442Y-88152403D01*
X97135742Y-108785611D02*
X97202362Y-108521814D01*
X166202362Y-70521814D02*
X166281945Y-70261635D01*
X105959499Y-38275729D02*
X105743815Y-38441582D01*
X132225563Y-50269660D02*
X132366430Y-50036888D01*
X97082249Y-34947620D02*
X97042015Y-34678533D01*
X107832579Y-70653300D02*
X107892653Y-70918664D01*
X101087449Y-47684484D02*
X101352050Y-47621132D01*
X210232614Y-75512117D02*
X210053748Y-75717139D01*
X138280641Y-39348827D02*
X138014555Y-39405615D01*
X203816935Y-85951809D02*
X204069258Y-85850025D01*
X105959499Y-95275729D02*
X105743815Y-95441582D01*
X171431975Y-47500420D02*
X171704033Y-47503785D01*
X204069258Y-47850025D02*
X204326306Y-47760844D01*
X101889024Y-47534040D02*
X102160083Y-47510513D01*
X131635742Y-35214388D02*
X131582249Y-34947620D01*
X211392653Y-51918664D02*
X211439531Y-52186674D01*
X140666717Y-48900587D02*
X140864962Y-49086936D01*
X166374299Y-54994289D02*
X166281945Y-54738364D01*
X131781945Y-111738364D02*
X131702362Y-111478185D01*
X211473097Y-34543325D02*
X211439531Y-34813325D01*
X102431975Y-58499579D02*
X102160083Y-58489486D01*
X173302769Y-66803845D02*
X173557532Y-66899356D01*
X209243815Y-76441582D02*
X209020194Y-76596566D01*
X168367036Y-114520457D02*
X168147316Y-114359990D01*
X142332579Y-108653300D02*
X142392653Y-108918664D01*
X203816935Y-77048190D02*
X203569954Y-76934053D01*
X167539433Y-75816269D02*
X167355550Y-75615734D01*
X171160083Y-58489486D02*
X170889024Y-58465959D01*
X166281945Y-89261635D02*
X166374299Y-89005710D01*
X98355550Y-87384265D02*
X98539433Y-87183730D01*
X201855550Y-37615734D02*
X201681809Y-37406352D01*
X174520194Y-29403433D02*
X174743815Y-29558417D01*
X169569258Y-85850025D02*
X169826306Y-85760844D01*
X133233007Y-48992535D02*
X133435801Y-48811147D01*
X141705442Y-107152403D02*
X141840509Y-107388589D01*
X175732614Y-87487882D02*
X175901123Y-87701497D01*
X103780641Y-85651172D02*
X104043594Y-85721049D01*
X207014555Y-96405615D02*
X206745986Y-96449174D01*
X97015137Y-53407785D02*
X97001682Y-53136039D01*
X176759455Y-108391232D02*
X176832579Y-108653300D01*
X102975591Y-58479398D02*
X102704033Y-58496214D01*
X139057532Y-115100643D02*
X138802769Y-115196154D01*
X200702362Y-111478185D02*
X200635742Y-111214388D01*
X171704033Y-85503785D02*
X171975591Y-85520601D01*
X211259455Y-51391232D02*
X211332579Y-51653300D01*
X104557532Y-85899356D02*
X104807260Y-86007350D01*
X204852050Y-28621132D02*
X205119459Y-28570944D01*
X200635742Y-51785611D02*
X200702362Y-51521814D01*
X167018636Y-68811366D02*
X167181809Y-68593647D01*
X166725563Y-50269660D02*
X166866430Y-50036888D01*
X176892653Y-108918664D02*
X176939531Y-109186674D01*
X97374299Y-108005710D02*
X97479196Y-107754665D01*
X171975591Y-85520601D02*
X172245986Y-85550825D01*
X102975591Y-85520601D02*
X103245986Y-85550825D01*
X176759455Y-32391232D02*
X176832579Y-32653300D01*
X142473097Y-33456674D02*
X142493270Y-33728004D01*
X142473097Y-90456674D02*
X142493270Y-90728004D01*
X133647316Y-57359990D02*
X133435801Y-57188852D01*
X173807260Y-86007350D02*
X174051342Y-86127562D01*
X100569258Y-115149974D02*
X100316935Y-115048190D01*
X101889024Y-85534040D02*
X102160083Y-85510513D01*
X99828920Y-76807841D02*
X99594423Y-76669863D01*
X142493270Y-91271995D02*
X142473097Y-91543325D01*
X133435801Y-38188852D02*
X133233007Y-38007464D01*
X103780641Y-104651172D02*
X104043594Y-104721049D01*
X176340509Y-107388589D02*
X176463730Y-107631165D01*
X101889024Y-77465959D02*
X101619459Y-77429055D01*
X174959499Y-57275729D02*
X174743815Y-57441582D01*
X131781945Y-89261635D02*
X131874299Y-89005710D01*
X107973097Y-34543325D02*
X107939531Y-34813325D01*
X168147316Y-57359990D02*
X167935801Y-57188852D01*
X167935801Y-76188852D02*
X167733007Y-76007464D01*
X211493270Y-52728004D02*
X211500000Y-53000000D01*
X105289181Y-95740302D02*
X105051342Y-95872437D01*
X135852050Y-47621132D02*
X136119459Y-47570944D01*
X176973097Y-90456674D02*
X176993270Y-90728004D01*
X174520194Y-48403433D02*
X174743815Y-48558417D01*
X141963730Y-112368834D02*
X141840509Y-112611410D01*
X201366430Y-36963111D02*
X201225563Y-36730339D01*
X200582249Y-34947620D02*
X200542015Y-34678533D01*
X132366430Y-112963111D02*
X132225563Y-112730339D01*
X107759455Y-51391232D02*
X107832579Y-51653300D01*
X201096379Y-112490884D02*
X200979196Y-112245334D01*
X166082249Y-72947620D02*
X166042015Y-72678533D01*
X206745986Y-66550825D02*
X207014555Y-66594384D01*
X100069954Y-76934053D02*
X99828920Y-76807841D01*
X176892653Y-73081335D02*
X176832579Y-73346699D01*
X173807260Y-29007350D02*
X174051342Y-29127562D01*
X97082249Y-110947620D02*
X97042015Y-110678533D01*
X132681809Y-94406352D02*
X132518636Y-94188633D01*
X137204033Y-115496214D02*
X136931975Y-115499579D01*
X137475591Y-39479398D02*
X137204033Y-39496214D01*
X211473097Y-90456674D02*
X211493270Y-90728004D01*
X142259455Y-89391232D02*
X142332579Y-89653300D01*
X107892653Y-92081335D02*
X107832579Y-92346699D01*
X201681809Y-106593647D02*
X201855550Y-106384265D01*
X201366430Y-74963111D02*
X201225563Y-74730339D01*
X132225563Y-31269660D02*
X132366430Y-31036888D01*
X142392653Y-108918664D02*
X142439531Y-109186674D01*
X204069258Y-66850025D02*
X204326306Y-66760844D01*
X136931975Y-85500420D02*
X137204033Y-85503785D01*
X200582249Y-33052379D02*
X200635742Y-32785611D01*
X209020194Y-105403433D02*
X209243815Y-105558417D01*
X206204033Y-28503785D02*
X206475591Y-28520601D01*
X221923879Y-20617316D02*
X221881921Y-20528603D01*
X133867036Y-48479542D02*
X134094423Y-48330136D01*
X141558861Y-56076814D02*
X141401123Y-56298502D01*
X132518636Y-56188633D02*
X132366430Y-55963111D01*
X204326306Y-66760844D02*
X204587449Y-66684484D01*
X175732614Y-113512117D02*
X175553748Y-113717139D01*
X138543594Y-47721049D02*
X138802769Y-47803845D01*
X210840509Y-107388589D02*
X210963730Y-107631165D01*
X107058861Y-49923185D02*
X107205442Y-50152403D01*
X105289181Y-29259697D02*
X105520194Y-29403433D01*
X166374299Y-70005710D02*
X166479196Y-69754665D01*
X142332579Y-89653300D02*
X142392653Y-89918664D01*
X176832579Y-111346699D02*
X176759455Y-111608767D01*
X174743815Y-114441582D02*
X174520194Y-114596566D01*
X204069258Y-39149974D02*
X203816935Y-39048190D01*
X170889024Y-28534040D02*
X171160083Y-28510513D01*
X210232614Y-49487882D02*
X210401123Y-49701497D01*
X210558861Y-113076814D02*
X210401123Y-113298502D01*
X201855550Y-68384265D02*
X202039433Y-68183730D01*
X131979196Y-93245334D02*
X131874299Y-92994289D01*
X106166717Y-76099412D02*
X105959499Y-76275729D01*
X140459499Y-48724270D02*
X140666717Y-48900587D01*
X206475591Y-66520601D02*
X206745986Y-66550825D01*
X97866430Y-88036888D02*
X98018636Y-87811366D01*
X135069258Y-39149974D02*
X134816935Y-39048190D01*
X166281945Y-54738364D02*
X166202362Y-54478185D01*
X174289181Y-57740302D02*
X174051342Y-57872437D01*
X131781945Y-54738364D02*
X131702362Y-54478185D01*
X209459499Y-86724270D02*
X209666717Y-86900587D01*
X131542015Y-52321466D02*
X131582249Y-52052379D01*
X100069954Y-48065946D02*
X100316935Y-47951809D01*
X131979196Y-74245334D02*
X131874299Y-73994289D01*
X200874299Y-108005710D02*
X200979196Y-107754665D01*
X174051342Y-29127562D02*
X174289181Y-29259697D01*
X98181809Y-113406352D02*
X98018636Y-113188633D01*
X134094423Y-38669863D02*
X133867036Y-38520457D01*
X210401123Y-56298502D02*
X210232614Y-56512117D01*
X107832579Y-51653300D02*
X107892653Y-51918664D01*
X98018636Y-75188633D02*
X97866430Y-74963111D01*
X102975591Y-28520601D02*
X103245986Y-28550825D01*
X75292893Y-123707106D02*
X75365606Y-123773010D01*
X98935801Y-57188852D02*
X98733007Y-57007464D01*
X176939531Y-90186674D02*
X176973097Y-90456674D01*
X211500000Y-110000000D02*
X211493270Y-110271995D01*
X139307260Y-57992649D02*
X139057532Y-58100643D01*
X138014555Y-39405615D02*
X137745986Y-39449174D01*
X132681809Y-75406352D02*
X132518636Y-75188633D01*
X173557532Y-96100643D02*
X173302769Y-96196154D01*
X221995184Y-20901982D02*
X221980785Y-20804909D01*
X172514555Y-104594384D02*
X172780641Y-104651172D01*
X75709715Y-20043059D02*
X75617316Y-20076120D01*
X104043594Y-96278950D02*
X103780641Y-96348827D01*
X167539433Y-30183730D02*
X167733007Y-29992535D01*
X172245986Y-77449174D02*
X171975591Y-77479398D01*
X221290284Y-20043059D02*
X221195090Y-20019214D01*
X141053748Y-75717139D02*
X140864962Y-75913063D01*
X204852050Y-77378867D02*
X204587449Y-77315515D01*
X170889024Y-96465959D02*
X170619459Y-96429055D01*
X107892653Y-111081335D02*
X107832579Y-111346699D01*
X99147316Y-29640009D02*
X99367036Y-29479542D01*
X205119459Y-39429055D02*
X204852050Y-39378867D01*
X200515137Y-72407785D02*
X200501682Y-72136039D01*
X169069954Y-29065946D02*
X169316935Y-28951809D01*
X170352050Y-66621132D02*
X170619459Y-66570944D01*
X142439531Y-71186674D02*
X142473097Y-71456674D01*
X168367036Y-67479542D02*
X168594423Y-67330136D01*
X132225563Y-93730339D02*
X132096379Y-93490884D01*
X174051342Y-76872437D02*
X173807260Y-76992649D01*
X166001682Y-34136039D02*
X166001682Y-33863960D01*
X132518636Y-87811366D02*
X132681809Y-87593647D01*
X166374299Y-32005710D02*
X166479196Y-31754665D01*
X166202362Y-73478185D02*
X166135742Y-73214388D01*
X173043594Y-66721049D02*
X173302769Y-66803845D01*
X166015137Y-72407785D02*
X166001682Y-72136039D01*
X176340509Y-50388589D02*
X176463730Y-50631165D01*
X221098017Y-20004815D02*
X221000000Y-20000000D01*
X210840509Y-55611410D02*
X210705442Y-55847596D01*
X131979196Y-112245334D02*
X131874299Y-111994289D01*
X202867036Y-105479542D02*
X203094423Y-105330136D01*
X133233007Y-67992535D02*
X133435801Y-67811147D01*
X166725563Y-74730339D02*
X166596379Y-74490884D01*
X170352050Y-58378867D02*
X170087449Y-58315515D01*
X103514555Y-96405615D02*
X103245986Y-96449174D01*
X169069954Y-105065946D02*
X169316935Y-104951809D01*
X132855550Y-30384265D02*
X132855550Y-30384265D01*
X103245986Y-77449174D02*
X102975591Y-77479398D01*
X200874299Y-70005710D02*
X200979196Y-69754665D01*
X105959499Y-105724270D02*
X106166717Y-105900587D01*
X204852050Y-85621132D02*
X205119459Y-85570944D01*
X176058861Y-49923185D02*
X176205442Y-50152403D01*
X173557532Y-115100643D02*
X173302769Y-115196154D01*
X140243815Y-105558417D02*
X140459499Y-105724270D01*
X209864962Y-75913063D02*
X209666717Y-76099412D01*
X97001682Y-90863960D02*
X97015137Y-90592214D01*
X210401123Y-68701497D02*
X210558861Y-68923185D01*
X131702362Y-73478185D02*
X131635742Y-73214388D01*
X105520194Y-86403433D02*
X105743815Y-86558417D01*
X136389024Y-104534040D02*
X136660083Y-104510513D01*
X200542015Y-90321466D02*
X200582249Y-90052379D01*
X107973097Y-91543325D02*
X107939531Y-91813325D01*
X131635742Y-89785611D02*
X131702362Y-89521814D01*
X98018636Y-94188633D02*
X97866430Y-93963111D01*
X107058861Y-94076814D02*
X106901123Y-94298502D01*
X210558861Y-106923185D02*
X210705442Y-107152403D01*
X211392653Y-89918664D02*
X211439531Y-90186674D01*
X133867036Y-86479542D02*
X134094423Y-86330136D01*
X211074804Y-31879539D02*
X211173460Y-32133101D01*
X106732614Y-37512117D02*
X106553748Y-37717139D01*
X100316935Y-115048190D02*
X100069954Y-114934053D01*
X131874299Y-108005710D02*
X131979196Y-107754665D01*
X201096379Y-69509115D02*
X201225563Y-69269660D01*
X176973097Y-33456674D02*
X176993270Y-33728004D01*
X133039433Y-87183730D02*
X133233007Y-86992535D01*
X105051342Y-29127562D02*
X105289181Y-29259697D01*
X105959499Y-86724270D02*
X106166717Y-86900587D01*
X175553748Y-56717139D02*
X175364962Y-56913063D01*
X98181809Y-30593647D02*
X98355550Y-30384265D01*
X107340509Y-74611410D02*
X107205442Y-74847596D01*
X166866430Y-93963111D02*
X166725563Y-93730339D01*
X106553748Y-37717139D02*
X106364962Y-37913063D01*
X208307260Y-29007350D02*
X208551342Y-29127562D01*
X131702362Y-89521814D02*
X131781945Y-89261635D01*
X206204033Y-39496214D02*
X205931975Y-39499579D01*
X171160083Y-85510513D02*
X171431975Y-85500420D01*
X140666717Y-67900587D02*
X140864962Y-68086936D01*
X135587449Y-85684484D02*
X135852050Y-85621132D01*
X167018636Y-30811366D02*
X167181809Y-30593647D01*
X205389024Y-39465959D02*
X205119459Y-39429055D01*
X107058861Y-68923185D02*
X107205442Y-69152403D01*
X106553748Y-106282860D02*
X106732614Y-106487882D01*
X166082249Y-109052379D02*
X166135742Y-108785611D01*
X208057532Y-58100643D02*
X207802769Y-58196154D01*
X100069954Y-57934053D02*
X99828920Y-57807841D01*
X171975591Y-47520601D02*
X172245986Y-47550825D01*
X166001682Y-91136039D02*
X166001682Y-90863960D01*
X176340509Y-112611410D02*
X176205442Y-112847596D01*
X209864962Y-68086936D02*
X210053748Y-68282860D01*
X209459499Y-95275729D02*
X209243815Y-95441582D01*
X172780641Y-66651172D02*
X173043594Y-66721049D01*
X200635742Y-92214388D02*
X200582249Y-91947620D01*
X98355550Y-68384265D02*
X98539433Y-68183730D01*
X175166717Y-76099412D02*
X174959499Y-76275729D01*
X175364962Y-106086936D02*
X175553748Y-106282860D01*
X141705442Y-55847596D02*
X141558861Y-56076814D01*
X141840509Y-88388589D02*
X141963730Y-88631165D01*
X101352050Y-58378867D02*
X101087449Y-58315515D01*
X140666717Y-76099412D02*
X140459499Y-76275729D01*
X107832579Y-54346699D02*
X107759455Y-54608767D01*
X168594423Y-67330136D02*
X168828920Y-67192158D01*
X210705442Y-112847596D02*
X210558861Y-113076814D01*
X97001682Y-109863960D02*
X97015137Y-109592214D01*
X97866430Y-50036888D02*
X97866430Y-50036888D01*
X136119459Y-104570944D02*
X136389024Y-104534040D01*
X103780641Y-77348827D02*
X103514555Y-77405615D01*
X166042015Y-90321466D02*
X166082249Y-90052379D01*
X141963730Y-50631165D02*
X142074804Y-50879539D01*
X141401123Y-106701497D02*
X141558861Y-106923185D01*
X170087449Y-85684484D02*
X170352050Y-85621132D01*
X131979196Y-50754665D02*
X132096379Y-50509115D01*
X166135742Y-32785611D02*
X166202362Y-32521814D01*
X106732614Y-113512117D02*
X106553748Y-113717139D01*
X98355550Y-75615734D02*
X98181809Y-75406352D01*
X203328920Y-76807841D02*
X203094423Y-76669863D01*
X201366430Y-93963111D02*
X201225563Y-93730339D01*
X135852050Y-28621132D02*
X136119459Y-28570944D01*
X107058861Y-113076814D02*
X106901123Y-113298502D01*
X135069258Y-96149974D02*
X134816935Y-96048190D01*
X142392653Y-92081335D02*
X142332579Y-92346699D01*
X202435801Y-105811147D02*
X202647316Y-105640009D01*
X210558861Y-75076814D02*
X210401123Y-75298502D01*
X104302769Y-39196154D02*
X104043594Y-39278950D01*
X131501682Y-53136039D02*
X131501682Y-52863960D01*
X210963730Y-36368834D02*
X210840509Y-36611410D01*
X131542015Y-72678533D02*
X131515137Y-72407785D01*
X202867036Y-67479542D02*
X203094423Y-67330136D01*
X134816935Y-115048190D02*
X134569954Y-114934053D01*
X97042015Y-72678533D02*
X97015137Y-72407785D01*
X202233007Y-76007464D02*
X202039433Y-75816269D01*
X200874299Y-35994289D02*
X200781945Y-35738364D01*
X142500000Y-91000000D02*
X142493270Y-91271995D01*
X211074804Y-36120460D02*
X210963730Y-36368834D01*
X75617316Y-20076120D02*
X75528603Y-20118078D01*
X133867036Y-57520457D02*
X133647316Y-57359990D01*
X170889024Y-115465959D02*
X170619459Y-115429055D01*
X176463730Y-112368834D02*
X176340509Y-112611410D01*
X205389024Y-104534040D02*
X205660083Y-104510513D01*
X173807260Y-38992649D02*
X173557532Y-39100643D01*
X207802769Y-66803845D02*
X208057532Y-66899356D01*
X173557532Y-77100643D02*
X173302769Y-77196154D01*
X140020194Y-48403433D02*
X140243815Y-48558417D01*
X131501682Y-110136039D02*
X131501682Y-109863960D01*
X203328920Y-114807841D02*
X203094423Y-114669863D01*
X99367036Y-95520457D02*
X99147316Y-95359990D01*
X133647316Y-48640009D02*
X133867036Y-48479542D01*
X209666717Y-76099412D02*
X209459499Y-76275729D01*
X210840509Y-36611410D02*
X210705442Y-36847596D01*
X134569954Y-38934053D02*
X134328920Y-38807841D01*
X104043594Y-115278950D02*
X103780641Y-115348827D01*
X132518636Y-30811366D02*
X132681809Y-30593647D01*
X107993270Y-33728004D02*
X108000000Y-34000000D01*
X209459499Y-57275729D02*
X209243815Y-57441582D01*
X202233007Y-86992535D02*
X202435801Y-86811147D01*
X200635742Y-108785611D02*
X200702362Y-108521814D01*
X107673460Y-54866898D02*
X107574804Y-55120460D01*
X100316935Y-96048190D02*
X100069954Y-95934053D01*
X75365606Y-123773010D02*
X75444429Y-123831469D01*
X139307260Y-48007350D02*
X139551342Y-48127562D01*
X202647316Y-95359990D02*
X202435801Y-95188852D01*
X175364962Y-56913063D02*
X175166717Y-57099412D01*
X132855550Y-94615734D02*
X132681809Y-94406352D01*
X131515137Y-91407785D02*
X131501682Y-91136039D01*
X134328920Y-105192158D02*
X134569954Y-105065946D01*
X142493270Y-52728004D02*
X142500000Y-53000000D01*
X175732614Y-49487882D02*
X175901123Y-49701497D01*
X134094423Y-67330136D02*
X134328920Y-67192158D01*
X200582249Y-91947620D02*
X200542015Y-91678533D01*
X141705442Y-69152403D02*
X141840509Y-69388589D01*
X107832579Y-89653300D02*
X107892653Y-89918664D01*
X176993270Y-71728004D02*
X177000000Y-72000000D01*
X211173460Y-35866898D02*
X211074804Y-36120460D01*
X103780641Y-96348827D02*
X103514555Y-96405615D01*
X211473097Y-91543325D02*
X211439531Y-91813325D01*
X202233007Y-105992535D02*
X202435801Y-105811147D01*
X97135742Y-54214388D02*
X97082249Y-53947620D01*
X166725563Y-88269660D02*
X166866430Y-88036888D01*
X102704033Y-104503785D02*
X102975591Y-104520601D01*
X134094423Y-105330136D02*
X134328920Y-105192158D01*
X136389024Y-47534040D02*
X136660083Y-47510513D01*
X167733007Y-86992535D02*
X167935801Y-86811147D01*
X171431975Y-115499579D02*
X171160083Y-115489486D01*
X203816935Y-104951809D02*
X204069258Y-104850025D01*
X166866430Y-50036888D02*
X167018636Y-49811366D01*
X140864962Y-94913063D02*
X140666717Y-95099412D01*
X202233007Y-48992535D02*
X202435801Y-48811147D01*
X102431975Y-39499579D02*
X102160083Y-39489486D01*
X106166717Y-114099412D02*
X105959499Y-114275729D01*
X97596379Y-50509115D02*
X97725563Y-50269660D01*
X97281945Y-92738364D02*
X97202362Y-92478185D01*
X101087449Y-28684484D02*
X101352050Y-28621132D01*
X75000000Y-21000000D02*
X75000000Y-123000000D01*
X200874299Y-51005710D02*
X200979196Y-50754665D01*
X170889024Y-85534040D02*
X171160083Y-85510513D01*
X104807260Y-48007350D02*
X105051342Y-48127562D01*
X98733007Y-95007464D02*
X98539433Y-94816269D01*
X99147316Y-57359990D02*
X98935801Y-57188852D01*
X203094423Y-105330136D02*
X203328920Y-105192158D01*
X141963730Y-74368834D02*
X141840509Y-74611410D01*
X174743815Y-29558417D02*
X174959499Y-29724270D01*
X166866430Y-36963111D02*
X166725563Y-36730339D01*
X166015137Y-53407785D02*
X166001682Y-53136039D01*
X137204033Y-28503785D02*
X137475591Y-28520601D01*
X105959499Y-114275729D02*
X105743815Y-114441582D01*
X174289181Y-114740302D02*
X174051342Y-114872437D01*
X98181809Y-37406352D02*
X98018636Y-37188633D01*
X221382683Y-20076120D02*
X221290284Y-20043059D01*
X209666717Y-67900587D02*
X209864962Y-68086936D01*
X103514555Y-47594384D02*
X103780641Y-47651172D01*
X98935801Y-76188852D02*
X98733007Y-76007464D01*
X140864962Y-37913063D02*
X140666717Y-38099412D01*
X100069954Y-38934053D02*
X99828920Y-38807841D01*
X208789181Y-105259697D02*
X209020194Y-105403433D01*
X132518636Y-68811366D02*
X132681809Y-68593647D01*
X131542015Y-53678533D02*
X131515137Y-53407785D01*
X200781945Y-73738364D02*
X200702362Y-73478185D01*
X206745986Y-85550825D02*
X207014555Y-85594384D01*
X200781945Y-54738364D02*
X200702362Y-54478185D01*
X209864962Y-94913063D02*
X209666717Y-95099412D01*
X209020194Y-29403433D02*
X209243815Y-29558417D01*
X176574804Y-93120460D02*
X176463730Y-93368834D01*
X132518636Y-49811366D02*
X132681809Y-49593647D01*
X103245986Y-47550825D02*
X103514555Y-47594384D01*
X98018636Y-68811366D02*
X98181809Y-68593647D01*
X206745986Y-104550825D02*
X207014555Y-104594384D01*
X203328920Y-57807841D02*
X203094423Y-57669863D01*
X139551342Y-29127562D02*
X139789181Y-29259697D01*
X138802769Y-85803845D02*
X139057532Y-85899356D01*
X211439531Y-90186674D02*
X211473097Y-90456674D01*
X209459499Y-67724270D02*
X209666717Y-67900587D01*
X131702362Y-54478185D02*
X131635742Y-54214388D01*
X106553748Y-94717139D02*
X106364962Y-94913063D01*
X97866430Y-107036888D02*
X98018636Y-106811366D01*
X176973097Y-91543325D02*
X176939531Y-91813325D01*
X174520194Y-105403433D02*
X174743815Y-105558417D01*
X133435801Y-57188852D02*
X133233007Y-57007464D01*
X169069954Y-67065946D02*
X169316935Y-66951809D01*
X176892653Y-89918664D02*
X176939531Y-90186674D01*
X106364962Y-68086936D02*
X106553748Y-68282860D01*
X107993270Y-90728004D02*
X108000000Y-91000000D01*
X171160083Y-28510513D02*
X171431975Y-28500420D01*
X209243815Y-29558417D02*
X209459499Y-29724270D01*
X201855550Y-94615734D02*
X201681809Y-94406352D01*
X99367036Y-86479542D02*
X99594423Y-86330136D01*
X209864962Y-87086936D02*
X210053748Y-87282860D01*
X103514555Y-77405615D02*
X103245986Y-77449174D01*
X103780641Y-58348827D02*
X103514555Y-58405615D01*
X107340509Y-31388589D02*
X107463730Y-31631165D01*
X107673460Y-89133101D02*
X107759455Y-89391232D01*
X170352050Y-104621132D02*
X170619459Y-104570944D01*
X170619459Y-39429055D02*
X170352050Y-39378867D01*
X135587449Y-39315515D02*
X135326306Y-39239155D01*
X201855550Y-106384265D02*
X202039433Y-106183730D01*
X167539433Y-87183730D02*
X167733007Y-86992535D01*
X134328920Y-38807841D02*
X134094423Y-38669863D01*
X174520194Y-38596566D02*
X174289181Y-38740302D01*
X207543594Y-96278950D02*
X207280641Y-96348827D01*
X171431975Y-104500420D02*
X171704033Y-104503785D01*
X207014555Y-66594384D02*
X207280641Y-66651172D01*
X200781945Y-111738364D02*
X200702362Y-111478185D01*
X210232614Y-113512117D02*
X210053748Y-113717139D01*
X209243815Y-114441582D02*
X209020194Y-114596566D01*
X137475591Y-58479398D02*
X137204033Y-58496214D01*
X106732614Y-106487882D02*
X106901123Y-106701497D01*
X170889024Y-47534040D02*
X171160083Y-47510513D01*
X135852050Y-96378867D02*
X135587449Y-96315515D01*
X174289181Y-67259697D02*
X174520194Y-67403433D01*
X168828920Y-95807841D02*
X168594423Y-95669863D01*
X98355550Y-56615734D02*
X98181809Y-56406352D01*
X200501682Y-34136039D02*
X200501682Y-33863960D01*
X135069258Y-85850025D02*
X135326306Y-85760844D01*
X97082249Y-71052379D02*
X97135742Y-70785611D01*
X131501682Y-109863960D02*
X131515137Y-109592214D01*
X207802769Y-104803845D02*
X208057532Y-104899356D01*
X105051342Y-86127562D02*
X105289181Y-86259697D01*
X97082249Y-91947620D02*
X97042015Y-91678533D01*
X132225563Y-88269660D02*
X132366430Y-88036888D01*
X204852050Y-58378867D02*
X204587449Y-58315515D01*
X134569954Y-105065946D02*
X134816935Y-104951809D01*
X173043594Y-28721049D02*
X173302769Y-28803845D01*
X105520194Y-29403433D02*
X105743815Y-29558417D01*
X75019214Y-123195090D02*
X75043059Y-123290284D01*
X203328920Y-48192158D02*
X203569954Y-48065946D01*
X206745986Y-28550825D02*
X207014555Y-28594384D01*
X138802769Y-115196154D02*
X138543594Y-115278950D01*
X174051342Y-38872437D02*
X173807260Y-38992649D01*
X138280641Y-104651172D02*
X138543594Y-104721049D01*
X205931975Y-96499579D02*
X205660083Y-96489486D01*
X139057532Y-39100643D02*
X138802769Y-39196154D01*
X104557532Y-66899356D02*
X104807260Y-67007350D01*
X174289181Y-105259697D02*
X174520194Y-105403433D01*
X168367036Y-105479542D02*
X168594423Y-105330136D01*
X204069258Y-115149974D02*
X203816935Y-115048190D01*
X132518636Y-113188633D02*
X132366430Y-112963111D01*
X169069954Y-95934053D02*
X168828920Y-95807841D01*
X106364962Y-30086936D02*
X106553748Y-30282860D01*
X167733007Y-95007464D02*
X167539433Y-94816269D01*
X176832579Y-54346699D02*
X176759455Y-54608767D01*
X171431975Y-85500420D02*
X171704033Y-85503785D01*
X102704033Y-115496214D02*
X102431975Y-115499579D01*
X208551342Y-57872437D02*
X208307260Y-57992649D01*
X107058861Y-87923185D02*
X107205442Y-88152403D01*
X209243815Y-86558417D02*
X209459499Y-86724270D01*
X105959499Y-76275729D02*
X105743815Y-76441582D01*
X142074804Y-107879539D02*
X142173460Y-108133101D01*
X140243815Y-114441582D02*
X140020194Y-114596566D01*
X98181809Y-56406352D02*
X98018636Y-56188633D01*
X211392653Y-92081335D02*
X211332579Y-92346699D01*
X171704033Y-58496214D02*
X171431975Y-58499579D01*
X200702362Y-89521814D02*
X200781945Y-89261635D01*
X101619459Y-77429055D02*
X101352050Y-77378867D01*
X140020194Y-67403433D02*
X140243815Y-67558417D01*
X172780641Y-96348827D02*
X172514555Y-96405615D01*
X97042015Y-34678533D02*
X97015137Y-34407785D01*
X176205442Y-93847596D02*
X176058861Y-94076814D01*
X107463730Y-74368834D02*
X107340509Y-74611410D01*
X166042015Y-33321466D02*
X166082249Y-33052379D01*
X134328920Y-48192158D02*
X134569954Y-48065946D01*
X221634393Y-123773010D02*
X221707106Y-123707106D01*
X200979196Y-93245334D02*
X200874299Y-92994289D01*
X203094423Y-76669863D02*
X202867036Y-76520457D01*
X168367036Y-57520457D02*
X168147316Y-57359990D01*
X176463730Y-31631165D02*
X176574804Y-31879539D01*
X166202362Y-35478185D02*
X166135742Y-35214388D01*
X140020194Y-86403433D02*
X140243815Y-86558417D01*
X166281945Y-51261635D02*
X166374299Y-51005710D01*
X209864962Y-30086936D02*
X210053748Y-30282860D01*
X200979196Y-50754665D02*
X201096379Y-50509115D01*
X207802769Y-39196154D02*
X207543594Y-39278950D01*
X136931975Y-39499579D02*
X136660083Y-39489486D01*
X169826306Y-58239155D02*
X169569258Y-58149974D01*
X138802769Y-28803845D02*
X139057532Y-28899356D01*
X201681809Y-87593647D02*
X201855550Y-87384265D01*
X174051342Y-95872437D02*
X173807260Y-95992649D01*
X202233007Y-29992535D02*
X202435801Y-29811147D01*
X142473097Y-72543325D02*
X142439531Y-72813325D01*
X131542015Y-91678533D02*
X131515137Y-91407785D01*
X102975591Y-39479398D02*
X102704033Y-39496214D01*
X210232614Y-94512117D02*
X210053748Y-94717139D01*
X176973097Y-71456674D02*
X176993270Y-71728004D01*
X176993270Y-109728004D02*
X177000000Y-110000000D01*
X170619459Y-104570944D02*
X170889024Y-104534040D01*
X131515137Y-109592214D02*
X131542015Y-109321466D01*
X209666717Y-105900587D02*
X209864962Y-106086936D01*
X200702362Y-92478185D02*
X200635742Y-92214388D01*
X208057532Y-104899356D02*
X208307260Y-105007350D01*
X107673460Y-92866898D02*
X107574804Y-93120460D01*
X107463730Y-107631165D02*
X107574804Y-107879539D01*
X133435801Y-67811147D02*
X133647316Y-67640009D01*
X132366430Y-31036888D02*
X132518636Y-30811366D01*
X202039433Y-30183730D02*
X202233007Y-29992535D01*
X168828920Y-67192158D02*
X169069954Y-67065946D01*
X170619459Y-47570944D02*
X170889024Y-47534040D01*
X201366430Y-55963111D02*
X201225563Y-55730339D01*
X107892653Y-32918664D02*
X107939531Y-33186674D01*
X131781945Y-92738364D02*
X131702362Y-92478185D01*
X142493270Y-110271995D02*
X142473097Y-110543325D01*
X167181809Y-68593647D02*
X167355550Y-68384265D01*
X131501682Y-91136039D02*
X131501682Y-90863960D01*
X75004815Y-20901982D02*
X75000000Y-21000000D01*
X175166717Y-86900587D02*
X175364962Y-87086936D01*
X172514555Y-66594384D02*
X172780641Y-66651172D01*
X107993270Y-53271995D02*
X107973097Y-53543325D01*
X104302769Y-77196154D02*
X104043594Y-77278950D01*
X98539433Y-49183730D02*
X98733007Y-48992535D01*
X97135742Y-73214388D02*
X97082249Y-72947620D01*
X176574804Y-31879539D02*
X176673460Y-32133101D01*
X142392653Y-35081335D02*
X142332579Y-35346699D01*
X139551342Y-38872437D02*
X139307260Y-38992649D01*
X134328920Y-86192158D02*
X134569954Y-86065946D01*
X210558861Y-30923185D02*
X210705442Y-31152403D01*
X170087449Y-104684484D02*
X170352050Y-104621132D01*
X166082249Y-52052379D02*
X166135742Y-51785611D01*
X167935801Y-67811147D02*
X168147316Y-67640009D01*
X138014555Y-85594384D02*
X138280641Y-85651172D01*
X171704033Y-28503785D02*
X171975591Y-28520601D01*
X168147316Y-76359990D02*
X167935801Y-76188852D01*
X131702362Y-32521814D02*
X131781945Y-32261635D01*
X172514555Y-85594384D02*
X172780641Y-85651172D01*
X200515137Y-33592214D02*
X200542015Y-33321466D01*
X166001682Y-110136039D02*
X166001682Y-109863960D01*
X104043594Y-66721049D02*
X104302769Y-66803845D01*
X106553748Y-75717139D02*
X106364962Y-75913063D01*
X209243815Y-67558417D02*
X209459499Y-67724270D01*
X138280641Y-85651172D02*
X138543594Y-85721049D01*
X137745986Y-66550825D02*
X138014555Y-66594384D01*
X201225563Y-107269660D02*
X201366430Y-107036888D01*
X211473097Y-52456674D02*
X211493270Y-52728004D01*
X166866430Y-74963111D02*
X166725563Y-74730339D01*
X201855550Y-75615734D02*
X201681809Y-75406352D01*
X140020194Y-76596566D02*
X139789181Y-76740302D01*
X105520194Y-48403433D02*
X105743815Y-48558417D01*
X205660083Y-115489486D02*
X205389024Y-115465959D01*
X107973097Y-53543325D02*
X107939531Y-53813325D01*
X131874299Y-111994289D02*
X131781945Y-111738364D01*
X104302769Y-47803845D02*
X104557532Y-47899356D01*
X97866430Y-36963111D02*
X97725563Y-36730339D01*
X211439531Y-53813325D02*
X211392653Y-54081335D01*
X101087449Y-39315515D02*
X100826306Y-39239155D01*
X221195090Y-123980785D02*
X221290284Y-123956940D01*
X202867036Y-114520457D02*
X202647316Y-114359990D01*
X166596379Y-36490884D02*
X166479196Y-36245334D01*
X201681809Y-113406352D02*
X201518636Y-113188633D01*
X140459499Y-57275729D02*
X140243815Y-57441582D01*
X205119459Y-85570944D02*
X205389024Y-85534040D01*
X167018636Y-37188633D02*
X166866430Y-36963111D01*
X166479196Y-36245334D02*
X166374299Y-35994289D01*
X98539433Y-94816269D02*
X98355550Y-94615734D01*
X172780641Y-85651172D02*
X173043594Y-85721049D01*
X169069954Y-95934053D02*
X169069954Y-95934053D01*
X133039433Y-68183730D02*
X133233007Y-67992535D01*
X211332579Y-111346699D02*
X211259455Y-111608767D01*
X208307260Y-57992649D02*
X208057532Y-58100643D01*
X168147316Y-95359990D02*
X167935801Y-95188852D01*
X169826306Y-77239155D02*
X169569258Y-77149974D01*
X203328920Y-29192158D02*
X203569954Y-29065946D01*
X166725563Y-31269660D02*
X166725563Y-31269660D01*
X204326306Y-96239155D02*
X204326306Y-96239155D01*
X142392653Y-54081335D02*
X142332579Y-54346699D01*
X139307260Y-105007350D02*
X139551342Y-105127562D01*
X138014555Y-58405615D02*
X137745986Y-58449174D01*
X200582249Y-52052379D02*
X200635742Y-51785611D01*
X172514555Y-115405615D02*
X172245986Y-115449174D01*
X204069258Y-96149974D02*
X203816935Y-96048190D01*
X221707106Y-123707106D02*
X221773010Y-123634393D01*
X131781945Y-35738364D02*
X131702362Y-35478185D01*
X170352050Y-115378867D02*
X170087449Y-115315515D01*
X166082249Y-53947620D02*
X166042015Y-53678533D01*
X140243815Y-76441582D02*
X140020194Y-76596566D01*
X176463730Y-88631165D02*
X176574804Y-88879539D01*
X209666717Y-38099412D02*
X209459499Y-38275729D01*
X97082249Y-90052379D02*
X97135742Y-89785611D01*
X204326306Y-47760844D02*
X204587449Y-47684484D01*
X176340509Y-93611410D02*
X176205442Y-93847596D01*
X169316935Y-96048190D02*
X169069954Y-95934053D01*
X175901123Y-68701497D02*
X176058861Y-68923185D01*
X107574804Y-74120460D02*
X107463730Y-74368834D01*
X133233007Y-86992535D02*
X133435801Y-86811147D01*
X202435801Y-29811147D02*
X202647316Y-29640009D01*
X107973097Y-71456674D02*
X107993270Y-71728004D01*
X166374299Y-92994289D02*
X166281945Y-92738364D01*
X142074804Y-55120460D02*
X141963730Y-55368834D01*
X107759455Y-54608767D02*
X107673460Y-54866898D01*
X98539433Y-87183730D02*
X98733007Y-86992535D01*
X107673460Y-51133101D02*
X107759455Y-51391232D01*
X166202362Y-54478185D02*
X166135742Y-54214388D01*
X176205442Y-55847596D02*
X176058861Y-56076814D01*
X97202362Y-51521814D02*
X97281945Y-51261635D01*
X171975591Y-115479398D02*
X171704033Y-115496214D01*
X174743815Y-86558417D02*
X174959499Y-86724270D01*
X201096379Y-55490884D02*
X200979196Y-55245334D01*
X209459499Y-114275729D02*
X209243815Y-114441582D01*
X170889024Y-66534040D02*
X171160083Y-66510513D01*
X105289181Y-105259697D02*
X105520194Y-105403433D01*
X171704033Y-66503785D02*
X171975591Y-66520601D01*
X131501682Y-71863960D02*
X131515137Y-71592214D01*
X97479196Y-93245334D02*
X97374299Y-92994289D01*
X97001682Y-33863960D02*
X97015137Y-33592214D01*
X176058861Y-30923185D02*
X176205442Y-31152403D01*
X107463730Y-55368834D02*
X107340509Y-55611410D01*
X136660083Y-28510513D02*
X136931975Y-28500420D01*
X176463730Y-107631165D02*
X176574804Y-107879539D01*
X75617316Y-123923879D02*
X75709715Y-123956940D01*
X201366430Y-31036888D02*
X201518636Y-30811366D01*
X202435801Y-76188852D02*
X202233007Y-76007464D01*
X138802769Y-96196154D02*
X138543594Y-96278950D01*
X202039433Y-106183730D02*
X202233007Y-105992535D01*
X138280641Y-96348827D02*
X138014555Y-96405615D01*
X97001682Y-52863960D02*
X97015137Y-52592214D01*
X175166717Y-29900587D02*
X175364962Y-30086936D01*
X203094423Y-86330136D02*
X203328920Y-86192158D01*
X107939531Y-109186674D02*
X107973097Y-109456674D01*
X133647316Y-95359990D02*
X133435801Y-95188852D01*
X169316935Y-104951809D02*
X169569258Y-104850025D01*
X211259455Y-92608767D02*
X211173460Y-92866898D01*
X100069954Y-114934053D02*
X99828920Y-114807841D01*
X210401123Y-30701497D02*
X210558861Y-30923185D01*
X201225563Y-36730339D02*
X201096379Y-36490884D01*
X210401123Y-87701497D02*
X210558861Y-87923185D01*
X76000000Y-20000000D02*
X75901982Y-20004815D01*
X170619459Y-58429055D02*
X170352050Y-58378867D01*
X210705442Y-55847596D02*
X210558861Y-56076814D01*
X139307260Y-114992649D02*
X139057532Y-115100643D01*
X106364962Y-106086936D02*
X106553748Y-106282860D01*
X200702362Y-54478185D02*
X200635742Y-54214388D01*
X176340509Y-74611410D02*
X176205442Y-74847596D01*
X98018636Y-49811366D02*
X98181809Y-49593647D01*
X75043059Y-123290284D02*
X75076120Y-123382683D01*
X107058861Y-37076814D02*
X106901123Y-37298502D01*
X133233007Y-95007464D02*
X133039433Y-94816269D01*
X201366430Y-74963111D02*
X201366430Y-74963111D01*
X102160083Y-47510513D02*
X102431975Y-47500420D01*
X167355550Y-94615734D02*
X167181809Y-94406352D01*
X141053748Y-113717139D02*
X140864962Y-113913063D01*
X205119459Y-96429055D02*
X204852050Y-96378867D01*
X107205442Y-50152403D02*
X107340509Y-50388589D01*
X170619459Y-77429055D02*
X170352050Y-77378867D01*
X168594423Y-86330136D02*
X168828920Y-86192158D01*
X137475591Y-66520601D02*
X137745986Y-66550825D01*
X100826306Y-58239155D02*
X100569258Y-58149974D01*
X202435801Y-95188852D02*
X202233007Y-95007464D01*
X97082249Y-53947620D02*
X97042015Y-53678533D01*
X99367036Y-114520457D02*
X99147316Y-114359990D01*
X200542015Y-33321466D02*
X200582249Y-33052379D01*
X105051342Y-95872437D02*
X104807260Y-95992649D01*
X138543594Y-39278950D02*
X138280641Y-39348827D01*
X101619459Y-58429055D02*
X101352050Y-58378867D01*
X211473097Y-109456674D02*
X211493270Y-109728004D01*
X205660083Y-28510513D02*
X205931975Y-28500420D01*
X176463730Y-69631165D02*
X176574804Y-69879539D01*
X107973097Y-72543325D02*
X107939531Y-72813325D01*
X98733007Y-67992535D02*
X98935801Y-67811147D01*
X136660083Y-66510513D02*
X136931975Y-66500420D01*
X107939531Y-33186674D02*
X107973097Y-33456674D01*
X141232614Y-56512117D02*
X141053748Y-56717139D01*
X97015137Y-71592214D02*
X97042015Y-71321466D01*
X134569954Y-76934053D02*
X134328920Y-76807841D01*
X167733007Y-114007464D02*
X167539433Y-113816269D01*
X139057532Y-85899356D02*
X139307260Y-86007350D01*
X167355550Y-30384265D02*
X167539433Y-30183730D01*
X211439531Y-72813325D02*
X211392653Y-73081335D01*
X204587449Y-66684484D02*
X204852050Y-66621132D01*
X176832579Y-108653300D02*
X176892653Y-108918664D01*
X221995184Y-123098017D02*
X222000000Y-123000000D01*
X207543594Y-39278950D02*
X207280641Y-39348827D01*
X107993270Y-72271995D02*
X107973097Y-72543325D01*
X97202362Y-35478185D02*
X97135742Y-35214388D01*
X168594423Y-76669863D02*
X168367036Y-76520457D01*
X173807260Y-57992649D02*
X173557532Y-58100643D01*
X131979196Y-36245334D02*
X131874299Y-35994289D01*
X136660083Y-47510513D02*
X136931975Y-47500420D01*
X173557532Y-104899356D02*
X173807260Y-105007350D01*
X97015137Y-52592214D02*
X97042015Y-52321466D01*
X132518636Y-37188633D02*
X132366430Y-36963111D01*
X166202362Y-111478185D02*
X166135742Y-111214388D01*
X175553748Y-75717139D02*
X175364962Y-75913063D01*
X166479196Y-55245334D02*
X166374299Y-54994289D01*
X107759455Y-111608767D02*
X107673460Y-111866898D01*
X107939531Y-110813325D02*
X107892653Y-111081335D01*
X207802769Y-96196154D02*
X207543594Y-96278950D01*
X134816935Y-47951809D02*
X135069258Y-47850025D01*
X75168530Y-123555570D02*
X75226989Y-123634393D01*
X210705442Y-31152403D02*
X210840509Y-31388589D01*
X203328920Y-67192158D02*
X203569954Y-67065946D01*
X140020194Y-105403433D02*
X140243815Y-105558417D01*
X142493270Y-72271995D02*
X142473097Y-72543325D01*
X132366430Y-55963111D02*
X132225563Y-55730339D01*
X207014555Y-28594384D02*
X207280641Y-28651172D01*
X136389024Y-115465959D02*
X136119459Y-115429055D01*
X209459499Y-76275729D02*
X209243815Y-76441582D01*
X170087449Y-66684484D02*
X170352050Y-66621132D01*
X166596379Y-55490884D02*
X166479196Y-55245334D01*
X207543594Y-47721049D02*
X207802769Y-47803845D01*
X176058861Y-87923185D02*
X176205442Y-88152403D01*
X137475591Y-104520601D02*
X137745986Y-104550825D01*
X206475591Y-28520601D02*
X206745986Y-28550825D01*
X137745986Y-115449174D02*
X137475591Y-115479398D01*
X135852050Y-66621132D02*
X136119459Y-66570944D01*
X166015137Y-109592214D02*
X166042015Y-109321466D01*
X201225563Y-88269660D02*
X201366430Y-88036888D01*
X208307260Y-38992649D02*
X208057532Y-39100643D01*
X139789181Y-76740302D02*
X139551342Y-76872437D01*
X98733007Y-48992535D02*
X98935801Y-48811147D01*
X139057532Y-66899356D02*
X139307260Y-67007350D01*
X105959499Y-48724270D02*
X106166717Y-48900587D01*
X104302769Y-28803845D02*
X104557532Y-28899356D01*
X97374299Y-70005710D02*
X97479196Y-69754665D01*
X168828920Y-38807841D02*
X168594423Y-38669863D01*
X141705442Y-50152403D02*
X141840509Y-50388589D01*
X211332579Y-108653300D02*
X211392653Y-108918664D01*
X99594423Y-76669863D02*
X99367036Y-76520457D01*
X132518636Y-106811366D02*
X132681809Y-106593647D01*
X134328920Y-57807841D02*
X134094423Y-57669863D01*
X135587449Y-115315515D02*
X135326306Y-115239155D01*
X98935801Y-29811147D02*
X99147316Y-29640009D01*
X211259455Y-70391232D02*
X211332579Y-70653300D01*
X97374299Y-73994289D02*
X97281945Y-73738364D01*
X200501682Y-110136039D02*
X200501682Y-109863960D01*
X168147316Y-67640009D02*
X168367036Y-67479542D01*
X140243815Y-38441582D02*
X140020194Y-38596566D01*
X97479196Y-112245334D02*
X97374299Y-111994289D01*
X210963730Y-50631165D02*
X211074804Y-50879539D01*
X105289181Y-114740302D02*
X105051342Y-114872437D01*
X167181809Y-106593647D02*
X167355550Y-106384265D01*
X107340509Y-50388589D02*
X107463730Y-50631165D01*
X141705442Y-31152403D02*
X141840509Y-31388589D01*
X210558861Y-56076814D02*
X210401123Y-56298502D01*
X139307260Y-95992649D02*
X139057532Y-96100643D01*
X211074804Y-74120460D02*
X210963730Y-74368834D01*
X142074804Y-88879539D02*
X142173460Y-89133101D01*
X100826306Y-115239155D02*
X100569258Y-115149974D01*
X132855550Y-30384265D02*
X133039433Y-30183730D01*
X138280641Y-47651172D02*
X138543594Y-47721049D01*
X201225563Y-74730339D02*
X201096379Y-74490884D01*
X174959499Y-38275729D02*
X174743815Y-38441582D01*
X200582249Y-110947620D02*
X200542015Y-110678533D01*
X98539433Y-37816269D02*
X98355550Y-37615734D01*
X207543594Y-28721049D02*
X207802769Y-28803845D01*
X135587449Y-96315515D02*
X135326306Y-96239155D01*
X167355550Y-75615734D02*
X167181809Y-75406352D01*
X200501682Y-72136039D02*
X200501682Y-71863960D01*
X98935801Y-114188852D02*
X98733007Y-114007464D01*
X101352050Y-85621132D02*
X101619459Y-85570944D01*
X209864962Y-113913063D02*
X209666717Y-114099412D01*
X167733007Y-29992535D02*
X167935801Y-29811147D01*
X98935801Y-105811147D02*
X99147316Y-105640009D01*
X134816935Y-77048190D02*
X134569954Y-76934053D01*
X97866430Y-93963111D02*
X97725563Y-93730339D01*
X142173460Y-89133101D02*
X142259455Y-89391232D01*
X101087449Y-77315515D02*
X100826306Y-77239155D01*
X172780641Y-28651172D02*
X173043594Y-28721049D01*
X99147316Y-114359990D02*
X98935801Y-114188852D01*
X168594423Y-38669863D02*
X168367036Y-38520457D01*
X207802769Y-28803845D02*
X208057532Y-28899356D01*
X137204033Y-39496214D02*
X136931975Y-39499579D01*
X139789181Y-48259697D02*
X140020194Y-48403433D01*
X135852050Y-115378867D02*
X135587449Y-115315515D01*
X134816935Y-96048190D02*
X134569954Y-95934053D01*
X169569258Y-96149974D02*
X169316935Y-96048190D01*
X167018636Y-75188633D02*
X166866430Y-74963111D01*
X166135742Y-89785611D02*
X166202362Y-89521814D01*
X210840509Y-93611410D02*
X210705442Y-93847596D01*
X203816935Y-28951809D02*
X204069258Y-28850025D01*
X202039433Y-49183730D02*
X202233007Y-48992535D01*
X137204033Y-66503785D02*
X137475591Y-66520601D01*
X175166717Y-95099412D02*
X174959499Y-95275729D01*
X99828920Y-57807841D02*
X99594423Y-57669863D01*
X175166717Y-48900587D02*
X175364962Y-49086936D01*
X174959499Y-48724270D02*
X175166717Y-48900587D01*
X176939531Y-71186674D02*
X176973097Y-71456674D01*
X131979196Y-69754665D02*
X132096379Y-69509115D01*
X102704033Y-58496214D02*
X102431975Y-58499579D01*
X175364962Y-37913063D02*
X175166717Y-38099412D01*
X105520194Y-67403433D02*
X105743815Y-67558417D01*
X136389024Y-58465959D02*
X136119459Y-58429055D01*
X166042015Y-72678533D02*
X166015137Y-72407785D01*
X141840509Y-36611410D02*
X141705442Y-36847596D01*
X201518636Y-106811366D02*
X201681809Y-106593647D01*
X168147316Y-29640009D02*
X168367036Y-29479542D01*
X141705442Y-74847596D02*
X141558861Y-75076814D01*
X107759455Y-108391232D02*
X107832579Y-108653300D01*
X207543594Y-85721049D02*
X207802769Y-85803845D01*
X107205442Y-74847596D02*
X107058861Y-75076814D01*
X175553748Y-94717139D02*
X175364962Y-94913063D01*
X133039433Y-37816269D02*
X132855550Y-37615734D01*
X170087449Y-47684484D02*
X170352050Y-47621132D01*
X172245986Y-39449174D02*
X171975591Y-39479398D01*
X205931975Y-115499579D02*
X205660083Y-115489486D01*
X136389024Y-85534040D02*
X136660083Y-85510513D01*
X131582249Y-33052379D02*
X131635742Y-32785611D01*
X210053748Y-37717139D02*
X209864962Y-37913063D01*
X97135742Y-35214388D02*
X97082249Y-34947620D01*
X142473097Y-52456674D02*
X142493270Y-52728004D01*
X211493270Y-90728004D02*
X211500000Y-91000000D01*
X107892653Y-54081335D02*
X107832579Y-54346699D01*
X167539433Y-106183730D02*
X167733007Y-105992535D01*
X76000000Y-124000000D02*
X221000000Y-124000000D01*
X97374299Y-32005710D02*
X97479196Y-31754665D01*
X174743815Y-95441582D02*
X174520194Y-95596566D01*
X75528603Y-20118078D02*
X75444429Y-20168530D01*
X172514555Y-39405615D02*
X172245986Y-39449174D01*
X209459499Y-38275729D02*
X209243815Y-38441582D01*
X207014555Y-104594384D02*
X207280641Y-104651172D01*
X102975591Y-47520601D02*
X103245986Y-47550825D01*
X209243815Y-57441582D02*
X209020194Y-57596566D01*
X205119459Y-47570944D02*
X205389024Y-47534040D01*
X176673460Y-89133101D02*
X176759455Y-89391232D01*
X209666717Y-29900587D02*
X209864962Y-30086936D01*
X207802769Y-47803845D02*
X208057532Y-47899356D01*
X131515137Y-71592214D02*
X131542015Y-71321466D01*
X211473097Y-72543325D02*
X211439531Y-72813325D01*
X173302769Y-104803845D02*
X173557532Y-104899356D01*
M02*
