G04 #@! TF.GenerationSoftware,KiCad,Pcbnew,6.0.7-f9a2dced07~116~ubuntu22.04.1*
G04 #@! TF.CreationDate,2022-11-25T08:58:14-05:00*
G04 #@! TF.ProjectId,PresTag-v3,50726573-5461-4672-9d76-332e6b696361,rev?*
G04 #@! TF.SameCoordinates,Original*
G04 #@! TF.FileFunction,Legend,Bot*
G04 #@! TF.FilePolarity,Positive*
%FSLAX46Y46*%
G04 Gerber Fmt 4.6, Leading zero omitted, Abs format (unit mm)*
G04 Created by KiCad (PCBNEW 6.0.7-f9a2dced07~116~ubuntu22.04.1) date 2022-11-25 08:58:14*
%MOMM*%
%LPD*%
G01*
G04 APERTURE LIST*
%ADD10C,0.125000*%
%ADD11C,0.120000*%
G04 APERTURE END LIST*
D10*
X154818428Y-106796714D02*
X154218428Y-106796714D01*
X154218428Y-107025285D01*
X154247000Y-107082428D01*
X154275571Y-107111000D01*
X154332714Y-107139571D01*
X154418428Y-107139571D01*
X154475571Y-107111000D01*
X154504142Y-107082428D01*
X154532714Y-107025285D01*
X154532714Y-106796714D01*
X154818428Y-107396714D02*
X154418428Y-107396714D01*
X154532714Y-107396714D02*
X154475571Y-107425285D01*
X154447000Y-107453857D01*
X154418428Y-107511000D01*
X154418428Y-107568142D01*
X154789857Y-107996714D02*
X154818428Y-107939571D01*
X154818428Y-107825285D01*
X154789857Y-107768142D01*
X154732714Y-107739571D01*
X154504142Y-107739571D01*
X154447000Y-107768142D01*
X154418428Y-107825285D01*
X154418428Y-107939571D01*
X154447000Y-107996714D01*
X154504142Y-108025285D01*
X154561285Y-108025285D01*
X154618428Y-107739571D01*
X154789857Y-108253857D02*
X154818428Y-108311000D01*
X154818428Y-108425285D01*
X154789857Y-108482428D01*
X154732714Y-108511000D01*
X154704142Y-108511000D01*
X154647000Y-108482428D01*
X154618428Y-108425285D01*
X154618428Y-108339571D01*
X154589857Y-108282428D01*
X154532714Y-108253857D01*
X154504142Y-108253857D01*
X154447000Y-108282428D01*
X154418428Y-108339571D01*
X154418428Y-108425285D01*
X154447000Y-108482428D01*
X154218428Y-108682428D02*
X154218428Y-109025285D01*
X154818428Y-108853857D02*
X154218428Y-108853857D01*
X154818428Y-109482428D02*
X154504142Y-109482428D01*
X154447000Y-109453857D01*
X154418428Y-109396714D01*
X154418428Y-109282428D01*
X154447000Y-109225285D01*
X154789857Y-109482428D02*
X154818428Y-109425285D01*
X154818428Y-109282428D01*
X154789857Y-109225285D01*
X154732714Y-109196714D01*
X154675571Y-109196714D01*
X154618428Y-109225285D01*
X154589857Y-109282428D01*
X154589857Y-109425285D01*
X154561285Y-109482428D01*
X154418428Y-110025285D02*
X154904142Y-110025285D01*
X154961285Y-109996714D01*
X154989857Y-109968142D01*
X155018428Y-109911000D01*
X155018428Y-109825285D01*
X154989857Y-109768142D01*
X154789857Y-110025285D02*
X154818428Y-109968142D01*
X154818428Y-109853857D01*
X154789857Y-109796714D01*
X154761285Y-109768142D01*
X154704142Y-109739571D01*
X154532714Y-109739571D01*
X154475571Y-109768142D01*
X154447000Y-109796714D01*
X154418428Y-109853857D01*
X154418428Y-109968142D01*
X154447000Y-110025285D01*
X155384428Y-107982428D02*
X155784428Y-108125285D01*
X155384428Y-108268142D01*
X155184428Y-108439571D02*
X155184428Y-108811000D01*
X155413000Y-108611000D01*
X155413000Y-108696714D01*
X155441571Y-108753857D01*
X155470142Y-108782428D01*
X155527285Y-108811000D01*
X155670142Y-108811000D01*
X155727285Y-108782428D01*
X155755857Y-108753857D01*
X155784428Y-108696714D01*
X155784428Y-108525285D01*
X155755857Y-108468142D01*
X155727285Y-108439571D01*
D11*
X147705000Y-105801000D02*
X147705000Y-106276000D01*
X147230000Y-111021000D02*
X147705000Y-111021000D01*
X142960000Y-105801000D02*
X142485000Y-105801000D01*
X147230000Y-105801000D02*
X147705000Y-105801000D01*
X142960000Y-111021000D02*
X142485000Y-111021000D01*
X142485000Y-105801000D02*
X142485000Y-106276000D01*
X147705000Y-111021000D02*
X147705000Y-110546000D01*
M02*
