%TF.GenerationSoftware,KiCad,Pcbnew,9.0.7*%
%TF.CreationDate,2026-03-30T17:51:38-04:00*%
%TF.ProjectId,IMUTagBreakout,494d5554-6167-4427-9265-616b6f75742e,rev?*%
%TF.SameCoordinates,Original*%
%TF.FileFunction,Soldermask,Top*%
%TF.FilePolarity,Negative*%
%FSLAX46Y46*%
G04 Gerber Fmt 4.6, Leading zero omitted, Abs format (unit mm)*
G04 Created by KiCad (PCBNEW 9.0.7) date 2026-03-30 17:51:38*
%MOMM*%
%LPD*%
G01*
G04 APERTURE LIST*
G04 Aperture macros list*
%AMRoundRect*
0 Rectangle with rounded corners*
0 $1 Rounding radius*
0 $2 $3 $4 $5 $6 $7 $8 $9 X,Y pos of 4 corners*
0 Add a 4 corners polygon primitive as box body*
4,1,4,$2,$3,$4,$5,$6,$7,$8,$9,$2,$3,0*
0 Add four circle primitives for the rounded corners*
1,1,$1+$1,$2,$3*
1,1,$1+$1,$4,$5*
1,1,$1+$1,$6,$7*
1,1,$1+$1,$8,$9*
0 Add four rect primitives between the rounded corners*
20,1,$1+$1,$2,$3,$4,$5,0*
20,1,$1+$1,$4,$5,$6,$7,0*
20,1,$1+$1,$6,$7,$8,$9,0*
20,1,$1+$1,$8,$9,$2,$3,0*%
%AMFreePoly0*
4,1,6,0.180000,0.075000,0.000000,-0.105000,-0.180000,-0.105000,-0.180000,0.105000,0.180000,0.105000,0.180000,0.075000,0.180000,0.075000,$1*%
%AMFreePoly1*
4,1,6,0.180000,-0.075000,0.180000,-0.105000,-0.180000,-0.105000,-0.180000,0.105000,0.000000,0.105000,0.180000,-0.075000,0.180000,-0.075000,$1*%
%AMFreePoly2*
4,1,6,0.180000,-0.105000,0.000000,-0.105000,-0.180000,0.075000,-0.180000,0.105000,0.180000,0.105000,0.180000,-0.105000,0.180000,-0.105000,$1*%
%AMFreePoly3*
4,1,6,0.180000,-0.105000,-0.180000,-0.105000,-0.180000,-0.075000,0.000000,0.105000,0.180000,0.105000,0.180000,-0.105000,0.180000,-0.105000,$1*%
G04 Aperture macros list end*
%ADD10RoundRect,0.200000X0.200000X0.275000X-0.200000X0.275000X-0.200000X-0.275000X0.200000X-0.275000X0*%
%ADD11RoundRect,0.200000X-0.200000X-0.275000X0.200000X-0.275000X0.200000X0.275000X-0.200000X0.275000X0*%
%ADD12RoundRect,0.218750X0.218750X0.256250X-0.218750X0.256250X-0.218750X-0.256250X0.218750X-0.256250X0*%
%ADD13RoundRect,0.218750X-0.218750X-0.256250X0.218750X-0.256250X0.218750X0.256250X-0.218750X0.256250X0*%
%ADD14RoundRect,0.150000X0.800000X0.150000X-0.800000X0.150000X-0.800000X-0.150000X0.800000X-0.150000X0*%
%ADD15RoundRect,0.225000X-0.225000X-0.250000X0.225000X-0.250000X0.225000X0.250000X-0.225000X0.250000X0*%
%ADD16RoundRect,0.225000X-0.250000X0.225000X-0.250000X-0.225000X0.250000X-0.225000X0.250000X0.225000X0*%
%ADD17RoundRect,0.225000X0.250000X-0.225000X0.250000X0.225000X-0.250000X0.225000X-0.250000X-0.225000X0*%
%ADD18C,0.228600*%
%ADD19RoundRect,0.087500X0.087500X-0.125000X0.087500X0.125000X-0.087500X0.125000X-0.087500X-0.125000X0*%
%ADD20RoundRect,0.087500X0.125000X-0.087500X0.125000X0.087500X-0.125000X0.087500X-0.125000X-0.087500X0*%
%ADD21FreePoly0,90.000000*%
%ADD22FreePoly1,90.000000*%
%ADD23FreePoly2,90.000000*%
%ADD24FreePoly3,90.000000*%
%ADD25RoundRect,0.120000X0.169706X0.000000X0.000000X0.169706X-0.169706X0.000000X0.000000X-0.169706X0*%
%ADD26RoundRect,0.225000X0.225000X0.250000X-0.225000X0.250000X-0.225000X-0.250000X0.225000X-0.250000X0*%
%ADD27RoundRect,0.087500X-0.225000X-0.087500X0.225000X-0.087500X0.225000X0.087500X-0.225000X0.087500X0*%
%ADD28RoundRect,0.087500X-0.087500X-0.225000X0.087500X-0.225000X0.087500X0.225000X-0.087500X0.225000X0*%
%ADD29R,1.700000X1.700000*%
%ADD30O,1.700000X1.700000*%
G04 APERTURE END LIST*
D10*
%TO.C,R2*%
X140626600Y-102844600D03*
X138976600Y-102844600D03*
%TD*%
D11*
%TO.C,R1*%
X117247400Y-89992200D03*
X118897400Y-89992200D03*
%TD*%
D12*
%TO.C,D2*%
X140563700Y-104698800D03*
X138988700Y-104698800D03*
%TD*%
D13*
%TO.C,D1*%
X117322500Y-91719400D03*
X118897500Y-91719400D03*
%TD*%
D14*
%TO.C,U2*%
X132050000Y-80985000D03*
X132050000Y-79715000D03*
X132050000Y-78445000D03*
X132050000Y-77175000D03*
X125050000Y-77175000D03*
X125050000Y-78445000D03*
X125050000Y-79715000D03*
X125050000Y-80985000D03*
%TD*%
D15*
%TO.C,C4*%
X132892800Y-96469200D03*
X134442800Y-96469200D03*
%TD*%
D16*
%TO.C,C10*%
X122682000Y-81050800D03*
X122682000Y-82600800D03*
%TD*%
D17*
%TO.C,C3*%
X132943600Y-92760800D03*
X132943600Y-91210800D03*
%TD*%
D18*
%TO.C,U3*%
X129479600Y-96993000D03*
X129079600Y-96993000D03*
X128679600Y-96993000D03*
X128279600Y-96993000D03*
X129479600Y-96593000D03*
X128279600Y-96593000D03*
X129479600Y-96193000D03*
X128279600Y-96193000D03*
X129479600Y-95793000D03*
X129079600Y-95793000D03*
X128279600Y-95793000D03*
%TD*%
D16*
%TO.C,C9*%
X128219200Y-102767800D03*
X128219200Y-104317800D03*
%TD*%
D17*
%TO.C,C2*%
X124917200Y-88811400D03*
X124917200Y-87261400D03*
%TD*%
D19*
%TO.C,U5*%
X128629600Y-88849700D03*
X129129600Y-88849700D03*
D20*
X129642100Y-88587200D03*
X129642100Y-88087200D03*
X129642100Y-87587200D03*
D19*
X129129600Y-87324700D03*
X128629600Y-87324700D03*
D20*
X128117100Y-87587200D03*
X128117100Y-88087200D03*
X128117100Y-88587200D03*
%TD*%
D21*
%TO.C,U1*%
X132623600Y-94965043D03*
D22*
X133273600Y-94965043D03*
D23*
X132623600Y-94105043D03*
D24*
X133273600Y-94105043D03*
D25*
X132948600Y-94535043D03*
%TD*%
D17*
%TO.C,C8*%
X131013200Y-97066400D03*
X131013200Y-95516400D03*
%TD*%
D26*
%TO.C,C6*%
X126784400Y-95986600D03*
X125234400Y-95986600D03*
%TD*%
D27*
%TO.C,U4*%
X127717100Y-99453000D03*
X127717100Y-99953000D03*
X127717100Y-100453000D03*
X127717100Y-100953000D03*
D28*
X128379600Y-101115500D03*
X128879600Y-101115500D03*
X129379600Y-101115500D03*
D27*
X130042100Y-100953000D03*
X130042100Y-100453000D03*
X130042100Y-99953000D03*
X130042100Y-99453000D03*
D28*
X129379600Y-99290500D03*
X128879600Y-99290500D03*
X128379600Y-99290500D03*
%TD*%
D16*
%TO.C,C1*%
X130022600Y-102743000D03*
X130022600Y-104293000D03*
%TD*%
D15*
%TO.C,C5*%
X132892800Y-98044000D03*
X134442800Y-98044000D03*
%TD*%
D17*
%TO.C,C7*%
X126568200Y-88811400D03*
X126568200Y-87261400D03*
%TD*%
D29*
%TO.C,J3*%
X106553000Y-76200000D03*
D30*
X106807000Y-78740000D03*
X106553000Y-81280000D03*
X106807000Y-83820000D03*
X106553000Y-86360000D03*
X106807000Y-88900000D03*
X106553000Y-91440000D03*
X106807000Y-93980000D03*
X106553000Y-96520000D03*
X106807000Y-99060000D03*
X106553000Y-101600000D03*
X106807000Y-104140000D03*
X106553000Y-106680000D03*
X106807000Y-109220000D03*
X106553000Y-111760000D03*
X106807000Y-114300000D03*
X106553000Y-116840000D03*
%TD*%
D29*
%TO.C,J4*%
X149733000Y-76200000D03*
D30*
X149987000Y-78740000D03*
X149733000Y-81280000D03*
X149987000Y-83820000D03*
X149733000Y-86360000D03*
X149987000Y-88900000D03*
X149733000Y-91440000D03*
X149987000Y-93980000D03*
X149733000Y-96520000D03*
X149987000Y-99060000D03*
X149733000Y-101600000D03*
X149987000Y-104140000D03*
X149733000Y-106680000D03*
X149987000Y-109220000D03*
X149733000Y-111760000D03*
X149987000Y-114300000D03*
X149733000Y-116840000D03*
%TD*%
M02*
