%TF.GenerationSoftware,KiCad,Pcbnew,9.0.7*%
%TF.CreationDate,2026-03-31T11:41:05-04:00*%
%TF.ProjectId,IMUTagBreakout,494d5554-6167-4427-9265-616b6f75742e,rev?*%
%TF.SameCoordinates,Original*%
%TF.FileFunction,Legend,Bot*%
%TF.FilePolarity,Positive*%
%FSLAX46Y46*%
G04 Gerber Fmt 4.6, Leading zero omitted, Abs format (unit mm)*
G04 Created by KiCad (PCBNEW 9.0.7) date 2026-03-31 11:41:05*
%MOMM*%
%LPD*%
G01*
G04 APERTURE LIST*
%ADD10C,0.300000*%
%ADD11C,0.150000*%
%ADD12C,0.120000*%
%ADD13R,1.700000X1.700000*%
%ADD14O,1.700000X1.700000*%
G04 APERTURE END LIST*
D10*
X143282141Y-117994757D02*
X143424999Y-117923328D01*
X143424999Y-117923328D02*
X143639284Y-117923328D01*
X143639284Y-117923328D02*
X143853570Y-117994757D01*
X143853570Y-117994757D02*
X143996427Y-118137614D01*
X143996427Y-118137614D02*
X144067856Y-118280471D01*
X144067856Y-118280471D02*
X144139284Y-118566185D01*
X144139284Y-118566185D02*
X144139284Y-118780471D01*
X144139284Y-118780471D02*
X144067856Y-119066185D01*
X144067856Y-119066185D02*
X143996427Y-119209042D01*
X143996427Y-119209042D02*
X143853570Y-119351900D01*
X143853570Y-119351900D02*
X143639284Y-119423328D01*
X143639284Y-119423328D02*
X143496427Y-119423328D01*
X143496427Y-119423328D02*
X143282141Y-119351900D01*
X143282141Y-119351900D02*
X143210713Y-119280471D01*
X143210713Y-119280471D02*
X143210713Y-118780471D01*
X143210713Y-118780471D02*
X143496427Y-118780471D01*
X141996427Y-119351900D02*
X142139284Y-119423328D01*
X142139284Y-119423328D02*
X142424999Y-119423328D01*
X142424999Y-119423328D02*
X142567856Y-119351900D01*
X142567856Y-119351900D02*
X142639284Y-119209042D01*
X142639284Y-119209042D02*
X142639284Y-118637614D01*
X142639284Y-118637614D02*
X142567856Y-118494757D01*
X142567856Y-118494757D02*
X142424999Y-118423328D01*
X142424999Y-118423328D02*
X142139284Y-118423328D01*
X142139284Y-118423328D02*
X141996427Y-118494757D01*
X141996427Y-118494757D02*
X141924999Y-118637614D01*
X141924999Y-118637614D02*
X141924999Y-118780471D01*
X141924999Y-118780471D02*
X142639284Y-118923328D01*
X141067856Y-119423328D02*
X141210713Y-119351900D01*
X141210713Y-119351900D02*
X141282142Y-119280471D01*
X141282142Y-119280471D02*
X141353570Y-119137614D01*
X141353570Y-119137614D02*
X141353570Y-118709042D01*
X141353570Y-118709042D02*
X141282142Y-118566185D01*
X141282142Y-118566185D02*
X141210713Y-118494757D01*
X141210713Y-118494757D02*
X141067856Y-118423328D01*
X141067856Y-118423328D02*
X140853570Y-118423328D01*
X140853570Y-118423328D02*
X140710713Y-118494757D01*
X140710713Y-118494757D02*
X140639285Y-118566185D01*
X140639285Y-118566185D02*
X140567856Y-118709042D01*
X140567856Y-118709042D02*
X140567856Y-119137614D01*
X140567856Y-119137614D02*
X140639285Y-119280471D01*
X140639285Y-119280471D02*
X140710713Y-119351900D01*
X140710713Y-119351900D02*
X140853570Y-119423328D01*
X140853570Y-119423328D02*
X141067856Y-119423328D01*
X140139284Y-118423328D02*
X139567856Y-118423328D01*
X139924999Y-119423328D02*
X139924999Y-118137614D01*
X139924999Y-118137614D02*
X139853570Y-117994757D01*
X139853570Y-117994757D02*
X139710713Y-117923328D01*
X139710713Y-117923328D02*
X139567856Y-117923328D01*
X139282141Y-118423328D02*
X138710713Y-118423328D01*
X139067856Y-119423328D02*
X139067856Y-118137614D01*
X139067856Y-118137614D02*
X138996427Y-117994757D01*
X138996427Y-117994757D02*
X138853570Y-117923328D01*
X138853570Y-117923328D02*
X138710713Y-117923328D01*
X138210713Y-119423328D02*
X138210713Y-118423328D01*
X138210713Y-118709042D02*
X138139284Y-118566185D01*
X138139284Y-118566185D02*
X138067856Y-118494757D01*
X138067856Y-118494757D02*
X137924998Y-118423328D01*
X137924998Y-118423328D02*
X137782141Y-118423328D01*
X136710713Y-119351900D02*
X136853570Y-119423328D01*
X136853570Y-119423328D02*
X137139285Y-119423328D01*
X137139285Y-119423328D02*
X137282142Y-119351900D01*
X137282142Y-119351900D02*
X137353570Y-119209042D01*
X137353570Y-119209042D02*
X137353570Y-118637614D01*
X137353570Y-118637614D02*
X137282142Y-118494757D01*
X137282142Y-118494757D02*
X137139285Y-118423328D01*
X137139285Y-118423328D02*
X136853570Y-118423328D01*
X136853570Y-118423328D02*
X136710713Y-118494757D01*
X136710713Y-118494757D02*
X136639285Y-118637614D01*
X136639285Y-118637614D02*
X136639285Y-118780471D01*
X136639285Y-118780471D02*
X137353570Y-118923328D01*
X136139285Y-118423328D02*
X135782142Y-119423328D01*
X135424999Y-118423328D02*
X135782142Y-119423328D01*
X135782142Y-119423328D02*
X135924999Y-119780471D01*
X135924999Y-119780471D02*
X135996428Y-119851900D01*
X135996428Y-119851900D02*
X136139285Y-119923328D01*
X133210714Y-118637614D02*
X132996428Y-118709042D01*
X132996428Y-118709042D02*
X132924999Y-118780471D01*
X132924999Y-118780471D02*
X132853571Y-118923328D01*
X132853571Y-118923328D02*
X132853571Y-119137614D01*
X132853571Y-119137614D02*
X132924999Y-119280471D01*
X132924999Y-119280471D02*
X132996428Y-119351900D01*
X132996428Y-119351900D02*
X133139285Y-119423328D01*
X133139285Y-119423328D02*
X133710714Y-119423328D01*
X133710714Y-119423328D02*
X133710714Y-117923328D01*
X133710714Y-117923328D02*
X133210714Y-117923328D01*
X133210714Y-117923328D02*
X133067857Y-117994757D01*
X133067857Y-117994757D02*
X132996428Y-118066185D01*
X132996428Y-118066185D02*
X132924999Y-118209042D01*
X132924999Y-118209042D02*
X132924999Y-118351900D01*
X132924999Y-118351900D02*
X132996428Y-118494757D01*
X132996428Y-118494757D02*
X133067857Y-118566185D01*
X133067857Y-118566185D02*
X133210714Y-118637614D01*
X133210714Y-118637614D02*
X133710714Y-118637614D01*
X132210714Y-119423328D02*
X132210714Y-118423328D01*
X132210714Y-118709042D02*
X132139285Y-118566185D01*
X132139285Y-118566185D02*
X132067857Y-118494757D01*
X132067857Y-118494757D02*
X131924999Y-118423328D01*
X131924999Y-118423328D02*
X131782142Y-118423328D01*
X131067857Y-119423328D02*
X131210714Y-119351900D01*
X131210714Y-119351900D02*
X131282143Y-119280471D01*
X131282143Y-119280471D02*
X131353571Y-119137614D01*
X131353571Y-119137614D02*
X131353571Y-118709042D01*
X131353571Y-118709042D02*
X131282143Y-118566185D01*
X131282143Y-118566185D02*
X131210714Y-118494757D01*
X131210714Y-118494757D02*
X131067857Y-118423328D01*
X131067857Y-118423328D02*
X130853571Y-118423328D01*
X130853571Y-118423328D02*
X130710714Y-118494757D01*
X130710714Y-118494757D02*
X130639286Y-118566185D01*
X130639286Y-118566185D02*
X130567857Y-118709042D01*
X130567857Y-118709042D02*
X130567857Y-119137614D01*
X130567857Y-119137614D02*
X130639286Y-119280471D01*
X130639286Y-119280471D02*
X130710714Y-119351900D01*
X130710714Y-119351900D02*
X130853571Y-119423328D01*
X130853571Y-119423328D02*
X131067857Y-119423328D01*
X130067857Y-118423328D02*
X129782143Y-119423328D01*
X129782143Y-119423328D02*
X129496428Y-118709042D01*
X129496428Y-118709042D02*
X129210714Y-119423328D01*
X129210714Y-119423328D02*
X128925000Y-118423328D01*
X128353571Y-118423328D02*
X128353571Y-119423328D01*
X128353571Y-118566185D02*
X128282142Y-118494757D01*
X128282142Y-118494757D02*
X128139285Y-118423328D01*
X128139285Y-118423328D02*
X127924999Y-118423328D01*
X127924999Y-118423328D02*
X127782142Y-118494757D01*
X127782142Y-118494757D02*
X127710714Y-118637614D01*
X127710714Y-118637614D02*
X127710714Y-119423328D01*
X125996428Y-117923328D02*
X125067856Y-117923328D01*
X125067856Y-117923328D02*
X125567856Y-118494757D01*
X125567856Y-118494757D02*
X125353571Y-118494757D01*
X125353571Y-118494757D02*
X125210714Y-118566185D01*
X125210714Y-118566185D02*
X125139285Y-118637614D01*
X125139285Y-118637614D02*
X125067856Y-118780471D01*
X125067856Y-118780471D02*
X125067856Y-119137614D01*
X125067856Y-119137614D02*
X125139285Y-119280471D01*
X125139285Y-119280471D02*
X125210714Y-119351900D01*
X125210714Y-119351900D02*
X125353571Y-119423328D01*
X125353571Y-119423328D02*
X125782142Y-119423328D01*
X125782142Y-119423328D02*
X125924999Y-119351900D01*
X125924999Y-119351900D02*
X125996428Y-119280471D01*
X123353571Y-117851900D02*
X124639285Y-119780471D01*
X122996428Y-117923328D02*
X122067856Y-117923328D01*
X122067856Y-117923328D02*
X122567856Y-118494757D01*
X122567856Y-118494757D02*
X122353571Y-118494757D01*
X122353571Y-118494757D02*
X122210714Y-118566185D01*
X122210714Y-118566185D02*
X122139285Y-118637614D01*
X122139285Y-118637614D02*
X122067856Y-118780471D01*
X122067856Y-118780471D02*
X122067856Y-119137614D01*
X122067856Y-119137614D02*
X122139285Y-119280471D01*
X122139285Y-119280471D02*
X122210714Y-119351900D01*
X122210714Y-119351900D02*
X122353571Y-119423328D01*
X122353571Y-119423328D02*
X122782142Y-119423328D01*
X122782142Y-119423328D02*
X122924999Y-119351900D01*
X122924999Y-119351900D02*
X122996428Y-119280471D01*
X121139285Y-117923328D02*
X120996428Y-117923328D01*
X120996428Y-117923328D02*
X120853571Y-117994757D01*
X120853571Y-117994757D02*
X120782143Y-118066185D01*
X120782143Y-118066185D02*
X120710714Y-118209042D01*
X120710714Y-118209042D02*
X120639285Y-118494757D01*
X120639285Y-118494757D02*
X120639285Y-118851900D01*
X120639285Y-118851900D02*
X120710714Y-119137614D01*
X120710714Y-119137614D02*
X120782143Y-119280471D01*
X120782143Y-119280471D02*
X120853571Y-119351900D01*
X120853571Y-119351900D02*
X120996428Y-119423328D01*
X120996428Y-119423328D02*
X121139285Y-119423328D01*
X121139285Y-119423328D02*
X121282143Y-119351900D01*
X121282143Y-119351900D02*
X121353571Y-119280471D01*
X121353571Y-119280471D02*
X121425000Y-119137614D01*
X121425000Y-119137614D02*
X121496428Y-118851900D01*
X121496428Y-118851900D02*
X121496428Y-118494757D01*
X121496428Y-118494757D02*
X121425000Y-118209042D01*
X121425000Y-118209042D02*
X121353571Y-118066185D01*
X121353571Y-118066185D02*
X121282143Y-117994757D01*
X121282143Y-117994757D02*
X121139285Y-117923328D01*
X118925000Y-117851900D02*
X120210714Y-119780471D01*
X118496428Y-118066185D02*
X118425000Y-117994757D01*
X118425000Y-117994757D02*
X118282143Y-117923328D01*
X118282143Y-117923328D02*
X117925000Y-117923328D01*
X117925000Y-117923328D02*
X117782143Y-117994757D01*
X117782143Y-117994757D02*
X117710714Y-118066185D01*
X117710714Y-118066185D02*
X117639285Y-118209042D01*
X117639285Y-118209042D02*
X117639285Y-118351900D01*
X117639285Y-118351900D02*
X117710714Y-118566185D01*
X117710714Y-118566185D02*
X118567857Y-119423328D01*
X118567857Y-119423328D02*
X117639285Y-119423328D01*
X116353572Y-117923328D02*
X116639286Y-117923328D01*
X116639286Y-117923328D02*
X116782143Y-117994757D01*
X116782143Y-117994757D02*
X116853572Y-118066185D01*
X116853572Y-118066185D02*
X116996429Y-118280471D01*
X116996429Y-118280471D02*
X117067857Y-118566185D01*
X117067857Y-118566185D02*
X117067857Y-119137614D01*
X117067857Y-119137614D02*
X116996429Y-119280471D01*
X116996429Y-119280471D02*
X116925000Y-119351900D01*
X116925000Y-119351900D02*
X116782143Y-119423328D01*
X116782143Y-119423328D02*
X116496429Y-119423328D01*
X116496429Y-119423328D02*
X116353572Y-119351900D01*
X116353572Y-119351900D02*
X116282143Y-119280471D01*
X116282143Y-119280471D02*
X116210714Y-119137614D01*
X116210714Y-119137614D02*
X116210714Y-118780471D01*
X116210714Y-118780471D02*
X116282143Y-118637614D01*
X116282143Y-118637614D02*
X116353572Y-118566185D01*
X116353572Y-118566185D02*
X116496429Y-118494757D01*
X116496429Y-118494757D02*
X116782143Y-118494757D01*
X116782143Y-118494757D02*
X116925000Y-118566185D01*
X116925000Y-118566185D02*
X116996429Y-118637614D01*
X116996429Y-118637614D02*
X117067857Y-118780471D01*
D11*
X111128207Y-86814819D02*
X111128207Y-85814819D01*
X111128207Y-85814819D02*
X110556779Y-86814819D01*
X110556779Y-86814819D02*
X110556779Y-85814819D01*
X109509160Y-86719580D02*
X109556779Y-86767200D01*
X109556779Y-86767200D02*
X109699636Y-86814819D01*
X109699636Y-86814819D02*
X109794874Y-86814819D01*
X109794874Y-86814819D02*
X109937731Y-86767200D01*
X109937731Y-86767200D02*
X110032969Y-86671961D01*
X110032969Y-86671961D02*
X110080588Y-86576723D01*
X110080588Y-86576723D02*
X110128207Y-86386247D01*
X110128207Y-86386247D02*
X110128207Y-86243390D01*
X110128207Y-86243390D02*
X110080588Y-86052914D01*
X110080588Y-86052914D02*
X110032969Y-85957676D01*
X110032969Y-85957676D02*
X109937731Y-85862438D01*
X109937731Y-85862438D02*
X109794874Y-85814819D01*
X109794874Y-85814819D02*
X109699636Y-85814819D01*
X109699636Y-85814819D02*
X109556779Y-85862438D01*
X109556779Y-85862438D02*
X109509160Y-85910057D01*
X111128207Y-89354819D02*
X111128207Y-88354819D01*
X111128207Y-88354819D02*
X110556779Y-89354819D01*
X110556779Y-89354819D02*
X110556779Y-88354819D01*
X109509160Y-89259580D02*
X109556779Y-89307200D01*
X109556779Y-89307200D02*
X109699636Y-89354819D01*
X109699636Y-89354819D02*
X109794874Y-89354819D01*
X109794874Y-89354819D02*
X109937731Y-89307200D01*
X109937731Y-89307200D02*
X110032969Y-89211961D01*
X110032969Y-89211961D02*
X110080588Y-89116723D01*
X110080588Y-89116723D02*
X110128207Y-88926247D01*
X110128207Y-88926247D02*
X110128207Y-88783390D01*
X110128207Y-88783390D02*
X110080588Y-88592914D01*
X110080588Y-88592914D02*
X110032969Y-88497676D01*
X110032969Y-88497676D02*
X109937731Y-88402438D01*
X109937731Y-88402438D02*
X109794874Y-88354819D01*
X109794874Y-88354819D02*
X109699636Y-88354819D01*
X109699636Y-88354819D02*
X109556779Y-88402438D01*
X109556779Y-88402438D02*
X109509160Y-88450057D01*
X111604398Y-116342438D02*
X111699636Y-116294819D01*
X111699636Y-116294819D02*
X111842493Y-116294819D01*
X111842493Y-116294819D02*
X111985350Y-116342438D01*
X111985350Y-116342438D02*
X112080588Y-116437676D01*
X112080588Y-116437676D02*
X112128207Y-116532914D01*
X112128207Y-116532914D02*
X112175826Y-116723390D01*
X112175826Y-116723390D02*
X112175826Y-116866247D01*
X112175826Y-116866247D02*
X112128207Y-117056723D01*
X112128207Y-117056723D02*
X112080588Y-117151961D01*
X112080588Y-117151961D02*
X111985350Y-117247200D01*
X111985350Y-117247200D02*
X111842493Y-117294819D01*
X111842493Y-117294819D02*
X111747255Y-117294819D01*
X111747255Y-117294819D02*
X111604398Y-117247200D01*
X111604398Y-117247200D02*
X111556779Y-117199580D01*
X111556779Y-117199580D02*
X111556779Y-116866247D01*
X111556779Y-116866247D02*
X111747255Y-116866247D01*
X111128207Y-117294819D02*
X111128207Y-116294819D01*
X111128207Y-116294819D02*
X110556779Y-117294819D01*
X110556779Y-117294819D02*
X110556779Y-116294819D01*
X110080588Y-117294819D02*
X110080588Y-116294819D01*
X110080588Y-116294819D02*
X109842493Y-116294819D01*
X109842493Y-116294819D02*
X109699636Y-116342438D01*
X109699636Y-116342438D02*
X109604398Y-116437676D01*
X109604398Y-116437676D02*
X109556779Y-116532914D01*
X109556779Y-116532914D02*
X109509160Y-116723390D01*
X109509160Y-116723390D02*
X109509160Y-116866247D01*
X109509160Y-116866247D02*
X109556779Y-117056723D01*
X109556779Y-117056723D02*
X109604398Y-117151961D01*
X109604398Y-117151961D02*
X109699636Y-117247200D01*
X109699636Y-117247200D02*
X109842493Y-117294819D01*
X109842493Y-117294819D02*
X110080588Y-117294819D01*
X146713411Y-116088438D02*
X146808649Y-116040819D01*
X146808649Y-116040819D02*
X146951506Y-116040819D01*
X146951506Y-116040819D02*
X147094363Y-116088438D01*
X147094363Y-116088438D02*
X147189601Y-116183676D01*
X147189601Y-116183676D02*
X147237220Y-116278914D01*
X147237220Y-116278914D02*
X147284839Y-116469390D01*
X147284839Y-116469390D02*
X147284839Y-116612247D01*
X147284839Y-116612247D02*
X147237220Y-116802723D01*
X147237220Y-116802723D02*
X147189601Y-116897961D01*
X147189601Y-116897961D02*
X147094363Y-116993200D01*
X147094363Y-116993200D02*
X146951506Y-117040819D01*
X146951506Y-117040819D02*
X146856268Y-117040819D01*
X146856268Y-117040819D02*
X146713411Y-116993200D01*
X146713411Y-116993200D02*
X146665792Y-116945580D01*
X146665792Y-116945580D02*
X146665792Y-116612247D01*
X146665792Y-116612247D02*
X146856268Y-116612247D01*
X146237220Y-117040819D02*
X146237220Y-116040819D01*
X146237220Y-116040819D02*
X145665792Y-117040819D01*
X145665792Y-117040819D02*
X145665792Y-116040819D01*
X145189601Y-117040819D02*
X145189601Y-116040819D01*
X145189601Y-116040819D02*
X144951506Y-116040819D01*
X144951506Y-116040819D02*
X144808649Y-116088438D01*
X144808649Y-116088438D02*
X144713411Y-116183676D01*
X144713411Y-116183676D02*
X144665792Y-116278914D01*
X144665792Y-116278914D02*
X144618173Y-116469390D01*
X144618173Y-116469390D02*
X144618173Y-116612247D01*
X144618173Y-116612247D02*
X144665792Y-116802723D01*
X144665792Y-116802723D02*
X144713411Y-116897961D01*
X144713411Y-116897961D02*
X144808649Y-116993200D01*
X144808649Y-116993200D02*
X144951506Y-117040819D01*
X144951506Y-117040819D02*
X145189601Y-117040819D01*
X115376077Y-90894819D02*
X114804649Y-90894819D01*
X115090363Y-91894819D02*
X115090363Y-90894819D01*
X114518934Y-91609104D02*
X114042744Y-91609104D01*
X114614172Y-91894819D02*
X114280839Y-90894819D01*
X114280839Y-90894819D02*
X113947506Y-91894819D01*
X113090363Y-90942438D02*
X113185601Y-90894819D01*
X113185601Y-90894819D02*
X113328458Y-90894819D01*
X113328458Y-90894819D02*
X113471315Y-90942438D01*
X113471315Y-90942438D02*
X113566553Y-91037676D01*
X113566553Y-91037676D02*
X113614172Y-91132914D01*
X113614172Y-91132914D02*
X113661791Y-91323390D01*
X113661791Y-91323390D02*
X113661791Y-91466247D01*
X113661791Y-91466247D02*
X113614172Y-91656723D01*
X113614172Y-91656723D02*
X113566553Y-91751961D01*
X113566553Y-91751961D02*
X113471315Y-91847200D01*
X113471315Y-91847200D02*
X113328458Y-91894819D01*
X113328458Y-91894819D02*
X113233220Y-91894819D01*
X113233220Y-91894819D02*
X113090363Y-91847200D01*
X113090363Y-91847200D02*
X113042744Y-91799580D01*
X113042744Y-91799580D02*
X113042744Y-91466247D01*
X113042744Y-91466247D02*
X113233220Y-91466247D01*
X112852268Y-91990057D02*
X112090363Y-91990057D01*
X111947505Y-90894819D02*
X111328458Y-90894819D01*
X111328458Y-90894819D02*
X111661791Y-91275771D01*
X111661791Y-91275771D02*
X111518934Y-91275771D01*
X111518934Y-91275771D02*
X111423696Y-91323390D01*
X111423696Y-91323390D02*
X111376077Y-91371009D01*
X111376077Y-91371009D02*
X111328458Y-91466247D01*
X111328458Y-91466247D02*
X111328458Y-91704342D01*
X111328458Y-91704342D02*
X111376077Y-91799580D01*
X111376077Y-91799580D02*
X111423696Y-91847200D01*
X111423696Y-91847200D02*
X111518934Y-91894819D01*
X111518934Y-91894819D02*
X111804648Y-91894819D01*
X111804648Y-91894819D02*
X111899886Y-91847200D01*
X111899886Y-91847200D02*
X111947505Y-91799580D01*
X111042743Y-90894819D02*
X110709410Y-91894819D01*
X110709410Y-91894819D02*
X110376077Y-90894819D01*
X110137981Y-90894819D02*
X109518934Y-90894819D01*
X109518934Y-90894819D02*
X109852267Y-91275771D01*
X109852267Y-91275771D02*
X109709410Y-91275771D01*
X109709410Y-91275771D02*
X109614172Y-91323390D01*
X109614172Y-91323390D02*
X109566553Y-91371009D01*
X109566553Y-91371009D02*
X109518934Y-91466247D01*
X109518934Y-91466247D02*
X109518934Y-91704342D01*
X109518934Y-91704342D02*
X109566553Y-91799580D01*
X109566553Y-91799580D02*
X109614172Y-91847200D01*
X109614172Y-91847200D02*
X109709410Y-91894819D01*
X109709410Y-91894819D02*
X109995124Y-91894819D01*
X109995124Y-91894819D02*
X110090362Y-91847200D01*
X110090362Y-91847200D02*
X110137981Y-91799580D01*
X114080590Y-81734819D02*
X114080590Y-81068152D01*
X114080590Y-81258628D02*
X114032971Y-81163390D01*
X114032971Y-81163390D02*
X113985352Y-81115771D01*
X113985352Y-81115771D02*
X113890114Y-81068152D01*
X113890114Y-81068152D02*
X113794876Y-81068152D01*
X113604399Y-81068152D02*
X113223447Y-81068152D01*
X113461542Y-80734819D02*
X113461542Y-81591961D01*
X113461542Y-81591961D02*
X113413923Y-81687200D01*
X113413923Y-81687200D02*
X113318685Y-81734819D01*
X113318685Y-81734819D02*
X113223447Y-81734819D01*
X112461542Y-81687200D02*
X112556780Y-81734819D01*
X112556780Y-81734819D02*
X112747256Y-81734819D01*
X112747256Y-81734819D02*
X112842494Y-81687200D01*
X112842494Y-81687200D02*
X112890113Y-81639580D01*
X112890113Y-81639580D02*
X112937732Y-81544342D01*
X112937732Y-81544342D02*
X112937732Y-81258628D01*
X112937732Y-81258628D02*
X112890113Y-81163390D01*
X112890113Y-81163390D02*
X112842494Y-81115771D01*
X112842494Y-81115771D02*
X112747256Y-81068152D01*
X112747256Y-81068152D02*
X112556780Y-81068152D01*
X112556780Y-81068152D02*
X112461542Y-81115771D01*
X112271066Y-81830057D02*
X111509161Y-81830057D01*
X111318684Y-81687200D02*
X111223446Y-81734819D01*
X111223446Y-81734819D02*
X111032970Y-81734819D01*
X111032970Y-81734819D02*
X110937732Y-81687200D01*
X110937732Y-81687200D02*
X110890113Y-81591961D01*
X110890113Y-81591961D02*
X110890113Y-81544342D01*
X110890113Y-81544342D02*
X110937732Y-81449104D01*
X110937732Y-81449104D02*
X111032970Y-81401485D01*
X111032970Y-81401485D02*
X111175827Y-81401485D01*
X111175827Y-81401485D02*
X111271065Y-81353866D01*
X111271065Y-81353866D02*
X111318684Y-81258628D01*
X111318684Y-81258628D02*
X111318684Y-81211009D01*
X111318684Y-81211009D02*
X111271065Y-81115771D01*
X111271065Y-81115771D02*
X111175827Y-81068152D01*
X111175827Y-81068152D02*
X111032970Y-81068152D01*
X111032970Y-81068152D02*
X110937732Y-81115771D01*
X110032970Y-81687200D02*
X110128208Y-81734819D01*
X110128208Y-81734819D02*
X110318684Y-81734819D01*
X110318684Y-81734819D02*
X110413922Y-81687200D01*
X110413922Y-81687200D02*
X110461541Y-81639580D01*
X110461541Y-81639580D02*
X110509160Y-81544342D01*
X110509160Y-81544342D02*
X110509160Y-81258628D01*
X110509160Y-81258628D02*
X110461541Y-81163390D01*
X110461541Y-81163390D02*
X110413922Y-81115771D01*
X110413922Y-81115771D02*
X110318684Y-81068152D01*
X110318684Y-81068152D02*
X110128208Y-81068152D01*
X110128208Y-81068152D02*
X110032970Y-81115771D01*
X109461541Y-81734819D02*
X109556779Y-81687200D01*
X109556779Y-81687200D02*
X109604398Y-81591961D01*
X109604398Y-81591961D02*
X109604398Y-80734819D01*
X147957541Y-114780219D02*
X147957541Y-113780219D01*
X147957541Y-113780219D02*
X147576589Y-113780219D01*
X147576589Y-113780219D02*
X147481351Y-113827838D01*
X147481351Y-113827838D02*
X147433732Y-113875457D01*
X147433732Y-113875457D02*
X147386113Y-113970695D01*
X147386113Y-113970695D02*
X147386113Y-114113552D01*
X147386113Y-114113552D02*
X147433732Y-114208790D01*
X147433732Y-114208790D02*
X147481351Y-114256409D01*
X147481351Y-114256409D02*
X147576589Y-114304028D01*
X147576589Y-114304028D02*
X147957541Y-114304028D01*
X146624208Y-114256409D02*
X146481351Y-114304028D01*
X146481351Y-114304028D02*
X146433732Y-114351647D01*
X146433732Y-114351647D02*
X146386113Y-114446885D01*
X146386113Y-114446885D02*
X146386113Y-114589742D01*
X146386113Y-114589742D02*
X146433732Y-114684980D01*
X146433732Y-114684980D02*
X146481351Y-114732600D01*
X146481351Y-114732600D02*
X146576589Y-114780219D01*
X146576589Y-114780219D02*
X146957541Y-114780219D01*
X146957541Y-114780219D02*
X146957541Y-113780219D01*
X146957541Y-113780219D02*
X146624208Y-113780219D01*
X146624208Y-113780219D02*
X146528970Y-113827838D01*
X146528970Y-113827838D02*
X146481351Y-113875457D01*
X146481351Y-113875457D02*
X146433732Y-113970695D01*
X146433732Y-113970695D02*
X146433732Y-114065933D01*
X146433732Y-114065933D02*
X146481351Y-114161171D01*
X146481351Y-114161171D02*
X146528970Y-114208790D01*
X146528970Y-114208790D02*
X146624208Y-114256409D01*
X146624208Y-114256409D02*
X146957541Y-114256409D01*
X145433732Y-114780219D02*
X146005160Y-114780219D01*
X145719446Y-114780219D02*
X145719446Y-113780219D01*
X145719446Y-113780219D02*
X145814684Y-113923076D01*
X145814684Y-113923076D02*
X145909922Y-114018314D01*
X145909922Y-114018314D02*
X146005160Y-114065933D01*
X143767065Y-114780219D02*
X144243255Y-114780219D01*
X144243255Y-114780219D02*
X144243255Y-113780219D01*
X143433731Y-114256409D02*
X143100398Y-114256409D01*
X142957541Y-114780219D02*
X143433731Y-114780219D01*
X143433731Y-114780219D02*
X143433731Y-113780219D01*
X143433731Y-113780219D02*
X142957541Y-113780219D01*
X142528969Y-114780219D02*
X142528969Y-113780219D01*
X142528969Y-113780219D02*
X142290874Y-113780219D01*
X142290874Y-113780219D02*
X142148017Y-113827838D01*
X142148017Y-113827838D02*
X142052779Y-113923076D01*
X142052779Y-113923076D02*
X142005160Y-114018314D01*
X142005160Y-114018314D02*
X141957541Y-114208790D01*
X141957541Y-114208790D02*
X141957541Y-114351647D01*
X141957541Y-114351647D02*
X142005160Y-114542123D01*
X142005160Y-114542123D02*
X142052779Y-114637361D01*
X142052779Y-114637361D02*
X142148017Y-114732600D01*
X142148017Y-114732600D02*
X142290874Y-114780219D01*
X142290874Y-114780219D02*
X142528969Y-114780219D01*
X141576588Y-113875457D02*
X141528969Y-113827838D01*
X141528969Y-113827838D02*
X141433731Y-113780219D01*
X141433731Y-113780219D02*
X141195636Y-113780219D01*
X141195636Y-113780219D02*
X141100398Y-113827838D01*
X141100398Y-113827838D02*
X141052779Y-113875457D01*
X141052779Y-113875457D02*
X141005160Y-113970695D01*
X141005160Y-113970695D02*
X141005160Y-114065933D01*
X141005160Y-114065933D02*
X141052779Y-114208790D01*
X141052779Y-114208790D02*
X141624207Y-114780219D01*
X141624207Y-114780219D02*
X141005160Y-114780219D01*
X147052399Y-94561819D02*
X147528589Y-94561819D01*
X147528589Y-94561819D02*
X147528589Y-93561819D01*
X146766684Y-94514200D02*
X146623827Y-94561819D01*
X146623827Y-94561819D02*
X146385732Y-94561819D01*
X146385732Y-94561819D02*
X146290494Y-94514200D01*
X146290494Y-94514200D02*
X146242875Y-94466580D01*
X146242875Y-94466580D02*
X146195256Y-94371342D01*
X146195256Y-94371342D02*
X146195256Y-94276104D01*
X146195256Y-94276104D02*
X146242875Y-94180866D01*
X146242875Y-94180866D02*
X146290494Y-94133247D01*
X146290494Y-94133247D02*
X146385732Y-94085628D01*
X146385732Y-94085628D02*
X146576208Y-94038009D01*
X146576208Y-94038009D02*
X146671446Y-93990390D01*
X146671446Y-93990390D02*
X146719065Y-93942771D01*
X146719065Y-93942771D02*
X146766684Y-93847533D01*
X146766684Y-93847533D02*
X146766684Y-93752295D01*
X146766684Y-93752295D02*
X146719065Y-93657057D01*
X146719065Y-93657057D02*
X146671446Y-93609438D01*
X146671446Y-93609438D02*
X146576208Y-93561819D01*
X146576208Y-93561819D02*
X146338113Y-93561819D01*
X146338113Y-93561819D02*
X146195256Y-93609438D01*
X145766684Y-94561819D02*
X145766684Y-93561819D01*
X145766684Y-93561819D02*
X145433351Y-94276104D01*
X145433351Y-94276104D02*
X145100018Y-93561819D01*
X145100018Y-93561819D02*
X145100018Y-94561819D01*
X144861923Y-94657057D02*
X144100018Y-94657057D01*
X144004779Y-93561819D02*
X143433351Y-93561819D01*
X143719065Y-94561819D02*
X143719065Y-93561819D01*
X142528589Y-94561819D02*
X142861922Y-94085628D01*
X143100017Y-94561819D02*
X143100017Y-93561819D01*
X143100017Y-93561819D02*
X142719065Y-93561819D01*
X142719065Y-93561819D02*
X142623827Y-93609438D01*
X142623827Y-93609438D02*
X142576208Y-93657057D01*
X142576208Y-93657057D02*
X142528589Y-93752295D01*
X142528589Y-93752295D02*
X142528589Y-93895152D01*
X142528589Y-93895152D02*
X142576208Y-93990390D01*
X142576208Y-93990390D02*
X142623827Y-94038009D01*
X142623827Y-94038009D02*
X142719065Y-94085628D01*
X142719065Y-94085628D02*
X143100017Y-94085628D01*
X141576208Y-93609438D02*
X141671446Y-93561819D01*
X141671446Y-93561819D02*
X141814303Y-93561819D01*
X141814303Y-93561819D02*
X141957160Y-93609438D01*
X141957160Y-93609438D02*
X142052398Y-93704676D01*
X142052398Y-93704676D02*
X142100017Y-93799914D01*
X142100017Y-93799914D02*
X142147636Y-93990390D01*
X142147636Y-93990390D02*
X142147636Y-94133247D01*
X142147636Y-94133247D02*
X142100017Y-94323723D01*
X142100017Y-94323723D02*
X142052398Y-94418961D01*
X142052398Y-94418961D02*
X141957160Y-94514200D01*
X141957160Y-94514200D02*
X141814303Y-94561819D01*
X141814303Y-94561819D02*
X141719065Y-94561819D01*
X141719065Y-94561819D02*
X141576208Y-94514200D01*
X141576208Y-94514200D02*
X141528589Y-94466580D01*
X141528589Y-94466580D02*
X141528589Y-94133247D01*
X141528589Y-94133247D02*
X141719065Y-94133247D01*
X140338112Y-94561819D02*
X140338112Y-93561819D01*
X140338112Y-93561819D02*
X139957160Y-93561819D01*
X139957160Y-93561819D02*
X139861922Y-93609438D01*
X139861922Y-93609438D02*
X139814303Y-93657057D01*
X139814303Y-93657057D02*
X139766684Y-93752295D01*
X139766684Y-93752295D02*
X139766684Y-93895152D01*
X139766684Y-93895152D02*
X139814303Y-93990390D01*
X139814303Y-93990390D02*
X139861922Y-94038009D01*
X139861922Y-94038009D02*
X139957160Y-94085628D01*
X139957160Y-94085628D02*
X140338112Y-94085628D01*
X139385731Y-94276104D02*
X138909541Y-94276104D01*
X139480969Y-94561819D02*
X139147636Y-93561819D01*
X139147636Y-93561819D02*
X138814303Y-94561819D01*
X138338112Y-93990390D02*
X138433350Y-93942771D01*
X138433350Y-93942771D02*
X138480969Y-93895152D01*
X138480969Y-93895152D02*
X138528588Y-93799914D01*
X138528588Y-93799914D02*
X138528588Y-93752295D01*
X138528588Y-93752295D02*
X138480969Y-93657057D01*
X138480969Y-93657057D02*
X138433350Y-93609438D01*
X138433350Y-93609438D02*
X138338112Y-93561819D01*
X138338112Y-93561819D02*
X138147636Y-93561819D01*
X138147636Y-93561819D02*
X138052398Y-93609438D01*
X138052398Y-93609438D02*
X138004779Y-93657057D01*
X138004779Y-93657057D02*
X137957160Y-93752295D01*
X137957160Y-93752295D02*
X137957160Y-93799914D01*
X137957160Y-93799914D02*
X138004779Y-93895152D01*
X138004779Y-93895152D02*
X138052398Y-93942771D01*
X138052398Y-93942771D02*
X138147636Y-93990390D01*
X138147636Y-93990390D02*
X138338112Y-93990390D01*
X138338112Y-93990390D02*
X138433350Y-94038009D01*
X138433350Y-94038009D02*
X138480969Y-94085628D01*
X138480969Y-94085628D02*
X138528588Y-94180866D01*
X138528588Y-94180866D02*
X138528588Y-94371342D01*
X138528588Y-94371342D02*
X138480969Y-94466580D01*
X138480969Y-94466580D02*
X138433350Y-94514200D01*
X138433350Y-94514200D02*
X138338112Y-94561819D01*
X138338112Y-94561819D02*
X138147636Y-94561819D01*
X138147636Y-94561819D02*
X138052398Y-94514200D01*
X138052398Y-94514200D02*
X138004779Y-94466580D01*
X138004779Y-94466580D02*
X137957160Y-94371342D01*
X137957160Y-94371342D02*
X137957160Y-94180866D01*
X137957160Y-94180866D02*
X138004779Y-94085628D01*
X138004779Y-94085628D02*
X138052398Y-94038009D01*
X138052398Y-94038009D02*
X138147636Y-93990390D01*
X116020620Y-96949419D02*
X116020620Y-95949419D01*
X116020620Y-95949419D02*
X115639668Y-95949419D01*
X115639668Y-95949419D02*
X115544430Y-95997038D01*
X115544430Y-95997038D02*
X115496811Y-96044657D01*
X115496811Y-96044657D02*
X115449192Y-96139895D01*
X115449192Y-96139895D02*
X115449192Y-96282752D01*
X115449192Y-96282752D02*
X115496811Y-96377990D01*
X115496811Y-96377990D02*
X115544430Y-96425609D01*
X115544430Y-96425609D02*
X115639668Y-96473228D01*
X115639668Y-96473228D02*
X116020620Y-96473228D01*
X115068239Y-96663704D02*
X114592049Y-96663704D01*
X115163477Y-96949419D02*
X114830144Y-95949419D01*
X114830144Y-95949419D02*
X114496811Y-96949419D01*
X113639668Y-96949419D02*
X114211096Y-96949419D01*
X113925382Y-96949419D02*
X113925382Y-95949419D01*
X113925382Y-95949419D02*
X114020620Y-96092276D01*
X114020620Y-96092276D02*
X114115858Y-96187514D01*
X114115858Y-96187514D02*
X114211096Y-96235133D01*
X111973001Y-96949419D02*
X112449191Y-96949419D01*
X112449191Y-96949419D02*
X112449191Y-95949419D01*
X111639667Y-96425609D02*
X111306334Y-96425609D01*
X111163477Y-96949419D02*
X111639667Y-96949419D01*
X111639667Y-96949419D02*
X111639667Y-95949419D01*
X111639667Y-95949419D02*
X111163477Y-95949419D01*
X110734905Y-96949419D02*
X110734905Y-95949419D01*
X110734905Y-95949419D02*
X110496810Y-95949419D01*
X110496810Y-95949419D02*
X110353953Y-95997038D01*
X110353953Y-95997038D02*
X110258715Y-96092276D01*
X110258715Y-96092276D02*
X110211096Y-96187514D01*
X110211096Y-96187514D02*
X110163477Y-96377990D01*
X110163477Y-96377990D02*
X110163477Y-96520847D01*
X110163477Y-96520847D02*
X110211096Y-96711323D01*
X110211096Y-96711323D02*
X110258715Y-96806561D01*
X110258715Y-96806561D02*
X110353953Y-96901800D01*
X110353953Y-96901800D02*
X110496810Y-96949419D01*
X110496810Y-96949419D02*
X110734905Y-96949419D01*
X109211096Y-96949419D02*
X109782524Y-96949419D01*
X109496810Y-96949419D02*
X109496810Y-95949419D01*
X109496810Y-95949419D02*
X109592048Y-96092276D01*
X109592048Y-96092276D02*
X109687286Y-96187514D01*
X109687286Y-96187514D02*
X109782524Y-96235133D01*
X142925630Y-74393419D02*
X143401820Y-74393419D01*
X143401820Y-74393419D02*
X143401820Y-73393419D01*
X142592296Y-74393419D02*
X142592296Y-73393419D01*
X142592296Y-73393419D02*
X142211344Y-73393419D01*
X142211344Y-73393419D02*
X142116106Y-73441038D01*
X142116106Y-73441038D02*
X142068487Y-73488657D01*
X142068487Y-73488657D02*
X142020868Y-73583895D01*
X142020868Y-73583895D02*
X142020868Y-73726752D01*
X142020868Y-73726752D02*
X142068487Y-73821990D01*
X142068487Y-73821990D02*
X142116106Y-73869609D01*
X142116106Y-73869609D02*
X142211344Y-73917228D01*
X142211344Y-73917228D02*
X142592296Y-73917228D01*
X141639915Y-74345800D02*
X141497058Y-74393419D01*
X141497058Y-74393419D02*
X141258963Y-74393419D01*
X141258963Y-74393419D02*
X141163725Y-74345800D01*
X141163725Y-74345800D02*
X141116106Y-74298180D01*
X141116106Y-74298180D02*
X141068487Y-74202942D01*
X141068487Y-74202942D02*
X141068487Y-74107704D01*
X141068487Y-74107704D02*
X141116106Y-74012466D01*
X141116106Y-74012466D02*
X141163725Y-73964847D01*
X141163725Y-73964847D02*
X141258963Y-73917228D01*
X141258963Y-73917228D02*
X141449439Y-73869609D01*
X141449439Y-73869609D02*
X141544677Y-73821990D01*
X141544677Y-73821990D02*
X141592296Y-73774371D01*
X141592296Y-73774371D02*
X141639915Y-73679133D01*
X141639915Y-73679133D02*
X141639915Y-73583895D01*
X141639915Y-73583895D02*
X141592296Y-73488657D01*
X141592296Y-73488657D02*
X141544677Y-73441038D01*
X141544677Y-73441038D02*
X141449439Y-73393419D01*
X141449439Y-73393419D02*
X141211344Y-73393419D01*
X141211344Y-73393419D02*
X141068487Y-73441038D01*
X140687534Y-73488657D02*
X140639915Y-73441038D01*
X140639915Y-73441038D02*
X140544677Y-73393419D01*
X140544677Y-73393419D02*
X140306582Y-73393419D01*
X140306582Y-73393419D02*
X140211344Y-73441038D01*
X140211344Y-73441038D02*
X140163725Y-73488657D01*
X140163725Y-73488657D02*
X140116106Y-73583895D01*
X140116106Y-73583895D02*
X140116106Y-73679133D01*
X140116106Y-73679133D02*
X140163725Y-73821990D01*
X140163725Y-73821990D02*
X140735153Y-74393419D01*
X140735153Y-74393419D02*
X140116106Y-74393419D01*
X139735153Y-73488657D02*
X139687534Y-73441038D01*
X139687534Y-73441038D02*
X139592296Y-73393419D01*
X139592296Y-73393419D02*
X139354201Y-73393419D01*
X139354201Y-73393419D02*
X139258963Y-73441038D01*
X139258963Y-73441038D02*
X139211344Y-73488657D01*
X139211344Y-73488657D02*
X139163725Y-73583895D01*
X139163725Y-73583895D02*
X139163725Y-73679133D01*
X139163725Y-73679133D02*
X139211344Y-73821990D01*
X139211344Y-73821990D02*
X139782772Y-74393419D01*
X139782772Y-74393419D02*
X139163725Y-74393419D01*
X138735153Y-74393419D02*
X138735153Y-73393419D01*
X138735153Y-73869609D02*
X138163725Y-73869609D01*
X138163725Y-74393419D02*
X138163725Y-73393419D01*
X137687534Y-74393419D02*
X137687534Y-73393419D01*
X137687534Y-73869609D02*
X137116106Y-73869609D01*
X137116106Y-74393419D02*
X137116106Y-73393419D01*
X135878010Y-74393419D02*
X135878010Y-73393419D01*
X135878010Y-73774371D02*
X135782772Y-73726752D01*
X135782772Y-73726752D02*
X135592296Y-73726752D01*
X135592296Y-73726752D02*
X135497058Y-73774371D01*
X135497058Y-73774371D02*
X135449439Y-73821990D01*
X135449439Y-73821990D02*
X135401820Y-73917228D01*
X135401820Y-73917228D02*
X135401820Y-74202942D01*
X135401820Y-74202942D02*
X135449439Y-74298180D01*
X135449439Y-74298180D02*
X135497058Y-74345800D01*
X135497058Y-74345800D02*
X135592296Y-74393419D01*
X135592296Y-74393419D02*
X135782772Y-74393419D01*
X135782772Y-74393419D02*
X135878010Y-74345800D01*
X134592296Y-74345800D02*
X134687534Y-74393419D01*
X134687534Y-74393419D02*
X134878010Y-74393419D01*
X134878010Y-74393419D02*
X134973248Y-74345800D01*
X134973248Y-74345800D02*
X135020867Y-74250561D01*
X135020867Y-74250561D02*
X135020867Y-73869609D01*
X135020867Y-73869609D02*
X134973248Y-73774371D01*
X134973248Y-73774371D02*
X134878010Y-73726752D01*
X134878010Y-73726752D02*
X134687534Y-73726752D01*
X134687534Y-73726752D02*
X134592296Y-73774371D01*
X134592296Y-73774371D02*
X134544677Y-73869609D01*
X134544677Y-73869609D02*
X134544677Y-73964847D01*
X134544677Y-73964847D02*
X135020867Y-74060085D01*
X133687534Y-74345800D02*
X133782772Y-74393419D01*
X133782772Y-74393419D02*
X133973248Y-74393419D01*
X133973248Y-74393419D02*
X134068486Y-74345800D01*
X134068486Y-74345800D02*
X134116105Y-74298180D01*
X134116105Y-74298180D02*
X134163724Y-74202942D01*
X134163724Y-74202942D02*
X134163724Y-73917228D01*
X134163724Y-73917228D02*
X134116105Y-73821990D01*
X134116105Y-73821990D02*
X134068486Y-73774371D01*
X134068486Y-73774371D02*
X133973248Y-73726752D01*
X133973248Y-73726752D02*
X133782772Y-73726752D01*
X133782772Y-73726752D02*
X133687534Y-73774371D01*
X132830391Y-74393419D02*
X132830391Y-73869609D01*
X132830391Y-73869609D02*
X132878010Y-73774371D01*
X132878010Y-73774371D02*
X132973248Y-73726752D01*
X132973248Y-73726752D02*
X133163724Y-73726752D01*
X133163724Y-73726752D02*
X133258962Y-73774371D01*
X132830391Y-74345800D02*
X132925629Y-74393419D01*
X132925629Y-74393419D02*
X133163724Y-74393419D01*
X133163724Y-74393419D02*
X133258962Y-74345800D01*
X133258962Y-74345800D02*
X133306581Y-74250561D01*
X133306581Y-74250561D02*
X133306581Y-74155323D01*
X133306581Y-74155323D02*
X133258962Y-74060085D01*
X133258962Y-74060085D02*
X133163724Y-74012466D01*
X133163724Y-74012466D02*
X132925629Y-74012466D01*
X132925629Y-74012466D02*
X132830391Y-73964847D01*
X131925629Y-73726752D02*
X131925629Y-74393419D01*
X132354200Y-73726752D02*
X132354200Y-74250561D01*
X132354200Y-74250561D02*
X132306581Y-74345800D01*
X132306581Y-74345800D02*
X132211343Y-74393419D01*
X132211343Y-74393419D02*
X132068486Y-74393419D01*
X132068486Y-74393419D02*
X131973248Y-74345800D01*
X131973248Y-74345800D02*
X131925629Y-74298180D01*
X131497057Y-74345800D02*
X131401819Y-74393419D01*
X131401819Y-74393419D02*
X131211343Y-74393419D01*
X131211343Y-74393419D02*
X131116105Y-74345800D01*
X131116105Y-74345800D02*
X131068486Y-74250561D01*
X131068486Y-74250561D02*
X131068486Y-74202942D01*
X131068486Y-74202942D02*
X131116105Y-74107704D01*
X131116105Y-74107704D02*
X131211343Y-74060085D01*
X131211343Y-74060085D02*
X131354200Y-74060085D01*
X131354200Y-74060085D02*
X131449438Y-74012466D01*
X131449438Y-74012466D02*
X131497057Y-73917228D01*
X131497057Y-73917228D02*
X131497057Y-73869609D01*
X131497057Y-73869609D02*
X131449438Y-73774371D01*
X131449438Y-73774371D02*
X131354200Y-73726752D01*
X131354200Y-73726752D02*
X131211343Y-73726752D01*
X131211343Y-73726752D02*
X131116105Y-73774371D01*
X130258962Y-74345800D02*
X130354200Y-74393419D01*
X130354200Y-74393419D02*
X130544676Y-74393419D01*
X130544676Y-74393419D02*
X130639914Y-74345800D01*
X130639914Y-74345800D02*
X130687533Y-74250561D01*
X130687533Y-74250561D02*
X130687533Y-73869609D01*
X130687533Y-73869609D02*
X130639914Y-73774371D01*
X130639914Y-73774371D02*
X130544676Y-73726752D01*
X130544676Y-73726752D02*
X130354200Y-73726752D01*
X130354200Y-73726752D02*
X130258962Y-73774371D01*
X130258962Y-73774371D02*
X130211343Y-73869609D01*
X130211343Y-73869609D02*
X130211343Y-73964847D01*
X130211343Y-73964847D02*
X130687533Y-74060085D01*
X128544676Y-74393419D02*
X129020866Y-74393419D01*
X129020866Y-74393419D02*
X129020866Y-73393419D01*
X128211342Y-74393419D02*
X128211342Y-73393419D01*
X128211342Y-73393419D02*
X127830390Y-73393419D01*
X127830390Y-73393419D02*
X127735152Y-73441038D01*
X127735152Y-73441038D02*
X127687533Y-73488657D01*
X127687533Y-73488657D02*
X127639914Y-73583895D01*
X127639914Y-73583895D02*
X127639914Y-73726752D01*
X127639914Y-73726752D02*
X127687533Y-73821990D01*
X127687533Y-73821990D02*
X127735152Y-73869609D01*
X127735152Y-73869609D02*
X127830390Y-73917228D01*
X127830390Y-73917228D02*
X128211342Y-73917228D01*
X127258961Y-74345800D02*
X127116104Y-74393419D01*
X127116104Y-74393419D02*
X126878009Y-74393419D01*
X126878009Y-74393419D02*
X126782771Y-74345800D01*
X126782771Y-74345800D02*
X126735152Y-74298180D01*
X126735152Y-74298180D02*
X126687533Y-74202942D01*
X126687533Y-74202942D02*
X126687533Y-74107704D01*
X126687533Y-74107704D02*
X126735152Y-74012466D01*
X126735152Y-74012466D02*
X126782771Y-73964847D01*
X126782771Y-73964847D02*
X126878009Y-73917228D01*
X126878009Y-73917228D02*
X127068485Y-73869609D01*
X127068485Y-73869609D02*
X127163723Y-73821990D01*
X127163723Y-73821990D02*
X127211342Y-73774371D01*
X127211342Y-73774371D02*
X127258961Y-73679133D01*
X127258961Y-73679133D02*
X127258961Y-73583895D01*
X127258961Y-73583895D02*
X127211342Y-73488657D01*
X127211342Y-73488657D02*
X127163723Y-73441038D01*
X127163723Y-73441038D02*
X127068485Y-73393419D01*
X127068485Y-73393419D02*
X126830390Y-73393419D01*
X126830390Y-73393419D02*
X126687533Y-73441038D01*
X126306580Y-73488657D02*
X126258961Y-73441038D01*
X126258961Y-73441038D02*
X126163723Y-73393419D01*
X126163723Y-73393419D02*
X125925628Y-73393419D01*
X125925628Y-73393419D02*
X125830390Y-73441038D01*
X125830390Y-73441038D02*
X125782771Y-73488657D01*
X125782771Y-73488657D02*
X125735152Y-73583895D01*
X125735152Y-73583895D02*
X125735152Y-73679133D01*
X125735152Y-73679133D02*
X125782771Y-73821990D01*
X125782771Y-73821990D02*
X126354199Y-74393419D01*
X126354199Y-74393419D02*
X125735152Y-74393419D01*
X125354199Y-73488657D02*
X125306580Y-73441038D01*
X125306580Y-73441038D02*
X125211342Y-73393419D01*
X125211342Y-73393419D02*
X124973247Y-73393419D01*
X124973247Y-73393419D02*
X124878009Y-73441038D01*
X124878009Y-73441038D02*
X124830390Y-73488657D01*
X124830390Y-73488657D02*
X124782771Y-73583895D01*
X124782771Y-73583895D02*
X124782771Y-73679133D01*
X124782771Y-73679133D02*
X124830390Y-73821990D01*
X124830390Y-73821990D02*
X125401818Y-74393419D01*
X125401818Y-74393419D02*
X124782771Y-74393419D01*
X124354199Y-74393419D02*
X124354199Y-73393419D01*
X124354199Y-73393419D02*
X124116104Y-73393419D01*
X124116104Y-73393419D02*
X123973247Y-73441038D01*
X123973247Y-73441038D02*
X123878009Y-73536276D01*
X123878009Y-73536276D02*
X123830390Y-73631514D01*
X123830390Y-73631514D02*
X123782771Y-73821990D01*
X123782771Y-73821990D02*
X123782771Y-73964847D01*
X123782771Y-73964847D02*
X123830390Y-74155323D01*
X123830390Y-74155323D02*
X123878009Y-74250561D01*
X123878009Y-74250561D02*
X123973247Y-74345800D01*
X123973247Y-74345800D02*
X124116104Y-74393419D01*
X124116104Y-74393419D02*
X124354199Y-74393419D01*
X123497056Y-73393419D02*
X123163723Y-74393419D01*
X123163723Y-74393419D02*
X122830390Y-73393419D01*
X121735151Y-73726752D02*
X121735151Y-74393419D01*
X121735151Y-73821990D02*
X121687532Y-73774371D01*
X121687532Y-73774371D02*
X121592294Y-73726752D01*
X121592294Y-73726752D02*
X121449437Y-73726752D01*
X121449437Y-73726752D02*
X121354199Y-73774371D01*
X121354199Y-73774371D02*
X121306580Y-73869609D01*
X121306580Y-73869609D02*
X121306580Y-74393419D01*
X120687532Y-74393419D02*
X120782770Y-74345800D01*
X120782770Y-74345800D02*
X120830389Y-74298180D01*
X120830389Y-74298180D02*
X120878008Y-74202942D01*
X120878008Y-74202942D02*
X120878008Y-73917228D01*
X120878008Y-73917228D02*
X120830389Y-73821990D01*
X120830389Y-73821990D02*
X120782770Y-73774371D01*
X120782770Y-73774371D02*
X120687532Y-73726752D01*
X120687532Y-73726752D02*
X120544675Y-73726752D01*
X120544675Y-73726752D02*
X120449437Y-73774371D01*
X120449437Y-73774371D02*
X120401818Y-73821990D01*
X120401818Y-73821990D02*
X120354199Y-73917228D01*
X120354199Y-73917228D02*
X120354199Y-74202942D01*
X120354199Y-74202942D02*
X120401818Y-74298180D01*
X120401818Y-74298180D02*
X120449437Y-74345800D01*
X120449437Y-74345800D02*
X120544675Y-74393419D01*
X120544675Y-74393419D02*
X120687532Y-74393419D01*
X120068484Y-73726752D02*
X119687532Y-73726752D01*
X119925627Y-73393419D02*
X119925627Y-74250561D01*
X119925627Y-74250561D02*
X119878008Y-74345800D01*
X119878008Y-74345800D02*
X119782770Y-74393419D01*
X119782770Y-74393419D02*
X119687532Y-74393419D01*
X118163722Y-74393419D02*
X118163722Y-73869609D01*
X118163722Y-73869609D02*
X118211341Y-73774371D01*
X118211341Y-73774371D02*
X118306579Y-73726752D01*
X118306579Y-73726752D02*
X118497055Y-73726752D01*
X118497055Y-73726752D02*
X118592293Y-73774371D01*
X118163722Y-74345800D02*
X118258960Y-74393419D01*
X118258960Y-74393419D02*
X118497055Y-74393419D01*
X118497055Y-74393419D02*
X118592293Y-74345800D01*
X118592293Y-74345800D02*
X118639912Y-74250561D01*
X118639912Y-74250561D02*
X118639912Y-74155323D01*
X118639912Y-74155323D02*
X118592293Y-74060085D01*
X118592293Y-74060085D02*
X118497055Y-74012466D01*
X118497055Y-74012466D02*
X118258960Y-74012466D01*
X118258960Y-74012466D02*
X118163722Y-73964847D01*
X117782769Y-73726752D02*
X117544674Y-74393419D01*
X117544674Y-74393419D02*
X117306579Y-73726752D01*
X116497055Y-74393419D02*
X116497055Y-73869609D01*
X116497055Y-73869609D02*
X116544674Y-73774371D01*
X116544674Y-73774371D02*
X116639912Y-73726752D01*
X116639912Y-73726752D02*
X116830388Y-73726752D01*
X116830388Y-73726752D02*
X116925626Y-73774371D01*
X116497055Y-74345800D02*
X116592293Y-74393419D01*
X116592293Y-74393419D02*
X116830388Y-74393419D01*
X116830388Y-74393419D02*
X116925626Y-74345800D01*
X116925626Y-74345800D02*
X116973245Y-74250561D01*
X116973245Y-74250561D02*
X116973245Y-74155323D01*
X116973245Y-74155323D02*
X116925626Y-74060085D01*
X116925626Y-74060085D02*
X116830388Y-74012466D01*
X116830388Y-74012466D02*
X116592293Y-74012466D01*
X116592293Y-74012466D02*
X116497055Y-73964847D01*
X116020864Y-74393419D02*
X116020864Y-73726752D01*
X116020864Y-73393419D02*
X116068483Y-73441038D01*
X116068483Y-73441038D02*
X116020864Y-73488657D01*
X116020864Y-73488657D02*
X115973245Y-73441038D01*
X115973245Y-73441038D02*
X116020864Y-73393419D01*
X116020864Y-73393419D02*
X116020864Y-73488657D01*
X115401817Y-74393419D02*
X115497055Y-74345800D01*
X115497055Y-74345800D02*
X115544674Y-74250561D01*
X115544674Y-74250561D02*
X115544674Y-73393419D01*
X114592293Y-74393419D02*
X114592293Y-73869609D01*
X114592293Y-73869609D02*
X114639912Y-73774371D01*
X114639912Y-73774371D02*
X114735150Y-73726752D01*
X114735150Y-73726752D02*
X114925626Y-73726752D01*
X114925626Y-73726752D02*
X115020864Y-73774371D01*
X114592293Y-74345800D02*
X114687531Y-74393419D01*
X114687531Y-74393419D02*
X114925626Y-74393419D01*
X114925626Y-74393419D02*
X115020864Y-74345800D01*
X115020864Y-74345800D02*
X115068483Y-74250561D01*
X115068483Y-74250561D02*
X115068483Y-74155323D01*
X115068483Y-74155323D02*
X115020864Y-74060085D01*
X115020864Y-74060085D02*
X114925626Y-74012466D01*
X114925626Y-74012466D02*
X114687531Y-74012466D01*
X114687531Y-74012466D02*
X114592293Y-73964847D01*
X114116102Y-74393419D02*
X114116102Y-73393419D01*
X114116102Y-73774371D02*
X114020864Y-73726752D01*
X114020864Y-73726752D02*
X113830388Y-73726752D01*
X113830388Y-73726752D02*
X113735150Y-73774371D01*
X113735150Y-73774371D02*
X113687531Y-73821990D01*
X113687531Y-73821990D02*
X113639912Y-73917228D01*
X113639912Y-73917228D02*
X113639912Y-74202942D01*
X113639912Y-74202942D02*
X113687531Y-74298180D01*
X113687531Y-74298180D02*
X113735150Y-74345800D01*
X113735150Y-74345800D02*
X113830388Y-74393419D01*
X113830388Y-74393419D02*
X114020864Y-74393419D01*
X114020864Y-74393419D02*
X114116102Y-74345800D01*
X113068483Y-74393419D02*
X113163721Y-74345800D01*
X113163721Y-74345800D02*
X113211340Y-74250561D01*
X113211340Y-74250561D02*
X113211340Y-73393419D01*
X112306578Y-74345800D02*
X112401816Y-74393419D01*
X112401816Y-74393419D02*
X112592292Y-74393419D01*
X112592292Y-74393419D02*
X112687530Y-74345800D01*
X112687530Y-74345800D02*
X112735149Y-74250561D01*
X112735149Y-74250561D02*
X112735149Y-73869609D01*
X112735149Y-73869609D02*
X112687530Y-73774371D01*
X112687530Y-73774371D02*
X112592292Y-73726752D01*
X112592292Y-73726752D02*
X112401816Y-73726752D01*
X112401816Y-73726752D02*
X112306578Y-73774371D01*
X112306578Y-73774371D02*
X112258959Y-73869609D01*
X112258959Y-73869609D02*
X112258959Y-73964847D01*
X112258959Y-73964847D02*
X112735149Y-74060085D01*
X146941065Y-86814819D02*
X147417255Y-86814819D01*
X147417255Y-86814819D02*
X147417255Y-85814819D01*
X146607731Y-86814819D02*
X146607731Y-85814819D01*
X146607731Y-85814819D02*
X146226779Y-85814819D01*
X146226779Y-85814819D02*
X146131541Y-85862438D01*
X146131541Y-85862438D02*
X146083922Y-85910057D01*
X146083922Y-85910057D02*
X146036303Y-86005295D01*
X146036303Y-86005295D02*
X146036303Y-86148152D01*
X146036303Y-86148152D02*
X146083922Y-86243390D01*
X146083922Y-86243390D02*
X146131541Y-86291009D01*
X146131541Y-86291009D02*
X146226779Y-86338628D01*
X146226779Y-86338628D02*
X146607731Y-86338628D01*
X145655350Y-86767200D02*
X145512493Y-86814819D01*
X145512493Y-86814819D02*
X145274398Y-86814819D01*
X145274398Y-86814819D02*
X145179160Y-86767200D01*
X145179160Y-86767200D02*
X145131541Y-86719580D01*
X145131541Y-86719580D02*
X145083922Y-86624342D01*
X145083922Y-86624342D02*
X145083922Y-86529104D01*
X145083922Y-86529104D02*
X145131541Y-86433866D01*
X145131541Y-86433866D02*
X145179160Y-86386247D01*
X145179160Y-86386247D02*
X145274398Y-86338628D01*
X145274398Y-86338628D02*
X145464874Y-86291009D01*
X145464874Y-86291009D02*
X145560112Y-86243390D01*
X145560112Y-86243390D02*
X145607731Y-86195771D01*
X145607731Y-86195771D02*
X145655350Y-86100533D01*
X145655350Y-86100533D02*
X145655350Y-86005295D01*
X145655350Y-86005295D02*
X145607731Y-85910057D01*
X145607731Y-85910057D02*
X145560112Y-85862438D01*
X145560112Y-85862438D02*
X145464874Y-85814819D01*
X145464874Y-85814819D02*
X145226779Y-85814819D01*
X145226779Y-85814819D02*
X145083922Y-85862438D01*
X144893446Y-86910057D02*
X144131541Y-86910057D01*
X143893445Y-86814819D02*
X143893445Y-85814819D01*
X143893445Y-85814819D02*
X143560112Y-86529104D01*
X143560112Y-86529104D02*
X143226779Y-85814819D01*
X143226779Y-85814819D02*
X143226779Y-86814819D01*
X142750588Y-86814819D02*
X142750588Y-85814819D01*
X142322017Y-86767200D02*
X142179160Y-86814819D01*
X142179160Y-86814819D02*
X141941065Y-86814819D01*
X141941065Y-86814819D02*
X141845827Y-86767200D01*
X141845827Y-86767200D02*
X141798208Y-86719580D01*
X141798208Y-86719580D02*
X141750589Y-86624342D01*
X141750589Y-86624342D02*
X141750589Y-86529104D01*
X141750589Y-86529104D02*
X141798208Y-86433866D01*
X141798208Y-86433866D02*
X141845827Y-86386247D01*
X141845827Y-86386247D02*
X141941065Y-86338628D01*
X141941065Y-86338628D02*
X142131541Y-86291009D01*
X142131541Y-86291009D02*
X142226779Y-86243390D01*
X142226779Y-86243390D02*
X142274398Y-86195771D01*
X142274398Y-86195771D02*
X142322017Y-86100533D01*
X142322017Y-86100533D02*
X142322017Y-86005295D01*
X142322017Y-86005295D02*
X142274398Y-85910057D01*
X142274398Y-85910057D02*
X142226779Y-85862438D01*
X142226779Y-85862438D02*
X142131541Y-85814819D01*
X142131541Y-85814819D02*
X141893446Y-85814819D01*
X141893446Y-85814819D02*
X141750589Y-85862438D01*
X141131541Y-85814819D02*
X140941065Y-85814819D01*
X140941065Y-85814819D02*
X140845827Y-85862438D01*
X140845827Y-85862438D02*
X140750589Y-85957676D01*
X140750589Y-85957676D02*
X140702970Y-86148152D01*
X140702970Y-86148152D02*
X140702970Y-86481485D01*
X140702970Y-86481485D02*
X140750589Y-86671961D01*
X140750589Y-86671961D02*
X140845827Y-86767200D01*
X140845827Y-86767200D02*
X140941065Y-86814819D01*
X140941065Y-86814819D02*
X141131541Y-86814819D01*
X141131541Y-86814819D02*
X141226779Y-86767200D01*
X141226779Y-86767200D02*
X141322017Y-86671961D01*
X141322017Y-86671961D02*
X141369636Y-86481485D01*
X141369636Y-86481485D02*
X141369636Y-86148152D01*
X141369636Y-86148152D02*
X141322017Y-85957676D01*
X141322017Y-85957676D02*
X141226779Y-85862438D01*
X141226779Y-85862438D02*
X141131541Y-85814819D01*
X139512493Y-86814819D02*
X139512493Y-85814819D01*
X139512493Y-85814819D02*
X139131541Y-85814819D01*
X139131541Y-85814819D02*
X139036303Y-85862438D01*
X139036303Y-85862438D02*
X138988684Y-85910057D01*
X138988684Y-85910057D02*
X138941065Y-86005295D01*
X138941065Y-86005295D02*
X138941065Y-86148152D01*
X138941065Y-86148152D02*
X138988684Y-86243390D01*
X138988684Y-86243390D02*
X139036303Y-86291009D01*
X139036303Y-86291009D02*
X139131541Y-86338628D01*
X139131541Y-86338628D02*
X139512493Y-86338628D01*
X138560112Y-86529104D02*
X138083922Y-86529104D01*
X138655350Y-86814819D02*
X138322017Y-85814819D01*
X138322017Y-85814819D02*
X137988684Y-86814819D01*
X137131541Y-86814819D02*
X137702969Y-86814819D01*
X137417255Y-86814819D02*
X137417255Y-85814819D01*
X137417255Y-85814819D02*
X137512493Y-85957676D01*
X137512493Y-85957676D02*
X137607731Y-86052914D01*
X137607731Y-86052914D02*
X137702969Y-86100533D01*
X136179160Y-86814819D02*
X136750588Y-86814819D01*
X136464874Y-86814819D02*
X136464874Y-85814819D01*
X136464874Y-85814819D02*
X136560112Y-85957676D01*
X136560112Y-85957676D02*
X136655350Y-86052914D01*
X136655350Y-86052914D02*
X136750588Y-86100533D01*
X119551220Y-112087819D02*
X119551220Y-111087819D01*
X119551220Y-111087819D02*
X119170268Y-111087819D01*
X119170268Y-111087819D02*
X119075030Y-111135438D01*
X119075030Y-111135438D02*
X119027411Y-111183057D01*
X119027411Y-111183057D02*
X118979792Y-111278295D01*
X118979792Y-111278295D02*
X118979792Y-111421152D01*
X118979792Y-111421152D02*
X119027411Y-111516390D01*
X119027411Y-111516390D02*
X119075030Y-111564009D01*
X119075030Y-111564009D02*
X119170268Y-111611628D01*
X119170268Y-111611628D02*
X119551220Y-111611628D01*
X118598839Y-111802104D02*
X118122649Y-111802104D01*
X118694077Y-112087819D02*
X118360744Y-111087819D01*
X118360744Y-111087819D02*
X118027411Y-112087819D01*
X117789315Y-111087819D02*
X117122649Y-111087819D01*
X117122649Y-111087819D02*
X117551220Y-112087819D01*
X115503601Y-112087819D02*
X115979791Y-112087819D01*
X115979791Y-112087819D02*
X115979791Y-111087819D01*
X115217886Y-112040200D02*
X115075029Y-112087819D01*
X115075029Y-112087819D02*
X114836934Y-112087819D01*
X114836934Y-112087819D02*
X114741696Y-112040200D01*
X114741696Y-112040200D02*
X114694077Y-111992580D01*
X114694077Y-111992580D02*
X114646458Y-111897342D01*
X114646458Y-111897342D02*
X114646458Y-111802104D01*
X114646458Y-111802104D02*
X114694077Y-111706866D01*
X114694077Y-111706866D02*
X114741696Y-111659247D01*
X114741696Y-111659247D02*
X114836934Y-111611628D01*
X114836934Y-111611628D02*
X115027410Y-111564009D01*
X115027410Y-111564009D02*
X115122648Y-111516390D01*
X115122648Y-111516390D02*
X115170267Y-111468771D01*
X115170267Y-111468771D02*
X115217886Y-111373533D01*
X115217886Y-111373533D02*
X115217886Y-111278295D01*
X115217886Y-111278295D02*
X115170267Y-111183057D01*
X115170267Y-111183057D02*
X115122648Y-111135438D01*
X115122648Y-111135438D02*
X115027410Y-111087819D01*
X115027410Y-111087819D02*
X114789315Y-111087819D01*
X114789315Y-111087819D02*
X114646458Y-111135438D01*
X114217886Y-112087819D02*
X114217886Y-111087819D01*
X114217886Y-111087819D02*
X113884553Y-111802104D01*
X113884553Y-111802104D02*
X113551220Y-111087819D01*
X113551220Y-111087819D02*
X113551220Y-112087819D01*
X113313125Y-112183057D02*
X112551220Y-112183057D01*
X112313124Y-112087819D02*
X112313124Y-111087819D01*
X112313124Y-111087819D02*
X111979791Y-111802104D01*
X111979791Y-111802104D02*
X111646458Y-111087819D01*
X111646458Y-111087819D02*
X111646458Y-112087819D01*
X110979791Y-111087819D02*
X110789315Y-111087819D01*
X110789315Y-111087819D02*
X110694077Y-111135438D01*
X110694077Y-111135438D02*
X110598839Y-111230676D01*
X110598839Y-111230676D02*
X110551220Y-111421152D01*
X110551220Y-111421152D02*
X110551220Y-111754485D01*
X110551220Y-111754485D02*
X110598839Y-111944961D01*
X110598839Y-111944961D02*
X110694077Y-112040200D01*
X110694077Y-112040200D02*
X110789315Y-112087819D01*
X110789315Y-112087819D02*
X110979791Y-112087819D01*
X110979791Y-112087819D02*
X111075029Y-112040200D01*
X111075029Y-112040200D02*
X111170267Y-111944961D01*
X111170267Y-111944961D02*
X111217886Y-111754485D01*
X111217886Y-111754485D02*
X111217886Y-111421152D01*
X111217886Y-111421152D02*
X111170267Y-111230676D01*
X111170267Y-111230676D02*
X111075029Y-111135438D01*
X111075029Y-111135438D02*
X110979791Y-111087819D01*
X110170267Y-112040200D02*
X110027410Y-112087819D01*
X110027410Y-112087819D02*
X109789315Y-112087819D01*
X109789315Y-112087819D02*
X109694077Y-112040200D01*
X109694077Y-112040200D02*
X109646458Y-111992580D01*
X109646458Y-111992580D02*
X109598839Y-111897342D01*
X109598839Y-111897342D02*
X109598839Y-111802104D01*
X109598839Y-111802104D02*
X109646458Y-111706866D01*
X109646458Y-111706866D02*
X109694077Y-111659247D01*
X109694077Y-111659247D02*
X109789315Y-111611628D01*
X109789315Y-111611628D02*
X109979791Y-111564009D01*
X109979791Y-111564009D02*
X110075029Y-111516390D01*
X110075029Y-111516390D02*
X110122648Y-111468771D01*
X110122648Y-111468771D02*
X110170267Y-111373533D01*
X110170267Y-111373533D02*
X110170267Y-111278295D01*
X110170267Y-111278295D02*
X110122648Y-111183057D01*
X110122648Y-111183057D02*
X110075029Y-111135438D01*
X110075029Y-111135438D02*
X109979791Y-111087819D01*
X109979791Y-111087819D02*
X109741696Y-111087819D01*
X109741696Y-111087819D02*
X109598839Y-111135438D01*
X109170267Y-112087819D02*
X109170267Y-111087819D01*
X147258684Y-81734819D02*
X147258684Y-80734819D01*
X147258684Y-80734819D02*
X146925351Y-81449104D01*
X146925351Y-81449104D02*
X146592018Y-80734819D01*
X146592018Y-80734819D02*
X146592018Y-81734819D01*
X146211065Y-80734819D02*
X145544399Y-81734819D01*
X145544399Y-80734819D02*
X146211065Y-81734819D01*
X145401542Y-81830057D02*
X144639637Y-81830057D01*
X144401541Y-81068152D02*
X144401541Y-81734819D01*
X144401541Y-81163390D02*
X144353922Y-81115771D01*
X144353922Y-81115771D02*
X144258684Y-81068152D01*
X144258684Y-81068152D02*
X144115827Y-81068152D01*
X144115827Y-81068152D02*
X144020589Y-81115771D01*
X144020589Y-81115771D02*
X143972970Y-81211009D01*
X143972970Y-81211009D02*
X143972970Y-81734819D01*
X142925351Y-81639580D02*
X142972970Y-81687200D01*
X142972970Y-81687200D02*
X143115827Y-81734819D01*
X143115827Y-81734819D02*
X143211065Y-81734819D01*
X143211065Y-81734819D02*
X143353922Y-81687200D01*
X143353922Y-81687200D02*
X143449160Y-81591961D01*
X143449160Y-81591961D02*
X143496779Y-81496723D01*
X143496779Y-81496723D02*
X143544398Y-81306247D01*
X143544398Y-81306247D02*
X143544398Y-81163390D01*
X143544398Y-81163390D02*
X143496779Y-80972914D01*
X143496779Y-80972914D02*
X143449160Y-80877676D01*
X143449160Y-80877676D02*
X143353922Y-80782438D01*
X143353922Y-80782438D02*
X143211065Y-80734819D01*
X143211065Y-80734819D02*
X143115827Y-80734819D01*
X143115827Y-80734819D02*
X142972970Y-80782438D01*
X142972970Y-80782438D02*
X142925351Y-80830057D01*
X142544398Y-81687200D02*
X142401541Y-81734819D01*
X142401541Y-81734819D02*
X142163446Y-81734819D01*
X142163446Y-81734819D02*
X142068208Y-81687200D01*
X142068208Y-81687200D02*
X142020589Y-81639580D01*
X142020589Y-81639580D02*
X141972970Y-81544342D01*
X141972970Y-81544342D02*
X141972970Y-81449104D01*
X141972970Y-81449104D02*
X142020589Y-81353866D01*
X142020589Y-81353866D02*
X142068208Y-81306247D01*
X142068208Y-81306247D02*
X142163446Y-81258628D01*
X142163446Y-81258628D02*
X142353922Y-81211009D01*
X142353922Y-81211009D02*
X142449160Y-81163390D01*
X142449160Y-81163390D02*
X142496779Y-81115771D01*
X142496779Y-81115771D02*
X142544398Y-81020533D01*
X142544398Y-81020533D02*
X142544398Y-80925295D01*
X142544398Y-80925295D02*
X142496779Y-80830057D01*
X142496779Y-80830057D02*
X142449160Y-80782438D01*
X142449160Y-80782438D02*
X142353922Y-80734819D01*
X142353922Y-80734819D02*
X142115827Y-80734819D01*
X142115827Y-80734819D02*
X141972970Y-80782438D01*
X140782493Y-81734819D02*
X140782493Y-80734819D01*
X140782493Y-80734819D02*
X140401541Y-80734819D01*
X140401541Y-80734819D02*
X140306303Y-80782438D01*
X140306303Y-80782438D02*
X140258684Y-80830057D01*
X140258684Y-80830057D02*
X140211065Y-80925295D01*
X140211065Y-80925295D02*
X140211065Y-81068152D01*
X140211065Y-81068152D02*
X140258684Y-81163390D01*
X140258684Y-81163390D02*
X140306303Y-81211009D01*
X140306303Y-81211009D02*
X140401541Y-81258628D01*
X140401541Y-81258628D02*
X140782493Y-81258628D01*
X139830112Y-81449104D02*
X139353922Y-81449104D01*
X139925350Y-81734819D02*
X139592017Y-80734819D01*
X139592017Y-80734819D02*
X139258684Y-81734819D01*
X138401541Y-81734819D02*
X138972969Y-81734819D01*
X138687255Y-81734819D02*
X138687255Y-80734819D01*
X138687255Y-80734819D02*
X138782493Y-80877676D01*
X138782493Y-80877676D02*
X138877731Y-80972914D01*
X138877731Y-80972914D02*
X138972969Y-81020533D01*
X137496779Y-80734819D02*
X137972969Y-80734819D01*
X137972969Y-80734819D02*
X138020588Y-81211009D01*
X138020588Y-81211009D02*
X137972969Y-81163390D01*
X137972969Y-81163390D02*
X137877731Y-81115771D01*
X137877731Y-81115771D02*
X137639636Y-81115771D01*
X137639636Y-81115771D02*
X137544398Y-81163390D01*
X137544398Y-81163390D02*
X137496779Y-81211009D01*
X137496779Y-81211009D02*
X137449160Y-81306247D01*
X137449160Y-81306247D02*
X137449160Y-81544342D01*
X137449160Y-81544342D02*
X137496779Y-81639580D01*
X137496779Y-81639580D02*
X137544398Y-81687200D01*
X137544398Y-81687200D02*
X137639636Y-81734819D01*
X137639636Y-81734819D02*
X137877731Y-81734819D01*
X137877731Y-81734819D02*
X137972969Y-81687200D01*
X137972969Y-81687200D02*
X138020588Y-81639580D01*
X146941065Y-84401819D02*
X147417255Y-84401819D01*
X147417255Y-84401819D02*
X147417255Y-83401819D01*
X146607731Y-84401819D02*
X146607731Y-83401819D01*
X146607731Y-83401819D02*
X146226779Y-83401819D01*
X146226779Y-83401819D02*
X146131541Y-83449438D01*
X146131541Y-83449438D02*
X146083922Y-83497057D01*
X146083922Y-83497057D02*
X146036303Y-83592295D01*
X146036303Y-83592295D02*
X146036303Y-83735152D01*
X146036303Y-83735152D02*
X146083922Y-83830390D01*
X146083922Y-83830390D02*
X146131541Y-83878009D01*
X146131541Y-83878009D02*
X146226779Y-83925628D01*
X146226779Y-83925628D02*
X146607731Y-83925628D01*
X145655350Y-84354200D02*
X145512493Y-84401819D01*
X145512493Y-84401819D02*
X145274398Y-84401819D01*
X145274398Y-84401819D02*
X145179160Y-84354200D01*
X145179160Y-84354200D02*
X145131541Y-84306580D01*
X145131541Y-84306580D02*
X145083922Y-84211342D01*
X145083922Y-84211342D02*
X145083922Y-84116104D01*
X145083922Y-84116104D02*
X145131541Y-84020866D01*
X145131541Y-84020866D02*
X145179160Y-83973247D01*
X145179160Y-83973247D02*
X145274398Y-83925628D01*
X145274398Y-83925628D02*
X145464874Y-83878009D01*
X145464874Y-83878009D02*
X145560112Y-83830390D01*
X145560112Y-83830390D02*
X145607731Y-83782771D01*
X145607731Y-83782771D02*
X145655350Y-83687533D01*
X145655350Y-83687533D02*
X145655350Y-83592295D01*
X145655350Y-83592295D02*
X145607731Y-83497057D01*
X145607731Y-83497057D02*
X145560112Y-83449438D01*
X145560112Y-83449438D02*
X145464874Y-83401819D01*
X145464874Y-83401819D02*
X145226779Y-83401819D01*
X145226779Y-83401819D02*
X145083922Y-83449438D01*
X144893446Y-84497057D02*
X144131541Y-84497057D01*
X143893445Y-84401819D02*
X143893445Y-83401819D01*
X143893445Y-83401819D02*
X143560112Y-84116104D01*
X143560112Y-84116104D02*
X143226779Y-83401819D01*
X143226779Y-83401819D02*
X143226779Y-84401819D01*
X142560112Y-83401819D02*
X142369636Y-83401819D01*
X142369636Y-83401819D02*
X142274398Y-83449438D01*
X142274398Y-83449438D02*
X142179160Y-83544676D01*
X142179160Y-83544676D02*
X142131541Y-83735152D01*
X142131541Y-83735152D02*
X142131541Y-84068485D01*
X142131541Y-84068485D02*
X142179160Y-84258961D01*
X142179160Y-84258961D02*
X142274398Y-84354200D01*
X142274398Y-84354200D02*
X142369636Y-84401819D01*
X142369636Y-84401819D02*
X142560112Y-84401819D01*
X142560112Y-84401819D02*
X142655350Y-84354200D01*
X142655350Y-84354200D02*
X142750588Y-84258961D01*
X142750588Y-84258961D02*
X142798207Y-84068485D01*
X142798207Y-84068485D02*
X142798207Y-83735152D01*
X142798207Y-83735152D02*
X142750588Y-83544676D01*
X142750588Y-83544676D02*
X142655350Y-83449438D01*
X142655350Y-83449438D02*
X142560112Y-83401819D01*
X141750588Y-84354200D02*
X141607731Y-84401819D01*
X141607731Y-84401819D02*
X141369636Y-84401819D01*
X141369636Y-84401819D02*
X141274398Y-84354200D01*
X141274398Y-84354200D02*
X141226779Y-84306580D01*
X141226779Y-84306580D02*
X141179160Y-84211342D01*
X141179160Y-84211342D02*
X141179160Y-84116104D01*
X141179160Y-84116104D02*
X141226779Y-84020866D01*
X141226779Y-84020866D02*
X141274398Y-83973247D01*
X141274398Y-83973247D02*
X141369636Y-83925628D01*
X141369636Y-83925628D02*
X141560112Y-83878009D01*
X141560112Y-83878009D02*
X141655350Y-83830390D01*
X141655350Y-83830390D02*
X141702969Y-83782771D01*
X141702969Y-83782771D02*
X141750588Y-83687533D01*
X141750588Y-83687533D02*
X141750588Y-83592295D01*
X141750588Y-83592295D02*
X141702969Y-83497057D01*
X141702969Y-83497057D02*
X141655350Y-83449438D01*
X141655350Y-83449438D02*
X141560112Y-83401819D01*
X141560112Y-83401819D02*
X141322017Y-83401819D01*
X141322017Y-83401819D02*
X141179160Y-83449438D01*
X140750588Y-84401819D02*
X140750588Y-83401819D01*
X139512493Y-84401819D02*
X139512493Y-83401819D01*
X139512493Y-83401819D02*
X139131541Y-83401819D01*
X139131541Y-83401819D02*
X139036303Y-83449438D01*
X139036303Y-83449438D02*
X138988684Y-83497057D01*
X138988684Y-83497057D02*
X138941065Y-83592295D01*
X138941065Y-83592295D02*
X138941065Y-83735152D01*
X138941065Y-83735152D02*
X138988684Y-83830390D01*
X138988684Y-83830390D02*
X139036303Y-83878009D01*
X139036303Y-83878009D02*
X139131541Y-83925628D01*
X139131541Y-83925628D02*
X139512493Y-83925628D01*
X138560112Y-84116104D02*
X138083922Y-84116104D01*
X138655350Y-84401819D02*
X138322017Y-83401819D01*
X138322017Y-83401819D02*
X137988684Y-84401819D01*
X137131541Y-84401819D02*
X137702969Y-84401819D01*
X137417255Y-84401819D02*
X137417255Y-83401819D01*
X137417255Y-83401819D02*
X137512493Y-83544676D01*
X137512493Y-83544676D02*
X137607731Y-83639914D01*
X137607731Y-83639914D02*
X137702969Y-83687533D01*
X136750588Y-83497057D02*
X136702969Y-83449438D01*
X136702969Y-83449438D02*
X136607731Y-83401819D01*
X136607731Y-83401819D02*
X136369636Y-83401819D01*
X136369636Y-83401819D02*
X136274398Y-83449438D01*
X136274398Y-83449438D02*
X136226779Y-83497057D01*
X136226779Y-83497057D02*
X136179160Y-83592295D01*
X136179160Y-83592295D02*
X136179160Y-83687533D01*
X136179160Y-83687533D02*
X136226779Y-83830390D01*
X136226779Y-83830390D02*
X136798207Y-84401819D01*
X136798207Y-84401819D02*
X136179160Y-84401819D01*
X117519220Y-94561819D02*
X117519220Y-93561819D01*
X117519220Y-93561819D02*
X117138268Y-93561819D01*
X117138268Y-93561819D02*
X117043030Y-93609438D01*
X117043030Y-93609438D02*
X116995411Y-93657057D01*
X116995411Y-93657057D02*
X116947792Y-93752295D01*
X116947792Y-93752295D02*
X116947792Y-93895152D01*
X116947792Y-93895152D02*
X116995411Y-93990390D01*
X116995411Y-93990390D02*
X117043030Y-94038009D01*
X117043030Y-94038009D02*
X117138268Y-94085628D01*
X117138268Y-94085628D02*
X117519220Y-94085628D01*
X116566839Y-94276104D02*
X116090649Y-94276104D01*
X116662077Y-94561819D02*
X116328744Y-93561819D01*
X116328744Y-93561819D02*
X115995411Y-94561819D01*
X115471601Y-93561819D02*
X115376363Y-93561819D01*
X115376363Y-93561819D02*
X115281125Y-93609438D01*
X115281125Y-93609438D02*
X115233506Y-93657057D01*
X115233506Y-93657057D02*
X115185887Y-93752295D01*
X115185887Y-93752295D02*
X115138268Y-93942771D01*
X115138268Y-93942771D02*
X115138268Y-94180866D01*
X115138268Y-94180866D02*
X115185887Y-94371342D01*
X115185887Y-94371342D02*
X115233506Y-94466580D01*
X115233506Y-94466580D02*
X115281125Y-94514200D01*
X115281125Y-94514200D02*
X115376363Y-94561819D01*
X115376363Y-94561819D02*
X115471601Y-94561819D01*
X115471601Y-94561819D02*
X115566839Y-94514200D01*
X115566839Y-94514200D02*
X115614458Y-94466580D01*
X115614458Y-94466580D02*
X115662077Y-94371342D01*
X115662077Y-94371342D02*
X115709696Y-94180866D01*
X115709696Y-94180866D02*
X115709696Y-93942771D01*
X115709696Y-93942771D02*
X115662077Y-93752295D01*
X115662077Y-93752295D02*
X115614458Y-93657057D01*
X115614458Y-93657057D02*
X115566839Y-93609438D01*
X115566839Y-93609438D02*
X115471601Y-93561819D01*
X114043029Y-93561819D02*
X113804934Y-94561819D01*
X113804934Y-94561819D02*
X113614458Y-93847533D01*
X113614458Y-93847533D02*
X113423982Y-94561819D01*
X113423982Y-94561819D02*
X113185887Y-93561819D01*
X112804934Y-94561819D02*
X112804934Y-93561819D01*
X112233506Y-94561819D02*
X112662077Y-93990390D01*
X112233506Y-93561819D02*
X112804934Y-94133247D01*
X111804934Y-93561819D02*
X111804934Y-94371342D01*
X111804934Y-94371342D02*
X111757315Y-94466580D01*
X111757315Y-94466580D02*
X111709696Y-94514200D01*
X111709696Y-94514200D02*
X111614458Y-94561819D01*
X111614458Y-94561819D02*
X111423982Y-94561819D01*
X111423982Y-94561819D02*
X111328744Y-94514200D01*
X111328744Y-94514200D02*
X111281125Y-94466580D01*
X111281125Y-94466580D02*
X111233506Y-94371342D01*
X111233506Y-94371342D02*
X111233506Y-93561819D01*
X110757315Y-94561819D02*
X110757315Y-93561819D01*
X110757315Y-93561819D02*
X110376363Y-93561819D01*
X110376363Y-93561819D02*
X110281125Y-93609438D01*
X110281125Y-93609438D02*
X110233506Y-93657057D01*
X110233506Y-93657057D02*
X110185887Y-93752295D01*
X110185887Y-93752295D02*
X110185887Y-93895152D01*
X110185887Y-93895152D02*
X110233506Y-93990390D01*
X110233506Y-93990390D02*
X110281125Y-94038009D01*
X110281125Y-94038009D02*
X110376363Y-94085628D01*
X110376363Y-94085628D02*
X110757315Y-94085628D01*
X109233506Y-94561819D02*
X109804934Y-94561819D01*
X109519220Y-94561819D02*
X109519220Y-93561819D01*
X109519220Y-93561819D02*
X109614458Y-93704676D01*
X109614458Y-93704676D02*
X109709696Y-93799914D01*
X109709696Y-93799914D02*
X109804934Y-93847533D01*
X117011220Y-101927819D02*
X117011220Y-100927819D01*
X117011220Y-100927819D02*
X116630268Y-100927819D01*
X116630268Y-100927819D02*
X116535030Y-100975438D01*
X116535030Y-100975438D02*
X116487411Y-101023057D01*
X116487411Y-101023057D02*
X116439792Y-101118295D01*
X116439792Y-101118295D02*
X116439792Y-101261152D01*
X116439792Y-101261152D02*
X116487411Y-101356390D01*
X116487411Y-101356390D02*
X116535030Y-101404009D01*
X116535030Y-101404009D02*
X116630268Y-101451628D01*
X116630268Y-101451628D02*
X117011220Y-101451628D01*
X116058839Y-101642104D02*
X115582649Y-101642104D01*
X116154077Y-101927819D02*
X115820744Y-100927819D01*
X115820744Y-100927819D02*
X115487411Y-101927819D01*
X115249315Y-100927819D02*
X114630268Y-100927819D01*
X114630268Y-100927819D02*
X114963601Y-101308771D01*
X114963601Y-101308771D02*
X114820744Y-101308771D01*
X114820744Y-101308771D02*
X114725506Y-101356390D01*
X114725506Y-101356390D02*
X114677887Y-101404009D01*
X114677887Y-101404009D02*
X114630268Y-101499247D01*
X114630268Y-101499247D02*
X114630268Y-101737342D01*
X114630268Y-101737342D02*
X114677887Y-101832580D01*
X114677887Y-101832580D02*
X114725506Y-101880200D01*
X114725506Y-101880200D02*
X114820744Y-101927819D01*
X114820744Y-101927819D02*
X115106458Y-101927819D01*
X115106458Y-101927819D02*
X115201696Y-101880200D01*
X115201696Y-101880200D02*
X115249315Y-101832580D01*
X113487410Y-101642104D02*
X113011220Y-101642104D01*
X113582648Y-101927819D02*
X113249315Y-100927819D01*
X113249315Y-100927819D02*
X112915982Y-101927819D01*
X112582648Y-101927819D02*
X112582648Y-100927819D01*
X112011220Y-101927819D02*
X112439791Y-101356390D01*
X112011220Y-100927819D02*
X112582648Y-101499247D01*
X111820744Y-102023057D02*
X111058839Y-102023057D01*
X110249315Y-101832580D02*
X110296934Y-101880200D01*
X110296934Y-101880200D02*
X110439791Y-101927819D01*
X110439791Y-101927819D02*
X110535029Y-101927819D01*
X110535029Y-101927819D02*
X110677886Y-101880200D01*
X110677886Y-101880200D02*
X110773124Y-101784961D01*
X110773124Y-101784961D02*
X110820743Y-101689723D01*
X110820743Y-101689723D02*
X110868362Y-101499247D01*
X110868362Y-101499247D02*
X110868362Y-101356390D01*
X110868362Y-101356390D02*
X110820743Y-101165914D01*
X110820743Y-101165914D02*
X110773124Y-101070676D01*
X110773124Y-101070676D02*
X110677886Y-100975438D01*
X110677886Y-100975438D02*
X110535029Y-100927819D01*
X110535029Y-100927819D02*
X110439791Y-100927819D01*
X110439791Y-100927819D02*
X110296934Y-100975438D01*
X110296934Y-100975438D02*
X110249315Y-101023057D01*
X109868362Y-101880200D02*
X109725505Y-101927819D01*
X109725505Y-101927819D02*
X109487410Y-101927819D01*
X109487410Y-101927819D02*
X109392172Y-101880200D01*
X109392172Y-101880200D02*
X109344553Y-101832580D01*
X109344553Y-101832580D02*
X109296934Y-101737342D01*
X109296934Y-101737342D02*
X109296934Y-101642104D01*
X109296934Y-101642104D02*
X109344553Y-101546866D01*
X109344553Y-101546866D02*
X109392172Y-101499247D01*
X109392172Y-101499247D02*
X109487410Y-101451628D01*
X109487410Y-101451628D02*
X109677886Y-101404009D01*
X109677886Y-101404009D02*
X109773124Y-101356390D01*
X109773124Y-101356390D02*
X109820743Y-101308771D01*
X109820743Y-101308771D02*
X109868362Y-101213533D01*
X109868362Y-101213533D02*
X109868362Y-101118295D01*
X109868362Y-101118295D02*
X109820743Y-101023057D01*
X109820743Y-101023057D02*
X109773124Y-100975438D01*
X109773124Y-100975438D02*
X109677886Y-100927819D01*
X109677886Y-100927819D02*
X109439791Y-100927819D01*
X109439791Y-100927819D02*
X109296934Y-100975438D01*
X117773220Y-99514819D02*
X117773220Y-98514819D01*
X117773220Y-98514819D02*
X117392268Y-98514819D01*
X117392268Y-98514819D02*
X117297030Y-98562438D01*
X117297030Y-98562438D02*
X117249411Y-98610057D01*
X117249411Y-98610057D02*
X117201792Y-98705295D01*
X117201792Y-98705295D02*
X117201792Y-98848152D01*
X117201792Y-98848152D02*
X117249411Y-98943390D01*
X117249411Y-98943390D02*
X117297030Y-98991009D01*
X117297030Y-98991009D02*
X117392268Y-99038628D01*
X117392268Y-99038628D02*
X117773220Y-99038628D01*
X116820839Y-99229104D02*
X116344649Y-99229104D01*
X116916077Y-99514819D02*
X116582744Y-98514819D01*
X116582744Y-98514819D02*
X116249411Y-99514819D01*
X115963696Y-98610057D02*
X115916077Y-98562438D01*
X115916077Y-98562438D02*
X115820839Y-98514819D01*
X115820839Y-98514819D02*
X115582744Y-98514819D01*
X115582744Y-98514819D02*
X115487506Y-98562438D01*
X115487506Y-98562438D02*
X115439887Y-98610057D01*
X115439887Y-98610057D02*
X115392268Y-98705295D01*
X115392268Y-98705295D02*
X115392268Y-98800533D01*
X115392268Y-98800533D02*
X115439887Y-98943390D01*
X115439887Y-98943390D02*
X116011315Y-99514819D01*
X116011315Y-99514819D02*
X115392268Y-99514819D01*
X114249410Y-99229104D02*
X113773220Y-99229104D01*
X114344648Y-99514819D02*
X114011315Y-98514819D01*
X114011315Y-98514819D02*
X113677982Y-99514819D01*
X113344648Y-99514819D02*
X113344648Y-98514819D01*
X112773220Y-99514819D02*
X113201791Y-98943390D01*
X112773220Y-98514819D02*
X113344648Y-99086247D01*
X112582744Y-99610057D02*
X111820839Y-99610057D01*
X111725600Y-98514819D02*
X111154172Y-98514819D01*
X111439886Y-99514819D02*
X111439886Y-98514819D01*
X110249410Y-99514819D02*
X110582743Y-99038628D01*
X110820838Y-99514819D02*
X110820838Y-98514819D01*
X110820838Y-98514819D02*
X110439886Y-98514819D01*
X110439886Y-98514819D02*
X110344648Y-98562438D01*
X110344648Y-98562438D02*
X110297029Y-98610057D01*
X110297029Y-98610057D02*
X110249410Y-98705295D01*
X110249410Y-98705295D02*
X110249410Y-98848152D01*
X110249410Y-98848152D02*
X110297029Y-98943390D01*
X110297029Y-98943390D02*
X110344648Y-98991009D01*
X110344648Y-98991009D02*
X110439886Y-99038628D01*
X110439886Y-99038628D02*
X110820838Y-99038628D01*
X109297029Y-98562438D02*
X109392267Y-98514819D01*
X109392267Y-98514819D02*
X109535124Y-98514819D01*
X109535124Y-98514819D02*
X109677981Y-98562438D01*
X109677981Y-98562438D02*
X109773219Y-98657676D01*
X109773219Y-98657676D02*
X109820838Y-98752914D01*
X109820838Y-98752914D02*
X109868457Y-98943390D01*
X109868457Y-98943390D02*
X109868457Y-99086247D01*
X109868457Y-99086247D02*
X109820838Y-99276723D01*
X109820838Y-99276723D02*
X109773219Y-99371961D01*
X109773219Y-99371961D02*
X109677981Y-99467200D01*
X109677981Y-99467200D02*
X109535124Y-99514819D01*
X109535124Y-99514819D02*
X109439886Y-99514819D01*
X109439886Y-99514819D02*
X109297029Y-99467200D01*
X109297029Y-99467200D02*
X109249410Y-99419580D01*
X109249410Y-99419580D02*
X109249410Y-99086247D01*
X109249410Y-99086247D02*
X109439886Y-99086247D01*
X147450207Y-96974819D02*
X147450207Y-95974819D01*
X147450207Y-95974819D02*
X146878779Y-96974819D01*
X146878779Y-96974819D02*
X146878779Y-95974819D01*
X145831160Y-96879580D02*
X145878779Y-96927200D01*
X145878779Y-96927200D02*
X146021636Y-96974819D01*
X146021636Y-96974819D02*
X146116874Y-96974819D01*
X146116874Y-96974819D02*
X146259731Y-96927200D01*
X146259731Y-96927200D02*
X146354969Y-96831961D01*
X146354969Y-96831961D02*
X146402588Y-96736723D01*
X146402588Y-96736723D02*
X146450207Y-96546247D01*
X146450207Y-96546247D02*
X146450207Y-96403390D01*
X146450207Y-96403390D02*
X146402588Y-96212914D01*
X146402588Y-96212914D02*
X146354969Y-96117676D01*
X146354969Y-96117676D02*
X146259731Y-96022438D01*
X146259731Y-96022438D02*
X146116874Y-95974819D01*
X146116874Y-95974819D02*
X146021636Y-95974819D01*
X146021636Y-95974819D02*
X145878779Y-96022438D01*
X145878779Y-96022438D02*
X145831160Y-96070057D01*
X147450207Y-99641819D02*
X147450207Y-98641819D01*
X147450207Y-98641819D02*
X146878779Y-99641819D01*
X146878779Y-99641819D02*
X146878779Y-98641819D01*
X145831160Y-99546580D02*
X145878779Y-99594200D01*
X145878779Y-99594200D02*
X146021636Y-99641819D01*
X146021636Y-99641819D02*
X146116874Y-99641819D01*
X146116874Y-99641819D02*
X146259731Y-99594200D01*
X146259731Y-99594200D02*
X146354969Y-99498961D01*
X146354969Y-99498961D02*
X146402588Y-99403723D01*
X146402588Y-99403723D02*
X146450207Y-99213247D01*
X146450207Y-99213247D02*
X146450207Y-99070390D01*
X146450207Y-99070390D02*
X146402588Y-98879914D01*
X146402588Y-98879914D02*
X146354969Y-98784676D01*
X146354969Y-98784676D02*
X146259731Y-98689438D01*
X146259731Y-98689438D02*
X146116874Y-98641819D01*
X146116874Y-98641819D02*
X146021636Y-98641819D01*
X146021636Y-98641819D02*
X145878779Y-98689438D01*
X145878779Y-98689438D02*
X145831160Y-98737057D01*
X119678220Y-109674819D02*
X119678220Y-108674819D01*
X119678220Y-108674819D02*
X119297268Y-108674819D01*
X119297268Y-108674819D02*
X119202030Y-108722438D01*
X119202030Y-108722438D02*
X119154411Y-108770057D01*
X119154411Y-108770057D02*
X119106792Y-108865295D01*
X119106792Y-108865295D02*
X119106792Y-109008152D01*
X119106792Y-109008152D02*
X119154411Y-109103390D01*
X119154411Y-109103390D02*
X119202030Y-109151009D01*
X119202030Y-109151009D02*
X119297268Y-109198628D01*
X119297268Y-109198628D02*
X119678220Y-109198628D01*
X118725839Y-109389104D02*
X118249649Y-109389104D01*
X118821077Y-109674819D02*
X118487744Y-108674819D01*
X118487744Y-108674819D02*
X118154411Y-109674819D01*
X117392506Y-108674819D02*
X117582982Y-108674819D01*
X117582982Y-108674819D02*
X117678220Y-108722438D01*
X117678220Y-108722438D02*
X117725839Y-108770057D01*
X117725839Y-108770057D02*
X117821077Y-108912914D01*
X117821077Y-108912914D02*
X117868696Y-109103390D01*
X117868696Y-109103390D02*
X117868696Y-109484342D01*
X117868696Y-109484342D02*
X117821077Y-109579580D01*
X117821077Y-109579580D02*
X117773458Y-109627200D01*
X117773458Y-109627200D02*
X117678220Y-109674819D01*
X117678220Y-109674819D02*
X117487744Y-109674819D01*
X117487744Y-109674819D02*
X117392506Y-109627200D01*
X117392506Y-109627200D02*
X117344887Y-109579580D01*
X117344887Y-109579580D02*
X117297268Y-109484342D01*
X117297268Y-109484342D02*
X117297268Y-109246247D01*
X117297268Y-109246247D02*
X117344887Y-109151009D01*
X117344887Y-109151009D02*
X117392506Y-109103390D01*
X117392506Y-109103390D02*
X117487744Y-109055771D01*
X117487744Y-109055771D02*
X117678220Y-109055771D01*
X117678220Y-109055771D02*
X117773458Y-109103390D01*
X117773458Y-109103390D02*
X117821077Y-109151009D01*
X117821077Y-109151009D02*
X117868696Y-109246247D01*
X115630601Y-109674819D02*
X116106791Y-109674819D01*
X116106791Y-109674819D02*
X116106791Y-108674819D01*
X115344886Y-109627200D02*
X115202029Y-109674819D01*
X115202029Y-109674819D02*
X114963934Y-109674819D01*
X114963934Y-109674819D02*
X114868696Y-109627200D01*
X114868696Y-109627200D02*
X114821077Y-109579580D01*
X114821077Y-109579580D02*
X114773458Y-109484342D01*
X114773458Y-109484342D02*
X114773458Y-109389104D01*
X114773458Y-109389104D02*
X114821077Y-109293866D01*
X114821077Y-109293866D02*
X114868696Y-109246247D01*
X114868696Y-109246247D02*
X114963934Y-109198628D01*
X114963934Y-109198628D02*
X115154410Y-109151009D01*
X115154410Y-109151009D02*
X115249648Y-109103390D01*
X115249648Y-109103390D02*
X115297267Y-109055771D01*
X115297267Y-109055771D02*
X115344886Y-108960533D01*
X115344886Y-108960533D02*
X115344886Y-108865295D01*
X115344886Y-108865295D02*
X115297267Y-108770057D01*
X115297267Y-108770057D02*
X115249648Y-108722438D01*
X115249648Y-108722438D02*
X115154410Y-108674819D01*
X115154410Y-108674819D02*
X114916315Y-108674819D01*
X114916315Y-108674819D02*
X114773458Y-108722438D01*
X114344886Y-109674819D02*
X114344886Y-108674819D01*
X114344886Y-108674819D02*
X114011553Y-109389104D01*
X114011553Y-109389104D02*
X113678220Y-108674819D01*
X113678220Y-108674819D02*
X113678220Y-109674819D01*
X113440125Y-109770057D02*
X112678220Y-109770057D01*
X112440124Y-109674819D02*
X112440124Y-108674819D01*
X112440124Y-108674819D02*
X112106791Y-109389104D01*
X112106791Y-109389104D02*
X111773458Y-108674819D01*
X111773458Y-108674819D02*
X111773458Y-109674819D01*
X111297267Y-109674819D02*
X111297267Y-108674819D01*
X110868696Y-109627200D02*
X110725839Y-109674819D01*
X110725839Y-109674819D02*
X110487744Y-109674819D01*
X110487744Y-109674819D02*
X110392506Y-109627200D01*
X110392506Y-109627200D02*
X110344887Y-109579580D01*
X110344887Y-109579580D02*
X110297268Y-109484342D01*
X110297268Y-109484342D02*
X110297268Y-109389104D01*
X110297268Y-109389104D02*
X110344887Y-109293866D01*
X110344887Y-109293866D02*
X110392506Y-109246247D01*
X110392506Y-109246247D02*
X110487744Y-109198628D01*
X110487744Y-109198628D02*
X110678220Y-109151009D01*
X110678220Y-109151009D02*
X110773458Y-109103390D01*
X110773458Y-109103390D02*
X110821077Y-109055771D01*
X110821077Y-109055771D02*
X110868696Y-108960533D01*
X110868696Y-108960533D02*
X110868696Y-108865295D01*
X110868696Y-108865295D02*
X110821077Y-108770057D01*
X110821077Y-108770057D02*
X110773458Y-108722438D01*
X110773458Y-108722438D02*
X110678220Y-108674819D01*
X110678220Y-108674819D02*
X110440125Y-108674819D01*
X110440125Y-108674819D02*
X110297268Y-108722438D01*
X109678220Y-108674819D02*
X109487744Y-108674819D01*
X109487744Y-108674819D02*
X109392506Y-108722438D01*
X109392506Y-108722438D02*
X109297268Y-108817676D01*
X109297268Y-108817676D02*
X109249649Y-109008152D01*
X109249649Y-109008152D02*
X109249649Y-109341485D01*
X109249649Y-109341485D02*
X109297268Y-109531961D01*
X109297268Y-109531961D02*
X109392506Y-109627200D01*
X109392506Y-109627200D02*
X109487744Y-109674819D01*
X109487744Y-109674819D02*
X109678220Y-109674819D01*
X109678220Y-109674819D02*
X109773458Y-109627200D01*
X109773458Y-109627200D02*
X109868696Y-109531961D01*
X109868696Y-109531961D02*
X109916315Y-109341485D01*
X109916315Y-109341485D02*
X109916315Y-109008152D01*
X109916315Y-109008152D02*
X109868696Y-108817676D01*
X109868696Y-108817676D02*
X109773458Y-108722438D01*
X109773458Y-108722438D02*
X109678220Y-108674819D01*
X147704207Y-107134819D02*
X147704207Y-106134819D01*
X147704207Y-106134819D02*
X147132779Y-107134819D01*
X147132779Y-107134819D02*
X147132779Y-106134819D01*
X146085160Y-107039580D02*
X146132779Y-107087200D01*
X146132779Y-107087200D02*
X146275636Y-107134819D01*
X146275636Y-107134819D02*
X146370874Y-107134819D01*
X146370874Y-107134819D02*
X146513731Y-107087200D01*
X146513731Y-107087200D02*
X146608969Y-106991961D01*
X146608969Y-106991961D02*
X146656588Y-106896723D01*
X146656588Y-106896723D02*
X146704207Y-106706247D01*
X146704207Y-106706247D02*
X146704207Y-106563390D01*
X146704207Y-106563390D02*
X146656588Y-106372914D01*
X146656588Y-106372914D02*
X146608969Y-106277676D01*
X146608969Y-106277676D02*
X146513731Y-106182438D01*
X146513731Y-106182438D02*
X146370874Y-106134819D01*
X146370874Y-106134819D02*
X146275636Y-106134819D01*
X146275636Y-106134819D02*
X146132779Y-106182438D01*
X146132779Y-106182438D02*
X146085160Y-106230057D01*
X118154220Y-114754819D02*
X118154220Y-113754819D01*
X118154220Y-113754819D02*
X117773268Y-113754819D01*
X117773268Y-113754819D02*
X117678030Y-113802438D01*
X117678030Y-113802438D02*
X117630411Y-113850057D01*
X117630411Y-113850057D02*
X117582792Y-113945295D01*
X117582792Y-113945295D02*
X117582792Y-114088152D01*
X117582792Y-114088152D02*
X117630411Y-114183390D01*
X117630411Y-114183390D02*
X117678030Y-114231009D01*
X117678030Y-114231009D02*
X117773268Y-114278628D01*
X117773268Y-114278628D02*
X118154220Y-114278628D01*
X116820887Y-114231009D02*
X116678030Y-114278628D01*
X116678030Y-114278628D02*
X116630411Y-114326247D01*
X116630411Y-114326247D02*
X116582792Y-114421485D01*
X116582792Y-114421485D02*
X116582792Y-114564342D01*
X116582792Y-114564342D02*
X116630411Y-114659580D01*
X116630411Y-114659580D02*
X116678030Y-114707200D01*
X116678030Y-114707200D02*
X116773268Y-114754819D01*
X116773268Y-114754819D02*
X117154220Y-114754819D01*
X117154220Y-114754819D02*
X117154220Y-113754819D01*
X117154220Y-113754819D02*
X116820887Y-113754819D01*
X116820887Y-113754819D02*
X116725649Y-113802438D01*
X116725649Y-113802438D02*
X116678030Y-113850057D01*
X116678030Y-113850057D02*
X116630411Y-113945295D01*
X116630411Y-113945295D02*
X116630411Y-114040533D01*
X116630411Y-114040533D02*
X116678030Y-114135771D01*
X116678030Y-114135771D02*
X116725649Y-114183390D01*
X116725649Y-114183390D02*
X116820887Y-114231009D01*
X116820887Y-114231009D02*
X117154220Y-114231009D01*
X115963744Y-113754819D02*
X115868506Y-113754819D01*
X115868506Y-113754819D02*
X115773268Y-113802438D01*
X115773268Y-113802438D02*
X115725649Y-113850057D01*
X115725649Y-113850057D02*
X115678030Y-113945295D01*
X115678030Y-113945295D02*
X115630411Y-114135771D01*
X115630411Y-114135771D02*
X115630411Y-114373866D01*
X115630411Y-114373866D02*
X115678030Y-114564342D01*
X115678030Y-114564342D02*
X115725649Y-114659580D01*
X115725649Y-114659580D02*
X115773268Y-114707200D01*
X115773268Y-114707200D02*
X115868506Y-114754819D01*
X115868506Y-114754819D02*
X115963744Y-114754819D01*
X115963744Y-114754819D02*
X116058982Y-114707200D01*
X116058982Y-114707200D02*
X116106601Y-114659580D01*
X116106601Y-114659580D02*
X116154220Y-114564342D01*
X116154220Y-114564342D02*
X116201839Y-114373866D01*
X116201839Y-114373866D02*
X116201839Y-114135771D01*
X116201839Y-114135771D02*
X116154220Y-113945295D01*
X116154220Y-113945295D02*
X116106601Y-113850057D01*
X116106601Y-113850057D02*
X116058982Y-113802438D01*
X116058982Y-113802438D02*
X115963744Y-113754819D01*
X113963744Y-114754819D02*
X114439934Y-114754819D01*
X114439934Y-114754819D02*
X114439934Y-113754819D01*
X113678029Y-114707200D02*
X113535172Y-114754819D01*
X113535172Y-114754819D02*
X113297077Y-114754819D01*
X113297077Y-114754819D02*
X113201839Y-114707200D01*
X113201839Y-114707200D02*
X113154220Y-114659580D01*
X113154220Y-114659580D02*
X113106601Y-114564342D01*
X113106601Y-114564342D02*
X113106601Y-114469104D01*
X113106601Y-114469104D02*
X113154220Y-114373866D01*
X113154220Y-114373866D02*
X113201839Y-114326247D01*
X113201839Y-114326247D02*
X113297077Y-114278628D01*
X113297077Y-114278628D02*
X113487553Y-114231009D01*
X113487553Y-114231009D02*
X113582791Y-114183390D01*
X113582791Y-114183390D02*
X113630410Y-114135771D01*
X113630410Y-114135771D02*
X113678029Y-114040533D01*
X113678029Y-114040533D02*
X113678029Y-113945295D01*
X113678029Y-113945295D02*
X113630410Y-113850057D01*
X113630410Y-113850057D02*
X113582791Y-113802438D01*
X113582791Y-113802438D02*
X113487553Y-113754819D01*
X113487553Y-113754819D02*
X113249458Y-113754819D01*
X113249458Y-113754819D02*
X113106601Y-113802438D01*
X112678029Y-114754819D02*
X112678029Y-113754819D01*
X112678029Y-113754819D02*
X112344696Y-114469104D01*
X112344696Y-114469104D02*
X112011363Y-113754819D01*
X112011363Y-113754819D02*
X112011363Y-114754819D01*
X111773268Y-114850057D02*
X111011363Y-114850057D01*
X110201839Y-114659580D02*
X110249458Y-114707200D01*
X110249458Y-114707200D02*
X110392315Y-114754819D01*
X110392315Y-114754819D02*
X110487553Y-114754819D01*
X110487553Y-114754819D02*
X110630410Y-114707200D01*
X110630410Y-114707200D02*
X110725648Y-114611961D01*
X110725648Y-114611961D02*
X110773267Y-114516723D01*
X110773267Y-114516723D02*
X110820886Y-114326247D01*
X110820886Y-114326247D02*
X110820886Y-114183390D01*
X110820886Y-114183390D02*
X110773267Y-113992914D01*
X110773267Y-113992914D02*
X110725648Y-113897676D01*
X110725648Y-113897676D02*
X110630410Y-113802438D01*
X110630410Y-113802438D02*
X110487553Y-113754819D01*
X110487553Y-113754819D02*
X110392315Y-113754819D01*
X110392315Y-113754819D02*
X110249458Y-113802438D01*
X110249458Y-113802438D02*
X110201839Y-113850057D01*
X109820886Y-114707200D02*
X109678029Y-114754819D01*
X109678029Y-114754819D02*
X109439934Y-114754819D01*
X109439934Y-114754819D02*
X109344696Y-114707200D01*
X109344696Y-114707200D02*
X109297077Y-114659580D01*
X109297077Y-114659580D02*
X109249458Y-114564342D01*
X109249458Y-114564342D02*
X109249458Y-114469104D01*
X109249458Y-114469104D02*
X109297077Y-114373866D01*
X109297077Y-114373866D02*
X109344696Y-114326247D01*
X109344696Y-114326247D02*
X109439934Y-114278628D01*
X109439934Y-114278628D02*
X109630410Y-114231009D01*
X109630410Y-114231009D02*
X109725648Y-114183390D01*
X109725648Y-114183390D02*
X109773267Y-114135771D01*
X109773267Y-114135771D02*
X109820886Y-114040533D01*
X109820886Y-114040533D02*
X109820886Y-113945295D01*
X109820886Y-113945295D02*
X109773267Y-113850057D01*
X109773267Y-113850057D02*
X109725648Y-113802438D01*
X109725648Y-113802438D02*
X109630410Y-113754819D01*
X109630410Y-113754819D02*
X109392315Y-113754819D01*
X109392315Y-113754819D02*
X109249458Y-113802438D01*
X147450207Y-102181819D02*
X147450207Y-101181819D01*
X147450207Y-101181819D02*
X146878779Y-102181819D01*
X146878779Y-102181819D02*
X146878779Y-101181819D01*
X145831160Y-102086580D02*
X145878779Y-102134200D01*
X145878779Y-102134200D02*
X146021636Y-102181819D01*
X146021636Y-102181819D02*
X146116874Y-102181819D01*
X146116874Y-102181819D02*
X146259731Y-102134200D01*
X146259731Y-102134200D02*
X146354969Y-102038961D01*
X146354969Y-102038961D02*
X146402588Y-101943723D01*
X146402588Y-101943723D02*
X146450207Y-101753247D01*
X146450207Y-101753247D02*
X146450207Y-101610390D01*
X146450207Y-101610390D02*
X146402588Y-101419914D01*
X146402588Y-101419914D02*
X146354969Y-101324676D01*
X146354969Y-101324676D02*
X146259731Y-101229438D01*
X146259731Y-101229438D02*
X146116874Y-101181819D01*
X146116874Y-101181819D02*
X146021636Y-101181819D01*
X146021636Y-101181819D02*
X145878779Y-101229438D01*
X145878779Y-101229438D02*
X145831160Y-101277057D01*
X117900220Y-107134819D02*
X117900220Y-106134819D01*
X117900220Y-106134819D02*
X117519268Y-106134819D01*
X117519268Y-106134819D02*
X117424030Y-106182438D01*
X117424030Y-106182438D02*
X117376411Y-106230057D01*
X117376411Y-106230057D02*
X117328792Y-106325295D01*
X117328792Y-106325295D02*
X117328792Y-106468152D01*
X117328792Y-106468152D02*
X117376411Y-106563390D01*
X117376411Y-106563390D02*
X117424030Y-106611009D01*
X117424030Y-106611009D02*
X117519268Y-106658628D01*
X117519268Y-106658628D02*
X117900220Y-106658628D01*
X116947839Y-106849104D02*
X116471649Y-106849104D01*
X117043077Y-107134819D02*
X116709744Y-106134819D01*
X116709744Y-106134819D02*
X116376411Y-107134819D01*
X115566887Y-106134819D02*
X116043077Y-106134819D01*
X116043077Y-106134819D02*
X116090696Y-106611009D01*
X116090696Y-106611009D02*
X116043077Y-106563390D01*
X116043077Y-106563390D02*
X115947839Y-106515771D01*
X115947839Y-106515771D02*
X115709744Y-106515771D01*
X115709744Y-106515771D02*
X115614506Y-106563390D01*
X115614506Y-106563390D02*
X115566887Y-106611009D01*
X115566887Y-106611009D02*
X115519268Y-106706247D01*
X115519268Y-106706247D02*
X115519268Y-106944342D01*
X115519268Y-106944342D02*
X115566887Y-107039580D01*
X115566887Y-107039580D02*
X115614506Y-107087200D01*
X115614506Y-107087200D02*
X115709744Y-107134819D01*
X115709744Y-107134819D02*
X115947839Y-107134819D01*
X115947839Y-107134819D02*
X116043077Y-107087200D01*
X116043077Y-107087200D02*
X116090696Y-107039580D01*
X113852601Y-107134819D02*
X114328791Y-107134819D01*
X114328791Y-107134819D02*
X114328791Y-106134819D01*
X113519267Y-107134819D02*
X113519267Y-106134819D01*
X113519267Y-106134819D02*
X113185934Y-106849104D01*
X113185934Y-106849104D02*
X112852601Y-106134819D01*
X112852601Y-106134819D02*
X112852601Y-107134819D01*
X112424029Y-107087200D02*
X112281172Y-107134819D01*
X112281172Y-107134819D02*
X112043077Y-107134819D01*
X112043077Y-107134819D02*
X111947839Y-107087200D01*
X111947839Y-107087200D02*
X111900220Y-107039580D01*
X111900220Y-107039580D02*
X111852601Y-106944342D01*
X111852601Y-106944342D02*
X111852601Y-106849104D01*
X111852601Y-106849104D02*
X111900220Y-106753866D01*
X111900220Y-106753866D02*
X111947839Y-106706247D01*
X111947839Y-106706247D02*
X112043077Y-106658628D01*
X112043077Y-106658628D02*
X112233553Y-106611009D01*
X112233553Y-106611009D02*
X112328791Y-106563390D01*
X112328791Y-106563390D02*
X112376410Y-106515771D01*
X112376410Y-106515771D02*
X112424029Y-106420533D01*
X112424029Y-106420533D02*
X112424029Y-106325295D01*
X112424029Y-106325295D02*
X112376410Y-106230057D01*
X112376410Y-106230057D02*
X112328791Y-106182438D01*
X112328791Y-106182438D02*
X112233553Y-106134819D01*
X112233553Y-106134819D02*
X111995458Y-106134819D01*
X111995458Y-106134819D02*
X111852601Y-106182438D01*
X111662125Y-107230057D02*
X110900220Y-107230057D01*
X110090696Y-107039580D02*
X110138315Y-107087200D01*
X110138315Y-107087200D02*
X110281172Y-107134819D01*
X110281172Y-107134819D02*
X110376410Y-107134819D01*
X110376410Y-107134819D02*
X110519267Y-107087200D01*
X110519267Y-107087200D02*
X110614505Y-106991961D01*
X110614505Y-106991961D02*
X110662124Y-106896723D01*
X110662124Y-106896723D02*
X110709743Y-106706247D01*
X110709743Y-106706247D02*
X110709743Y-106563390D01*
X110709743Y-106563390D02*
X110662124Y-106372914D01*
X110662124Y-106372914D02*
X110614505Y-106277676D01*
X110614505Y-106277676D02*
X110519267Y-106182438D01*
X110519267Y-106182438D02*
X110376410Y-106134819D01*
X110376410Y-106134819D02*
X110281172Y-106134819D01*
X110281172Y-106134819D02*
X110138315Y-106182438D01*
X110138315Y-106182438D02*
X110090696Y-106230057D01*
X109662124Y-107134819D02*
X109662124Y-106134819D01*
X109090696Y-107134819D02*
X109519267Y-106563390D01*
X109090696Y-106134819D02*
X109662124Y-106706247D01*
X111804220Y-104721819D02*
X111804220Y-103721819D01*
X111804220Y-103721819D02*
X111423268Y-103721819D01*
X111423268Y-103721819D02*
X111328030Y-103769438D01*
X111328030Y-103769438D02*
X111280411Y-103817057D01*
X111280411Y-103817057D02*
X111232792Y-103912295D01*
X111232792Y-103912295D02*
X111232792Y-104055152D01*
X111232792Y-104055152D02*
X111280411Y-104150390D01*
X111280411Y-104150390D02*
X111328030Y-104198009D01*
X111328030Y-104198009D02*
X111423268Y-104245628D01*
X111423268Y-104245628D02*
X111804220Y-104245628D01*
X110851839Y-104436104D02*
X110375649Y-104436104D01*
X110947077Y-104721819D02*
X110613744Y-103721819D01*
X110613744Y-103721819D02*
X110280411Y-104721819D01*
X109518506Y-104055152D02*
X109518506Y-104721819D01*
X109756601Y-103674200D02*
X109994696Y-104388485D01*
X109994696Y-104388485D02*
X109375649Y-104388485D01*
X147577207Y-109801819D02*
X147577207Y-108801819D01*
X147577207Y-108801819D02*
X147005779Y-109801819D01*
X147005779Y-109801819D02*
X147005779Y-108801819D01*
X145958160Y-109706580D02*
X146005779Y-109754200D01*
X146005779Y-109754200D02*
X146148636Y-109801819D01*
X146148636Y-109801819D02*
X146243874Y-109801819D01*
X146243874Y-109801819D02*
X146386731Y-109754200D01*
X146386731Y-109754200D02*
X146481969Y-109658961D01*
X146481969Y-109658961D02*
X146529588Y-109563723D01*
X146529588Y-109563723D02*
X146577207Y-109373247D01*
X146577207Y-109373247D02*
X146577207Y-109230390D01*
X146577207Y-109230390D02*
X146529588Y-109039914D01*
X146529588Y-109039914D02*
X146481969Y-108944676D01*
X146481969Y-108944676D02*
X146386731Y-108849438D01*
X146386731Y-108849438D02*
X146243874Y-108801819D01*
X146243874Y-108801819D02*
X146148636Y-108801819D01*
X146148636Y-108801819D02*
X146005779Y-108849438D01*
X146005779Y-108849438D02*
X145958160Y-108897057D01*
X147179398Y-79194819D02*
X147179398Y-78194819D01*
X147179398Y-78194819D02*
X146846065Y-78909104D01*
X146846065Y-78909104D02*
X146512732Y-78194819D01*
X146512732Y-78194819D02*
X146512732Y-79194819D01*
X146131779Y-78194819D02*
X145465113Y-79194819D01*
X145465113Y-78194819D02*
X146131779Y-79194819D01*
X145322256Y-79290057D02*
X144560351Y-79290057D01*
X144369874Y-79147200D02*
X144227017Y-79194819D01*
X144227017Y-79194819D02*
X143988922Y-79194819D01*
X143988922Y-79194819D02*
X143893684Y-79147200D01*
X143893684Y-79147200D02*
X143846065Y-79099580D01*
X143846065Y-79099580D02*
X143798446Y-79004342D01*
X143798446Y-79004342D02*
X143798446Y-78909104D01*
X143798446Y-78909104D02*
X143846065Y-78813866D01*
X143846065Y-78813866D02*
X143893684Y-78766247D01*
X143893684Y-78766247D02*
X143988922Y-78718628D01*
X143988922Y-78718628D02*
X144179398Y-78671009D01*
X144179398Y-78671009D02*
X144274636Y-78623390D01*
X144274636Y-78623390D02*
X144322255Y-78575771D01*
X144322255Y-78575771D02*
X144369874Y-78480533D01*
X144369874Y-78480533D02*
X144369874Y-78385295D01*
X144369874Y-78385295D02*
X144322255Y-78290057D01*
X144322255Y-78290057D02*
X144274636Y-78242438D01*
X144274636Y-78242438D02*
X144179398Y-78194819D01*
X144179398Y-78194819D02*
X143941303Y-78194819D01*
X143941303Y-78194819D02*
X143798446Y-78242438D01*
X142798446Y-79099580D02*
X142846065Y-79147200D01*
X142846065Y-79147200D02*
X142988922Y-79194819D01*
X142988922Y-79194819D02*
X143084160Y-79194819D01*
X143084160Y-79194819D02*
X143227017Y-79147200D01*
X143227017Y-79147200D02*
X143322255Y-79051961D01*
X143322255Y-79051961D02*
X143369874Y-78956723D01*
X143369874Y-78956723D02*
X143417493Y-78766247D01*
X143417493Y-78766247D02*
X143417493Y-78623390D01*
X143417493Y-78623390D02*
X143369874Y-78432914D01*
X143369874Y-78432914D02*
X143322255Y-78337676D01*
X143322255Y-78337676D02*
X143227017Y-78242438D01*
X143227017Y-78242438D02*
X143084160Y-78194819D01*
X143084160Y-78194819D02*
X142988922Y-78194819D01*
X142988922Y-78194819D02*
X142846065Y-78242438D01*
X142846065Y-78242438D02*
X142798446Y-78290057D01*
X142369874Y-79194819D02*
X142369874Y-78194819D01*
X141798446Y-79194819D02*
X142227017Y-78623390D01*
X141798446Y-78194819D02*
X142369874Y-78766247D01*
X140607969Y-79194819D02*
X140607969Y-78194819D01*
X140607969Y-78194819D02*
X140227017Y-78194819D01*
X140227017Y-78194819D02*
X140131779Y-78242438D01*
X140131779Y-78242438D02*
X140084160Y-78290057D01*
X140084160Y-78290057D02*
X140036541Y-78385295D01*
X140036541Y-78385295D02*
X140036541Y-78528152D01*
X140036541Y-78528152D02*
X140084160Y-78623390D01*
X140084160Y-78623390D02*
X140131779Y-78671009D01*
X140131779Y-78671009D02*
X140227017Y-78718628D01*
X140227017Y-78718628D02*
X140607969Y-78718628D01*
X139274636Y-78671009D02*
X139131779Y-78718628D01*
X139131779Y-78718628D02*
X139084160Y-78766247D01*
X139084160Y-78766247D02*
X139036541Y-78861485D01*
X139036541Y-78861485D02*
X139036541Y-79004342D01*
X139036541Y-79004342D02*
X139084160Y-79099580D01*
X139084160Y-79099580D02*
X139131779Y-79147200D01*
X139131779Y-79147200D02*
X139227017Y-79194819D01*
X139227017Y-79194819D02*
X139607969Y-79194819D01*
X139607969Y-79194819D02*
X139607969Y-78194819D01*
X139607969Y-78194819D02*
X139274636Y-78194819D01*
X139274636Y-78194819D02*
X139179398Y-78242438D01*
X139179398Y-78242438D02*
X139131779Y-78290057D01*
X139131779Y-78290057D02*
X139084160Y-78385295D01*
X139084160Y-78385295D02*
X139084160Y-78480533D01*
X139084160Y-78480533D02*
X139131779Y-78575771D01*
X139131779Y-78575771D02*
X139179398Y-78623390D01*
X139179398Y-78623390D02*
X139274636Y-78671009D01*
X139274636Y-78671009D02*
X139607969Y-78671009D01*
X138703207Y-78194819D02*
X138084160Y-78194819D01*
X138084160Y-78194819D02*
X138417493Y-78575771D01*
X138417493Y-78575771D02*
X138274636Y-78575771D01*
X138274636Y-78575771D02*
X138179398Y-78623390D01*
X138179398Y-78623390D02*
X138131779Y-78671009D01*
X138131779Y-78671009D02*
X138084160Y-78766247D01*
X138084160Y-78766247D02*
X138084160Y-79004342D01*
X138084160Y-79004342D02*
X138131779Y-79099580D01*
X138131779Y-79099580D02*
X138179398Y-79147200D01*
X138179398Y-79147200D02*
X138274636Y-79194819D01*
X138274636Y-79194819D02*
X138560350Y-79194819D01*
X138560350Y-79194819D02*
X138655588Y-79147200D01*
X138655588Y-79147200D02*
X138703207Y-79099580D01*
X147243303Y-75654819D02*
X146671875Y-75654819D01*
X146957589Y-76654819D02*
X146957589Y-75654819D01*
X146386160Y-76369104D02*
X145909970Y-76369104D01*
X146481398Y-76654819D02*
X146148065Y-75654819D01*
X146148065Y-75654819D02*
X145814732Y-76654819D01*
X144957589Y-75702438D02*
X145052827Y-75654819D01*
X145052827Y-75654819D02*
X145195684Y-75654819D01*
X145195684Y-75654819D02*
X145338541Y-75702438D01*
X145338541Y-75702438D02*
X145433779Y-75797676D01*
X145433779Y-75797676D02*
X145481398Y-75892914D01*
X145481398Y-75892914D02*
X145529017Y-76083390D01*
X145529017Y-76083390D02*
X145529017Y-76226247D01*
X145529017Y-76226247D02*
X145481398Y-76416723D01*
X145481398Y-76416723D02*
X145433779Y-76511961D01*
X145433779Y-76511961D02*
X145338541Y-76607200D01*
X145338541Y-76607200D02*
X145195684Y-76654819D01*
X145195684Y-76654819D02*
X145100446Y-76654819D01*
X145100446Y-76654819D02*
X144957589Y-76607200D01*
X144957589Y-76607200D02*
X144909970Y-76559580D01*
X144909970Y-76559580D02*
X144909970Y-76226247D01*
X144909970Y-76226247D02*
X145100446Y-76226247D01*
X144719494Y-76750057D02*
X143957589Y-76750057D01*
X143814731Y-75654819D02*
X143195684Y-75654819D01*
X143195684Y-75654819D02*
X143529017Y-76035771D01*
X143529017Y-76035771D02*
X143386160Y-76035771D01*
X143386160Y-76035771D02*
X143290922Y-76083390D01*
X143290922Y-76083390D02*
X143243303Y-76131009D01*
X143243303Y-76131009D02*
X143195684Y-76226247D01*
X143195684Y-76226247D02*
X143195684Y-76464342D01*
X143195684Y-76464342D02*
X143243303Y-76559580D01*
X143243303Y-76559580D02*
X143290922Y-76607200D01*
X143290922Y-76607200D02*
X143386160Y-76654819D01*
X143386160Y-76654819D02*
X143671874Y-76654819D01*
X143671874Y-76654819D02*
X143767112Y-76607200D01*
X143767112Y-76607200D02*
X143814731Y-76559580D01*
X142909969Y-75654819D02*
X142576636Y-76654819D01*
X142576636Y-76654819D02*
X142243303Y-75654819D01*
X142005207Y-75654819D02*
X141386160Y-75654819D01*
X141386160Y-75654819D02*
X141719493Y-76035771D01*
X141719493Y-76035771D02*
X141576636Y-76035771D01*
X141576636Y-76035771D02*
X141481398Y-76083390D01*
X141481398Y-76083390D02*
X141433779Y-76131009D01*
X141433779Y-76131009D02*
X141386160Y-76226247D01*
X141386160Y-76226247D02*
X141386160Y-76464342D01*
X141386160Y-76464342D02*
X141433779Y-76559580D01*
X141433779Y-76559580D02*
X141481398Y-76607200D01*
X141481398Y-76607200D02*
X141576636Y-76654819D01*
X141576636Y-76654819D02*
X141862350Y-76654819D01*
X141862350Y-76654819D02*
X141957588Y-76607200D01*
X141957588Y-76607200D02*
X142005207Y-76559580D01*
X118916220Y-76654819D02*
X118916220Y-75654819D01*
X118916220Y-75654819D02*
X118535268Y-75654819D01*
X118535268Y-75654819D02*
X118440030Y-75702438D01*
X118440030Y-75702438D02*
X118392411Y-75750057D01*
X118392411Y-75750057D02*
X118344792Y-75845295D01*
X118344792Y-75845295D02*
X118344792Y-75988152D01*
X118344792Y-75988152D02*
X118392411Y-76083390D01*
X118392411Y-76083390D02*
X118440030Y-76131009D01*
X118440030Y-76131009D02*
X118535268Y-76178628D01*
X118535268Y-76178628D02*
X118916220Y-76178628D01*
X117582887Y-76131009D02*
X117440030Y-76178628D01*
X117440030Y-76178628D02*
X117392411Y-76226247D01*
X117392411Y-76226247D02*
X117344792Y-76321485D01*
X117344792Y-76321485D02*
X117344792Y-76464342D01*
X117344792Y-76464342D02*
X117392411Y-76559580D01*
X117392411Y-76559580D02*
X117440030Y-76607200D01*
X117440030Y-76607200D02*
X117535268Y-76654819D01*
X117535268Y-76654819D02*
X117916220Y-76654819D01*
X117916220Y-76654819D02*
X117916220Y-75654819D01*
X117916220Y-75654819D02*
X117582887Y-75654819D01*
X117582887Y-75654819D02*
X117487649Y-75702438D01*
X117487649Y-75702438D02*
X117440030Y-75750057D01*
X117440030Y-75750057D02*
X117392411Y-75845295D01*
X117392411Y-75845295D02*
X117392411Y-75940533D01*
X117392411Y-75940533D02*
X117440030Y-76035771D01*
X117440030Y-76035771D02*
X117487649Y-76083390D01*
X117487649Y-76083390D02*
X117582887Y-76131009D01*
X117582887Y-76131009D02*
X117916220Y-76131009D01*
X116487649Y-75988152D02*
X116487649Y-76654819D01*
X116725744Y-75607200D02*
X116963839Y-76321485D01*
X116963839Y-76321485D02*
X116344792Y-76321485D01*
X115201934Y-76654819D02*
X115201934Y-75654819D01*
X115201934Y-75654819D02*
X114868601Y-76369104D01*
X114868601Y-76369104D02*
X114535268Y-75654819D01*
X114535268Y-75654819D02*
X114535268Y-76654819D01*
X114154315Y-75654819D02*
X113487649Y-76654819D01*
X113487649Y-75654819D02*
X114154315Y-76654819D01*
X113344792Y-76750057D02*
X112582887Y-76750057D01*
X112344791Y-76654819D02*
X112344791Y-75654819D01*
X112344791Y-75654819D02*
X112011458Y-76369104D01*
X112011458Y-76369104D02*
X111678125Y-75654819D01*
X111678125Y-75654819D02*
X111678125Y-76654819D01*
X111201934Y-76654819D02*
X111201934Y-75654819D01*
X110773363Y-76607200D02*
X110630506Y-76654819D01*
X110630506Y-76654819D02*
X110392411Y-76654819D01*
X110392411Y-76654819D02*
X110297173Y-76607200D01*
X110297173Y-76607200D02*
X110249554Y-76559580D01*
X110249554Y-76559580D02*
X110201935Y-76464342D01*
X110201935Y-76464342D02*
X110201935Y-76369104D01*
X110201935Y-76369104D02*
X110249554Y-76273866D01*
X110249554Y-76273866D02*
X110297173Y-76226247D01*
X110297173Y-76226247D02*
X110392411Y-76178628D01*
X110392411Y-76178628D02*
X110582887Y-76131009D01*
X110582887Y-76131009D02*
X110678125Y-76083390D01*
X110678125Y-76083390D02*
X110725744Y-76035771D01*
X110725744Y-76035771D02*
X110773363Y-75940533D01*
X110773363Y-75940533D02*
X110773363Y-75845295D01*
X110773363Y-75845295D02*
X110725744Y-75750057D01*
X110725744Y-75750057D02*
X110678125Y-75702438D01*
X110678125Y-75702438D02*
X110582887Y-75654819D01*
X110582887Y-75654819D02*
X110344792Y-75654819D01*
X110344792Y-75654819D02*
X110201935Y-75702438D01*
X109582887Y-75654819D02*
X109392411Y-75654819D01*
X109392411Y-75654819D02*
X109297173Y-75702438D01*
X109297173Y-75702438D02*
X109201935Y-75797676D01*
X109201935Y-75797676D02*
X109154316Y-75988152D01*
X109154316Y-75988152D02*
X109154316Y-76321485D01*
X109154316Y-76321485D02*
X109201935Y-76511961D01*
X109201935Y-76511961D02*
X109297173Y-76607200D01*
X109297173Y-76607200D02*
X109392411Y-76654819D01*
X109392411Y-76654819D02*
X109582887Y-76654819D01*
X109582887Y-76654819D02*
X109678125Y-76607200D01*
X109678125Y-76607200D02*
X109773363Y-76511961D01*
X109773363Y-76511961D02*
X109820982Y-76321485D01*
X109820982Y-76321485D02*
X109820982Y-75988152D01*
X109820982Y-75988152D02*
X109773363Y-75797676D01*
X109773363Y-75797676D02*
X109678125Y-75702438D01*
X109678125Y-75702438D02*
X109582887Y-75654819D01*
X147577207Y-112341819D02*
X147577207Y-111341819D01*
X147577207Y-111341819D02*
X147005779Y-112341819D01*
X147005779Y-112341819D02*
X147005779Y-111341819D01*
X145958160Y-112246580D02*
X146005779Y-112294200D01*
X146005779Y-112294200D02*
X146148636Y-112341819D01*
X146148636Y-112341819D02*
X146243874Y-112341819D01*
X146243874Y-112341819D02*
X146386731Y-112294200D01*
X146386731Y-112294200D02*
X146481969Y-112198961D01*
X146481969Y-112198961D02*
X146529588Y-112103723D01*
X146529588Y-112103723D02*
X146577207Y-111913247D01*
X146577207Y-111913247D02*
X146577207Y-111770390D01*
X146577207Y-111770390D02*
X146529588Y-111579914D01*
X146529588Y-111579914D02*
X146481969Y-111484676D01*
X146481969Y-111484676D02*
X146386731Y-111389438D01*
X146386731Y-111389438D02*
X146243874Y-111341819D01*
X146243874Y-111341819D02*
X146148636Y-111341819D01*
X146148636Y-111341819D02*
X146005779Y-111389438D01*
X146005779Y-111389438D02*
X145958160Y-111437057D01*
X147450207Y-104594819D02*
X147450207Y-103594819D01*
X147450207Y-103594819D02*
X146878779Y-104594819D01*
X146878779Y-104594819D02*
X146878779Y-103594819D01*
X145831160Y-104499580D02*
X145878779Y-104547200D01*
X145878779Y-104547200D02*
X146021636Y-104594819D01*
X146021636Y-104594819D02*
X146116874Y-104594819D01*
X146116874Y-104594819D02*
X146259731Y-104547200D01*
X146259731Y-104547200D02*
X146354969Y-104451961D01*
X146354969Y-104451961D02*
X146402588Y-104356723D01*
X146402588Y-104356723D02*
X146450207Y-104166247D01*
X146450207Y-104166247D02*
X146450207Y-104023390D01*
X146450207Y-104023390D02*
X146402588Y-103832914D01*
X146402588Y-103832914D02*
X146354969Y-103737676D01*
X146354969Y-103737676D02*
X146259731Y-103642438D01*
X146259731Y-103642438D02*
X146116874Y-103594819D01*
X146116874Y-103594819D02*
X146021636Y-103594819D01*
X146021636Y-103594819D02*
X145878779Y-103642438D01*
X145878779Y-103642438D02*
X145831160Y-103690057D01*
X119043220Y-79067819D02*
X119043220Y-78067819D01*
X119043220Y-78067819D02*
X118662268Y-78067819D01*
X118662268Y-78067819D02*
X118567030Y-78115438D01*
X118567030Y-78115438D02*
X118519411Y-78163057D01*
X118519411Y-78163057D02*
X118471792Y-78258295D01*
X118471792Y-78258295D02*
X118471792Y-78401152D01*
X118471792Y-78401152D02*
X118519411Y-78496390D01*
X118519411Y-78496390D02*
X118567030Y-78544009D01*
X118567030Y-78544009D02*
X118662268Y-78591628D01*
X118662268Y-78591628D02*
X119043220Y-78591628D01*
X117709887Y-78544009D02*
X117567030Y-78591628D01*
X117567030Y-78591628D02*
X117519411Y-78639247D01*
X117519411Y-78639247D02*
X117471792Y-78734485D01*
X117471792Y-78734485D02*
X117471792Y-78877342D01*
X117471792Y-78877342D02*
X117519411Y-78972580D01*
X117519411Y-78972580D02*
X117567030Y-79020200D01*
X117567030Y-79020200D02*
X117662268Y-79067819D01*
X117662268Y-79067819D02*
X118043220Y-79067819D01*
X118043220Y-79067819D02*
X118043220Y-78067819D01*
X118043220Y-78067819D02*
X117709887Y-78067819D01*
X117709887Y-78067819D02*
X117614649Y-78115438D01*
X117614649Y-78115438D02*
X117567030Y-78163057D01*
X117567030Y-78163057D02*
X117519411Y-78258295D01*
X117519411Y-78258295D02*
X117519411Y-78353533D01*
X117519411Y-78353533D02*
X117567030Y-78448771D01*
X117567030Y-78448771D02*
X117614649Y-78496390D01*
X117614649Y-78496390D02*
X117709887Y-78544009D01*
X117709887Y-78544009D02*
X118043220Y-78544009D01*
X116567030Y-78067819D02*
X117043220Y-78067819D01*
X117043220Y-78067819D02*
X117090839Y-78544009D01*
X117090839Y-78544009D02*
X117043220Y-78496390D01*
X117043220Y-78496390D02*
X116947982Y-78448771D01*
X116947982Y-78448771D02*
X116709887Y-78448771D01*
X116709887Y-78448771D02*
X116614649Y-78496390D01*
X116614649Y-78496390D02*
X116567030Y-78544009D01*
X116567030Y-78544009D02*
X116519411Y-78639247D01*
X116519411Y-78639247D02*
X116519411Y-78877342D01*
X116519411Y-78877342D02*
X116567030Y-78972580D01*
X116567030Y-78972580D02*
X116614649Y-79020200D01*
X116614649Y-79020200D02*
X116709887Y-79067819D01*
X116709887Y-79067819D02*
X116947982Y-79067819D01*
X116947982Y-79067819D02*
X117043220Y-79020200D01*
X117043220Y-79020200D02*
X117090839Y-78972580D01*
X115328934Y-79067819D02*
X115328934Y-78067819D01*
X115328934Y-78067819D02*
X114995601Y-78782104D01*
X114995601Y-78782104D02*
X114662268Y-78067819D01*
X114662268Y-78067819D02*
X114662268Y-79067819D01*
X114281315Y-78067819D02*
X113614649Y-79067819D01*
X113614649Y-78067819D02*
X114281315Y-79067819D01*
X113471792Y-79163057D02*
X112709887Y-79163057D01*
X112471791Y-79067819D02*
X112471791Y-78067819D01*
X112471791Y-78067819D02*
X112138458Y-78782104D01*
X112138458Y-78782104D02*
X111805125Y-78067819D01*
X111805125Y-78067819D02*
X111805125Y-79067819D01*
X111138458Y-78067819D02*
X110947982Y-78067819D01*
X110947982Y-78067819D02*
X110852744Y-78115438D01*
X110852744Y-78115438D02*
X110757506Y-78210676D01*
X110757506Y-78210676D02*
X110709887Y-78401152D01*
X110709887Y-78401152D02*
X110709887Y-78734485D01*
X110709887Y-78734485D02*
X110757506Y-78924961D01*
X110757506Y-78924961D02*
X110852744Y-79020200D01*
X110852744Y-79020200D02*
X110947982Y-79067819D01*
X110947982Y-79067819D02*
X111138458Y-79067819D01*
X111138458Y-79067819D02*
X111233696Y-79020200D01*
X111233696Y-79020200D02*
X111328934Y-78924961D01*
X111328934Y-78924961D02*
X111376553Y-78734485D01*
X111376553Y-78734485D02*
X111376553Y-78401152D01*
X111376553Y-78401152D02*
X111328934Y-78210676D01*
X111328934Y-78210676D02*
X111233696Y-78115438D01*
X111233696Y-78115438D02*
X111138458Y-78067819D01*
X110328934Y-79020200D02*
X110186077Y-79067819D01*
X110186077Y-79067819D02*
X109947982Y-79067819D01*
X109947982Y-79067819D02*
X109852744Y-79020200D01*
X109852744Y-79020200D02*
X109805125Y-78972580D01*
X109805125Y-78972580D02*
X109757506Y-78877342D01*
X109757506Y-78877342D02*
X109757506Y-78782104D01*
X109757506Y-78782104D02*
X109805125Y-78686866D01*
X109805125Y-78686866D02*
X109852744Y-78639247D01*
X109852744Y-78639247D02*
X109947982Y-78591628D01*
X109947982Y-78591628D02*
X110138458Y-78544009D01*
X110138458Y-78544009D02*
X110233696Y-78496390D01*
X110233696Y-78496390D02*
X110281315Y-78448771D01*
X110281315Y-78448771D02*
X110328934Y-78353533D01*
X110328934Y-78353533D02*
X110328934Y-78258295D01*
X110328934Y-78258295D02*
X110281315Y-78163057D01*
X110281315Y-78163057D02*
X110233696Y-78115438D01*
X110233696Y-78115438D02*
X110138458Y-78067819D01*
X110138458Y-78067819D02*
X109900363Y-78067819D01*
X109900363Y-78067819D02*
X109757506Y-78115438D01*
X109328934Y-79067819D02*
X109328934Y-78067819D01*
X146925399Y-89354819D02*
X147401589Y-89354819D01*
X147401589Y-89354819D02*
X147401589Y-88354819D01*
X146592065Y-89354819D02*
X146592065Y-88354819D01*
X146592065Y-88354819D02*
X146211113Y-88354819D01*
X146211113Y-88354819D02*
X146115875Y-88402438D01*
X146115875Y-88402438D02*
X146068256Y-88450057D01*
X146068256Y-88450057D02*
X146020637Y-88545295D01*
X146020637Y-88545295D02*
X146020637Y-88688152D01*
X146020637Y-88688152D02*
X146068256Y-88783390D01*
X146068256Y-88783390D02*
X146115875Y-88831009D01*
X146115875Y-88831009D02*
X146211113Y-88878628D01*
X146211113Y-88878628D02*
X146592065Y-88878628D01*
X145639684Y-89307200D02*
X145496827Y-89354819D01*
X145496827Y-89354819D02*
X145258732Y-89354819D01*
X145258732Y-89354819D02*
X145163494Y-89307200D01*
X145163494Y-89307200D02*
X145115875Y-89259580D01*
X145115875Y-89259580D02*
X145068256Y-89164342D01*
X145068256Y-89164342D02*
X145068256Y-89069104D01*
X145068256Y-89069104D02*
X145115875Y-88973866D01*
X145115875Y-88973866D02*
X145163494Y-88926247D01*
X145163494Y-88926247D02*
X145258732Y-88878628D01*
X145258732Y-88878628D02*
X145449208Y-88831009D01*
X145449208Y-88831009D02*
X145544446Y-88783390D01*
X145544446Y-88783390D02*
X145592065Y-88735771D01*
X145592065Y-88735771D02*
X145639684Y-88640533D01*
X145639684Y-88640533D02*
X145639684Y-88545295D01*
X145639684Y-88545295D02*
X145592065Y-88450057D01*
X145592065Y-88450057D02*
X145544446Y-88402438D01*
X145544446Y-88402438D02*
X145449208Y-88354819D01*
X145449208Y-88354819D02*
X145211113Y-88354819D01*
X145211113Y-88354819D02*
X145068256Y-88402438D01*
X144877780Y-89450057D02*
X144115875Y-89450057D01*
X143306351Y-89259580D02*
X143353970Y-89307200D01*
X143353970Y-89307200D02*
X143496827Y-89354819D01*
X143496827Y-89354819D02*
X143592065Y-89354819D01*
X143592065Y-89354819D02*
X143734922Y-89307200D01*
X143734922Y-89307200D02*
X143830160Y-89211961D01*
X143830160Y-89211961D02*
X143877779Y-89116723D01*
X143877779Y-89116723D02*
X143925398Y-88926247D01*
X143925398Y-88926247D02*
X143925398Y-88783390D01*
X143925398Y-88783390D02*
X143877779Y-88592914D01*
X143877779Y-88592914D02*
X143830160Y-88497676D01*
X143830160Y-88497676D02*
X143734922Y-88402438D01*
X143734922Y-88402438D02*
X143592065Y-88354819D01*
X143592065Y-88354819D02*
X143496827Y-88354819D01*
X143496827Y-88354819D02*
X143353970Y-88402438D01*
X143353970Y-88402438D02*
X143306351Y-88450057D01*
X142925398Y-89307200D02*
X142782541Y-89354819D01*
X142782541Y-89354819D02*
X142544446Y-89354819D01*
X142544446Y-89354819D02*
X142449208Y-89307200D01*
X142449208Y-89307200D02*
X142401589Y-89259580D01*
X142401589Y-89259580D02*
X142353970Y-89164342D01*
X142353970Y-89164342D02*
X142353970Y-89069104D01*
X142353970Y-89069104D02*
X142401589Y-88973866D01*
X142401589Y-88973866D02*
X142449208Y-88926247D01*
X142449208Y-88926247D02*
X142544446Y-88878628D01*
X142544446Y-88878628D02*
X142734922Y-88831009D01*
X142734922Y-88831009D02*
X142830160Y-88783390D01*
X142830160Y-88783390D02*
X142877779Y-88735771D01*
X142877779Y-88735771D02*
X142925398Y-88640533D01*
X142925398Y-88640533D02*
X142925398Y-88545295D01*
X142925398Y-88545295D02*
X142877779Y-88450057D01*
X142877779Y-88450057D02*
X142830160Y-88402438D01*
X142830160Y-88402438D02*
X142734922Y-88354819D01*
X142734922Y-88354819D02*
X142496827Y-88354819D01*
X142496827Y-88354819D02*
X142353970Y-88402438D01*
X141163493Y-89354819D02*
X141163493Y-88354819D01*
X141163493Y-88354819D02*
X140782541Y-88354819D01*
X140782541Y-88354819D02*
X140687303Y-88402438D01*
X140687303Y-88402438D02*
X140639684Y-88450057D01*
X140639684Y-88450057D02*
X140592065Y-88545295D01*
X140592065Y-88545295D02*
X140592065Y-88688152D01*
X140592065Y-88688152D02*
X140639684Y-88783390D01*
X140639684Y-88783390D02*
X140687303Y-88831009D01*
X140687303Y-88831009D02*
X140782541Y-88878628D01*
X140782541Y-88878628D02*
X141163493Y-88878628D01*
X140211112Y-89069104D02*
X139734922Y-89069104D01*
X140306350Y-89354819D02*
X139973017Y-88354819D01*
X139973017Y-88354819D02*
X139639684Y-89354819D01*
X138782541Y-89354819D02*
X139353969Y-89354819D01*
X139068255Y-89354819D02*
X139068255Y-88354819D01*
X139068255Y-88354819D02*
X139163493Y-88497676D01*
X139163493Y-88497676D02*
X139258731Y-88592914D01*
X139258731Y-88592914D02*
X139353969Y-88640533D01*
X138163493Y-88354819D02*
X138068255Y-88354819D01*
X138068255Y-88354819D02*
X137973017Y-88402438D01*
X137973017Y-88402438D02*
X137925398Y-88450057D01*
X137925398Y-88450057D02*
X137877779Y-88545295D01*
X137877779Y-88545295D02*
X137830160Y-88735771D01*
X137830160Y-88735771D02*
X137830160Y-88973866D01*
X137830160Y-88973866D02*
X137877779Y-89164342D01*
X137877779Y-89164342D02*
X137925398Y-89259580D01*
X137925398Y-89259580D02*
X137973017Y-89307200D01*
X137973017Y-89307200D02*
X138068255Y-89354819D01*
X138068255Y-89354819D02*
X138163493Y-89354819D01*
X138163493Y-89354819D02*
X138258731Y-89307200D01*
X138258731Y-89307200D02*
X138306350Y-89259580D01*
X138306350Y-89259580D02*
X138353969Y-89164342D01*
X138353969Y-89164342D02*
X138401588Y-88973866D01*
X138401588Y-88973866D02*
X138401588Y-88735771D01*
X138401588Y-88735771D02*
X138353969Y-88545295D01*
X138353969Y-88545295D02*
X138306350Y-88450057D01*
X138306350Y-88450057D02*
X138258731Y-88402438D01*
X138258731Y-88402438D02*
X138163493Y-88354819D01*
X146877780Y-91894819D02*
X147353970Y-91894819D01*
X147353970Y-91894819D02*
X147353970Y-90894819D01*
X146544446Y-91894819D02*
X146544446Y-90894819D01*
X146544446Y-90894819D02*
X146163494Y-90894819D01*
X146163494Y-90894819D02*
X146068256Y-90942438D01*
X146068256Y-90942438D02*
X146020637Y-90990057D01*
X146020637Y-90990057D02*
X145973018Y-91085295D01*
X145973018Y-91085295D02*
X145973018Y-91228152D01*
X145973018Y-91228152D02*
X146020637Y-91323390D01*
X146020637Y-91323390D02*
X146068256Y-91371009D01*
X146068256Y-91371009D02*
X146163494Y-91418628D01*
X146163494Y-91418628D02*
X146544446Y-91418628D01*
X145592065Y-91847200D02*
X145449208Y-91894819D01*
X145449208Y-91894819D02*
X145211113Y-91894819D01*
X145211113Y-91894819D02*
X145115875Y-91847200D01*
X145115875Y-91847200D02*
X145068256Y-91799580D01*
X145068256Y-91799580D02*
X145020637Y-91704342D01*
X145020637Y-91704342D02*
X145020637Y-91609104D01*
X145020637Y-91609104D02*
X145068256Y-91513866D01*
X145068256Y-91513866D02*
X145115875Y-91466247D01*
X145115875Y-91466247D02*
X145211113Y-91418628D01*
X145211113Y-91418628D02*
X145401589Y-91371009D01*
X145401589Y-91371009D02*
X145496827Y-91323390D01*
X145496827Y-91323390D02*
X145544446Y-91275771D01*
X145544446Y-91275771D02*
X145592065Y-91180533D01*
X145592065Y-91180533D02*
X145592065Y-91085295D01*
X145592065Y-91085295D02*
X145544446Y-90990057D01*
X145544446Y-90990057D02*
X145496827Y-90942438D01*
X145496827Y-90942438D02*
X145401589Y-90894819D01*
X145401589Y-90894819D02*
X145163494Y-90894819D01*
X145163494Y-90894819D02*
X145020637Y-90942438D01*
X144830161Y-91990057D02*
X144068256Y-91990057D01*
X143258732Y-91894819D02*
X143592065Y-91418628D01*
X143830160Y-91894819D02*
X143830160Y-90894819D01*
X143830160Y-90894819D02*
X143449208Y-90894819D01*
X143449208Y-90894819D02*
X143353970Y-90942438D01*
X143353970Y-90942438D02*
X143306351Y-90990057D01*
X143306351Y-90990057D02*
X143258732Y-91085295D01*
X143258732Y-91085295D02*
X143258732Y-91228152D01*
X143258732Y-91228152D02*
X143306351Y-91323390D01*
X143306351Y-91323390D02*
X143353970Y-91371009D01*
X143353970Y-91371009D02*
X143449208Y-91418628D01*
X143449208Y-91418628D02*
X143830160Y-91418628D01*
X142830160Y-91894819D02*
X142830160Y-90894819D01*
X142830160Y-90894819D02*
X142592065Y-90894819D01*
X142592065Y-90894819D02*
X142449208Y-90942438D01*
X142449208Y-90942438D02*
X142353970Y-91037676D01*
X142353970Y-91037676D02*
X142306351Y-91132914D01*
X142306351Y-91132914D02*
X142258732Y-91323390D01*
X142258732Y-91323390D02*
X142258732Y-91466247D01*
X142258732Y-91466247D02*
X142306351Y-91656723D01*
X142306351Y-91656723D02*
X142353970Y-91751961D01*
X142353970Y-91751961D02*
X142449208Y-91847200D01*
X142449208Y-91847200D02*
X142592065Y-91894819D01*
X142592065Y-91894819D02*
X142830160Y-91894819D01*
X141639684Y-91418628D02*
X141639684Y-91894819D01*
X141973017Y-90894819D02*
X141639684Y-91418628D01*
X141639684Y-91418628D02*
X141306351Y-90894819D01*
X140211112Y-91894819D02*
X140211112Y-90894819D01*
X140211112Y-90894819D02*
X139830160Y-90894819D01*
X139830160Y-90894819D02*
X139734922Y-90942438D01*
X139734922Y-90942438D02*
X139687303Y-90990057D01*
X139687303Y-90990057D02*
X139639684Y-91085295D01*
X139639684Y-91085295D02*
X139639684Y-91228152D01*
X139639684Y-91228152D02*
X139687303Y-91323390D01*
X139687303Y-91323390D02*
X139734922Y-91371009D01*
X139734922Y-91371009D02*
X139830160Y-91418628D01*
X139830160Y-91418628D02*
X140211112Y-91418628D01*
X139258731Y-91609104D02*
X138782541Y-91609104D01*
X139353969Y-91894819D02*
X139020636Y-90894819D01*
X139020636Y-90894819D02*
X138687303Y-91894819D01*
X138306350Y-91894819D02*
X138115874Y-91894819D01*
X138115874Y-91894819D02*
X138020636Y-91847200D01*
X138020636Y-91847200D02*
X137973017Y-91799580D01*
X137973017Y-91799580D02*
X137877779Y-91656723D01*
X137877779Y-91656723D02*
X137830160Y-91466247D01*
X137830160Y-91466247D02*
X137830160Y-91085295D01*
X137830160Y-91085295D02*
X137877779Y-90990057D01*
X137877779Y-90990057D02*
X137925398Y-90942438D01*
X137925398Y-90942438D02*
X138020636Y-90894819D01*
X138020636Y-90894819D02*
X138211112Y-90894819D01*
X138211112Y-90894819D02*
X138306350Y-90942438D01*
X138306350Y-90942438D02*
X138353969Y-90990057D01*
X138353969Y-90990057D02*
X138401588Y-91085295D01*
X138401588Y-91085295D02*
X138401588Y-91323390D01*
X138401588Y-91323390D02*
X138353969Y-91418628D01*
X138353969Y-91418628D02*
X138306350Y-91466247D01*
X138306350Y-91466247D02*
X138211112Y-91513866D01*
X138211112Y-91513866D02*
X138020636Y-91513866D01*
X138020636Y-91513866D02*
X137925398Y-91466247D01*
X137925398Y-91466247D02*
X137877779Y-91418628D01*
X137877779Y-91418628D02*
X137830160Y-91323390D01*
X114509161Y-84274819D02*
X114509161Y-83608152D01*
X114509161Y-83798628D02*
X114461542Y-83703390D01*
X114461542Y-83703390D02*
X114413923Y-83655771D01*
X114413923Y-83655771D02*
X114318685Y-83608152D01*
X114318685Y-83608152D02*
X114223447Y-83608152D01*
X114032970Y-83608152D02*
X113652018Y-83608152D01*
X113890113Y-83274819D02*
X113890113Y-84131961D01*
X113890113Y-84131961D02*
X113842494Y-84227200D01*
X113842494Y-84227200D02*
X113747256Y-84274819D01*
X113747256Y-84274819D02*
X113652018Y-84274819D01*
X112890113Y-84227200D02*
X112985351Y-84274819D01*
X112985351Y-84274819D02*
X113175827Y-84274819D01*
X113175827Y-84274819D02*
X113271065Y-84227200D01*
X113271065Y-84227200D02*
X113318684Y-84179580D01*
X113318684Y-84179580D02*
X113366303Y-84084342D01*
X113366303Y-84084342D02*
X113366303Y-83798628D01*
X113366303Y-83798628D02*
X113318684Y-83703390D01*
X113318684Y-83703390D02*
X113271065Y-83655771D01*
X113271065Y-83655771D02*
X113175827Y-83608152D01*
X113175827Y-83608152D02*
X112985351Y-83608152D01*
X112985351Y-83608152D02*
X112890113Y-83655771D01*
X112699637Y-84370057D02*
X111937732Y-84370057D01*
X111747255Y-84227200D02*
X111652017Y-84274819D01*
X111652017Y-84274819D02*
X111461541Y-84274819D01*
X111461541Y-84274819D02*
X111366303Y-84227200D01*
X111366303Y-84227200D02*
X111318684Y-84131961D01*
X111318684Y-84131961D02*
X111318684Y-84084342D01*
X111318684Y-84084342D02*
X111366303Y-83989104D01*
X111366303Y-83989104D02*
X111461541Y-83941485D01*
X111461541Y-83941485D02*
X111604398Y-83941485D01*
X111604398Y-83941485D02*
X111699636Y-83893866D01*
X111699636Y-83893866D02*
X111747255Y-83798628D01*
X111747255Y-83798628D02*
X111747255Y-83751009D01*
X111747255Y-83751009D02*
X111699636Y-83655771D01*
X111699636Y-83655771D02*
X111604398Y-83608152D01*
X111604398Y-83608152D02*
X111461541Y-83608152D01*
X111461541Y-83608152D02*
X111366303Y-83655771D01*
X110461541Y-84274819D02*
X110461541Y-83274819D01*
X110461541Y-84227200D02*
X110556779Y-84274819D01*
X110556779Y-84274819D02*
X110747255Y-84274819D01*
X110747255Y-84274819D02*
X110842493Y-84227200D01*
X110842493Y-84227200D02*
X110890112Y-84179580D01*
X110890112Y-84179580D02*
X110937731Y-84084342D01*
X110937731Y-84084342D02*
X110937731Y-83798628D01*
X110937731Y-83798628D02*
X110890112Y-83703390D01*
X110890112Y-83703390D02*
X110842493Y-83655771D01*
X110842493Y-83655771D02*
X110747255Y-83608152D01*
X110747255Y-83608152D02*
X110556779Y-83608152D01*
X110556779Y-83608152D02*
X110461541Y-83655771D01*
X109556779Y-84274819D02*
X109556779Y-83751009D01*
X109556779Y-83751009D02*
X109604398Y-83655771D01*
X109604398Y-83655771D02*
X109699636Y-83608152D01*
X109699636Y-83608152D02*
X109890112Y-83608152D01*
X109890112Y-83608152D02*
X109985350Y-83655771D01*
X109556779Y-84227200D02*
X109652017Y-84274819D01*
X109652017Y-84274819D02*
X109890112Y-84274819D01*
X109890112Y-84274819D02*
X109985350Y-84227200D01*
X109985350Y-84227200D02*
X110032969Y-84131961D01*
X110032969Y-84131961D02*
X110032969Y-84036723D01*
X110032969Y-84036723D02*
X109985350Y-83941485D01*
X109985350Y-83941485D02*
X109890112Y-83893866D01*
X109890112Y-83893866D02*
X109652017Y-83893866D01*
X109652017Y-83893866D02*
X109556779Y-83846247D01*
D12*
%TO.C,J3*%
X105350000Y-77470000D02*
X108010000Y-77470000D01*
X105350000Y-118170000D02*
X105350000Y-77470000D01*
X105350000Y-118170000D02*
X108010000Y-118170000D01*
X106680000Y-74870000D02*
X108010000Y-74870000D01*
X108010000Y-74870000D02*
X108010000Y-76200000D01*
X108010000Y-118170000D02*
X108010000Y-77470000D01*
%TO.C,J4*%
X148530000Y-77470000D02*
X151190000Y-77470000D01*
X148530000Y-118170000D02*
X148530000Y-77470000D01*
X148530000Y-118170000D02*
X151190000Y-118170000D01*
X149860000Y-74870000D02*
X151190000Y-74870000D01*
X151190000Y-74870000D02*
X151190000Y-76200000D01*
X151190000Y-118170000D02*
X151190000Y-77470000D01*
%TD*%
%LPC*%
D13*
%TO.C,J3*%
X106553000Y-76200000D03*
D14*
X106807000Y-78740000D03*
X106553000Y-81280000D03*
X106807000Y-83820000D03*
X106553000Y-86360000D03*
X106807000Y-88900000D03*
X106553000Y-91440000D03*
X106807000Y-93980000D03*
X106553000Y-96520000D03*
X106807000Y-99060000D03*
X106553000Y-101600000D03*
X106807000Y-104140000D03*
X106553000Y-106680000D03*
X106807000Y-109220000D03*
X106553000Y-111760000D03*
X106807000Y-114300000D03*
X106553000Y-116840000D03*
%TD*%
D13*
%TO.C,J4*%
X149733000Y-76200000D03*
D14*
X149987000Y-78740000D03*
X149733000Y-81280000D03*
X149987000Y-83820000D03*
X149733000Y-86360000D03*
X149987000Y-88900000D03*
X149733000Y-91440000D03*
X149987000Y-93980000D03*
X149733000Y-96520000D03*
X149987000Y-99060000D03*
X149733000Y-101600000D03*
X149987000Y-104140000D03*
X149733000Y-106680000D03*
X149987000Y-109220000D03*
X149733000Y-111760000D03*
X149987000Y-114300000D03*
X149733000Y-116840000D03*
%TD*%
%LPD*%
M02*
