%TF.GenerationSoftware,KiCad,Pcbnew,9.0.7*%
%TF.CreationDate,2026-03-31T11:41:05-04:00*%
%TF.ProjectId,IMUTagBreakout,494d5554-6167-4427-9265-616b6f75742e,rev?*%
%TF.SameCoordinates,Original*%
%TF.FileFunction,Copper,L2,Bot*%
%TF.FilePolarity,Positive*%
%FSLAX46Y46*%
G04 Gerber Fmt 4.6, Leading zero omitted, Abs format (unit mm)*
G04 Created by KiCad (PCBNEW 9.0.7) date 2026-03-31 11:41:05*
%MOMM*%
%LPD*%
G01*
G04 APERTURE LIST*
%TA.AperFunction,ComponentPad*%
%ADD10R,1.700000X1.700000*%
%TD*%
%TA.AperFunction,ComponentPad*%
%ADD11O,1.700000X1.700000*%
%TD*%
%TA.AperFunction,ViaPad*%
%ADD12C,0.609600*%
%TD*%
%TA.AperFunction,ViaPad*%
%ADD13C,0.660400*%
%TD*%
%TA.AperFunction,Conductor*%
%ADD14C,0.152400*%
%TD*%
G04 APERTURE END LIST*
D10*
%TO.P,J3,1,Pin_1*%
%TO.N,/MX_MISO*%
X106553000Y-76200000D03*
D11*
%TO.P,J3,2,Pin_2*%
%TO.N,/MX_MOSI*%
X106807000Y-78740000D03*
%TO.P,J3,3,Pin_3*%
%TO.N,unconnected-(J3-Pin_3-Pad3)*%
X106553000Y-81280000D03*
%TO.P,J3,4,Pin_4*%
%TO.N,unconnected-(J3-Pin_4-Pad4)*%
X106807000Y-83820000D03*
%TO.P,J3,5,Pin_5*%
%TO.N,unconnected-(J3-Pin_5-Pad5)*%
X106553000Y-86360000D03*
%TO.P,J3,6,Pin_6*%
%TO.N,unconnected-(J3-Pin_6-Pad6)*%
X106807000Y-88900000D03*
%TO.P,J3,7,Pin_7*%
%TO.N,+3.3V*%
X106553000Y-91440000D03*
%TO.P,J3,8,Pin_8*%
%TO.N,/WKUP1*%
X106807000Y-93980000D03*
%TO.P,J3,9,Pin_9*%
%TO.N,/LED1*%
X106553000Y-96520000D03*
%TO.P,J3,10,Pin_10*%
%TO.N,/AK_TRG*%
X106807000Y-99060000D03*
%TO.P,J3,11,Pin_11*%
%TO.N,/AK_CS*%
X106553000Y-101600000D03*
%TO.P,J3,12,Pin_12*%
%TO.N,unconnected-(J3-Pin_12-Pad12)*%
X106807000Y-104140000D03*
%TO.P,J3,13,Pin_13*%
%TO.N,/LSM_CK*%
X106553000Y-106680000D03*
%TO.P,J3,14,Pin_14*%
%TO.N,/LSM_MISO*%
X106807000Y-109220000D03*
%TO.P,J3,15,Pin_15*%
%TO.N,/LSM_MOSI*%
X106553000Y-111760000D03*
%TO.P,J3,16,Pin_16*%
%TO.N,/LSM_CS*%
X106807000Y-114300000D03*
%TO.P,J3,17,Pin_17*%
%TO.N,GND*%
X106553000Y-116840000D03*
%TD*%
D10*
%TO.P,J4,1,Pin_1*%
%TO.N,+3.3V*%
X149733000Y-76200000D03*
D11*
%TO.P,J4,2,Pin_2*%
%TO.N,/MX_SCK*%
X149987000Y-78740000D03*
%TO.P,J4,3,Pin_3*%
%TO.N,/MX_nCS*%
X149733000Y-81280000D03*
%TO.P,J4,4,Pin_4*%
%TO.N,/LPS_MOSI*%
X149987000Y-83820000D03*
%TO.P,J4,5,Pin_5*%
%TO.N,/LPS_MISO*%
X149733000Y-86360000D03*
%TO.P,J4,6,Pin_6*%
%TO.N,/LPS_CS*%
X149987000Y-88900000D03*
%TO.P,J4,7,Pin_7*%
%TO.N,/LPS_DRDY*%
X149733000Y-91440000D03*
%TO.P,J4,8,Pin_8*%
%TO.N,/LSM_TRG*%
X149987000Y-93980000D03*
%TO.P,J4,9,Pin_9*%
%TO.N,unconnected-(J4-Pin_9-Pad9)*%
X149733000Y-96520000D03*
%TO.P,J4,10,Pin_10*%
%TO.N,unconnected-(J4-Pin_10-Pad10)*%
X149987000Y-99060000D03*
%TO.P,J4,11,Pin_11*%
%TO.N,unconnected-(J4-Pin_11-Pad11)*%
X149733000Y-101600000D03*
%TO.P,J4,12,Pin_12*%
%TO.N,unconnected-(J4-Pin_12-Pad12)*%
X149987000Y-104140000D03*
%TO.P,J4,13,Pin_13*%
%TO.N,unconnected-(J4-Pin_13-Pad13)*%
X149733000Y-106680000D03*
%TO.P,J4,14,Pin_14*%
%TO.N,unconnected-(J4-Pin_14-Pad14)*%
X149987000Y-109220000D03*
%TO.P,J4,15,Pin_15*%
%TO.N,/NC*%
X149733000Y-111760000D03*
%TO.P,J4,16,Pin_16*%
%TO.N,/LED2*%
X149987000Y-114300000D03*
%TO.P,J4,17,Pin_17*%
%TO.N,GND*%
X149733000Y-116840000D03*
%TD*%
D12*
%TO.N,GND*%
X133754662Y-94585842D03*
X128854200Y-88087200D03*
X132969000Y-90170000D03*
X122707400Y-83642200D03*
X135534400Y-96469200D03*
X129184400Y-105333800D03*
X124206000Y-96012000D03*
X128905000Y-100203000D03*
X135432800Y-97993200D03*
X134844000Y-94772000D03*
D13*
X134000000Y-77200000D03*
D12*
X124942600Y-86055200D03*
X131724400Y-96291400D03*
%TO.N,+3.3V*%
X127000000Y-91059000D03*
X129286000Y-94615000D03*
X133286500Y-100901500D03*
X133350000Y-99314000D03*
X128279600Y-94751600D03*
%TO.N,/LSM_CS*%
X131572000Y-98679000D03*
X132207000Y-103251000D03*
%TO.N,/LSM_MOSI*%
X124587000Y-100076000D03*
X124714000Y-98933000D03*
%TO.N,/AK_TRG*%
X127127000Y-97336800D03*
X129794000Y-97663000D03*
%TO.N,/LPS_DRDY*%
X128397000Y-86360000D03*
X134493000Y-88646000D03*
%TO.N,/AK_CS*%
X126746000Y-98598800D03*
X129159000Y-98294000D03*
%TO.N,/WKUP1*%
X117983000Y-97282000D03*
X118999000Y-100711000D03*
%TO.N,/LPS_MOSI*%
X130352800Y-88087200D03*
X132588000Y-87503000D03*
%TO.N,/LSM_CK*%
X128295400Y-97967800D03*
X115633500Y-98869500D03*
X118048185Y-96454815D03*
%TD*%
D14*
%TO.N,+3.3V*%
X128416200Y-94615000D02*
X129286000Y-94615000D01*
X127000000Y-93472000D02*
X128279600Y-94751600D01*
X133286500Y-100901500D02*
X133350000Y-100838000D01*
X133350000Y-100838000D02*
X133350000Y-99314000D01*
X128279600Y-94751600D02*
X128416200Y-94615000D01*
X127000000Y-91059000D02*
X127000000Y-93472000D01*
%TO.N,/LSM_CS*%
X131572000Y-98679000D02*
X132207000Y-99314000D01*
X132207000Y-99314000D02*
X132207000Y-103251000D01*
%TO.N,/LSM_MOSI*%
X124587000Y-100076000D02*
X124587000Y-99060000D01*
X124587000Y-99060000D02*
X124714000Y-98933000D01*
%TO.N,/AK_TRG*%
X128882969Y-97663000D02*
X128556769Y-97336800D01*
X128556769Y-97336800D02*
X127127000Y-97336800D01*
X129794000Y-97663000D02*
X128882969Y-97663000D01*
%TO.N,/LPS_DRDY*%
X132969000Y-86233000D02*
X128524000Y-86233000D01*
X128524000Y-86233000D02*
X128397000Y-86360000D01*
X134493000Y-88646000D02*
X134493000Y-87757000D01*
X134493000Y-87757000D02*
X132969000Y-86233000D01*
%TO.N,/AK_CS*%
X128854200Y-98598800D02*
X126746000Y-98598800D01*
X129159000Y-98294000D02*
X128854200Y-98598800D01*
%TO.N,/WKUP1*%
X117983000Y-97282000D02*
X118999000Y-98298000D01*
X118999000Y-98298000D02*
X118999000Y-100711000D01*
%TO.N,/LPS_MOSI*%
X130937000Y-87503000D02*
X132588000Y-87503000D01*
X130352800Y-88087200D02*
X130937000Y-87503000D01*
%TO.N,/LSM_CK*%
X118048185Y-96454815D02*
X115633500Y-98869500D01*
X119561170Y-97967800D02*
X118048185Y-96454815D01*
X128295400Y-97967800D02*
X119561170Y-97967800D01*
%TD*%
%TA.AperFunction,Conductor*%
%TO.N,GND*%
G36*
X151134930Y-72465888D02*
G01*
X151306975Y-72479428D01*
X151326503Y-72482521D01*
X151407991Y-72502084D01*
X151489480Y-72521648D01*
X151508283Y-72527758D01*
X151663128Y-72591897D01*
X151680745Y-72600873D01*
X151823658Y-72688450D01*
X151839653Y-72700072D01*
X151967098Y-72808920D01*
X151981079Y-72822901D01*
X152089927Y-72950346D01*
X152101549Y-72966341D01*
X152189126Y-73109254D01*
X152198102Y-73126871D01*
X152262241Y-73281716D01*
X152268351Y-73300520D01*
X152307478Y-73463496D01*
X152310571Y-73483024D01*
X152324112Y-73655069D01*
X152324500Y-73664955D01*
X152324500Y-119375044D01*
X152324112Y-119384930D01*
X152310571Y-119556975D01*
X152307478Y-119576503D01*
X152268351Y-119739479D01*
X152262241Y-119758283D01*
X152198102Y-119913128D01*
X152189126Y-119930745D01*
X152101549Y-120073658D01*
X152089927Y-120089653D01*
X151981079Y-120217098D01*
X151967098Y-120231079D01*
X151839653Y-120339927D01*
X151823658Y-120351549D01*
X151680745Y-120439126D01*
X151663128Y-120448102D01*
X151508283Y-120512241D01*
X151489479Y-120518351D01*
X151326503Y-120557478D01*
X151306975Y-120560571D01*
X151134930Y-120574112D01*
X151125044Y-120574500D01*
X105414956Y-120574500D01*
X105405070Y-120574112D01*
X105233024Y-120560571D01*
X105213496Y-120557478D01*
X105050520Y-120518351D01*
X105031716Y-120512241D01*
X104876871Y-120448102D01*
X104859254Y-120439126D01*
X104716341Y-120351549D01*
X104700346Y-120339927D01*
X104572901Y-120231079D01*
X104558920Y-120217098D01*
X104450072Y-120089653D01*
X104438450Y-120073658D01*
X104350873Y-119930745D01*
X104341897Y-119913128D01*
X104277758Y-119758283D01*
X104271648Y-119739479D01*
X104232521Y-119576503D01*
X104229428Y-119556975D01*
X104215888Y-119384930D01*
X104215500Y-119375044D01*
X104215500Y-75301350D01*
X105194500Y-75301350D01*
X105194500Y-77098649D01*
X105201009Y-77159196D01*
X105201011Y-77159204D01*
X105252110Y-77296202D01*
X105252112Y-77296207D01*
X105339738Y-77413261D01*
X105456792Y-77500887D01*
X105456794Y-77500888D01*
X105456796Y-77500889D01*
X105515875Y-77522924D01*
X105593795Y-77551988D01*
X105593803Y-77551990D01*
X105654350Y-77558499D01*
X105654355Y-77558499D01*
X105654362Y-77558500D01*
X105763099Y-77558500D01*
X105831220Y-77578502D01*
X105877713Y-77632158D01*
X105887817Y-77702432D01*
X105858323Y-77767012D01*
X105852194Y-77773595D01*
X105770798Y-77854990D01*
X105770796Y-77854993D01*
X105645108Y-78027987D01*
X105548029Y-78218515D01*
X105548026Y-78218521D01*
X105481952Y-78421878D01*
X105481951Y-78421883D01*
X105481951Y-78421884D01*
X105448500Y-78633084D01*
X105448500Y-78846916D01*
X105481951Y-79058116D01*
X105481952Y-79058121D01*
X105548026Y-79261478D01*
X105548028Y-79261483D01*
X105645106Y-79452009D01*
X105770794Y-79625004D01*
X105770796Y-79625006D01*
X105770798Y-79625009D01*
X105921990Y-79776201D01*
X105921993Y-79776203D01*
X105921996Y-79776206D01*
X105998863Y-79832053D01*
X106042217Y-79888275D01*
X106048292Y-79959011D01*
X106015161Y-80021803D01*
X105982006Y-80046254D01*
X105855355Y-80110786D01*
X105840987Y-80118108D01*
X105667993Y-80243796D01*
X105667990Y-80243798D01*
X105516798Y-80394990D01*
X105516796Y-80394993D01*
X105391108Y-80567987D01*
X105294029Y-80758515D01*
X105294026Y-80758521D01*
X105227952Y-80961878D01*
X105227951Y-80961883D01*
X105227951Y-80961884D01*
X105194500Y-81173084D01*
X105194500Y-81386916D01*
X105227951Y-81598116D01*
X105227952Y-81598121D01*
X105294026Y-81801478D01*
X105294028Y-81801483D01*
X105391106Y-81992009D01*
X105516794Y-82165004D01*
X105516796Y-82165006D01*
X105516798Y-82165009D01*
X105667990Y-82316201D01*
X105667993Y-82316203D01*
X105667996Y-82316206D01*
X105840991Y-82441894D01*
X105982005Y-82513744D01*
X106033620Y-82562491D01*
X106050686Y-82631406D01*
X106027786Y-82698607D01*
X105998864Y-82727946D01*
X105921989Y-82783799D01*
X105770798Y-82934990D01*
X105770796Y-82934993D01*
X105645108Y-83107987D01*
X105548029Y-83298515D01*
X105548026Y-83298521D01*
X105481952Y-83501878D01*
X105481951Y-83501883D01*
X105481951Y-83501884D01*
X105448500Y-83713084D01*
X105448500Y-83926916D01*
X105481951Y-84138116D01*
X105481952Y-84138121D01*
X105548026Y-84341478D01*
X105548028Y-84341483D01*
X105645106Y-84532009D01*
X105770794Y-84705004D01*
X105770796Y-84705006D01*
X105770798Y-84705009D01*
X105921990Y-84856201D01*
X105921993Y-84856203D01*
X105921996Y-84856206D01*
X105998863Y-84912053D01*
X106042217Y-84968275D01*
X106048292Y-85039011D01*
X106015161Y-85101803D01*
X105982006Y-85126254D01*
X105855355Y-85190786D01*
X105840987Y-85198108D01*
X105667993Y-85323796D01*
X105667990Y-85323798D01*
X105516798Y-85474990D01*
X105516796Y-85474993D01*
X105391108Y-85647987D01*
X105294029Y-85838515D01*
X105294026Y-85838521D01*
X105227952Y-86041878D01*
X105227951Y-86041883D01*
X105227951Y-86041884D01*
X105194500Y-86253084D01*
X105194500Y-86466916D01*
X105227951Y-86678116D01*
X105227952Y-86678121D01*
X105294026Y-86881478D01*
X105294028Y-86881483D01*
X105372312Y-87035123D01*
X105391108Y-87072012D01*
X105397447Y-87080737D01*
X105516794Y-87245004D01*
X105516796Y-87245006D01*
X105516798Y-87245009D01*
X105667990Y-87396201D01*
X105667993Y-87396203D01*
X105667996Y-87396206D01*
X105840991Y-87521894D01*
X105982005Y-87593744D01*
X106033620Y-87642491D01*
X106050686Y-87711406D01*
X106027786Y-87778607D01*
X105998864Y-87807946D01*
X105921989Y-87863799D01*
X105770798Y-88014990D01*
X105770796Y-88014993D01*
X105645108Y-88187987D01*
X105548029Y-88378515D01*
X105548026Y-88378521D01*
X105481952Y-88581878D01*
X105481951Y-88581883D01*
X105481951Y-88581884D01*
X105448500Y-88793084D01*
X105448500Y-89006916D01*
X105452353Y-89031241D01*
X105481952Y-89218121D01*
X105530240Y-89366737D01*
X105548028Y-89421483D01*
X105645106Y-89612009D01*
X105770794Y-89785004D01*
X105770796Y-89785006D01*
X105770798Y-89785009D01*
X105921990Y-89936201D01*
X105921993Y-89936203D01*
X105921996Y-89936206D01*
X105998863Y-89992053D01*
X106042217Y-90048275D01*
X106048292Y-90119011D01*
X106015161Y-90181803D01*
X105982006Y-90206254D01*
X105855355Y-90270786D01*
X105840987Y-90278108D01*
X105667993Y-90403796D01*
X105667990Y-90403798D01*
X105516798Y-90554990D01*
X105516796Y-90554993D01*
X105391108Y-90727987D01*
X105294029Y-90918515D01*
X105294026Y-90918521D01*
X105227952Y-91121878D01*
X105227951Y-91121883D01*
X105227951Y-91121884D01*
X105194500Y-91333084D01*
X105194500Y-91546916D01*
X105215051Y-91676669D01*
X105227952Y-91758121D01*
X105294026Y-91961478D01*
X105294028Y-91961483D01*
X105391106Y-92152009D01*
X105516794Y-92325004D01*
X105516796Y-92325006D01*
X105516798Y-92325009D01*
X105667990Y-92476201D01*
X105667993Y-92476203D01*
X105667996Y-92476206D01*
X105840991Y-92601894D01*
X105982005Y-92673744D01*
X106033620Y-92722491D01*
X106050686Y-92791406D01*
X106027786Y-92858607D01*
X105998864Y-92887946D01*
X105921989Y-92943799D01*
X105770798Y-93094990D01*
X105770796Y-93094993D01*
X105645108Y-93267987D01*
X105548029Y-93458515D01*
X105548026Y-93458521D01*
X105481952Y-93661878D01*
X105481951Y-93661883D01*
X105481951Y-93661884D01*
X105448500Y-93873084D01*
X105448500Y-94086916D01*
X105471124Y-94229758D01*
X105481952Y-94298121D01*
X105507830Y-94377765D01*
X105548028Y-94501483D01*
X105645106Y-94692009D01*
X105770794Y-94865004D01*
X105770796Y-94865006D01*
X105770798Y-94865009D01*
X105921990Y-95016201D01*
X105921993Y-95016203D01*
X105921996Y-95016206D01*
X105998863Y-95072053D01*
X106042217Y-95128275D01*
X106048292Y-95199011D01*
X106015161Y-95261803D01*
X105982006Y-95286254D01*
X105928221Y-95313660D01*
X105840987Y-95358108D01*
X105667993Y-95483796D01*
X105667990Y-95483798D01*
X105516798Y-95634990D01*
X105516796Y-95634993D01*
X105391108Y-95807987D01*
X105294029Y-95998515D01*
X105294026Y-95998521D01*
X105227952Y-96201878D01*
X105227951Y-96201883D01*
X105227951Y-96201884D01*
X105194500Y-96413084D01*
X105194500Y-96626916D01*
X105220639Y-96791947D01*
X105227952Y-96838121D01*
X105293835Y-97040889D01*
X105294028Y-97041483D01*
X105391106Y-97232009D01*
X105516794Y-97405004D01*
X105516796Y-97405006D01*
X105516798Y-97405009D01*
X105667990Y-97556201D01*
X105667993Y-97556203D01*
X105667996Y-97556206D01*
X105840991Y-97681894D01*
X105982005Y-97753744D01*
X106033620Y-97802491D01*
X106050686Y-97871406D01*
X106027786Y-97938607D01*
X105998864Y-97967946D01*
X105921989Y-98023799D01*
X105770798Y-98174990D01*
X105770796Y-98174993D01*
X105645108Y-98347987D01*
X105548029Y-98538515D01*
X105548026Y-98538521D01*
X105481952Y-98741878D01*
X105481951Y-98741883D01*
X105481951Y-98741884D01*
X105448500Y-98953084D01*
X105448500Y-99166916D01*
X105474271Y-99329625D01*
X105481952Y-99378121D01*
X105548026Y-99581478D01*
X105548028Y-99581483D01*
X105645106Y-99772009D01*
X105770794Y-99945004D01*
X105770796Y-99945006D01*
X105770798Y-99945009D01*
X105921990Y-100096201D01*
X105921993Y-100096203D01*
X105921996Y-100096206D01*
X105998863Y-100152053D01*
X106042217Y-100208275D01*
X106048292Y-100279011D01*
X106015161Y-100341803D01*
X105982006Y-100366254D01*
X105900668Y-100407699D01*
X105840987Y-100438108D01*
X105667993Y-100563796D01*
X105667990Y-100563798D01*
X105516798Y-100714990D01*
X105516796Y-100714993D01*
X105391108Y-100887987D01*
X105294029Y-101078515D01*
X105294026Y-101078521D01*
X105227952Y-101281878D01*
X105227951Y-101281883D01*
X105227951Y-101281884D01*
X105194500Y-101493084D01*
X105194500Y-101706916D01*
X105227951Y-101918116D01*
X105227952Y-101918121D01*
X105294026Y-102121478D01*
X105294028Y-102121483D01*
X105391106Y-102312009D01*
X105516794Y-102485004D01*
X105516796Y-102485006D01*
X105516798Y-102485009D01*
X105667990Y-102636201D01*
X105667993Y-102636203D01*
X105667996Y-102636206D01*
X105840991Y-102761894D01*
X105982005Y-102833744D01*
X106033620Y-102882491D01*
X106050686Y-102951406D01*
X106027786Y-103018607D01*
X105998864Y-103047946D01*
X105921989Y-103103799D01*
X105770798Y-103254990D01*
X105770796Y-103254993D01*
X105645108Y-103427987D01*
X105548029Y-103618515D01*
X105548026Y-103618521D01*
X105481952Y-103821878D01*
X105481951Y-103821883D01*
X105481951Y-103821884D01*
X105448500Y-104033084D01*
X105448500Y-104246916D01*
X105481951Y-104458116D01*
X105481952Y-104458121D01*
X105548026Y-104661478D01*
X105548028Y-104661483D01*
X105645106Y-104852009D01*
X105770794Y-105025004D01*
X105770796Y-105025006D01*
X105770798Y-105025009D01*
X105921990Y-105176201D01*
X105921993Y-105176203D01*
X105921996Y-105176206D01*
X105998863Y-105232053D01*
X106042217Y-105288275D01*
X106048292Y-105359011D01*
X106015161Y-105421803D01*
X105982006Y-105446254D01*
X105855355Y-105510786D01*
X105840987Y-105518108D01*
X105667993Y-105643796D01*
X105667990Y-105643798D01*
X105516798Y-105794990D01*
X105516796Y-105794993D01*
X105391108Y-105967987D01*
X105294029Y-106158515D01*
X105294026Y-106158521D01*
X105227952Y-106361878D01*
X105227951Y-106361883D01*
X105227951Y-106361884D01*
X105194500Y-106573084D01*
X105194500Y-106786916D01*
X105227951Y-106998116D01*
X105227952Y-106998121D01*
X105294026Y-107201478D01*
X105294028Y-107201483D01*
X105391106Y-107392009D01*
X105516794Y-107565004D01*
X105516796Y-107565006D01*
X105516798Y-107565009D01*
X105667990Y-107716201D01*
X105667993Y-107716203D01*
X105667996Y-107716206D01*
X105840991Y-107841894D01*
X105982005Y-107913744D01*
X106033620Y-107962491D01*
X106050686Y-108031406D01*
X106027786Y-108098607D01*
X105998864Y-108127946D01*
X105921989Y-108183799D01*
X105770798Y-108334990D01*
X105770796Y-108334993D01*
X105645108Y-108507987D01*
X105548029Y-108698515D01*
X105548026Y-108698521D01*
X105481952Y-108901878D01*
X105481951Y-108901883D01*
X105481951Y-108901884D01*
X105448500Y-109113084D01*
X105448500Y-109326916D01*
X105481951Y-109538116D01*
X105481952Y-109538121D01*
X105548026Y-109741478D01*
X105548028Y-109741483D01*
X105645106Y-109932009D01*
X105770794Y-110105004D01*
X105770796Y-110105006D01*
X105770798Y-110105009D01*
X105921990Y-110256201D01*
X105921993Y-110256203D01*
X105921996Y-110256206D01*
X105998863Y-110312053D01*
X106042217Y-110368275D01*
X106048292Y-110439011D01*
X106015161Y-110501803D01*
X105982006Y-110526254D01*
X105855355Y-110590786D01*
X105840987Y-110598108D01*
X105667993Y-110723796D01*
X105667990Y-110723798D01*
X105516798Y-110874990D01*
X105516796Y-110874993D01*
X105391108Y-111047987D01*
X105294029Y-111238515D01*
X105294026Y-111238521D01*
X105227952Y-111441878D01*
X105227951Y-111441883D01*
X105227951Y-111441884D01*
X105194500Y-111653084D01*
X105194500Y-111866916D01*
X105227951Y-112078116D01*
X105227952Y-112078121D01*
X105294026Y-112281478D01*
X105294028Y-112281483D01*
X105391106Y-112472009D01*
X105516794Y-112645004D01*
X105516796Y-112645006D01*
X105516798Y-112645009D01*
X105667990Y-112796201D01*
X105667993Y-112796203D01*
X105667996Y-112796206D01*
X105840991Y-112921894D01*
X105982005Y-112993744D01*
X106033620Y-113042491D01*
X106050686Y-113111406D01*
X106027786Y-113178607D01*
X105998864Y-113207946D01*
X105921989Y-113263799D01*
X105770798Y-113414990D01*
X105770796Y-113414993D01*
X105645108Y-113587987D01*
X105548029Y-113778515D01*
X105548026Y-113778521D01*
X105481952Y-113981878D01*
X105481951Y-113981883D01*
X105481951Y-113981884D01*
X105448500Y-114193084D01*
X105448500Y-114406916D01*
X105481951Y-114618116D01*
X105481952Y-114618121D01*
X105548026Y-114821478D01*
X105548028Y-114821483D01*
X105645106Y-115012009D01*
X105770794Y-115185004D01*
X105770796Y-115185006D01*
X105770798Y-115185009D01*
X105921990Y-115336201D01*
X105921993Y-115336203D01*
X105921996Y-115336206D01*
X105990499Y-115385976D01*
X105999317Y-115392383D01*
X106042671Y-115448605D01*
X106048746Y-115519342D01*
X106015614Y-115582133D01*
X105982459Y-115606586D01*
X105841250Y-115678535D01*
X105668320Y-115804177D01*
X105517177Y-115955320D01*
X105391536Y-116128249D01*
X105294493Y-116318707D01*
X105294490Y-116318713D01*
X105228440Y-116521995D01*
X105218302Y-116586000D01*
X106122297Y-116586000D01*
X106087075Y-116647007D01*
X106053000Y-116774174D01*
X106053000Y-116905826D01*
X106087075Y-117032993D01*
X106122297Y-117094000D01*
X105218302Y-117094000D01*
X105228440Y-117158004D01*
X105294490Y-117361286D01*
X105294493Y-117361292D01*
X105391536Y-117551750D01*
X105517177Y-117724679D01*
X105668320Y-117875822D01*
X105841249Y-118001463D01*
X106031707Y-118098506D01*
X106031713Y-118098509D01*
X106234998Y-118164560D01*
X106299000Y-118174696D01*
X106299000Y-117270702D01*
X106360007Y-117305925D01*
X106487174Y-117340000D01*
X106618826Y-117340000D01*
X106745993Y-117305925D01*
X106807000Y-117270702D01*
X106807000Y-118174696D01*
X106871001Y-118164560D01*
X107074286Y-118098509D01*
X107074292Y-118098506D01*
X107264750Y-118001463D01*
X107437679Y-117875822D01*
X107588822Y-117724679D01*
X107714463Y-117551750D01*
X107811506Y-117361292D01*
X107811509Y-117361286D01*
X107877559Y-117158004D01*
X107887698Y-117094000D01*
X106983703Y-117094000D01*
X107018925Y-117032993D01*
X107053000Y-116905826D01*
X107053000Y-116774174D01*
X107018925Y-116647007D01*
X106983703Y-116586000D01*
X107887697Y-116586000D01*
X107877559Y-116521995D01*
X107811509Y-116318713D01*
X107811506Y-116318707D01*
X107714463Y-116128249D01*
X107588822Y-115955320D01*
X107437679Y-115804177D01*
X107360636Y-115748202D01*
X107317282Y-115691979D01*
X107311207Y-115621243D01*
X107344339Y-115558451D01*
X107377491Y-115534000D01*
X107519009Y-115461894D01*
X107692004Y-115336206D01*
X107843206Y-115185004D01*
X107968894Y-115012009D01*
X108065972Y-114821483D01*
X108132049Y-114618116D01*
X108165500Y-114406916D01*
X108165500Y-114193084D01*
X108132049Y-113981884D01*
X108065972Y-113778517D01*
X107968894Y-113587991D01*
X107843206Y-113414996D01*
X107843203Y-113414993D01*
X107843201Y-113414990D01*
X107692009Y-113263798D01*
X107692006Y-113263796D01*
X107692004Y-113263794D01*
X107519009Y-113138106D01*
X107377992Y-113066254D01*
X107326379Y-113017508D01*
X107309313Y-112948593D01*
X107332214Y-112881391D01*
X107361133Y-112852055D01*
X107438004Y-112796206D01*
X107589206Y-112645004D01*
X107714894Y-112472009D01*
X107811972Y-112281483D01*
X107878049Y-112078116D01*
X107911500Y-111866916D01*
X107911500Y-111653084D01*
X107878049Y-111441884D01*
X107811972Y-111238517D01*
X107714894Y-111047991D01*
X107589206Y-110874996D01*
X107589203Y-110874993D01*
X107589201Y-110874990D01*
X107438006Y-110723795D01*
X107361136Y-110667946D01*
X107317782Y-110611723D01*
X107311707Y-110540987D01*
X107344839Y-110478196D01*
X107377989Y-110453747D01*
X107519009Y-110381894D01*
X107692004Y-110256206D01*
X107843206Y-110105004D01*
X107968894Y-109932009D01*
X108065972Y-109741483D01*
X108132049Y-109538116D01*
X108165500Y-109326916D01*
X108165500Y-109113084D01*
X108132049Y-108901884D01*
X108065972Y-108698517D01*
X107968894Y-108507991D01*
X107843206Y-108334996D01*
X107843203Y-108334993D01*
X107843201Y-108334990D01*
X107692009Y-108183798D01*
X107692006Y-108183796D01*
X107692004Y-108183794D01*
X107519009Y-108058106D01*
X107377992Y-107986254D01*
X107326379Y-107937508D01*
X107309313Y-107868593D01*
X107332214Y-107801391D01*
X107361133Y-107772055D01*
X107438004Y-107716206D01*
X107589206Y-107565004D01*
X107714894Y-107392009D01*
X107811972Y-107201483D01*
X107878049Y-106998116D01*
X107911500Y-106786916D01*
X107911500Y-106573084D01*
X107878049Y-106361884D01*
X107811972Y-106158517D01*
X107714894Y-105967991D01*
X107589206Y-105794996D01*
X107589203Y-105794993D01*
X107589201Y-105794990D01*
X107438006Y-105643795D01*
X107361136Y-105587946D01*
X107317782Y-105531723D01*
X107311707Y-105460987D01*
X107344839Y-105398196D01*
X107377989Y-105373747D01*
X107519009Y-105301894D01*
X107692004Y-105176206D01*
X107843206Y-105025004D01*
X107968894Y-104852009D01*
X108065972Y-104661483D01*
X108132049Y-104458116D01*
X108165500Y-104246916D01*
X108165500Y-104033084D01*
X108132049Y-103821884D01*
X108065972Y-103618517D01*
X107968894Y-103427991D01*
X107843206Y-103254996D01*
X107843203Y-103254993D01*
X107843201Y-103254990D01*
X107692009Y-103103798D01*
X107692006Y-103103796D01*
X107692004Y-103103794D01*
X107519009Y-102978106D01*
X107377992Y-102906254D01*
X107326379Y-102857508D01*
X107309313Y-102788593D01*
X107332214Y-102721391D01*
X107361133Y-102692055D01*
X107438004Y-102636206D01*
X107589206Y-102485004D01*
X107714894Y-102312009D01*
X107811972Y-102121483D01*
X107878049Y-101918116D01*
X107911500Y-101706916D01*
X107911500Y-101493084D01*
X107878049Y-101281884D01*
X107811972Y-101078517D01*
X107714894Y-100887991D01*
X107589206Y-100714996D01*
X107589203Y-100714993D01*
X107589201Y-100714990D01*
X107438006Y-100563795D01*
X107361136Y-100507946D01*
X107317782Y-100451723D01*
X107311707Y-100380987D01*
X107344839Y-100318196D01*
X107377989Y-100293747D01*
X107519009Y-100221894D01*
X107692004Y-100096206D01*
X107843206Y-99945004D01*
X107968894Y-99772009D01*
X108065972Y-99581483D01*
X108132049Y-99378116D01*
X108165500Y-99166916D01*
X108165500Y-98953084D01*
X108139574Y-98789393D01*
X114820200Y-98789393D01*
X114820200Y-98949606D01*
X114851455Y-99106731D01*
X114851456Y-99106734D01*
X114874102Y-99161407D01*
X114912763Y-99254742D01*
X114950171Y-99310726D01*
X115001768Y-99387947D01*
X115001773Y-99387953D01*
X115115046Y-99501226D01*
X115115052Y-99501231D01*
X115248258Y-99590237D01*
X115396269Y-99651545D01*
X115553397Y-99682800D01*
X115713603Y-99682800D01*
X115870731Y-99651545D01*
X116018742Y-99590237D01*
X116151948Y-99501231D01*
X116265231Y-99387948D01*
X116354237Y-99254742D01*
X116415545Y-99106731D01*
X116446800Y-98949603D01*
X116446800Y-98935279D01*
X116466802Y-98867158D01*
X116483701Y-98846188D01*
X117362423Y-97967465D01*
X117424735Y-97933440D01*
X117495550Y-97938505D01*
X117521519Y-97951795D01*
X117597758Y-98002737D01*
X117745769Y-98064045D01*
X117902897Y-98095300D01*
X117917220Y-98095300D01*
X117985341Y-98115302D01*
X118006315Y-98132205D01*
X118377395Y-98503285D01*
X118411421Y-98565597D01*
X118414300Y-98592380D01*
X118414300Y-100093330D01*
X118394298Y-100161451D01*
X118377395Y-100182425D01*
X118367273Y-100192546D01*
X118367268Y-100192552D01*
X118278263Y-100325758D01*
X118216956Y-100473765D01*
X118216955Y-100473768D01*
X118185700Y-100630893D01*
X118185700Y-100791106D01*
X118205233Y-100889300D01*
X118216955Y-100948231D01*
X118278263Y-101096242D01*
X118337734Y-101185247D01*
X118367268Y-101229447D01*
X118367273Y-101229453D01*
X118480546Y-101342726D01*
X118480552Y-101342731D01*
X118613758Y-101431737D01*
X118761769Y-101493045D01*
X118918897Y-101524300D01*
X119079103Y-101524300D01*
X119236231Y-101493045D01*
X119384242Y-101431737D01*
X119517448Y-101342731D01*
X119630731Y-101229448D01*
X119719737Y-101096242D01*
X119781045Y-100948231D01*
X119812300Y-100791103D01*
X119812300Y-100630897D01*
X119781045Y-100473769D01*
X119719737Y-100325758D01*
X119630731Y-100192552D01*
X119630726Y-100192546D01*
X119620605Y-100182425D01*
X119586579Y-100120113D01*
X119583700Y-100093330D01*
X119583700Y-98678500D01*
X119603702Y-98610379D01*
X119657358Y-98563886D01*
X119709700Y-98552500D01*
X123806922Y-98552500D01*
X123875043Y-98572502D01*
X123921536Y-98626158D01*
X123931640Y-98696432D01*
X123930505Y-98703058D01*
X123922783Y-98741879D01*
X123900700Y-98852893D01*
X123900700Y-99013106D01*
X123931955Y-99170231D01*
X123931956Y-99170234D01*
X123992709Y-99316905D01*
X123994361Y-99325215D01*
X123997196Y-99329625D01*
X124002300Y-99365123D01*
X124002300Y-99458330D01*
X123982298Y-99526451D01*
X123965395Y-99547425D01*
X123955273Y-99557546D01*
X123955268Y-99557552D01*
X123866263Y-99690758D01*
X123804956Y-99838765D01*
X123804955Y-99838768D01*
X123773700Y-99995893D01*
X123773700Y-100156106D01*
X123804955Y-100313231D01*
X123804956Y-100313234D01*
X123807333Y-100318972D01*
X123866263Y-100461242D01*
X123897470Y-100507946D01*
X123955268Y-100594447D01*
X123955273Y-100594453D01*
X124068546Y-100707726D01*
X124068552Y-100707731D01*
X124201758Y-100796737D01*
X124349769Y-100858045D01*
X124506897Y-100889300D01*
X124667103Y-100889300D01*
X124824231Y-100858045D01*
X124972242Y-100796737D01*
X125105448Y-100707731D01*
X125218731Y-100594448D01*
X125307737Y-100461242D01*
X125369045Y-100313231D01*
X125400300Y-100156103D01*
X125400300Y-99995897D01*
X125369045Y-99838769D01*
X125307737Y-99690758D01*
X125302419Y-99682799D01*
X125284550Y-99656055D01*
X125263335Y-99588302D01*
X125282118Y-99519836D01*
X125300216Y-99496962D01*
X125345731Y-99451448D01*
X125434737Y-99318242D01*
X125496045Y-99170231D01*
X125527300Y-99013103D01*
X125527300Y-98852897D01*
X125497499Y-98703079D01*
X125499407Y-98681760D01*
X125496360Y-98660568D01*
X125502508Y-98647106D01*
X125503827Y-98632368D01*
X125516960Y-98615461D01*
X125525854Y-98595988D01*
X125538302Y-98587987D01*
X125547381Y-98576301D01*
X125567569Y-98569178D01*
X125585580Y-98557604D01*
X125610558Y-98554012D01*
X125614333Y-98552681D01*
X125621078Y-98552500D01*
X125806700Y-98552500D01*
X125874821Y-98572502D01*
X125921314Y-98626158D01*
X125931462Y-98672810D01*
X125932094Y-98672748D01*
X125932627Y-98678166D01*
X125932700Y-98678500D01*
X125932700Y-98678906D01*
X125963955Y-98836031D01*
X125963956Y-98836034D01*
X125967767Y-98845235D01*
X126025263Y-98984042D01*
X126045773Y-99014737D01*
X126114268Y-99117247D01*
X126114273Y-99117253D01*
X126227546Y-99230526D01*
X126227552Y-99230531D01*
X126360758Y-99319537D01*
X126508769Y-99380845D01*
X126665897Y-99412100D01*
X126826103Y-99412100D01*
X126983231Y-99380845D01*
X127131242Y-99319537D01*
X127264448Y-99230531D01*
X127264453Y-99230526D01*
X127274575Y-99220405D01*
X127336887Y-99186379D01*
X127363670Y-99183500D01*
X128931175Y-99183500D01*
X128931177Y-99183500D01*
X129079886Y-99143653D01*
X129113612Y-99124180D01*
X129176612Y-99107300D01*
X129239103Y-99107300D01*
X129396231Y-99076045D01*
X129544242Y-99014737D01*
X129677448Y-98925731D01*
X129790731Y-98812448D01*
X129879737Y-98679242D01*
X129913019Y-98598893D01*
X130758700Y-98598893D01*
X130758700Y-98759106D01*
X130783363Y-98883090D01*
X130789955Y-98916231D01*
X130851263Y-99064242D01*
X130880033Y-99107299D01*
X130940268Y-99197447D01*
X130940273Y-99197453D01*
X131053546Y-99310726D01*
X131053552Y-99310731D01*
X131186758Y-99399737D01*
X131334769Y-99461045D01*
X131491897Y-99492300D01*
X131496300Y-99492300D01*
X131564421Y-99512302D01*
X131610914Y-99565958D01*
X131622300Y-99618300D01*
X131622300Y-102633330D01*
X131602298Y-102701451D01*
X131585395Y-102722425D01*
X131575273Y-102732546D01*
X131575268Y-102732552D01*
X131486263Y-102865758D01*
X131424956Y-103013765D01*
X131424955Y-103013768D01*
X131393700Y-103170893D01*
X131393700Y-103331106D01*
X131412972Y-103427991D01*
X131424955Y-103488231D01*
X131486263Y-103636242D01*
X131545734Y-103725247D01*
X131575268Y-103769447D01*
X131575273Y-103769453D01*
X131688546Y-103882726D01*
X131688552Y-103882731D01*
X131821758Y-103971737D01*
X131969769Y-104033045D01*
X132126897Y-104064300D01*
X132287103Y-104064300D01*
X132444231Y-104033045D01*
X132592242Y-103971737D01*
X132725448Y-103882731D01*
X132838731Y-103769448D01*
X132927737Y-103636242D01*
X132989045Y-103488231D01*
X133020300Y-103331103D01*
X133020300Y-103170897D01*
X132989045Y-103013769D01*
X132927737Y-102865758D01*
X132838731Y-102732552D01*
X132838726Y-102732546D01*
X132828605Y-102722425D01*
X132794579Y-102660113D01*
X132791700Y-102633330D01*
X132791700Y-101765428D01*
X132811702Y-101697307D01*
X132865358Y-101650814D01*
X132935632Y-101640710D01*
X132965916Y-101649019D01*
X132995075Y-101661097D01*
X133049260Y-101683542D01*
X133049264Y-101683543D01*
X133049269Y-101683545D01*
X133206397Y-101714800D01*
X133366603Y-101714800D01*
X133523731Y-101683545D01*
X133671742Y-101622237D01*
X133804948Y-101533231D01*
X133918231Y-101419948D01*
X134007237Y-101286742D01*
X134068545Y-101138731D01*
X134099800Y-100981603D01*
X134099800Y-100821397D01*
X134068545Y-100664269D01*
X134007237Y-100516258D01*
X133955935Y-100439479D01*
X133934720Y-100371726D01*
X133934700Y-100369477D01*
X133934700Y-99931669D01*
X133954702Y-99863548D01*
X133971603Y-99842575D01*
X133981731Y-99832448D01*
X134070737Y-99699242D01*
X134132045Y-99551231D01*
X134163300Y-99394103D01*
X134163300Y-99233897D01*
X134132045Y-99076769D01*
X134070737Y-98928758D01*
X133981731Y-98795552D01*
X133981726Y-98795546D01*
X133868453Y-98682273D01*
X133868447Y-98682268D01*
X133793618Y-98632269D01*
X133735242Y-98593263D01*
X133603083Y-98538521D01*
X133587234Y-98531956D01*
X133587231Y-98531955D01*
X133430106Y-98500700D01*
X133430103Y-98500700D01*
X133269897Y-98500700D01*
X133269893Y-98500700D01*
X133112768Y-98531955D01*
X133112765Y-98531956D01*
X132964758Y-98593263D01*
X132831552Y-98682268D01*
X132831546Y-98682273D01*
X132718273Y-98795546D01*
X132715030Y-98799498D01*
X132702344Y-98808137D01*
X132693146Y-98820425D01*
X132673594Y-98827716D01*
X132656349Y-98839462D01*
X132641005Y-98839871D01*
X132626625Y-98845235D01*
X132606235Y-98840799D01*
X132585378Y-98841356D01*
X132571143Y-98833165D01*
X132557251Y-98830143D01*
X132528541Y-98808651D01*
X132509287Y-98789397D01*
X132422204Y-98702313D01*
X132388179Y-98640001D01*
X132385300Y-98613218D01*
X132385300Y-98598896D01*
X132385299Y-98598893D01*
X132384179Y-98593263D01*
X132354045Y-98441769D01*
X132292737Y-98293758D01*
X132203731Y-98160552D01*
X132203726Y-98160546D01*
X132090453Y-98047273D01*
X132090447Y-98047268D01*
X132046247Y-98017734D01*
X131957242Y-97958263D01*
X131849732Y-97913731D01*
X131809234Y-97896956D01*
X131809231Y-97896955D01*
X131652106Y-97865700D01*
X131652103Y-97865700D01*
X131491897Y-97865700D01*
X131491893Y-97865700D01*
X131334768Y-97896955D01*
X131334765Y-97896956D01*
X131186758Y-97958263D01*
X131053552Y-98047268D01*
X131053546Y-98047273D01*
X130940273Y-98160546D01*
X130940268Y-98160552D01*
X130851263Y-98293758D01*
X130789956Y-98441765D01*
X130789955Y-98441768D01*
X130758700Y-98598893D01*
X129913019Y-98598893D01*
X129941045Y-98531231D01*
X129941472Y-98529080D01*
X129944206Y-98522011D01*
X129963070Y-98497427D01*
X129980056Y-98471501D01*
X129984665Y-98469284D01*
X129987427Y-98465686D01*
X130006136Y-98458960D01*
X130026072Y-98449374D01*
X130025305Y-98446843D01*
X130031225Y-98445046D01*
X130031231Y-98445045D01*
X130179242Y-98383737D01*
X130312448Y-98294731D01*
X130425731Y-98181448D01*
X130514737Y-98048242D01*
X130576045Y-97900231D01*
X130607300Y-97743103D01*
X130607300Y-97582897D01*
X130576045Y-97425769D01*
X130514737Y-97277758D01*
X130425731Y-97144552D01*
X130425726Y-97144546D01*
X130312453Y-97031273D01*
X130312447Y-97031268D01*
X130268247Y-97001734D01*
X130179242Y-96942263D01*
X130085907Y-96903602D01*
X130031234Y-96880956D01*
X130031231Y-96880955D01*
X129874106Y-96849700D01*
X129874103Y-96849700D01*
X129713897Y-96849700D01*
X129713893Y-96849700D01*
X129556768Y-96880955D01*
X129556765Y-96880956D01*
X129408758Y-96942263D01*
X129275552Y-97031268D01*
X129265931Y-97040889D01*
X129203618Y-97074911D01*
X129132802Y-97069844D01*
X129087745Y-97040886D01*
X128915783Y-96868924D01*
X128915781Y-96868923D01*
X128915779Y-96868921D01*
X128840241Y-96825310D01*
X128782455Y-96791947D01*
X128633746Y-96752100D01*
X128633744Y-96752100D01*
X127744670Y-96752100D01*
X127676549Y-96732098D01*
X127655575Y-96715195D01*
X127645453Y-96705073D01*
X127645447Y-96705068D01*
X127601247Y-96675534D01*
X127512242Y-96616063D01*
X127418907Y-96577402D01*
X127364234Y-96554756D01*
X127364231Y-96554755D01*
X127207106Y-96523500D01*
X127207103Y-96523500D01*
X127046897Y-96523500D01*
X127046893Y-96523500D01*
X126889768Y-96554755D01*
X126889765Y-96554756D01*
X126741758Y-96616063D01*
X126608552Y-96705068D01*
X126608546Y-96705073D01*
X126495273Y-96818346D01*
X126495268Y-96818352D01*
X126406263Y-96951558D01*
X126344956Y-97099565D01*
X126344955Y-97099568D01*
X126313700Y-97256693D01*
X126313700Y-97257100D01*
X126313640Y-97257303D01*
X126313094Y-97262852D01*
X126312041Y-97262748D01*
X126293698Y-97325221D01*
X126240042Y-97371714D01*
X126187700Y-97383100D01*
X119855550Y-97383100D01*
X119787429Y-97363098D01*
X119766455Y-97346195D01*
X118898390Y-96478130D01*
X118864364Y-96415818D01*
X118861485Y-96389035D01*
X118861485Y-96374711D01*
X118861484Y-96374708D01*
X118830230Y-96217584D01*
X118768922Y-96069573D01*
X118679916Y-95936367D01*
X118679911Y-95936361D01*
X118566638Y-95823088D01*
X118566632Y-95823083D01*
X118522432Y-95793549D01*
X118433427Y-95734078D01*
X118340092Y-95695417D01*
X118285419Y-95672771D01*
X118285416Y-95672770D01*
X118128291Y-95641515D01*
X118128288Y-95641515D01*
X117968082Y-95641515D01*
X117968078Y-95641515D01*
X117810953Y-95672770D01*
X117810950Y-95672771D01*
X117662943Y-95734078D01*
X117529737Y-95823083D01*
X117529731Y-95823088D01*
X117416458Y-95936361D01*
X117416453Y-95936367D01*
X117327448Y-96069573D01*
X117266141Y-96217580D01*
X117266140Y-96217583D01*
X117234885Y-96374708D01*
X117234885Y-96389034D01*
X117214883Y-96457155D01*
X117197980Y-96478129D01*
X115656815Y-98019295D01*
X115594503Y-98053320D01*
X115567720Y-98056200D01*
X115553393Y-98056200D01*
X115396268Y-98087455D01*
X115396265Y-98087456D01*
X115248258Y-98148763D01*
X115115052Y-98237768D01*
X115115046Y-98237773D01*
X115001773Y-98351046D01*
X115001768Y-98351052D01*
X114912763Y-98484258D01*
X114851456Y-98632265D01*
X114851455Y-98632268D01*
X114820200Y-98789393D01*
X108139574Y-98789393D01*
X108132049Y-98741884D01*
X108065972Y-98538517D01*
X107968894Y-98347991D01*
X107843206Y-98174996D01*
X107843203Y-98174993D01*
X107843201Y-98174990D01*
X107692009Y-98023798D01*
X107692006Y-98023796D01*
X107692004Y-98023794D01*
X107519009Y-97898106D01*
X107377992Y-97826254D01*
X107326379Y-97777508D01*
X107309313Y-97708593D01*
X107332214Y-97641391D01*
X107361133Y-97612055D01*
X107438004Y-97556206D01*
X107589206Y-97405004D01*
X107714894Y-97232009D01*
X107811972Y-97041483D01*
X107878049Y-96838116D01*
X107911500Y-96626916D01*
X107911500Y-96413084D01*
X107878049Y-96201884D01*
X107811972Y-95998517D01*
X107714894Y-95807991D01*
X107589206Y-95634996D01*
X107589203Y-95634993D01*
X107589201Y-95634990D01*
X107438006Y-95483795D01*
X107361136Y-95427946D01*
X107317782Y-95371723D01*
X107311707Y-95300987D01*
X107344839Y-95238196D01*
X107377989Y-95213747D01*
X107519009Y-95141894D01*
X107692004Y-95016206D01*
X107843206Y-94865004D01*
X107968894Y-94692009D01*
X108065972Y-94501483D01*
X108132049Y-94298116D01*
X108165500Y-94086916D01*
X108165500Y-93873084D01*
X108132049Y-93661884D01*
X108065972Y-93458517D01*
X107968894Y-93267991D01*
X107843206Y-93094996D01*
X107843203Y-93094993D01*
X107843201Y-93094990D01*
X107692009Y-92943798D01*
X107692006Y-92943796D01*
X107692004Y-92943794D01*
X107519009Y-92818106D01*
X107377992Y-92746254D01*
X107326379Y-92697508D01*
X107309313Y-92628593D01*
X107332214Y-92561391D01*
X107361133Y-92532055D01*
X107438004Y-92476206D01*
X107589206Y-92325004D01*
X107714894Y-92152009D01*
X107811972Y-91961483D01*
X107878049Y-91758116D01*
X107911500Y-91546916D01*
X107911500Y-91333084D01*
X107878049Y-91121884D01*
X107831589Y-90978893D01*
X126186700Y-90978893D01*
X126186700Y-91139106D01*
X126217955Y-91296231D01*
X126279263Y-91444242D01*
X126368269Y-91577448D01*
X126378393Y-91587572D01*
X126412420Y-91649882D01*
X126415300Y-91676669D01*
X126415300Y-93548975D01*
X126415299Y-93548975D01*
X126415300Y-93548977D01*
X126455147Y-93697686D01*
X126515200Y-93801700D01*
X126532124Y-93831014D01*
X127429396Y-94728286D01*
X127463420Y-94790597D01*
X127466300Y-94817380D01*
X127466300Y-94831706D01*
X127497555Y-94988831D01*
X127497556Y-94988834D01*
X127508892Y-95016201D01*
X127558863Y-95136842D01*
X127562239Y-95141894D01*
X127647868Y-95270047D01*
X127647873Y-95270053D01*
X127761146Y-95383326D01*
X127761152Y-95383331D01*
X127894358Y-95472337D01*
X128042369Y-95533645D01*
X128199497Y-95564900D01*
X128359703Y-95564900D01*
X128516831Y-95533645D01*
X128664842Y-95472337D01*
X128798048Y-95383331D01*
X128802249Y-95379129D01*
X128864558Y-95345102D01*
X128935374Y-95350163D01*
X128939566Y-95351812D01*
X128984832Y-95370561D01*
X129048769Y-95397045D01*
X129205897Y-95428300D01*
X129366103Y-95428300D01*
X129523231Y-95397045D01*
X129671242Y-95335737D01*
X129804448Y-95246731D01*
X129917731Y-95133448D01*
X130006737Y-95000242D01*
X130068045Y-94852231D01*
X130099300Y-94695103D01*
X130099300Y-94534897D01*
X130068045Y-94377769D01*
X130006737Y-94229758D01*
X129917731Y-94096552D01*
X129917726Y-94096546D01*
X129804453Y-93983273D01*
X129804447Y-93983268D01*
X129760247Y-93953734D01*
X129671242Y-93894263D01*
X129577907Y-93855602D01*
X129523234Y-93832956D01*
X129523231Y-93832955D01*
X129366106Y-93801700D01*
X129366103Y-93801700D01*
X129205897Y-93801700D01*
X129205893Y-93801700D01*
X129048768Y-93832955D01*
X129048765Y-93832956D01*
X128900758Y-93894263D01*
X128767552Y-93983268D01*
X128763341Y-93987479D01*
X128701027Y-94021500D01*
X128630212Y-94016431D01*
X128626034Y-94014787D01*
X128516838Y-93969557D01*
X128516831Y-93969555D01*
X128359706Y-93938300D01*
X128359703Y-93938300D01*
X128345381Y-93938300D01*
X128277260Y-93918298D01*
X128256286Y-93901395D01*
X127621605Y-93266714D01*
X127587579Y-93204402D01*
X127584700Y-93177619D01*
X127584700Y-91676669D01*
X127604702Y-91608548D01*
X127621603Y-91587575D01*
X127631731Y-91577448D01*
X127720737Y-91444242D01*
X127782045Y-91296231D01*
X127813300Y-91139103D01*
X127813300Y-90978897D01*
X127782045Y-90821769D01*
X127720737Y-90673758D01*
X127631731Y-90540552D01*
X127631726Y-90540546D01*
X127518453Y-90427273D01*
X127518447Y-90427268D01*
X127474247Y-90397734D01*
X127385242Y-90338263D01*
X127240010Y-90278106D01*
X127237234Y-90276956D01*
X127237231Y-90276955D01*
X127080106Y-90245700D01*
X127080103Y-90245700D01*
X126919897Y-90245700D01*
X126919893Y-90245700D01*
X126762768Y-90276955D01*
X126762765Y-90276956D01*
X126614758Y-90338263D01*
X126481552Y-90427268D01*
X126481546Y-90427273D01*
X126368273Y-90540546D01*
X126368268Y-90540552D01*
X126279263Y-90673758D01*
X126217956Y-90821765D01*
X126217955Y-90821768D01*
X126186700Y-90978893D01*
X107831589Y-90978893D01*
X107811972Y-90918517D01*
X107714894Y-90727991D01*
X107589206Y-90554996D01*
X107589203Y-90554993D01*
X107589201Y-90554990D01*
X107438006Y-90403795D01*
X107361136Y-90347946D01*
X107317782Y-90291723D01*
X107311707Y-90220987D01*
X107344839Y-90158196D01*
X107377989Y-90133747D01*
X107519009Y-90061894D01*
X107692004Y-89936206D01*
X107843206Y-89785004D01*
X107968894Y-89612009D01*
X108065972Y-89421483D01*
X108132049Y-89218116D01*
X108165500Y-89006916D01*
X108165500Y-88793084D01*
X108132049Y-88581884D01*
X108065972Y-88378517D01*
X107968894Y-88187991D01*
X107843206Y-88014996D01*
X107843203Y-88014993D01*
X107843201Y-88014990D01*
X107692009Y-87863798D01*
X107692006Y-87863796D01*
X107692004Y-87863794D01*
X107519009Y-87738106D01*
X107377992Y-87666254D01*
X107326379Y-87617508D01*
X107309313Y-87548593D01*
X107332214Y-87481391D01*
X107361133Y-87452055D01*
X107438004Y-87396206D01*
X107589206Y-87245004D01*
X107714894Y-87072009D01*
X107811972Y-86881483D01*
X107878049Y-86678116D01*
X107911500Y-86466916D01*
X107911500Y-86279893D01*
X127583700Y-86279893D01*
X127583700Y-86440106D01*
X127589033Y-86466916D01*
X127614955Y-86597231D01*
X127676263Y-86745242D01*
X127724678Y-86817700D01*
X127765268Y-86878447D01*
X127765273Y-86878453D01*
X127878546Y-86991726D01*
X127878552Y-86991731D01*
X128011758Y-87080737D01*
X128159769Y-87142045D01*
X128316897Y-87173300D01*
X128477103Y-87173300D01*
X128634231Y-87142045D01*
X128782242Y-87080737D01*
X128915448Y-86991731D01*
X129028731Y-86878448D01*
X129031905Y-86873698D01*
X129086382Y-86828170D01*
X129136670Y-86817700D01*
X130491218Y-86817700D01*
X130559339Y-86837702D01*
X130605832Y-86891358D01*
X130615936Y-86961632D01*
X130586442Y-87026212D01*
X130580314Y-87032795D01*
X130577986Y-87035122D01*
X130577986Y-87035123D01*
X130376112Y-87236996D01*
X130313803Y-87271020D01*
X130287019Y-87273900D01*
X130272693Y-87273900D01*
X130115568Y-87305155D01*
X130115565Y-87305156D01*
X129967558Y-87366463D01*
X129834352Y-87455468D01*
X129834346Y-87455473D01*
X129721073Y-87568746D01*
X129721068Y-87568752D01*
X129632063Y-87701958D01*
X129570756Y-87849965D01*
X129570755Y-87849968D01*
X129539500Y-88007093D01*
X129539500Y-88167306D01*
X129569137Y-88316299D01*
X129570755Y-88324431D01*
X129632063Y-88472442D01*
X129691534Y-88561447D01*
X129721068Y-88605647D01*
X129721073Y-88605653D01*
X129834346Y-88718926D01*
X129834352Y-88718931D01*
X129967558Y-88807937D01*
X130115569Y-88869245D01*
X130272697Y-88900500D01*
X130432903Y-88900500D01*
X130590031Y-88869245D01*
X130738042Y-88807937D01*
X130871248Y-88718931D01*
X130984531Y-88605648D01*
X131073537Y-88472442D01*
X131134845Y-88324431D01*
X131161761Y-88189118D01*
X131194669Y-88126208D01*
X131256364Y-88091077D01*
X131285340Y-88087700D01*
X131970330Y-88087700D01*
X132038451Y-88107702D01*
X132059425Y-88124605D01*
X132069546Y-88134726D01*
X132069552Y-88134731D01*
X132202758Y-88223737D01*
X132350769Y-88285045D01*
X132507897Y-88316300D01*
X132668103Y-88316300D01*
X132825231Y-88285045D01*
X132973242Y-88223737D01*
X133106448Y-88134731D01*
X133219731Y-88021448D01*
X133308737Y-87888242D01*
X133370045Y-87740231D01*
X133370393Y-87738479D01*
X133370828Y-87737648D01*
X133371840Y-87734312D01*
X133372472Y-87734503D01*
X133403294Y-87675570D01*
X133464986Y-87640433D01*
X133535881Y-87644227D01*
X133583068Y-87673958D01*
X133859870Y-87950760D01*
X133893896Y-88013072D01*
X133888831Y-88083887D01*
X133864310Y-88122040D01*
X133865196Y-88122767D01*
X133861268Y-88127552D01*
X133772263Y-88260758D01*
X133710956Y-88408765D01*
X133710955Y-88408768D01*
X133679700Y-88565893D01*
X133679700Y-88726106D01*
X133710955Y-88883231D01*
X133710956Y-88883234D01*
X133718108Y-88900500D01*
X133772263Y-89031242D01*
X133831734Y-89120247D01*
X133861268Y-89164447D01*
X133861273Y-89164453D01*
X133974546Y-89277726D01*
X133974552Y-89277731D01*
X134107758Y-89366737D01*
X134255769Y-89428045D01*
X134412897Y-89459300D01*
X134573103Y-89459300D01*
X134730231Y-89428045D01*
X134878242Y-89366737D01*
X135011448Y-89277731D01*
X135124731Y-89164448D01*
X135213737Y-89031242D01*
X135275045Y-88883231D01*
X135306300Y-88726103D01*
X135306300Y-88565897D01*
X135275045Y-88408769D01*
X135213737Y-88260758D01*
X135124731Y-88127552D01*
X135124726Y-88127546D01*
X135114605Y-88117425D01*
X135080579Y-88055113D01*
X135077700Y-88028330D01*
X135077700Y-87680024D01*
X135067251Y-87641028D01*
X135037853Y-87531314D01*
X134978609Y-87428700D01*
X134960876Y-87397985D01*
X134960873Y-87397982D01*
X134960869Y-87397977D01*
X133328020Y-85765129D01*
X133328010Y-85765121D01*
X133261645Y-85726806D01*
X133194686Y-85688147D01*
X133045977Y-85648300D01*
X133045975Y-85648300D01*
X128829122Y-85648300D01*
X128780905Y-85638709D01*
X128711782Y-85610077D01*
X128634234Y-85577956D01*
X128634231Y-85577955D01*
X128477106Y-85546700D01*
X128477103Y-85546700D01*
X128316897Y-85546700D01*
X128316893Y-85546700D01*
X128159768Y-85577955D01*
X128159765Y-85577956D01*
X128011758Y-85639263D01*
X127878552Y-85728268D01*
X127878546Y-85728273D01*
X127765273Y-85841546D01*
X127765268Y-85841552D01*
X127676263Y-85974758D01*
X127614956Y-86122765D01*
X127614955Y-86122768D01*
X127583700Y-86279893D01*
X107911500Y-86279893D01*
X107911500Y-86253084D01*
X107878049Y-86041884D01*
X107811972Y-85838517D01*
X107714894Y-85647991D01*
X107589206Y-85474996D01*
X107589203Y-85474993D01*
X107589201Y-85474990D01*
X107438006Y-85323795D01*
X107361136Y-85267946D01*
X107317782Y-85211723D01*
X107311707Y-85140987D01*
X107344839Y-85078196D01*
X107377989Y-85053747D01*
X107519009Y-84981894D01*
X107692004Y-84856206D01*
X107843206Y-84705004D01*
X107968894Y-84532009D01*
X108065972Y-84341483D01*
X108132049Y-84138116D01*
X108165500Y-83926916D01*
X108165500Y-83713084D01*
X108132049Y-83501884D01*
X108065972Y-83298517D01*
X107968894Y-83107991D01*
X107843206Y-82934996D01*
X107843203Y-82934993D01*
X107843201Y-82934990D01*
X107692009Y-82783798D01*
X107692006Y-82783796D01*
X107692004Y-82783794D01*
X107519009Y-82658106D01*
X107377992Y-82586254D01*
X107326379Y-82537508D01*
X107309313Y-82468593D01*
X107332214Y-82401391D01*
X107361133Y-82372055D01*
X107438004Y-82316206D01*
X107589206Y-82165004D01*
X107714894Y-81992009D01*
X107811972Y-81801483D01*
X107878049Y-81598116D01*
X107911500Y-81386916D01*
X107911500Y-81173084D01*
X107878049Y-80961884D01*
X107811972Y-80758517D01*
X107714894Y-80567991D01*
X107589206Y-80394996D01*
X107589203Y-80394993D01*
X107589201Y-80394990D01*
X107438006Y-80243795D01*
X107361136Y-80187946D01*
X107317782Y-80131723D01*
X107311707Y-80060987D01*
X107344839Y-79998196D01*
X107377989Y-79973747D01*
X107519009Y-79901894D01*
X107692004Y-79776206D01*
X107843206Y-79625004D01*
X107968894Y-79452009D01*
X108065972Y-79261483D01*
X108132049Y-79058116D01*
X108165500Y-78846916D01*
X108165500Y-78633084D01*
X108132049Y-78421884D01*
X108065972Y-78218517D01*
X107968894Y-78027991D01*
X107843206Y-77854996D01*
X107843203Y-77854993D01*
X107843201Y-77854990D01*
X107692009Y-77703798D01*
X107692005Y-77703795D01*
X107692004Y-77703794D01*
X107670949Y-77688497D01*
X107627597Y-77632277D01*
X107621520Y-77561541D01*
X107654651Y-77498749D01*
X107669502Y-77485694D01*
X107766261Y-77413261D01*
X107853887Y-77296207D01*
X107853887Y-77296206D01*
X107853889Y-77296204D01*
X107904989Y-77159201D01*
X107911500Y-77098638D01*
X107911500Y-75301362D01*
X107911499Y-75301350D01*
X148374500Y-75301350D01*
X148374500Y-77098649D01*
X148381009Y-77159196D01*
X148381011Y-77159204D01*
X148432110Y-77296202D01*
X148432112Y-77296207D01*
X148519738Y-77413261D01*
X148636792Y-77500887D01*
X148636794Y-77500888D01*
X148636796Y-77500889D01*
X148695875Y-77522924D01*
X148773795Y-77551988D01*
X148773803Y-77551990D01*
X148834350Y-77558499D01*
X148834355Y-77558499D01*
X148834362Y-77558500D01*
X148943099Y-77558500D01*
X149011220Y-77578502D01*
X149057713Y-77632158D01*
X149067817Y-77702432D01*
X149038323Y-77767012D01*
X149032194Y-77773595D01*
X148950798Y-77854990D01*
X148950796Y-77854993D01*
X148825108Y-78027987D01*
X148728029Y-78218515D01*
X148728026Y-78218521D01*
X148661952Y-78421878D01*
X148661951Y-78421883D01*
X148661951Y-78421884D01*
X148628500Y-78633084D01*
X148628500Y-78846916D01*
X148661951Y-79058116D01*
X148661952Y-79058121D01*
X148728026Y-79261478D01*
X148728028Y-79261483D01*
X148825106Y-79452009D01*
X148950794Y-79625004D01*
X148950796Y-79625006D01*
X148950798Y-79625009D01*
X149101990Y-79776201D01*
X149101993Y-79776203D01*
X149101996Y-79776206D01*
X149178863Y-79832053D01*
X149222217Y-79888275D01*
X149228292Y-79959011D01*
X149195161Y-80021803D01*
X149162006Y-80046254D01*
X149035355Y-80110786D01*
X149020987Y-80118108D01*
X148847993Y-80243796D01*
X148847990Y-80243798D01*
X148696798Y-80394990D01*
X148696796Y-80394993D01*
X148571108Y-80567987D01*
X148474029Y-80758515D01*
X148474026Y-80758521D01*
X148407952Y-80961878D01*
X148407951Y-80961883D01*
X148407951Y-80961884D01*
X148374500Y-81173084D01*
X148374500Y-81386916D01*
X148407951Y-81598116D01*
X148407952Y-81598121D01*
X148474026Y-81801478D01*
X148474028Y-81801483D01*
X148571106Y-81992009D01*
X148696794Y-82165004D01*
X148696796Y-82165006D01*
X148696798Y-82165009D01*
X148847990Y-82316201D01*
X148847993Y-82316203D01*
X148847996Y-82316206D01*
X149020991Y-82441894D01*
X149162005Y-82513744D01*
X149213620Y-82562491D01*
X149230686Y-82631406D01*
X149207786Y-82698607D01*
X149178864Y-82727946D01*
X149101989Y-82783799D01*
X148950798Y-82934990D01*
X148950796Y-82934993D01*
X148825108Y-83107987D01*
X148728029Y-83298515D01*
X148728026Y-83298521D01*
X148661952Y-83501878D01*
X148661951Y-83501883D01*
X148661951Y-83501884D01*
X148628500Y-83713084D01*
X148628500Y-83926916D01*
X148661951Y-84138116D01*
X148661952Y-84138121D01*
X148728026Y-84341478D01*
X148728028Y-84341483D01*
X148825106Y-84532009D01*
X148950794Y-84705004D01*
X148950796Y-84705006D01*
X148950798Y-84705009D01*
X149101990Y-84856201D01*
X149101993Y-84856203D01*
X149101996Y-84856206D01*
X149178863Y-84912053D01*
X149222217Y-84968275D01*
X149228292Y-85039011D01*
X149195161Y-85101803D01*
X149162006Y-85126254D01*
X149035355Y-85190786D01*
X149020987Y-85198108D01*
X148847993Y-85323796D01*
X148847990Y-85323798D01*
X148696798Y-85474990D01*
X148696796Y-85474993D01*
X148571108Y-85647987D01*
X148474029Y-85838515D01*
X148474026Y-85838521D01*
X148407952Y-86041878D01*
X148407951Y-86041883D01*
X148407951Y-86041884D01*
X148374500Y-86253084D01*
X148374500Y-86466916D01*
X148407951Y-86678116D01*
X148407952Y-86678121D01*
X148474026Y-86881478D01*
X148474028Y-86881483D01*
X148552312Y-87035123D01*
X148571108Y-87072012D01*
X148577447Y-87080737D01*
X148696794Y-87245004D01*
X148696796Y-87245006D01*
X148696798Y-87245009D01*
X148847990Y-87396201D01*
X148847993Y-87396203D01*
X148847996Y-87396206D01*
X149020991Y-87521894D01*
X149162005Y-87593744D01*
X149213620Y-87642491D01*
X149230686Y-87711406D01*
X149207786Y-87778607D01*
X149178864Y-87807946D01*
X149101989Y-87863799D01*
X148950798Y-88014990D01*
X148950796Y-88014993D01*
X148825108Y-88187987D01*
X148728029Y-88378515D01*
X148728026Y-88378521D01*
X148661952Y-88581878D01*
X148661951Y-88581883D01*
X148661951Y-88581884D01*
X148628500Y-88793084D01*
X148628500Y-89006916D01*
X148632353Y-89031241D01*
X148661952Y-89218121D01*
X148710240Y-89366737D01*
X148728028Y-89421483D01*
X148825106Y-89612009D01*
X148950794Y-89785004D01*
X148950796Y-89785006D01*
X148950798Y-89785009D01*
X149101990Y-89936201D01*
X149101993Y-89936203D01*
X149101996Y-89936206D01*
X149178863Y-89992053D01*
X149222217Y-90048275D01*
X149228292Y-90119011D01*
X149195161Y-90181803D01*
X149162006Y-90206254D01*
X149035355Y-90270786D01*
X149020987Y-90278108D01*
X148847993Y-90403796D01*
X148847990Y-90403798D01*
X148696798Y-90554990D01*
X148696796Y-90554993D01*
X148571108Y-90727987D01*
X148474029Y-90918515D01*
X148474026Y-90918521D01*
X148407952Y-91121878D01*
X148407951Y-91121883D01*
X148407951Y-91121884D01*
X148374500Y-91333084D01*
X148374500Y-91546916D01*
X148395051Y-91676669D01*
X148407952Y-91758121D01*
X148474026Y-91961478D01*
X148474028Y-91961483D01*
X148571106Y-92152009D01*
X148696794Y-92325004D01*
X148696796Y-92325006D01*
X148696798Y-92325009D01*
X148847990Y-92476201D01*
X148847993Y-92476203D01*
X148847996Y-92476206D01*
X149020991Y-92601894D01*
X149162005Y-92673744D01*
X149213620Y-92722491D01*
X149230686Y-92791406D01*
X149207786Y-92858607D01*
X149178864Y-92887946D01*
X149101989Y-92943799D01*
X148950798Y-93094990D01*
X148950796Y-93094993D01*
X148825108Y-93267987D01*
X148728029Y-93458515D01*
X148728026Y-93458521D01*
X148661952Y-93661878D01*
X148661951Y-93661883D01*
X148661951Y-93661884D01*
X148628500Y-93873084D01*
X148628500Y-94086916D01*
X148651124Y-94229758D01*
X148661952Y-94298121D01*
X148687830Y-94377765D01*
X148728028Y-94501483D01*
X148825106Y-94692009D01*
X148950794Y-94865004D01*
X148950796Y-94865006D01*
X148950798Y-94865009D01*
X149101990Y-95016201D01*
X149101993Y-95016203D01*
X149101996Y-95016206D01*
X149178863Y-95072053D01*
X149222217Y-95128275D01*
X149228292Y-95199011D01*
X149195161Y-95261803D01*
X149162006Y-95286254D01*
X149108221Y-95313660D01*
X149020987Y-95358108D01*
X148847993Y-95483796D01*
X148847990Y-95483798D01*
X148696798Y-95634990D01*
X148696796Y-95634993D01*
X148571108Y-95807987D01*
X148474029Y-95998515D01*
X148474026Y-95998521D01*
X148407952Y-96201878D01*
X148407951Y-96201883D01*
X148407951Y-96201884D01*
X148374500Y-96413084D01*
X148374500Y-96626916D01*
X148400639Y-96791947D01*
X148407952Y-96838121D01*
X148473835Y-97040889D01*
X148474028Y-97041483D01*
X148571106Y-97232009D01*
X148696794Y-97405004D01*
X148696796Y-97405006D01*
X148696798Y-97405009D01*
X148847990Y-97556201D01*
X148847993Y-97556203D01*
X148847996Y-97556206D01*
X149020991Y-97681894D01*
X149162005Y-97753744D01*
X149213620Y-97802491D01*
X149230686Y-97871406D01*
X149207786Y-97938607D01*
X149178864Y-97967946D01*
X149101989Y-98023799D01*
X148950798Y-98174990D01*
X148950796Y-98174993D01*
X148825108Y-98347987D01*
X148728029Y-98538515D01*
X148728026Y-98538521D01*
X148661952Y-98741878D01*
X148661951Y-98741883D01*
X148661951Y-98741884D01*
X148628500Y-98953084D01*
X148628500Y-99166916D01*
X148654271Y-99329625D01*
X148661952Y-99378121D01*
X148728026Y-99581478D01*
X148728028Y-99581483D01*
X148825106Y-99772009D01*
X148950794Y-99945004D01*
X148950796Y-99945006D01*
X148950798Y-99945009D01*
X149101990Y-100096201D01*
X149101993Y-100096203D01*
X149101996Y-100096206D01*
X149178863Y-100152053D01*
X149222217Y-100208275D01*
X149228292Y-100279011D01*
X149195161Y-100341803D01*
X149162006Y-100366254D01*
X149080668Y-100407699D01*
X149020987Y-100438108D01*
X148847993Y-100563796D01*
X148847990Y-100563798D01*
X148696798Y-100714990D01*
X148696796Y-100714993D01*
X148571108Y-100887987D01*
X148474029Y-101078515D01*
X148474026Y-101078521D01*
X148407952Y-101281878D01*
X148407951Y-101281883D01*
X148407951Y-101281884D01*
X148374500Y-101493084D01*
X148374500Y-101706916D01*
X148407951Y-101918116D01*
X148407952Y-101918121D01*
X148474026Y-102121478D01*
X148474028Y-102121483D01*
X148571106Y-102312009D01*
X148696794Y-102485004D01*
X148696796Y-102485006D01*
X148696798Y-102485009D01*
X148847990Y-102636201D01*
X148847993Y-102636203D01*
X148847996Y-102636206D01*
X149020991Y-102761894D01*
X149162005Y-102833744D01*
X149213620Y-102882491D01*
X149230686Y-102951406D01*
X149207786Y-103018607D01*
X149178864Y-103047946D01*
X149101989Y-103103799D01*
X148950798Y-103254990D01*
X148950796Y-103254993D01*
X148825108Y-103427987D01*
X148728029Y-103618515D01*
X148728026Y-103618521D01*
X148661952Y-103821878D01*
X148661951Y-103821883D01*
X148661951Y-103821884D01*
X148628500Y-104033084D01*
X148628500Y-104246916D01*
X148661951Y-104458116D01*
X148661952Y-104458121D01*
X148728026Y-104661478D01*
X148728028Y-104661483D01*
X148825106Y-104852009D01*
X148950794Y-105025004D01*
X148950796Y-105025006D01*
X148950798Y-105025009D01*
X149101990Y-105176201D01*
X149101993Y-105176203D01*
X149101996Y-105176206D01*
X149178863Y-105232053D01*
X149222217Y-105288275D01*
X149228292Y-105359011D01*
X149195161Y-105421803D01*
X149162006Y-105446254D01*
X149035355Y-105510786D01*
X149020987Y-105518108D01*
X148847993Y-105643796D01*
X148847990Y-105643798D01*
X148696798Y-105794990D01*
X148696796Y-105794993D01*
X148571108Y-105967987D01*
X148474029Y-106158515D01*
X148474026Y-106158521D01*
X148407952Y-106361878D01*
X148407951Y-106361883D01*
X148407951Y-106361884D01*
X148374500Y-106573084D01*
X148374500Y-106786916D01*
X148407951Y-106998116D01*
X148407952Y-106998121D01*
X148474026Y-107201478D01*
X148474028Y-107201483D01*
X148571106Y-107392009D01*
X148696794Y-107565004D01*
X148696796Y-107565006D01*
X148696798Y-107565009D01*
X148847990Y-107716201D01*
X148847993Y-107716203D01*
X148847996Y-107716206D01*
X149020991Y-107841894D01*
X149162005Y-107913744D01*
X149213620Y-107962491D01*
X149230686Y-108031406D01*
X149207786Y-108098607D01*
X149178864Y-108127946D01*
X149101989Y-108183799D01*
X148950798Y-108334990D01*
X148950796Y-108334993D01*
X148825108Y-108507987D01*
X148728029Y-108698515D01*
X148728026Y-108698521D01*
X148661952Y-108901878D01*
X148661951Y-108901883D01*
X148661951Y-108901884D01*
X148628500Y-109113084D01*
X148628500Y-109326916D01*
X148661951Y-109538116D01*
X148661952Y-109538121D01*
X148728026Y-109741478D01*
X148728028Y-109741483D01*
X148825106Y-109932009D01*
X148950794Y-110105004D01*
X148950796Y-110105006D01*
X148950798Y-110105009D01*
X149101990Y-110256201D01*
X149101993Y-110256203D01*
X149101996Y-110256206D01*
X149178863Y-110312053D01*
X149222217Y-110368275D01*
X149228292Y-110439011D01*
X149195161Y-110501803D01*
X149162006Y-110526254D01*
X149035355Y-110590786D01*
X149020987Y-110598108D01*
X148847993Y-110723796D01*
X148847990Y-110723798D01*
X148696798Y-110874990D01*
X148696796Y-110874993D01*
X148571108Y-111047987D01*
X148474029Y-111238515D01*
X148474026Y-111238521D01*
X148407952Y-111441878D01*
X148407951Y-111441883D01*
X148407951Y-111441884D01*
X148374500Y-111653084D01*
X148374500Y-111866916D01*
X148407951Y-112078116D01*
X148407952Y-112078121D01*
X148474026Y-112281478D01*
X148474028Y-112281483D01*
X148571106Y-112472009D01*
X148696794Y-112645004D01*
X148696796Y-112645006D01*
X148696798Y-112645009D01*
X148847990Y-112796201D01*
X148847993Y-112796203D01*
X148847996Y-112796206D01*
X149020991Y-112921894D01*
X149162005Y-112993744D01*
X149213620Y-113042491D01*
X149230686Y-113111406D01*
X149207786Y-113178607D01*
X149178864Y-113207946D01*
X149101989Y-113263799D01*
X148950798Y-113414990D01*
X148950796Y-113414993D01*
X148825108Y-113587987D01*
X148728029Y-113778515D01*
X148728026Y-113778521D01*
X148661952Y-113981878D01*
X148661951Y-113981883D01*
X148661951Y-113981884D01*
X148628500Y-114193084D01*
X148628500Y-114406916D01*
X148661951Y-114618116D01*
X148661952Y-114618121D01*
X148728026Y-114821478D01*
X148728028Y-114821483D01*
X148825106Y-115012009D01*
X148950794Y-115185004D01*
X148950796Y-115185006D01*
X148950798Y-115185009D01*
X149101990Y-115336201D01*
X149101993Y-115336203D01*
X149101996Y-115336206D01*
X149170499Y-115385976D01*
X149179317Y-115392383D01*
X149222671Y-115448605D01*
X149228746Y-115519342D01*
X149195614Y-115582133D01*
X149162459Y-115606586D01*
X149021250Y-115678535D01*
X148848320Y-115804177D01*
X148697177Y-115955320D01*
X148571536Y-116128249D01*
X148474493Y-116318707D01*
X148474490Y-116318713D01*
X148408440Y-116521995D01*
X148398302Y-116586000D01*
X149302297Y-116586000D01*
X149267075Y-116647007D01*
X149233000Y-116774174D01*
X149233000Y-116905826D01*
X149267075Y-117032993D01*
X149302297Y-117094000D01*
X148398302Y-117094000D01*
X148408440Y-117158004D01*
X148474490Y-117361286D01*
X148474493Y-117361292D01*
X148571536Y-117551750D01*
X148697177Y-117724679D01*
X148848320Y-117875822D01*
X149021249Y-118001463D01*
X149211707Y-118098506D01*
X149211713Y-118098509D01*
X149414998Y-118164560D01*
X149479000Y-118174696D01*
X149479000Y-117270702D01*
X149540007Y-117305925D01*
X149667174Y-117340000D01*
X149798826Y-117340000D01*
X149925993Y-117305925D01*
X149987000Y-117270702D01*
X149987000Y-118174696D01*
X150051001Y-118164560D01*
X150254286Y-118098509D01*
X150254292Y-118098506D01*
X150444750Y-118001463D01*
X150617679Y-117875822D01*
X150768822Y-117724679D01*
X150894463Y-117551750D01*
X150991506Y-117361292D01*
X150991509Y-117361286D01*
X151057559Y-117158004D01*
X151067698Y-117094000D01*
X150163703Y-117094000D01*
X150198925Y-117032993D01*
X150233000Y-116905826D01*
X150233000Y-116774174D01*
X150198925Y-116647007D01*
X150163703Y-116586000D01*
X151067697Y-116586000D01*
X151057559Y-116521995D01*
X150991509Y-116318713D01*
X150991506Y-116318707D01*
X150894463Y-116128249D01*
X150768822Y-115955320D01*
X150617679Y-115804177D01*
X150540636Y-115748202D01*
X150497282Y-115691979D01*
X150491207Y-115621243D01*
X150524339Y-115558451D01*
X150557491Y-115534000D01*
X150699009Y-115461894D01*
X150872004Y-115336206D01*
X151023206Y-115185004D01*
X151148894Y-115012009D01*
X151245972Y-114821483D01*
X151312049Y-114618116D01*
X151345500Y-114406916D01*
X151345500Y-114193084D01*
X151312049Y-113981884D01*
X151245972Y-113778517D01*
X151148894Y-113587991D01*
X151023206Y-113414996D01*
X151023203Y-113414993D01*
X151023201Y-113414990D01*
X150872009Y-113263798D01*
X150872006Y-113263796D01*
X150872004Y-113263794D01*
X150699009Y-113138106D01*
X150557992Y-113066254D01*
X150506379Y-113017508D01*
X150489313Y-112948593D01*
X150512214Y-112881391D01*
X150541133Y-112852055D01*
X150618004Y-112796206D01*
X150769206Y-112645004D01*
X150894894Y-112472009D01*
X150991972Y-112281483D01*
X151058049Y-112078116D01*
X151091500Y-111866916D01*
X151091500Y-111653084D01*
X151058049Y-111441884D01*
X150991972Y-111238517D01*
X150894894Y-111047991D01*
X150769206Y-110874996D01*
X150769203Y-110874993D01*
X150769201Y-110874990D01*
X150618006Y-110723795D01*
X150541136Y-110667946D01*
X150497782Y-110611723D01*
X150491707Y-110540987D01*
X150524839Y-110478196D01*
X150557989Y-110453747D01*
X150699009Y-110381894D01*
X150872004Y-110256206D01*
X151023206Y-110105004D01*
X151148894Y-109932009D01*
X151245972Y-109741483D01*
X151312049Y-109538116D01*
X151345500Y-109326916D01*
X151345500Y-109113084D01*
X151312049Y-108901884D01*
X151245972Y-108698517D01*
X151148894Y-108507991D01*
X151023206Y-108334996D01*
X151023203Y-108334993D01*
X151023201Y-108334990D01*
X150872009Y-108183798D01*
X150872006Y-108183796D01*
X150872004Y-108183794D01*
X150699009Y-108058106D01*
X150557992Y-107986254D01*
X150506379Y-107937508D01*
X150489313Y-107868593D01*
X150512214Y-107801391D01*
X150541133Y-107772055D01*
X150618004Y-107716206D01*
X150769206Y-107565004D01*
X150894894Y-107392009D01*
X150991972Y-107201483D01*
X151058049Y-106998116D01*
X151091500Y-106786916D01*
X151091500Y-106573084D01*
X151058049Y-106361884D01*
X150991972Y-106158517D01*
X150894894Y-105967991D01*
X150769206Y-105794996D01*
X150769203Y-105794993D01*
X150769201Y-105794990D01*
X150618006Y-105643795D01*
X150541136Y-105587946D01*
X150497782Y-105531723D01*
X150491707Y-105460987D01*
X150524839Y-105398196D01*
X150557989Y-105373747D01*
X150699009Y-105301894D01*
X150872004Y-105176206D01*
X151023206Y-105025004D01*
X151148894Y-104852009D01*
X151245972Y-104661483D01*
X151312049Y-104458116D01*
X151345500Y-104246916D01*
X151345500Y-104033084D01*
X151312049Y-103821884D01*
X151245972Y-103618517D01*
X151148894Y-103427991D01*
X151023206Y-103254996D01*
X151023203Y-103254993D01*
X151023201Y-103254990D01*
X150872009Y-103103798D01*
X150872006Y-103103796D01*
X150872004Y-103103794D01*
X150699009Y-102978106D01*
X150557992Y-102906254D01*
X150506379Y-102857508D01*
X150489313Y-102788593D01*
X150512214Y-102721391D01*
X150541133Y-102692055D01*
X150618004Y-102636206D01*
X150769206Y-102485004D01*
X150894894Y-102312009D01*
X150991972Y-102121483D01*
X151058049Y-101918116D01*
X151091500Y-101706916D01*
X151091500Y-101493084D01*
X151058049Y-101281884D01*
X150991972Y-101078517D01*
X150894894Y-100887991D01*
X150769206Y-100714996D01*
X150769203Y-100714993D01*
X150769201Y-100714990D01*
X150618006Y-100563795D01*
X150541136Y-100507946D01*
X150497782Y-100451723D01*
X150491707Y-100380987D01*
X150524839Y-100318196D01*
X150557989Y-100293747D01*
X150699009Y-100221894D01*
X150872004Y-100096206D01*
X151023206Y-99945004D01*
X151148894Y-99772009D01*
X151245972Y-99581483D01*
X151312049Y-99378116D01*
X151345500Y-99166916D01*
X151345500Y-98953084D01*
X151312049Y-98741884D01*
X151245972Y-98538517D01*
X151148894Y-98347991D01*
X151023206Y-98174996D01*
X151023203Y-98174993D01*
X151023201Y-98174990D01*
X150872009Y-98023798D01*
X150872006Y-98023796D01*
X150872004Y-98023794D01*
X150699009Y-97898106D01*
X150557992Y-97826254D01*
X150506379Y-97777508D01*
X150489313Y-97708593D01*
X150512214Y-97641391D01*
X150541133Y-97612055D01*
X150618004Y-97556206D01*
X150769206Y-97405004D01*
X150894894Y-97232009D01*
X150991972Y-97041483D01*
X151058049Y-96838116D01*
X151091500Y-96626916D01*
X151091500Y-96413084D01*
X151058049Y-96201884D01*
X150991972Y-95998517D01*
X150894894Y-95807991D01*
X150769206Y-95634996D01*
X150769203Y-95634993D01*
X150769201Y-95634990D01*
X150618006Y-95483795D01*
X150541136Y-95427946D01*
X150497782Y-95371723D01*
X150491707Y-95300987D01*
X150524839Y-95238196D01*
X150557989Y-95213747D01*
X150699009Y-95141894D01*
X150872004Y-95016206D01*
X151023206Y-94865004D01*
X151148894Y-94692009D01*
X151245972Y-94501483D01*
X151312049Y-94298116D01*
X151345500Y-94086916D01*
X151345500Y-93873084D01*
X151312049Y-93661884D01*
X151245972Y-93458517D01*
X151148894Y-93267991D01*
X151023206Y-93094996D01*
X151023203Y-93094993D01*
X151023201Y-93094990D01*
X150872009Y-92943798D01*
X150872006Y-92943796D01*
X150872004Y-92943794D01*
X150699009Y-92818106D01*
X150557992Y-92746254D01*
X150506379Y-92697508D01*
X150489313Y-92628593D01*
X150512214Y-92561391D01*
X150541133Y-92532055D01*
X150618004Y-92476206D01*
X150769206Y-92325004D01*
X150894894Y-92152009D01*
X150991972Y-91961483D01*
X151058049Y-91758116D01*
X151091500Y-91546916D01*
X151091500Y-91333084D01*
X151058049Y-91121884D01*
X150991972Y-90918517D01*
X150894894Y-90727991D01*
X150769206Y-90554996D01*
X150769203Y-90554993D01*
X150769201Y-90554990D01*
X150618006Y-90403795D01*
X150541136Y-90347946D01*
X150497782Y-90291723D01*
X150491707Y-90220987D01*
X150524839Y-90158196D01*
X150557989Y-90133747D01*
X150699009Y-90061894D01*
X150872004Y-89936206D01*
X151023206Y-89785004D01*
X151148894Y-89612009D01*
X151245972Y-89421483D01*
X151312049Y-89218116D01*
X151345500Y-89006916D01*
X151345500Y-88793084D01*
X151312049Y-88581884D01*
X151245972Y-88378517D01*
X151148894Y-88187991D01*
X151023206Y-88014996D01*
X151023203Y-88014993D01*
X151023201Y-88014990D01*
X150872009Y-87863798D01*
X150872006Y-87863796D01*
X150872004Y-87863794D01*
X150699009Y-87738106D01*
X150557992Y-87666254D01*
X150506379Y-87617508D01*
X150489313Y-87548593D01*
X150512214Y-87481391D01*
X150541133Y-87452055D01*
X150618004Y-87396206D01*
X150769206Y-87245004D01*
X150894894Y-87072009D01*
X150991972Y-86881483D01*
X151058049Y-86678116D01*
X151091500Y-86466916D01*
X151091500Y-86253084D01*
X151058049Y-86041884D01*
X150991972Y-85838517D01*
X150894894Y-85647991D01*
X150769206Y-85474996D01*
X150769203Y-85474993D01*
X150769201Y-85474990D01*
X150618006Y-85323795D01*
X150541136Y-85267946D01*
X150497782Y-85211723D01*
X150491707Y-85140987D01*
X150524839Y-85078196D01*
X150557989Y-85053747D01*
X150699009Y-84981894D01*
X150872004Y-84856206D01*
X151023206Y-84705004D01*
X151148894Y-84532009D01*
X151245972Y-84341483D01*
X151312049Y-84138116D01*
X151345500Y-83926916D01*
X151345500Y-83713084D01*
X151312049Y-83501884D01*
X151245972Y-83298517D01*
X151148894Y-83107991D01*
X151023206Y-82934996D01*
X151023203Y-82934993D01*
X151023201Y-82934990D01*
X150872009Y-82783798D01*
X150872006Y-82783796D01*
X150872004Y-82783794D01*
X150699009Y-82658106D01*
X150557992Y-82586254D01*
X150506379Y-82537508D01*
X150489313Y-82468593D01*
X150512214Y-82401391D01*
X150541133Y-82372055D01*
X150618004Y-82316206D01*
X150769206Y-82165004D01*
X150894894Y-81992009D01*
X150991972Y-81801483D01*
X151058049Y-81598116D01*
X151091500Y-81386916D01*
X151091500Y-81173084D01*
X151058049Y-80961884D01*
X150991972Y-80758517D01*
X150894894Y-80567991D01*
X150769206Y-80394996D01*
X150769203Y-80394993D01*
X150769201Y-80394990D01*
X150618006Y-80243795D01*
X150541136Y-80187946D01*
X150497782Y-80131723D01*
X150491707Y-80060987D01*
X150524839Y-79998196D01*
X150557989Y-79973747D01*
X150699009Y-79901894D01*
X150872004Y-79776206D01*
X151023206Y-79625004D01*
X151148894Y-79452009D01*
X151245972Y-79261483D01*
X151312049Y-79058116D01*
X151345500Y-78846916D01*
X151345500Y-78633084D01*
X151312049Y-78421884D01*
X151245972Y-78218517D01*
X151148894Y-78027991D01*
X151023206Y-77854996D01*
X151023203Y-77854993D01*
X151023201Y-77854990D01*
X150872009Y-77703798D01*
X150872005Y-77703795D01*
X150872004Y-77703794D01*
X150850949Y-77688497D01*
X150807597Y-77632277D01*
X150801520Y-77561541D01*
X150834651Y-77498749D01*
X150849502Y-77485694D01*
X150946261Y-77413261D01*
X151033887Y-77296207D01*
X151033887Y-77296206D01*
X151033889Y-77296204D01*
X151084989Y-77159201D01*
X151091500Y-77098638D01*
X151091500Y-75301362D01*
X151091499Y-75301350D01*
X151084990Y-75240803D01*
X151084988Y-75240795D01*
X151033889Y-75103797D01*
X151033887Y-75103792D01*
X150946261Y-74986738D01*
X150829207Y-74899112D01*
X150829202Y-74899110D01*
X150692204Y-74848011D01*
X150692196Y-74848009D01*
X150631649Y-74841500D01*
X150631638Y-74841500D01*
X148834362Y-74841500D01*
X148834350Y-74841500D01*
X148773803Y-74848009D01*
X148773795Y-74848011D01*
X148636797Y-74899110D01*
X148636792Y-74899112D01*
X148519738Y-74986738D01*
X148432112Y-75103792D01*
X148432110Y-75103797D01*
X148381011Y-75240795D01*
X148381009Y-75240803D01*
X148374500Y-75301350D01*
X107911499Y-75301350D01*
X107904990Y-75240803D01*
X107904988Y-75240795D01*
X107853889Y-75103797D01*
X107853887Y-75103792D01*
X107766261Y-74986738D01*
X107649207Y-74899112D01*
X107649202Y-74899110D01*
X107512204Y-74848011D01*
X107512196Y-74848009D01*
X107451649Y-74841500D01*
X107451638Y-74841500D01*
X105654362Y-74841500D01*
X105654350Y-74841500D01*
X105593803Y-74848009D01*
X105593795Y-74848011D01*
X105456797Y-74899110D01*
X105456792Y-74899112D01*
X105339738Y-74986738D01*
X105252112Y-75103792D01*
X105252110Y-75103797D01*
X105201011Y-75240795D01*
X105201009Y-75240803D01*
X105194500Y-75301350D01*
X104215500Y-75301350D01*
X104215500Y-73664955D01*
X104215888Y-73655069D01*
X104229428Y-73483024D01*
X104232521Y-73463496D01*
X104271648Y-73300520D01*
X104277758Y-73281716D01*
X104341899Y-73126865D01*
X104350869Y-73109259D01*
X104438455Y-72966333D01*
X104450066Y-72950354D01*
X104558928Y-72822892D01*
X104572892Y-72808928D01*
X104700354Y-72700066D01*
X104716333Y-72688455D01*
X104859259Y-72600869D01*
X104876865Y-72591899D01*
X105031721Y-72527756D01*
X105050515Y-72521649D01*
X105213497Y-72482520D01*
X105233023Y-72479428D01*
X105405070Y-72465888D01*
X105414956Y-72465500D01*
X105434531Y-72465500D01*
X151105469Y-72465500D01*
X151125044Y-72465500D01*
X151134930Y-72465888D01*
G37*
%TD.AperFunction*%
%TD*%
M02*
