M48
; DRILL file {KiCad 9.0.7} date 2026-03-30T17:51:38-0400
; FORMAT={-:-/ absolute / inch / decimal}
; #@! TF.CreationDate,2026-03-30T17:51:38-04:00
; #@! TF.GenerationSoftware,Kicad,Pcbnew,9.0.7
; #@! TF.FileFunction,Plated,1,2,PTH
FMAT,2
INCH
; #@! TA.AperFunction,Plated,PTH,ViaDrill
T1C0.0118
; #@! TA.AperFunction,Plated,PTH,ViaDrill
T2C0.0120
; #@! TA.AperFunction,Plated,PTH,ComponentDrill
T3C0.0394
%
G90
G05
T1
X4.5525Y-3.8925
X4.645Y-3.83
X4.6476Y-3.7974
X4.685Y-3.965
X4.831Y-3.293
X4.89Y-3.78
X4.905Y-3.94
X4.91Y-3.895
X4.919Y-3.388
X4.99Y-3.8818
X5.0Y-3.585
X5.005Y-3.8322
X5.0504Y-3.7304
X5.051Y-3.857
X5.055Y-3.4
X5.073Y-3.468
X5.075Y-3.945
X5.085Y-3.8698
X5.086Y-4.147
X5.09Y-3.725
X5.11Y-3.845
X5.132Y-3.468
X5.18Y-3.885
X5.186Y-3.791
X5.205Y-4.065
X5.22Y-3.445
X5.235Y-3.55
X5.2475Y-3.9725
X5.25Y-3.91
X5.2659Y-3.7239
X5.295Y-3.49
X5.3088Y-3.7312
X5.332Y-3.858
X5.336Y-3.798
T2
X5.2756Y-3.0394
T3
X4.195Y-3.0
X4.195Y-3.2
X4.195Y-3.4
X4.195Y-3.6
X4.195Y-3.8
X4.195Y-4.0
X4.195Y-4.2
X4.195Y-4.4
X4.195Y-4.6
X4.205Y-3.1
X4.205Y-3.3
X4.205Y-3.5
X4.205Y-3.7
X4.205Y-3.9
X4.205Y-4.1
X4.205Y-4.3
X4.205Y-4.5
X5.895Y-3.0
X5.895Y-3.2
X5.895Y-3.4
X5.895Y-3.6
X5.895Y-3.8
X5.895Y-4.0
X5.895Y-4.2
X5.895Y-4.4
X5.895Y-4.6
X5.905Y-3.1
X5.905Y-3.3
X5.905Y-3.5
X5.905Y-3.7
X5.905Y-3.9
X5.905Y-4.1
X5.905Y-4.3
X5.905Y-4.5
M30
