  0
SECTION
  2
HEADER
  9
$ANGBASE
  50
0.0
  9
$ANGDIR
  70
1
  9
$MEASUREMENT
  70
1
  0
ENDSEC
  0
SECTION
  2
TABLES
  0
TABLE
  2
LTYPE
  70
4
  0
LTYPE
  5
40F
  2
CONTINUOUS
  70
0
  3
Solid line
  72
65
  73
0
  40
0.0
  0
LTYPE
  5
410
  2
DASHDOT
 70
0
  3
Dash Dot ____ _ ____ _
 72
65
 73
4
 40
2.0
 49
1.25
 49
-0.25
 49
0.25
 49
-0.25
  0
LTYPE
  5
411
  2
DASHED
 70
0
  3
Dashed __ __ __ __ __
 72
65
 73
2
 40
0.75
 49
0.5
 49
-0.25
  0
LTYPE
  5
43B
  2
DOTTED
 70
0
  3
Dotted .  .  .  .
 72
65
 73
2
 40
0.2
 49
0.0
 49
-0.2
  0
ENDTAB
  0
TABLE
  2
STYLE
  70
4
  0
STYLE
  2
KICAD
  70
0
  40
0
  41
1
  42
1
  50
0
  71
0
  3
isocp.shx
  0
STYLE
  2
KICADB
  70
0
  40
0
  41
1
  42
1
  50
0
  71
0
  3
isocp.shx
  0
STYLE
  2
KICADI
  70
0
  40
0
  41
1
  42
1
  50
15
  71
0
  3
isocp.shx
  0
STYLE
  2
KICADBI
  70
0
  40
0
  41
1
  42
1
  50
15
  71
0
  3
isocp.shx
  0
ENDTAB
  0
TABLE
  2
LAYER
  70
1
  0
LAYER
  2
BLACK
  70
0
  62
7
  6
CONTINUOUS
  0
ENDTAB
  0
ENDSEC
  0
SECTION
  2
ENTITIES
0
LINE
8
BLACK
6
CONTINUOUS
10
153.285
20
-110.443
11
153.186
21
-110.457
0
LINE
8
BLACK
6
CONTINUOUS
10
153.186
20
-110.457
11
153.083
21
-110.499
0
LINE
8
BLACK
6
CONTINUOUS
10
153.083
20
-110.499
11
152.994
21
-110.567
0
LINE
8
BLACK
6
CONTINUOUS
10
152.994
20
-110.567
11
152.926
21
-110.656
0
LINE
8
BLACK
6
CONTINUOUS
10
152.926
20
-110.656
11
152.883
21
-110.76
0
LINE
8
BLACK
6
CONTINUOUS
10
152.883
20
-110.76
11
152.869
21
-110.863
0
LINE
8
BLACK
6
CONTINUOUS
10
152.869
20
-110.863
11
152.872
21
-110.871
0
LINE
8
BLACK
6
CONTINUOUS
10
152.872
20
-110.871
11
152.872
21
-111.901
0
LINE
8
BLACK
6
CONTINUOUS
10
152.872
20
-111.901
11
152.856
21
-112.087
0
LINE
8
BLACK
6
CONTINUOUS
10
152.856
20
-112.087
11
152.807
21
-112.268
0
LINE
8
BLACK
6
CONTINUOUS
10
152.807
20
-112.268
11
152.728
21
-112.438
0
LINE
8
BLACK
6
CONTINUOUS
10
152.728
20
-112.438
11
152.62
21
-112.592
0
LINE
8
BLACK
6
CONTINUOUS
10
152.62
20
-112.592
11
152.488
21
-112.724
0
LINE
8
BLACK
6
CONTINUOUS
10
152.488
20
-112.724
11
152.334
21
-112.832
0
LINE
8
BLACK
6
CONTINUOUS
10
152.334
20
-112.832
11
152.165
21
-112.911
0
LINE
8
BLACK
6
CONTINUOUS
10
152.165
20
-112.911
11
151.984
21
-112.959
0
LINE
8
BLACK
6
CONTINUOUS
10
151.984
20
-112.959
11
151.797
21
-112.976
0
LINE
8
BLACK
6
CONTINUOUS
10
151.797
20
-112.976
11
140.297
21
-112.976
0
LINE
8
BLACK
6
CONTINUOUS
10
140.297
20
-112.976
11
140.11
21
-112.959
0
LINE
8
BLACK
6
CONTINUOUS
10
140.11
20
-112.959
11
139.929
21
-112.911
0
LINE
8
BLACK
6
CONTINUOUS
10
139.929
20
-112.911
11
139.759
21
-112.832
0
LINE
8
BLACK
6
CONTINUOUS
10
139.759
20
-112.832
11
139.606
21
-112.724
0
LINE
8
BLACK
6
CONTINUOUS
10
139.606
20
-112.724
11
139.473
21
-112.592
0
LINE
8
BLACK
6
CONTINUOUS
10
139.473
20
-112.592
11
139.366
21
-112.438
0
LINE
8
BLACK
6
CONTINUOUS
10
139.366
20
-112.438
11
139.287
21
-112.268
0
LINE
8
BLACK
6
CONTINUOUS
10
139.287
20
-112.268
11
139.238
21
-112.087
0
LINE
8
BLACK
6
CONTINUOUS
10
139.238
20
-112.087
11
139.222
21
-111.901
0
LINE
8
BLACK
6
CONTINUOUS
10
139.222
20
-111.901
11
139.222
21
-104.901
0
LINE
8
BLACK
6
CONTINUOUS
10
139.222
20
-104.901
11
139.238
21
-104.714
0
LINE
8
BLACK
6
CONTINUOUS
10
139.238
20
-104.714
11
139.287
21
-104.533
0
LINE
8
BLACK
6
CONTINUOUS
10
139.287
20
-104.533
11
139.366
21
-104.363
0
LINE
8
BLACK
6
CONTINUOUS
10
139.366
20
-104.363
11
139.473
21
-104.21
0
LINE
8
BLACK
6
CONTINUOUS
10
139.473
20
-104.21
11
139.606
21
-104.077
0
LINE
8
BLACK
6
CONTINUOUS
10
139.606
20
-104.077
11
139.759
21
-103.97
0
LINE
8
BLACK
6
CONTINUOUS
10
139.759
20
-103.97
11
139.929
21
-103.89
0
LINE
8
BLACK
6
CONTINUOUS
10
139.929
20
-103.89
11
140.11
21
-103.842
0
LINE
8
BLACK
6
CONTINUOUS
10
140.11
20
-103.842
11
140.297
21
-103.826
0
LINE
8
BLACK
6
CONTINUOUS
10
140.297
20
-103.826
11
151.792
21
-103.826
0
LINE
8
BLACK
6
CONTINUOUS
10
151.792
20
-103.826
11
151.979
21
-103.842
0
LINE
8
BLACK
6
CONTINUOUS
10
151.979
20
-103.842
11
152.16
21
-103.89
0
LINE
8
BLACK
6
CONTINUOUS
10
152.16
20
-103.89
11
152.329
21
-103.97
0
LINE
8
BLACK
6
CONTINUOUS
10
152.329
20
-103.97
11
152.483
21
-104.077
0
LINE
8
BLACK
6
CONTINUOUS
10
152.483
20
-104.077
11
152.615
21
-104.21
0
LINE
8
BLACK
6
CONTINUOUS
10
152.615
20
-104.21
11
152.723
21
-104.363
0
LINE
8
BLACK
6
CONTINUOUS
10
152.723
20
-104.363
11
152.802
21
-104.533
0
LINE
8
BLACK
6
CONTINUOUS
10
152.802
20
-104.533
11
152.851
21
-104.714
0
LINE
8
BLACK
6
CONTINUOUS
10
152.851
20
-104.714
11
152.867
21
-104.901
0
LINE
8
BLACK
6
CONTINUOUS
10
152.867
20
-104.901
11
152.867
21
-105.871
0
LINE
8
BLACK
6
CONTINUOUS
10
152.867
20
-105.871
11
152.865
21
-105.882
0
LINE
8
BLACK
6
CONTINUOUS
10
152.865
20
-105.882
11
152.879
21
-105.979
0
LINE
8
BLACK
6
CONTINUOUS
10
152.879
20
-105.979
11
152.922
21
-106.081
0
LINE
8
BLACK
6
CONTINUOUS
10
152.922
20
-106.081
11
152.99
21
-106.168
0
LINE
8
BLACK
6
CONTINUOUS
10
152.99
20
-106.168
11
153.079
21
-106.235
0
LINE
8
BLACK
6
CONTINUOUS
10
153.079
20
-106.235
11
153.181
21
-106.276
0
LINE
8
BLACK
6
CONTINUOUS
10
153.181
20
-106.276
11
153.283
21
-106.288
0
LINE
8
BLACK
6
CONTINUOUS
10
153.283
20
-106.288
11
153.291
21
-106.286
0
LINE
8
BLACK
6
CONTINUOUS
10
153.291
20
-106.286
11
153.292
21
-106.286
0
LINE
8
BLACK
6
CONTINUOUS
10
153.292
20
-106.286
11
153.292
21
-106.286
0
LINE
8
BLACK
6
CONTINUOUS
10
153.292
20
-106.286
11
155.792
21
-106.286
0
LINE
8
BLACK
6
CONTINUOUS
10
155.792
20
-106.286
11
155.792
21
-106.286
0
LINE
8
BLACK
6
CONTINUOUS
10
155.792
20
-106.286
11
155.792
21
-106.286
0
LINE
8
BLACK
6
CONTINUOUS
10
155.792
20
-106.286
11
155.922
21
-106.301
0
LINE
8
BLACK
6
CONTINUOUS
10
155.922
20
-106.301
11
156.045
21
-106.345
0
LINE
8
BLACK
6
CONTINUOUS
10
156.045
20
-106.345
11
156.155
21
-106.414
0
LINE
8
BLACK
6
CONTINUOUS
10
156.155
20
-106.414
11
156.247
21
-106.507
0
LINE
8
BLACK
6
CONTINUOUS
10
156.247
20
-106.507
11
156.315
21
-106.618
0
LINE
8
BLACK
6
CONTINUOUS
10
156.315
20
-106.618
11
156.358
21
-106.741
0
LINE
8
BLACK
6
CONTINUOUS
10
156.358
20
-106.741
11
156.372
21
-106.87
0
LINE
8
BLACK
6
CONTINUOUS
10
156.372
20
-106.87
11
156.372
21
-106.871
0
LINE
8
BLACK
6
CONTINUOUS
10
156.372
20
-106.871
11
156.372
21
-109.871
0
LINE
8
BLACK
6
CONTINUOUS
10
156.372
20
-109.871
11
156.357
21
-109.999
0
LINE
8
BLACK
6
CONTINUOUS
10
156.357
20
-109.999
11
156.315
21
-110.12
0
LINE
8
BLACK
6
CONTINUOUS
10
156.315
20
-110.12
11
156.246
21
-110.229
0
LINE
8
BLACK
6
CONTINUOUS
10
156.246
20
-110.229
11
156.155
21
-110.32
0
LINE
8
BLACK
6
CONTINUOUS
10
156.155
20
-110.32
11
156.046
21
-110.389
0
LINE
8
BLACK
6
CONTINUOUS
10
156.046
20
-110.389
11
155.925
21
-110.431
0
LINE
8
BLACK
6
CONTINUOUS
10
155.925
20
-110.431
11
155.797
21
-110.446
0
LINE
8
BLACK
6
CONTINUOUS
10
155.797
20
-110.446
11
153.297
21
-110.446
0
LINE
8
BLACK
6
CONTINUOUS
10
153.297
20
-110.446
11
153.285
21
-110.443
0
LINE
8
BLACK
6
CONTINUOUS
10
140.283
20
-103.973
11
140.136
21
-103.986
0
LINE
8
BLACK
6
CONTINUOUS
10
140.136
20
-103.986
11
139.979
21
-104.028
0
LINE
8
BLACK
6
CONTINUOUS
10
139.979
20
-104.028
11
139.833
21
-104.096
0
LINE
8
BLACK
6
CONTINUOUS
10
139.833
20
-104.096
11
139.7
21
-104.189
0
LINE
8
BLACK
6
CONTINUOUS
10
139.7
20
-104.189
11
139.586
21
-104.304
0
LINE
8
BLACK
6
CONTINUOUS
10
139.586
20
-104.304
11
139.493
21
-104.436
0
LINE
8
BLACK
6
CONTINUOUS
10
139.493
20
-104.436
11
139.424
21
-104.583
0
LINE
8
BLACK
6
CONTINUOUS
10
139.424
20
-104.583
11
139.382
21
-104.739
0
LINE
8
BLACK
6
CONTINUOUS
10
139.382
20
-104.739
11
139.369
21
-104.892
0
LINE
8
BLACK
6
CONTINUOUS
10
139.369
20
-104.892
11
139.372
21
-104.901
0
LINE
8
BLACK
6
CONTINUOUS
10
139.372
20
-104.901
11
139.372
21
-111.901
0
LINE
8
BLACK
6
CONTINUOUS
10
139.372
20
-111.901
11
139.37
21
-111.914
0
LINE
8
BLACK
6
CONTINUOUS
10
139.37
20
-111.914
11
139.382
21
-112.062
0
LINE
8
BLACK
6
CONTINUOUS
10
139.382
20
-112.062
11
139.424
21
-112.218
0
LINE
8
BLACK
6
CONTINUOUS
10
139.424
20
-112.218
11
139.493
21
-112.365
0
LINE
8
BLACK
6
CONTINUOUS
10
139.493
20
-112.365
11
139.586
21
-112.497
0
LINE
8
BLACK
6
CONTINUOUS
10
139.586
20
-112.497
11
139.7
21
-112.612
0
LINE
8
BLACK
6
CONTINUOUS
10
139.7
20
-112.612
11
139.833
21
-112.705
0
LINE
8
BLACK
6
CONTINUOUS
10
139.833
20
-112.705
11
139.979
21
-112.773
0
LINE
8
BLACK
6
CONTINUOUS
10
139.979
20
-112.773
11
140.136
21
-112.815
0
LINE
8
BLACK
6
CONTINUOUS
10
140.136
20
-112.815
11
140.288
21
-112.828
0
LINE
8
BLACK
6
CONTINUOUS
10
140.288
20
-112.828
11
140.297
21
-112.826
0
LINE
8
BLACK
6
CONTINUOUS
10
140.297
20
-112.826
11
151.797
21
-112.826
0
LINE
8
BLACK
6
CONTINUOUS
10
151.797
20
-112.826
11
151.81
21
-112.828
0
LINE
8
BLACK
6
CONTINUOUS
10
151.81
20
-112.828
11
151.958
21
-112.815
0
LINE
8
BLACK
6
CONTINUOUS
10
151.958
20
-112.815
11
152.114
21
-112.773
0
LINE
8
BLACK
6
CONTINUOUS
10
152.114
20
-112.773
11
152.261
21
-112.705
0
LINE
8
BLACK
6
CONTINUOUS
10
152.261
20
-112.705
11
152.394
21
-112.612
0
LINE
8
BLACK
6
CONTINUOUS
10
152.394
20
-112.612
11
152.508
21
-112.497
0
LINE
8
BLACK
6
CONTINUOUS
10
152.508
20
-112.497
11
152.601
21
-112.365
0
LINE
8
BLACK
6
CONTINUOUS
10
152.601
20
-112.365
11
152.669
21
-112.218
0
LINE
8
BLACK
6
CONTINUOUS
10
152.669
20
-112.218
11
152.711
21
-112.062
0
LINE
8
BLACK
6
CONTINUOUS
10
152.711
20
-112.062
11
152.725
21
-111.909
0
LINE
8
BLACK
6
CONTINUOUS
10
152.725
20
-111.909
11
152.722
21
-111.901
0
LINE
8
BLACK
6
CONTINUOUS
10
152.722
20
-111.901
11
152.722
21
-110.871
0
LINE
8
BLACK
6
CONTINUOUS
10
152.722
20
-110.871
11
152.736
21
-110.743
0
LINE
8
BLACK
6
CONTINUOUS
10
152.736
20
-110.743
11
152.779
21
-110.621
0
LINE
8
BLACK
6
CONTINUOUS
10
152.779
20
-110.621
11
152.847
21
-110.512
0
LINE
8
BLACK
6
CONTINUOUS
10
152.847
20
-110.512
11
152.938
21
-110.421
0
LINE
8
BLACK
6
CONTINUOUS
10
152.938
20
-110.421
11
153.047
21
-110.353
0
LINE
8
BLACK
6
CONTINUOUS
10
153.047
20
-110.353
11
153.169
21
-110.31
0
LINE
8
BLACK
6
CONTINUOUS
10
153.169
20
-110.31
11
153.297
21
-110.296
0
LINE
8
BLACK
6
CONTINUOUS
10
153.297
20
-110.296
11
155.797
21
-110.296
0
LINE
8
BLACK
6
CONTINUOUS
10
155.797
20
-110.296
11
155.809
21
-110.298
0
LINE
8
BLACK
6
CONTINUOUS
10
155.809
20
-110.298
11
155.908
21
-110.285
0
LINE
8
BLACK
6
CONTINUOUS
10
155.908
20
-110.285
11
156.011
21
-110.242
0
LINE
8
BLACK
6
CONTINUOUS
10
156.011
20
-110.242
11
156.1
21
-110.174
0
LINE
8
BLACK
6
CONTINUOUS
10
156.1
20
-110.174
11
156.168
21
-110.085
0
LINE
8
BLACK
6
CONTINUOUS
10
156.168
20
-110.085
11
156.211
21
-109.982
0
LINE
8
BLACK
6
CONTINUOUS
10
156.211
20
-109.982
11
156.224
21
-109.879
0
LINE
8
BLACK
6
CONTINUOUS
10
156.224
20
-109.879
11
156.222
21
-109.871
0
LINE
8
BLACK
6
CONTINUOUS
10
156.222
20
-109.871
11
156.222
21
-106.871
0
LINE
8
BLACK
6
CONTINUOUS
10
156.222
20
-106.871
11
156.222
21
-106.87
0
LINE
8
BLACK
6
CONTINUOUS
10
156.222
20
-106.87
11
156.222
21
-106.87
0
LINE
8
BLACK
6
CONTINUOUS
10
156.222
20
-106.87
11
156.222
21
-106.87
0
LINE
8
BLACK
6
CONTINUOUS
10
156.222
20
-106.87
11
156.224
21
-106.858
0
LINE
8
BLACK
6
CONTINUOUS
10
156.224
20
-106.858
11
156.211
21
-106.757
0
LINE
8
BLACK
6
CONTINUOUS
10
156.211
20
-106.757
11
156.168
21
-106.652
0
LINE
8
BLACK
6
CONTINUOUS
10
156.168
20
-106.652
11
156.099
21
-106.561
0
LINE
8
BLACK
6
CONTINUOUS
10
156.099
20
-106.561
11
156.009
21
-106.491
0
LINE
8
BLACK
6
CONTINUOUS
10
156.009
20
-106.491
11
155.904
21
-106.447
0
LINE
8
BLACK
6
CONTINUOUS
10
155.904
20
-106.447
11
155.8
21
-106.433
0
LINE
8
BLACK
6
CONTINUOUS
10
155.8
20
-106.433
11
155.795
21
-106.435
0
LINE
8
BLACK
6
CONTINUOUS
10
155.795
20
-106.435
11
155.792
21
-106.436
0
LINE
8
BLACK
6
CONTINUOUS
10
155.792
20
-106.436
11
153.292
21
-106.436
0
LINE
8
BLACK
6
CONTINUOUS
10
153.292
20
-106.436
11
153.291
21
-106.435
0
LINE
8
BLACK
6
CONTINUOUS
10
153.291
20
-106.435
11
153.166
21
-106.423
0
LINE
8
BLACK
6
CONTINUOUS
10
153.166
20
-106.423
11
153.045
21
-106.382
0
LINE
8
BLACK
6
CONTINUOUS
10
153.045
20
-106.382
11
152.936
21
-106.315
0
LINE
8
BLACK
6
CONTINUOUS
10
152.936
20
-106.315
11
152.845
21
-106.225
0
LINE
8
BLACK
6
CONTINUOUS
10
152.845
20
-106.225
11
152.776
21
-106.118
0
LINE
8
BLACK
6
CONTINUOUS
10
152.776
20
-106.118
11
152.732
21
-105.998
0
LINE
8
BLACK
6
CONTINUOUS
10
152.732
20
-105.998
11
152.717
21
-105.871
0
LINE
8
BLACK
6
CONTINUOUS
10
152.717
20
-105.871
11
152.717
21
-105.871
0
LINE
8
BLACK
6
CONTINUOUS
10
152.717
20
-105.871
11
152.717
21
-105.871
0
LINE
8
BLACK
6
CONTINUOUS
10
152.717
20
-105.871
11
152.717
21
-104.901
0
LINE
8
BLACK
6
CONTINUOUS
10
152.717
20
-104.901
11
152.719
21
-104.887
0
LINE
8
BLACK
6
CONTINUOUS
10
152.719
20
-104.887
11
152.706
21
-104.739
0
LINE
8
BLACK
6
CONTINUOUS
10
152.706
20
-104.739
11
152.664
21
-104.583
0
LINE
8
BLACK
6
CONTINUOUS
10
152.664
20
-104.583
11
152.596
21
-104.436
0
LINE
8
BLACK
6
CONTINUOUS
10
152.596
20
-104.436
11
152.503
21
-104.304
0
LINE
8
BLACK
6
CONTINUOUS
10
152.503
20
-104.304
11
152.389
21
-104.189
0
LINE
8
BLACK
6
CONTINUOUS
10
152.389
20
-104.189
11
152.256
21
-104.096
0
LINE
8
BLACK
6
CONTINUOUS
10
152.256
20
-104.096
11
152.109
21
-104.028
0
LINE
8
BLACK
6
CONTINUOUS
10
152.109
20
-104.028
11
151.953
21
-103.986
0
LINE
8
BLACK
6
CONTINUOUS
10
151.953
20
-103.986
11
151.8
21
-103.973
0
LINE
8
BLACK
6
CONTINUOUS
10
151.8
20
-103.973
11
151.792
21
-103.976
0
LINE
8
BLACK
6
CONTINUOUS
10
151.792
20
-103.976
11
140.297
21
-103.976
0
LINE
8
BLACK
6
CONTINUOUS
10
140.297
20
-103.976
11
140.283
21
-103.973
  0
ENDSEC
  0
EOF
