M48
; DRILL file {KiCad 6.0.7-f9a2dced07~116~ubuntu22.04.1} date Fri 25 Nov 2022 08:59:12 AM EST
; FORMAT={-:-/ absolute / inch / decimal}
; #@! TF.CreationDate,2022-11-25T08:59:12-05:00
; #@! TF.GenerationSoftware,Kicad,Pcbnew,6.0.7-f9a2dced07~116~ubuntu22.04.1
; #@! TF.FileFunction,MixedPlating,1,2
FMAT,2
INCH
; #@! TA.AperFunction,Plated,PTH,ViaDrill
T1C0.0100
; #@! TA.AperFunction,NonPlated,NPTH,ComponentDrill
T2C0.0433
%
G90
G05
T1
X5.5524Y-4.2339
X5.5524Y-4.3284
X5.5714Y-4.3561
X5.5759Y-4.3094
X5.6114Y-4.1315
X5.6253Y-4.4039
X5.6312Y-4.1513
X5.6632Y-4.1372
X5.7012Y-4.1381
X5.7248Y-4.2567
X5.7292Y-4.1384
X5.7445Y-4.4039
X5.7559Y-4.1299
X5.7933Y-4.3957
X5.8415Y-4.3054
X5.8421Y-4.2775
X5.8449Y-4.1635
X5.8526Y-4.2116
X5.8601Y-4.256
X5.8629Y-4.185
X5.8865Y-4.3296
X5.976Y-4.341
X5.9931Y-4.1973
T2
X5.5327Y-4.1414
X5.5327Y-4.3973
X5.9646Y-4.1414
X5.9646Y-4.3973
T0
M30
