G04 #@! TF.GenerationSoftware,KiCad,Pcbnew,6.0.7-f9a2dced07~116~ubuntu22.04.1*
G04 #@! TF.CreationDate,2022-11-25T08:58:14-05:00*
G04 #@! TF.ProjectId,PresTag-v3,50726573-5461-4672-9d76-332e6b696361,rev?*
G04 #@! TF.SameCoordinates,Original*
G04 #@! TF.FileFunction,Paste,Top*
G04 #@! TF.FilePolarity,Positive*
%FSLAX46Y46*%
G04 Gerber Fmt 4.6, Leading zero omitted, Abs format (unit mm)*
G04 Created by KiCad (PCBNEW 6.0.7-f9a2dced07~116~ubuntu22.04.1) date 2022-11-25 08:58:14*
%MOMM*%
%LPD*%
G01*
G04 APERTURE LIST*
G04 Aperture macros list*
%AMRoundRect*
0 Rectangle with rounded corners*
0 $1 Rounding radius*
0 $2 $3 $4 $5 $6 $7 $8 $9 X,Y pos of 4 corners*
0 Add a 4 corners polygon primitive as box body*
4,1,4,$2,$3,$4,$5,$6,$7,$8,$9,$2,$3,0*
0 Add four circle primitives for the rounded corners*
1,1,$1+$1,$2,$3*
1,1,$1+$1,$4,$5*
1,1,$1+$1,$6,$7*
1,1,$1+$1,$8,$9*
0 Add four rect primitives between the rounded corners*
20,1,$1+$1,$2,$3,$4,$5,0*
20,1,$1+$1,$4,$5,$6,$7,0*
20,1,$1+$1,$6,$7,$8,$9,0*
20,1,$1+$1,$8,$9,$2,$3,0*%
G04 Aperture macros list end*
%ADD10RoundRect,0.140000X0.170000X-0.140000X0.170000X0.140000X-0.170000X0.140000X-0.170000X-0.140000X0*%
%ADD11R,0.800000X0.500000*%
%ADD12RoundRect,0.079500X-0.100500X0.079500X-0.100500X-0.079500X0.100500X-0.079500X0.100500X0.079500X0*%
%ADD13RoundRect,0.079500X0.100500X-0.079500X0.100500X0.079500X-0.100500X0.079500X-0.100500X-0.079500X0*%
%ADD14RoundRect,0.147500X-0.147500X-0.172500X0.147500X-0.172500X0.147500X0.172500X-0.147500X0.172500X0*%
%ADD15C,0.250000*%
%ADD16RoundRect,0.079500X-0.079500X-0.100500X0.079500X-0.100500X0.079500X0.100500X-0.079500X0.100500X0*%
%ADD17RoundRect,0.050000X0.150000X0.075000X-0.150000X0.075000X-0.150000X-0.075000X0.150000X-0.075000X0*%
%ADD18RoundRect,0.050000X0.150000X0.300000X-0.150000X0.300000X-0.150000X-0.300000X0.150000X-0.300000X0*%
%ADD19R,0.406400X0.508000*%
%ADD20R,0.508000X0.406400*%
%ADD21R,0.660400X0.660400*%
%ADD22RoundRect,0.079500X0.079500X0.100500X-0.079500X0.100500X-0.079500X-0.100500X0.079500X-0.100500X0*%
G04 APERTURE END LIST*
D10*
X142630000Y-107380000D03*
X142630000Y-106420000D03*
D11*
X142430000Y-108191000D03*
X142430000Y-109091000D03*
X142430000Y-109991000D03*
X142430000Y-110891000D03*
X143630000Y-110891000D03*
X143630000Y-109991000D03*
X143630000Y-109091000D03*
X143630000Y-108191000D03*
D12*
X144530000Y-109496000D03*
X144530000Y-110186000D03*
X148642400Y-110128000D03*
X148642400Y-110818000D03*
D13*
X144530000Y-108786000D03*
X144530000Y-108096000D03*
D14*
X148005000Y-111700000D03*
X148975000Y-111700000D03*
D15*
X144095000Y-107011000D03*
X144095000Y-105611000D03*
X144295000Y-106661000D03*
X144295000Y-105961000D03*
X144495000Y-106311000D03*
X144695000Y-106661000D03*
X144695000Y-105961000D03*
X144895000Y-106311000D03*
X145095000Y-106661000D03*
X145095000Y-105961000D03*
X145295000Y-107011000D03*
X145295000Y-105611000D03*
D16*
X146885000Y-105341000D03*
X147575000Y-105341000D03*
D17*
X147580000Y-106566000D03*
X147580000Y-106116000D03*
D18*
X146880000Y-106341000D03*
D13*
X144530000Y-111686000D03*
X144530000Y-110996000D03*
D19*
X146230001Y-110561999D03*
X146829999Y-110561999D03*
D20*
X147546000Y-110140999D03*
X147546000Y-109541000D03*
X147546000Y-108941001D03*
D19*
X146829999Y-108520001D03*
X146230001Y-108520001D03*
D20*
X145514000Y-108941001D03*
X145514000Y-109541000D03*
X145514000Y-110140999D03*
D21*
X146530000Y-109541000D03*
D13*
X141730000Y-107086000D03*
X141730000Y-106396000D03*
D22*
X147615800Y-107475800D03*
X146925800Y-107475800D03*
M02*
