G04 #@! TF.GenerationSoftware,KiCad,Pcbnew,6.0.7-f9a2dced07~116~ubuntu22.04.1*
G04 #@! TF.CreationDate,2022-11-25T08:58:14-05:00*
G04 #@! TF.ProjectId,PresTag-v3,50726573-5461-4672-9d76-332e6b696361,rev?*
G04 #@! TF.SameCoordinates,Original*
G04 #@! TF.FileFunction,Legend,Top*
G04 #@! TF.FilePolarity,Positive*
%FSLAX46Y46*%
G04 Gerber Fmt 4.6, Leading zero omitted, Abs format (unit mm)*
G04 Created by KiCad (PCBNEW 6.0.7-f9a2dced07~116~ubuntu22.04.1) date 2022-11-25 08:58:14*
%MOMM*%
%LPD*%
G01*
G04 APERTURE LIST*
%ADD10C,0.150000*%
%ADD11C,0.120000*%
%ADD12C,0.100000*%
%ADD13C,0.152400*%
G04 APERTURE END LIST*
D10*
X147474000Y-111285800D02*
X147474000Y-112098600D01*
X151066428Y-106791952D02*
X151066428Y-106030047D01*
X150714047Y-110482428D02*
X151475952Y-110482428D01*
X151095000Y-110863380D02*
X151095000Y-110101476D01*
X145382380Y-111451000D02*
X145620476Y-111451000D01*
X145525238Y-111689095D02*
X145620476Y-111451000D01*
X145525238Y-111212904D01*
X145810952Y-111593857D02*
X145620476Y-111451000D01*
X145810952Y-111308142D01*
X145382380Y-111451000D02*
X145620476Y-111451000D01*
X145525238Y-111689095D02*
X145620476Y-111451000D01*
X145525238Y-111212904D01*
X145810952Y-111593857D02*
X145620476Y-111451000D01*
X145810952Y-111308142D01*
D11*
X142270000Y-107007836D02*
X142270000Y-106792164D01*
X142990000Y-107007836D02*
X142990000Y-106792164D01*
D10*
X141830000Y-107741000D02*
X141830000Y-108241000D01*
X142330000Y-107741000D02*
X141830000Y-107741000D01*
D12*
X147450000Y-111700000D02*
G75*
G03*
X147450000Y-111700000I-50000J0D01*
G01*
X145995000Y-105211000D02*
X143395000Y-105211000D01*
X143695000Y-107511000D02*
X143695000Y-107411000D01*
X143295000Y-107111000D02*
X143395000Y-107111000D01*
X143295000Y-107511000D02*
X143470000Y-107336000D01*
X145995000Y-107411000D02*
X143795000Y-107411000D01*
X143295000Y-107111000D02*
X143295000Y-107511000D01*
X145995000Y-107411000D02*
X145995000Y-105211000D01*
X143695000Y-107511000D02*
X143295000Y-107511000D01*
X143395000Y-105211000D02*
X143395000Y-107011000D01*
D11*
X146880000Y-105731000D02*
X148040000Y-105731000D01*
X148040000Y-105731000D02*
X148040000Y-106951000D01*
X148040000Y-106951000D02*
X146880000Y-106951000D01*
D13*
X145056800Y-110607686D02*
X145056800Y-111014200D01*
X145056800Y-111014200D02*
X145759533Y-111014200D01*
X148003200Y-111014200D02*
X148003200Y-110607686D01*
X145056800Y-108067800D02*
X145056800Y-108474314D01*
X148003200Y-108067800D02*
X147300467Y-108067800D01*
X145759533Y-108067800D02*
X145056800Y-108067800D01*
X148003200Y-108474314D02*
X148003200Y-108067800D01*
X147300467Y-111014200D02*
X148003200Y-111014200D01*
M02*
