G04 #@! TF.GenerationSoftware,KiCad,Pcbnew,6.0.7-f9a2dced07~116~ubuntu22.04.1*
G04 #@! TF.CreationDate,2022-11-25T08:58:13-05:00*
G04 #@! TF.ProjectId,PresTag-v3,50726573-5461-4672-9d76-332e6b696361,rev?*
G04 #@! TF.SameCoordinates,Original*
G04 #@! TF.FileFunction,Copper,L1,Top*
G04 #@! TF.FilePolarity,Positive*
%FSLAX46Y46*%
G04 Gerber Fmt 4.6, Leading zero omitted, Abs format (unit mm)*
G04 Created by KiCad (PCBNEW 6.0.7-f9a2dced07~116~ubuntu22.04.1) date 2022-11-25 08:58:13*
%MOMM*%
%LPD*%
G01*
G04 APERTURE LIST*
G04 Aperture macros list*
%AMRoundRect*
0 Rectangle with rounded corners*
0 $1 Rounding radius*
0 $2 $3 $4 $5 $6 $7 $8 $9 X,Y pos of 4 corners*
0 Add a 4 corners polygon primitive as box body*
4,1,4,$2,$3,$4,$5,$6,$7,$8,$9,$2,$3,0*
0 Add four circle primitives for the rounded corners*
1,1,$1+$1,$2,$3*
1,1,$1+$1,$4,$5*
1,1,$1+$1,$6,$7*
1,1,$1+$1,$8,$9*
0 Add four rect primitives between the rounded corners*
20,1,$1+$1,$2,$3,$4,$5,0*
20,1,$1+$1,$4,$5,$6,$7,0*
20,1,$1+$1,$6,$7,$8,$9,0*
20,1,$1+$1,$8,$9,$2,$3,0*%
G04 Aperture macros list end*
G04 #@! TA.AperFunction,SMDPad,CuDef*
%ADD10R,2.000000X1.000000*%
G04 #@! TD*
G04 #@! TA.AperFunction,SMDPad,CuDef*
%ADD11RoundRect,0.140000X0.170000X-0.140000X0.170000X0.140000X-0.170000X0.140000X-0.170000X-0.140000X0*%
G04 #@! TD*
G04 #@! TA.AperFunction,SMDPad,CuDef*
%ADD12R,0.800000X0.500000*%
G04 #@! TD*
G04 #@! TA.AperFunction,SMDPad,CuDef*
%ADD13RoundRect,0.100000X-0.100000X0.130000X-0.100000X-0.130000X0.100000X-0.130000X0.100000X0.130000X0*%
G04 #@! TD*
G04 #@! TA.AperFunction,SMDPad,CuDef*
%ADD14RoundRect,0.100000X0.100000X-0.130000X0.100000X0.130000X-0.100000X0.130000X-0.100000X-0.130000X0*%
G04 #@! TD*
G04 #@! TA.AperFunction,SMDPad,CuDef*
%ADD15RoundRect,0.147500X-0.147500X-0.172500X0.147500X-0.172500X0.147500X0.172500X-0.147500X0.172500X0*%
G04 #@! TD*
G04 #@! TA.AperFunction,SMDPad,CuDef*
%ADD16C,0.250000*%
G04 #@! TD*
G04 #@! TA.AperFunction,SMDPad,CuDef*
%ADD17RoundRect,0.100000X-0.130000X-0.100000X0.130000X-0.100000X0.130000X0.100000X-0.130000X0.100000X0*%
G04 #@! TD*
G04 #@! TA.AperFunction,SMDPad,CuDef*
%ADD18RoundRect,0.050000X0.150000X0.075000X-0.150000X0.075000X-0.150000X-0.075000X0.150000X-0.075000X0*%
G04 #@! TD*
G04 #@! TA.AperFunction,SMDPad,CuDef*
%ADD19RoundRect,0.050000X0.150000X0.300000X-0.150000X0.300000X-0.150000X-0.300000X0.150000X-0.300000X0*%
G04 #@! TD*
G04 #@! TA.AperFunction,SMDPad,CuDef*
%ADD20R,0.406400X0.508000*%
G04 #@! TD*
G04 #@! TA.AperFunction,SMDPad,CuDef*
%ADD21R,0.508000X0.406400*%
G04 #@! TD*
G04 #@! TA.AperFunction,SMDPad,CuDef*
%ADD22R,0.660400X0.660400*%
G04 #@! TD*
G04 #@! TA.AperFunction,SMDPad,CuDef*
%ADD23RoundRect,0.100000X0.130000X0.100000X-0.130000X0.100000X-0.130000X-0.100000X0.130000X-0.100000X0*%
G04 #@! TD*
G04 #@! TA.AperFunction,ViaPad*
%ADD24C,0.584200*%
G04 #@! TD*
G04 #@! TA.AperFunction,Conductor*
%ADD25C,0.127000*%
G04 #@! TD*
G04 #@! TA.AperFunction,Conductor*
%ADD26C,0.254000*%
G04 #@! TD*
G04 #@! TA.AperFunction,Conductor*
%ADD27C,0.130000*%
G04 #@! TD*
G04 APERTURE END LIST*
D10*
X151395000Y-109261000D03*
X151395000Y-107561000D03*
D11*
X142630000Y-107380000D03*
X142630000Y-106420000D03*
D12*
X142430000Y-108191000D03*
X142430000Y-109091000D03*
X142430000Y-109991000D03*
X142430000Y-110891000D03*
X143630000Y-110891000D03*
X143630000Y-109991000D03*
X143630000Y-109091000D03*
X143630000Y-108191000D03*
D13*
X144530000Y-109521000D03*
X144530000Y-110161000D03*
X148642400Y-110153000D03*
X148642400Y-110793000D03*
D14*
X144530000Y-108761000D03*
X144530000Y-108121000D03*
D15*
X148005000Y-111700000D03*
X148975000Y-111700000D03*
D16*
X144095000Y-107011000D03*
X144095000Y-105611000D03*
X144295000Y-106661000D03*
X144295000Y-105961000D03*
X144495000Y-106311000D03*
X144695000Y-106661000D03*
X144695000Y-105961000D03*
X144895000Y-106311000D03*
X145095000Y-106661000D03*
X145095000Y-105961000D03*
X145295000Y-107011000D03*
X145295000Y-105611000D03*
D17*
X146910000Y-105341000D03*
X147550000Y-105341000D03*
D18*
X147580000Y-106566000D03*
X147580000Y-106116000D03*
D19*
X146880000Y-106341000D03*
D14*
X144530000Y-111661000D03*
X144530000Y-111021000D03*
D20*
X146230001Y-110561999D03*
X146829999Y-110561999D03*
D21*
X147546000Y-110140999D03*
X147546000Y-109541000D03*
X147546000Y-108941001D03*
D20*
X146829999Y-108520001D03*
X146230001Y-108520001D03*
D21*
X145514000Y-108941001D03*
X145514000Y-109541000D03*
X145514000Y-110140999D03*
D22*
X146530000Y-109541000D03*
D14*
X141730000Y-107061000D03*
X141730000Y-106421000D03*
D23*
X147590800Y-107475800D03*
X146950800Y-107475800D03*
D24*
X152225000Y-106611000D03*
X143032903Y-105443903D03*
X145410000Y-108121000D03*
X148461337Y-105753597D03*
X151790000Y-110261000D03*
X142530000Y-104941000D03*
X148655077Y-106974879D03*
X141627666Y-109458400D03*
X141512610Y-110643960D03*
X142882619Y-111858402D03*
X141030000Y-107541000D03*
X148916602Y-106300000D03*
X141030000Y-109941000D03*
X149517390Y-109973090D03*
X144810746Y-105108978D03*
X143845000Y-105086000D03*
X145521936Y-105114596D03*
X146200000Y-104900000D03*
X148847563Y-108102407D03*
X145910357Y-111858392D03*
X148390525Y-108647327D03*
X148375028Y-109358370D03*
X147150000Y-111650000D03*
D25*
X148048740Y-105341000D02*
X148461337Y-105753597D01*
D26*
X151395000Y-107561000D02*
X150811000Y-107561000D01*
D25*
X147550000Y-105341000D02*
X147550000Y-106086000D01*
X143900000Y-106311000D02*
X143325002Y-105736002D01*
X144530000Y-108121000D02*
X145410000Y-108121000D01*
X147550000Y-105341000D02*
X148048740Y-105341000D01*
D26*
X149178429Y-105753597D02*
X148461337Y-105753597D01*
X151345000Y-107411000D02*
X151195000Y-107561000D01*
D25*
X149999991Y-110400009D02*
X149999991Y-109741441D01*
X145514000Y-109541000D02*
X145350000Y-109541000D01*
X145514000Y-108941001D02*
X145514000Y-109541000D01*
X145514000Y-109541000D02*
X146530000Y-109541000D01*
X149900000Y-109641450D02*
X149900000Y-107929000D01*
X141730000Y-106421000D02*
X142629000Y-106421000D01*
D27*
X144495000Y-106311000D02*
X144300000Y-106311000D01*
D25*
X149999991Y-109741441D02*
X149900000Y-109641450D01*
D26*
X152145000Y-106611000D02*
X151195000Y-107561000D01*
X149462703Y-106347702D02*
X149462703Y-106037871D01*
D25*
X143800000Y-110891000D02*
X143630000Y-110891000D01*
D26*
X142630000Y-105846806D02*
X143032903Y-105443903D01*
D25*
X149607000Y-110793000D02*
X149999991Y-110400009D01*
X144730000Y-110161000D02*
X144530000Y-110161000D01*
X143325002Y-105736002D02*
X143032903Y-105443903D01*
D26*
X152225000Y-106611000D02*
X152145000Y-106611000D01*
D25*
X145410000Y-108121000D02*
X145410000Y-108837001D01*
X145350000Y-109541000D02*
X144730000Y-110161000D01*
X143630000Y-108191000D02*
X144500000Y-108191000D01*
X145410000Y-108121000D02*
X145823091Y-108121000D01*
D26*
X149462703Y-106037871D02*
X149178429Y-105753597D01*
D25*
X143630000Y-110891000D02*
X143759154Y-110891000D01*
D26*
X150676001Y-107561000D02*
X149462703Y-106347702D01*
D25*
X147550000Y-106086000D02*
X147580000Y-106116000D01*
X150268000Y-107561000D02*
X151395000Y-107561000D01*
X145823091Y-108121000D02*
X146468291Y-107475800D01*
D26*
X142630000Y-106420000D02*
X142630000Y-105846806D01*
D25*
X144300000Y-106311000D02*
X143900000Y-106311000D01*
X148642400Y-110793000D02*
X149607000Y-110793000D01*
X142629000Y-106421000D02*
X142630000Y-106420000D01*
D26*
X151395000Y-107561000D02*
X150676001Y-107561000D01*
D25*
X143630000Y-108191000D02*
X144460000Y-108191000D01*
X144530000Y-110161000D02*
X143800000Y-110891000D01*
X149900000Y-107929000D02*
X150268000Y-107561000D01*
X145410000Y-108837001D02*
X145514000Y-108941001D01*
X146468291Y-107475800D02*
X146950800Y-107475800D01*
X150511000Y-107561000D02*
X151395000Y-107561000D01*
X144530000Y-111021000D02*
X144530000Y-110161000D01*
X149785000Y-111700000D02*
X151395000Y-110090000D01*
D26*
X151245000Y-109311000D02*
X151195000Y-109261000D01*
X151395000Y-109261000D02*
X151210000Y-109261000D01*
D25*
X148975000Y-111700000D02*
X149785000Y-111700000D01*
X151395000Y-110090000D02*
X151395000Y-109261000D01*
X151790000Y-110261000D02*
X151790000Y-109656000D01*
X151790000Y-109656000D02*
X151395000Y-109261000D01*
X146910000Y-105341000D02*
X146910000Y-106311000D01*
X146910000Y-105341000D02*
X146910000Y-104561000D01*
X146910000Y-106311000D02*
X146880000Y-106341000D01*
X142930000Y-104541000D02*
X142530000Y-104941000D01*
X145968351Y-104417399D02*
X145844750Y-104541000D01*
X146766399Y-104417399D02*
X145968351Y-104417399D01*
X146910000Y-104561000D02*
X146766399Y-104417399D01*
X145844750Y-104541000D02*
X142930000Y-104541000D01*
X148246198Y-106566000D02*
X148655077Y-106974879D01*
X147580000Y-106566000D02*
X148246198Y-106566000D01*
X141627666Y-108902558D02*
X141627666Y-109458400D01*
X142430000Y-108191000D02*
X142339224Y-108191000D01*
X142339224Y-108191000D02*
X141627666Y-108902558D01*
X142165570Y-109991000D02*
X141512610Y-110643960D01*
X142430000Y-109991000D02*
X142165570Y-109991000D01*
X142430000Y-110891000D02*
X142430000Y-111405783D01*
X142430000Y-111405783D02*
X142882619Y-111858402D01*
X143630000Y-109091000D02*
X144200000Y-109091000D01*
X142650969Y-112341002D02*
X145030002Y-112341002D01*
X148005000Y-111700000D02*
X148005000Y-111385000D01*
X148442400Y-110153000D02*
X148005000Y-110590400D01*
X141450000Y-108721000D02*
X141030000Y-109141000D01*
X141730000Y-107061000D02*
X141610000Y-107061000D01*
X141030000Y-109941000D02*
X141030000Y-110941000D01*
X141450000Y-108161000D02*
X141450000Y-108721000D01*
X147871000Y-111700000D02*
X147229998Y-112341002D01*
X144295000Y-106661000D02*
X143349000Y-106661000D01*
X144695000Y-106661000D02*
X144295000Y-106661000D01*
X141030000Y-110941000D02*
X142430000Y-112341000D01*
X149551203Y-109939277D02*
X149517390Y-109973090D01*
X143630000Y-109091000D02*
X143103000Y-109091000D01*
X149523674Y-109973090D02*
X149517390Y-109973090D01*
X147590800Y-107275800D02*
X147333600Y-107018600D01*
X148642400Y-110153000D02*
X148442400Y-110153000D01*
X144769000Y-107380000D02*
X142630000Y-107380000D01*
X141130000Y-107541000D02*
X141030000Y-107541000D01*
X143020501Y-109008501D02*
X143020501Y-107770501D01*
X146331000Y-107018600D02*
X145729803Y-107619797D01*
X141450000Y-108161000D02*
X141450000Y-108011000D01*
X142391000Y-107141000D02*
X142630000Y-107380000D01*
X147333600Y-107018600D02*
X146331000Y-107018600D01*
X148005000Y-110590400D02*
X148005000Y-111385000D01*
X147590800Y-107475800D02*
X147590800Y-107275800D01*
X141730000Y-107141000D02*
X142391000Y-107141000D01*
X148642400Y-110153000D02*
X149337480Y-110153000D01*
X143020501Y-107770501D02*
X142630000Y-107380000D01*
X143103000Y-109091000D02*
X143020501Y-109008501D01*
X149551203Y-107698803D02*
X149551203Y-109939277D01*
X148916602Y-106300000D02*
X149551203Y-106934601D01*
X144200000Y-109091000D02*
X144530000Y-108761000D01*
X145008797Y-107619797D02*
X144769000Y-107380000D01*
X145729803Y-107619797D02*
X145008797Y-107619797D01*
X148005000Y-111700000D02*
X147871000Y-111700000D01*
X142650967Y-112341000D02*
X142650969Y-112341002D01*
X143349000Y-106661000D02*
X142630000Y-107380000D01*
X142030000Y-107431000D02*
X142579000Y-107431000D01*
X149337480Y-110153000D02*
X149517390Y-109973090D01*
X142430000Y-112341000D02*
X142650967Y-112341000D01*
X147590800Y-107475800D02*
X149328200Y-107475800D01*
X141610000Y-107061000D02*
X141130000Y-107541000D01*
X149551203Y-107698803D02*
X149551203Y-106979797D01*
X149551203Y-106934601D02*
X149551203Y-106979797D01*
X141450000Y-108011000D02*
X142030000Y-107431000D01*
X149328200Y-107475800D02*
X149551203Y-107698803D01*
X147229998Y-112341002D02*
X145030002Y-112341002D01*
X141030000Y-109141000D02*
X141030000Y-109941000D01*
X144100000Y-109521000D02*
X143630000Y-109991000D01*
X144530000Y-109521000D02*
X144100000Y-109521000D01*
X144695000Y-105224724D02*
X144810746Y-105108978D01*
X144695000Y-105961000D02*
X144695000Y-105224724D01*
X144020000Y-105961000D02*
X143945000Y-105961000D01*
X143779499Y-105151501D02*
X143845000Y-105086000D01*
X144295000Y-105961000D02*
X144020000Y-105961000D01*
X144020000Y-105961000D02*
X143978058Y-105961000D01*
X143978058Y-105961000D02*
X143779499Y-105762441D01*
X143779499Y-105762441D02*
X143779499Y-105151501D01*
X145791978Y-105384638D02*
X145521936Y-105114596D01*
X145791978Y-105730964D02*
X145791978Y-105384638D01*
X144895000Y-106311000D02*
X145211942Y-106311000D01*
X145211942Y-106311000D02*
X145791978Y-105730964D01*
X146055479Y-105144521D02*
X146200000Y-105000000D01*
X145095000Y-106661000D02*
X145520000Y-106661000D01*
X146055479Y-104903893D02*
X146175145Y-104784227D01*
X146055479Y-105244521D02*
X146055479Y-105144521D01*
X146055479Y-105244521D02*
X146055479Y-104903893D01*
X145520000Y-106661000D02*
X146055479Y-106125521D01*
X146200000Y-105000000D02*
X146200000Y-104900000D01*
X146055479Y-106125521D02*
X146055479Y-105244521D01*
X146829999Y-108520001D02*
X146829999Y-108139001D01*
X146829999Y-108139001D02*
X146866593Y-108102407D01*
X146866593Y-108102407D02*
X148847563Y-108102407D01*
X145712965Y-111661000D02*
X145910357Y-111858392D01*
X146230001Y-110561999D02*
X146230001Y-111538748D01*
X145809001Y-110140999D02*
X146230001Y-110561999D01*
X145514000Y-110140999D02*
X145809001Y-110140999D01*
X144530000Y-111661000D02*
X145712965Y-111661000D01*
X146230001Y-111538748D02*
X145910357Y-111858392D01*
X148096851Y-108941001D02*
X148390525Y-108647327D01*
X147546000Y-108941001D02*
X148096851Y-108941001D01*
X147546000Y-109541000D02*
X148192398Y-109541000D01*
X146829999Y-110561999D02*
X146829999Y-111329999D01*
X146829999Y-111329999D02*
X147150000Y-111650000D01*
M02*
