  0
SECTION
  2
HEADER
  9
$ANGBASE
  50
0.0
  9
$ANGDIR
  70
1
  9
$MEASUREMENT
  70
1
  0
ENDSEC
  0
SECTION
  2
TABLES
  0
TABLE
  2
LTYPE
  70
4
  0
LTYPE
  5
40F
  2
CONTINUOUS
  70
0
  3
Solid line
  72
65
  73
0
  40
0.0
  0
LTYPE
  5
410
  2
DASHDOT
 70
0
  3
Dash Dot ____ _ ____ _
 72
65
 73
4
 40
2.0
 49
1.25
 49
-0.25
 49
0.25
 49
-0.25
  0
LTYPE
  5
411
  2
DASHED
 70
0
  3
Dashed __ __ __ __ __
 72
65
 73
2
 40
0.75
 49
0.5
 49
-0.25
  0
LTYPE
  5
43B
  2
DOTTED
 70
0
  3
Dotted .  .  .  .
 72
65
 73
2
 40
0.2
 49
0.0
 49
-0.2
  0
ENDTAB
  0
TABLE
  2
STYLE
  70
4
  0
STYLE
  2
KICAD
  70
0
  40
0
  41
1
  42
1
  50
0
  71
0
  3
isocp.shx
  0
STYLE
  2
KICADB
  70
0
  40
0
  41
1
  42
1
  50
0
  71
0
  3
isocp.shx
  0
STYLE
  2
KICADI
  70
0
  40
0
  41
1
  42
1
  50
15
  71
0
  3
isocp.shx
  0
STYLE
  2
KICADBI
  70
0
  40
0
  41
1
  42
1
  50
15
  71
0
  3
isocp.shx
  0
ENDTAB
  0
TABLE
  2
LAYER
  70
1
  0
LAYER
  2
BLACK
  70
0
  62
7
  6
CONTINUOUS
  0
ENDTAB
  0
ENDSEC
  0
SECTION
  2
ENTITIES
0
LINE
8
BLACK
6
CONTINUOUS
10
152.3949999999999818
20
-103.8359999999999985
11
152.5816719999999975
21
-103.8523319999999899
0
LINE
8
BLACK
6
CONTINUOUS
10
152.5816719999999975
20
-103.8523319999999899
11
152.7626719999999807
21
-103.9008299999999991
0
LINE
8
BLACK
6
CONTINUOUS
10
152.7626719999999807
20
-103.9008299999999991
11
152.9325000000000045
21
-103.9800229999999885
0
LINE
8
BLACK
6
CONTINUOUS
10
152.9325000000000045
20
-103.9800229999999885
11
153.0859969999999919
21
-104.0875020000000006
0
LINE
8
BLACK
6
CONTINUOUS
10
153.0859969999999919
20
-104.0875020000000006
11
153.2184979999999825
21
-104.2200029999999913
0
LINE
8
BLACK
6
CONTINUOUS
10
153.2184979999999825
20
-104.2200029999999913
11
153.3259769999999946
21
-104.3734999999999928
0
LINE
8
BLACK
6
CONTINUOUS
10
153.3259769999999946
20
-104.3734999999999928
11
153.4051699999999983
21
-104.5433279999999883
0
LINE
8
BLACK
6
CONTINUOUS
10
153.4051699999999983
20
-104.5433279999999883
11
153.4536679999999933
21
-104.7243279999999999
0
LINE
8
BLACK
6
CONTINUOUS
10
153.4536679999999933
20
-104.7243279999999999
11
153.4699999999999989
21
-104.9110000000000014
0
LINE
8
BLACK
6
CONTINUOUS
10
153.4699999999999989
20
-104.9110000000000014
11
153.4699999999999989
21
-105.9110000000000014
0
LINE
8
BLACK
6
CONTINUOUS
10
153.4699999999999989
20
-105.9110000000000014
11
153.4699999999999989
21
-105.966951999999992
0
LINE
8
BLACK
6
CONTINUOUS
10
153.4699999999999989
20
-105.966951999999992
11
153.4989630000000034
21
-106.0750439999999912
0
LINE
8
BLACK
6
CONTINUOUS
10
153.4989630000000034
20
-106.0750439999999912
11
153.5549159999999915
21
-106.1719559999999944
0
LINE
8
BLACK
6
CONTINUOUS
10
153.5549159999999915
20
-106.1719559999999944
11
153.6340439999999887
21
-106.2510839999999916
0
LINE
8
BLACK
6
CONTINUOUS
10
153.6340439999999887
20
-106.2510839999999916
11
153.7309559999999919
21
-106.307036999999994
0
LINE
8
BLACK
6
CONTINUOUS
10
153.7309559999999919
20
-106.307036999999994
11
153.8390479999999911
21
-106.3359999999999985
0
LINE
8
BLACK
6
CONTINUOUS
10
153.8390479999999911
20
-106.3359999999999985
11
153.8949999999999818
21
-106.3359999999999985
0
LINE
8
BLACK
6
CONTINUOUS
10
153.8949999999999818
20
-106.3359999999999985
11
156.3949999999999818
21
-106.3359999999999985
0
LINE
8
BLACK
6
CONTINUOUS
10
156.3949999999999818
20
-106.3359999999999985
11
156.4096319999999878
21
-106.3374409999999983
0
LINE
8
BLACK
6
CONTINUOUS
10
156.4096319999999878
20
-106.3374409999999983
11
156.4103199999999845
21
-106.3377259999999893
0
LINE
8
BLACK
6
CONTINUOUS
10
156.4103199999999845
20
-106.3377259999999893
11
156.5229499999999803
21
-106.3504159999999956
0
LINE
8
BLACK
6
CONTINUOUS
10
156.5229499999999803
20
-106.3504159999999956
11
156.6444829999999797
21
-106.3929429999999883
0
LINE
8
BLACK
6
CONTINUOUS
10
156.6444829999999797
20
-106.3929429999999883
11
156.7535069999999848
21
-106.4614469999999926
0
LINE
8
BLACK
6
CONTINUOUS
10
156.7535069999999848
20
-106.4614469999999926
11
156.8445529999999906
21
-106.5524929999999983
0
LINE
8
BLACK
6
CONTINUOUS
10
156.8445529999999906
20
-106.5524929999999983
11
156.9130569999999807
21
-106.6615169999999893
0
LINE
8
BLACK
6
CONTINUOUS
10
156.9130569999999807
20
-106.6615169999999893
11
156.9555839999999876
21
-106.7830499999999887
0
LINE
8
BLACK
6
CONTINUOUS
10
156.9555839999999876
20
-106.7830499999999887
11
156.9682729999999822
21
-106.8956790000000012
0
LINE
8
BLACK
6
CONTINUOUS
10
156.9682729999999822
20
-106.8956790000000012
11
156.9685589999999991
21
-106.8963679999999954
0
LINE
8
BLACK
6
CONTINUOUS
10
156.9685589999999991
20
-106.8963679999999954
11
156.9699999999999989
21
-106.9110000000000014
0
LINE
8
BLACK
6
CONTINUOUS
10
156.9699999999999989
20
-106.9110000000000014
11
156.9699999999999989
21
-109.9110000000000014
0
LINE
8
BLACK
6
CONTINUOUS
10
156.9699999999999989
20
-109.9110000000000014
11
156.9685589999999991
21
-109.9256319999999931
0
LINE
8
BLACK
6
CONTINUOUS
10
156.9685589999999991
20
-109.9256319999999931
11
156.9682729999999822
21
-109.9263199999999898
0
LINE
8
BLACK
6
CONTINUOUS
10
156.9682729999999822
20
-109.9263199999999898
11
156.9555839999999876
21
-110.0389499999999998
0
LINE
8
BLACK
6
CONTINUOUS
10
156.9555839999999876
20
-110.0389499999999998
11
156.9130569999999807
21
-110.1604829999999993
0
LINE
8
BLACK
6
CONTINUOUS
10
156.9130569999999807
20
-110.1604829999999993
11
156.8445529999999906
21
-110.2695069999999902
0
LINE
8
BLACK
6
CONTINUOUS
10
156.8445529999999906
20
-110.2695069999999902
11
156.7535069999999848
21
-110.3605529999999959
0
LINE
8
BLACK
6
CONTINUOUS
10
156.7535069999999848
20
-110.3605529999999959
11
156.6444829999999797
21
-110.4290570000000002
0
LINE
8
BLACK
6
CONTINUOUS
10
156.6444829999999797
20
-110.4290570000000002
11
156.5229499999999803
21
-110.4715839999999929
0
LINE
8
BLACK
6
CONTINUOUS
10
156.5229499999999803
20
-110.4715839999999929
11
156.4103199999999845
21
-110.4842730000000017
0
LINE
8
BLACK
6
CONTINUOUS
10
156.4103199999999845
20
-110.4842730000000017
11
156.4096319999999878
21
-110.4845589999999902
0
LINE
8
BLACK
6
CONTINUOUS
10
156.4096319999999878
20
-110.4845589999999902
11
156.3949999999999818
21
-110.48599999999999
0
LINE
8
BLACK
6
CONTINUOUS
10
156.3949999999999818
20
-110.48599999999999
11
153.8949999999999818
21
-110.48599999999999
0
LINE
8
BLACK
6
CONTINUOUS
10
153.8949999999999818
20
-110.48599999999999
11
153.8390479999999911
21
-110.48599999999999
0
LINE
8
BLACK
6
CONTINUOUS
10
153.8390479999999911
20
-110.48599999999999
11
153.7309559999999919
21
-110.5149629999999945
0
LINE
8
BLACK
6
CONTINUOUS
10
153.7309559999999919
20
-110.5149629999999945
11
153.6340439999999887
21
-110.5709159999999969
0
LINE
8
BLACK
6
CONTINUOUS
10
153.6340439999999887
20
-110.5709159999999969
11
153.5549159999999915
21
-110.6500439999999941
0
LINE
8
BLACK
6
CONTINUOUS
10
153.5549159999999915
20
-110.6500439999999941
11
153.4989630000000034
21
-110.7469559999999973
0
LINE
8
BLACK
6
CONTINUOUS
10
153.4989630000000034
20
-110.7469559999999973
11
153.4699999999999989
21
-110.8550479999999965
0
LINE
8
BLACK
6
CONTINUOUS
10
153.4699999999999989
20
-110.8550479999999965
11
153.4699999999999989
21
-110.9110000000000014
0
LINE
8
BLACK
6
CONTINUOUS
10
153.4699999999999989
20
-110.9110000000000014
11
153.4699999999999989
21
-111.9110000000000014
0
LINE
8
BLACK
6
CONTINUOUS
10
153.4699999999999989
20
-111.9110000000000014
11
153.4536679999999933
21
-112.0976719999999887
0
LINE
8
BLACK
6
CONTINUOUS
10
153.4536679999999933
20
-112.0976719999999887
11
153.4051699999999983
21
-112.2786720000000003
0
LINE
8
BLACK
6
CONTINUOUS
10
153.4051699999999983
20
-112.2786720000000003
11
153.3259769999999946
21
-112.4484999999999957
0
LINE
8
BLACK
6
CONTINUOUS
10
153.3259769999999946
20
-112.4484999999999957
11
153.2184979999999825
21
-112.6019969999999972
0
LINE
8
BLACK
6
CONTINUOUS
10
153.2184979999999825
20
-112.6019969999999972
11
153.0859969999999919
21
-112.7344979999999879
0
LINE
8
BLACK
6
CONTINUOUS
10
153.0859969999999919
20
-112.7344979999999879
11
152.9325000000000045
21
-112.841977
0
LINE
8
BLACK
6
CONTINUOUS
10
152.9325000000000045
20
-112.841977
11
152.7626719999999807
21
-112.9211699999999894
0
LINE
8
BLACK
6
CONTINUOUS
10
152.7626719999999807
20
-112.9211699999999894
11
152.5816719999999975
21
-112.9696679999999986
0
LINE
8
BLACK
6
CONTINUOUS
10
152.5816719999999975
20
-112.9696679999999986
11
152.3949999999999818
21
-112.98599999999999
0
LINE
8
BLACK
6
CONTINUOUS
10
152.3949999999999818
20
-112.98599999999999
11
140.8949999999999818
21
-112.98599999999999
0
LINE
8
BLACK
6
CONTINUOUS
10
140.8949999999999818
20
-112.98599999999999
11
140.7083279999999945
21
-112.9696679999999986
0
LINE
8
BLACK
6
CONTINUOUS
10
140.7083279999999945
20
-112.9696679999999986
11
140.5273279999999829
21
-112.9211699999999894
0
LINE
8
BLACK
6
CONTINUOUS
10
140.5273279999999829
20
-112.9211699999999894
11
140.3574999999999875
21
-112.841977
0
LINE
8
BLACK
6
CONTINUOUS
10
140.3574999999999875
20
-112.841977
11
140.2040030000000002
21
-112.7344979999999879
0
LINE
8
BLACK
6
CONTINUOUS
10
140.2040030000000002
20
-112.7344979999999879
11
140.0715019999999811
21
-112.6019969999999972
0
LINE
8
BLACK
6
CONTINUOUS
10
140.0715019999999811
20
-112.6019969999999972
11
139.9640229999999974
21
-112.4484999999999957
0
LINE
8
BLACK
6
CONTINUOUS
10
139.9640229999999974
20
-112.4484999999999957
11
139.8848299999999938
21
-112.2786720000000003
0
LINE
8
BLACK
6
CONTINUOUS
10
139.8848299999999938
20
-112.2786720000000003
11
139.8363319999999987
21
-112.0976719999999887
0
LINE
8
BLACK
6
CONTINUOUS
10
139.8363319999999987
20
-112.0976719999999887
11
139.8199999999999932
21
-111.9110000000000014
0
LINE
8
BLACK
6
CONTINUOUS
10
139.8199999999999932
20
-111.9110000000000014
11
139.8199999999999932
21
-104.9110000000000014
0
LINE
8
BLACK
6
CONTINUOUS
10
139.8199999999999932
20
-104.9110000000000014
11
139.8363319999999987
21
-104.7243279999999999
0
LINE
8
BLACK
6
CONTINUOUS
10
139.8363319999999987
20
-104.7243279999999999
11
139.8848299999999938
21
-104.5433279999999883
0
LINE
8
BLACK
6
CONTINUOUS
10
139.8848299999999938
20
-104.5433279999999883
11
139.9640229999999974
21
-104.3734999999999928
0
LINE
8
BLACK
6
CONTINUOUS
10
139.9640229999999974
20
-104.3734999999999928
11
140.0715019999999811
21
-104.2200029999999913
0
LINE
8
BLACK
6
CONTINUOUS
10
140.0715019999999811
20
-104.2200029999999913
11
140.2040030000000002
21
-104.0875020000000006
0
LINE
8
BLACK
6
CONTINUOUS
10
140.2040030000000002
20
-104.0875020000000006
11
140.3574999999999875
21
-103.9800229999999885
0
LINE
8
BLACK
6
CONTINUOUS
10
140.3574999999999875
20
-103.9800229999999885
11
140.5273279999999829
21
-103.9008299999999991
0
LINE
8
BLACK
6
CONTINUOUS
10
140.5273279999999829
20
-103.9008299999999991
11
140.7083279999999945
21
-103.8523319999999899
0
LINE
8
BLACK
6
CONTINUOUS
10
140.7083279999999945
20
-103.8523319999999899
11
140.8949999999999818
21
-103.8359999999999985
0
LINE
8
BLACK
6
CONTINUOUS
10
140.8949999999999818
20
-103.8359999999999985
11
152.3949999999999818
21
-103.8359999999999985
0
LINE
8
BLACK
6
CONTINUOUS
10
140.8949999999999818
20
-103.98599999999999
11
140.8140730000000076
21
-103.98599999999999
0
LINE
8
BLACK
6
CONTINUOUS
10
140.8140730000000076
20
-103.98599999999999
11
140.6546779999999899
21
-104.0141059999999982
0
LINE
8
BLACK
6
CONTINUOUS
10
140.6546779999999899
20
-104.0141059999999982
11
140.5025849999999821
21
-104.0694629999999989
0
LINE
8
BLACK
6
CONTINUOUS
10
140.5025849999999821
20
-104.0694629999999989
11
140.3624149999999986
21
-104.1503900000000016
0
LINE
8
BLACK
6
CONTINUOUS
10
140.3624149999999986
20
-104.1503900000000016
11
140.238427999999999
21
-104.2544279999999901
0
LINE
8
BLACK
6
CONTINUOUS
10
140.238427999999999
20
-104.2544279999999901
11
140.1343899999999962
21
-104.3784149999999897
0
LINE
8
BLACK
6
CONTINUOUS
10
140.1343899999999962
20
-104.3784149999999897
11
140.0534629999999936
21
-104.5185850000000016
0
LINE
8
BLACK
6
CONTINUOUS
10
140.0534629999999936
20
-104.5185850000000016
11
139.998106000000007
21
-104.6706779999999952
0
LINE
8
BLACK
6
CONTINUOUS
10
139.998106000000007
20
-104.6706779999999952
11
139.9699999999999989
21
-104.8300729999999987
0
LINE
8
BLACK
6
CONTINUOUS
10
139.9699999999999989
20
-104.8300729999999987
11
139.9699999999999989
21
-104.9110000000000014
0
LINE
8
BLACK
6
CONTINUOUS
10
139.9699999999999989
20
-104.9110000000000014
11
139.9699999999999989
21
-111.9110000000000014
0
LINE
8
BLACK
6
CONTINUOUS
10
139.9699999999999989
20
-111.9110000000000014
11
139.9699999999999989
21
-111.9919269999999898
0
LINE
8
BLACK
6
CONTINUOUS
10
139.9699999999999989
20
-111.9919269999999898
11
139.998106000000007
21
-112.1513219999999933
0
LINE
8
BLACK
6
CONTINUOUS
10
139.998106000000007
20
-112.1513219999999933
11
140.0534629999999936
21
-112.3034150000000011
0
LINE
8
BLACK
6
CONTINUOUS
10
140.0534629999999936
20
-112.3034150000000011
11
140.1343899999999962
21
-112.4435849999999988
0
LINE
8
BLACK
6
CONTINUOUS
10
140.1343899999999962
20
-112.4435849999999988
11
140.238427999999999
21
-112.5675719999999984
0
LINE
8
BLACK
6
CONTINUOUS
10
140.238427999999999
20
-112.5675719999999984
11
140.3624149999999986
21
-112.6716100000000012
0
LINE
8
BLACK
6
CONTINUOUS
10
140.3624149999999986
20
-112.6716100000000012
11
140.5025849999999821
21
-112.7525369999999896
0
LINE
8
BLACK
6
CONTINUOUS
10
140.5025849999999821
20
-112.7525369999999896
11
140.6546779999999899
21
-112.8078939999999903
0
LINE
8
BLACK
6
CONTINUOUS
10
140.6546779999999899
20
-112.8078939999999903
11
140.8140730000000076
21
-112.8359999999999985
0
LINE
8
BLACK
6
CONTINUOUS
10
140.8140730000000076
20
-112.8359999999999985
11
140.8949999999999818
21
-112.8359999999999985
0
LINE
8
BLACK
6
CONTINUOUS
10
140.8949999999999818
20
-112.8359999999999985
11
152.3949999999999818
21
-112.8359999999999985
0
LINE
8
BLACK
6
CONTINUOUS
10
152.3949999999999818
20
-112.8359999999999985
11
152.4759269999999844
21
-112.8359999999999985
0
LINE
8
BLACK
6
CONTINUOUS
10
152.4759269999999844
20
-112.8359999999999985
11
152.6353220000000022
21
-112.8078939999999903
0
LINE
8
BLACK
6
CONTINUOUS
10
152.6353220000000022
20
-112.8078939999999903
11
152.7874149999999815
21
-112.7525369999999896
0
LINE
8
BLACK
6
CONTINUOUS
10
152.7874149999999815
20
-112.7525369999999896
11
152.9275849999999934
21
-112.6716100000000012
0
LINE
8
BLACK
6
CONTINUOUS
10
152.9275849999999934
20
-112.6716100000000012
11
153.0515719999999931
21
-112.5675719999999984
0
LINE
8
BLACK
6
CONTINUOUS
10
153.0515719999999931
20
-112.5675719999999984
11
153.1556099999999958
21
-112.4435849999999988
0
LINE
8
BLACK
6
CONTINUOUS
10
153.1556099999999958
20
-112.4435849999999988
11
153.2365369999999984
21
-112.3034150000000011
0
LINE
8
BLACK
6
CONTINUOUS
10
153.2365369999999984
20
-112.3034150000000011
11
153.291893999999985
21
-112.1513219999999933
0
LINE
8
BLACK
6
CONTINUOUS
10
153.291893999999985
20
-112.1513219999999933
11
153.3199999999999932
21
-111.9919269999999898
0
LINE
8
BLACK
6
CONTINUOUS
10
153.3199999999999932
20
-111.9919269999999898
11
153.3199999999999932
21
-111.9110000000000014
0
LINE
8
BLACK
6
CONTINUOUS
10
153.3199999999999932
20
-111.9110000000000014
11
153.3199999999999932
21
-110.9110000000000014
0
LINE
8
BLACK
6
CONTINUOUS
10
153.3199999999999932
20
-110.9110000000000014
11
153.321440999999993
21
-110.8963679999999954
0
LINE
8
BLACK
6
CONTINUOUS
10
153.321440999999993
20
-110.8963679999999954
11
153.321725999999984
21
-110.8956790000000012
0
LINE
8
BLACK
6
CONTINUOUS
10
153.321725999999984
20
-110.8956790000000012
11
153.3344160000000045
21
-110.7830499999999887
0
LINE
8
BLACK
6
CONTINUOUS
10
153.3344160000000045
20
-110.7830499999999887
11
153.3769429999999829
21
-110.6615169999999893
0
LINE
8
BLACK
6
CONTINUOUS
10
153.3769429999999829
20
-110.6615169999999893
11
153.4454470000000015
21
-110.5524929999999983
0
LINE
8
BLACK
6
CONTINUOUS
10
153.4454470000000015
20
-110.5524929999999983
11
153.5364930000000072
21
-110.4614469999999926
0
LINE
8
BLACK
6
CONTINUOUS
10
153.5364930000000072
20
-110.4614469999999926
11
153.6455169999999839
21
-110.3929429999999883
0
LINE
8
BLACK
6
CONTINUOUS
10
153.6455169999999839
20
-110.3929429999999883
11
153.7670499999999834
21
-110.3504159999999956
0
LINE
8
BLACK
6
CONTINUOUS
10
153.7670499999999834
20
-110.3504159999999956
11
153.8796789999999817
21
-110.3377259999999893
0
LINE
8
BLACK
6
CONTINUOUS
10
153.8796789999999817
20
-110.3377259999999893
11
153.8803680000000043
21
-110.3374409999999983
0
LINE
8
BLACK
6
CONTINUOUS
10
153.8803680000000043
20
-110.3374409999999983
11
153.8949999999999818
21
-110.3359999999999985
0
LINE
8
BLACK
6
CONTINUOUS
10
153.8949999999999818
20
-110.3359999999999985
11
156.3949999999999818
21
-110.3359999999999985
0
LINE
8
BLACK
6
CONTINUOUS
10
156.3949999999999818
20
-110.3359999999999985
11
156.4509520000000009
21
-110.3359999999999985
0
LINE
8
BLACK
6
CONTINUOUS
10
156.4509520000000009
20
-110.3359999999999985
11
156.5590440000000001
21
-110.307036999999994
0
LINE
8
BLACK
6
CONTINUOUS
10
156.5590440000000001
20
-110.307036999999994
11
156.6559560000000033
21
-110.2510839999999916
0
LINE
8
BLACK
6
CONTINUOUS
10
156.6559560000000033
20
-110.2510839999999916
11
156.7350840000000005
21
-110.1719559999999944
0
LINE
8
BLACK
6
CONTINUOUS
10
156.7350840000000005
20
-110.1719559999999944
11
156.7910369999999887
21
-110.0750439999999912
0
LINE
8
BLACK
6
CONTINUOUS
10
156.7910369999999887
20
-110.0750439999999912
11
156.8199999999999932
21
-109.966951999999992
0
LINE
8
BLACK
6
CONTINUOUS
10
156.8199999999999932
20
-109.966951999999992
11
156.8199999999999932
21
-109.9110000000000014
0
LINE
8
BLACK
6
CONTINUOUS
10
156.8199999999999932
20
-109.9110000000000014
11
156.8199999999999932
21
-106.9110000000000014
0
LINE
8
BLACK
6
CONTINUOUS
10
156.8199999999999932
20
-106.9110000000000014
11
156.8199999999999932
21
-106.8550479999999965
0
LINE
8
BLACK
6
CONTINUOUS
10
156.8199999999999932
20
-106.8550479999999965
11
156.7910369999999887
21
-106.7469559999999973
0
LINE
8
BLACK
6
CONTINUOUS
10
156.7910369999999887
20
-106.7469559999999973
11
156.7350840000000005
21
-106.6500439999999941
0
LINE
8
BLACK
6
CONTINUOUS
10
156.7350840000000005
20
-106.6500439999999941
11
156.6559560000000033
21
-106.5709159999999969
0
LINE
8
BLACK
6
CONTINUOUS
10
156.6559560000000033
20
-106.5709159999999969
11
156.5590440000000001
21
-106.5149629999999945
0
LINE
8
BLACK
6
CONTINUOUS
10
156.5590440000000001
20
-106.5149629999999945
11
156.4509520000000009
21
-106.48599999999999
0
LINE
8
BLACK
6
CONTINUOUS
10
156.4509520000000009
20
-106.48599999999999
11
156.3949999999999818
21
-106.48599999999999
0
LINE
8
BLACK
6
CONTINUOUS
10
156.3949999999999818
20
-106.48599999999999
11
153.8949999999999818
21
-106.48599999999999
0
LINE
8
BLACK
6
CONTINUOUS
10
153.8949999999999818
20
-106.48599999999999
11
153.8803680000000043
21
-106.4845589999999902
0
LINE
8
BLACK
6
CONTINUOUS
10
153.8803680000000043
20
-106.4845589999999902
11
153.8796789999999817
21
-106.4842730000000017
0
LINE
8
BLACK
6
CONTINUOUS
10
153.8796789999999817
20
-106.4842730000000017
11
153.7670499999999834
21
-106.4715839999999929
0
LINE
8
BLACK
6
CONTINUOUS
10
153.7670499999999834
20
-106.4715839999999929
11
153.6455169999999839
21
-106.4290570000000002
0
LINE
8
BLACK
6
CONTINUOUS
10
153.6455169999999839
20
-106.4290570000000002
11
153.5364930000000072
21
-106.3605529999999959
0
LINE
8
BLACK
6
CONTINUOUS
10
153.5364930000000072
20
-106.3605529999999959
11
153.4454470000000015
21
-106.2695069999999902
0
LINE
8
BLACK
6
CONTINUOUS
10
153.4454470000000015
20
-106.2695069999999902
11
153.3769429999999829
21
-106.1604829999999993
0
LINE
8
BLACK
6
CONTINUOUS
10
153.3769429999999829
20
-106.1604829999999993
11
153.3344160000000045
21
-106.0389499999999998
0
LINE
8
BLACK
6
CONTINUOUS
10
153.3344160000000045
20
-106.0389499999999998
11
153.321725999999984
21
-105.9263199999999898
0
LINE
8
BLACK
6
CONTINUOUS
10
153.321725999999984
20
-105.9263199999999898
11
153.321440999999993
21
-105.9256319999999931
0
LINE
8
BLACK
6
CONTINUOUS
10
153.321440999999993
20
-105.9256319999999931
11
153.3199999999999932
21
-105.9110000000000014
0
LINE
8
BLACK
6
CONTINUOUS
10
153.3199999999999932
20
-105.9110000000000014
11
153.3199999999999932
21
-104.9110000000000014
0
LINE
8
BLACK
6
CONTINUOUS
10
153.3199999999999932
20
-104.9110000000000014
11
153.3199999999999932
21
-104.8300729999999987
0
LINE
8
BLACK
6
CONTINUOUS
10
153.3199999999999932
20
-104.8300729999999987
11
153.291893999999985
21
-104.6706779999999952
0
LINE
8
BLACK
6
CONTINUOUS
10
153.291893999999985
20
-104.6706779999999952
11
153.2365369999999984
21
-104.5185850000000016
0
LINE
8
BLACK
6
CONTINUOUS
10
153.2365369999999984
20
-104.5185850000000016
11
153.1556099999999958
21
-104.3784149999999897
0
LINE
8
BLACK
6
CONTINUOUS
10
153.1556099999999958
20
-104.3784149999999897
11
153.0515719999999931
21
-104.2544279999999901
0
LINE
8
BLACK
6
CONTINUOUS
10
153.0515719999999931
20
-104.2544279999999901
11
152.9275849999999934
21
-104.1503900000000016
0
LINE
8
BLACK
6
CONTINUOUS
10
152.9275849999999934
20
-104.1503900000000016
11
152.7874149999999815
21
-104.0694629999999989
0
LINE
8
BLACK
6
CONTINUOUS
10
152.7874149999999815
20
-104.0694629999999989
11
152.6353220000000022
21
-104.0141059999999982
0
LINE
8
BLACK
6
CONTINUOUS
10
152.6353220000000022
20
-104.0141059999999982
11
152.4759269999999844
21
-103.98599999999999
0
LINE
8
BLACK
6
CONTINUOUS
10
152.4759269999999844
20
-103.98599999999999
11
152.3949999999999818
21
-103.98599999999999
0
LINE
8
BLACK
6
CONTINUOUS
10
152.3949999999999818
20
-103.98599999999999
11
140.8949999999999818
21
-103.98599999999999
  0
ENDSEC
  0
EOF
