  0
SECTION
  2
HEADER
  9
$ANGBASE
  50
0.0
  9
$ANGDIR
  70
1
  9
$MEASUREMENT
  70
0
  0
ENDSEC
  0
SECTION
  2
TABLES
  0
TABLE
  2
LTYPE
  70
4
  0
LTYPE
  5
40F
  2
CONTINUOUS
  70
0
  3
Solid line
  72
65
  73
0
  40
0.0
  0
LTYPE
  5
410
  2
DASHDOT
 70
0
  3
Dash Dot ____ _ ____ _
 72
65
 73
4
 40
2.0
 49
1.25
 49
-0.25
 49
0.25
 49
-0.25
  0
LTYPE
  5
411
  2
DASHED
 70
0
  3
Dashed __ __ __ __ __
 72
65
 73
2
 40
0.75
 49
0.5
 49
-0.25
  0
LTYPE
  5
43B
  2
DOTTED
 70
0
  3
Dotted .  .  .  .
 72
65
 73
2
 40
0.2
 49
0.0
 49
-0.2
  0
ENDTAB
  0
TABLE
  2
STYLE
  70
4
  0
STYLE
  2
KICAD
  70
0
  40
0
  41
1
  42
1
  50
0
  71
0
  3
isocp.shx
  0
STYLE
  2
KICADB
  70
0
  40
0
  41
1
  42
1
  50
0
  71
0
  3
isocp.shx
  0
STYLE
  2
KICADI
  70
0
  40
0
  41
1
  42
1
  50
15
  71
0
  3
isocp.shx
  0
STYLE
  2
KICADBI
  70
0
  40
0
  41
1
  42
1
  50
15
  71
0
  3
isocp.shx
  0
ENDTAB
  0
TABLE
  2
LAYER
  70
1
  0
LAYER
  2
BLACK
  70
0
  62
7
  6
CONTINUOUS
  0
ENDTAB
  0
ENDSEC
  0
SECTION
  2
ENTITIES
0
LINE
8
BLACK
6
CONTINUOUS
10
6.03484
20
-4.34817
11
6.03094
21
-4.34868
0
LINE
8
BLACK
6
CONTINUOUS
10
6.03094
20
-4.34868
11
6.02687
21
-4.35037
0
LINE
8
BLACK
6
CONTINUOUS
10
6.02687
20
-4.35037
11
6.02338
21
-4.35305
0
LINE
8
BLACK
6
CONTINUOUS
10
6.02338
20
-4.35305
11
6.02069
21
-4.35655
0
LINE
8
BLACK
6
CONTINUOUS
10
6.02069
20
-4.35655
11
6.01901
21
-4.36062
0
LINE
8
BLACK
6
CONTINUOUS
10
6.01901
20
-4.36062
11
6.01848
21
-4.36467
0
LINE
8
BLACK
6
CONTINUOUS
10
6.01848
20
-4.36467
11
6.01858
21
-4.36498
0
LINE
8
BLACK
6
CONTINUOUS
10
6.01858
20
-4.36498
11
6.01858
21
-4.40553
0
LINE
8
BLACK
6
CONTINUOUS
10
6.01858
20
-4.40553
11
6.01793
21
-4.41288
0
LINE
8
BLACK
6
CONTINUOUS
10
6.01793
20
-4.41288
11
6.01603
21
-4.42001
0
LINE
8
BLACK
6
CONTINUOUS
10
6.01603
20
-4.42001
11
6.01291
21
-4.4267
0
LINE
8
BLACK
6
CONTINUOUS
10
6.01291
20
-4.4267
11
6.00868
21
-4.43274
0
LINE
8
BLACK
6
CONTINUOUS
10
6.00868
20
-4.43274
11
6.00346
21
-4.43796
0
LINE
8
BLACK
6
CONTINUOUS
10
6.00346
20
-4.43796
11
5.99742
21
-4.44219
0
LINE
8
BLACK
6
CONTINUOUS
10
5.99742
20
-4.44219
11
5.99073
21
-4.44531
0
LINE
8
BLACK
6
CONTINUOUS
10
5.99073
20
-4.44531
11
5.9836
21
-4.44721
0
LINE
8
BLACK
6
CONTINUOUS
10
5.9836
20
-4.44721
11
5.97625
21
-4.44786
0
LINE
8
BLACK
6
CONTINUOUS
10
5.97625
20
-4.44786
11
5.5235
21
-4.44786
0
LINE
8
BLACK
6
CONTINUOUS
10
5.5235
20
-4.44786
11
5.51615
21
-4.44721
0
LINE
8
BLACK
6
CONTINUOUS
10
5.51615
20
-4.44721
11
5.50902
21
-4.44531
0
LINE
8
BLACK
6
CONTINUOUS
10
5.50902
20
-4.44531
11
5.50234
21
-4.44219
0
LINE
8
BLACK
6
CONTINUOUS
10
5.50234
20
-4.44219
11
5.49629
21
-4.43796
0
LINE
8
BLACK
6
CONTINUOUS
10
5.49629
20
-4.43796
11
5.49108
21
-4.43274
0
LINE
8
BLACK
6
CONTINUOUS
10
5.49108
20
-4.43274
11
5.48685
21
-4.4267
0
LINE
8
BLACK
6
CONTINUOUS
10
5.48685
20
-4.4267
11
5.48373
21
-4.42001
0
LINE
8
BLACK
6
CONTINUOUS
10
5.48373
20
-4.42001
11
5.48182
21
-4.41288
0
LINE
8
BLACK
6
CONTINUOUS
10
5.48182
20
-4.41288
11
5.48118
21
-4.40553
0
LINE
8
BLACK
6
CONTINUOUS
10
5.48118
20
-4.40553
11
5.48118
21
-4.12994
0
LINE
8
BLACK
6
CONTINUOUS
10
5.48118
20
-4.12994
11
5.48182
21
-4.1226
0
LINE
8
BLACK
6
CONTINUOUS
10
5.48182
20
-4.1226
11
5.48373
21
-4.11547
0
LINE
8
BLACK
6
CONTINUOUS
10
5.48373
20
-4.11547
11
5.48685
21
-4.10878
0
LINE
8
BLACK
6
CONTINUOUS
10
5.48685
20
-4.10878
11
5.49108
21
-4.10274
0
LINE
8
BLACK
6
CONTINUOUS
10
5.49108
20
-4.10274
11
5.49629
21
-4.09752
0
LINE
8
BLACK
6
CONTINUOUS
10
5.49629
20
-4.09752
11
5.50234
21
-4.09329
0
LINE
8
BLACK
6
CONTINUOUS
10
5.50234
20
-4.09329
11
5.50902
21
-4.09017
0
LINE
8
BLACK
6
CONTINUOUS
10
5.50902
20
-4.09017
11
5.51615
21
-4.08826
0
LINE
8
BLACK
6
CONTINUOUS
10
5.51615
20
-4.08826
11
5.5235
21
-4.08762
0
LINE
8
BLACK
6
CONTINUOUS
10
5.5235
20
-4.08762
11
5.97606
21
-4.08762
0
LINE
8
BLACK
6
CONTINUOUS
10
5.97606
20
-4.08762
11
5.98341
21
-4.08826
0
LINE
8
BLACK
6
CONTINUOUS
10
5.98341
20
-4.08826
11
5.99053
21
-4.09017
0
LINE
8
BLACK
6
CONTINUOUS
10
5.99053
20
-4.09017
11
5.99722
21
-4.09329
0
LINE
8
BLACK
6
CONTINUOUS
10
5.99722
20
-4.09329
11
6.00326
21
-4.09752
0
LINE
8
BLACK
6
CONTINUOUS
10
6.00326
20
-4.09752
11
6.00848
21
-4.10274
0
LINE
8
BLACK
6
CONTINUOUS
10
6.00848
20
-4.10274
11
6.01271
21
-4.10878
0
LINE
8
BLACK
6
CONTINUOUS
10
6.01271
20
-4.10878
11
6.01583
21
-4.11547
0
LINE
8
BLACK
6
CONTINUOUS
10
6.01583
20
-4.11547
11
6.01774
21
-4.1226
0
LINE
8
BLACK
6
CONTINUOUS
10
6.01774
20
-4.1226
11
6.01838
21
-4.12994
0
LINE
8
BLACK
6
CONTINUOUS
10
6.01838
20
-4.12994
11
6.01838
21
-4.16813
0
LINE
8
BLACK
6
CONTINUOUS
10
6.01838
20
-4.16813
11
6.0183
21
-4.16857
0
LINE
8
BLACK
6
CONTINUOUS
10
6.0183
20
-4.16857
11
6.01885
21
-4.17242
0
LINE
8
BLACK
6
CONTINUOUS
10
6.01885
20
-4.17242
11
6.02056
21
-4.17642
0
LINE
8
BLACK
6
CONTINUOUS
10
6.02056
20
-4.17642
11
6.02324
21
-4.17985
0
LINE
8
BLACK
6
CONTINUOUS
10
6.02324
20
-4.17985
11
6.02672
21
-4.18246
0
LINE
8
BLACK
6
CONTINUOUS
10
6.02672
20
-4.18246
11
6.03076
21
-4.18409
0
LINE
8
BLACK
6
CONTINUOUS
10
6.03076
20
-4.18409
11
6.03477
21
-4.18458
0
LINE
8
BLACK
6
CONTINUOUS
10
6.03477
20
-4.18458
11
6.03508
21
-4.18447
0
LINE
8
BLACK
6
CONTINUOUS
10
6.03508
20
-4.18447
11
6.0351
21
-4.18448
0
LINE
8
BLACK
6
CONTINUOUS
10
6.0351
20
-4.18448
11
6.03511
21
-4.18447
0
LINE
8
BLACK
6
CONTINUOUS
10
6.03511
20
-4.18447
11
6.13354
21
-4.18447
0
LINE
8
BLACK
6
CONTINUOUS
10
6.13354
20
-4.18447
11
6.13355
21
-4.18447
0
LINE
8
BLACK
6
CONTINUOUS
10
6.13355
20
-4.18447
11
6.13355
21
-4.18447
0
LINE
8
BLACK
6
CONTINUOUS
10
6.13355
20
-4.18447
11
6.13865
21
-4.18507
0
LINE
8
BLACK
6
CONTINUOUS
10
6.13865
20
-4.18507
11
6.14349
21
-4.18679
0
LINE
8
BLACK
6
CONTINUOUS
10
6.14349
20
-4.18679
11
6.14783
21
-4.18955
0
LINE
8
BLACK
6
CONTINUOUS
10
6.14783
20
-4.18955
11
6.15144
21
-4.19319
0
LINE
8
BLACK
6
CONTINUOUS
10
6.15144
20
-4.19319
11
6.15415
21
-4.19756
0
LINE
8
BLACK
6
CONTINUOUS
10
6.15415
20
-4.19756
11
6.15582
21
-4.20241
0
LINE
8
BLACK
6
CONTINUOUS
10
6.15582
20
-4.20241
11
6.15637
21
-4.2075
0
LINE
8
BLACK
6
CONTINUOUS
10
6.15637
20
-4.2075
11
6.15637
21
-4.2075
0
LINE
8
BLACK
6
CONTINUOUS
10
6.15637
20
-4.2075
11
6.15637
21
-4.32561
0
LINE
8
BLACK
6
CONTINUOUS
10
6.15637
20
-4.32561
11
6.15581
21
-4.33065
0
LINE
8
BLACK
6
CONTINUOUS
10
6.15581
20
-4.33065
11
6.15413
21
-4.33544
0
LINE
8
BLACK
6
CONTINUOUS
10
6.15413
20
-4.33544
11
6.15143
21
-4.33973
0
LINE
8
BLACK
6
CONTINUOUS
10
6.15143
20
-4.33973
11
6.14785
21
-4.34331
0
LINE
8
BLACK
6
CONTINUOUS
10
6.14785
20
-4.34331
11
6.14356
21
-4.34601
0
LINE
8
BLACK
6
CONTINUOUS
10
6.14356
20
-4.34601
11
6.13877
21
-4.34768
0
LINE
8
BLACK
6
CONTINUOUS
10
6.13877
20
-4.34768
11
6.13374
21
-4.34825
0
LINE
8
BLACK
6
CONTINUOUS
10
6.13374
20
-4.34825
11
6.03531
21
-4.34825
0
LINE
8
BLACK
6
CONTINUOUS
10
6.03531
20
-4.34825
11
6.03484
21
-4.34817
0
LINE
8
BLACK
6
CONTINUOUS
10
5.52297
20
-4.09343
11
5.51715
21
-4.09394
0
LINE
8
BLACK
6
CONTINUOUS
10
5.51715
20
-4.09394
11
5.511
21
-4.09559
0
LINE
8
BLACK
6
CONTINUOUS
10
5.511
20
-4.09559
11
5.50522
21
-4.09829
0
LINE
8
BLACK
6
CONTINUOUS
10
5.50522
20
-4.09829
11
5.5
21
-4.10194
0
LINE
8
BLACK
6
CONTINUOUS
10
5.5
20
-4.10194
11
5.4955
21
-4.10645
0
LINE
8
BLACK
6
CONTINUOUS
10
5.4955
20
-4.10645
11
5.49184
21
-4.11167
0
LINE
8
BLACK
6
CONTINUOUS
10
5.49184
20
-4.11167
11
5.48915
21
-4.11744
0
LINE
8
BLACK
6
CONTINUOUS
10
5.48915
20
-4.11744
11
5.4875
21
-4.1236
0
LINE
8
BLACK
6
CONTINUOUS
10
5.4875
20
-4.1236
11
5.48697
21
-4.12961
0
LINE
8
BLACK
6
CONTINUOUS
10
5.48697
20
-4.12961
11
5.48708
21
-4.12994
0
LINE
8
BLACK
6
CONTINUOUS
10
5.48708
20
-4.12994
11
5.48708
21
-4.40553
0
LINE
8
BLACK
6
CONTINUOUS
10
5.48708
20
-4.40553
11
5.48699
21
-4.40606
0
LINE
8
BLACK
6
CONTINUOUS
10
5.48699
20
-4.40606
11
5.4875
21
-4.41188
0
LINE
8
BLACK
6
CONTINUOUS
10
5.4875
20
-4.41188
11
5.48915
21
-4.41804
0
LINE
8
BLACK
6
CONTINUOUS
10
5.48915
20
-4.41804
11
5.49184
21
-4.42381
0
LINE
8
BLACK
6
CONTINUOUS
10
5.49184
20
-4.42381
11
5.4955
21
-4.42903
0
LINE
8
BLACK
6
CONTINUOUS
10
5.4955
20
-4.42903
11
5.5
21
-4.43354
0
LINE
8
BLACK
6
CONTINUOUS
10
5.5
20
-4.43354
11
5.50522
21
-4.43719
0
LINE
8
BLACK
6
CONTINUOUS
10
5.50522
20
-4.43719
11
5.511
21
-4.43989
0
LINE
8
BLACK
6
CONTINUOUS
10
5.511
20
-4.43989
11
5.51715
21
-4.44154
0
LINE
8
BLACK
6
CONTINUOUS
10
5.51715
20
-4.44154
11
5.52316
21
-4.44206
0
LINE
8
BLACK
6
CONTINUOUS
10
5.52316
20
-4.44206
11
5.5235
21
-4.44195
0
LINE
8
BLACK
6
CONTINUOUS
10
5.5235
20
-4.44195
11
5.97625
21
-4.44195
0
LINE
8
BLACK
6
CONTINUOUS
10
5.97625
20
-4.44195
11
5.97678
21
-4.44205
0
LINE
8
BLACK
6
CONTINUOUS
10
5.97678
20
-4.44205
11
5.9826
21
-4.44154
0
LINE
8
BLACK
6
CONTINUOUS
10
5.9826
20
-4.44154
11
5.98876
21
-4.43989
0
LINE
8
BLACK
6
CONTINUOUS
10
5.98876
20
-4.43989
11
5.99453
21
-4.43719
0
LINE
8
BLACK
6
CONTINUOUS
10
5.99453
20
-4.43719
11
5.99975
21
-4.43354
0
LINE
8
BLACK
6
CONTINUOUS
10
5.99975
20
-4.43354
11
6.00426
21
-4.42903
0
LINE
8
BLACK
6
CONTINUOUS
10
6.00426
20
-4.42903
11
6.00791
21
-4.42381
0
LINE
8
BLACK
6
CONTINUOUS
10
6.00791
20
-4.42381
11
6.01061
21
-4.41804
0
LINE
8
BLACK
6
CONTINUOUS
10
6.01061
20
-4.41804
11
6.01226
21
-4.41188
0
LINE
8
BLACK
6
CONTINUOUS
10
6.01226
20
-4.41188
11
6.01278
21
-4.40587
0
LINE
8
BLACK
6
CONTINUOUS
10
6.01278
20
-4.40587
11
6.01267
21
-4.40553
0
LINE
8
BLACK
6
CONTINUOUS
10
6.01267
20
-4.40553
11
6.01267
21
-4.36498
0
LINE
8
BLACK
6
CONTINUOUS
10
6.01267
20
-4.36498
11
6.01324
21
-4.35995
0
LINE
8
BLACK
6
CONTINUOUS
10
6.01324
20
-4.35995
11
6.01491
21
-4.35516
0
LINE
8
BLACK
6
CONTINUOUS
10
6.01491
20
-4.35516
11
6.01761
21
-4.35087
0
LINE
8
BLACK
6
CONTINUOUS
10
6.01761
20
-4.35087
11
6.0212
21
-4.34728
0
LINE
8
BLACK
6
CONTINUOUS
10
6.0212
20
-4.34728
11
6.02549
21
-4.34459
0
LINE
8
BLACK
6
CONTINUOUS
10
6.02549
20
-4.34459
11
6.03027
21
-4.34291
0
LINE
8
BLACK
6
CONTINUOUS
10
6.03027
20
-4.34291
11
6.03531
21
-4.34235
0
LINE
8
BLACK
6
CONTINUOUS
10
6.03531
20
-4.34235
11
6.13374
21
-4.34235
0
LINE
8
BLACK
6
CONTINUOUS
10
6.13374
20
-4.34235
11
6.1342
21
-4.34243
0
LINE
8
BLACK
6
CONTINUOUS
10
6.1342
20
-4.34243
11
6.1381
21
-4.34192
0
LINE
8
BLACK
6
CONTINUOUS
10
6.1381
20
-4.34192
11
6.14217
21
-4.34023
0
LINE
8
BLACK
6
CONTINUOUS
10
6.14217
20
-4.34023
11
6.14567
21
-4.33755
0
LINE
8
BLACK
6
CONTINUOUS
10
6.14567
20
-4.33755
11
6.14835
21
-4.33405
0
LINE
8
BLACK
6
CONTINUOUS
10
6.14835
20
-4.33405
11
6.15004
21
-4.32998
0
LINE
8
BLACK
6
CONTINUOUS
10
6.15004
20
-4.32998
11
6.15057
21
-4.32593
0
LINE
8
BLACK
6
CONTINUOUS
10
6.15057
20
-4.32593
11
6.15047
21
-4.32561
0
LINE
8
BLACK
6
CONTINUOUS
10
6.15047
20
-4.32561
11
6.15047
21
-4.2075
0
LINE
8
BLACK
6
CONTINUOUS
10
6.15047
20
-4.2075
11
6.15047
21
-4.20749
0
LINE
8
BLACK
6
CONTINUOUS
10
6.15047
20
-4.20749
11
6.15047
21
-4.20749
0
LINE
8
BLACK
6
CONTINUOUS
10
6.15047
20
-4.20749
11
6.15047
21
-4.20747
0
LINE
8
BLACK
6
CONTINUOUS
10
6.15047
20
-4.20747
11
6.15055
21
-4.20701
0
LINE
8
BLACK
6
CONTINUOUS
10
6.15055
20
-4.20701
11
6.15005
21
-4.20304
0
LINE
8
BLACK
6
CONTINUOUS
10
6.15005
20
-4.20304
11
6.14836
21
-4.19889
0
LINE
8
BLACK
6
CONTINUOUS
10
6.14836
20
-4.19889
11
6.14564
21
-4.19532
0
LINE
8
BLACK
6
CONTINUOUS
10
6.14564
20
-4.19532
11
6.1421
21
-4.19257
0
LINE
8
BLACK
6
CONTINUOUS
10
6.1421
20
-4.19257
11
6.13797
21
-4.19084
0
LINE
8
BLACK
6
CONTINUOUS
10
6.13797
20
-4.19084
11
6.13385
21
-4.19027
0
LINE
8
BLACK
6
CONTINUOUS
10
6.13385
20
-4.19027
11
6.13364
21
-4.19034
0
LINE
8
BLACK
6
CONTINUOUS
10
6.13364
20
-4.19034
11
6.13354
21
-4.19038
0
LINE
8
BLACK
6
CONTINUOUS
10
6.13354
20
-4.19038
11
6.03511
21
-4.19038
0
LINE
8
BLACK
6
CONTINUOUS
10
6.03511
20
-4.19038
11
6.03507
21
-4.19037
0
LINE
8
BLACK
6
CONTINUOUS
10
6.03507
20
-4.19037
11
6.03014
21
-4.18987
0
LINE
8
BLACK
6
CONTINUOUS
10
6.03014
20
-4.18987
11
6.02538
21
-4.18825
0
LINE
8
BLACK
6
CONTINUOUS
10
6.02538
20
-4.18825
11
6.0211
21
-4.18562
0
LINE
8
BLACK
6
CONTINUOUS
10
6.0211
20
-4.18562
11
6.01751
21
-4.18211
0
LINE
8
BLACK
6
CONTINUOUS
10
6.01751
20
-4.18211
11
6.0148
21
-4.17788
0
LINE
8
BLACK
6
CONTINUOUS
10
6.0148
20
-4.17788
11
6.01309
21
-4.17315
0
LINE
8
BLACK
6
CONTINUOUS
10
6.01309
20
-4.17315
11
6.01248
21
-4.16816
0
LINE
8
BLACK
6
CONTINUOUS
10
6.01248
20
-4.16816
11
6.01248
21
-4.16815
0
LINE
8
BLACK
6
CONTINUOUS
10
6.01248
20
-4.16815
11
6.01248
21
-4.16813
0
LINE
8
BLACK
6
CONTINUOUS
10
6.01248
20
-4.16813
11
6.01248
21
-4.12994
0
LINE
8
BLACK
6
CONTINUOUS
10
6.01248
20
-4.12994
11
6.01257
21
-4.12942
0
LINE
8
BLACK
6
CONTINUOUS
10
6.01257
20
-4.12942
11
6.01206
21
-4.1236
0
LINE
8
BLACK
6
CONTINUOUS
10
6.01206
20
-4.1236
11
6.01041
21
-4.11744
0
LINE
8
BLACK
6
CONTINUOUS
10
6.01041
20
-4.11744
11
6.00772
21
-4.11167
0
LINE
8
BLACK
6
CONTINUOUS
10
6.00772
20
-4.11167
11
6.00406
21
-4.10645
0
LINE
8
BLACK
6
CONTINUOUS
10
6.00406
20
-4.10645
11
5.99956
21
-4.10194
0
LINE
8
BLACK
6
CONTINUOUS
10
5.99956
20
-4.10194
11
5.99434
21
-4.09829
0
LINE
8
BLACK
6
CONTINUOUS
10
5.99434
20
-4.09829
11
5.98856
21
-4.09559
0
LINE
8
BLACK
6
CONTINUOUS
10
5.98856
20
-4.09559
11
5.98241
21
-4.09394
0
LINE
8
BLACK
6
CONTINUOUS
10
5.98241
20
-4.09394
11
5.9764
21
-4.09342
0
LINE
8
BLACK
6
CONTINUOUS
10
5.9764
20
-4.09342
11
5.97606
21
-4.09353
0
LINE
8
BLACK
6
CONTINUOUS
10
5.97606
20
-4.09353
11
5.5235
21
-4.09353
0
LINE
8
BLACK
6
CONTINUOUS
10
5.5235
20
-4.09353
11
5.52297
21
-4.09343
  0
ENDSEC
  0
EOF
